<?xml version="1.0" encoding="UTF-8" standalone="no"?>
<!-- Created with Inkscape (http://www.inkscape.org/) -->

<svg
   width="268.67789em"
   height="268.67789em"
   viewBox="0 0 268.67789 268.67789"
   version="1.1"
   id="svg5"
   xml:space="preserve"
   xmlns="http://www.w3.org/2000/svg"
   xmlns:svg="http://www.w3.org/2000/svg"><defs
     id="defs2" /><g
     id="layer1"
     transform="translate(1658.9856,-1015.8098)"><g
       id="g53733"><rect
         style="display:inline;fill:none;fill-opacity:1;stroke:none;stroke-width:5.29167;stroke-dasharray:none;stroke-opacity:1"
         id="rect53399"
         width="268.67789"
         height="268.67789"
         x="-1658.9856"
         y="1015.8098" /><g
         id="g52805"
         transform="matrix(2.2363715,0,0,2.2363715,-3549.1557,-1278.7878)"><g
           style="fill:#000000;fill-opacity:1;stroke-linejoin:miter"
           id="g50704"
           transform="matrix(0.0212301,0.88760364,-0.82571352,0.02282136,2056.9295,403.92004)"><path
             d="m 711.1001,1474.2693 c -0.9527,-0.4641 -2.67426,-1.0252 -4.0425,-1.5208 -1.36827,-0.4956 -2.36815,-0.9314 -2.9508,-1.2917 -0.58257,-0.3602 -0.6851,-0.5245 -1.3281,-1.3047 -0.643,-0.7801 -1.41383,-1.7345 -2.0159,-2.7212 -0.602,-0.9866 -1.0542,-2.0009 -1.3691,-3.053 -0.3149,-1.052 -0.5026,-2.1533 -0.55495,-2.8742 -0.0525,-0.7209 -0.0575,-1.0235 -0.052,-1.2959 0.006,-0.2726 0.0173,-0.5127 0.0336,-0.7188 0.0164,-0.2059 0.0303,-0.3754 0.0684,-0.8069 0.0379,-0.4315 -0.11307,-1.0818 -0.11294,-1.7181 4e-5,-0.6364 0.0138,-1.264 0.035,-1.8844 0.0212,-0.6202 0.0519,-1.2333 0.0491,-2.0213 -0.003,-0.7878 -0.06,-1.1258 -0.099,-1.3979 -0.0389,-0.2722 -0.0642,-0.4719 -0.0779,-0.5815 -0.0138,-0.1095 -0.0242,-0.079 0.022,-0.3654 0.0461,-0.2864 0.17199,-1.0138 0.26514,-1.5889 0.0931,-0.575 0.16357,-0.9911 0.2051,-1.2288 0.0415,-0.2378 -0.002,-0.1727 0.1489,-0.5997 0.151,-0.427 0.3947,-1.1361 0.604,-1.7172 0.2092,-0.5812 0.38196,-1.0313 0.50617,-1.3421 0.12423,-0.3108 0.18313,-0.4546 -0.28522,-0.9635 -0.46825,-0.5089 -0.46825,-0.5089 -0.5257,-0.4403 0,0 -1.22375,-0.6748 -1.45785,-0.3655 -0.234,0.3092 -0.4969,0.6983 -0.8034,1.1909 -0.30644,0.4927 -0.6643,1.0927 -1.0694,1.7898 -0.40507,0.6973 -0.4295,0.7161 -0.5544,1.012 -0.1249,0.2959 -0.2592,0.6384 -0.4385,1.1115 -0.17926,0.473 -0.40576,1.085 -0.6698,1.8507 -0.264,0.7656 -0.33624,1.1661 -0.35375,1.4233 -0.0175,0.2572 -0.0239,0.5112 -0.0249,0.8037 -10e-4,0.2926 10e-4,0.6339 6.1e-4,0.8521 -4.9e-4,0.218 -0.13105,0.651 -0.27355,1.3276 -0.1425,0.6765 -0.2624,1.365 -0.36585,2.0642 -0.10345,0.6991 -0.19275,1.4087 -0.29651,2.1166 -0.10384,0.7079 -0.10234,0.9612 -0.087,1.2743 0.0154,0.3132 0.048,0.6377 0.0921,0.9761 0.0442,0.3385 0.0994,0.6926 0.16713,1.1154 0.0678,0.423 0.401,1.8868 0.92765,3.3335 0.52665,1.4468 1.2497,2.7804 2.14095,3.9955 0.89116,1.2151 1.95506,2.2949 3.08824,3.1892 1.13326,0.8943 1.34979,1.2031 2.22376,1.7058 0.874,0.5027 1.94336,0.8136 3.2864,1.006 1.3429,0.1923 2.9833,0.2839 3.93357,0.1226 1.95373,-0.028 1.00783,-0.5929 2.01123,-0.459 z"
             id="path50702" /></g><g
           style="fill:#000000;fill-opacity:1;stroke-linejoin:miter"
           id="g50708"
           transform="matrix(0.0212301,0.88760364,-0.82571352,0.02282136,2056.9295,403.92004)"><path
             d="m 701.3663,1400.7736 c -0.0993,-0.6267 -0.44217,-1.7238 -0.74594,-2.7165 -0.30371,-0.9928 -0.57356,-1.8778 -0.78956,-2.6626 -0.216,-0.7849 -0.39025,-1.4618 -0.46416,-1.9892 -0.0739,-0.5275 -0.11114,-1.0908 -0.13814,-1.5352 -0.027,-0.4444 -0.0445,-0.7649 -0.0455,-0.9387 -9.3e-4,-0.1738 0.0107,-0.071 0.0215,-0.2236 0.0109,-0.153 0.0288,-0.2552 0.0608,-0.4397 0.0318,-0.1845 0.0822,-0.4379 0.15271,-0.7514 0.0704,-0.3135 0.16603,-0.6827 0.52313,-1.6844 0.3571,-1.0019 0.9633,-2.6547 1.5102,-4.1223 0.5469,-1.4677 1.0421,-2.7458 1.50384,-3.8229 0.46176,-1.0772 0.85126,-1.9595 1.03039,-2.4671 0.17917,-0.5075 0.44184,-1.0264 0.83437,-1.7066 0.3925,-0.6803 0.90874,-1.5066 1.5309,-2.481 0.6223,-0.9742 1.3645,-2.0804 2.01175,-3.1343 0.64725,-1.0538 0.86515,-1.6595 1.03045,-2.2898 0.1653,-0.6301 0.2862,-1.2811 0.36475,-1.952 0.0786,-0.6709 0.11621,-1.3619 0.11325,-1.9186 -0.003,-0.5565 -0.0307,-0.8352 -0.0664,-1.0947 -0.0358,-0.2595 -0.0813,-0.5039 -0.14177,-0.7412 -0.0605,-0.2372 -0.14516,-0.4768 -0.6036,-1.1177 -0.45843,-0.641 -1.1627,-1.5374 -1.86914,-2.5233 -0.70642,-0.9858 -1.4226,-2.0575 -2.14366,-3.2179 -0.72114,-1.1605 -1.4453,-2.4104 -1.81294,-3.4527 -0.36762,-1.0424 -0.36762,-1.0424 -0.12296,-0.3473 0,0 0.488,1.3906 0.78684,2.7894 0.29883,1.3988 0.65676,2.7203 1.06296,3.9692 0.40634,1.2489 0.8655,2.4224 1.36233,3.4985 0.49683,1.0759 0.3891,0.8918 0.38184,0.923 -0.007,0.031 -0.01,0.1197 -0.017,0.2549 -0.007,0.1352 -0.0218,0.3116 -0.0436,0.4756 -0.0218,0.1642 -0.14506,0.7178 -0.29325,1.2446 -0.1482,0.5269 -0.31855,1.0099 -0.50895,1.4488 -0.1904,0.4388 -0.3994,0.8348 -0.54617,1.0783 -0.14679,0.2437 -1.08183,1.2323 -1.97733,2.2116 -0.89553,0.9792 -1.66647,1.8592 -2.3076,2.6518 -0.6411,0.7926 -1.16734,1.4982 -1.6584,2.1666 -0.4911,0.6683 -0.8567,1.6906 -1.18264,2.8099 -0.32596,1.1191 -0.65636,2.4071 -0.99986,3.8691 -0.3436,1.4622 -0.6785,3.1083 -1.0155,4.9532 -0.33706,1.8447 -0.3975,2.4514 -0.41995,2.861 -0.0224,0.4097 -0.0389,0.7734 -0.0448,1.0977 -0.006,0.3243 -4e-4,0.6172 0.0206,0.8083 0.0209,0.1911 0.0151,0.1805 0.0503,0.4744 0.0353,0.2941 0.1042,0.5877 0.2075,0.9713 0.10324,0.3837 0.24753,0.8673 0.4375,1.5094 0.19,0.6422 0.5122,1.3639 0.8939,2.0625 0.38177,0.6986 0.8405,1.462 1.3779,2.2925 0.53744,0.8306 1.1638,1.7244 1.59445,2.1482 0.708,0.9606 0.81735,0.224 1.09475,0.7609 z"
             id="path50706" /></g><g
           style="fill:#000000;fill-opacity:1;stroke-linejoin:miter"
           id="g50712"
           transform="matrix(0.0212301,0.88760364,-0.82571352,0.02282136,2056.9295,403.92004)"><path
             d="m 723.0431,1400.0085 c -0.6227,-0.6237 -1.8902,-1.5671 -3.012,-2.403 -1.12174,-0.8361 -2.0838,-1.5878 -2.8938,-2.2351 -0.80997,-0.6474 -1.4413,-1.2217 -2.47385,-2.347 -1.03245,-1.1253 -2.44155,-2.7456 -3.54135,-4.0559 -1.0998,-1.3102 -1.88126,-2.2954 -2.2871,-2.9063 -0.4058,-0.611 -0.531,-0.509 -0.49705,-0.2643 0.034,0.2447 -0.0115,0.5522 -0.14925,0.8723 -0.1377,0.3201 -0.34416,0.5775 -0.54453,0.7317 -0.20037,0.154 -0.34847,0.2209 -0.18777,0.1741 0.16067,-0.047 0.8762,-0.2577 1.5425,-0.4703 0.66626,-0.2126 1.2797,-0.4457 1.8439,-0.6925 0.5642,-0.2468 1.0781,-0.514 1.63865,-0.8731 0.5606,-0.3593 1.09539,-0.7624 1.60165,-1.1773 0.5064,-0.4149 0.98416,-0.8419 1.43277,-1.2805 0.44863,-0.4387 0.86753,-0.8896 1.2558,-1.363 0.38823,-0.4733 0.73643,-0.9346 1.03796,-1.3664 0.30152,-0.4317 0.55987,-0.8316 0.77597,-1.2022 0.2161,-0.3707 0.3901,-0.7143 0.9217,-2.2526 0.53164,-1.5383 1.40164,-4.2825 1.4347,-4.3597 0.0331,-0.077 0.0661,-0.1889 0.099,-0.3349 0.0329,-0.146 0.0658,-0.3263 0.0904,-0.4789 0.0246,-0.1524 0.0246,-0.1524 0.008,-0.051 0,0 -0.0328,0.2033 -0.0657,0.3723 -0.0329,0.1688 -0.0658,0.3033 -0.0989,0.4035 -0.033,0.1001 -0.0661,0.1659 -1.74799,2.4949 -1.68185,2.3291 -1.83459,2.5031 -2.04955,2.7305 -0.2149,0.2274 -0.4855,0.4853 -0.8113,0.7715 -0.3258,0.286 -0.7061,0.5984 -1.13317,0.9384 -0.42703,0.3401 -0.84413,0.6492 -1.27483,0.9475 -0.43073,0.2983 -0.8841,0.5827 -1.3604,0.8531 -0.4764,0.2702 -0.97616,0.5267 -1.479,0.758 -0.5029,0.2312 -0.8084,0.3228 -1.22244,0.4344 -0.414,0.1114 -0.89116,0.221 -1.43042,0.3261 -0.5393,0.105 -1.13994,0.2045 -1.84464,0.291 -0.70474,0.087 -1.2799,0.2735 -1.6324,0.4766 -0.3525,0.2031 -0.7044,0.5209 -0.9871,0.9551 -0.28274,0.4341 -0.4422,0.9353 -0.47555,1.3724 -0.0334,0.4372 0.0976,1.3725 0.61462,2.3273 0.51697,0.9547 1.35033,1.8425 2.49583,2.8964 1.1456,1.0538 2.62905,2.2996 4.47414,3.7579 1.84516,1.4582 2.64776,1.9861 3.54932,2.4702 0.90161,0.4841 1.94928,0.9977 3.17434,1.5015 1.2251,0.5036 2.62,1.0131 3.4415,1.1406 1.5714,0.5051 1.01715,-0.2611 1.7671,0.1164 z"
             id="path50710" /></g><g
           style="fill:#000000;fill-opacity:1;stroke-linejoin:miter"
           id="g50716"
           transform="matrix(0.0212301,0.88760364,-0.82571352,0.02282136,2056.9295,403.92004)"><path
             d="m 729.3916,1396.8527 c 0.0807,-0.2388 0.16583,-0.6792 0.25635,-1.0601 0.0906,-0.3809 0.18575,-0.7003 0.28305,-0.9542 0.0973,-0.2538 0.19284,-0.4372 0.27164,-0.5785 0.0789,-0.1414 0.13386,-0.2377 0.19926,-0.3471 0.0655,-0.1095 0.14125,-0.2318 0.2274,-0.3662 0.086,-0.1344 0.1824,-0.281 0.3892,-0.5658 0.2068,-0.2848 0.5295,-0.7369 0.82757,-1.1676 0.29803,-0.4306 0.57183,-0.8403 0.8111,-1.2342 0.23923,-0.394 0.45227,-0.7688 0.58933,-1.0113 0.1371,-0.2424 0.2489,-0.4649 0.36214,-0.7146 0.11326,-0.2496 0.23322,-0.5351 0.36036,-0.8619 0.1271,-0.3266 0.2608,-0.6972 0.3556,-0.9543 0.0948,-0.2572 0.17345,-0.5784 0.2258,-0.9016 0.0524,-0.3232 0.0955,-0.6921 0.13527,-1.1248 0.0398,-0.4329 0.0843,-0.9358 0.11157,-1.2903 0.0273,-0.3544 0.0315,-0.5646 0.0264,-0.7789 -0.005,-0.2144 -0.3004,-0.3981 -0.3546,-0.6193 -0.0543,-0.2212 -0.11756,-0.4519 -0.2356,-0.8161 -0.11804,-0.3644 -0.2653,-0.7524 -0.4104,-1.1028 -0.14514,-0.3505 -0.2897,-0.6659 -0.438,-0.9503 -0.1483,-0.2845 -0.3088,-0.5423 -0.4286,-0.7089 -0.1198,-0.1665 -0.3044,-0.4008 -0.54954,-0.6694 -0.24512,-0.2688 -0.56696,-0.5884 -0.96649,-0.9703 -0.39954,-0.3817 -0.87842,-0.8281 -1.49637,-1.3439 -0.618,-0.5159 -1.29416,-0.9872 -1.997,-1.428 -0.70274,-0.4409 -1.43797,-0.8437 -2.1977,-1.2174 -0.7597,-0.3738 -1.4901,-0.8039 -2.0376,-1.141 -0.54764,-0.3372 -0.54764,-0.3372 -0.1826,-0.1124 0,0 0.7301,0.4495 1.3763,0.9908 0.64624,0.5414 1.2252,1.1361 1.7671,1.7373 0.54186,0.6011 1.0496,1.2062 1.5096,1.8118 0.4601,0.6054 0.81405,1.177 1.1325,1.6911 0.3184,0.5142 0.57255,0.938 0.7618,1.2657 0.1892,0.3277 0.30776,0.5511 0.3588,0.6772 0.0511,0.1261 0.1156,0.2743 0.1578,0.4214 0.0423,0.1472 0.0961,0.3546 0.1532,0.6172 0.0572,0.2625 0.1153,0.5777 0.16994,0.9314 0.0546,0.3535 0.0597,0.5019 0.0703,0.6828 0.0107,0.1811 0.0149,0.3391 -0.0971,0.4831 -0.11214,0.1439 -0.0892,0.2429 -0.0729,0.3336 0.0163,0.091 0.0777,0.6145 0.1197,1.0451 0.042,0.4308 0.0653,0.7743 0.0761,1.0206 0.0108,0.2462 0.0164,0.3752 0.0155,0.426 -9e-4,0.051 -0.0643,0.4746 -0.1158,0.8125 -0.0515,0.3378 -0.0953,0.6229 -0.1348,0.8506 -0.0395,0.2276 -0.0722,0.393 -0.105,0.5171 -0.0327,0.124 -0.14994,0.493 -0.2789,0.8736 -0.129,0.3806 -0.27253,0.7963 -0.42823,1.2476 -0.1557,0.4513 -0.33081,0.9342 -0.52967,1.4565 -0.1988,0.5224 -0.27655,0.7487 -0.32837,0.9271 -0.0518,0.1784 -0.0977,0.3446 -0.13763,0.4987 -0.0399,0.1541 -0.0741,0.2967 -0.0988,0.418 -0.0246,0.1212 -0.0807,0.365 -0.11334,0.6792 -0.0326,0.3142 -0.0356,0.6625 -0.0128,1.0504 0.0227,0.3878 0.0699,0.8182 0.14134,1.0498 0.0707,0.4737 0.50659,0.2328 0.50586,0.475 z"
             id="path50714" /></g><g
           style="fill:#000000;fill-opacity:1;stroke-linejoin:miter"
           id="g50720"
           transform="matrix(0.0212301,0.88760364,-0.82571352,0.02282136,2056.9295,403.92004)"><path
             d="m 720.57886,1465.3562 c -0.60901,-0.489 -1.8562,-1.2577 -3.02786,-2.0256 -1.1716,-0.768 -2.2601,-1.5569 -3.2793,-2.3484 -1.01914,-0.7914 -1.9565,-1.611 -2.56796,-2.1802 -0.61154,-0.5691 -0.82014,-0.8499 -0.99904,-1.1963 -0.1789,-0.3465 -0.339,-0.7651 -0.4676,-1.2718 -0.1286,-0.5068 -0.21946,-1.1051 -0.23783,-1.5995 -0.0184,-0.4943 0.003,-1.0087 0.0511,-1.6031 0.0487,-0.5943 0.1306,-1.2661 0.0393,-2.0339 -0.0912,-0.7677 -0.054,-1.6079 0.007,-2.4617 0.0613,-0.8537 0.15896,-1.7146 0.27627,-2.4948 0.11737,-0.7804 0.25353,-1.4794 0.40663,-2.0962 0.1531,-0.6167 0.3212,-1.1502 0.4542,-1.5279 0.133,-0.3778 0.189,-0.5444 0.30775,-0.7856 0.11885,-0.2411 0.2951,-0.5468 0.53021,-0.905 0.23511,-0.3582 0.52744,-0.7648 1.73578,-2.1565 1.20826,-1.3919 3.32501,-3.8297 3.46176,-3.9517 0.1367,-0.122 0.2586,-0.2422 0.3655,-0.3603 0.107,-0.1183 0.1991,-0.2347 0.26075,-0.3211 0.0616,-0.086 0.0616,-0.086 0.0205,-0.029 0,0 -0.0822,0.1151 -0.17924,0.2321 -0.0971,0.1169 -0.20896,0.2358 -0.33581,0.3566 -0.12685,0.1207 -0.2685,0.2434 -3.0337,1.9159 -2.76515,1.6724 -3.27801,2.0794 -3.68579,2.421 -0.40776,0.3415 -0.7619,0.6667 -1.0628,0.983 -0.30091,0.3163 -0.54986,0.6326 -0.72492,0.9085 -0.17511,0.2758 -0.50457,0.7873 -0.84084,1.4279 -0.33616,0.6408 -0.6582,1.3539 -0.9683,2.1405 -0.3101,0.7866 -0.60956,1.6479 -0.8974,2.6081 -0.2879,0.96 -0.4937,1.9555 -0.6465,2.8427 -0.15276,0.8872 -0.4625,1.7071 -0.44347,2.4926 0.0191,0.7855 0.0683,1.5142 0.16272,2.2352 0.0944,0.7212 0.34065,1.6516 0.64441,2.4724 0.30384,0.821 0.67714,1.5696 1.13084,2.2373 0.4538,0.6676 0.9913,1.2427 1.5646,1.6905 0.57336,0.4476 1.7019,1.1615 2.92804,1.809 1.22616,0.6475 2.50689,1.2361 3.86322,1.7247 1.35638,0.4885 2.77697,0.8907 3.55574,0.9445 1.4805,0.314 0.93,-0.3543 1.63176,-0.094 z"
             id="path50718" /></g><g
           style="fill:#000000;fill-opacity:1;stroke-linejoin:miter"
           id="g50724"
           transform="matrix(0.0212301,0.88760364,-0.82571352,0.02282136,2056.9295,403.92004)"><path
             d="m 723.27374,1460.6267 c 0.36756,-0.4057 0.92776,-1.3293 1.44816,-2.3235 0.5205,-0.9942 0.9874,-2.0606 1.4127,-3.1924 0.4253,-1.1316 0.7856,-2.331 1.04533,-3.5119 0.25971,-1.1809 0.37557,-2.1558 0.44737,-3.1184 0.0719,-0.9625 0.11165,-1.9132 -0.1814,-2.8169 -0.293,-0.9036 -0.499,-1.7882 -0.7136,-2.4973 -0.2146,-0.7093 -0.41504,-1.1574 -0.6524,-1.5677 -0.2374,-0.4101 -0.51185,-0.779 -0.8201,-1.104 -0.3082,-0.3248 -0.64817,-0.6019 -1.1835,-0.9111 -0.5354,-0.3092 -1.2248,-0.631 -1.91846,-0.9192 -0.69364,-0.2881 -1.39054,-0.5442 -2.09484,-0.7587 -0.70424,-0.2144 -1.4108,-0.3958 -1.8486,-0.5098 -0.4378,-0.1141 -0.5959,-0.2098 -0.7505,-0.3113 -0.1546,-0.1017 -0.30747,-0.2065 -0.4585,-0.3145 -0.1511,-0.1079 -0.30044,-0.2191 -0.4115,-0.304 -0.1111,-0.085 -0.1111,-0.085 -0.0371,-0.028 0,0 0.14816,0.1133 0.29806,0.2234 0.1499,0.1101 0.30157,0.217 0.45504,0.3207 0.1534,0.1037 0.3086,0.2043 0.4588,0.3169 0.1501,0.1127 0.76585,0.4897 1.36045,0.8902 0.5946,0.4006 1.17085,0.8227 1.73315,1.2599 0.5623,0.4374 1.10676,0.8983 1.6305,1.3719 0.52374,0.4736 0.66644,0.6534 0.7997,0.8662 0.1332,0.2127 0.24296,0.4489 0.33104,0.7129 0.0881,0.2638 0.16003,0.556 0.20361,0.8554 0.0436,0.2995 0.0838,1.0793 0.097,1.8992 0.0131,0.8199 -0.25473,1.6708 -0.13823,2.5138 0.11657,0.843 0.18926,1.7159 0.2473,2.5765 0.058,0.8605 0.007,2.0076 -0.10315,3.1663 -0.10975,1.1588 -0.24115,2.2784 -0.40965,3.3585 -0.1686,1.0801 -0.3648,2.1266 -0.3993,2.6687 -0.2446,1.0106 0.36266,0.7201 0.15264,1.1886 z"
             id="path50722" /></g><g
           style="fill:#000000;fill-opacity:1;stroke-linejoin:miter"
           id="g50728"
           transform="matrix(0.0212301,0.88760364,-0.82571352,0.02282136,2056.9295,403.92004)"><path
             d="m 769.1979,1447.2198 c -0.336,-0.2597 -1.0593,-0.689 -1.79214,-1.1694 -0.73291,-0.4803 -1.48006,-1.0056 -2.24591,-1.5719 -0.76585,-0.5663 -1.54462,-1.1869 -2.08038,-1.565 -0.53583,-0.3782 -0.42197,-0.3332 -0.51123,-0.4565 -0.0892,-0.1231 -0.27104,-0.3784 -0.51604,-0.7444 -0.245,-0.3658 -0.5505,-0.8326 -0.71223,-1.173 -0.16181,-0.3405 -0.30227,-0.7289 -0.39317,-1.028 -0.0909,-0.2991 -0.1286,-0.493 -0.1182,-0.5228 0.0105,-0.03 0.0256,0.2422 0.0694,-0.2959 0.0438,-0.538 0.1022,-1.2763 0.1899,-2.0738 0.0878,-0.7973 0.2053,-1.6534 0.3416,-2.5681 0.1363,-0.9146 0.29737,-1.8878 0.33014,-2.789 0.0329,-0.9012 0.14486,-1.7041 0.35666,-2.4939 0.21176,-0.7897 0.5039,-1.5779 0.8816,-2.3723 0.3777,-0.7945 0.85653,-1.5909 1.147,-2.0145 0.29046,-0.4235 0.43164,-0.573 0.59405,-0.7243 0.16242,-0.1515 0.34632,-0.304 0.55219,-0.457 0.20581,-0.153 0.43121,-0.3101 0.5603,-0.4024 0.12906,-0.092 0.23606,-0.1489 0.42322,-0.2159 0.18719,-0.067 0.44394,-0.1405 0.76374,-0.2128 0.31975,-0.072 0.69897,-0.1419 1.0166,-0.1906 0.3176,-0.049 0.4568,-0.087 0.58263,-0.1367 0.12587,-0.05 0.24292,-0.1102 0.35337,-0.178 0.1105,-0.068 0.21835,-0.1435 0.042,-0.5997 -0.17646,-0.456 -0.17646,-0.456 -0.22126,-0.4288 0,0 -0.57696,-0.7761 -0.6365,-0.7581 -0.0595,0.018 -0.1047,0.027 -0.13077,0.026 -0.0261,-8e-4 -0.0309,-0.01 0.0134,-0.022 0.0444,-0.013 -0.39176,-0.061 -0.80996,-0.09 -0.4181,-0.029 -0.7987,-0.039 -1.1466,-0.026 -0.3478,0.013 -0.6699,0.054 -0.9828,0.1338 -0.31284,0.08 -0.67935,0.2136 -1.0083,0.3519 -0.32895,0.1384 -0.6431,0.2914 -0.9434,0.4582 -0.3003,0.1667 -0.58636,0.3476 -0.90795,0.5941 -0.32159,0.2465 -1.16225,1.0567 -1.91195,1.932 -0.7497,0.8751 -1.39713,1.8137 -1.923,2.8184 -0.5259,1.0046 -0.93653,2.0644 -1.3264,3.1525 -0.3899,1.0881 -0.44595,2.2353 -0.47213,3.2699 -0.0262,1.0347 -0.0204,2.0142 0.0139,2.9382 0.0343,0.9239 0.0912,1.7926 0.1722,2.5578 0.0811,0.7654 0.0731,0.6868 0.1321,1.1756 0.0591,0.4888 0.18756,0.8549 0.35773,1.2207 0.17017,0.3656 0.38007,0.7633 0.68573,1.2933 0.3056,0.53 0.86267,1.1428 1.27214,1.5494 0.4095,0.4068 0.7664,0.7342 1.0793,0.9965 0.3129,0.2623 0.6178,0.4828 0.8066,0.5677 0.18876,0.085 1.1088,0.5402 2.0642,0.9423 0.9554,0.4021 1.881,0.7505 2.78325,1.0297 0.90225,0.2791 1.7757,0.4946 2.22585,0.5219 0.8364,0.1618 0.59325,-0.3838 0.9795,-0.2494 z"
             id="path50726" /></g></g></g></g></svg>
