<?xml version="1.0" encoding="UTF-8" standalone="no"?>
<svg
   version="1.1"
   width="135.38521"
   height="135.38521"
   viewBox="0 0 135.38521 135.38521"
   id="svg1214"
   xmlns="http://www.w3.org/2000/svg"
   xmlns:svg="http://www.w3.org/2000/svg">
  <defs
     id="defs1218" />
  <g
     id="g7056"
     transform="translate(-250.08183,-1270.9547)">
    <rect
       style="display:inline;opacity:0.5;fill:none;fill-opacity:1;stroke:none;stroke-width:2.66644;stroke-dasharray:none;stroke-opacity:1"
       id="rect5457"
       width="135.38521"
       height="135.38521"
       x="250.08183"
       y="1270.9547" />
    <g
       id="g4226"
       transform="translate(722.41573,112.30379)">
      <g
         style="fill:#000000;fill-opacity:1;stroke-linejoin:miter"
         id="g267"
         transform="rotate(90,259.41968,748.93978)">
        <path
           d="m 711.0807,1474.415 c -0.95845,-0.4371 -2.6996,-0.9145 -4.09895,-1.3357 -1.39935,-0.4211 -2.44238,-0.8179 -3.1026,-1.1683 -0.66022,-0.3503 -0.89345,-0.5898 -1.54675,-1.3212 -0.65326,-0.7314 -1.5005,-1.6899 -2.18823,-2.6962 -0.68781,-1.0063 -1.22242,-2.0627 -1.61451,-3.1741 -0.39206,-1.1113 -0.63906,-2.2874 -0.72376,-3.0582 -0.0846,-0.7709 -0.1073,-1.0856 -0.12023,-1.3731 -0.013,-0.2875 -0.0133,-0.5466 -0.007,-0.7761 0.006,-0.2295 0.0161,-0.4277 0.0431,-0.869 0.027,-0.4414 0.031,-1.0998 0.0542,-1.7489 0.0233,-0.6492 0.0603,-1.2893 0.11104,-1.9204 0.0507,-0.6311 0.11526,-1.2533 0.13159,-1.9435 0.0164,-0.6901 -0.0244,-1.0357 -0.0569,-1.317 -0.0325,-0.2814 -0.0512,-0.495 -0.0599,-0.6293 -0.009,-0.1342 -0.0138,-0.1568 0.0609,-0.499 0.0748,-0.3423 0.2298,-1.0646 0.3555,-1.6346 0.1257,-0.5699 0.2187,-0.9859 0.2801,-1.2331 0.0614,-0.2473 0.0509,-0.2409 0.221,-0.6553 0.17,-0.4143 0.4498,-1.1117 0.68676,-1.6863 0.23688,-0.5747 0.44234,-1.0174 0.591,-1.3305 0.14868,-0.313 0.23634,-0.4711 -0.0899,-0.876 -0.32616,-0.4048 -0.32616,-0.4048 -0.38361,-0.3362 0,0 -0.93955,-0.4667 -1.14555,-0.1663 -0.2061,0.3005 -0.44734,0.6884 -0.7261,1.1866 -0.27874,0.4981 -0.604,1.1075 -0.97265,1.8217 -0.36865,0.7144 -0.39185,0.736 -0.48975,0.9954 -0.0979,0.2594 -0.2132,0.5973 -0.3651,1.0726 -0.15186,0.4754 -0.3455,1.093 -0.57667,1.862 -0.23107,0.7689 -0.28277,1.0561 -0.29553,1.272 -0.0128,0.2157 -0.0132,0.4501 -0.009,0.7307 0.004,0.2806 0.0152,0.6135 0.0303,0.8883 0.015,0.2748 -0.0917,0.7823 -0.20044,1.4493 -0.1087,0.667 -0.20324,1.3439 -0.28357,2.0305 -0.0802,0.6867 -0.14633,1.3832 -0.18017,2.0833 -0.0338,0.7001 -0.0393,0.9413 -0.0314,1.2275 0.008,0.2863 0.0309,0.5888 0.061,0.9097 0.0302,0.3208 0.0645,0.6611 0.11434,1.0521 0.0499,0.391 0.33676,1.8065 0.79901,3.1826 0.46228,1.3761 1.10045,2.6577 1.90905,3.837 0.8086,1.1791 1.7838,2.2493 2.866,3.1724 1.0822,0.9232 1.3038,1.2677 2.0649,1.7329 0.7612,0.4651 1.77034,0.7958 3.0736,1.0437 1.3034,0.248 2.91775,0.4163 3.8554,0.3101 1.941,0.028 0.9563,-0.246 1.9597,-0.1121 z"
           id="path265" />
      </g>
      <g
         style="fill:#000000;fill-opacity:1;stroke-linejoin:miter"
         id="g271"
         transform="rotate(90,259.41968,748.93978)">
        <path
           d="m 701.23566,1400.8411 c -0.1034,-0.6254 -0.47736,-1.7088 -0.83236,-2.6801 -0.35496,-0.9713 -0.6638,-1.844 -0.92686,-2.617 -0.263,-0.773 -0.4715,-1.4489 -0.58038,-2.0103 -0.10886,-0.5615 -0.18176,-1.1209 -0.22996,-1.5657 -0.0482,-0.4449 -0.0836,-0.7701 -0.0981,-0.9621 -0.0145,-0.1921 -0.0106,-0.1681 -0.005,-0.3013 0.006,-0.1331 0.0158,-0.2684 0.0409,-0.4749 0.0251,-0.2063 0.0672,-0.4752 0.12673,-0.801 0.0595,-0.3257 0.1366,-0.7062 0.45441,-1.7597 0.31781,-1.0535 0.85646,-2.7328 1.3537,-4.226 0.49726,-1.4932 0.96006,-2.7966 1.37966,-3.9102 0.4195,-1.1135 0.79386,-2.034 1.0599,-2.5937 0.26607,-0.5597 0.5701,-1.1028 1.0009,-1.7894 0.4307,-0.6868 0.9845,-1.5076 1.6587,-2.4577 0.6742,-0.95 1.4564,-2.0354 2.0882,-2.996 0.63185,-0.9605 0.8522,-1.5244 1.0359,-2.1132 0.1837,-0.5889 0.32435,-1.205 0.4307,-1.8454 0.10636,-0.6404 0.1716,-1.3069 0.18894,-1.8308 0.0174,-0.5239 0.002,-0.7916 -0.0261,-1.0373 -0.0276,-0.2458 -0.0617,-0.4729 -0.1074,-0.6879 -0.0457,-0.2151 -0.1147,-0.4241 -0.525,-1.0426 -0.41025,-0.6185 -1.05075,-1.5648 -1.68985,-2.5925 -0.63905,-1.0277 -1.27259,-2.1401 -1.92969,-3.3257 -0.6571,-1.1857 -1.34991,-2.4437 -1.79396,-3.4583 -0.44396,-1.0145 -0.44396,-1.0145 -0.1993,-0.3194 0,0 0.33524,1.4463 0.68235,2.8291 0.3471,1.3827 0.76782,2.6777 1.24939,3.8867 0.4815,1.2091 1.0075,2.3379 1.56336,3.3719 0.5559,1.0341 0.49016,0.9289 0.4984,0.9876 0.008,0.059 0.0198,0.1672 0.0223,0.3185 0.003,0.1511 -0.004,0.3403 -0.0139,0.5295 -0.01,0.1891 -0.1041,0.7689 -0.2257,1.322 -0.1216,0.5531 -0.26194,1.0692 -0.43174,1.5456 -0.1698,0.4763 -0.36341,0.9149 -0.53176,1.2428 -0.1684,0.328 -1.0887,1.3763 -1.9368,2.3803 -0.8481,1.0042 -1.56996,1.9038 -2.1734,2.6983 -0.60347,0.7944 -1.09095,1.4889 -1.4768,2.1296 -0.3858,0.6409 -0.7468,1.5899 -1.1005,2.6704 -0.35374,1.0806 -0.72813,2.3349 -1.10655,3.7725 -0.37842,1.4377 -0.77521,3.0563 -1.18105,4.8695 -0.4058,1.8132 -0.47483,2.353 -0.51274,2.7512 -0.0379,0.3982 -0.0638,0.749 -0.0775,1.056 -0.0137,0.3071 -0.0145,0.5754 -10e-4,0.7606 0.0131,0.1852 0.005,0.1929 0.0302,0.4345 0.0253,0.2417 0.0793,0.5243 0.1648,0.9045 0.0854,0.3804 0.20513,0.865 0.3591,1.4927 0.15395,0.6276 0.4426,1.3143 0.7813,2.0196 0.3387,0.7052 0.7552,1.4801 1.2466,2.3274 0.4914,0.8474 1.0683,1.7626 1.4814,2.1939 0.69037,0.9682 0.5385,0.3666 0.81586,0.9035 z"
           id="path269" />
      </g>
      <g
         style="fill:#000000;fill-opacity:1;stroke-linejoin:miter"
         id="g275"
         transform="rotate(90,259.41968,748.93978)">
        <path
           d="m 722.977,1400.1399 c -0.6309,-0.6097 -1.9323,-1.4934 -3.0921,-2.2708 -1.15974,-0.7773 -2.16945,-1.4649 -3.01545,-2.0824 -0.84601,-0.6174 -1.52149,-1.1678 -2.62702,-2.2667 -1.10553,-1.099 -2.58459,-2.6615 -3.74988,-3.9336 -1.16535,-1.2722 -1.99735,-2.2589 -2.47338,-2.9189 -0.47597,-0.6599 -0.58252,-0.8153 -0.56312,-0.7378 0.0194,0.077 -0.004,0.2383 -0.0773,0.4119 -0.0736,0.1734 -0.1832,0.3117 -0.2813,0.3889 -0.0982,0.077 -0.15554,0.1031 0.0985,0.045 0.25406,-0.058 0.95856,-0.238 1.60946,-0.4316 0.65086,-0.1936 1.2511,-0.3931 1.7989,-0.6099 0.5477,-0.2169 1.04556,-0.4471 1.5844,-0.7624 0.5388,-0.3152 1.0804,-0.6773 1.591,-1.059 0.5105,-0.3817 0.9939,-0.7766 1.44786,-1.1866 0.45394,-0.4099 0.88374,-0.8289 1.28774,-1.2725 0.404,-0.4436 0.7767,-0.8733 1.0985,-1.2787 0.3218,-0.4054 0.5987,-0.7819 0.8313,-1.1319 0.2326,-0.35 0.41894,-0.6773 1.0332,-2.167 0.6143,-1.4899 1.574,-4.1885 1.5988,-4.2813 0.0248,-0.093 0.0413,-0.2167 0.0509,-0.3712 0.01,-0.1545 0.0129,-0.3414 0.0205,-0.4969 0.007,-0.1554 0.007,-0.1554 -0.009,-0.054 0,0 -0.067,0.1975 -0.12745,0.3592 -0.0605,0.1617 -0.11455,0.2869 -0.16095,0.3724 -0.0463,0.086 -0.0858,0.1372 -1.64545,2.5286 -1.55969,2.3915 -1.70175,2.5833 -1.90255,2.8287 -0.2008,0.2455 -0.45426,0.5249 -0.76096,0.8354 -0.30674,0.3104 -0.66614,0.6501 -1.07214,1.02 -0.4061,0.3698 -0.80915,0.7104 -1.23237,1.0378 -0.42323,0.3275 -0.87003,0.643 -1.34123,0.9458 -0.4712,0.3028 -0.96724,0.5928 -1.4726,0.8658 -0.5054,0.2729 -0.84254,0.41 -1.2735,0.5543 -0.431,0.1443 -0.92317,0.2853 -1.4772,0.4162 -0.55406,0.131 -1.16923,0.2502 -1.8698,0.3655 -0.70056,0.1154 -1.1083,0.2532 -1.36517,0.4042 -0.25683,0.1511 -0.50483,0.3782 -0.70033,0.6821 -0.1954,0.304 -0.3043,0.6533 -0.32494,0.9651 -0.0206,0.3119 0.0782,1.0167 0.56644,1.8047 0.48807,0.7878 1.2575,1.6539 2.34506,2.7228 1.08759,1.0688 2.50537,2.3593 4.27588,3.8757 1.77046,1.5164 2.50626,2.0385 3.36446,2.5522 0.85814,0.5138 1.8765,1.0518 3.059,1.6147 1.1825,0.5629 2.53894,1.1355 3.33936,1.2998 1.55034,0.542 0.86389,0.038 1.61384,0.416 z"
           id="path273" />
      </g>
      <g
         style="fill:#000000;fill-opacity:1;stroke-linejoin:miter"
         id="g279"
         transform="rotate(90,259.41968,748.93978)">
        <path
           d="m 729.2446,1396.8523 c 0.0807,-0.2404 0.1659,-0.6842 0.24783,-1.0703 0.0819,-0.3862 0.16632,-0.7136 0.25092,-0.9804 0.0846,-0.2667 0.16985,-0.4696 0.24438,-0.6156 0.0745,-0.1458 0.1261,-0.248 0.18653,-0.3634 0.0604,-0.1153 0.13018,-0.2435 0.20734,-0.3849 0.0771,-0.1413 0.16454,-0.2945 0.36156,-0.5949 0.19704,-0.3006 0.49464,-0.7628 0.76524,-1.2036 0.2706,-0.4407 0.5142,-0.8602 0.7378,-1.255 0.2236,-0.3949 0.4174,-0.7706 0.543,-1.0149 0.12553,-0.2444 0.2188,-0.45 0.3135,-0.6901 0.0947,-0.2402 0.19845,-0.5197 0.3094,-0.8425 0.11103,-0.3228 0.22517,-0.692 0.3066,-0.9495 0.0814,-0.2576 0.14055,-0.5231 0.18084,-0.8182 0.0404,-0.2952 0.072,-0.6477 0.098,-1.0695 0.0259,-0.4217 0.0466,-0.9165 0.0576,-1.2629 0.011,-0.3466 0.009,-0.5319 -4.8e-4,-0.7259 -0.01,-0.194 -0.078,-0.3923 -0.12122,-0.6055 -0.0431,-0.2133 -0.0947,-0.4383 -0.19312,-0.7874 -0.0984,-0.3491 -0.22509,-0.7333 -0.35363,-1.0774 -0.12854,-0.3441 -0.25367,-0.652 -0.3823,-0.9257 -0.12875,-0.2735 -0.269,-0.5153 -0.375,-0.68 -0.106,-0.1647 -0.2684,-0.3905 -0.4937,-0.6632 -0.22526,-0.2726 -0.51884,-0.6089 -0.8894,-1.0112 -0.37047,-0.4023 -0.8159,-0.8747 -1.39433,-1.418 -0.57843,-0.5433 -1.21327,-1.0568 -1.88922,-1.5303 -0.67591,-0.4735 -1.38455,-0.9145 -2.13445,-1.3086 -0.74995,-0.394 -1.53523,-0.7456 -2.0997,-1.0561 -0.56444,-0.3106 -0.56444,-0.3106 -0.1994,-0.086 0,0 0.69636,0.5028 1.3181,1.0754 0.6218,0.5726 1.2143,1.1427 1.78287,1.7074 0.56853,0.5648 1.10327,1.139 1.60479,1.7074 0.50159,0.5683 0.89294,1.1172 1.24329,1.607 0.3504,0.49 0.63215,0.8953 0.84631,1.2106 0.21424,0.3153 0.35077,0.539 0.41968,0.6707 0.0689,0.1317 0.14752,0.2808 0.20831,0.4427 0.0608,0.1619 0.13705,0.3775 0.21085,0.6477 0.0738,0.2703 0.15115,0.5904 0.2278,0.9506 0.0766,0.3602 0.0975,0.5295 0.1197,0.7169 0.0222,0.1875 0.0372,0.3542 0.0368,0.5004 -3.6e-4,0.1461 0.0169,0.2668 0.0271,0.3761 0.0101,0.1092 0.0452,0.6367 0.0679,1.0764 0.0226,0.4397 0.0332,0.7955 0.0329,1.0611 -3e-4,0.2657 -0.008,0.4283 -0.0233,0.5124 -0.0151,0.084 -0.0962,0.4962 -0.1651,0.8365 -0.0688,0.3403 -0.1298,0.6297 -0.1865,0.8643 -0.0567,0.2346 -0.1083,0.4111 -0.1548,0.5445 -0.0465,0.1334 -0.1778,0.4967 -0.3211,0.8782 -0.14336,0.3815 -0.3087,0.7927 -0.49487,1.2335 -0.18609,0.4408 -0.38549,0.9148 -0.60669,1.4247 -0.22119,0.51 -0.29884,0.7196 -0.35974,0.8911 -0.0609,0.1717 -0.1155,0.3311 -0.161,0.4793 -0.0456,0.1482 -0.0845,0.2849 -0.11304,0.4035 -0.0285,0.1186 -0.0889,0.3526 -0.13453,0.6493 -0.0457,0.2968 -0.0583,0.6347 -0.0463,1.0155 0.012,0.381 0.0527,0.8068 0.12415,1.0359 0.0707,0.4712 0.21271,0.2295 0.21195,0.4717 z"
           id="path277" />
      </g>
      <g
         style="fill:#000000;fill-opacity:1;stroke-linejoin:miter"
         id="g283"
         transform="rotate(90,259.41968,748.93978)">
        <path
           d="m 720.5278,1465.4941 c -0.61496,-0.4804 -1.89255,-1.1909 -3.10226,-1.9014 -1.20974,-0.7106 -2.35124,-1.4321 -3.41814,-2.1833 -1.0669,-0.7511 -2.0594,-1.5343 -2.7171,-2.0958 -0.6577,-0.5615 -0.9402,-0.8811 -1.187,-1.2726 -0.2469,-0.3916 -0.4581,-0.8628 -0.6343,-1.4186 -0.1762,-0.5557 -0.3109,-1.2 -0.3677,-1.7612 -0.0568,-0.5612 -0.0611,-1.1106 -0.0305,-1.7353 0.0306,-0.6248 0.0894,-1.3235 0.1129,-2.1012 0.0235,-0.7776 0.0845,-1.6293 0.18984,-2.5069 0.10522,-0.8775 0.25766,-1.742 0.42296,-2.5266 0.16523,-0.7845 0.3426,-1.4889 0.5327,-2.112 0.19015,-0.6231 0.39724,-1.1619 0.5523,-1.5342 0.15494,-0.3722 0.2397,-0.5551 0.38486,-0.8001 0.14514,-0.245 0.35168,-0.5412 0.6145,-0.885 0.26274,-0.3439 0.58324,-0.7302 1.87314,-2.0394 1.29,-1.3092 3.47775,-3.6622 3.5973,-3.8095 0.1195,-0.1472 0.2236,-0.2894 0.3121,-0.4265 0.0885,-0.1369 0.1707,-0.2615 0.23235,-0.3479 0.0616,-0.086 0.0616,-0.086 0.0205,-0.029 0,0 -0.0822,0.1151 -0.1935,0.2191 -0.11135,0.104 -0.24154,0.203 -0.386,0.3006 -0.1445,0.098 -0.30305,0.1941 -2.96925,1.9833 -2.6662,1.7891 -3.1427,2.2127 -3.52252,2.5727 -0.37983,0.36 -0.70633,0.6974 -0.97803,1.0189 -0.27166,0.3217 -0.49615,0.6291 -0.6485,0.8984 -0.1524,0.2692 -0.45446,0.7887 -0.7539,1.4231 -0.2995,0.6343 -0.582,1.342 -0.84705,2.1241 -0.26515,0.7821 -0.51755,1.6385 -0.75592,2.5856 -0.23833,0.947 -0.40039,1.9174 -0.52636,2.7921 -0.12597,0.8747 -0.23597,1.6883 -0.23657,2.446 -6e-4,0.7576 0.0287,1.4542 0.0949,2.1204 0.0662,0.6662 0.26685,1.5378 0.52643,2.3114 0.25957,0.7735 0.58227,1.4728 0.97817,2.0904 0.39586,0.6177 0.8621,1.1501 1.37443,1.5704 0.51237,0.4201 1.59657,1.1654 2.76757,1.8547 1.17097,0.6893 2.41145,1.3113 3.72206,1.8596 1.3106,0.5483 2.69348,1.0132 3.4541,1.1003 1.46234,0.3475 0.80964,-0.045 1.51144,0.2151 z"
           id="path281" />
      </g>
      <g
         style="fill:#000000;fill-opacity:1;stroke-linejoin:miter"
         id="g287"
         transform="rotate(90,259.41968,748.93978)">
        <path
           d="m 723.1395,1460.5667 c 0.3653,-0.4039 0.89737,-1.3324 1.36276,-2.3375 0.46539,-1.0048 0.88134,-2.0759 1.24234,-3.2109 0.3611,-1.1351 0.67636,-2.3299 0.87576,-3.478 0.1994,-1.1481 0.27364,-2.108 0.31,-3.052 0.0364,-0.944 0.0346,-1.872 -0.10626,-2.7717 -0.1409,-0.8997 -0.3103,-1.7758 -0.4829,-2.4646 -0.1726,-0.6889 -0.34505,-1.1231 -0.5499,-1.5237 -0.2048,-0.4008 -0.44773,-0.7633 -0.7254,-1.0862 -0.2777,-0.3229 -0.5888,-0.6029 -1.09337,-0.9309 -0.50463,-0.3282 -1.16619,-0.6873 -1.83447,-1.0161 -0.66826,-0.3289 -1.34896,-0.6167 -2.03846,-0.8667 -0.68944,-0.25 -1.38994,-0.4545 -1.8137,-0.5696 -0.4238,-0.1151 -0.59425,-0.1874 -0.7644,-0.2627 -0.17024,-0.075 -0.33974,-0.1544 -0.50343,-0.2441 -0.16377,-0.09 -0.31311,-0.2011 -0.42417,-0.286 -0.1111,-0.085 -0.1111,-0.085 -0.0371,-0.028 0,0 0.14816,0.1133 0.294,0.2289 0.14597,0.1157 0.2803,0.2479 0.41745,0.3775 0.13715,0.1296 0.27715,0.2567 0.43145,0.3847 0.15424,0.1281 0.7774,0.4955 1.3805,0.8695 0.603,0.374 1.19794,0.755 1.77856,1.1591 0.58057,0.4042 1.15544,0.8183 1.70884,1.2566 0.5535,0.4381 0.72616,0.6136 0.8889,0.8252 0.1627,0.2115 0.30345,0.4513 0.42534,0.7216 0.12182,0.2704 0.22286,0.575 0.29773,0.8958 0.0748,0.3208 0.16453,1.1124 0.21807,1.9415 0.0536,0.8291 0.0457,1.678 0.12116,2.5424 0.0756,0.8642 0.11786,1.7545 0.13147,2.6438 0.0136,0.8891 -0.11117,2.0594 -0.276,3.2195 -0.16492,1.16 -0.35967,2.2749 -0.58301,3.3476 -0.22326,1.0728 -0.47106,2.1078 -0.52076,2.6485 -0.25976,1.009 0.0791,0.5983 -0.131,1.0669 z"
           id="path285" />
      </g>
      <g
         style="fill:#000000;fill-opacity:1;stroke-linejoin:miter"
         id="g291"
         transform="rotate(90,259.41968,748.93978)">
        <path
           d="m 769.14954,1447.3588 c -0.33844,-0.2607 -1.07214,-0.6774 -1.8263,-1.125 -0.75409,-0.4477 -1.5318,-0.9281 -2.32734,-1.4582 -0.7955,-0.53 -1.61693,-1.098 -2.1376,-1.4472 -0.5208,-0.3492 -0.4952,-0.3484 -0.6234,-0.4886 -0.12815,-0.14 -0.3416,-0.3938 -0.61185,-0.7556 -0.27035,-0.3617 -0.60401,-0.8176 -0.82545,-1.2071 -0.2215,-0.3896 -0.38146,-0.7848 -0.4939,-1.099 -0.11235,-0.3144 -0.1758,-0.5379 -0.19085,-0.635 -0.015,-0.097 -0.009,0.017 0.0161,-0.4773 0.0251,-0.4949 0.0537,-1.251 0.108,-2.0659 0.0542,-0.8149 0.1352,-1.6883 0.2405,-2.6198 0.1053,-0.9315 0.2346,-1.9213 0.35524,-2.8562 0.12061,-0.9349 0.28586,-1.7866 0.54321,-2.6197 0.25739,-0.8332 0.61255,-1.6481 1.05745,-2.4532 0.4449,-0.805 0.993,-1.5946 1.34014,-2.0293 0.34716,-0.4345 0.51172,-0.5858 0.69513,-0.7375 0.18343,-0.1516 0.38573,-0.3039 0.61187,-0.4484 0.2262,-0.1445 0.469,-0.2932 0.62916,-0.3805 0.1602,-0.087 0.2947,-0.1403 0.50115,-0.1946 0.20649,-0.054 0.47685,-0.1058 0.80575,-0.1551 0.32884,-0.049 0.71397,-0.092 1.0199,-0.1234 0.30595,-0.031 0.4326,-0.062 0.5498,-0.1044 0.1172,-0.042 0.22874,-0.094 0.3362,-0.154 0.1075,-0.06 0.21426,-0.1276 0.0742,-0.5218 -0.1401,-0.3941 -0.1401,-0.3941 -0.1849,-0.3669 0,0 -0.50427,-0.6522 -0.5655,-0.6261 -0.0613,0.026 -0.1101,0.043 -0.1427,0.05 -0.0326,0.01 -0.0472,0.01 -0.021,6e-4 0.0263,-0.01 -0.4095,-0.025 -0.8208,-0.029 -0.41124,0 -0.7815,0.01 -1.1139,0.04 -0.3323,0.033 -0.63315,0.082 -0.9135,0.1624 -0.2803,0.081 -0.62224,0.2264 -0.9332,0.3726 -0.311,0.1459 -0.60304,0.3089 -0.88435,0.4755 -0.28125,0.1665 -0.54495,0.3476 -0.82775,0.5761 -0.2829,0.2285 -1.0642,1.0508 -1.7454,1.9267 -0.68106,0.876 -1.26206,1.7986 -1.7331,2.7696 -0.47116,0.9709 -0.8372,1.9846 -1.1013,3.0337 -0.2641,1.049 -0.34276,2.158 -0.39665,3.1764 -0.0539,1.0183 -0.0865,1.9802 -0.0876,2.8868 -10e-4,0.9066 0.0231,1.7577 0.0747,2.5233 0.0516,0.7657 0.0352,0.7549 0.0773,1.1223 0.0422,0.3676 0.1444,0.6844 0.29004,1.0262 0.14566,0.3416 0.33596,0.7272 0.60366,1.2209 0.2676,0.4935 0.7617,1.0742 1.14494,1.489 0.38326,0.4147 0.7138,0.7451 0.9942,1.0039 0.28036,0.2587 0.54086,0.4541 0.70532,0.5303 0.16449,0.076 1.07504,0.5626 1.99268,1.011 0.91772,0.4482 1.81671,0.8293 2.69166,1.1491 0.875,0.3198 1.72997,0.5643 2.1737,0.5975 0.82995,0.1676 0.4901,-0.1001 0.87634,0.034 z"
           id="path289" />
      </g>
    </g>
  </g>
</svg>
