<?xml version="1.0" encoding="UTF-8" standalone="no"?>
<svg
   version="1.1"
   width="135.38521"
   height="135.38521"
   viewBox="0 0 135.38521 135.38521"
   id="svg1214"
   xmlns="http://www.w3.org/2000/svg"
   xmlns:svg="http://www.w3.org/2000/svg">
  <defs
     id="defs1218" />
  <g
     id="g7180"
     transform="translate(-401.37216,-428.23495)">
    <rect
       style="display:inline;opacity:0.5;fill:none;fill-opacity:1;stroke:none;stroke-width:2.66644;stroke-dasharray:none;stroke-opacity:1"
       id="rect5283"
       width="135.38521"
       height="135.38521"
       x="401.37216"
       y="428.23495" />
    <g
       id="g5315"
       transform="translate(-21.137203,0.35754656)">
      <g
         style="fill:#000000;fill-opacity:1;stroke-linejoin:miter"
         id="g675"
         transform="rotate(90,259.41968,748.93978)">
        <path
           d="m -31.923561,506.70822 c -0.120709,-0.4761 -0.599266,-1.64412 -1.269211,-3.24655 -0.669948,-1.60239 -1.533562,-3.64175 -2.594368,-6.11817 -1.060802,-2.47637 -2.308044,-5.39562 -3.54518,-8.02026 -1.23714,-2.62464 -2.240854,-4.47634 -3.624345,-7.60187 -1.383495,-3.12547 -1.399632,-3.16915 -1.405845,-3.20065 -0.0062,-0.0315 -0.0039,-0.0402 3.7e-5,-0.0261 0.004,0.0141 0.0062,0.0485 -0.0098,0.14828 -0.01601,0.0998 -0.140491,0.42804 -0.212236,0.53705 -0.07174,0.10897 -0.137537,0.18204 -0.18511,0.22424 -0.04757,0.0422 -0.07184,0.0597 -0.0677,0.0601 0.0041,3.7e-4 5.142844,-2.52487 7.972784,-3.94409 2.829935,-1.41922 3.32891,-1.70636 3.85903,-2.01704 0.53012,-0.31066 1.088673,-0.65062 1.679474,-1.01354 0.590801,-0.36288 1.211298,-0.75381 2.024788,-1.26342 0.81349,-0.50964 1.936935,-1.25734 3.210247,-2.17789 1.27331,-0.92055 2.69598,-2.02002 4.253948,-3.32095 1.55797,-1.30094 3.223696,-2.84058 4.582316,-4.03843 1.35862,-1.19784 1.35862,-1.19784 0.393175,-0.48027 0,0 -2.109988,1.1921 -3.994838,2.2819 -1.884849,1.08982 -3.54567,2.0774 -5.00479,2.93153 -1.45912,0.85412 -2.72402,1.56112 -3.807146,2.12201 -1.083126,0.56088 -1.759901,0.91314 -2.387564,1.23446 -0.62766,0.3213 -1.216833,0.6245 -1.773695,0.89795 -0.556858,0.27347 -1.078198,0.5224 -1.541088,0.73605 -0.462891,0.21366 -5.743627,2.4167 -8.469929,3.5751 -2.726298,1.15843 -2.909178,1.26167 -3.09214,1.39027 -0.182958,0.12857 -0.363148,0.29013 -0.532456,0.49121 -0.169307,0.20105 -0.316066,0.44452 -0.441412,0.86169 -0.125352,0.41721 -0.144323,0.69323 -0.129076,0.96167 0.01524,0.26846 0.06116,0.52521 0.132359,0.76813 0.0712,0.24295 0.162667,0.47287 0.999474,2.12353 0.836807,1.6507 2.438587,4.76047 3.610096,6.61436 1.171512,1.85388 2.782357,4.91201 4.238204,7.56652 1.455853,2.65452 2.732209,4.8617 3.827003,6.62162 1.094796,1.7599 2.00776,3.07086 2.469674,3.53595 0.716516,0.8619 0.580736,0.38888 0.835335,0.78567 z"
           id="path673" />
      </g>
      <g
         style="fill:#000000;fill-opacity:1;stroke-linejoin:miter"
         id="g671"
         transform="rotate(90,259.41968,748.93978)">
        <path
           d="m -28.10266,520.38904 c -0.487024,0.41803 -1.367042,1.6557 -2.342271,3.34116 -0.975227,1.6855 -2.042862,3.81246 -3.209694,6.37423 -1.166828,2.56177 -2.435465,5.55621 -3.776359,9.05437 -1.340889,3.49824 -2.655419,7.17714 -2.745999,7.45204 -0.09058,0.2749 -0.174324,0.52856 -0.226311,0.77556 -0.05199,0.247 -0.108303,0.47743 -0.157926,0.69527 -0.04962,0.21777 -0.09388,0.44383 -0.15289,0.90053 -0.05901,0.4567 -0.09089,0.9905 -0.08553,1.5946 0.0054,0.604 0.03851,1.2856 0.09818,2.0504 0.05967,0.76477 0.145515,1.616 0.350508,2.73425 0.204996,1.11829 0.650774,2.25235 1.307325,3.34795 0.656548,1.09565 1.518761,2.15345 2.57338,3.1867 1.054618,1.03334 2.332649,2.0609 3.767905,2.94026 1.435256,0.8794 2.816298,1.60434 4.15855,2.17754 1.34225,0.5732 2.640319,0.99294 3.621728,1.1121 0.981407,0.1191 0.981407,0.1191 0.384966,-0.10323 0,0 -1.019394,-0.87337 -2.171349,-1.55247 -1.151955,-0.67916 -2.34077,-1.466 -3.570226,-2.3662 -1.229456,-0.9002 -2.471259,-1.8926 -3.444863,-2.9088 -0.973606,-1.01616 -1.752128,-1.99626 -2.325584,-2.92345 -0.573456,-0.92725 -0.946026,-1.79651 -1.139538,-2.60335 -0.193512,-0.8068 -0.227294,-1.6617 -0.248774,-2.44066 -0.02149,-0.77894 -0.0235,-1.45734 -0.0067,-2.03104 0.0168,-0.57375 0.05106,-1.0373 0.09432,-1.3788 0.04325,-0.34144 0.104977,-0.5956 0.145287,-0.74476 0.04031,-0.14911 0.08913,-0.32794 0.148856,-0.52474 0.05972,-0.19675 0.14706,-0.4059 0.21025,-0.6421 0.0632,-0.23623 0.13312,-0.47586 1.21834,-4.2146 1.08522,-3.7388 2.1516,-7.0707 3.107063,-9.9965 0.955461,-2.9258 1.799807,-5.42485 2.526024,-7.50206 0.726219,-2.07724 1.335493,-3.7359 1.515051,-4.47654 0.496395,-1.25344 0.05945,-0.8149 0.376292,-1.32766 z"
           id="path669" />
      </g>
      <g
         style="fill:#000000;fill-opacity:1;stroke-linejoin:miter"
         id="g679"
         transform="rotate(90,259.41968,748.93978)">
        <path
           d="m -16.002459,529.8226 c -0.358321,0.3389 -0.906451,1.07706 -1.414417,1.79105 -0.507964,0.71405 -0.980507,1.40155 -1.433279,2.05405 -0.452772,0.65255 -0.877731,1.2747 -1.16069,1.70205 -0.282957,0.42745 -0.415011,0.65149 -0.538151,0.88905 -0.12314,0.23754 -0.244431,0.48516 -0.362054,0.7437 -0.117625,0.25855 -0.230677,0.5283 -0.425233,1.0212 -0.194555,0.49284 -0.419127,1.2563 -0.573713,2.06364 -0.154589,0.80731 -0.239851,1.65706 -0.256897,2.54786 -0.01705,0.8908 0.03959,1.82147 0.141264,2.5588 0.101673,0.7372 0.207428,1.18246 0.336149,1.6215 0.12872,0.439 0.343119,0.8454 0.549875,1.2521 0.206757,0.40677 0.436145,0.802 0.835395,1.4173 0.39925,0.6153 0.930513,1.435 1.44093,2.2285 0.510419,0.7934 0.992247,1.565 1.453612,2.3104 0.461363,0.7455 0.899818,1.46643 1.177763,1.927 0.277946,0.4605 0.418626,0.6687 0.586687,0.899 0.168061,0.2303 0.365679,0.4831 0.589306,0.7625 0.223628,0.27936 0.473947,0.58545 0.789488,0.9474 0.315541,0.362 0.748441,0.75176 1.260195,1.0779 0.511752,0.32615 1.104628,0.5819 1.772809,0.7738 0.66818,0.1919 1.412808,0.3167 1.989243,0.4521 0.576434,0.1355 0.576434,0.1355 0.197214,0.0288 0,0 -0.743231,-0.2627 -1.366261,-0.612 -0.623031,-0.3493 -1.147665,-0.7018 -1.574701,-1.0579 -0.427034,-0.356 -0.759836,-0.7137 -1.008321,-1.0932 -0.248486,-0.3795 -0.456982,-0.73284 -0.646283,-1.05126 -0.189301,-0.31844 -0.350307,-0.60577 -0.486434,-0.8584 -0.136127,-0.25264 -0.24925,-0.46808 -0.332057,-0.64054 -0.08281,-0.17257 -0.409932,-0.93483 -0.770599,-1.7301 -0.360668,-0.7954 -0.749529,-1.6142 -1.169668,-2.4545 -0.420141,-0.84026 -0.865934,-1.70507 -1.337277,-2.5871 -0.471342,-0.882 -0.642226,-1.20903 -0.786746,-1.5408 -0.144522,-0.33175 -0.27304,-0.6665 -0.383782,-1.0059 -0.110744,-0.3394 -0.233152,-0.6753 -0.33403,-0.99034 -0.100878,-0.31512 -0.258669,-1.13781 -0.358509,-1.92666 -0.09984,-0.7888 -0.140547,-1.5356 -0.120073,-2.2414 0.02047,-0.70584 0.101285,-1.37185 0.241689,-2.0158 0.140402,-0.6439 0.207363,-0.89505 0.283845,-1.1417 0.07648,-0.2467 0.152335,-0.48346 0.23365,-0.70776 0.08131,-0.22434 0.16379,-0.43814 0.238632,-0.62974 0.07484,-0.19173 0.401641,-0.8363 0.739858,-1.53493 0.338217,-0.69867 0.677391,-1.43967 1.01893,-2.22211 0.341538,-0.78246 0.677157,-1.61076 0.770863,-2.07936 0.316061,-0.8812 -0.03057,-0.5356 0.191778,-0.9482 z"
           id="path677" />
      </g>
      <g
         style="fill:#000000;fill-opacity:1;stroke-linejoin:miter"
         id="g683"
         transform="rotate(90,259.41968,748.93978)">
        <path
           d="m -16.685564,530.2395 c 0.168549,0.0187 0.570215,0.0229 1.08419,0.0477 0.513974,0.0247 1.141127,0.0676 1.881826,0.1162 0.740699,0.0486 1.59588,0.11015 2.090605,0.1603 0.494724,0.0502 0.651482,0.10604 0.846591,0.1925 0.19511,0.0866 0.424469,0.2083 0.684564,0.3665 0.260095,0.1581 0.545909,0.35826 0.809052,0.5659 0.263142,0.2077 0.600996,0.55176 1.055246,1.0825 0.4542503,0.5307 1.0225225,1.2334 1.694229,2.10964 0.671707,0.87622 1.445098,1.9245 1.970122,2.73306 0.525024,0.8085 0.817181,1.43027 1.0743535,2.0458 0.2571723,0.61555 0.5339267,1.20374 0.7700479,1.79414 0.2361209,0.59036 0.4430122,1.17919 0.6140384,1.72786 0.1710265,0.5486 0.2687896,0.9676 0.3012202,1.3903 0.032431,0.4228 0.00682,0.85565 -0.084546,1.3056 -0.091367,0.44995 -0.2461981,0.92285 -0.7933974,1.7675 -0.5471992,0.8446 -1.4970836,2.0766 -2.4177017,3.13173 -0.9206185,1.05517 -1.805839,1.94831 -2.6694195,2.68297 -0.86358,0.7347 -1.718456,1.31856 -2.3923994,1.5966 -0.673942,0.2779 -0.673942,0.2779 -0.214218,0.11796 0,0 0.9507374,-0.24402 1.9918614,-0.62296 1.0411226,-0.37894 2.123607,-0.98495 3.2362515,-1.8034 1.1126445,-0.81846 2.2527742,-1.8406 3.4305145,-3.07725 1.1777403,-1.23669 1.58230399,-1.95345 1.84219746,-2.57665 0.25989346,-0.62324 0.42839894,-1.2664 0.50376977,-1.92335 0.0753709,-0.65692 0.0474538,-1.3208 -0.0606699,-1.9541 -0.10812375,-0.6333 -0.25186163,-1.30249 -0.44283473,-1.99815 -0.1909731,-0.69576 -0.41750506,-1.39363 -0.7059189,-2.08156 -0.28841383,-0.68794 -0.6453989,-1.35874 -1.0734235,-2.08008 -0.4280245,-0.72136 -1.429868,-1.87456 -2.2833047,-2.80906 -0.853437,-0.9345 -1.5946945,-1.7134 -2.2294085,-2.33657 -0.634713,-0.62317 -1.1683962,-1.09363 -1.6122673,-1.42613 -0.4438717,-0.3326 -0.8462717,-0.5531 -1.1982297,-0.71803 -0.351959,-0.16487 -0.679797,-0.30152 -0.987827,-0.40697 -0.3080314,-0.10554 -0.5995474,-0.17793 -0.9065964,-0.214 -0.307047,-0.036 -1.266383,0.051 -2.092746,0.1515 -0.826365,0.1005 -1.536549,0.20744 -2.129268,0.3312 -0.592719,0.1238 -1.067489,0.2541 -1.261599,0.3459 -0.355036,0.12696 -0.163977,0.22975 -0.324904,0.2649 z"
           id="path681" />
      </g>
      <g
         style="fill:#000000;fill-opacity:1;stroke-linejoin:miter"
         id="g687"
         transform="rotate(90,259.41968,748.93978)">
        <path
           d="m -10.207911,501.3634 c -0.583055,-0.1815 -1.704212,-0.38925 -2.763439,-0.6536 -1.059227,-0.26433 -2.060774,-0.60894 -3.011071,-1.03432 -0.950297,-0.42542 -1.853114,-0.93588 -2.63691,-1.62082 -0.783795,-0.68494 -1.532023,-1.57356 -2.119557,-2.42182 -0.587536,-0.84826 -1.019001,-1.6495 -1.304539,-2.39767 -0.285537,-0.74817 -0.429222,-1.44489 -0.452593,-1.79291 -0.02337,-0.34802 0.0049,-0.49863 0.06456,-0.68121 0.05969,-0.18255 0.117685,-0.40973 0.219704,-0.66791 0.102016,-0.25818 0.241537,-0.54727 1.459537,-2.23166 1.218,-1.68438 3.558924,-4.90384 4.036408,-5.52801 0.477486,-0.62417 0.96891,-1.24189 1.475907,-1.84601 0.506997,-0.60413 1.024463,-1.20029 1.556575,-1.78522 0.532111,-0.58494 1.041978,-1.13678 1.61918,-1.57742 0.577202,-0.44065 1.067545,-0.8378 1.454377,-1.16974 0.386833,-0.33198 0.67218,-0.59424 0.848868,-0.73596 0.176688,-0.1417 0.176688,-0.1417 0.053093,-0.0558 0,0 -0.2646,0.14581 -0.655049,0.3147 -0.390448,0.16885 -0.892645,0.38273 -1.505954,0.64395 -0.613309,0.26123 -1.372492,0.60956 -2.048522,1.10266 -0.67603,0.4931 -1.31002,1.00742 -1.931645,1.54112 -0.621626,0.53368 -1.224444,1.09273 -1.810798,1.67415 -0.586356,0.58142 -1.162175,1.19199 -3.813891,4.17972 -2.651718,2.9877 -2.990385,3.50113 -3.206405,3.88571 -0.21602,0.38458 -0.391505,0.77084 -0.520947,1.1619 -0.129443,0.39105 -0.197697,0.78932 -0.217585,1.25052 -0.01989,0.46118 0.144392,1.43252 0.494272,2.4084 0.34988,0.97593 0.86393,1.92707 1.538419,2.8526 0.674488,0.92552 1.499677,1.83268 2.509983,2.756 1.010305,0.92327 2.14892,1.50527 3.236532,1.9049 1.087612,0.39963 2.205829,0.67447 3.350865,0.81702 1.145036,0.14254 2.311843,0.14895 2.903258,0.003 1.17949,-0.15492 0.589297,-0.28728 1.177372,-0.2961 z"
           id="path685" />
      </g>
      <g
         style="fill:#000000;fill-opacity:1;stroke-linejoin:miter"
         id="g691"
         transform="rotate(90,259.41968,748.93978)">
        <path
           d="m -7.7845426,501.7678 c 0.1299306,-0.22675 0.2931326,-0.64957 0.4235376,-1.00318 0.130405,-0.35362 0.234482,-0.63614 0.3145057,-0.84542 0.080024,-0.20933 0.1320553,-0.3419 0.305914,-0.69178 0.1738586,-0.34986 0.4558623,-0.95179 0.7033813,-1.5019 0.2475197,-0.55007 0.4593136,-1.04925 0.63489,-1.49847 0.175576,-0.44919 0.317366,-0.84888 0.417254,-1.14731 0.099888,-0.29844 0.1794884,-0.55392 0.244102,-0.81958 0.064613,-0.26566 0.1222117,-0.53973 0.170586,-0.82254 0.048374,-0.28277 0.086653,-0.57432 0.141457,-1.20749 0.054804,-0.63318 0.1057424,-1.46213 0.1410045,-2.13203 0.035261,-0.66988 0.054701,-1.18395 0.056908,-1.5577 0.00221,-0.3737 -0.027727,-0.6843 -0.034922,-0.74645 -0.0072,-0.0622 -0.049174,-0.36512 -0.1253085,-0.79085 -0.076135,-0.42568 -0.1969404,-1.00746 -0.3562784,-1.75585 -0.159338,-0.74841 -0.4352806,-1.64477 -0.8511519,-2.68942 -0.4158717,-1.04465 -0.852644,-1.87799 -1.2769557,-2.59936 -0.4243116,-0.72137 -0.8391146,-1.3317 -1.238587,-1.84183 -0.399473,-0.5101 -0.801264,-0.91846 -1.131045,-1.19827 -0.329781,-0.27982 -0.779587,-0.6149 -1.376712,-0.99802 -0.597124,-0.38315 -1.354181,-0.81985 -2.278632,-1.30988 -0.924452,-0.49002 -2.023587,-1.02533 -2.790619,-1.38003 -0.767032,-0.35471 -1.080793,-0.52014 -1.366096,-0.67478 -0.285303,-0.1546 -0.543602,-0.2969 -0.771038,-0.43216 -0.227436,-0.13525 -0.401912,-0.28823 -0.518999,-0.39596 -0.117085,-0.10776 -0.117085,-0.10776 -0.03903,-0.0359 0,0 0.156115,0.14365 0.328155,0.31538 0.172041,0.1717 0.355627,0.37883 0.565758,0.604 0.210132,0.22515 0.448463,0.46575 0.722095,0.7285 0.273634,0.26276 1.332328,1.0902 2.24658,1.78727 0.914253,0.69711 1.679937,1.28336 2.285813,1.77039 0.605877,0.48704 1.045047,0.87292 1.328508,1.1643 0.283462,0.29141 0.547594,0.5636 0.79656,0.91468 0.248966,0.35106 0.537785,0.82763 0.840806,1.43621 0.30302,0.60855 0.627058,1.33975 0.95322,2.14869 0.3261627,0.80892 0.5255884,1.73742 0.745312,2.57794 0.219724,0.84052 0.4205047,1.50222 0.562612,1.99176 0.142108,0.48953 0.2263014,0.79602 0.257215,0.95648 0.030914,0.16046 0.061364,0.2341 0.079829,0.36848 0.018465,0.13433 0.047265,0.49947 0.077139,1.04033 0.029874,0.54087 0.060349,1.25031 0.096628,2.12107 0.036278,0.87075 0.039763,1.10406 0.030468,1.35287 -0.0093,0.24881 -0.022516,0.48903 -0.046066,0.71993 -0.023551,0.2309 -0.053148,0.45317 -0.087656,0.67308 -0.034507,0.21994 -0.10161,0.57098 -0.191601,0.97674 -0.089992,0.40578 -0.199035,0.87592 -0.329903,1.4083 -0.1308686,0.53238 -0.2797777,1.12771 -0.4473607,1.7875 -0.1675823,0.65982 -0.1989183,0.79178 -0.2273016,0.98035 -0.028384,0.18853 -0.054462,0.44629 -0.082382,0.77603 -0.027921,0.32974 -0.052721,0.7335 -0.02198,0.9689 -0.018937,0.47873 0.169063,0.26364 0.1193854,0.507 z"
           id="path689" />
      </g>
      <g
         style="fill:#000000;fill-opacity:1;stroke-linejoin:miter"
         id="g695"
         transform="rotate(90,259.41968,748.93978)">
        <path
           d="m 40.427055,552.2976 c -0.07515,-0.19866 -0.312931,-0.7771 -0.626159,-1.6765 -0.313226,-0.8994 -0.71447,-2.11695 -1.207863,-3.6526 -0.493397,-1.5357 -1.084427,-3.3881 -1.476708,-4.6406 -0.392275,-1.2525 -0.527519,-1.765 -0.668975,-2.39644 -0.141453,-0.63146 -0.287552,-1.37916 -0.441147,-2.24006 -0.153599,-0.86096 -0.31432,-1.83434 -0.446503,-2.6549 -0.13218,-0.82056 -0.222588,-1.4202 -0.301674,-2.0629 -0.07909,-0.6427 -0.153358,-1.32705 -0.218674,-2.05343 -0.06531,-0.72632 -0.130714,-1.49341 -0.387275,-4.45017 -0.256567,-2.9568 -0.762532,-8.16385 -1.513874,-13.092 -0.751343,-4.9282 -0.773476,-5.09855 -0.852483,-5.45197 -0.079,-0.35346 -0.210292,-0.84423 -0.407336,-1.48013 -0.197044,-0.6359 -0.467659,-1.4173 -0.720344,-2.07352 -0.252685,-0.65618 -0.252685,-0.65618 -0.16117,-0.20338 0,0 -0.0478,0.9517 -0.0045,1.71863 0.04328,0.76697 0.08509,1.36731 0.108516,1.80037 0.02343,0.433 0.02273,0.68715 0.06376,3.2697 0.04103,2.5825 0.227049,7.5286 0.310659,12.7322 0.08361,5.20353 0.206973,6.0821 0.319783,6.8622 0.11281,0.78024 0.242193,1.5195 0.371511,2.2201 0.12932,0.7006 0.27205,1.3608 0.412,1.9762 0.13995,0.61543 0.392722,1.6631 0.63627,2.6103 0.24355,0.9472 0.4824,1.7859 0.7095,2.5192 0.2271,0.73337 0.443417,1.36325 0.649903,1.8898 0.206487,0.5265 1.094273,2.5196 1.887234,4.1942 0.792961,1.6747 1.50264,3.0248 2.11132,4.0564 0.608683,1.0316 1.117367,1.7423 1.363533,1.9745 0.38234,0.39526 0.354546,0.1417 0.490715,0.3048 z"
           id="path693" />
      </g>
      <g
         style="fill:#000000;fill-opacity:1;stroke-linejoin:miter"
         id="g699"
         transform="rotate(90,259.41968,748.93978)">
        <path
           d="m 40.025826,549.4124 c 1.660148,0.32576 4.708351,0.121 7.40834,-0.5563 2.699994,-0.6774 5.04501,-1.7877 7.011787,-3.3258 1.966782,-1.5382 3.518357,-3.4992 4.543327,-5.4672 1.024976,-1.96807 1.712403,-3.7264 2.261613,-5.5203 0.549213,-1.7939 0.954127,-3.62337 1.21035,-5.48604 0.256221,-1.86266 0.367893,-3.75556 0.41394,-5.30286 0.04605,-1.54736 0.02802,-3.0856 -0.129363,-4.7805 -0.157376,-1.6949 -0.450078,-3.5532 -0.875646,-5.58076 -0.425567,-2.02759 -0.983104,-4.22794 -1.664367,-6.27576 -0.681263,-2.04778 -1.673283,-3.68646 -3.062277,-5.04242 -1.388987,-1.35596 -3.131464,-2.41714 -5.193785,-3.20324 -2.062315,-0.78614 -4.43988,-1.31042 -7.14928,-1.53212 -2.709401,-0.22167 -5.391615,-0.0814 -7.939015,0.37318 -2.547397,0.45452 -4.949558,1.2254 -7.180282,2.33272 -2.230723,1.10734 -4.251812,2.5731 -5.70592,3.75645 -1.454107,1.18332 -1.454107,1.18332 -0.429608,0.48265 0,0 2.21429,-1.13676 4.443942,-2.00908 2.229651,-0.87232 4.48909,-1.50689 6.816334,-1.88055 2.327247,-0.37369 4.737954,-0.48337 7.231424,-0.31567 2.493467,0.16772 4.79997,0.65564 6.743994,1.30505 1.944023,0.64938 3.486759,1.44077 4.644666,2.34647 1.157904,0.9057 1.967707,1.91513 2.48477,3.0939 0.517064,1.1788 1.11098,3.36972 1.59992,5.40858 0.488936,2.0388 0.84572,3.8814 1.071845,5.52306 0.22612,1.64164 0.324051,3.07694 0.300777,4.37314 -0.02327,1.29623 0.02499,3.1142 -0.04998,4.8067 -0.07498,1.69253 -0.273428,3.3656 -0.597772,5.0219 -0.324345,1.6563 -0.769418,3.29997 -1.33931,4.9119 -0.569898,1.6119 -1.495171,3.5552 -2.769968,5.1625 -1.274798,1.6073 -2.944285,2.9549 -5.047632,4.04515 -2.103348,1.09035 -4.654042,1.93035 -6.054248,2.50525 -3.008584,0.68915 -1.390195,0.7157 -2.998574,0.83 z"
           id="path697" />
      </g>
    </g>
  </g>
</svg>
