<?xml version="1.0" encoding="UTF-8" standalone="no"?>
<svg
   version="1.1"
   width="135.38521"
   height="135.38521"
   viewBox="0 0 135.38521 135.38521"
   id="svg1214"
   xmlns="http://www.w3.org/2000/svg"
   xmlns:svg="http://www.w3.org/2000/svg">
  <defs
     id="defs1218" />
  <g
     id="g7264"
     transform="translate(-554.5979,-1130.2528)">
    <rect
       style="display:inline;opacity:0.5;fill:none;fill-opacity:1;stroke:none;stroke-width:2.66644;stroke-dasharray:none;stroke-opacity:1"
       id="rect5435"
       width="135.38521"
       height="135.38521"
       x="554.5979"
       y="1130.2528" />
    <g
       id="g4146"
       transform="matrix(1.1808036,0,0,1.1808036,874.4078,138.10323)">
      <g
         style="fill:#000000;fill-opacity:1;stroke-linejoin:miter"
         id="g379"
         transform="rotate(90,259.41968,748.93978)">
        <path
           d="m 385.6228,1259.9058 c -2.2265,-1.8221 -7.0987,-4.6053 -7.29178,-4.7259 -0.19308,-0.1205 -0.39065,-0.2514 -0.58218,-0.3875 -0.19154,-0.1362 -0.37732,-0.2775 -0.55688,-0.4237 -0.1796,-0.1462 -0.38279,-0.3201 -0.64106,-0.5457 -0.25824,-0.2257 -0.50586,-0.4901 -0.7646,-0.8127 -0.25877,-0.3227 -0.5319,-0.6995 -0.80894,-1.1371 -0.27704,-0.4377 -0.56992,-0.9462 -0.68271,-1.1648 -0.1128,-0.2187 -0.22718,-0.471 -0.34479,-0.7702 -0.11762,-0.299 -0.2355,-0.6444 -0.35129,-1.0345 -0.11581,-0.3902 -0.21289,-0.7457 -0.23834,-0.6195 -0.0254,0.1263 0.005,0.033 0.19165,-0.2498 0.18698,-0.2827 0.53892,-0.6926 1.05218,-1.1902 0.51324,-0.4976 1.17994,-1.0752 1.51069,-1.3396 0.33075,-0.2642 0.64825,-0.5026 0.93325,-0.715 0.285,-0.2126 0.54017,-0.3938 0.76358,-0.543 0.22342,-0.1493 0.45442,-0.2887 0.63902,-0.409 0.1846,-0.1202 0.46163,-0.2797 0.8528,-0.4763 0.39115,-0.1964 0.88737,-0.4333 1.48426,-0.7129 0.59692,-0.2794 1.31839,-0.6107 1.53224,-0.7434 0.2138,-0.1325 0.3727,-0.248 0.51802,-0.3675 0.14533,-0.1195 0.27683,-0.2444 0.39432,-0.3783 0.11749,-0.1338 0.23666,-0.3082 0.40942,-0.6875 0.17279,-0.3792 0.31624,-0.8034 0.42274,-1.2708 0.10647,-0.4675 0.17486,-0.9793 0.2141,-1.5348 0.0393,-0.5554 0.0438,-1.1622 10e-4,-1.4829 -0.0426,-0.3207 -0.13076,-0.654 -0.26611,-1.004 -0.13538,-0.35 -0.31435,-0.7186 -0.49219,-0.9951 -0.17782,-0.2766 -0.17782,-0.2766 -0.1055,-0.077 0,0 0.006,0.4471 0.0547,0.8219 0.0487,0.3748 0.0655,0.7048 0.0533,0.9876 -0.0122,0.283 -0.0536,0.5127 -0.18442,1.0481 -0.13078,0.5354 -0.2721,1.0133 -0.42371,1.4292 -0.15157,0.4157 -0.30572,0.7709 -0.46869,1.0613 -0.16298,0.2905 -0.33944,0.5277 -0.36792,0.5456 -0.0285,0.018 -0.0863,0.063 -0.16614,0.1158 -0.0798,0.053 -0.18142,0.112 -0.30492,0.1755 -0.1235,0.063 -0.18778,0.091 -0.8847,0.3117 -0.69697,0.2203 -1.3065,0.4229 -1.8171,0.606 -0.51055,0.1832 -0.92315,0.3533 -1.25573,0.4995 -0.33255,0.1463 -0.52717,0.2528 -0.77673,0.377 -0.24954,0.1242 -0.54239,0.2841 -0.85992,0.4687 -0.31754,0.1845 -0.66126,0.3943 -1.02964,0.6331 -0.36838,0.2386 -0.79086,0.5183 -1.52572,1.0731 -0.73486,0.5548 -1.33518,1.0822 -1.81806,1.5906 -0.48288,0.5084 -0.85028,1.0388 -1.06268,1.6894 -0.21237,0.6507 -0.16345,1.3441 0.0133,1.849 0.17672,0.505 0.35232,0.9337 0.52655,1.3304 0.17422,0.3964 0.35351,0.7601 0.54312,1.091 0.1896,0.3311 0.37448,0.6055 0.73823,1.119 0.36373,0.5136 0.7346,0.9818 1.10607,1.401 0.37149,0.4192 0.74963,0.7858 1.13443,1.1013 0.3848,0.3156 0.72924,0.5433 0.94757,0.6932 0.21833,0.15 0.45651,0.3034 0.69973,0.4491 0.24323,0.1456 0.4917,0.2838 0.74518,0.4141 0.25345,0.1304 0.53308,0.2637 3.27307,1.0379 5.25575,2.0049 2.80201,0.6474 5.31775,1.8782 z"
           id="path377" />
      </g>
      <g
         style="fill:#000000;fill-opacity:1;stroke-linejoin:miter"
         id="g383"
         transform="rotate(90,259.41968,748.93978)">
        <path
           d="m 381.8832,1214.7498 c -0.36608,-0.9058 -1.2727,-2.3825 -2.05392,-3.6683 -0.78118,-1.2856 -1.4104,-2.3991 -1.87954,-3.3399 -0.46914,-0.9408 -0.76929,-1.703 -0.92591,-2.1576 -0.15661,-0.4546 -0.20806,-0.6166 -0.30868,-0.9902 -0.10062,-0.3736 -0.23349,-0.926 -0.39447,-1.647 -0.16095,-0.7211 -0.35483,-1.6066 -0.65961,-3.1543 -0.30481,-1.5477 -0.87225,-3.6392 -0.90887,-3.7862 -0.0367,-0.1468 -0.072,-0.311 -0.10227,-0.4794 -0.0302,-0.1685 -0.0538,-0.3414 -0.0749,-0.518 -0.021,-0.1766 -0.0387,-0.3447 -0.0481,-0.6852 -0.009,-0.3405 0.0276,-0.6955 0.11523,-1.0924 0.0876,-0.3968 0.23157,-0.8336 0.43262,-1.3092 0.20103,-0.4754 0.38603,-0.8721 3.3031,-5.0129 2.91711,-4.141 2.99658,-4.2736 3.07046,-4.4159 0.0739,-0.1423 0.14197,-0.2924 0.2045,-0.4503 0.0625,-0.1581 0.13647,-0.3151 0.19667,-0.4341 0.0602,-0.1192 0.0602,-0.1192 0.02,-0.04 0,0 -0.0802,0.1588 -0.17972,0.2983 -0.0995,0.1396 -0.20822,0.2637 -0.31762,0.3765 -0.10944,0.1129 -0.21937,0.2145 -2.1229,2.0095 -1.90354,1.7949 -5.43683,5.4531 -5.82504,6.0669 -0.38819,0.6139 -0.67481,1.1665 -0.89863,1.7163 -0.22381,0.5499 -0.38238,1.0987 -0.4664,1.6475 -0.084,0.5488 -0.0984,1.0445 -0.0963,1.2773 0.002,0.2329 0.0127,0.4571 0.0293,0.6791 0.0166,0.222 0.0368,0.4425 0.0634,0.6606 0.0266,0.2182 0.0653,0.4609 0.55722,2.5812 0.49192,2.1203 0.79551,3.1273 1.05841,3.9551 0.26294,0.8276 0.48789,1.4991 0.67384,2.02 0.1859,0.5209 0.3378,0.903 0.4378,1.0962 0.10003,0.1934 0.4056,0.9177 0.9194,1.8098 0.5138,0.892 1.2017,1.8855 2.079,2.9821 0.8773,1.0965 1.95127,2.2942 2.67652,2.8299 1.31578,1.2632 0.83484,0.4468 1.42538,1.1744 z"
           id="path381" />
      </g>
      <g
         style="fill:#000000;fill-opacity:1;stroke-linejoin:miter"
         id="g387"
         transform="rotate(90,259.41968,748.93978)">
        <path
           d="m 402.13742,1259.7717 c -0.0898,-0.1471 -0.31532,-0.4576 -0.5618,-0.8508 -0.24646,-0.3932 -0.51684,-0.8691 -0.81782,-1.4251 -0.30098,-0.5557 -0.63442,-1.1918 -0.96578,-1.8596 -0.33136,-0.6677 -0.64135,-1.2984 -0.94055,-1.9164 -0.29919,-0.6179 -0.58679,-1.2236 -0.86027,-1.8186 -0.2735,-0.5949 -0.5279,-1.1817 -0.69054,-1.5416 -0.1626,-0.36 -0.23819,-0.5022 -0.3356,-0.6763 -0.0974,-0.1739 -0.21979,-0.3858 -0.36856,-0.6381 -0.14875,-0.2522 -0.32447,-0.5461 -0.4068,-0.7005 -0.0824,-0.1544 -0.12238,-0.2679 -0.15302,-0.3767 -0.0306,-0.1086 -0.0939,-0.2019 -0.12353,-0.3014 -0.0296,-0.1 -0.0516,-0.1976 -0.0823,-0.4317 -0.0308,-0.2343 -0.0692,-0.5694 -0.09,-0.8553 -0.0208,-0.2857 -0.03,-0.5191 -0.0307,-0.6948 -6.7e-4,-0.1758 0.008,-0.2844 0.065,-0.7106 0.0574,-0.4261 0.14462,-1.0594 0.23477,-1.6261 0.0902,-0.5666 0.18735,-1.0651 0.28545,-1.4963 0.0982,-0.431 0.2016,-0.7919 0.2832,-1.0538 0.0816,-0.262 0.12807,-0.4065 0.25303,-0.672 0.12497,-0.2655 0.32547,-0.6276 0.59711,-1.0775 0.27164,-0.45 0.60272,-0.9933 0.79032,-1.5229 0.18756,-0.5294 0.18756,-0.5294 -0.036,-0.2558 0,0 -0.74233,0.3091 -1.17288,0.7467 -0.43054,0.4376 -0.77407,0.82 -1.04037,1.1463 -0.2663,0.3265 -0.45795,0.6076 -0.55829,0.8179 -0.10036,0.2105 -0.26636,0.5275 -0.45288,0.9475 -0.18655,0.4199 -0.3674,0.9016 -0.54318,1.4463 -0.17578,0.5448 -0.3503,1.1524 -0.5184,1.815 -0.1681,0.6625 -0.21116,0.8046 -0.25495,1.0593 -0.0437,0.2546 -0.0749,0.534 -0.0882,0.8472 -0.0133,0.3132 -0.0216,0.6638 -0.0182,1.0551 0.003,0.3914 0.0156,0.5967 0.0431,0.8058 0.0275,0.2091 0.0695,0.4171 0.1206,0.6254 0.0511,0.2081 0.1361,0.4063 0.2567,0.6416 0.12056,0.2352 0.3708,0.577 0.55846,0.831 0.18764,0.2542 0.34234,0.4667 0.46328,0.6365 0.12098,0.1697 0.20658,0.2935 0.25046,0.3583 0.0439,0.065 0.35932,0.6232 0.70224,1.1936 0.34293,0.5704 0.70156,1.1472 1.07926,1.728 0.37768,0.5808 0.7708,1.168 1.18844,1.757 0.41764,0.5888 0.89768,1.2253 1.34646,1.7788 0.4488,0.5536 0.86472,1.0229 1.25507,1.4013 0.39035,0.3785 0.74738,0.6691 0.93259,0.7664 0.31467,0.2053 0.27564,-0.011 0.40506,0.097 z"
           id="path385" />
      </g>
      <g
         style="fill:#000000;fill-opacity:1;stroke-linejoin:miter"
         id="g391"
         transform="rotate(90,259.41968,748.93978)">
        <path
           d="m 399.34766,1256.616 c 0.34616,-0.774 1.17534,-4.4784 1.64428,-7.1391 0.46891,-2.6606 0.56076,-4.2795 0.64008,-8.0727 0.0793,-3.7932 0.0853,-5.4222 0.0853,-5.4222 0,0 0,0 0,0 0,0 0,0 -0.63269,2.6413 -0.63266,2.6413 -1.35726,6.3583 -1.57349,7.9624 -0.21625,1.604 -0.40173,5.3846 -0.30517,7.2973 0.001,2.7164 0.23672,1.9294 0.14166,2.733 z"
           id="path389" />
      </g>
      <g
         style="fill:#000000;fill-opacity:1;stroke-linejoin:miter"
         id="g395"
         transform="rotate(90,259.41968,748.93978)">
        <path
           d="m 404.1029,1213.9906 c 0.0182,-0.03 0.0424,-0.099 0.0629,-0.1766 0.0205,-0.078 0.0376,-0.1643 0.0512,-0.2598 0.0136,-0.096 0.0239,-0.1998 0.0256,-0.5076 0.002,-0.3077 -0.004,-0.78 -0.008,-1.2241 -0.004,-0.444 -0.008,-0.8596 -0.003,-1.2478 0.005,-0.3882 0.01,-0.748 0.0336,-1.1702 0.0238,-0.422 0.0495,-0.9585 0.0672,-1.5267 0.0177,-0.5682 0.0258,-1.168 0.0298,-1.7994 0.004,-0.6316 4.6e-4,-1.2947 -1.4e-4,-1.6902 -6.2e-4,-0.3955 0.0114,-0.5685 0.031,-0.8047 0.0196,-0.2361 0.0467,-0.5316 0.0832,-0.8843 0.0365,-0.3528 0.0825,-0.7617 0.11472,-1.1123 0.0322,-0.3506 0.0404,-0.516 0.0467,-0.659 0.006,-0.1431 0.0108,-0.2643 0.0132,-0.3661 0.002,-0.102 0.003,-0.1884 0.004,-0.3694 0.002,-0.181 -0.0453,-0.5284 -0.0917,-0.9028 -0.0463,-0.3743 -0.10373,-0.7758 -0.17503,-1.2049 -0.0713,-0.4289 -0.14635,-0.8868 -0.25392,-1.4101 -0.10755,-0.5235 -0.22898,-1.0467 -0.35144,-1.5293 -0.12247,-0.4828 -0.24659,-0.9252 -0.37061,-1.328 -0.12403,-0.4029 -0.24829,-0.7668 -0.40506,-1.1737 -0.15677,-0.4071 -0.36062,-0.9242 -0.60303,-1.4578 -0.2424,-0.5336 -0.51814,-1.0855 -0.82736,-1.6558 -0.30923,-0.5703 -0.66205,-1.1544 -0.89615,-1.5356 -0.2341,-0.3812 -0.32635,-0.5715 -0.41501,-0.762 -0.0886,-0.1904 -0.17042,-0.3819 -0.23937,-0.5759 -0.069,-0.1939 -0.10385,-0.393 -0.12647,-0.5418 -0.0226,-0.1489 -0.0226,-0.1489 -0.008,-0.05 0,0 0.0301,0.1984 0.0567,0.4001 0.0266,0.2017 0.038,0.4104 0.0566,0.6222 0.0186,0.2117 0.0446,0.4265 0.0839,0.6506 0.0392,0.2242 0.23682,0.9005 0.41989,1.5337 0.18307,0.6333 0.35647,1.2298 0.50506,1.7954 0.14859,0.5658 0.28214,1.0973 0.39444,1.6028 0.11231,0.5055 0.18128,0.8303 0.24799,1.1847 0.0667,0.3544 0.13001,0.7524 0.18958,1.1937 0.0596,0.4413 0.11936,0.9246 0.17516,1.4461 0.0559,0.5213 0.0858,0.9767 0.11603,1.4106 0.0303,0.4341 0.0493,0.8358 0.0629,1.2041 0.0136,0.3682 0.0193,0.7025 0.0269,1.0094 0.008,0.3069 0.0134,0.3658 0.0189,0.4258 0.006,0.06 0.0119,0.1505 0.019,0.2677 0.007,0.1173 0.0145,0.2601 0.0233,0.4017 0.009,0.1416 0.002,0.5778 -0.002,0.9834 -0.004,0.4057 -0.004,0.7583 -5.4e-4,1.0595 0.004,0.301 0.0156,0.5528 0.0319,0.7668 0.0163,0.214 0.10397,0.8933 0.18405,1.5324 0.0801,0.639 0.16022,1.2463 0.22757,1.8226 0.0674,0.5764 0.13483,1.1214 0.19537,1.6397 0.0605,0.5183 0.11298,0.8833 0.17768,1.2656 0.0647,0.3824 0.15112,0.7856 0.25085,1.2102 0.0997,0.4246 0.22287,0.8696 0.36716,1.3334 0.14429,0.4637 0.16873,0.5522 0.18863,0.6429 0.0199,0.091 0.0342,0.1741 0.0428,0.2495 0.009,0.075 0.0118,0.1433 0.0168,0.1747 -0.003,0.062 0.14187,0.066 0.1342,0.096 z"
           id="path393" />
      </g>
      <g
         style="fill:#000000;fill-opacity:1;stroke-linejoin:miter"
         id="g399"
         transform="rotate(90,259.41968,748.93978)">
        <path
           d="m 403.51877,1215.6882 c -0.26764,-0.4378 -0.86194,-1.1369 -1.37815,-1.7645 -0.51622,-0.6276 -0.95086,-1.1879 -1.28878,-1.692 -0.33792,-0.5042 -0.58127,-0.945 -1.56424,-3.061 -0.98294,-2.1163 -2.80185,-5.9085 -2.90344,-6.1853 -0.1016,-0.2769 -0.19742,-0.5638 -0.26764,-0.8412 -0.0703,-0.2775 -0.16986,-0.5325 -0.22754,-0.7865 -0.0577,-0.2541 -0.0967,-0.4912 -0.159,-1.2915 -0.0623,-0.8005 -0.0743,-1.5995 -0.0341,-2.4054 0.0402,-0.8059 0.13101,-1.6195 0.27356,-2.4425 0.14255,-0.8229 0.32276,-1.6147 0.61966,-2.323 0.29691,-0.7083 0.67221,-1.4399 1.10721,-2.1846 0.43503,-0.7447 0.9296,-1.507 1.27063,-2.1519 0.341,-0.6447 0.341,-0.6447 0.0211,-0.2963 0,0 -0.9177,0.4525 -1.57859,1.1142 -0.66088,0.6619 -1.24758,1.3566 -1.7518,2.0859 -0.50418,0.7293 -0.95037,1.5251 -1.26687,2.4163 -0.3165,0.8911 -0.55928,1.7725 -0.73844,2.6624 -0.17916,0.8897 -0.30144,1.7865 -0.35727,2.6899 -0.0558,0.9036 -0.0435,1.7991 -0.013,2.1808 0.0306,0.3817 0.0915,0.7607 0.18045,1.1413 0.089,0.3807 0.23002,0.7538 0.39393,1.1261 0.16387,0.3724 0.37887,0.7881 2.59355,4.378 2.21473,3.5897 2.51515,4.0457 2.92122,4.5248 0.40608,0.479 0.90832,0.9688 1.50468,1.4761 0.59633,0.5074 1.296,1.0252 1.73692,1.2232 0.8147,0.5144 0.53218,0.09 0.90595,0.4067 z"
           id="path397" />
      </g>
      <g
         style="fill:#000000;fill-opacity:1;stroke-linejoin:miter"
         id="g403"
         transform="rotate(90,259.41968,748.93978)">
        <path
           d="m 437.79907,1251.8002 c 0.0285,-0.063 0.0612,-0.1884 0.0895,-0.3095 0.0283,-0.1212 0.0522,-0.2381 0.0716,-0.3512 0.0194,-0.113 0.0344,-0.2223 0.0959,-1.1666 0.0615,-0.9442 0.12354,-2.7199 0.13257,-2.864 0.009,-0.1443 0.0173,-0.2818 0.0266,-0.406 0.009,-0.1243 0.0196,-0.235 0.0307,-0.3318 0.0111,-0.097 0.0231,-0.1825 0.0754,-0.5465 0.0522,-0.364 0.12288,-0.8118 0.21962,-1.3447 0.0967,-0.533 0.20551,-1.1519 0.33994,-1.8545 0.13444,-0.7027 0.28964,-1.5033 0.3324,-1.8057 0.0427,-0.3024 0.0796,-0.5748 0.11218,-0.8323 0.0326,-0.2574 0.0609,-0.5001 0.085,-0.7281 0.024,-0.2279 0.0434,-0.4326 0.0563,-0.5706 0.0129,-0.138 0.0261,-0.3077 0.0397,-0.5041 0.0136,-0.1964 0.0274,-0.4206 0.0417,-0.6729 0.0143,-0.2522 0.0287,-0.5609 0.0563,-1.9253 0.0275,-1.3642 0.0521,-2.5311 0.0759,-3.5031 0.0238,-0.972 0.0468,-1.7474 0.0766,-2.3203 0.0298,-0.5732 0.0585,-0.9589 0.0749,-1.2463 0.0163,-0.2873 0.0349,-0.5389 0.0544,-0.7568 0.0195,-0.2179 0.0394,-0.4015 0.0551,-0.5491 0.0158,-0.1476 0.0271,-0.2353 0.099,-0.7922 0.0718,-0.5569 0.12116,-1.1863 0.15473,-1.8794 0.0335,-0.6931 0.0639,-1.4496 0.0911,-2.2694 0.0272,-0.8197 0.0513,-1.7014 0.055,-1.8843 0.004,-0.1829 0.004,-0.3743 -5.6e-4,-0.5709 -0.005,-0.1967 -0.0143,-0.3988 -0.0251,-0.6063 -0.0108,-0.2077 -0.0242,-0.4212 -0.0652,-0.8711 -0.041,-0.45 -0.10488,-0.9424 -0.18341,-1.4717 -0.0786,-0.5293 -0.18443,-1.0947 -0.30728,-1.6988 -0.12283,-0.6041 -0.26845,-1.2392 -0.30685,-1.418 -0.0384,-0.1789 -0.0837,-0.378 -0.13712,-0.5949 -0.0534,-0.2168 -0.11278,-0.452 -0.17816,-0.7059 -0.0654,-0.2539 -0.14404,-0.5589 -0.4621,-1.6072 -0.31805,-1.0483 -0.57986,-1.912 -0.78347,-2.5953 -0.20365,-0.6835 -0.34865,-1.1841 -0.42951,-1.49 -0.0809,-0.3061 -0.10382,-0.4527 -0.18364,-0.8191 -0.0799,-0.3663 -0.15846,-0.75 -0.2332,-1.1602 -0.0747,-0.4101 -0.15838,-0.8456 -0.2427,-1.3069 -0.0844,-0.4613 -0.16822,-0.9489 -0.1764,-0.9994 -0.008,-0.05 -0.0308,-0.1379 -0.0682,-0.2677 -0.0375,-0.1298 -0.0901,-0.305 -0.16095,-0.5261 -0.0709,-0.221 -0.15686,-0.4848 -0.19178,-0.5954 -0.0349,-0.1106 -0.0947,-0.2425 -0.17474,-0.3868 -0.08,-0.1444 -0.1804,-0.3039 -0.30203,-0.4799 -0.12164,-0.1759 -0.2609,-0.3546 -0.29325,-0.474 -0.0323,-0.1194 -0.0459,-0.2415 -0.0364,-0.3581 0.009,-0.1167 0.0575,-0.2197 0.1035,-0.2912 0.0461,-0.072 0.0461,-0.072 0.0154,-0.024 0,0 -0.0614,0.095 -0.11084,0.2002 -0.0494,0.1048 -0.0905,0.2229 -0.11261,0.3585 -0.0221,0.1356 -0.0201,0.3053 0.0532,0.5271 0.0733,0.2218 0.13024,0.4094 0.17123,0.5698 0.041,0.1604 0.0658,0.292 0.0754,0.3904 0.01,0.098 0.009,0.188 0.0227,0.4534 0.0135,0.2655 0.0234,0.4791 0.0326,0.6418 0.009,0.1628 0.0142,0.2743 0.0146,0.3239 3.9e-4,0.05 -0.002,0.055 -0.014,0.5479 -0.0117,0.4928 -0.0177,0.9623 -0.0136,1.408 0.004,0.4455 0.0231,0.8667 0.0409,1.2655 0.0179,0.3988 0.0412,0.7557 0.0611,1.0018 0.02,0.2461 0.0775,0.6695 0.17103,1.2671 0.0936,0.5976 0.23169,1.3733 0.41097,2.3298 0.1793,0.9567 0.39576,2.0859 0.43388,2.3357 0.0381,0.2498 0.0756,0.4955 0.10888,0.7206 0.0332,0.2251 0.0621,0.4297 0.0892,0.6127 0.0271,0.183 0.0507,0.3498 0.1277,0.9631 0.077,0.6133 0.13695,1.1773 0.18266,1.6941 0.0457,0.5169 0.0771,0.9861 0.0902,1.4065 0.0131,0.4203 0.007,0.8071 0.006,0.9917 -0.002,0.1845 -0.008,0.3609 -0.0172,0.5291 -0.01,0.1682 -0.0188,0.3281 -0.0301,0.4795 -0.0113,0.1515 -0.0254,0.301 -0.10633,1.1491 -0.0809,0.8482 -0.16034,1.6292 -0.23828,2.3435 -0.078,0.7145 -0.15436,1.362 -0.20416,1.9444 -0.0498,0.5822 -0.0968,1.1136 -0.10553,1.2854 -0.009,0.1718 -0.0135,0.3586 -0.0146,0.573 -10e-4,0.2144 -0.004,0.4582 -0.009,0.7316 -0.004,0.2734 -0.008,0.5712 -0.005,1.0595 0.003,0.4883 0.0273,1.1637 0.0655,2.0241 0.0382,0.8602 0.0883,1.9085 0.16449,3.1464 0.0762,1.2381 0.17352,2.6591 0.18535,2.9092 0.0119,0.2503 0.0214,0.4843 0.0285,0.6878 0.007,0.2033 0.0118,0.3756 0.0143,0.5151 0.002,0.1397 0.002,0.2588 0.002,0.4626 2.7e-4,0.204 -0.002,0.4212 -0.007,0.6558 -0.005,0.2348 -0.0124,0.4868 -0.0227,0.7559 -0.0102,0.2691 -0.0199,0.5261 -0.077,1.3001 -0.0571,0.7741 -0.10416,1.4705 -0.13465,2.0837 -0.0305,0.6132 -0.0497,1.1431 -0.0567,1.5913 -0.007,0.4481 0.003,0.8082 0.007,0.9187 0.004,0.1103 0.0112,0.2313 0.0215,0.3622 0.0104,0.1308 0.0238,0.2716 0.0405,0.4229 0.0167,0.1513 0.0395,0.3251 0.35248,2.0784 0.31299,1.7534 0.33222,1.8459 0.35059,1.9469 0.0183,0.1009 0.0342,0.2087 0.0476,0.3236 0.0134,0.1148 0.0241,0.2363 0.0394,0.3 0.008,0.1286 0.15555,0.079 0.1485,0.144 z"
           id="path401" />
      </g>
      <g
         style="fill:#000000;fill-opacity:1;stroke-linejoin:miter"
         id="g407"
         transform="rotate(90,259.41968,748.93978)">
        <path
           d="m 435.0554,1197.5269 c 0.35283,0.1547 1.06777,0.4775 1.7958,0.9978 0.72802,0.5203 1.48895,1.247 2.28854,2.1945 0.79959,0.9477 1.63998,2.1204 2.10786,2.8528 0.46785,0.7324 0.55355,0.9 0.62636,1.064 0.0728,0.1638 0.13297,0.3236 0.18114,0.4798 0.0482,0.1563 0.0849,0.3086 0.1896,1.0751 0.10473,0.7666 0.2741,2.0504 0.41564,3.0954 0.14156,1.0449 0.24616,1.8517 0.31476,2.4145 0.0686,0.5629 0.0992,0.8634 0.1361,1.276 0.0369,0.4125 0.0765,1.0718 0.0894,1.8392 0.0129,0.7675 0.004,1.6409 -0.034,2.6183 -0.0385,0.9773 -0.10316,2.0575 -0.15481,2.7464 -0.0516,0.6887 -0.052,0.9668 -0.073,1.2901 -0.0209,0.3234 -0.0442,0.6923 -0.0735,1.1056 -0.0294,0.4132 -0.0649,0.8705 -0.17953,1.8738 -0.11469,1.0033 -0.29025,2.4582 -0.4223,3.7115 -0.13208,1.2533 -0.22849,2.3053 -0.28937,3.1595 -0.0609,0.8541 -0.0894,1.5177 -0.0921,1.8531 -0.003,0.3356 0.005,0.6554 0.0422,1.1206 0.0367,0.4654 0.10141,1.1038 0.19544,1.9224 0.094,0.8185 0.21127,1.8196 0.28747,2.4267 0.0762,0.6073 0.0863,0.7073 0.0949,0.8147 0.009,0.1076 0.0144,0.2226 0.0172,0.345 0.003,0.1223 0.002,0.2518 -0.001,0.4016 -0.004,0.1499 -0.0106,0.302 -0.0209,0.4413 -0.0103,0.1393 -0.0236,0.2649 -0.0397,0.3771 -0.016,0.1122 -0.0342,0.2099 -0.159,0.5547 -0.12476,0.3447 -0.37912,1.0336 -0.58258,1.7058 -0.20349,0.672 -0.36499,1.322 -0.479,1.9504 -0.11399,0.6286 -0.18036,1.2337 -0.21192,1.6665 -0.0316,0.4328 -0.0489,0.7074 -0.0415,0.9436 0.007,0.2363 0.0378,0.4331 0.0741,0.5935 0.0362,0.1603 0.0904,0.2887 0.1449,0.3687 0.0545,0.08 0.0545,0.08 0.0182,0.027 0,0 -0.0727,-0.1067 -0.11759,-0.2458 -0.0449,-0.1392 -0.0423,-0.3117 0.002,-0.5097 0.044,-0.1981 0.1204,-0.4217 0.22775,-0.6794 0.10737,-0.2576 0.30417,-0.8013 0.52775,-1.3496 0.22357,-0.5482 0.47259,-1.1131 0.75723,-1.6931 0.28464,-0.58 0.60034,-1.178 0.95508,-1.8064 0.35474,-0.6285 0.43908,-0.8509 0.48636,-1 0.0473,-0.1493 0.0901,-0.3068 0.1289,-0.4736 0.0388,-0.1667 0.074,-0.3426 0.10571,-0.5267 0.0317,-0.1841 0.0558,-0.3417 0.0756,-0.4967 0.0199,-0.155 0.0354,-0.3064 0.0463,-0.4542 0.011,-0.1477 0.0174,-0.292 0.0173,-0.4334 -1e-4,-0.1412 -0.0145,-1.27 -0.0249,-2.209 -0.0104,-0.9388 -0.0169,-1.6892 -0.0155,-2.2477 0.001,-0.5588 0.006,-0.9169 0.0197,-1.0715 0.0135,-0.1545 0.0592,-0.628 0.15193,-1.2871 0.0928,-0.659 0.2331,-1.5328 0.42607,-2.6142 0.19296,-1.0815 0.43576,-2.3685 0.72201,-3.8708 0.28626,-1.5022 0.36615,-2.0465 0.4307,-2.4995 0.0645,-0.4531 0.12032,-0.8659 0.16577,-1.2392 0.0455,-0.3733 0.0795,-0.708 0.10625,-1.0147 0.0267,-0.3067 0.0465,-1.4967 0.0369,-2.5937 -0.01,-1.0969 -0.0416,-2.0983 -0.1027,-3.0051 -0.061,-0.9068 -0.14407,-1.7215 -0.25408,-2.4236 -0.11002,-0.7021 -0.1312,-0.8758 -0.21192,-1.3206 -0.0807,-0.4447 -0.2207,-1.1013 -0.41412,-1.9852 -0.19343,-0.8839 -0.44495,-1.9968 -0.76151,-3.3438 -0.31656,-1.3469 -0.40062,-1.6357 -0.48959,-1.8711 -0.089,-0.2353 -0.19315,-0.4665 -0.31189,-0.6934 -0.11871,-0.2268 -0.25159,-0.4494 -0.41431,-0.688 -0.16273,-0.2388 -1.23327,-1.5056 -2.27123,-2.5476 -1.03794,-1.0419 -2.04224,-1.8396 -3.0032,-2.3916 -0.96098,-0.5522 -1.87388,-0.8423 -2.32096,-0.8362 -0.82908,-0.025 -0.45856,0.1466 -0.84054,0.1155 z"
           id="path405" />
      </g>
    </g>
  </g>
</svg>
