<?xml version="1.0" encoding="UTF-8" standalone="no"?>
<svg
   version="1.1"
   width="135.38521"
   height="135.38521"
   viewBox="0 0 135.38521 135.38521"
   id="svg1214"
   xmlns="http://www.w3.org/2000/svg"
   xmlns:svg="http://www.w3.org/2000/svg">
  <defs
     id="defs1218" />
  <g
     id="g7390"
     transform="translate(-859.81427,-708.71716)">
    <rect
       style="display:inline;opacity:0.5;fill:none;fill-opacity:1;stroke:none;stroke-width:2.66644;stroke-dasharray:none;stroke-opacity:1"
       id="rect5239"
       width="135.38521"
       height="135.38521"
       x="859.81427"
       y="708.71716" />
    <g
       id="g4432"
       transform="translate(15.214834,3.5559053)">
      <g
         style="fill:#000000;fill-opacity:1;stroke-linejoin:miter"
         id="g819"
         transform="rotate(90,259.41968,748.93978)">
        <path
           d="m 257.4167,154.04826 c -0.2068,-0.40583 -0.6171,-1.47712 -0.89845,-3.11883 -0.28131,-1.64171 -0.43985,-3.87688 -0.47865,-6.71437 -0.0387,-2.8375 0.0497,-6.28012 0.17744,-8.95743 0.12776,-2.67729 0.28311,-4.08551 0.5679,-5.40451 0.28479,-1.31899 0.69276,-2.55129 1.2136,-3.70564 0.52086,-1.15434 1.16276,-2.23333 1.94018,-3.44767 0.77748,-1.21434 1.63416,-2.44613 2.75501,-3.71551 1.12081,-1.26938 2.50811,-2.57137 4.16052,-3.90367 1.65237,-1.33231 3.57068,-2.6908 5.07861,-3.66117 1.50797,-0.97036 2.3833,-1.50412 3.17166,-1.96815 0.78836,-0.46404 1.48651,-0.86292 2.09354,-1.19582 0.60699,-0.33289 1.12262,-0.59604 1.93079,-0.93437 0.80815,-0.33833 1.98403,-0.7841 3.09198,-1.19314 1.10797,-0.40903 2.14822,-0.78577 3.12332,-1.13045 0.97509,-0.34469 1.88685,-0.662 2.34768,-0.81256 0.46082,-0.15055 0.4925,-0.1744 0.5022,-0.19736 0.01,-0.023 -0.003,-0.0451 -0.0368,-0.0663 -0.0342,-0.0212 -0.0904,-0.0416 -0.14346,-0.0564 -0.0531,-0.0148 -0.0531,-0.0148 -0.0177,-0.005 0,0 0.0708,0.0198 0.11962,0.0404 0.0489,0.0206 0.0757,0.0421 0.0807,0.0645 0.005,0.0224 -0.0121,0.0456 -0.0511,0.0698 -0.039,0.0241 -0.96048,0.035 -1.95952,0.091 -0.99906,0.056 -2.06712,0.18666 -3.2035,0.37979 -1.13638,0.19313 -2.34158,0.44146 -3.6199,0.75504 -1.27832,0.31358 -1.8497,0.50993 -2.46457,0.75407 -0.61483,0.24414 -1.31888,0.54128 -2.1099,0.90034 -0.79101,0.35906 -1.66903,0.78152 -2.65081,1.26634 -0.98179,0.48483 -3.26042,1.73129 -5.29312,3.01971 -2.03275,1.28842 -3.81605,2.60999 -5.3445,3.97567 -1.5284,1.36568 -2.8048,2.77505 -3.78014,4.18526 -0.97531,1.41023 -1.73665,2.61995 -2.40071,3.99979 -0.66406,1.37985 -1.16702,2.83224 -1.50989,4.35018 -0.34286,1.51792 -0.52258,3.09762 -0.55183,4.71917 -0.0292,1.62155 0.10441,5.52277 0.3724,8.827 0.26799,3.30423 0.67702,6 1.22284,8.08313 0.54584,2.08315 1.22893,3.54352 1.67896,4.01516 0.78814,0.79403 0.54742,0.36948 0.88557,0.69185 z"
           id="path817" />
      </g>
      <g
         style="fill:#000000;fill-opacity:1;stroke-linejoin:miter"
         id="g823"
         transform="rotate(90,259.41968,748.93978)">
        <path
           d="m 281.00192,86.75993 c -0.28079,0.01344 -1.30442,-0.19778 -3.08038,-0.866314 -1.77597,-0.668541 -4.3194,-1.773506 -7.63626,-3.312012 -3.31684,-1.538514 -7.41198,-3.502314 -10.35474,-4.993074 -2.94278,-1.49077 -4.46444,-2.44278 -6.27615,-3.65646 -1.81169,-1.213694 -3.90441,-2.69516 -6.2977,-4.4119 -2.39328,-1.71673 -5.11568,-3.63016 -7.34982,-5.30163 -2.23415,-1.67148 -3.81644,-3.115448 -5.3796,-4.754993 -1.56315,-1.639542 -3.10388,-3.480374 -4.62098,-5.52491 -1.51709,-2.044533 -3.02405,-4.285707 -3.93195,-5.803025 -0.90788,-1.517314 -1.21584,-2.191558 -1.45621,-2.767719 -0.24037,-0.57616 -0.40144,-1.055088 -0.49887,-1.426503 -0.0974,-0.37141 -0.12848,-0.6268 -0.12637,-0.682525 0.002,-0.05573 0.18701,-0.20095 0.49991,-0.338249 0.31291,-0.137302 0.75454,-0.248786 1.31825,-0.326591 0.56371,-0.07781 1.24614,-0.125428 1.80504,-0.07049 0.5589,0.05494 0.5589,0.05494 0.18806,0.0034 0,0 -0.73637,-0.147934 -1.38194,-0.294713 -0.64557,-0.146778 -1.21567,-0.210979 -1.71582,-0.190584 -0.50015,0.02039 -0.93515,0.135344 -1.3266,0.407614 -0.39143,0.272266 -0.53686,0.766466 -0.55174,1.207186 -0.0149,0.440725 0.04,0.956884 0.1624,1.558172 0.12235,0.601284 0.30443,1.294008 0.57101,2.112991 0.26657,0.818981 1.52167,3.417443 2.8599,5.806931 1.33824,2.389492 2.76146,4.57896 4.26352,6.570541 1.50204,1.991577 3.07867,3.7878 4.7478,5.387335 1.66911,1.59954 4.5457,3.85342 7.14615,5.78868 2.60046,1.93527 4.98359,3.537585 7.10034,4.876506 2.11676,1.338924 3.966,2.421534 5.57796,3.259084 1.61195,0.837565 6.41627,2.79118 10.43537,4.28737 4.0191,1.496194 7.2661,2.549234 9.7403,3.154306 2.47424,0.605074 4.16742,0.770054 4.7514,0.661414 0.87235,-0.22964 0.5294,-0.23882 0.81772,-0.35982 z"
           id="path821" />
      </g>
      <g
         style="fill:#000000;fill-opacity:1;stroke-linejoin:miter"
         id="g827"
         transform="rotate(90,259.41968,748.93978)">
        <path
           d="m 282.8982,72.80972 c -0.94758,-0.24271 -2.70957,-0.433545 -4.29383,-0.67549 -1.58423,-0.24194 -2.99313,-0.56534 -4.22772,-0.97598 -1.23455,-0.41065 -2.29709,-0.90651 -2.92722,-1.218225 -0.63013,-0.311715 -0.55395,-0.309055 -0.97555,-0.74015 -0.42158,-0.431085 -1.11325,-1.195245 -2.04486,-2.271165 -0.93162,-1.07592 -2.09822,-2.45912 -2.90879,-3.49121 -0.81057,-1.032085 -1.16143,-1.624104 -1.46373,-2.1746 -0.30232,-0.550494 -0.54625,-1.06451 -0.75142,-1.53233 -0.20518,-0.467817 -0.36968,-0.892576 -0.52331,-1.463797 -0.15363,-0.57122 -0.2236,-1.346866 -0.12955,-2.251541 0.0941,-0.904674 0.36264,-1.94289 0.82834,-3.105587 0.4657,-1.162695 1.12684,-2.445675 1.61404,-3.236919 0.4872,-0.791246 0.75333,-1.112679 1.0345,-1.426251 0.28118,-0.313572 0.57604,-0.620792 0.88787,-0.918388 0.31183,-0.2976 0.63498,-0.592437 0.59247,-1.216927 -0.0425,-0.624492 -0.0425,-0.624492 -0.22831,-0.48378 0,0 -1.01385,-0.545417 -1.40646,-0.25521 -0.39257,0.290206 -0.77367,0.590877 -1.13919,0.906578 -0.36551,0.315696 -0.71643,0.644922 -1.09021,1.034882 -0.37377,0.38996 -1.36719,1.78248 -2.1525,3.12349 -0.78534,1.341006 -1.36557,2.64179 -1.73107,3.911437 -0.36555,1.269645 -0.50196,2.511763 -0.39927,3.678668 0.10269,1.166905 0.26117,1.807625 0.47101,2.427372 0.20984,0.619753 0.51036,1.236653 0.86893,1.862797 0.35855,0.626146 0.77103,1.265456 1.27939,1.962391 0.50836,0.696935 1.98714,2.232375 3.18826,3.447029 1.20111,1.214656 2.15933,2.14534 2.88468,2.800726 0.72534,0.65539 1.25384,1.06548 1.56765,1.19359 0.31378,0.12811 1.40152,0.62254 2.73871,1.022354 1.33716,0.399811 2.8024,0.647141 4.39534,0.737016 1.59297,0.08988 3.3124,0.01358 4.20988,-0.23549 1.83869,-0.29428 0.89075,-0.390075 1.83192,-0.43529 z"
           id="path825" />
      </g>
      <g
         style="fill:#000000;fill-opacity:1;stroke-linejoin:miter"
         id="g831"
         transform="rotate(90,259.41968,748.93978)">
        <path
           d="m 285.82855,71.068596 c -0.23739,-0.04098 -0.63545,-0.06982 -0.92529,-0.124696 -0.28989,-0.05488 -0.46121,-0.12827 -0.51106,-0.18493 -0.0498,-0.05665 -0.0364,-0.08073 -0.0379,-0.252836 -0.001,-0.172114 -0.009,-0.361908 -0.005,-0.580914 0.004,-0.21902 0.0126,-0.46589 0.0271,-0.74069 0.0145,-0.27479 0.0387,-0.57734 0.14374,-1.459295 0.10508,-0.88195 0.2399,-2.188235 0.33826,-3.252535 0.0984,-1.064302 0.16712,-1.88848 0.19448,-2.48142 0.0274,-0.592938 0.0221,-0.989544 -0.008,-1.452034 -0.0297,-0.462486 -0.0906,-1.19394 -0.18424,-1.867006 -0.0936,-0.67306 -0.22205,-1.290023 -0.3939,-1.852793 -0.17183,-0.562771 -0.3891,-1.074475 -0.70586,-1.705304 -0.31677,-0.630823 -0.76566,-1.491451 -1.30899,-2.294059 -0.54337,-0.802614 -1.10053,-1.592844 -1.6803,-2.365326 -0.57975,-0.772484 -1.18385,-1.525635 -2.1134,-2.509578 -0.9296,-0.983945 -2.03247,-2.075944 -3.03803,-3.080056 -1.00552,-1.004114 -1.90649,-1.927544 -2.71832,-2.759831 -0.81186,-0.83229 -1.53577,-1.576191 -1.91824,-1.964889 -0.38248,-0.388704 -0.48841,-0.452832 -0.60944,-0.504594 -0.12102,-0.05176 -0.25732,-0.09235 -0.4061,-0.132777 -0.14874,-0.04042 -0.31039,-0.08829 -0.44104,-0.121193 -0.13064,-0.0329 -0.13064,-0.0329 -0.0436,-0.01097 0,0 0.1742,0.04387 0.32865,0.09611 0.15448,0.05224 0.28085,0.130226 0.38507,0.209705 0.10419,0.07948 0.18588,0.159508 0.24165,0.234045 0.0558,0.07453 0.48412,0.937632 1.0374,1.88421 0.5533,0.94658 1.22547,1.972054 2.02005,3.070104 0.79459,1.098053 1.70125,2.275576 2.70648,3.513246 1.00522,1.237665 1.48539,1.95574 1.98387,2.729788 0.49843,0.774044 0.97228,1.561607 1.42943,2.357719 0.45713,0.796116 0.87531,1.614293 1.3606,2.407219 0.48529,0.792924 0.68722,1.111527 0.84961,1.449479 0.16238,0.337955 0.31816,0.763685 0.46512,1.273353 0.14694,0.509662 0.27794,1.101912 0.39218,1.789368 0.11423,0.68745 0.14789,0.82455 0.17716,1.179222 0.0293,0.354672 0.0568,0.990272 0.0906,1.880527 0.0338,0.890255 0.0718,2.031015 0.12085,3.423685 0.0491,1.39267 0.081,1.748705 0.11455,2.05948 0.0336,0.31078 0.0735,0.59487 0.1205,0.85239 0.0471,0.257505 0.10018,0.48869 0.15194,0.678716 0.0518,0.190024 0.0946,0.416554 0.28836,0.655304 0.1938,0.23875 0.46982,0.34585 0.78644,0.358925 0.31666,0.01308 0.68494,-0.0472 0.88556,-0.138595 0.43024,-0.12673 0.17914,-0.23094 0.40875,-0.266274 z"
           id="path829" />
      </g>
      <g
         style="fill:#000000;fill-opacity:1;stroke-linejoin:miter"
         id="g835"
         transform="rotate(90,259.41968,748.93978)">
        <path
           d="m 272.59113,120.89807 c 0.2897,-0.31415 0.71405,-0.96641 1.77511,-2.15058 1.06106,-1.18417 2.04506,-2.34016 3.18964,-3.48275 1.14459,-1.14259 2.11502,-2.09081 3.35357,-2.94106 1.23855,-0.85023 2.35761,-1.3094 3.88559,-1.50788 1.52799,-0.19849 3.19071,-0.40962 4.73233,-0.0828 1.54163,0.3268 2.34485,0.52978 3.3104,0.97669 0.96551,0.44691 1.76233,0.84564 2.13373,1.21613 0.37136,0.3705 0.50824,0.62174 0.86938,1.16399 0.36118,0.54225 0.62195,1.47694 0.78156,1.90896 0.15963,0.43201 0.36331,1.90289 0.49652,2.77266 0.13318,0.86976 0.58526,2.40076 0.70864,3.19559 0.1234,0.79483 0.341,2.12776 0.43784,2.67942 0.0968,0.55166 0.0566,1.70846 0.10858,2.36838 0.052,0.65991 -0.0794,1.1274 -0.61905,1.76804 -0.53964,0.64066 -1.73739,1.65765 -3.51709,2.72049 -1.77968,1.06285 -3.75762,1.86917 -5.33941,2.16681 -1.58179,0.29765 -3.48621,0.68425 -5.68637,0.57702 -2.20017,-0.10721 -4.39942,-0.2964 -6.3526,-0.85159 -1.95322,-0.55519 -4.09925,-1.58128 -6.2647,-2.64832 -2.1655,-1.06705 -4.21223,-1.87533 -5.0024,-2.21588 -0.79012,-0.34054 -1.2923,-0.55111 -1.26955,-0.873 0.0227,-0.32188 0.0227,-0.32188 -0.0521,-0.0816 0,0 -0.32858,0.5577 0.26938,1.11314 0.59799,0.55543 1.38196,1.08274 3.16318,2.29426 1.78122,1.21151 4.06631,2.6469 6.28223,3.77655 2.21591,1.12966 4.26138,1.8568 6.89065,2.23447 2.62924,0.37769 4.681,0.59685 6.57971,0.46299 1.89871,-0.13384 4.14121,-0.69792 6.46009,-1.63706 2.3189,-0.93917 4.37598,-2.23154 5.76641,-3.48845 1.39042,-1.25691 2.19922,-2.42044 2.48993,-3.84349 0.29068,-1.42304 0.14438,-2.33908 0.0874,-3.42435 -0.057,-1.08528 -0.14341,-1.61462 -0.33674,-2.79858 -0.19333,-1.18397 -0.35791,-2.11387 -0.66198,-3.18282 -0.30408,-1.06894 -0.43735,-1.8084 -0.72205,-2.99967 -0.2847,-1.19128 -0.50732,-1.73304 -0.9859,-2.69212 -0.47858,-0.95909 -0.99713,-1.8017 -1.70172,-2.51579 -0.70462,-0.71409 -1.33418,-1.3028 -2.34968,-1.77321 -1.01552,-0.47042 -2.63784,-1.02521 -4.25747,-1.33254 -1.61963,-0.30733 -3.41893,-0.39116 -5.16611,-0.046 -1.74712,0.34518 -3.59817,0.7789 -5.17626,1.75151 -1.5781,0.9726 -2.77016,2.18135 -3.67194,3.44204 -0.9018,1.26068 -2.00449,2.44278 -2.84546,3.84701 -0.841,1.40424 -1.62946,2.82434 -1.69176,3.26492 -0.2301,0.81009 0.0662,0.49894 -0.10157,0.86845 z"
           id="path833" />
      </g>
      <g
         style="fill:#000000;fill-opacity:1;stroke-linejoin:miter"
         id="g839"
         transform="rotate(90,259.41968,748.93978)">
        <path
           d="m 308.57895,120.11105 c 0.66025,-0.68633 1.55798,-2.38226 2.21677,-4.34661 0.65875,-1.96436 1.0971,-4.17087 1.32354,-6.60486 0.22647,-2.43399 0.24304,-5.08921 0.0831,-7.4737 -0.15994,-2.38449 -0.36709,-4.239576 -0.59366,-5.98717 -0.2266,-1.7476 -0.46338,-3.38964 -0.727,-4.923655 -0.26363,-1.534005 -0.54567,-2.961965 -0.8619,-4.195815 -0.31622,-1.23385 -0.57885,-2.09173 -0.79907,-2.77559 -0.22021,-0.68387 -0.39293,-1.20022 -0.5278,-1.57139 -0.13489,-0.37117 -0.30948,-0.73822 -0.33685,-0.81376 -0.0274,-0.07554 -0.2359,-0.51324 -0.49238,-0.943494 -0.25646,-0.430246 -0.5565,-0.860976 -0.8997,-1.298186 -0.34324,-0.43722 -0.7299,-0.88435 -0.83302,-0.987825 -0.10315,-0.103469 -0.1582,-0.21595 -0.17532,-0.255795 -0.0171,-0.03985 2.4e-4,0.02904 10e-4,0.302304 9.8e-4,0.273262 -0.19268,0.826126 0.0618,1.065886 0.25448,0.239755 1.96562,-0.227194 3.64782,-0.72051 1.68222,-0.49332 3.3355,-1.013024 4.9598,-1.55915 1.6243,-0.54614 3.21962,-1.11874 4.8196,-1.792924 1.59997,-0.674186 3.157,-1.452141 4.7858,-2.331366 1.6288,-0.87923 3.3303,-1.859736 5.10537,-2.94161 1.77505,-1.08187 3.62417,-2.265156 3.81048,-2.71453 0.18631,-0.44936 0.62021,-0.07626 1.23735,0.749896 0.61714,0.826154 1.33376,2.095694 2.10704,3.786044 0.77329,1.69034 1.58988,3.78955 2.22654,6.05134 0.63665,2.2618 1.05444,4.52819 1.35934,6.629794 0.3049,2.101601 0.49765,4.036736 0.57978,5.802742 0.0822,1.766004 0.0659,3.360764 0.0393,5.312859 -0.0267,1.952105 -0.0844,4.160665 -0.24407,6.333855 -0.1597,2.17319 -0.42665,4.31238 -0.79832,6.4202 -0.3717,2.10783 -0.84952,4.18609 -1.68835,6.89611 -0.83887,2.71 -1.87369,5.73436 -2.74273,8.17184 -0.86903,2.43749 -1.5624,4.2959 -2.10597,5.57503 -0.54358,1.27911 -0.98807,1.97366 -1.32233,2.13956 -0.33422,0.16589 -0.33422,0.16589 -0.1106,0.0563 0,0 0.4497,-0.21638 1.193,-0.94702 0.7433,-0.73063 1.69184,-2.06111 2.7952,-3.99603 1.10336,-1.93491 2.35675,-4.46956 3.76932,-7.61169 1.41253,-3.14213 2.16964,-5.28163 2.79088,-7.44309 0.6213,-2.16145 1.12046,-4.37214 1.49,-6.63127 0.36957,-2.25913 0.61115,-4.56437 0.72537,-6.87578 0.11423,-2.3114 0.25153,-3.87966 0.24658,-5.70459 -0.005,-1.82493 -0.13305,-3.79238 -0.37698,-5.905165 -0.24397,-2.112775 -0.60275,-4.372841 -1.0899,-6.839545 -0.48719,-2.46671 -1.39621,-5.03791 -2.25565,-7.13818 -0.85944,-2.100255 -1.70929,-3.84165 -2.57272,-5.241796 -0.86344,-1.400144 -1.78595,-2.478464 -3.53784,-3.214804 -1.75186,-0.73635 -4.07923,0.718245 -5.85516,1.83722 -1.77595,1.11898 -3.47126,2.13405 -5.08515,3.04513 -1.61392,0.9111 -3.14569,1.71815 -4.568,2.40973 -1.4223,0.69159 -2.88455,1.23756 -4.43841,1.78336 -1.55386,0.545805 -3.13751,1.06659 -4.75101,1.5623 -1.61349,0.49571 -3.2568,0.96633 -4.95587,1.418755 -1.69906,0.452425 -2.95294,1.467109 -3.08774,2.081715 -0.13476,0.614604 -0.0812,1.01832 0.0124,1.32275 0.0936,0.30443 0.20808,0.57033 0.43135,0.96676 0.2233,0.39644 0.68125,0.90542 0.97491,1.25511 0.29367,0.3497 0.53344,0.66638 0.71927,0.94535 0.18582,0.27897 0.31827,0.51475 0.43887,0.78118 0.12058,0.26644 0.23417,0.45098 0.2549,0.50898 0.0207,0.058 0.15395,0.40196 0.3498,0.93649 0.19587,0.53452 0.4505,1.24996 0.7531,2.097775 0.30254,0.847815 0.6243,2.077935 0.95678,3.473085 0.33252,1.39514 0.65686,2.904814 0.98575,4.525984 0.32889,1.621166 0.65939,3.354216 0.98404,5.17955 0.32463,1.825336 0.64715,4.484256 0.79193,6.936306 0.14477,2.45205 0.10724,4.69997 -0.10443,6.75333 -0.21167,2.05336 -0.58737,3.92746 -0.69777,4.86952 -0.51802,1.73848 0.0153,1.0064 -0.39235,1.80281 z"
           id="path837" />
      </g>
      <g
         style="fill:#000000;fill-opacity:1;stroke-linejoin:miter"
         id="g843"
         transform="rotate(90,259.41968,748.93978)">
        <path
           d="m 332.9792,132.61243 c -0.5397,-0.18636 -1.6484,-0.44139 -2.80278,-0.78696 -1.15439,-0.34558 -2.36145,-0.80025 -3.629,-1.36473 -1.26752,-0.56448 -2.59466,-1.25177 -3.35362,-1.6619 -0.75896,-0.41012 -0.90306,-0.51503 -1.2673,-0.80965 -0.36424,-0.29463 -0.89842,-0.75547 -1.59227,-1.3722 -0.69388,-0.61674 -1.54556,-1.38615 -2.19879,-1.88514 -0.65326,-0.49899 -0.87264,-0.64516 -1.08844,-0.7788 -0.2158,-0.13364 -0.42624,-0.25758 -0.63062,-0.37322 -0.20434,-0.11564 -0.40318,-0.22306 -0.44971,-0.25938 -0.0465,-0.0363 -0.47232,-0.26994 -1.07894,-0.50755 -0.60663,-0.23762 -1.50653,-0.55176 -2.7164,-0.95433 -1.20987,-0.40256 -2.7396,-0.87789 -4.25135,-1.37461 -1.51178,-0.49671 -2.84543,-0.97127 -2.83026,-0.74342 0.0152,0.22784 -0.0652,0.30151 0.17558,0.19166 0.2407,-0.10983 0.70778,-0.25947 1.1518,-0.45976 0.44405,-0.20029 0.44405,-0.20029 0.13414,-0.15887 0,0 -0.66154,-0.1935 -1.12674,-0.15994 -0.46518,0.0336 -0.79086,0.12133 -0.92578,0.5471 -0.13489,0.42577 0.15218,0.66859 1.39731,1.39893 1.24511,0.73034 2.91491,1.50891 4.26254,2.12639 1.34766,0.61749 2.39078,1.09774 3.11847,1.44893 0.72769,0.35119 1.11776,0.56052 1.15408,0.60811 0.0363,0.0476 0.35193,0.24855 0.50446,0.34672 0.15252,0.0982 0.31158,0.2108 0.47836,0.33488 0.16676,0.12409 0.34116,0.25971 0.50012,0.38411 0.15894,0.1244 1.11582,0.98941 1.98941,1.64941 0.8736,0.65999 1.59013,1.17829 2.15009,1.56456 0.55997,0.38627 0.97821,0.64921 1.25281,0.78043 0.27459,0.13123 1.76248,0.76766 3.2164,1.27069 1.45391,0.50305 2.83803,0.87242 4.15368,1.08783 1.31565,0.21539 2.55481,0.2777 3.1521,0.1612 1.14881,-0.10932 0.59912,-0.25766 1.15065,-0.25049 z"
           id="path841" />
      </g>
    </g>
  </g>
</svg>
