<?xml version="1.0" encoding="UTF-8" standalone="no"?>
<svg
   version="1.1"
   width="135.38521"
   height="135.38521"
   viewBox="0 0 135.38521 135.38521"
   id="svg1214"
   xmlns="http://www.w3.org/2000/svg"
   xmlns:svg="http://www.w3.org/2000/svg">
  <defs
     id="defs1218" />
  <g
     id="g7244"
     transform="translate(-401.7543,-1130.2528)">
    <rect
       style="display:inline;opacity:0.5;fill:none;fill-opacity:1;stroke:none;stroke-width:2.66644;stroke-dasharray:none;stroke-opacity:1"
       id="rect5437"
       width="135.38521"
       height="135.38521"
       x="401.7543"
       y="1130.2528" />
    <g
       id="g4128"
       transform="translate(691.10029,429.77799)">
      <g
         style="fill:#000000;fill-opacity:1;stroke-linejoin:miter"
         id="g355"
         transform="rotate(90,259.41968,748.93978)">
        <path
           d="m 248.68231,1277.4907 c -0.4803,-0.6421 -1.49673,-1.6102 -2.35061,-2.4426 -0.85387,-0.8325 -1.53125,-1.5433 -2.02182,-2.1316 -0.49056,-0.5881 -0.78859,-1.0373 -0.85184,-1.1819 -0.0633,-0.1445 -0.0783,-0.2276 -0.0879,-0.3076 -0.01,-0.08 -0.0134,-0.1564 -0.0131,-0.2295 3.4e-4,-0.073 0.005,-0.1431 0.0873,-0.6713 0.0825,-0.5282 0.21893,-1.4834 0.32318,-2.2645 0.10425,-0.781 0.1765,-1.3911 0.21657,-1.843 0.0401,-0.452 0.0431,-0.797 0.0596,-1.3279 0.0164,-0.531 0.0452,-1.5451 0.0467,-2.5108 0.002,-0.9657 -0.0181,-1.8836 -0.10567,-2.7494 -0.0876,-0.866 -0.21971,-1.6796 -0.42334,-2.6084 -0.20364,-0.9289 -0.49214,-1.971 -0.81567,-3.0561 -0.32354,-1.0851 -0.69136,-2.211 -1.10099,-3.3787 -0.40962,-1.1676 -0.86377,-2.3761 -1.20611,-3.18 -0.34235,-0.8038 -0.48854,-1.0686 -0.63306,-1.3366 -0.1445,-0.2681 -0.28664,-0.54 -0.42157,-0.8176 -0.13493,-0.2775 -0.26652,-0.5593 -1.01614,-1.7303 -0.74963,-1.171 -2.16594,-3.0894 -2.22437,-3.1754 -0.0584,-0.086 -0.11291,-0.1755 -0.15765,-0.2691 -0.0447,-0.093 -0.0737,-0.192 -0.093,-0.2662 -0.0192,-0.074 -0.0192,-0.074 -0.006,-0.025 0,0 0.0257,0.099 0.0534,0.1983 0.0277,0.099 0.0474,0.2028 0.0725,0.3072 0.0251,0.1044 0.0567,0.2114 0.90921,2.4253 0.8525,2.2138 0.90285,2.4503 0.99835,2.7644 0.0955,0.314 0.1942,0.6261 0.29799,0.9356 0.10379,0.3095 0.21741,0.6145 0.31767,0.8686 0.10025,0.2542 0.41324,1.506 0.71319,2.7197 0.29994,1.2137 0.56393,2.3768 0.80453,3.4856 0.2406,1.1088 0.44791,2.1661 0.62306,3.1573 0.17516,0.9912 0.24001,1.6776 0.28136,2.4533 0.0413,0.7757 0.13618,1.5995 0.21465,2.4801 0.0785,0.8807 0.14361,1.8175 0.19134,2.8266 0.0477,1.009 0.0781,1.202 0.0893,1.4262 0.0112,0.2243 0.0102,0.679 -0.006,1.3252 -0.016,0.6462 -0.0471,1.4777 -0.0908,2.4974 -0.0438,1.0195 -0.0404,1.2373 -0.025,1.382 0.0154,0.1448 0.0388,0.2885 0.0697,0.4313 0.0309,0.1428 0.0676,0.2847 0.14554,0.509 0.0779,0.2244 0.42104,0.7489 0.9502,1.3118 0.52916,0.5629 1.23053,1.1667 2.12399,1.8131 0.89345,0.6464 1.98184,1.3388 2.66879,1.5957 1.31046,0.7044 0.76922,0.1424 1.39273,0.5896 z"
           id="path353" />
      </g>
      <g
         style="fill:#000000;fill-opacity:1;stroke-linejoin:miter"
         id="g359"
         transform="rotate(90,259.41968,748.93978)">
        <path
           d="m 232.7319,1225.7404 c 0.37899,0.073 1.07091,0.054 1.68949,-0.04 0.61856,-0.094 1.16488,-0.2592 1.64007,-0.4951 0.47519,-0.236 0.87441,-0.55 1.29636,-1.0796 0.42195,-0.5296 0.91011,-1.2852 1.39723,-2.1577 0.48712,-0.8727 0.9713,-1.8625 1.46007,-2.9663 0.48877,-1.1039 0.97594,-2.3243 1.34503,-3.3111 0.36911,-0.9869 0.5928,-1.6887 0.77695,-2.3992 0.18414,-0.7103 0.3291,-1.4288 0.43486,-2.1549 0.10576,-0.726 0.17014,-1.4591 0.19989,-1.9582 0.0298,-0.4992 0.0416,-0.8212 0.0472,-1.1647 0.006,-0.3436 0.01,-0.7097 0.002,-1.0986 -0.008,-0.3891 -0.0251,-0.8012 -0.11702,-1.7437 -0.0919,-0.9425 -0.2311,-2.16 -0.36295,-3.1815 -0.13187,-1.0215 -0.25307,-1.8456 -0.32861,-2.4689 -0.0755,-0.6231 -0.10657,-1.0266 -0.12473,-1.5048 -0.0182,-0.4783 -0.0352,-1.0538 -0.0296,-1.6421 0.006,-0.5885 0.0288,-1.1903 0.0751,-1.8057 0.0463,-0.6154 0.11495,-1.2444 0.32026,-2.3689 0.20529,-1.1244 0.51431,-2.6332 0.77627,-3.885 0.26195,-1.2518 0.48763,-2.2418 0.67004,-2.9648 0.18244,-0.7231 0.31447,-1.1628 0.44309,-1.5479 0.1286,-0.3851 0.31374,-0.8784 0.63866,-1.5767 0.32492,-0.6981 0.78654,-1.5852 1.3596,-2.6698 0.57308,-1.0845 1.23723,-2.3795 1.86121,-3.398 0.62397,-1.0185 0.62397,-1.0185 0.15889,-0.3745 0,0 -1.07745,1.1826 -2.00792,2.2136 -0.93047,1.031 -1.66993,1.9431 -2.23696,2.7268 -0.56703,0.7838 -0.97671,1.4382 -1.22105,1.9377 -0.24434,0.4997 -0.41313,0.7917 -0.66325,1.39 -0.25013,0.5984 -0.55185,1.4275 -0.90805,2.5024 -0.35621,1.0748 -0.76915,2.3985 -1.23388,3.9853 -0.46472,1.5868 -0.62117,2.324 -0.74755,3.006 -0.12638,0.682 -0.22299,1.3579 -0.29342,2.0272 -0.0704,0.6693 -0.11209,1.332 -0.12782,1.9639 -0.0157,0.6318 -0.0355,0.9958 -0.0196,1.5964 0.0159,0.6006 0.0647,1.3609 0.14849,2.2977 0.0838,0.937 0.26191,2.0467 0.49041,3.3215 0.22849,1.2747 0.25886,1.5938 0.29401,1.9663 0.0352,0.3723 0.0644,0.7177 0.0887,1.0361 0.0242,0.3182 0.0373,0.6089 0.0427,0.8804 0.005,0.2713 0.0218,0.9326 -0.001,1.5637 -0.0229,0.6311 -0.0725,1.2618 -0.15996,1.8914 -0.0874,0.6296 -0.20571,1.2597 -0.35905,1.8966 -0.15336,0.6368 -0.50493,1.941 -0.85822,3.1226 -0.35327,1.1817 -0.69549,2.2519 -1.04249,3.2044 -0.347,0.9526 -0.6944,1.7893 -1.03199,2.5084 -0.33758,0.7191 -0.49206,0.9685 -0.74562,1.2182 -0.25355,0.2497 -0.60638,0.4962 -1.06465,0.7282 -0.45827,0.2321 -1.01956,0.4522 -1.32423,0.6197 -0.6641,0.2127 -0.28704,0.3077 -0.64646,0.3529 z"
           id="path357" />
      </g>
      <g
         style="fill:#000000;fill-opacity:1;stroke-linejoin:miter"
         id="g363"
         transform="rotate(90,259.41968,748.93978)">
        <path
           d="m 270.81845,1219.268 c -0.78458,-0.367 -2.30279,-0.8146 -3.68478,-1.2658 -1.38202,-0.4512 -2.6286,-0.9207 -3.73377,-1.4347 -1.10513,-0.514 -2.0717,-1.0646 -2.68887,-1.4686 -0.61716,-0.4042 -1.00977,-0.7091 -1.55423,-1.1873 -0.54443,-0.4781 -1.22965,-1.1206 -2.05103,-1.9216 -0.82135,-0.801 -1.77793,-1.7584 -2.26553,-2.2689 -0.48758,-0.5105 -0.52103,-0.6032 -0.55258,-0.7968 -0.0316,-0.1937 -0.0457,-0.4933 -0.0228,-0.8945 0.0229,-0.4014 0.10489,-0.8956 0.27794,-1.5567 0.17306,-0.6608 0.42091,-1.4376 0.65972,-2.0627 0.23884,-0.6252 0.45374,-1.0924 0.62253,-1.3833 0.16881,-0.2909 0.24698,-0.3832 1.16466,-1.3071 0.91768,-0.924 2.4384,-2.5053 3.13246,-2.9634 0.69406,-0.458 1.4664,-1.0153 2.20206,-1.5743 0.73562,-0.5591 1.4263,-1.1298 2.07141,-1.7116 0.64514,-0.5818 0.87557,-0.8906 1.48621,-1.0727 0.61066,-0.1822 1.33506,-0.3721 2.00958,-0.4998 0.6745,-0.1278 1.29928,-0.1925 1.87433,-0.2039 0.57505,-0.011 0.98282,0.012 0.39813,-0.4448 -0.58468,-0.4567 -0.60416,-0.5277 -0.59784,-0.5139 0.006,0.014 0.0157,0.098 0.0202,0.238 0.005,0.1399 0.009,0.2533 -0.0937,1.3546 -0.10311,1.1014 -0.18988,2.2818 -0.26626,3.5246 -0.0764,1.2428 -0.14237,2.5482 -0.19034,3.9172 -0.048,1.3689 -0.087,2.8252 -0.0557,3.3438 0.0314,0.5185 0.0672,0.9904 0.11003,1.4558 0.0429,0.4652 0.091,0.9238 0.14453,1.3758 0.0536,0.4521 0.11844,0.9257 0.42634,2.6491 0.30792,1.7234 0.56686,3.144 0.77502,4.2663 0.20813,1.1225 0.35351,1.9467 0.44314,2.4639 0.0896,0.5173 0.11087,0.7621 0.17591,1.1963 0.065,0.4341 0.11218,0.8993 0.14587,1.4109 0.0337,0.5116 0.0542,1.0701 0.1019,1.5198 0.0477,0.4497 0.0477,0.4497 0.0883,0.159 0,0 0.29828,-0.5538 0.42852,-1.0992 0.13025,-0.5455 0.22123,-1.0629 0.26792,-1.5523 0.0467,-0.4895 0.0592,-0.92 0.0806,-1.2739 0.0213,-0.3538 0.0208,-1.0109 -0.009,-1.9626 -0.0302,-0.9518 -0.0923,-2.2015 -0.19407,-3.7492 -0.10174,-1.5477 -0.23339,-3.3856 -0.24649,-3.7992 -0.0131,-0.4137 -0.0272,-0.8474 -0.0312,-1.2876 -0.004,-0.44 -0.005,-0.8862 0.002,-1.3387 0.007,-0.4525 0.0172,-0.831 0.16601,-2.2056 0.14881,-1.3746 0.29947,-2.6955 0.45081,-3.9506 0.15137,-1.255 0.3082,-2.4434 0.46655,-3.5656 0.15836,-1.1223 0.32196,-2.2096 0.34278,-2.5431 0.0208,-0.3335 0.0173,-0.619 -0.009,-0.9052 -0.0263,-0.286 -0.0872,-0.5851 -0.21698,-0.9145 -0.12979,-0.3296 -1.35414,-1.275 -2.20797,-1.3677 -0.85382,-0.093 -1.67792,-0.094 -2.53057,-0.018 -0.85267,0.076 -1.73317,0.2283 -2.6435,0.4486 -0.91035,0.2204 -2.17365,0.6613 -2.94382,1.3063 -0.77018,0.6452 -1.38822,1.1592 -2.03345,1.6914 -0.64526,0.5321 -1.32471,1.0746 -2.04337,1.6214 -0.71866,0.5468 -1.70559,1.2943 -3.27497,3.0625 -1.56939,1.7683 -1.81478,2.0103 -2.16211,2.5323 -0.34734,0.522 -0.62682,1.1145 -0.87445,1.8053 -0.24764,0.6909 -0.47995,1.4906 -0.71544,2.4297 -0.23548,0.939 -0.34063,1.7035 -0.3776,2.3589 -0.037,0.6553 -0.0154,1.2665 0.0863,1.8423 0.10173,0.5757 0.30008,1.1174 0.64486,1.6393 0.34481,0.5218 1.51287,1.5493 2.51538,2.4024 1.00252,0.853 1.87018,1.561 2.60971,2.1226 0.73951,0.5616 1.35318,0.9852 1.8382,1.2674 0.48499,0.2823 1.51765,0.819 2.70233,1.2848 1.18472,0.4658 2.48492,0.8386 3.89922,1.1206 1.41435,0.2819 2.94603,0.4554 3.77144,0.3693 1.65006,0.025 0.8443,-0.226 1.66891,-0.1147 z"
           id="path361" />
      </g>
      <g
         style="fill:#000000;fill-opacity:1;stroke-linejoin:miter"
         id="g367"
         transform="rotate(90,259.41968,748.93978)">
        <path
           d="m 265.16513,1269.2164 c -0.0759,-0.033 -0.33981,-0.08 -0.77328,-0.1327 -0.43348,-0.052 -1.0373,-0.098 -1.81107,-0.1316 -0.77378,-0.033 -1.71652,-0.043 -2.25613,-0.046 -0.53962,0 -0.61205,-0.013 -0.80701,-0.041 -0.19498,-0.028 -0.48966,-0.073 -0.87872,-0.1328 -0.3891,-0.059 -0.87132,-0.1358 -1.33948,-0.2459 -0.46817,-0.1101 -0.89714,-0.274 -1.26087,-0.4693 -0.36373,-0.1953 -0.66667,-0.4176 -0.91868,-0.6643 -0.25202,-0.2467 -0.45769,-0.524 -0.6115,-0.8494 -0.15382,-0.3253 -0.30414,-0.8631 -0.42923,-1.6109 -0.1251,-0.7478 -0.22239,-1.6932 -0.28113,-2.8301 -0.0587,-1.1367 -0.0841,-2.4607 -0.0929,-3.3049 -0.009,-0.8444 0.035,-1.1642 0.1664,-1.8897 0.13142,-0.7253 0.37663,-1.7849 0.6241,-3.1821 0.24746,-1.3973 0.57359,-3.1132 0.77955,-4.2561 0.20597,-1.1429 0.26729,-1.3329 0.41056,-1.5458 0.14326,-0.2129 0.40187,-0.4593 0.80552,-0.7152 0.40366,-0.2557 0.95435,-0.5036 1.4711,-0.6913 0.51676,-0.1876 1.05847,-0.3269 1.86054,-0.4839 0.80203,-0.157 1.84906,-0.333 3.13426,-0.5261 1.28523,-0.1931 2.80522,-0.4184 3.90498,-0.5617 1.09972,-0.1434 1.66252,-0.1596 2.20294,-0.1618 0.54044,0 1.05988,0.014 1.55938,0.053 0.49952,0.039 0.97947,0.1049 1.30934,0.2222 0.32989,0.1172 0.32989,0.1172 0.10998,0.039 0,0 -0.43985,-0.1564 -0.88955,-0.3662 -0.44971,-0.21 -0.9376,-0.3941 -1.46147,-0.5536 -0.52382,-0.1596 -1.0829,-0.2914 -1.69567,-0.3894 -0.61279,-0.098 -2.33108,-0.1417 -3.80453,-0.1352 -1.47345,0.01 -2.7191,0.048 -3.74146,0.1123 -1.02237,0.065 -1.8298,0.1483 -2.43497,0.2607 -0.60519,0.1123 -1.40634,0.3277 -2.12939,0.619 -0.72307,0.2914 -1.35121,0.666 -1.88095,1.1369 -0.52974,0.4709 -0.92621,1.0578 -1.14212,1.657 -0.21593,0.5991 -0.73915,2.5004 -1.15064,4.1131 -0.4115,1.6125 -0.72186,2.9282 -0.87257,3.9658 -0.15071,1.0376 -0.22548,1.8031 -0.2108,2.295 0.0147,0.492 0.119,1.9603 0.25684,3.2865 0.13784,1.3261 0.31294,2.4789 0.52429,3.4641 0.21137,0.9854 0.46444,1.8103 0.77438,2.4922 0.30994,0.6818 0.67948,1.1853 1.09107,1.5884 0.41159,0.4031 0.88087,0.7375 1.40222,0.9961 0.52134,0.2584 1.08452,0.4501 1.70028,0.5788 0.61576,0.1288 1.22806,0.1447 1.69147,0.1558 0.46338,0.011 0.83542,0.017 1.11859,0.015 0.28318,0 0.48352,-0.01 0.61194,-0.02 0.12839,-0.012 1.16406,-0.1925 2.03186,-0.3471 0.86783,-0.1544 1.56708,-0.2898 2.0987,-0.3961 0.53161,-0.1063 0.89586,-0.176 1.02011,-0.2074 0.19685,-0.023 0.14108,-0.1716 0.21368,-0.163 z"
           id="path365" />
      </g>
      <g
         style="fill:#000000;fill-opacity:1;stroke-linejoin:miter"
         id="g371"
         transform="rotate(90,259.41968,748.93978)">
        <path
           d="m 267.89862,1270.9946 c 0.47311,-0.292 1.21381,-1.025 1.84744,-1.8113 0.63364,-0.7861 1.17084,-1.613 1.60996,-2.4768 0.43912,-0.8638 0.78195,-1.7605 0.95392,-2.3684 0.17193,-0.6079 0.2283,-0.8954 0.28354,-1.2181 0.0552,-0.3228 0.1141,-0.681 0.1701,-1.0763 0.056,-0.3951 0.10932,-0.8274 0.17456,-1.4598 0.0653,-0.6325 0.13413,-1.3412 0.11618,-1.9362 -0.018,-0.595 -0.0111,-1.0704 -0.0125,-1.4272 -10e-4,-0.3567 3.4e-4,-0.5913 -0.009,-1.0305 -0.009,-0.4393 -0.0338,-1.0341 -0.0537,-1.5213 -0.0198,-0.4871 -0.034,-0.8661 -0.0433,-1.1355 -0.009,-0.2693 -0.0154,-0.4237 -0.0283,-1.4973 -0.0129,-1.0737 -0.0841,-3.14 -0.1197,-3.4033 -0.0356,-0.2632 -0.0954,-0.5348 -0.1827,-0.8197 -0.0873,-0.2849 -0.19807,-0.5841 -0.336,-0.8976 -0.13795,-0.3135 -0.29982,-0.6419 -0.31013,-0.6992 -0.0103,-0.057 -0.0131,-0.1148 -0.0114,-0.1717 0.002,-0.057 0.008,-0.113 0.0146,-0.1548 0.007,-0.042 0.007,-0.042 0.002,-0.014 0,0 -0.009,0.056 -0.0137,0.1121 -0.005,0.056 -0.005,0.1135 -5.7e-4,0.1712 0.004,0.058 0.007,0.1179 0.0484,0.4705 0.0418,0.3527 0.0684,0.6774 0.0808,0.9738 0.0124,0.2965 0.009,0.5645 -0.008,0.8029 -0.0169,0.2386 -0.0493,0.4379 -0.38653,2.4716 -0.33722,2.0337 -0.353,2.1377 -0.37747,2.349 -0.0245,0.2114 -0.0551,0.5241 -0.0942,0.9422 -0.039,0.4179 -0.0866,0.9422 -0.13845,1.5676 -0.0519,0.6253 -0.0733,0.7524 -0.10538,1.0395 -0.0321,0.2873 -0.0801,0.6876 -0.13236,1.2042 -0.0522,0.5167 -0.14273,1.1484 -0.14066,1.8971 0.002,0.7489 -0.005,1.1841 -0.0161,1.5918 -0.0111,0.4079 -0.0197,0.7769 -0.0322,1.1061 -0.0124,0.3292 -0.0327,0.6177 -0.0473,0.8405 -0.0146,0.2229 -0.15719,1.0634 -0.3778,1.8918 -0.22064,0.8285 -0.51804,1.6636 -0.89522,2.5083 -0.37718,0.8447 -0.8328,1.7038 -1.01506,2.1963 -0.5213,0.8909 -0.0747,0.5841 -0.41382,0.9824 z"
           id="path369" />
      </g>
      <g
         style="fill:#000000;fill-opacity:1;stroke-linejoin:miter"
         id="g375"
         transform="rotate(90,259.41968,748.93978)">
        <path
           d="m 315.22888,1252.375 c -1.24682,-0.1395 -3.48111,-0.049 -5.43818,-0.052 -1.95705,0 -3.64058,-0.1351 -5.0471,-0.3923 -1.40653,-0.2571 -2.52946,-0.646 -3.5777,-1.3164 -1.04822,-0.6705 -2.19053,-1.6509 -3.15586,-2.7037 -0.96534,-1.0526 -1.77206,-2.1679 -2.41184,-3.364 -0.63976,-1.1959 -1.12185,-2.4737 -1.32232,-3.1882 -0.20044,-0.7145 -0.22501,-0.8489 -0.24164,-0.9845 -0.0166,-0.1356 -0.0268,-0.2721 -0.0344,-0.4095 -0.008,-0.1376 -0.008,-0.2767 -0.001,-0.7369 0.007,-0.4602 0.0268,-1.2069 0.0576,-1.9618 0.0309,-0.7548 0.0714,-1.5183 0.12926,-2.2896 0.0579,-0.7714 0.12544,-1.5513 0.1798,-2.1082 0.0544,-0.557 0.11743,-0.9639 0.22998,-1.571 0.11254,-0.6072 0.27682,-1.397 0.49475,-2.3596 0.21792,-0.9626 0.48904,-2.0951 0.69187,-3.6346 0.2028,-1.5395 0.25536,-2.8701 0.3259,-4.0974 0.0705,-1.2274 0.15874,-2.3507 0.26415,-3.3685 0.10541,-1.0178 0.22735,-1.9287 0.30267,-2.7682 0.0754,-0.8396 0.0694,-1.2914 0.069,-1.7424 -3.5e-4,-0.4512 0.005,-0.9018 0.0156,-1.3516 0.0107,-0.4499 0.0271,-0.899 0.0372,-1.1716 0.0101,-0.2726 0.009,-0.2606 0.024,-0.3178 0.015,-0.057 0.0542,-0.171 0.12137,-0.3298 0.0672,-0.1588 0.16332,-0.3564 0.36038,-0.885 0.19705,-0.5286 0.40649,-0.9102 0.91382,-1.4906 0.50732,-0.5805 1.32696,-1.2973 2.4515,-2.1089 1.12454,-0.8116 2.54627,-1.7026 3.7774,-2.3218 1.23115,-0.6191 2.30582,-0.9817 3.3789,-1.2727 1.07313,-0.2909 2.14522,-0.5107 3.2173,-0.6603 1.07205,-0.1495 2.14505,-0.2288 2.80572,-0.1063 0.66071,0.1226 1.57568,0.4999 1.2359,0.2195 -0.33975,-0.2805 -0.28894,-0.1683 -0.20202,0.075 0.0869,0.2434 0.1932,0.5971 0.31122,1.0484 0.11801,0.4512 0.19632,0.5996 0.14282,3.5213 -0.0535,2.9216 0.20056,5.2622 0.4256,7.0937 0.225,1.8316 0.39639,3.3059 0.5086,4.417 0.11219,1.111 0.16498,1.8423 0.16852,2.1306 0.004,0.2882 -0.12276,1.4048 -0.241,2.3333 -0.11822,0.9283 -0.2276,1.6537 -0.31426,2.1648 -0.0867,0.5112 -0.14496,0.7723 -0.17487,0.8252 -0.0299,0.053 -1.34513,2.9715 -2.10283,4.563 -0.7577,1.5914 -1.143,2.1386 -1.50243,2.7014 -0.35947,0.5626 -0.69377,1.1397 -1.00879,1.7275 -0.315,0.5877 -0.60424,1.1897 -0.81488,1.6668 -0.21063,0.477 -0.3458,0.854 -0.44357,1.2436 -0.0978,0.3898 -0.16635,0.789 -0.19431,1.1985 -0.0279,0.4097 -0.0233,0.8275 0.17718,1.9167 0.20054,1.0894 0.63874,2.5794 1.18763,3.8072 0.54892,1.2279 1.20267,2.1858 1.95871,2.8449 0.75604,0.6592 1.57642,1.0103 2.18454,1.1968 0.60809,0.1867 0.60809,0.1867 0.21152,0.044 0,0 -0.76666,-0.3397 -1.34992,-0.9576 -0.58325,-0.6178 -1.03838,-1.4322 -1.39901,-2.4614 -0.36067,-1.0291 -0.63471,-2.2901 -0.81305,-3.796 -0.17835,-1.5057 -0.15055,-1.7379 -0.11078,-2.0427 0.0398,-0.3047 0.10461,-0.5873 0.18196,-0.8511 0.0773,-0.2639 0.18153,-0.5066 0.3044,-0.7428 0.12286,-0.2362 0.42935,-0.7701 0.74954,-1.2839 0.32019,-0.5138 0.65526,-1.0142 1.00886,-1.4991 0.35357,-0.4852 0.72814,-0.9532 1.1903,-1.5252 0.46213,-0.5721 2.00244,-3.4234 2.792,-4.8804 0.7895,-1.457 0.9811,-1.9225 1.1218,-2.4287 0.14067,-0.5063 0.2893,-1.161 0.4515,-1.9939 0.16216,-0.8329 0.34066,-1.8508 0.46648,-2.6756 0.12582,-0.8249 0.13746,-1.4923 0.10099,-2.443 -0.0365,-0.9507 -0.11573,-2.2329 -0.2442,-3.8603 -0.12847,-1.6273 -0.29917,-3.6041 -0.38834,-6.0302 -0.0892,-2.4262 -0.0354,-5.4169 -0.19989,-6.1928 -0.16449,-0.7759 -0.30314,-1.2833 -0.44474,-1.7283 -0.1416,-0.4448 -0.29434,-0.8394 -0.49062,-1.2189 -0.19632,-0.3794 -1.08258,-1.2087 -2.38593,-1.7298 -1.30335,-0.5212 -2.92422,-0.5149 -4.16858,-0.3957 -1.24435,0.1192 -2.48467,0.3193 -3.71994,0.5998 -1.23526,0.2805 -2.4646,0.6409 -3.75993,1.1129 -1.29528,0.4721 -3.10295,1.5172 -4.5656,2.4749 -1.46265,0.9576 -2.67142,1.8826 -3.63608,2.8 -0.96466,0.9175 -1.68872,1.8689 -2.08012,2.7589 -0.39134,0.8902 -0.4364,0.9369 -0.58086,1.2476 -0.14444,0.3106 -0.26608,0.6174 -0.36328,0.9296 -0.0972,0.3121 -0.16559,0.6399 -0.19116,0.9271 -0.0256,0.2871 -0.0463,0.7509 -0.0619,1.2334 -0.0156,0.4827 -0.0251,0.9657 -0.0287,1.4495 -0.004,0.4836 -0.001,0.9679 0.0114,1.3317 0.0126,0.3639 -0.11591,1.1552 -0.24256,2.1836 -0.12668,1.0285 -0.23291,2.1496 -0.31938,3.365 -0.0865,1.2155 -0.15355,2.5262 -0.19334,3.8274 -0.0398,1.3013 -0.30939,2.3446 -0.57001,3.4513 -0.26062,1.1067 -0.47015,2.0551 -0.62918,2.85 -0.15907,0.795 -0.26287,1.447 -0.31214,1.9517 -0.0493,0.5046 -0.10177,1.3244 -0.14117,2.1459 -0.0394,0.8217 -0.057,1.6354 -0.0662,2.4406 -0.009,0.8052 -0.003,1.6021 0.0188,2.3846 0.0221,0.7825 0.0305,0.9952 0.0464,1.2334 0.0159,0.2382 0.0409,0.4754 0.0787,0.7103 0.0378,0.2348 0.0839,0.468 0.15176,0.7475 0.0679,0.2797 0.6062,1.8146 1.34805,3.2942 0.74189,1.4797 1.67463,2.8359 2.77878,4.0706 1.10415,1.2344 2.38288,2.3374 3.85141,3.3267 1.46857,0.9894 2.81704,1.5119 4.31089,1.7827 1.49383,0.2709 3.17955,0.3377 5.06455,0.1895 1.88497,-0.1482 3.97036,-0.5148 5.05028,-0.9598 2.2713,-0.6585 1.05502,-0.5839 2.2464,-0.7974 z"
           id="path373" />
      </g>
    </g>
  </g>
</svg>
