<?xml version="1.0" encoding="UTF-8" standalone="no"?>
<svg
   version="1.1"
   width="135.38521"
   height="135.38521"
   viewBox="0 0 135.38521 135.38521"
   id="svg1214"
   xmlns="http://www.w3.org/2000/svg"
   xmlns:svg="http://www.w3.org/2000/svg">
  <defs
     id="defs1218" />
  <g
     id="g6361"
     transform="translate(-97.640701,-848.95837)">
    <rect
       style="display:inline;opacity:0.5;fill:none;fill-opacity:1;stroke:none;stroke-width:2.66644;stroke-dasharray:none;stroke-opacity:1"
       id="rect5349"
       width="135.38521"
       height="135.38521"
       x="97.640701"
       y="848.95837" />
    <g
       id="g4082"
       transform="translate(386.9005,297.66645)">
      <g
         style="fill:#000000;fill-opacity:1;stroke-linejoin:miter"
         id="g323"
         transform="rotate(90,259.41968,748.93978)">
        <path
           d="m 91.68734,1277.6935 c 0.0984,-0.3443 0.19783,-1.0841 0.30266,-1.9083 0.104826,-0.8242 0.22145,-1.7345 0.3537,-2.732 0.132245,-0.9973 0.27242,-2.0829 0.39119,-2.9619 0.11877,-0.8789 0.19685,-1.4316 0.28691,-1.9075 0.09006,-0.4759 0.17738,-0.874 0.266774,-1.1881 0.0894,-0.3141 0.175406,-0.5372 0.307736,-0.8546 0.132335,-0.3174 0.28569,-0.6593 0.40686,-1.0276 0.12116,-0.3681 0.29588,-0.7273 0.488735,-1.0942 0.192855,-0.3668 0.41172,-0.7381 0.593805,-1.0318 0.18208,-0.2937 0.275374,-0.4488 0.46783,-0.7087 0.19247,-0.2598 0.47428,-0.6052 0.83874,-1.0312 0.364464,-0.4261 0.80636,-0.9338 1.16642,-1.3577 0.360055,-0.4238 0.52513,-0.6671 0.681046,-0.9066 0.155914,-0.2395 0.302694,-0.4756 0.440209,-0.7079 0.137515,-0.2323 0.26419,-0.4622 0.431205,-0.8164 0.167015,-0.3543 0.348496,-0.8023 0.4845,-1.217 0.13601,-0.415 0.22887,-0.794 0.279325,-1.1347 0.05046,-0.3407 0.09468,-0.6348 0.117755,-0.838 0.02307,-0.2031 0.02307,-0.2031 0.0077,-0.068 0,0 -0.03076,0.2708 -0.136905,0.5606 -0.106145,0.2898 -0.274805,0.5951 -0.484915,0.9223 -0.210115,0.3272 -0.4633,0.6772 -0.75602,1.0533 -0.292725,0.3761 -0.44532,0.5517 -0.61008,0.7391 -0.16475,0.1876 -0.33805,0.3776 -0.5206,0.5694 -0.18254,0.1918 -0.374524,0.3854 -0.5592,0.5647 -0.184686,0.1792 -0.75331,0.6468 -1.25311,1.0688 -0.49979,0.4219 -0.9088,0.7913 -1.235424,1.1066 -0.326626,0.3153 -0.575856,0.5842 -0.724576,0.7799 -0.14872,0.1956 -0.44412,0.553 -0.741374,0.9546 -0.297246,0.4015 -0.569816,0.81 -0.807251,1.2312 -0.237435,0.421 -0.480425,0.8365 -0.612005,1.2642 -0.13159,0.4274 -0.2222,0.6911 -0.31454,1.0808 -0.09233,0.3896 -0.16079,0.8281 -0.207,1.3232 -0.0462,0.4952 -0.07087,1.0506 -0.08405,1.6638 -0.01317,0.6133 -0.01179,1.7785 0.0092,2.8578 0.02095,1.0794 0.07056,2.0691 0.14479,2.9679 0.07422,0.8989 0.181786,1.7061 0.30318,2.0769 0.13578,0.7125 0.26244,0.3651 0.27683,0.7067 z"
           id="path321" />
      </g>
      <g
         style="fill:#000000;fill-opacity:1;stroke-linejoin:miter"
         id="g327"
         transform="rotate(90,259.41968,748.93978)">
        <path
           d="m 100.95847,1214.0417 c -0.0708,-0.2513 -0.26306,-0.6746 -0.43668,-1.0422 -0.17362,-0.3674 -0.32244,-0.6831 -0.44743,-0.9455 -0.12499,-0.2625 -0.22205,-0.4731 -0.33344,-0.7669 -0.11138,-0.2937 -0.280166,-0.7231 -0.45112,-1.15 -0.17095,-0.4269 -0.34806,-0.8493 -0.52878,-1.2684 -0.18073,-0.4192 -0.3696,-0.8328 -0.522815,-1.1999 -0.153205,-0.367 -0.271019,-0.7282 -0.377685,-1.077 -0.106675,-0.3489 -0.19247,-0.6893 -0.258164,-1.0212 -0.06569,-0.332 -0.109396,-0.6556 -0.129716,-0.9076 -0.02032,-0.2521 -0.07616,-0.4818 -0.101,-0.7399 -0.02483,-0.2581 -0.03766,-0.5416 -0.04357,-0.8501 -0.0059,-0.3085 -0.004,-0.6412 0.0045,-0.9318 0.0084,-0.2905 0.0169,-0.5107 0.02579,-0.7144 0.0089,-0.2039 0.01813,-0.3913 0.02617,-0.5621 0.008,-0.1707 0.01532,-0.3247 0.05271,-0.8167 0.03737,-0.4921 0.08946,-1.261 0.120985,-1.9048 0.03153,-0.6438 0.05136,-1.1614 0.05325,-1.5546 0.0019,-0.3932 -0.0051,-0.6629 -0.01409,-0.8255 -0.009,-0.1626 -5.56e-4,-0.3382 0.03627,-0.5597 0.03682,-0.2215 0.102034,-0.4854 0.192174,-0.7913 0.09014,-0.3058 0.22109,-0.644 0.3655,-0.8975 0.144406,-0.2535 0.144406,-0.2535 0.04813,-0.085 0,0 -0.19254,0.3381 -0.3978,0.623 -0.20525,0.285 -0.3806,0.5437 -0.51622,0.7822 -0.13562,0.2385 -0.235325,0.4579 -0.29646,0.6585 -0.06113,0.2004 -0.09525,0.3741 -0.167526,0.6612 -0.07228,0.2871 -0.177654,0.7002 -0.311084,1.2383 -0.13342,0.5381 -0.30106,1.1995 -0.48852,1.9879 -0.187456,0.7883 -0.22196,0.9463 -0.2571,1.1118 -0.03515,0.1657 -0.06945,0.3468 -0.105085,0.5435 -0.03562,0.1968 -0.07286,0.409 -0.111935,0.6389 -0.03907,0.23 -0.09787,0.6012 -0.14408,0.96 -0.04621,0.3586 -0.07563,0.7007 -0.09294,1.0268 -0.01729,0.3261 -0.02034,0.6367 -0.0058,0.9429 0.01456,0.3063 0.10316,0.7021 0.21649,1.0884 0.113326,0.3861 0.24408,0.7733 0.39926,1.1596 0.15518,0.3864 0.329636,0.7736 0.53713,1.1656 0.2075,0.3918 0.45972,0.7939 0.69865,1.1721 0.23893,0.3781 0.48035,0.7575 0.72178,1.1396 0.24143,0.3822 0.482694,0.7671 0.727506,1.159 0.244804,0.3919 0.378084,0.5784 0.537234,0.7894 0.159154,0.2109 0.36144,0.4564 0.60379,0.7396 0.242351,0.2832 0.528781,0.6019 0.722301,0.7493 0.33243,0.3532 0.31053,0.068 0.44944,0.2741 z"
           id="path325" />
      </g>
      <g
         style="fill:#000000;fill-opacity:1;stroke-linejoin:miter"
         id="g331"
         transform="rotate(90,259.41968,748.93978)">
        <path
           d="m 115.58684,1210.7571 c -0.30316,-0.2471 -0.9278,-0.6354 -1.51673,-1.0309 -0.58891,-0.3955 -1.13825,-0.8118 -1.65274,-1.2457 -0.51448,-0.4339 -0.99178,-0.8924 -1.37579,-1.4112 -0.38402,-0.5186 -0.73833,-1.156 -1.02342,-1.7241 -0.28508,-0.568 -0.48802,-1.071 -0.61512,-1.4995 -0.12711,-0.4285 -0.18441,-0.7745 -0.21775,-1.3142 -0.0333,-0.5395 -0.0458,-1.2617 -0.0113,-2.0081 0.0345,-0.7464 0.0519,-1.5218 0.0988,-2.332 0.0469,-0.8101 0.13754,-1.6543 0.2172,-2.2001 0.0797,-0.5457 0.12428,-0.7872 0.1769,-1.0284 0.0526,-0.2412 0.10838,-0.4837 0.17397,-0.7254 0.0656,-0.2417 0.1343,-0.4848 0.37552,-1.208 0.24123,-0.7232 0.60205,-1.8156 0.88149,-2.7014 0.27946,-0.8858 0.47637,-1.5659 0.60325,-2.0381 0.12686,-0.4723 0.18651,-0.7489 0.21888,-0.9943 0.0324,-0.2454 0.0759,-0.6237 0.0914,-0.9937 0.0155,-0.37 0.007,-0.7302 -0.0279,-1.0801 -0.0351,-0.3499 -0.0688,-0.6891 -0.0805,-0.9409 -0.0117,-0.2518 -0.0117,-0.2518 -0.004,-0.084 0,0 0.0156,0.3358 -0.0354,0.673 -0.051,0.3372 -0.13593,0.6715 -0.23761,1.004 -0.10167,0.3325 -0.22374,0.6635 -0.36425,1.0017 -0.14051,0.3383 -0.17315,0.4325 -0.31367,0.7144 -0.14052,0.282 -0.38947,0.7712 -0.74627,1.4586 -0.3568,0.6874 -0.8036,1.5787 -1.35117,2.673 -0.54757,1.0942 -0.67135,1.3723 -0.77864,1.6335 -0.1073,0.2611 -0.20734,0.5242 -0.30267,0.7884 -0.0953,0.264 -0.18085,0.5307 -0.26572,0.8095 -0.0849,0.2789 -0.30729,1.1892 -0.48133,2.0883 -0.17405,0.899 -0.29344,1.7805 -0.31413,2.6436 -0.0207,0.8631 0.0413,1.701 0.15284,2.4996 0.1115,0.7984 0.19189,1.2738 0.36886,1.8193 0.17696,0.5455 0.44419,1.103 0.78744,1.6849 0.34326,0.582 0.76266,1.1938 1.29052,1.8608 0.52787,0.6668 1.16167,1.1672 1.77577,1.5622 0.61409,0.3949 1.25708,0.7455 1.93467,1.0396 0.67758,0.2939 1.3883,0.5282 1.77811,0.5666 0.74053,0.1712 0.43978,-0.094 0.7905,0.039 z"
           id="path329" />
      </g>
      <g
         style="fill:#000000;fill-opacity:1;stroke-linejoin:miter"
         id="g335"
         transform="rotate(90,259.41968,748.93978)">
        <path
           d="m 114.00954,1211.9851 c 0.26636,-0.9879 0.55199,-5.5676 0.63815,-8.835 0.0862,-3.2674 -0.12,-5.2197 -0.66488,-9.7729 -0.54488,-4.5532 -0.84286,-6.5026 -0.84286,-6.5026 0,0 0,0 0,0 0,0 0,0 -0.26042,3.2731 -0.26043,3.273 -0.42168,7.8486 -0.38293,9.8062 0.0387,1.9575 0.46703,6.5144 0.90387,8.7858 0.46798,3.2498 0.57794,2.267 0.60907,3.2454 z"
           id="path333" />
      </g>
      <g
         style="fill:#000000;fill-opacity:1;stroke-linejoin:miter"
         id="g339"
         transform="rotate(90,259.41968,748.93978)">
        <path
           d="m 111.9134,1276.828 c -0.0346,-0.1504 -0.14198,-0.4604 -0.24637,-0.8208 -0.10439,-0.3603 -0.21203,-0.7693 -0.32235,-1.2286 -0.11033,-0.4593 -0.22009,-0.9706 -0.30272,-1.3655 -0.0826,-0.3948 -0.1206,-0.6688 -0.14784,-0.9967 -0.0272,-0.3279 -0.0453,-0.7079 -0.0531,-1.1393 -0.008,-0.4314 -0.009,-0.9135 0.0117,-1.5078 0.0207,-0.5945 0.0456,-1.2376 0.0801,-1.8159 0.0345,-0.5785 0.002,-1.0935 -0.008,-1.5442 -0.01,-0.4507 -0.006,-0.8363 0.008,-1.19 0.0144,-0.3537 0.0304,-0.6933 0.0433,-1.0168 0.0129,-0.3234 0.0278,-0.6298 0.0487,-0.9186 0.021,-0.2888 0.0403,-0.5611 0.0571,-0.8033 0.0168,-0.2422 0.0359,-0.4778 0.0611,-0.7361 0.0252,-0.2582 0.0564,-0.539 0.0923,-0.8421 0.036,-0.3029 0.0738,-0.629 0.097,-0.8562 0.0232,-0.227 0.0293,-0.323 0.0344,-0.4168 0.005,-0.094 0.009,-0.1855 0.012,-0.2748 0.003,-0.089 0.003,-0.177 6.1e-4,-0.3591 -0.003,-0.1822 -0.0132,-0.4504 -0.0322,-0.7072 -0.019,-0.2568 -0.0458,-0.5017 -0.0756,-0.7347 -0.0298,-0.2329 -0.0321,-0.4545 -0.0377,-0.6159 -0.006,-0.1614 -0.006,-0.1614 -0.002,-0.054 0,0 0.007,0.2152 -0.008,0.4397 -0.0158,0.2245 -0.0623,0.4569 -0.11783,0.6968 -0.0555,0.2397 -0.11656,0.4874 -0.18588,0.7434 -0.0693,0.2561 -0.0927,0.331 -0.1176,0.4111 -0.0249,0.08 -0.0504,0.1624 -0.0773,0.2463 -0.0269,0.084 -0.0554,0.1697 -0.0842,0.2522 -0.0288,0.083 -0.1532,0.4035 -0.26171,0.7112 -0.10851,0.3078 -0.20329,0.5975 -0.28829,0.8687 -0.085,0.2711 -0.16024,0.5237 -0.22559,0.7573 -0.0653,0.2336 -0.13399,0.498 -0.19888,0.7805 -0.0649,0.2826 -0.12715,0.5819 -0.1943,0.8972 -0.0672,0.3153 -0.13405,0.6472 -0.19608,0.9955 -0.062,0.3483 -0.12705,0.7249 -0.1853,1.1715 -0.0583,0.4466 -0.1076,0.951 -0.11809,1.5144 -0.0105,0.5636 0.0279,1.1856 0.0877,1.8687 0.0598,0.6832 0.12415,1.2277 0.19636,1.7164 0.0722,0.4888 0.15628,0.9288 0.24654,1.3214 0.0903,0.3925 0.19249,0.7374 0.29785,1.0342 0.10535,0.2966 0.33135,0.8234 0.55544,1.2964 0.22409,0.4731 0.44971,0.89 0.66916,1.2527 0.21944,0.3626 0.43611,0.6686 0.5627,0.792 0.2049,0.2506 0.24685,0.049 0.32517,0.1766 z"
           id="path337" />
      </g>
      <g
         style="fill:#000000;fill-opacity:1;stroke-linejoin:miter"
         id="g343"
         transform="rotate(90,259.41968,748.93978)">
        <path
           d="m 108.22464,1278.8995 c -0.14014,-0.3685 -0.48013,-0.9829 -0.76746,-1.5268 -0.28733,-0.544 -0.5113,-1.0244 -0.6731,-1.4379 -0.1618,-0.4133 -0.253,-0.7593 -0.31665,-1.1633 -0.0636,-0.4041 -0.10708,-0.9082 -0.11802,-1.4424 -0.011,-0.5343 0.0211,-1.1007 0.0889,-1.6999 0.0678,-0.5994 0.17257,-1.2326 0.31838,-1.9122 0.14581,-0.6796 0.30669,-1.3626 0.4817,-2.0202 0.17502,-0.6577 0.28839,-1.3093 0.42828,-1.9365 0.13988,-0.6273 0.28921,-1.2352 0.38447,-1.6236 0.0953,-0.3884 0.16301,-0.5888 0.37109,-1.0591 0.20808,-0.4702 0.54432,-1.1596 0.99768,-2.0593 0.45337,-0.8996 1.00852,-2.0154 1.36769,-2.7668 0.35916,-0.7514 0.43438,-1.0125 0.50517,-1.3406 0.0708,-0.3283 0.13556,-0.7289 0.19507,-1.2036 0.0595,-0.4748 0.11156,-1.0254 0.21143,-1.4603 0.0999,-0.435 0.0999,-0.435 0.0269,-0.1467 0,0 -0.16497,0.5718 -0.38109,1.0508 -0.21612,0.4789 -0.4033,0.8847 -0.56404,1.2151 -0.16076,0.3303 -0.29624,0.5825 -0.39756,0.7417 -0.10132,0.1592 -0.96353,1.2673 -1.66078,2.2163 -0.69725,0.9491 -1.23705,1.7283 -1.63174,2.3369 -0.3947,0.6088 -0.65261,1.0601 -0.76739,1.3489 -0.11478,0.289 -0.35056,0.867 -0.57928,1.5071 -0.22871,0.64 -0.44432,1.303 -0.61092,1.9966 -0.1666,0.6937 -0.27686,1.4168 -0.36889,2.1606 -0.092,0.7437 -0.14899,1.475 -0.17052,2.1777 -0.0215,0.7027 0.002,1.3713 0.0707,2.0047 0.0687,0.6333 0.18028,1.2309 0.34019,1.7856 0.15991,0.5547 0.30362,0.9429 0.52636,1.3645 0.22274,0.4215 0.52186,0.8617 0.89743,1.3247 0.37557,0.4632 0.83323,0.9474 1.14093,1.1563 0.54567,0.5008 0.41713,0.1199 0.65508,0.4117 z"
           id="path341" />
      </g>
      <g
         style="fill:#000000;fill-opacity:1;stroke-linejoin:miter"
         id="g347"
         transform="rotate(90,259.41968,748.93978)">
        <path
           d="m 146.15059,1247.867 c 0.0777,-0.4533 0.0833,-1.255 0.0869,-1.9317 0.004,-0.6766 0.0201,-1.2285 0.048,-1.6503 0.0279,-0.4217 0.0757,-0.702 0.13102,-0.9314 0.0553,-0.2293 0.14237,-0.5114 0.2876,-0.9124 0.14522,-0.4009 0.34571,-0.9136 0.60529,-1.5326 0.2596,-0.619 0.5722,-1.345 0.86575,-2.2534 0.29355,-0.9085 0.45683,-1.6545 0.60031,-2.2836 0.14348,-0.629 0.26679,-1.1399 0.36876,-1.5278 0.10198,-0.3879 0.17964,-0.6437 0.25557,-0.8814 0.0759,-0.2375 0.15598,-0.4756 0.24783,-0.7325 0.0919,-0.257 0.20311,-0.5301 0.32645,-0.8213 0.12334,-0.2913 0.26618,-0.5977 0.64821,-1.2956 0.38203,-0.698 0.92026,-1.7725 1.33177,-2.6823 0.4115,-0.9097 0.72234,-1.6435 0.94937,-2.2017 0.22705,-0.5581 0.37052,-0.9664 0.42018,-1.1134 0.0497,-0.147 0.16077,-0.4619 0.28252,-0.8964 0.12175,-0.4345 0.26892,-1.0168 0.44318,-1.7559 0.17424,-0.7392 0.37576,-1.6379 0.52355,-2.4108 0.14779,-0.7731 0.18847,-1.2997 0.20083,-1.8915 0.0124,-0.5918 -0.004,-1.2518 -0.0527,-1.9824 -0.0484,-0.7306 -0.13511,-1.5326 -0.2231,-2.2092 -0.088,-0.6767 -0.16651,-1.1828 -0.2636,-1.6784 -0.0971,-0.4956 -0.21161,-0.9805 -0.33952,-1.4543 -0.1279,-0.4739 -0.26822,-0.9366 -0.32041,-1.2871 -0.0522,-0.3507 -0.0522,-0.3507 -0.0174,-0.117 0,0 0.0696,0.4675 0.0507,0.9509 -0.0189,0.4835 -0.0417,0.97 -0.0716,1.4607 -0.0299,0.4909 -0.0661,0.9859 -0.10126,1.4878 -0.0351,0.502 -0.0917,1.345 -0.14798,2.1007 -0.0563,0.7558 -0.12613,1.4279 -0.19978,2.0152 -0.0736,0.5873 -0.15942,1.0874 -0.25095,1.4803 -0.0915,0.393 -0.41444,1.3379 -0.69261,2.1469 -0.27818,0.8089 -0.50528,1.4579 -0.6835,1.9415 -0.17821,0.4835 -0.30354,0.7919 -0.38806,0.965 -0.0845,0.1731 -0.16922,0.4138 -0.34107,0.7625 -0.17184,0.3487 -0.45646,0.9025 -0.85557,1.6396 -0.39911,0.737 -0.90781,1.655 -1.46663,2.7968 -0.55884,1.1419 -0.729,1.5745 -0.85211,1.927 -0.12311,0.3526 -0.23299,0.6915 -0.32855,1.0175 -0.0956,0.326 -0.17756,0.6394 -0.23803,0.9231 -0.0605,0.2838 -0.11391,0.5121 -0.18122,0.8821 -0.0673,0.37 -0.13865,0.8413 -0.21649,1.4223 -0.0778,0.581 -0.16286,1.2742 -0.24235,2.0308 -0.0795,0.7565 -0.30508,1.507 -0.5191,2.2478 -0.21402,0.7407 -0.37869,1.3774 -0.50284,1.9094 -0.12414,0.5321 -0.20029,0.966 -0.23318,1.2928 -0.0329,0.3269 -0.0559,0.6157 -0.0314,1.0287 0.0245,0.413 0.0926,0.917 0.21262,1.5224 0.12006,0.6053 0.30241,1.3136 0.48605,1.6921 0.24898,0.8115 0.32322,0.3576 0.38857,0.7905 z"
           id="path345" />
      </g>
      <g
         style="fill:#000000;fill-opacity:1;stroke-linejoin:miter"
         id="g351"
         transform="rotate(90,259.41968,748.93978)">
        <path
           d="m 163.78168,1244.7177 c -0.15134,-1.043 -0.72042,-2.8804 -1.20005,-4.5734 -0.47963,-1.6931 -0.84091,-3.2561 -1.07757,-4.6922 -0.23668,-1.436 -0.34271,-2.7462 -0.40772,-3.2072 -0.065,-0.4612 -0.0721,-0.4551 -0.0781,-0.4536 -0.006,0 -0.007,-0.01 -1.7e-4,-0.021 0.007,-0.015 0.0258,-0.04 0.35353,-0.2667 0.3277,-0.2267 1.09627,-0.7633 1.88822,-1.3629 0.79196,-0.5996 1.6067,-1.263 2.44435,-1.99 0.83764,-0.7272 1.68997,-1.5282 2.25926,-2.0884 0.56931,-0.5603 0.84915,-0.8594 1.12384,-1.1821 0.27467,-0.3227 0.54237,-0.6704 0.80435,-1.0418 0.26198,-0.3714 0.51857,-0.766 0.75412,-1.0338 0.23557,-0.2678 0.23557,-0.2678 0.0785,-0.089 0,0 -0.31413,0.357 -0.68019,0.6395 -0.36606,0.2825 -0.71975,0.5463 -1.06387,0.7889 -0.34411,0.2428 -0.67778,0.4654 -1.00447,0.6714 -0.32671,0.2062 -1.33162,0.8625 -2.28058,1.4749 -0.94894,0.6124 -1.84752,1.1807 -2.70027,1.6992 -0.85275,0.5187 -1.66174,0.9844 -2.44121,1.4048 -0.77948,0.4203 -1.01743,0.595 -1.15315,0.7223 -0.13573,0.1273 -0.25905,0.2717 -0.36583,0.4326 -0.10677,0.1609 -0.19386,0.337 -0.27127,0.6794 -0.0774,0.3424 0,1.719 0.31268,3.1819 0.31269,1.4629 0.79269,2.9962 1.43529,4.601 0.64259,1.6046 1.46814,3.2725 2.0896,4.0605 1.05293,1.7057 0.7492,0.728 1.18068,1.6457 z"
           id="path349" />
      </g>
    </g>
  </g>
</svg>
