<?xml version="1.0" encoding="UTF-8" standalone="no"?>
<svg
   version="1.1"
   width="135.38521"
   height="135.38521"
   viewBox="0 0 135.38521 135.38521"
   id="svg1214"
   xmlns="http://www.w3.org/2000/svg"
   xmlns:svg="http://www.w3.org/2000/svg">
  <defs
     id="defs1218" />
  <g
     id="g7496"
     transform="translate(-706.9707,-989.1994)">
    <rect
       style="display:inline;opacity:0.5;fill:none;fill-opacity:1;stroke:none;stroke-width:2.66644;stroke-dasharray:none;stroke-opacity:1"
       id="rect5217"
       width="135.38521"
       height="135.38521"
       x="706.9707"
       y="989.1994" />
    <g
       id="g4476"
       transform="matrix(0.85687011,0,0,0.85687011,103.82625,149.28236)">
      <g
         style="fill:#000000;fill-opacity:1;stroke-linejoin:miter"
         id="g895"
         transform="rotate(90,259.41968,748.93978)">
        <path
           d="m 543.51245,291.53333 c -0.12878,-0.3313 -0.48345,-1.06577 -0.87341,-2.00783 -0.38994,-0.94206 -0.81974,-2.097 -1.29044,-3.46895 -0.47073,-1.37195 -0.98465,-2.96161 -1.432,-4.49935 -0.44724,-1.53773 -0.7769,-2.8633 -1.0522,-4.13386 -0.27535,-1.27054 -0.49996,-2.48524 -0.6655,-3.64594 -0.1655,-1.1607 -0.28026,-2.26574 -0.32134,-3.0796 -0.0412,-0.81383 -0.0227,-1.3489 0.0579,-1.85982 0.0805,-0.51092 0.2043,-1.00305 0.3826,-1.4797 0.1783,-0.47668 0.414,-0.93976 0.6121,-1.26288 0.19803,-0.32315 0.3149,-0.4855 0.44285,-0.6463 0.12785,-0.16083 0.27301,-0.3164 0.43029,-0.47168 0.15729,-0.15532 0.3332,-0.30506 0.77723,-0.60852 0.44397,-0.30344 1.34497,-0.88514 2.12317,-1.43274 0.77819,-0.54761 1.43596,-1.06616 1.98176,-1.56311 0.54576,-0.49692 0.98613,-0.99025 1.3091,-1.47803 0.323,-0.48782 0.5829,-1.00832 0.8119,-1.58929 0.2291,-0.581 0.42604,-1.22849 0.60646,-1.94223 0.18044,-0.71373 0.33904,-1.49828 0.44094,-2.3093 0.1019,-0.811 0.1061,-1.4802 0.059,-2.15166 -0.0471,-0.67146 -0.1384,-1.34451 -0.28125,-2.01774 -0.14282,-0.67324 -0.33125,-1.34668 -0.81195,-2.56214 -0.4807,-1.21544 -1.18133,-2.79913 -1.85437,-4.20324 -0.67309,-1.40412 -1.33013,-2.62241 -1.96243,-3.65479 -0.6323,-1.03239 -1.2357,-1.87605 -1.5935,-2.4558 -0.35776,-0.57973 -0.35776,-0.57973 -0.14023,-0.18225 0,0 0.37207,0.82795 0.69677,1.86155 0.32466,1.0336 0.69721,2.2263 1.11736,3.58363 0.4202,1.35733 0.88576,2.88232 1.39314,4.56866 0.50732,1.68633 0.61963,2.25394 0.71046,2.84452 0.0908,0.59057 0.1414,1.16679 0.1566,1.729 0.0152,0.56223 -0.0103,1.11139 -0.0682,1.61557 -0.0579,0.50417 -0.24297,1.20399 -0.44827,1.87265 -0.2052,0.66867 -0.41086,1.24857 -0.6175,1.73547 -0.20663,0.48687 -0.40554,0.87925 -0.589,1.16843 -0.1835,0.28919 -0.36684,0.50644 -0.693,0.798 -0.32624,0.29154 -0.80805,0.65351 -1.43763,1.06806 -0.62957,0.41455 -1.39844,0.88178 -2.34442,1.41298 -0.94599,0.53123 -1.42785,0.8814 -1.68439,1.13902 -0.25659,0.2576 -0.49626,0.52564 -0.71576,0.80634 -0.2195,0.2807 -0.4224,0.57064 -0.6037,0.87754 -0.18133,0.30687 -0.5096,0.95638 -0.78454,1.6592 -0.27491,0.70282 -0.46851,1.42618 -0.58649,2.16357 -0.11797,0.73737 -0.14647,1.48667 -0.10877,2.23957 0.0377,0.75286 0.2062,1.9154 0.43464,3.11551 0.22836,1.2001 0.52396,2.43705 0.88406,3.71165 0.36014,1.2746 0.7946,2.5844 1.29416,3.9393 0.49954,1.35487 1.24824,3.06102 1.95331,4.53377 0.70507,1.47275 1.38353,2.71646 2.02593,3.73253 0.6424,1.01613 1.2524,1.79814 1.5903,2.07686 0.56,0.544 0.44614,0.18804 0.66825,0.45337 z"
           id="path893" />
      </g>
      <g
         style="fill:#000000;fill-opacity:1;stroke-linejoin:miter"
         id="g899"
         transform="rotate(90,259.41968,748.93978)">
        <path
           d="m 535.5012,220.81488 c 0.096,0.0749 0.40206,0.21095 0.8644,0.37405 0.4624,0.16312 1.08325,0.34311 1.8631,0.53266 0.77984,0.18956 1.71875,0.38583 2.4666,0.49561 0.7479,0.10975 1.1001,0.0892 1.4307,0.009 0.3305,-0.0803 0.6401,-0.2393 0.8962,-0.50101 0.25606,-0.2617 0.4102,-0.60431 0.4818,-1.04562 0.0717,-0.44132 0.0872,-1.06416 0.043,-1.78082 -0.0442,-0.71666 -0.14984,-1.53327 -0.32135,-2.4529 -0.17151,-0.91962 -0.40215,-1.94566 -1.38929,-4.664 -0.98712,-2.71835 -2.66601,-6.90291 -2.74996,-7.13965 -0.084,-0.23673 -0.1609,-0.47652 -0.23197,-0.70279 -0.071,-0.22627 -0.13678,-0.43898 -0.19133,-0.6397 -0.0545,-0.20071 -0.0947,-0.37657 -0.28926,-1.32111 -0.19458,-0.94454 -0.33034,-1.77207 -0.42024,-2.47995 -0.09,-0.70791 -0.12627,-1.29113 -0.1167,-1.7352 0.01,-0.44407 0.062,-0.76704 0.26686,-1.83784 0.20477,-1.07078 0.44234,-2.08904 0.68334,-3.0605 0.2411,-0.97145 0.48756,-1.89819 0.767,-2.77363 0.27934,-0.87546 0.619,-1.77251 0.7751,-2.21201 0.1561,-0.43948 0.6267,-1.48094 1.41213,-3.11703 0.78553,-1.63609 1.86527,-3.85919 3.23731,-6.66449 1.37196,-2.8053 3.02536,-6.20477 3.23546,-6.69634 0.21003,-0.49156 0.3932,-0.9541 0.5536,-1.40373 0.16034,-0.44963 0.31055,-0.88153 0.4321,-1.30292 0.1217,-0.4214 0.2202,-0.81752 0.36844,-1.45388 0.14826,-0.63636 0.26483,-1.24184 0.35196,-1.81137 0.0872,-0.56954 0.13894,-1.10444 0.16134,-1.60346 0.0225,-0.49902 0.0144,-0.96536 -0.0212,-1.31607 -0.0356,-0.35072 -0.0774,-0.69087 -0.12365,-1.03094 -0.0462,-0.34009 -0.097,-0.6801 -0.15835,-1.01963 -0.0614,-0.33952 -0.1365,-0.71252 -0.3263,-1.1983 -0.1898,-0.4858 -0.3455,-0.88425 -0.47086,-1.20717 -0.12534,-0.32292 -0.21161,-0.57266 -0.23419,-0.72652 -0.0226,-0.15383 -0.0226,-0.15383 -0.008,-0.0513 0,0 0.0301,0.20512 0.0388,0.49816 0.009,0.29306 0.0275,0.66941 0.0647,1.12677 0.0372,0.45736 0.0897,0.97159 0.0685,1.29309 -0.0213,0.32151 -0.0395,0.65783 -0.0575,0.99216 -0.018,0.33435 -0.0401,0.66704 -0.0665,0.99794 -0.0264,0.3309 -0.0538,0.63924 -0.11797,1.04726 -0.0641,0.408 -0.1651,0.85345 -0.29393,1.33587 -0.1288,0.48243 -0.2879,1.0017 -0.4796,1.55707 -0.1918,0.55539 -0.41464,1.15673 -0.55276,1.51233 -0.13818,0.35562 -0.297,0.72019 -0.47264,1.10152 -0.1757,0.38133 -0.3715,0.77798 -0.58815,1.18965 -0.21675,0.41165 -0.43921,0.80893 -2.25855,3.86945 -1.81933,3.0605 -3.2763,5.5888 -4.39184,7.57257 -1.11556,1.98378 -1.89496,3.42723 -2.36056,4.36941 -0.46555,0.94219 -0.5812,1.29048 -0.9466,2.19724 -0.3654,0.90674 -0.706,1.89821 -1.0164,2.93524 -0.31035,1.03703 -0.5482,2.12936 -0.74474,3.26697 -0.19656,1.13759 -0.36056,2.32177 -0.39166,2.96122 -0.0311,0.63945 0.013,1.34626 0.11706,2.12197 0.10414,0.77569 0.26824,1.62994 0.49921,2.56808 0.23093,0.93813 0.51099,1.95774 0.59123,2.21497 0.0802,0.25721 0.1648,0.51512 0.2611,0.77853 0.0963,0.26343 0.20504,0.53249 0.3254,0.8071 0.12036,0.2746 0.2588,0.58479 2.2335,4.62552 1.97476,4.04071 2.29684,4.95259 2.588,5.86479 0.2911,0.9122 0.51176,1.71256 0.6704,2.39662 0.15856,0.68408 0.24584,1.24955 0.2718,1.69718 0.0259,0.44764 0.038,0.47465 0.0616,0.45608 0.0235,-0.0186 0.0301,-0.009 -0.0354,0.0326 -0.0656,0.042 -0.21851,0.0926 -0.42456,0.13422 -0.206,0.0416 -1.2382,0.0175 -2.1351,-0.002 -0.8968,-0.0191 -1.63516,-0.0382 -2.21634,-0.0515 -0.58112,-0.0133 -1.00409,-0.0302 -1.16506,-0.0266 -0.2635,-0.0353 -0.211,0.13564 -0.3136,0.0967 z"
           id="path897" />
      </g>
      <g
         style="fill:#000000;fill-opacity:1;stroke-linejoin:miter"
         id="g903"
         transform="rotate(90,259.41968,748.93978)">
        <path
           d="m 557.7477,281.77884 c -0.23226,-0.19959 -0.68404,-0.48924 -1.0621,-0.74197 -0.37804,-0.25275 -0.6775,-0.47452 -0.89666,-0.65854 -0.21918,-0.18403 -0.34654,-0.33073 -0.50879,-0.58005 -0.16229,-0.24933 -0.4032,-0.63974 -0.63515,-1.04948 -0.23185,-0.40972 -0.4568,-0.83767 -0.67845,-1.2823 -0.22155,-0.44462 -0.43655,-0.9083 -0.6438,-1.4331 -0.20721,-0.5248 -0.45025,-1.21953 -0.71705,-2.05202 -0.2667,-0.83245 -0.5657,-1.79815 -0.88915,-2.89892 -0.32348,-1.1008 -0.67335,-2.33554 -0.90785,-3.21026 -0.2344,-0.8747 -0.33256,-1.363 -0.46446,-1.8736 -0.13184,-0.5106 -0.25189,-1.05503 -0.35524,-1.63337 -0.10326,-0.57836 -0.19164,-1.18997 -0.2832,-1.97491 -0.0915,-0.78492 -0.15026,-1.64752 -0.15,-2.39447 2e-4,-0.74692 0.0546,-1.37637 0.1619,-1.8851 0.1073,-0.50873 0.2548,-0.89868 0.49,-1.32547 0.23523,-0.42682 0.45935,-0.84563 0.6601,-1.19533 0.2008,-0.3497 0.37646,-0.6291 0.51855,-0.83899 0.14209,-0.20988 0.24622,-0.34415 0.37745,-0.48692 0.1313,-0.14276 0.30596,-0.31861 0.5757,-0.54875 0.2697,-0.23015 0.6249,-0.51476 1.0611,-0.85489 0.43613,-0.34014 0.95194,-0.73557 1.2668,-0.98273 0.3149,-0.24716 0.3722,-0.30882 0.42946,-0.37941 0.0572,-0.0706 0.11847,-0.14633 0.18954,-0.22366 0.071,-0.0773 0.1444,-0.16387 0.20066,-0.23336 0.0563,-0.0695 0.0563,-0.0695 0.0187,-0.0232 0,0 -0.075,0.0926 -0.14765,0.1761 -0.0725,0.0835 -0.14282,0.15775 -0.21911,0.21328 -0.0763,0.0555 -0.14984,0.0997 -0.21619,0.13313 -0.0663,0.0334 -0.74265,0.26869 -1.32519,0.4957 -0.58246,0.22699 -1.07426,0.43911 -1.47486,0.64083 -0.40063,0.20171 -0.71795,0.38779 -0.9435,0.5484 -0.2255,0.1606 -0.3805,0.26485 -0.592,0.45528 -0.2116,0.19043 -0.43996,0.4352 -0.6919,0.7381 -0.2519,0.3029 -0.5361,0.66128 -0.84206,1.07451 -0.3059,0.41324 -0.62921,0.84677 -0.91334,1.44709 -0.28404,0.60033 -0.4859,1.29915 -0.6256,2.0943 -0.13977,0.79513 -0.2102,1.69036 -0.2229,2.68383 -0.0126,0.99347 0.0139,1.68619 0.0587,2.34344 0.0448,0.65726 0.1129,1.28818 0.1945,1.89447 0.0816,0.6063 0.17594,1.18918 0.3446,1.74646 0.1686,0.55728 0.6589,1.87278 1.12016,3.04178 0.46124,1.16902 0.88757,2.20872 1.27964,3.1196 0.3921,0.91086 0.7593,1.69015 1.0881,2.35239 0.32885,0.66223 0.63366,1.15545 0.9291,1.60949 0.2953,0.45404 0.60087,0.88376 0.9158,1.28897 0.31495,0.40519 0.63996,0.78489 0.97034,1.14344 0.33036,0.35853 0.52316,0.54095 0.78992,0.71093 0.26679,0.17 0.59424,0.33316 0.99624,0.4843 0.40195,0.1511 0.87815,0.29634 1.16166,0.32045 0.55384,0.1351 0.33704,-0.1065 0.60744,0.004 z"
           id="path901" />
      </g>
      <g
         style="fill:#000000;fill-opacity:1;stroke-linejoin:miter"
         id="g907"
         transform="rotate(90,259.41968,748.93978)">
        <path
           d="m 558.1987,276.886 c 0.40964,-0.28667 1.0343,-0.93947 1.56595,-1.56465 0.53161,-0.62515 0.9743,-1.21945 1.34338,-1.77493 0.36917,-0.55548 0.66297,-1.07596 0.91101,-1.66692 0.24806,-0.591 0.4607,-1.24174 0.60981,-1.88475 0.1491,-0.643 0.23199,-1.27759 0.25815,-1.90243 0.0262,-0.62485 -0.0185,-1.23844 -0.1889,-1.97002 -0.17045,-0.73155 -0.4802,-1.43132 -0.8132,-2.08067 -0.3331,-0.64936 -0.6905,-1.24741 -1.0713,-1.79389 -0.3808,-0.54648 -0.7868,-1.03921 -1.20496,-1.47577 -0.41824,-0.43652 -0.836,-0.82791 -1.24724,-1.19653 -0.41127,-0.36862 -0.8232,-0.70728 -1.23384,-1.01694 -0.4107,-0.30966 -0.81616,-0.59405 -1.0791,-0.76932 -0.26296,-0.17526 -0.45276,-0.29156 -0.69066,-0.40963 -0.2379,-0.11808 -0.5267,-0.24315 -0.8711,-0.37223 -0.3445,-0.12909 -0.7445,-0.26464 -0.99,-0.34289 -0.24554,-0.0782 -0.30694,-0.10483 -0.3785,-0.14069 -0.0715,-0.0358 -0.1499,-0.0843 -0.2293,-0.15118 -0.0795,-0.0669 -0.1664,-0.14374 -0.23546,-0.20636 -0.069,-0.0626 -0.069,-0.0626 -0.023,-0.0209 0,0 0.0921,0.0835 0.17652,0.15705 0.0844,0.0735 0.16135,0.13705 0.22355,0.2005 0.0622,0.0634 0.11775,0.11783 0.1692,0.16199 0.0515,0.0441 0.42176,0.31408 0.74146,0.55108 0.3197,0.237 0.58698,0.44489 0.80154,0.62061 0.2146,0.17569 0.3719,0.32141 0.4831,0.4422 0.1112,0.12079 0.4428,0.45559 0.76736,0.80401 0.32459,0.34842 0.64894,0.72107 0.98059,1.11084 0.33161,0.3898 0.66388,0.80417 0.99628,1.237 0.33237,0.4328 0.63757,0.86783 0.91742,1.3444 0.27985,0.47656 0.54545,0.9976 0.78821,1.56912 0.2428,0.57153 0.47194,1.18963 0.70618,1.82293 0.23426,0.6333 0.3302,1.01625 0.39721,1.48267 0.067,0.46643 0.0945,0.96503 0.0684,1.49678 -0.0262,0.53178 -0.0991,1.09752 -0.2194,1.69206 -0.1203,0.59454 -0.2541,1.02326 -0.4566,1.54022 -0.2026,0.51694 -0.4681,1.10727 -0.7986,1.76709 -0.3305,0.65979 -0.71527,1.39496 -0.8595,1.83593 -0.4276,0.8196 -0.0311,0.52562 -0.3146,0.9042 z"
           id="path905" />
      </g>
      <g
         style="fill:#000000;fill-opacity:1;stroke-linejoin:miter"
         id="g911"
         transform="rotate(90,259.41968,748.93978)">
        <path
           d="m 552.618,222.77501 c -0.0406,-0.16472 -0.17385,-0.53314 -0.32357,-0.99931 -0.14963,-0.46616 -0.31833,-1.02997 -0.51543,-1.68848 -0.1971,-0.65852 -0.42176,-1.41287 -0.5754,-2.16927 -0.15355,-0.75639 -0.28575,-1.61532 -0.4454,-2.56501 -0.1596,-0.94968 -0.35335,-1.98858 -0.58016,-3.11692 -0.22681,-1.12832 -0.48578,-2.34636 -0.63884,-3.07605 -0.15303,-0.72967 -0.1924,-0.96954 -0.23366,-1.23694 -0.0413,-0.26738 -0.0872,-0.56135 -0.13014,-0.88275 -0.043,-0.32141 -0.0899,-0.66885 -0.1557,-1.53744 -0.0657,-0.86859 -0.10454,-2.18129 -0.0586,-3.32636 0.0459,-1.14506 0.16194,-2.11845 0.35744,-2.91168 0.1954,-0.79324 0.44694,-1.40355 0.98796,-2.10559 0.54104,-0.70204 1.43604,-1.67999 2.29594,-2.50298 0.85994,-0.82298 1.6621,-1.51974 2.43495,-2.06556 0.77289,-0.54584 1.51635,-0.94399 1.98785,-1.15143 0.4715,-0.20746 0.5256,-0.2225 0.8674,-0.1423 0.34184,0.0802 0.9193,0.33917 1.6716,0.79972 0.7524,0.46056 1.6572,1.11876 2.47016,1.8716 0.81299,0.75282 1.45948,1.58667 1.94044,2.38928 0.48095,0.80263 0.806,1.57242 0.9849,2.31675 0.17885,0.74431 0.20955,1.4747 0.16176,2.03305 -0.0478,0.55836 -0.0954,0.87994 -0.16566,1.23037 -0.0702,0.35042 -0.168,0.72799 -0.29503,1.13137 -0.12702,0.40338 -0.2818,0.83259 -1.13677,2.21058 -0.855,1.37801 -2.3812,3.9104 -2.43477,4.01496 -0.0536,0.10453 -0.10173,0.21672 -0.14447,0.33642 -0.0427,0.11971 -0.0884,0.24327 -0.12956,0.33623 -0.0412,0.093 -0.0412,0.093 -0.0137,0.031 0,0 0.0549,-0.12395 0.12765,-0.23062 0.0726,-0.10669 0.1502,-0.20073 0.2284,-0.28397 0.0782,-0.0832 0.1571,-0.15594 2.25485,-2.24572 2.09778,-2.08979 2.43185,-2.65952 2.65505,-3.09955 0.2232,-0.44002 0.4151,-0.86873 0.57603,-1.28667 0.16087,-0.41794 0.28852,-0.82643 0.38097,-1.21677 0.0924,-0.39033 0.27583,-1.31416 0.27077,-2.33458 -0.005,-1.02043 -0.20517,-2.06005 -0.59363,-3.1069 -0.38844,-1.04684 -0.95709,-2.09759 -1.72754,-3.18684 -0.7705,-1.08925 -1.85333,-2.09658 -2.79016,-2.84709 -0.93684,-0.75051 -1.8103,-1.32105 -2.65944,-1.70963 -0.84905,-0.38856 -1.7307,-0.56378 -2.5459,-0.44002 -0.8152,0.12377 -1.8027,0.47507 -2.8474,1.01638 -1.04474,0.54129 -2.07763,1.23747 -3.0837,2.10406 -1.006,0.86658 -1.9659,1.91546 -2.93656,3.14682 -0.97064,1.23134 -1.47137,2.23161 -1.75818,3.24463 -0.28686,1.013 -0.43011,2.13381 -0.46476,3.36407 -0.0347,1.23027 0.0408,2.57766 0.22697,4.04344 0.18613,1.4658 0.27539,1.89773 0.34997,2.24698 0.0745,0.34926 0.14996,0.6735 0.21986,0.97411 0.0699,0.30061 0.1412,0.57687 0.2143,0.84531 0.073,0.26843 0.475,1.51307 0.8374,2.65991 0.36235,1.14682 0.69603,2.20314 0.99456,3.17065 0.29844,0.9675 0.56944,1.84435 0.81174,2.663 0.2423,0.81864 0.64047,1.64548 0.99594,2.32564 0.35546,0.68016 0.68146,1.2632 0.98776,1.744 0.30636,0.4808 0.5834,0.86244 0.7338,1.00784 0.23864,0.28407 0.2695,0.0696 0.3578,0.20827 z"
           id="path909" />
      </g>
      <g
         style="fill:#000000;fill-opacity:1;stroke-linejoin:miter"
         id="g915"
         transform="rotate(90,259.41968,748.93978)">
        <path
           d="m 604.4484,258.36752 c -0.6504,-0.43026 -2.0858,-1.09478 -3.62095,-1.83822 -1.53515,-0.74344 -3.17138,-1.58011 -4.90865,-2.52118 -1.7373,-0.94106 -3.5729,-1.99642 -5.42484,-3.23006 -1.85196,-1.23364 -3.51441,-2.5301 -4.81812,-3.67979 -1.30371,-1.14967 -2.24664,-2.13173 -2.80934,-2.91252 -0.56267,-0.7808 -0.7669,-1.27796 -0.8035,-1.59774 -0.0367,-0.31976 -0.0278,-0.42395 0.0179,-0.61056 0.0458,-0.1866 0.14234,-0.45386 0.31017,-0.78855 0.1678,-0.3347 0.4056,-0.73092 1.8909,-2.36392 1.4853,-1.63301 4.37047,-4.76748 4.56346,-5.01987 0.19299,-0.25238 0.33124,-0.46698 0.45274,-0.6907 0.1216,-0.22371 0.2245,-0.45923 0.3045,-0.70982 0.08,-0.2506 0.1201,-0.45343 0.17367,-0.86788 0.0535,-0.41446 0.0557,-0.8663 10e-4,-1.31486 -0.0545,-0.44857 -0.16211,-0.89 -0.31777,-1.32221 -0.1557,-0.4322 -0.3037,-0.73219 -0.4745,-1.10208 -0.1708,-0.36989 -0.4871,-0.78399 -0.87515,-1.15011 -0.38805,-0.36612 -0.85045,-0.72094 -1.39775,-1.08086 -0.5474,-0.35991 -1.06563,-0.65277 -0.9507,-0.54114 0.11486,0.11162 0.1061,0.1039 0.1073,0.14655 10e-4,0.0427 -0.006,0.12951 -0.0383,0.23016 -0.0322,0.10064 -0.2371,0.37407 1.6985,-1.78818 1.9356,-2.16226 2.7271,-3.3448 3.4409,-4.38514 0.7138,-1.04035 1.41055,-2.02938 2.0954,-2.96527 0.68484,-0.9359 1.351,-1.82729 1.9957,-2.68367 0.6447,-0.85639 0.69433,-0.94146 0.7341,-1.02869 0.0398,-0.0872 0.0755,-0.18233 0.11593,-0.28142 0.0404,-0.0991 0.0858,-0.20364 0.11887,-0.28668 0.0331,-0.083 0.0331,-0.083 0.011,-0.0277 0,0 -0.0441,0.11072 -0.0901,0.2122 -0.0461,0.10147 -0.1078,0.18621 -0.1707,0.25977 -0.0629,0.0735 -0.12523,0.13646 -0.589,0.467 -0.4637,0.33053 -1.33573,1.00068 -2.1997,1.76048 -0.86394,0.75979 -1.7225,1.60251 -2.5842,2.51764 -0.8617,0.91514 -1.7252,1.90238 -3.17244,3.33602 -1.4472,1.43366 -3.57066,3.40978 -3.79132,3.81467 -0.22064,0.40489 -0.28444,0.74268 -0.27008,1.06893 0.0144,0.32624 0.0902,0.62289 0.20534,0.88836 0.1151,0.26547 0.5602,0.83113 1.12236,1.23696 0.56214,0.4058 0.95274,0.72903 1.22784,0.99255 0.2751,0.26353 0.42817,0.44786 0.45716,0.49997 0.0289,0.0521 0.0688,0.24332 0.18609,0.56114 0.11725,0.31783 0.17365,0.54942 0.19989,0.75639 0.0263,0.20697 0.0264,0.39206 0.004,0.56055 -0.022,0.16847 -0.0804,0.3943 -0.0909,0.42389 -0.0105,0.0296 -0.0244,0.0525 -0.0536,0.0989 -0.0292,0.0464 -0.0763,0.11318 -0.1438,0.19742 -0.0675,0.0842 -0.0766,0.0953 -3.1287,3.08681 -3.05206,2.99151 -3.5925,3.81778 -3.8857,4.38824 -0.2932,0.57049 -0.5139,1.13633 -0.6632,1.7041 -0.1493,0.56779 -0.21306,1.14707 -0.1687,1.69274 0.0444,0.54567 0.26015,1.53073 0.9075,2.63481 0.6473,1.10408 1.6128,2.17634 2.89775,3.28924 1.28495,1.1129 2.90225,2.28623 4.87555,3.55399 1.9733,1.26775 4.0645,2.27187 6.0034,3.12006 1.939,0.84819 3.7811,1.56128 5.5244,2.13659 1.74326,0.57536 3.38913,0.99846 4.2139,1.04151 1.5455,0.24705 0.8633,-0.0928 1.5839,0.11117 z"
           id="path913" />
      </g>
      <g
         style="fill:#000000;fill-opacity:1;stroke-linejoin:miter"
         id="g919"
         transform="rotate(90,259.41968,748.93978)">
        <path
           d="m 607.9156,256.60947 c -0.1177,-0.33832 -0.4601,-0.98938 -0.8421,-1.69553 -0.3821,-0.70613 -0.7969,-1.47391 -1.2463,-2.30322 -0.4494,-0.82932 -0.9338,-1.72063 -1.4938,-2.63962 -0.5601,-0.91899 -1.1358,-1.73003 -1.7195,-2.51086 -0.5837,-0.78084 -1.1766,-1.53009 -1.7749,-2.251 -0.5983,-0.7209 -1.20216,-1.4134 -1.4818,-1.72508 -0.2797,-0.31166 -0.29226,-0.34033 -0.3007,-0.3652 -0.008,-0.0249 -0.0139,-0.0485 -0.0169,-0.0747 -0.003,-0.0262 -0.003,-0.0582 0.003,-0.0313 0.006,0.0269 0.008,0.0451 3.7e-4,0.0894 -0.008,0.0443 -0.0305,0.11174 -0.0751,0.19148 -0.0445,0.0797 -0.1095,0.15871 2.4e-4,0.10715 0.1098,-0.0515 0.48956,-0.3176 0.8573,-0.60449 0.3678,-0.28688 0.72601,-0.5914 1.07046,-0.91797 0.3444,-0.32655 0.6748,-0.67445 1.00437,-1.05095 0.32959,-0.3765 0.6261,-0.73932 0.88853,-1.07881 0.2625,-0.33949 0.4952,-0.65419 0.70253,-0.94516 0.20727,-0.29099 0.38373,-0.56632 0.79227,-1.35022 0.4086,-0.78392 0.9866,-1.98616 1.48074,-3.1164 0.49416,-1.13024 0.87016,-2.20261 1.14386,-3.21012 0.2737,-1.00751 0.4572,-1.94762 0.4542,-2.87386 -0.003,-0.92623 -0.1102,-1.14177 -0.2452,-1.33267 -0.135,-0.19091 -0.2888,-0.35164 -0.45106,-0.48221 -0.16229,-0.13057 -0.32824,-0.23444 -0.9505,-0.46851 -0.62224,-0.23407 -1.45074,-0.53134 -2.19404,-0.83017 -0.7433,-0.29884 -1.40045,-0.59802 -1.9724,-0.89201 -0.5719,-0.29399 -1.0556,-0.58441 -1.7585,-1.13554 -0.7029,-0.55115 -1.65154,-1.35048 -2.43413,-2.0434 -0.78257,-0.69293 -1.40363,-1.27032 -1.85457,-1.72812 -0.4509,-0.45781 -0.72106,-0.78023 -0.911,-1.05224 -0.18994,-0.27201 -0.335,-0.51648 -0.47186,-0.82351 -0.1369,-0.30702 -0.25769,-0.67883 -0.36139,-1.11369 -0.1037,-0.43487 -0.18481,-0.93213 -0.23205,-1.30386 -0.0473,-0.37172 -0.0711,-0.523 -0.0898,-0.659 -0.0187,-0.13602 -0.0324,-0.25613 -0.0411,-0.35928 -0.009,-0.10317 -0.0116,-0.18837 0.002,-0.37839 0.0132,-0.19003 0.0384,-0.56261 0.0502,-0.95596 0.0118,-0.39334 0.0162,-0.80674 0.0123,-1.24047 -0.004,-0.43373 -0.023,-0.88842 -0.205,-1.24879 -0.18206,-0.36035 -0.18206,-0.36035 -0.1973,-0.12978 0,0 -0.44027,0.43216 -0.52425,0.86269 -0.0839,0.43051 -0.16485,0.83765 -0.24829,1.22087 -0.0834,0.38322 -0.16916,0.74228 -0.25092,1.08751 -0.0818,0.34524 -0.10229,0.50001 -0.11494,0.63116 -0.0126,0.13115 -0.0226,0.27274 -0.0294,0.42566 -0.007,0.15293 -0.0104,0.31801 -0.0117,0.48423 -10e-4,0.16622 -0.01,0.75097 0.02,1.31634 0.0295,0.56537 0.0976,1.09218 0.21166,1.5808 0.11408,0.48861 0.27149,0.9416 0.46364,1.32572 0.19207,0.38413 0.39946,0.76626 0.77245,1.28635 0.37305,0.52011 0.88129,1.13156 1.53405,1.84876 0.6528,0.71718 1.45203,1.54576 2.4138,2.49887 0.9619,0.95309 1.5339,1.40922 2.1342,1.81788 0.6003,0.40866 1.277,0.80373 2.0282,1.19258 0.7511,0.38887 1.5775,0.77311 2.4635,1.14777 0.886,0.37467 0.6997,0.2916 0.65574,0.26348 -0.0439,-0.0281 -0.10114,-0.0763 -0.16467,-0.14818 -0.0636,-0.0719 -0.12403,-0.16518 -0.20017,-0.63222 -0.0763,-0.46704 -0.2136,0.21934 -0.4407,1.01448 -0.22705,0.79512 -0.537,1.68632 -0.898,2.68361 -0.36103,0.99728 -0.78236,2.09857 -1.2932,3.29051 -0.5109,1.19193 -0.5684,1.30823 -0.68636,1.52223 -0.11804,0.21401 -0.27384,0.4697 -0.47024,0.76 -0.1963,0.2903 -0.4242,0.61888 -0.678,0.97741 -0.25386,0.35856 -0.48885,0.66228 -0.73647,0.95108 -0.24763,0.28882 -0.5022,0.56351 -0.76803,0.82065 -0.2658,0.25714 -0.543,0.49655 -0.8497,0.73743 -0.30677,0.24086 -0.5409,0.44963 -0.6847,0.64242 -0.14386,0.19278 -0.2472,0.40033 -0.3119,0.60818 -0.0647,0.20783 -0.0965,0.40893 -0.10137,0.63038 -0.005,0.22145 0.029,0.46982 0.0819,0.68268 0.0528,0.21284 0.12657,0.41986 0.222,0.61749 0.0956,0.19762 0.2123,0.38239 0.37326,0.58029 0.16094,0.19789 0.81364,0.80396 1.45257,1.41486 0.63897,0.6109 1.27863,1.25262 1.91887,1.92517 0.6403,0.67255 1.28883,1.36949 1.9264,2.0817 0.6376,0.71222 1.24805,1.54161 1.8563,2.33938 0.60825,0.79776 1.1931,1.5231 1.75363,2.17569 0.56057,0.65257 1.10127,1.22818 1.41052,1.45576 0.5174,0.49847 0.42125,0.14156 0.62935,0.41247 z"
           id="path917" />
      </g>
    </g>
  </g>
</svg>
