<?xml version="1.0" encoding="UTF-8" standalone="no"?>
<!-- Created with Inkscape (http://www.inkscape.org/) -->

<svg
   width="268.67789em"
   height="268.67789em"
   viewBox="0 0 268.67789 268.67789"
   version="1.1"
   id="svg5"
   xml:space="preserve"
   xmlns="http://www.w3.org/2000/svg"
   xmlns:svg="http://www.w3.org/2000/svg"><defs
     id="defs2" /><g
     id="layer1"
     transform="translate(1605.0909,208.61128)"><g
       id="g53663"><rect
         style="display:inline;fill:none;fill-opacity:1;stroke:none;stroke-width:5.29167;stroke-dasharray:none;stroke-opacity:1"
         id="rect53391"
         width="268.67789"
         height="268.67789"
         x="-1605.0909"
         y="-208.61128" /><g
         id="g52677"
         transform="matrix(2.3218497,0,0,2.3218497,-3527.4445,-1324.055)"><g
           style="fill:#000000;fill-opacity:1;stroke-linejoin:miter"
           id="g50600"
           transform="matrix(0.0212301,0.88760364,-0.82571352,0.02282136,2056.9295,403.92004)"><path
             d="m 84.22503,1461.2756 c -0.133836,-0.2242 -0.4889,-0.6386 -0.89559,-1.0937 -0.4067,-0.4552 -0.864886,-0.9508 -1.38123,-1.4776 -0.51634,-0.5268 -1.091696,-1.0831 -1.30301,-1.3082 -0.21131,-0.2251 -0.2561,-0.3222 -0.28262,-0.3944 -0.02653,-0.072 -0.03352,-0.1128 -0.02098,-0.1085 0.01254,0 0.04017,0.077 -0.05099,-0.161 -0.09116,-0.2379 0.09232,0.2358 0.10614,0.1822 0.01383,-0.054 0.03625,-0.2248 0.06265,-0.4796 0.02639,-0.2548 0.06324,-0.5882 0.150944,-0.9055 0.0877,-0.3173 0.257316,-0.7893 0.441356,-1.2498 0.18403,-0.4603 0.3817,-0.9101 0.592694,-1.3503 0.210996,-0.4403 0.436976,-0.8713 0.447186,-1.3307 0.01021,-0.4593 0.11631,-0.7757 0.22575,-1.1034 0.109435,-0.3275 0.227,-0.6639 0.34975,-1.0106 0.12275,-0.3467 0.2509,-0.7037 0.51255,-1.3524 0.26164,-0.6486 0.626255,-1.5265 0.91443,-2.2576 0.28818,-0.7312 0.51023,-1.3099 0.66448,-1.7392 0.15425,-0.4295 0.24363,-0.7139 0.2906,-0.876 0.04698,-0.1623 0.11949,-0.401 0.19766,-0.7183 0.07817,-0.3172 0.16404,-0.7164 0.279415,-1.1918 0.115379,-0.4753 0.307265,-1.0113 0.462505,-1.4542 0.15525,-0.4429 0.15525,-0.4429 0.05175,-0.1476 0,0 -0.206994,0.5905 -0.410104,1.0924 -0.20311,0.502 -0.435,0.9018 -0.62988,1.2217 -0.19489,0.3198 -0.35186,0.558 -0.474756,0.7232 -0.122894,0.165 -0.215934,0.3147 -0.411369,0.5747 -0.195425,0.26 -0.497245,0.6554 -0.908185,1.1798 -0.41095,0.5244 -0.930614,1.1768 -1.55016,1.9711 -0.61955,0.7943 -0.86872,1.1533 -1.09279,1.4785 -0.22406,0.3252 -0.4339,0.6485 -0.63459,0.9672 -0.20069,0.3189 -0.39245,0.6331 -0.56846,0.9407 -0.176,0.3075 -0.699696,0.6907 -0.87554,1.2545 -0.17584,0.5639 -0.3197,1.1352 -0.43641,1.7108 -0.11671,0.5759 -0.20004,1.1573 -0.266286,1.7838 -0.06624,0.6265 -0.04265,1.1683 -0.01361,1.4919 0.02905,0.3235 0.05404,0.577 0.08103,0.7707 0.02698,0.1939 0.05449,0.3741 0.107325,0.5403 0.05282,0.1662 0.0041,0.01 0.07119,0.1897 0.06706,0.1824 0.14725,0.3284 0.2376,0.4605 0.09035,0.1322 0.19158,0.2594 0.40473,0.4919 0.21316,0.2327 0.98696,0.6632 1.65945,1.0303 0.672484,0.3669 1.28849,0.7059 1.85003,1.0146 0.561544,0.3089 1.06236,0.5962 1.31823,0.7015 0.44102,0.2666 0.54195,-0.2231 0.72711,-0.062 z"
             id="path50598" /></g><g
           style="fill:#000000;fill-opacity:1;stroke-linejoin:miter"
           id="g50604"
           transform="matrix(0.0212301,0.88760364,-0.82571352,0.02282136,2056.9295,403.92004)"><path
             d="m 83.99343,1400.8019 c -0.12096,-0.2084 -0.41542,-0.6069 -0.7112,-1.0653 -0.29578,-0.4583 -0.5933,-0.9765 -0.90023,-1.5501 -0.30692,-0.5735 -0.623486,-1.2036 -0.79545,-1.5759 -0.17198,-0.3722 -0.21506,-0.5154 -0.2726,-0.7295 -0.05754,-0.2142 -0.12455,-0.493 -0.19963,-0.832 -0.07509,-0.3391 -0.168145,-0.7332 -0.20558,-0.9629 -0.03743,-0.2298 -0.04408,-0.3832 -0.0405,-0.5403 0.0036,-0.1571 0.01614,-0.3176 0.03683,-0.4822 0.02071,-0.1647 0.04968,-0.3334 0.12854,-0.7082 0.07886,-0.375 0.209595,-0.9202 0.121795,-1.4307 -0.08781,-0.5106 -0.03827,-0.9293 0.02422,-1.2725 0.0625,-0.343 0.137596,-0.6077 0.252496,-0.8776 0.11489,-0.2701 0.20365,-0.4893 0.29065,-0.695 0.08699,-0.2057 0.17229,-0.3977 0.254774,-0.5763 0.08249,-0.1786 0.161042,-0.3447 0.393966,-0.7695 0.232934,-0.4248 0.60336,-1.0885 0.914025,-1.6714 0.310669,-0.5829 0.559715,-1.0861 0.752865,-1.5049 0.193134,-0.4189 0.33022,-0.7538 0.47453,-1.0229 0.14432,-0.2693 0.34824,-0.4977 0.520385,-0.6878 0.172145,-0.19 0.30278,-0.3515 0.391905,-0.4844 0.08914,-0.1329 0.13676,-0.2371 0.15172,-0.301 0.01496,-0.064 0.01496,-0.064 0.005,-0.021 0,0 -0.01995,0.085 -0.08141,0.1988 -0.06146,0.1138 -0.164429,0.2563 -0.308899,0.4273 -0.14447,0.171 -0.330455,0.3706 -0.585425,0.5775 -0.254976,0.2069 -0.439515,0.4418 -0.696435,0.7273 -0.25692,0.2856 -0.59343,0.6329 -1.00837,1.0431 -0.41494,0.4101 -0.901965,0.8879 -1.47068,1.4327 -0.568725,0.5448 -0.723055,0.7127 -0.866915,0.8743 -0.143865,0.1616 -0.28937,0.3365 -0.43878,0.5231 -0.1494,0.1865 -0.30283,0.3851 -0.4521,0.5813 -0.14926,0.1961 -0.38771,0.497 -0.63419,0.9254 -0.24647,0.4284 -0.46196,0.9151 -0.648985,1.4629 -0.187035,0.5476 -0.581909,1.1233 -0.594421,1.8112 -0.01252,0.6882 -0.0034,0.9843 0.01945,1.2481 0.02287,0.2638 0.05753,0.5227 0.10412,0.7764 0.0466,0.2537 0.10327,0.5023 0.18178,0.7871 0.0785,0.2849 0.28258,0.7539 0.46281,1.1299 0.18024,0.3759 0.35108,0.7005 0.50644,0.9787 0.15535,0.2783 0.29778,0.5142 0.43949,0.7232 0.14172,0.2089 0.65591,0.8005 1.157374,1.3276 0.501466,0.5271 0.987756,0.9911 1.457366,1.3915 0.46961,0.4004 0.91694,0.7409 1.16132,0.8642 0.42202,0.2781 0.530316,-0.2048 0.70795,-0.05 z"
             id="path50602" /></g><g
           style="fill:#000000;fill-opacity:1;stroke-linejoin:miter"
           id="g50608"
           transform="matrix(0.0212301,0.88760364,-0.82571352,0.02282136,2056.9295,403.92004)"><path
             d="m 106.42603,1460.6375 c -0.10509,-0.076 -0.48743,-0.3036 -1.09677,-0.7073 -0.60933,-0.4037 -1.44291,-0.9782 -2.51006,-1.7019 -1.06715,-0.7238 -2.36385,-1.605 -3.24595,-2.201 -0.8821,-0.5959 -1.23253,-0.8754 -1.54432,-1.1296 -0.31178,-0.254 -0.58182,-0.4847 -0.80885,-0.6904 -0.22703,-0.2056 -0.40972,-0.3823 -0.40779,-0.3882 0.0019,-0.01 0.07496,0.082 0.12486,0.1606 0.04989,0.079 0.07935,0.1391 0.09618,0.1726 0.01681,0.034 0.02893,0.038 0.03728,-0.1076 0.0084,-0.1458 0.02676,-0.2584 0.05022,-0.3343 0.02348,-0.076 0.04718,-0.1129 0.0625,-0.1127 0.01532,10e-5 0.01505,0.034 0.332126,-0.4172 0.31708,-0.4506 0.5706,-1.6307 1.041745,-2.7608 0.471155,-1.13 0.946165,-2.3308 1.404235,-3.6131 0.458074,-1.2823 0.914324,-2.6383 1.185614,-3.4718 0.27129,-0.8335 0.39467,-1.1156 0.49503,-1.3393 0.10036,-0.2238 0.17676,-0.3878 0.22383,-0.4879 0.047,-0.1 0.0414,-0.1121 -0.0937,-0.2845 -0.1351,-0.1723 -0.1351,-0.1723 -0.14712,-0.165 0,0 -0.33028,-0.3081 -0.42316,-0.2178 -0.0929,0.091 -0.20282,0.2078 -0.34639,0.3697 -0.14357,0.1618 -0.32351,0.3698 -0.55501,0.6508 -0.23151,0.281 -1.064554,1.5107 -1.840954,2.6663 -0.77641,1.1558 -1.507946,2.2505 -2.193645,3.2852 -0.685705,1.0346 -1.34256,2.0002 -1.995781,2.8923 -0.653224,0.892 -0.781164,1.1605 -0.885948,1.4817 -0.104786,0.3211 -0.162506,0.641 -0.183726,0.9554 -0.02122,0.3145 -0.01165,0.624 0.0211,0.9014 0.03274,0.2773 0.05185,0.4246 0.09558,0.6617 0.04372,0.2372 0.1144,0.4806 0.221274,0.7267 0.106876,0.2461 0.255406,0.4872 0.472406,0.7321 0.216986,0.245 0.51027,0.4634 0.81816,0.666 0.3079,0.2026 0.65057,0.4034 1.02762,0.6088 0.377035,0.2053 0.79154,0.4132 1.27743,0.6429 0.48589,0.2299 2.14498,0.8728 3.550214,1.3571 1.40524,0.4842 2.55988,0.8491 3.45916,1.1046 0.89928,0.2556 1.53798,0.4161 1.78551,0.4463 0.37943,0.067 0.36522,-0.3888 0.49712,-0.3518 z"
             id="path50606" /></g><g
           style="fill:#000000;fill-opacity:1;stroke-linejoin:miter"
           id="g50612"
           transform="matrix(0.0212301,0.88760364,-0.82571352,0.02282136,2056.9295,403.92004)"><path
             d="m 104.41975,1437.3512 c 0.22531,0.4425 0.72854,1.2261 1.14672,2.0172 0.4182,0.7911 0.7595,1.5872 1.02684,2.3916 0.26734,0.8045 0.45636,1.6233 0.57915,2.3098 0.12278,0.6864 0.19193,1.2402 0.4956,1.7162 0.30368,0.476 0.47375,0.9614 0.62521,1.4288 0.15147,0.4675 0.28894,0.9161 0.49724,1.7625 0.2083,0.8464 0.50764,2.1379 0.55367,2.3743 0.046,0.2363 0.0849,0.4381 0.11612,0.5964 0.0312,0.1584 0.0549,0.2738 0.0713,0.3489 0.0164,0.075 0.0246,0.1 0.0487,0.1946 0.0241,0.095 0.0602,0.2253 0.10819,0.39 0.048,0.1646 0.10786,0.3639 0.16732,0.5993 0.0595,0.2355 0.0978,0.5105 0.10088,0.5292 0.003,0.019 0.005,0.079 0.007,0.1801 0.002,0.1013 0.002,0.2439 0.003,0.3714 2.1e-4,0.1277 2.1e-4,0.1277 7e-5,0.043 0,0 -2.9e-4,-0.1701 -10e-4,-0.2989 -0.001,-0.1289 -0.003,-0.2165 -0.005,-0.2627 -0.003,-0.046 -0.006,-0.051 -0.0339,-0.3155 -0.0279,-0.2641 -0.0208,-0.496 -0.0135,-0.6907 0.007,-0.1947 0.0147,-0.352 0.0224,-0.4711 0.008,-0.1192 0.015,-0.205 0.0179,-0.2434 0.003,-0.039 0.0127,-0.121 0.0291,-0.2488 0.0164,-0.1279 0.0397,-0.3004 0.0698,-0.5168 0.0301,-0.2166 0.0662,-0.4952 0.16602,-1.8279 0.0998,-1.3328 0.10158,-1.8467 0.0867,-2.3557 -0.0148,-0.5092 -0.0461,-1.0404 -0.0914,-1.5943 -0.0453,-0.5537 0.12529,-1.1853 -0.0885,-1.7671 -0.2138,-0.5819 -0.5971,-1.4944 -1.08869,-2.3545 -0.49159,-0.8601 -1.05769,-1.6589 -1.70513,-2.3881 -0.64745,-0.7294 -1.37454,-1.3849 -1.81845,-1.6385 -0.78778,-0.5899 -0.74833,0.058 -1.0922,-0.2789 z"
             id="path50610" /></g><g
           style="fill:#000000;fill-opacity:1;stroke-linejoin:miter"
           id="g50616"
           transform="matrix(0.0212301,0.88760364,-0.82571352,0.02282136,2056.9295,403.92004)"><path
             d="m 104.32166,1404.2688 c -0.16456,-0.5123 -0.57432,-1.6211 -0.91573,-3.0011 -0.34141,-1.38 -0.62291,-3.0389 -0.86934,-4.9794 -0.24644,-1.9403 -0.46256,-4.167 -0.54457,-5.0571 -0.082,-0.8901 -0.16489,-0.5873 -0.26621,-0.3962 -0.10131,0.191 -0.17389,0.2863 -0.19699,0.3216 -0.0231,0.035 0.004,0.032 0.11542,-0.019 0.11148,-0.051 0.2712,-0.1133 0.56064,-0.2227 0.28943,-0.1094 0.6913,-0.254 1.19514,-0.4318 0.50384,-0.1777 1.10565,-0.391 1.59923,-0.5834 0.49359,-0.1922 0.67494,-0.2904 0.84363,-0.3942 0.16869,-0.1038 0.32822,-0.2127 0.48228,-0.3272 0.15407,-0.1144 0.30394,-0.2339 1.46981,-1.614 1.16586,-1.3803 2.58343,-3.6804 1.0328,-3.3137 -1.55064,0.3666 -1.46946,0.4067 -1.44141,0.4149 0.0281,0.01 -0.01,-0.036 -0.13074,-0.1937 -0.12117,-0.1577 -0.13432,-0.1779 0.20201,0.2912 0.33633,0.4693 0.66377,0.9363 0.98738,1.4178 0.32362,0.4814 0.64079,0.9782 0.94701,1.4929 0.30622,0.5146 0.60883,1.0226 0.91412,1.5786 0.30527,0.556 0.57914,1.1167 0.81798,1.6924 0.23882,0.5758 0.44247,1.1674 0.61061,1.7762 0.16813,0.6088 0.29572,1.1405 0.29597,1.504 2.6e-4,0.3637 -0.0391,0.888 -0.11493,1.5007 -0.0758,0.6126 -0.19285,1.309 -0.35095,2.0863 -0.1581,0.7771 -0.336,1.604 -0.47749,1.9301 -0.14151,0.3261 -0.35002,0.7298 -0.6035,1.179 -0.25348,0.4491 -0.5531,0.9413 -0.90055,1.4734 -0.34746,0.5321 -0.7748,1.0715 -0.86179,1.1814 -0.087,0.1098 -0.16699,0.2203 -0.23998,0.3313 -0.073,0.1111 -0.139,0.2227 -0.18501,0.3069 -0.046,0.084 -0.046,0.084 -0.0153,0.028 0,0 0.0613,-0.1121 0.12967,-0.2235 0.0683,-0.1115 0.14366,-0.2223 0.22599,-0.3325 0.0823,-0.1104 0.17165,-0.22 0.69566,-0.6442 0.524,-0.4242 1.01159,-0.8147 1.4471,-1.1882 0.4355,-0.3736 0.81472,-0.735 1.14149,-1.0834 0.32678,-0.3485 0.63748,-0.7512 1.06841,-1.5428 0.43093,-0.7917 0.78795,-1.5205 1.0877,-2.2016 0.29976,-0.6811 0.53658,-1.3188 0.71084,-1.9181 0.17427,-0.5992 0.28388,-1.2992 0.25901,-2.1107 -0.0249,-0.8116 -0.0945,-1.5749 -0.21158,-2.3363 -0.11711,-0.7613 -0.28196,-1.5199 -0.49601,-2.274 -0.21405,-0.7543 -0.47907,-1.4865 -0.73009,-2.1039 -0.25101,-0.6175 -0.51074,-1.2135 -0.77109,-1.8028 -0.26034,-0.5892 -0.52811,-1.168 -0.80481,-1.7364 -0.27669,-0.5682 -0.5521,-1.0927 -0.71828,-1.3352 -0.16619,-0.2427 -0.39559,-0.4918 -0.60494,-0.6785 -0.20935,-0.1866 -0.4116,-0.3442 -0.62093,-0.4932 -0.20933,-0.149 -3.78336,0.316 -5.4736,2.7552 -1.69023,2.4393 -1.41336,2.1245 -1.45882,2.1748 -0.0455,0.05 -0.0787,0.086 -0.0966,0.1084 -0.0179,0.022 -0.0175,0.03 0.0566,10e-4 0.0741,-0.029 -0.55281,0.2893 -1.11736,0.5816 -0.56456,0.2924 -1.04047,0.5535 -1.43604,0.778 -0.39556,0.2246 -0.719565,0.418 -0.96863,0.5812 -0.24906,0.1632 -0.42732,0.2882 -0.64975,0.4658 -0.222416,0.1776 -0.445454,0.3961 -0.66302,0.6861 -0.21756,0.2902 -0.404695,0.6803 -0.47908,1.3194 -0.0744,0.6389 0.55018,3.0825 1.21197,5.2331 0.6618,2.1507 1.35779,3.9988 2.11847,5.5291 0.76068,1.5303 1.55749,2.7414 2.0388,3.1965 0.80101,0.8823 0.82974,0.1945 1.14944,0.6216 z"
             id="path50614" /></g><g
           style="fill:#000000;fill-opacity:1;stroke-linejoin:miter"
           id="g50620"
           transform="matrix(0.0212301,0.88760364,-0.82571352,0.02282136,2056.9295,403.92004)"><path
             d="m 148.45804,1443.9503 c -0.36417,-0.3922 -1.08669,-1.0434 -1.67606,-1.7051 -0.58937,-0.6616 -1.05394,-1.3264 -1.39938,-1.9976 -0.34543,-0.6714 -0.57355,-1.355 -0.62718,-1.4666 -0.0536,-0.1117 -0.0795,0.1067 -0.13909,0.2659 -0.0596,0.1591 -0.11924,0.2552 -0.15597,0.3044 -0.0367,0.049 -0.0469,0.067 0.10338,0.078 0.1503,0.01 0.75804,-0.1596 1.32076,-0.3551 0.56274,-0.1956 1.083,-0.4163 1.56052,-0.6681 0.47753,-0.2518 0.91442,-0.5364 1.43996,-1.023 0.52556,-0.4867 0.97121,-0.9846 1.36334,-1.498 0.39215,-0.5135 0.73216,-1.0419 1.01917,-1.5869 0.28701,-0.5451 0.51735,-1.1083 0.67587,-1.6066 0.15851,-0.4983 0.28082,-0.9517 0.38277,-1.4142 0.10194,-0.4626 -0.0757,-0.96 -0.0735,-1.4357 0.002,-0.4757 -0.0149,-0.9548 -0.0407,-1.3111 -0.0258,-0.3563 -0.0454,-0.4999 -0.0648,-0.6331 -0.0194,-0.1332 -0.0388,-0.2571 -0.0589,-0.3752 -0.0202,-0.1183 -0.0425,-0.236 -0.2229,-0.8773 -0.18046,-0.6414 -0.49442,-1.6657 -0.77955,-3.2677 -0.28514,-1.6021 -0.29763,-1.665 -0.30709,-1.6899 -0.009,-0.025 -0.0362,-0.2343 -0.0783,-0.5626 -0.0421,-0.3284 -0.0998,-0.7723 -0.1721,-1.3042 -0.0722,-0.532 -0.2706,-3.1898 -0.39798,-4.6815 -0.1274,-1.4917 -0.1375,-1.814 -0.13635,-2.1415 0.001,-0.3276 0.0333,-0.6562 0.11032,-0.98 0.077,-0.3238 0.16528,-0.6493 0.23717,-0.8943 0.0719,-0.2448 0.0719,-0.2448 0.024,-0.082 0,0 -0.0958,0.3265 -0.18037,0.6514 -0.0845,0.3249 -0.15773,0.6482 -0.26297,0.9625 -0.10523,0.3143 -0.209,0.6284 -0.30163,0.9481 -0.0926,0.3197 -0.6886,2.9369 -1.00909,4.5778 -0.32048,1.6408 -0.39129,2.1633 -0.44578,2.5736 -0.0545,0.4101 -0.0888,0.7091 -0.10746,0.9055 -0.0186,0.1965 -0.0125,0.401 -0.0437,1.1915 -0.0312,0.7906 -0.0684,2.5356 0.0418,3.7702 0.11017,1.2347 0.10024,1.2147 0.0965,1.2492 -0.004,0.034 -0.007,0.096 -0.0119,0.179 -0.005,0.083 -0.0109,0.1859 -0.0196,0.2679 -0.009,0.082 -0.0509,0.4612 -0.10452,0.8317 -0.0536,0.3704 -0.11723,0.7297 -0.26332,1.0674 -0.14609,0.3377 -0.16969,0.6835 -0.20503,1.0166 -0.0353,0.3332 -0.0815,0.6564 -0.16007,0.9748 -0.0786,0.3184 -0.20353,0.6715 -0.37901,1.0567 -0.17548,0.3851 -0.39908,0.803 -0.64241,1.2143 -0.24335,0.4113 -0.31403,0.4993 -0.55196,0.708 -0.23793,0.2088 -0.54054,0.4367 -0.9078,0.6773 -0.36727,0.2406 -0.79695,0.494 -1.32053,0.7661 -0.52357,0.272 -0.92965,0.5253 -1.0561,0.6482 -0.12644,0.1228 -0.25277,0.2772 -0.3702,0.4846 -0.11743,0.2074 -0.20189,0.4783 -0.17378,0.9279 0.0281,0.4496 0.44611,1.2784 1.02209,2.0516 0.57598,0.7731 1.26021,1.4516 2.05143,2.0282 0.7912,0.5767 1.68611,1.0474 2.20984,1.1805 0.98089,0.3808 0.73109,-0.2495 1.18826,0 z"
             id="path50618" /></g></g></g></g></svg>
