<?xml version="1.0" encoding="UTF-8" standalone="no"?>
<svg
   version="1.1"
   width="135.38521"
   height="135.38521"
   viewBox="0 0 135.38521 135.38521"
   id="svg1214"
   xmlns="http://www.w3.org/2000/svg"
   xmlns:svg="http://www.w3.org/2000/svg">
  <defs
     id="defs1218" />
  <g
     id="g6341"
     transform="translate(-97.640701,-708.71716)">
    <rect
       style="display:inline;opacity:0.5;fill:none;fill-opacity:1;stroke:none;stroke-width:2.66644;stroke-dasharray:none;stroke-opacity:1"
       id="rect5351"
       width="135.38521"
       height="135.38521"
       x="97.640701"
       y="708.71716" />
    <g
       id="g4096"
       transform="matrix(1.1709984,0,0,1.1709984,650.47115,67.107834)">
      <g
         style="fill:#000000;fill-opacity:1;stroke-linejoin:miter"
         id="g163"
         transform="rotate(90,259.41968,748.93978)">
        <path
           d="m 84.12839,1461.3865 c -0.13287,-0.2234 -0.48697,-0.6355 -0.90236,-1.0767 -0.41539,-0.441 -0.89526,-0.9055 -1.43191,-1.402 -0.53665,-0.4964 -1.12987,-1.0249 -1.397605,-1.2734 -0.267745,-0.2485 -0.324405,-0.3499 -0.364895,-0.4298 -0.04049,-0.08 -0.06275,-0.1354 -0.06679,-0.1572 -0.0041,-0.022 0.0072,0.01 -0.05689,-0.1599 -0.06404,-0.1648 0.053,0.134 0.05753,0.059 0.0045,-0.075 0.01423,-0.2528 0.03387,-0.5114 0.01966,-0.2585 0.04709,-0.5944 0.118316,-0.9621 0.07124,-0.3677 0.21198,-0.8617 0.37616,-1.3445 0.164185,-0.4828 0.34182,-0.9575 0.53915,-1.4226 0.19732,-0.4651 0.41435,-0.9209 0.5507,-1.33 0.136354,-0.4089 0.259584,-0.7218 0.3896,-1.0434 0.13,-0.3217 0.265835,-0.6525 0.412724,-0.9898 0.146886,-0.3374 0.298576,-0.6846 0.604256,-1.3147 0.30567,-0.63 0.7196,-1.4786 1.054214,-2.1827 0.334616,-0.7041 0.582956,-1.2682 0.759396,-1.6867 0.17645,-0.4183 0.2835,-0.698 0.33731,-0.8546 0.05381,-0.1566 0.13701,-0.3957 0.22602,-0.7118 0.08901,-0.316 0.18472,-0.7136 0.28538,-1.1959 0.10067,-0.4823 0.204295,-1.0504 0.34784,-1.4974 0.14356,-0.4471 0.14356,-0.4471 0.04006,-0.1518 0,0 -0.230374,0.5822 -0.496164,1.0606 -0.26579,0.4784 -0.490004,0.8793 -0.6742,1.2008 -0.1842,0.3216 -0.33103,0.5604 -0.44517,0.7282 -0.114126,0.168 -0.20033,0.3228 -0.375654,0.5904 -0.175331,0.2677 -0.455296,0.6746 -0.832976,1.2178 -0.37769,0.5433 -0.844705,1.2267 -1.4091,2.052 -0.56439,0.8253 -0.786504,1.1887 -0.9852,1.5244 -0.198696,0.3358 -0.387455,0.6666 -0.567615,0.9918 -0.180155,0.3252 -0.353569,0.644 -0.510745,0.9572 -0.15718,0.3129 -0.44912,0.7894 -0.634336,1.3288 -0.185219,0.5394 -0.346614,1.0851 -0.482244,1.637 -0.13564,0.552 -0.24086,1.1113 -0.33029,1.7026 -0.08942,0.5913 -0.08128,1.0807 -0.05967,1.4015 0.02162,0.3208 0.03856,0.5698 0.05429,0.7542 0.01573,0.1843 0.03444,0.3343 0.07231,0.4497 0.03786,0.1153 0.0069,0.03 0.05727,0.1736 0.05039,0.144 0.114344,0.2685 0.1899,0.3885 0.07555,0.1199 0.16317,0.2411 0.33252,0.4365 0.16935,0.1955 0.906034,0.6493 1.55702,1.0488 0.650985,0.3995 1.25151,0.762 1.79664,1.0949 0.54512,0.3329 1.0397,0.6312 1.29654,0.7379 0.44198,0.2683 0.34963,4e-4 0.53479,0.1619 z"
           id="path161" />
      </g>
      <g
         style="fill:#000000;fill-opacity:1;stroke-linejoin:miter"
         id="g167"
         transform="rotate(90,259.41968,748.93978)">
        <path
           d="m 83.896835,1400.9127 c -0.123745,-0.2109 -0.423385,-0.6139 -0.734085,-1.0667 -0.3107,-0.453 -0.635666,-0.9565 -0.97249,-1.5154 -0.33681,-0.559 -0.68514,-1.175 -0.885176,-1.5498 -0.200034,-0.3748 -0.259664,-0.5286 -0.334624,-0.7474 -0.07497,-0.2187 -0.163804,-0.4974 -0.26241,-0.8344 -0.09859,-0.3371 -0.20303,-0.7324 -0.260296,-0.9909 -0.05726,-0.2584 -0.07487,-0.4275 -0.08291,-0.6004 -0.008,-0.1731 -0.01046,-0.3499 -0.0025,-0.5315 0.008,-0.1815 0.02662,-0.3675 0.08705,-0.7652 0.06042,-0.3975 0.163635,-0.9671 0.218575,-1.4719 0.05495,-0.5046 0.133384,-0.9343 0.23155,-1.2859 0.09816,-0.3517 0.20551,-0.6258 0.338266,-0.8873 0.132759,-0.2615 0.236594,-0.4745 0.337829,-0.6739 0.101235,-0.1995 0.199905,-0.3854 0.293025,-0.5594 0.09311,-0.1741 0.183385,-0.3343 0.44707,-0.7386 0.26369,-0.4043 0.66742,-1.0423 1.00689,-1.6044 0.33947,-0.562 0.61376,-1.049 0.82155,-1.4617 0.207794,-0.4126 0.35481,-0.7479 0.49109,-0.9983 0.136275,-0.2503 0.31749,-0.5051 0.45988,-0.7253 0.14241,-0.2203 0.24709,-0.4042 0.33315,-0.5394 0.08607,-0.1353 0.13369,-0.2395 0.14865,-0.3034 0.01496,-0.064 0.01496,-0.064 0.005,-0.021 0,0 -0.01995,0.085 -0.08141,0.1988 -0.06146,0.1138 -0.170564,0.2515 -0.342214,0.3975 -0.171656,0.146 -0.38871,0.3129 -0.6594,0.5157 -0.270694,0.2029 -0.46259,0.4572 -0.70779,0.7448 -0.2452,0.2876 -0.56592,0.6428 -0.952965,1.0719 -0.387039,0.4291 -0.847005,0.9269 -1.374645,1.5032 -0.52764,0.5764 -0.66931,0.7479 -0.80178,0.915 -0.13247,0.167 -0.26778,0.3461 -0.403516,0.5388 -0.135744,0.1927 -0.274654,0.3975 -0.410194,0.6028 -0.135536,0.2053 -0.35064,0.5111 -0.56455,0.9302 -0.21391,0.419 -0.39094,0.8979 -0.54517,1.4354 -0.154234,0.5375 -0.300314,1.1343 -0.34041,1.8012 -0.0401,0.6668 -0.04023,0.9355 -0.02794,1.1821 0.01229,0.2466 0.03234,0.4888 0.06504,0.7264 0.0327,0.2377 0.07894,0.4702 0.141535,0.7255 0.0626,0.2554 0.24788,0.7104 0.41072,1.0869 0.16283,0.3765 0.31006,0.7028 0.44499,0.9797 0.13493,0.2771 0.26153,0.5064 0.384286,0.7 0.122754,0.1937 0.602188,0.8002 1.070839,1.3428 0.468645,0.5426 0.929015,1.0189 1.375855,1.4306 0.44684,0.4119 0.88243,0.7552 1.12283,0.875 0.41803,0.2746 0.33314,0.013 0.510775,0.1681 z"
           id="path165" />
      </g>
      <g
         style="fill:#000000;fill-opacity:1;stroke-linejoin:miter"
         id="g171"
         transform="rotate(90,259.41968,748.93978)">
        <path
           d="m 106.38628,1460.7789 c -0.11325,-0.079 -0.50363,-0.3091 -1.12308,-0.6991 -0.61946,-0.39 -1.47668,-0.9201 -2.57362,-1.5878 -1.09696,-0.6679 -2.43848,-1.464 -3.36097,-2.0284 -0.92249,-0.5644 -1.29105,-0.8282 -1.62094,-1.071 -0.32989,-0.2427 -0.62022,-0.4641 -0.86827,-0.6663 -0.248046,-0.2021 -0.45237,-0.3832 -0.50198,-0.4319 -0.04962,-0.049 -0.02315,-0.02 -0.0076,-6e-4 0.01557,0.019 0.02197,0.023 0.02401,0.01 0.002,-0.017 0.0037,-0.057 0.003,-0.2123 -7.3e-4,-0.1553 0.0066,-0.3043 0.02329,-0.4246 0.01674,-0.1202 0.03997,-0.2107 0.06497,-0.2718 0.02499,-0.061 0.04757,-0.095 0.35582,-0.5817 0.30824,-0.4864 0.789786,-1.531 1.30969,-2.6294 0.51991,-1.0984 1.05012,-2.2666 1.58475,-3.5077 0.53463,-1.2411 1.06988,-2.557 1.39659,-3.3635 0.3267,-0.8065 0.46297,-1.0806 0.57349,-1.2974 0.11051,-0.2169 0.19419,-0.3752 0.24611,-0.469 0.0519,-0.094 0.0433,-0.096 -0.11557,-0.2935 -0.15889,-0.1974 -0.15889,-0.1974 -0.17091,-0.1901 0,0 -0.37784,-0.3581 -0.47032,-0.2596 -0.0925,0.098 -0.19645,0.2218 -0.33176,0.3897 -0.13531,0.168 -0.30418,0.3833 -0.5207,0.6728 -0.21653,0.2894 -0.95581,1.5642 -1.65231,2.7611 -0.6965,1.197 -1.35572,2.3316 -1.98945,3.398 -0.63373,1.0664 -1.24182,2.0645 -1.80056,3.0143 -0.55873,0.95 -0.66529,1.1668 -0.75157,1.4224 -0.08628,0.2556 -0.1388,0.5165 -0.16276,0.7807 -0.02396,0.2642 -0.02286,0.532 -0.0014,0.7864 0.02144,0.2543 0.03387,0.3922 0.06611,0.5828 0.03224,0.1905 0.08589,0.381 0.16608,0.5691 0.0802,0.1881 0.190386,0.3691 0.347445,0.5486 0.157065,0.1794 0.420555,0.3844 0.707321,0.585 0.286764,0.2007 0.608034,0.4081 0.965264,0.6239 0.35723,0.2157 0.75485,0.4347 1.20954,0.678 0.45469,0.2433 2.07727,0.9381 3.4454,1.4923 1.36813,0.5542 2.49257,0.9762 3.37327,1.2653 0.88069,0.2891 1.51267,0.4542 1.7521,0.4817 0.37134,0.064 0.27761,-0.1086 0.40952,-0.072 z"
           id="path169" />
      </g>
      <g
         style="fill:#000000;fill-opacity:1;stroke-linejoin:miter"
         id="g175"
         transform="rotate(90,259.41968,748.93978)">
        <path
           d="m 104.52259,1437.2461 c 0.22838,0.4453 0.75523,1.2199 1.21509,1.9957 0.45986,0.7759 0.85158,1.5611 1.17052,2.3646 0.31896,0.8035 0.57161,1.6265 0.72507,2.3255 0.15346,0.6991 0.25884,1.251 0.41409,1.7661 0.15524,0.515 0.29193,1.0106 0.41181,1.4866 0.11987,0.4758 0.22957,0.9309 0.37938,1.7854 0.14982,0.8545 0.37698,2.1507 0.40954,2.3857 0.0326,0.2351 0.0625,0.4374 0.0885,0.5964 0.026,0.1592 0.046,0.2758 0.0603,0.3548 0.0143,0.079 0.0216,0.1029 0.0426,0.1985 0.021,0.096 0.0536,0.2282 0.0989,0.3943 0.0453,0.1659 0.10195,0.3662 0.17075,0.6008 0.0688,0.2347 0.15266,0.5045 0.1585,0.5188 0.006,0.014 0.018,0.072 0.0363,0.1721 0.0183,0.1003 0.0426,0.2427 0.0525,0.3702 0.01,0.1276 0.01,0.1276 0.01,0.043 0,0 0.0192,-0.1703 0.0394,-0.2995 0.0202,-0.1293 0.0328,-0.2181 0.0373,-0.2707 0.004,-0.053 0.002,-0.056 0.008,-0.3244 0.006,-0.2681 0.01,-0.4991 0.0137,-0.6927 0.004,-0.1934 0.009,-0.3493 0.0135,-0.4661 0.004,-0.1169 0.009,-0.2034 0.0105,-0.2397 0.002,-0.036 0.009,-0.1163 0.021,-0.2431 0.0122,-0.1269 0.0298,-0.2987 0.0497,-0.5147 0.0199,-0.2159 0.0405,-0.4977 0.0613,-1.8242 0.0208,-1.3267 -0.009,-1.832 -0.0526,-2.334 -0.044,-0.5019 -0.10786,-1.024 -0.18693,-1.5671 -0.0791,-0.5431 -0.17119,-1.1077 -0.3523,-1.6851 -0.18111,-0.5775 -0.53219,-1.4756 -0.96439,-2.3332 -0.43219,-0.8578 -0.95023,-1.6591 -1.5523,-2.3992 -0.60207,-0.7401 -1.28617,-1.4154 -1.71673,-1.672 -0.77443,-0.5931 -0.5293,-0.1558 -0.87317,-0.4923 z"
           id="path173" />
      </g>
      <g
         style="fill:#000000;fill-opacity:1;stroke-linejoin:miter"
         id="g179"
         transform="rotate(90,259.41968,748.93978)">
        <path
           d="m 104.20396,1404.3568 c -0.17147,-0.5188 -0.61942,-1.6252 -1.03532,-2.9936 -0.41589,-1.3684 -0.79655,-3.0165 -1.13748,-4.9543 -0.34093,-1.9378 -0.64781,-4.1669 -0.78189,-5.1964 -0.13409,-1.0294 -0.17745,-0.8735 -0.22244,-0.7879 -0.045,0.086 -0.0624,0.1112 -0.0384,0.1003 0.0241,-0.011 0.0887,-0.046 0.2146,-0.115 0.12592,-0.069 0.30938,-0.1578 0.60883,-0.2879 0.29946,-0.1302 0.70375,-0.2957 1.20559,-0.4971 0.50184,-0.2014 1.10121,-0.4347 1.54568,-0.6146 0.44448,-0.18 0.58637,-0.2588 0.72221,-0.345 0.13583,-0.086 0.26773,-0.1793 0.39792,-0.2796 0.13018,-0.1003 0.25942,-0.2077 1.30159,-1.5334 1.04217,-1.3257 2.62034,-3.6005 1.72273,-3.3323 -0.8976,0.2682 -0.79359,0.3303 -0.7331,0.3692 0.0605,0.039 0.0696,0.041 0.0162,-0.031 -0.0534,-0.072 -0.0499,-0.061 0.26827,0.4266 0.31816,0.4874 0.62576,0.9794 0.93132,1.4834 0.30556,0.5037 0.60491,1.0214 0.90273,1.551 0.29782,0.5294 0.58101,1.0638 0.86737,1.6557 0.28634,0.5918 0.52993,1.1914 0.73875,1.8013 0.20883,0.6099 0.38385,1.2307 0.52123,1.8648 0.13739,0.6339 0.23863,1.213 0.20761,1.6137 -0.031,0.4007 -0.10537,0.9331 -0.22655,1.5442 -0.12117,0.611 -0.28598,1.2987 -0.49324,2.062 -0.20727,0.7635 -0.44801,1.5691 -0.61034,1.8845 -0.16233,0.3154 -0.3891,0.7048 -0.66545,1.1334 -0.27634,0.4285 -0.59354,0.9023 -0.95154,1.4212 -0.35798,0.5189 -0.7583,1.0852 -0.83103,1.214 -0.0727,0.1288 -0.13553,0.2538 -0.19068,0.3776 -0.0551,0.1237 -0.11658,0.2382 -0.16259,0.3224 -0.046,0.084 -0.046,0.084 -0.0153,0.028 0,0 0.0613,-0.1121 0.14098,-0.2161 0.0797,-0.104 0.17262,-0.2014 0.2719,-0.2965 0.0993,-0.095 0.20041,-0.1827 0.73402,-0.599 0.53362,-0.4162 1.00794,-0.8221 1.42213,-1.2164 0.4142,-0.3944 0.77273,-0.7738 1.08151,-1.1355 0.30878,-0.3616 0.59556,-0.7737 0.97096,-1.5834 0.37541,-0.8097 0.68231,-1.5512 0.93546,-2.2386 0.25316,-0.6874 0.44468,-1.3245 0.58504,-1.9124 0.14035,-0.5879 0.22025,-1.2281 0.16649,-2.0041 -0.0537,-0.776 -0.15343,-1.5127 -0.302,-2.2426 -0.14858,-0.7298 -0.33914,-1.4539 -0.57833,-2.1698 -0.23917,-0.7158 -0.52207,-1.4142 -0.78715,-2.0109 -0.26508,-0.597 -0.53291,-1.178 -0.80985,-1.7466 -0.27695,-0.5685 -0.56543,-1.1231 -0.86154,-1.6661 -0.29612,-0.5429 -0.58888,-1.0563 -0.70878,-1.2312 -0.1199,-0.1749 -0.2897,-0.3569 -0.45746,-0.5029 -0.16777,-0.146 -0.34159,-0.2768 -0.53034,-0.4055 -0.18873,-0.1285 -2.47504,0.1207 -4.1323,2.5457 -1.65727,2.4248 -1.53314,2.2731 -1.60035,2.3363 -0.0672,0.063 -0.12535,0.114 -0.1725,0.1524 -0.0472,0.039 -0.0816,0.065 -0.0699,0.065 0.0117,10e-5 -0.62809,0.3044 -1.19518,0.575 -0.56708,0.2707 -1.04437,0.5079 -1.4358,0.7107 -0.39144,0.2029 -0.70124,0.3772 -0.93059,0.5173 -0.229364,0.1398 -0.39443,0.2482 -0.57616,0.39 -0.18172,0.1417 -0.354254,0.3081 -0.515166,0.5173 -0.160904,0.2092 -0.293579,0.4805 -0.347064,0.9059 -0.05349,0.4255 0.46464,2.8706 1.026164,5.0222 0.561526,2.1517 1.178326,4.0005 1.849406,5.5415 0.67109,1.5409 1.39895,2.7648 1.85771,3.2178 0.77847,0.8802 0.57178,0.3684 0.89149,0.7955 z"
           id="path177" />
      </g>
      <g
         style="fill:#000000;fill-opacity:1;stroke-linejoin:miter"
         id="g183"
         transform="rotate(90,259.41968,748.93978)">
        <path
           d="m 148.38799,1444.0796 c -0.36916,-0.3934 -1.11551,-1.0286 -1.74672,-1.6668 -0.6312,-0.638 -1.14537,-1.291 -1.54677,-1.9641 -0.4014,-0.6729 -0.69802,-1.3691 -0.78337,-1.5846 -0.0854,-0.2154 -0.10096,-0.087 -0.13419,0 -0.0332,0.089 -0.0621,0.1355 -0.0713,0.1508 -0.009,0.015 0.004,0.01 0.21154,-0.032 0.20767,-0.042 0.78806,-0.2358 1.32124,-0.4451 0.53319,-0.2093 1.01845,-0.4389 1.45845,-0.6873 0.44,-0.2485 0.83531,-0.5187 1.28818,-0.9613 0.45287,-0.4428 0.85721,-0.9339 1.21222,-1.4285 0.35499,-0.4945 0.65607,-0.996 0.90454,-1.5037 0.24847,-0.5078 0.44279,-1.0224 0.57446,-1.4878 0.13167,-0.4652 0.23485,-0.8968 0.3161,-1.3374 0.0813,-0.4404 0.0889,-0.8943 0.10761,-1.3497 0.0187,-0.4554 0.02,-0.9161 0.006,-1.2482 -0.0143,-0.3319 -0.0273,-0.4707 -0.0398,-0.5977 -0.0124,-0.1271 -0.0246,-0.2432 -0.038,-0.3508 -0.0134,-0.1076 -0.029,-0.2099 -0.17455,-0.8432 -0.14556,-0.6332 -0.40399,-1.7031 -0.60586,-3.323 -0.20186,-1.6199 -0.21202,-1.6644 -0.21771,-1.71 -0.006,-0.045 -0.0216,-0.2573 -0.0398,-0.5864 -0.0182,-0.3292 -0.0465,-0.7737 -0.0817,-1.3103 -0.0352,-0.5366 -0.0571,-3.1847 -0.11225,-4.6677 -0.0551,-1.4829 -0.056,-1.8007 -0.0502,-2.124 0.006,-0.3233 0.0216,-0.6518 0.0447,-0.9864 0.0231,-0.3347 0.0791,-0.6686 0.15104,-0.9136 0.0719,-0.2448 0.0719,-0.2448 0.024,-0.082 0,0 -0.0958,0.3265 -0.22342,0.6411 -0.12758,0.3147 -0.25467,0.6283 -0.3658,0.9448 -0.11111,0.3166 -0.21014,0.6349 -0.29324,0.9607 -0.0831,0.3259 -0.54445,2.9528 -0.75687,4.5938 -0.21241,1.6411 -0.24881,2.1636 -0.27459,2.5732 -0.0258,0.4097 -0.0403,0.7075 -0.05,0.8999 -0.01,0.1924 -0.003,0.3615 0.0125,1.1585 0.0155,0.7969 0.0537,2.5117 0.22256,3.7182 0.16883,1.2067 0.16686,1.2134 0.16986,1.2615 0.003,0.048 0.006,0.119 0.009,0.2092 0.003,0.09 0.003,0.1988 10e-4,0.2986 -0.002,0.1 -0.0285,0.4969 -0.0631,0.8864 -0.0346,0.3895 -0.085,0.7696 -0.14703,1.1405 -0.0621,0.371 -0.10973,0.7379 -0.16651,1.0947 -0.0568,0.3569 -0.13286,0.7205 -0.24869,1.0835 -0.11581,0.3632 -0.27938,0.7501 -0.49191,1.1604 -0.21252,0.4102 -0.47525,0.8425 -0.77083,1.2717 -0.29558,0.4294 -0.44845,0.5762 -0.72621,0.7962 -0.27775,0.2199 -0.61734,0.4465 -1.01784,0.6762 -0.40049,0.2298 -0.8578,0.4686 -1.39646,0.7117 -0.53867,0.2431 -0.8272,0.4256 -0.92893,0.5219 -0.10172,0.096 -0.19922,0.213 -0.28651,0.3643 -0.0873,0.1513 -0.14855,0.3443 -0.13136,0.655 0.0172,0.3106 0.4039,1.1197 0.91601,1.8839 0.51213,0.764 1.14366,1.4446 1.88885,2.0359 0.74518,0.5911 1.59886,1.0915 2.10819,1.2321 0.96647,0.3882 0.57657,0.016 1.03374,0.2642 z"
           id="path181" />
      </g>
    </g>
  </g>
</svg>
