<?xml version="1.0" encoding="UTF-8" standalone="no"?>
<svg
   version="1.1"
   width="135.38521"
   height="135.38521"
   viewBox="0 0 135.38521 135.38521"
   id="svg1214"
   xmlns="http://www.w3.org/2000/svg"
   xmlns:svg="http://www.w3.org/2000/svg">
  <defs
     id="defs1218" />
  <g
     id="g7208"
     transform="translate(-401.37216,-568.47607)">
    <rect
       style="display:inline;opacity:0.5;fill:none;fill-opacity:1;stroke:none;stroke-width:2.66644;stroke-dasharray:none;stroke-opacity:1"
       id="rect5281"
       width="135.38521"
       height="135.38521"
       x="401.37216"
       y="568.47607" />
    <g
       id="g5215"
       transform="translate(-27.712585,-8.0820896)">
      <g
         style="fill:#000000;fill-opacity:1;stroke-linejoin:miter"
         id="g1035"
         transform="rotate(90,259.41968,748.93978)">
        <path
           d="m 124.74206,568.4106 c -0.13084,-0.15975 -0.44682,-0.5252 -0.80135,-1.03444 -0.35452,-0.50922 -0.75833,-1.15956 -1.207,-1.95866 -0.44867,-0.7991 -0.94795,-1.7441 -1.25898,-2.4123 -0.31102,-0.6682 -0.4359,-1.0639 -0.55906,-1.44886 -0.12317,-0.38494 -0.23665,-0.76227 -0.3415,-1.13164 -0.10484,-0.36934 -0.19783,-0.7316 -0.24991,-0.96034 -0.0521,-0.22876 -0.0706,-0.39306 -0.081,-0.60779 -0.0104,-0.21467 -0.0104,-0.47587 0.002,-0.78077 0.0121,-0.3048 0.0367,-0.65154 0.0741,-1.111 0.0374,-0.4595 0.10509,-0.9859 0.2147,-1.5647 0.1096,-0.5788 0.25807,-1.20985 0.44989,-1.8917 0.19181,-0.68186 0.4303,-1.4129 0.63944,-2.19675 0.20916,-0.78395 0.4393,-1.65009 0.73873,-2.71615 0.29943,-1.066 0.67776,-2.3253 1.12142,-3.7802 0.44366,-1.4549 0.9522,-3.10485 1.00646,-4.578 0.0543,-1.4731 0.0543,-1.4731 -0.27609,-0.60174 0,0 -1.54327,1.41058 -2.21027,2.94194 -0.66699,1.5314 -1.23109,2.8889 -1.69827,4.0718 -0.46718,1.183 -0.84402,2.19134 -1.12219,3.01586 -0.27818,0.82444 -0.52648,1.63034 -0.7039,2.42984 -0.17741,0.7994 -0.31572,1.55374 -0.40868,2.26535 -0.093,0.71155 -0.1398,1.38075 -0.14276,1.99011 -0.003,0.60934 0.002,1.00814 0.0166,1.39064 0.0147,0.3825 0.0401,0.7322 0.0774,1.0515 0.0373,0.3192 0.0879,0.61084 0.15707,0.8843 0.0692,0.2734 0.21289,0.65904 0.36535,1.03074 0.15248,0.37171 0.30944,0.75 0.47887,1.1322 0.16944,0.38221 0.34936,0.76906 0.56301,1.19896 0.21365,0.4299 0.92217,1.43294 1.57271,2.25966 0.65054,0.82674 1.25328,1.49984 1.80041,2.02244 0.54714,0.52267 1.03978,0.89004 1.28705,0.9961 0.4222,0.2138 0.32132,-0.0141 0.49625,0.0936 z"
           id="path1033" />
      </g>
      <g
         style="fill:#000000;fill-opacity:1;stroke-linejoin:miter"
         id="g1039"
         transform="rotate(90,259.41968,748.93978)">
        <path
           d="m 127.40509,492.90366 c -0.6552,-1.00049 -2.09228,-2.52666 -3.30373,-3.82866 -1.21145,-1.30202 -2.18529,-2.3908 -2.89205,-3.28246 -0.70675,-0.89169 -1.14132,-1.56268 -1.61442,-2.64314 -0.47309,-1.08046 -1.07653,-2.62538 -1.53292,-4.0246 -0.4564,-1.39924 -0.76347,-2.64943 -0.93002,-3.74174 -0.16655,-1.09236 -0.1859,-2.02094 -0.0651,-2.67133 0.12077,-0.65036 0.36742,-1.40488 0.7116,-2.1814 0.34418,-0.77655 0.79421,-1.57333 1.35348,-2.38848 0.55925,-0.81515 1.22374,-1.65205 3.4866,-4.09433 2.26286,-2.4423 5.94852,-6.49115 8.32166,-8.36722 2.37315,-1.87607 2.37315,-1.87607 0.61485,-0.84784 0,0 -4.04524,1.38894 -8.25411,5.09631 -4.20885,3.70737 -5.11728,4.58943 -5.90622,5.4834 -0.78894,0.89401 -1.46939,1.80869 -2.0416,2.74363 -0.57221,0.93493 -1.03316,1.89135 -1.36222,2.94833 -0.32905,1.05694 -0.35194,2.32483 -0.17793,3.56817 0.17399,1.24335 0.52167,2.56638 1.02411,3.9809 0.50243,1.4145 1.17184,2.92166 2.00299,4.5303 0.83114,1.60864 1.28222,2.32443 1.9881,3.13977 0.70587,0.81533 1.67365,1.73503 2.90502,2.78351 1.23138,1.04849 2.75474,2.20407 3.72875,2.68417 1.85219,1.22062 1.06502,0.3722 1.94319,1.11271 z"
           id="path1037" />
      </g>
      <g
         style="fill:#000000;fill-opacity:1;stroke-linejoin:miter"
         id="g1043"
         transform="rotate(90,259.41968,748.93978)">
        <path
           d="m 141.61665,500.09854 c -0.59905,-0.62762 -1.82519,-1.5426 -2.87608,-2.33414 -1.05087,-0.79153 -1.91522,-1.47644 -2.57776,-2.06655 -0.66254,-0.59012 -1.11865,-1.07265 -1.63095,-1.73179 -0.5123,-0.65911 -1.1261,-1.53994 -1.66315,-2.47753 -0.53704,-0.93757 -1.00204,-1.93123 -1.39802,-2.98288 -0.39599,-1.05167 -0.72476,-2.16335 -0.85626,-2.88705 -0.1315,-0.7237 -0.15058,-1.225 -0.18468,-1.68662 -0.0341,-0.46161 -0.0582,-0.88526 -0.0718,-1.27048 -0.0136,-0.3852 -0.0127,-0.73102 0.0603,-1.36975 0.073,-0.6387 0.21634,-1.5922 0.33284,-2.35485 0.1165,-0.76264 0.20973,-1.33024 0.28091,-1.68586 0.0712,-0.35562 0.0832,-0.43128 0.18604,-0.77402 0.10277,-0.34274 0.27617,-0.93488 0.55762,-1.75492 0.28144,-0.82 0.66371,-1.85888 1.14498,-3.1115 0.48128,-1.25266 1.04706,-2.72394 1.54099,-3.9825 0.49393,-1.25856 0.82553,-2.0702 1.07701,-2.70702 0.25148,-0.63684 0.43045,-1.09498 0.57005,-1.35406 0.13962,-0.2591 0.20581,-0.33802 0.2099,-0.3125 0.004,0.0255 0.004,0.0255 0.001,0.009 0,0 -0.005,-0.034 -0.10202,0.10141 -0.0966,0.13544 -0.31957,0.41901 -0.67426,0.84998 -0.3547,0.43098 -0.81805,1.02261 -1.37952,1.79278 -0.56144,0.77014 -1.46801,2.2702 -2.20634,3.58936 -0.73833,1.31912 -1.33704,2.45684 -1.80727,3.41119 -0.47024,0.95432 -0.82066,1.72788 -1.0364,2.29483 -0.21575,0.56696 -0.23932,0.56076 -0.36277,0.91666 -0.12346,0.35592 -0.25239,0.83511 -0.41882,1.48596 -0.16641,0.65082 -0.36876,1.48154 -0.60191,2.51392 -0.23315,1.03241 -0.29277,1.52716 -0.32408,1.96191 -0.0313,0.43477 -0.0513,0.8992 -0.0669,1.39502 -0.0156,0.49579 0.0387,1.01993 0.11604,1.66779 0.0773,0.64782 0.49932,1.96362 0.98905,3.16003 0.48974,1.19638 1.05881,2.32068 1.71448,3.3663 0.65569,1.04563 1.3898,2.01393 2.19092,2.89223 0.8011,0.87834 1.2774,1.35277 1.96115,1.88774 0.68376,0.53496 1.55734,1.09073 2.62416,1.68063 1.06682,0.58993 2.33857,1.20303 3.11226,1.39576 1.50041,0.59549 0.84215,0.0692 1.56886,0.47201 z"
           id="path1041" />
      </g>
      <g
         style="fill:#000000;fill-opacity:1;stroke-linejoin:miter"
         id="g1047"
         transform="rotate(90,259.41968,748.93978)">
        <path
           d="m 146.20305,564.59094 c -0.26,-0.2019 -0.85059,-0.66634 -1.51329,-1.35791 -0.66269,-0.69163 -1.4095,-1.61719 -2.24356,-2.78357 -0.83408,-1.16646 -1.7554,-2.57676 -2.34845,-3.63366 -0.59305,-1.0568 -0.85291,-1.71283 -1.07692,-2.34705 -0.22402,-0.63425 -0.41243,-1.24625 -0.56807,-1.83475 -0.15566,-0.5885 -0.27655,-1.15414 -0.36508,-1.5771 -0.0885,-0.423 -0.12601,-0.6821 -0.16115,-1.1455 -0.0351,-0.4635 -0.0646,-1.1042 -0.0777,-1.91103 -0.0131,-0.80687 -0.0115,-1.77587 -0.0105,-2.56311 10e-4,-0.7873 0.027,-1.31232 0.0338,-1.9375 0.007,-0.62516 0.0447,-1.34636 0.10791,-2.16086 0.0633,-0.8144 0.14865,-1.721 0.3143,-2.9912 0.16564,-1.2702 0.38474,-2.7324 0.58765,-3.9682 0.20289,-1.2358 0.38399,-2.24455 0.55287,-3.01805 0.16888,-0.7735 0.31169,-1.30292 0.49339,-1.82115 0.18172,-0.51827 0.49568,-1.1502 0.99146,-1.8577 0.49576,-0.70744 1.17476,-1.48393 2.02708,-2.33653 0.85233,-0.8526 1.86737,-1.79773 2.76394,-2.47097 0.89655,-0.67313 0.89655,-0.67313 0.26803,-0.2706 0,0 -1.3495,0.66625 -2.53992,1.31695 -1.19043,0.65069 -2.18541,1.34095 -2.99679,2.0556 -0.81139,0.7146 -1.44356,1.45305 -1.88169,2.19035 -0.43812,0.7373 -0.65912,1.18984 -0.91543,1.86934 -0.25632,0.67956 -0.53194,1.56391 -0.84156,2.66076 -0.30961,1.0968 -0.64104,2.4123 -1.0025,3.954 -0.36146,1.5417 -0.55447,2.5537 -0.70804,3.4625 -0.15358,0.9089 -0.26854,1.73994 -0.35022,2.49476 -0.0817,0.75484 -0.13797,1.4361 -0.11715,2.03107 0.0208,0.59497 0.0904,1.68732 0.16519,2.63317 0.0748,0.9459 0.15628,1.7411 0.23886,2.39247 0.0826,0.65136 0.17642,1.17089 0.27504,1.52693 0.0986,0.35606 0.25389,0.93504 0.46312,1.57493 0.20923,0.63997 0.45966,1.28817 0.74704,1.94623 0.28737,0.65808 0.61142,1.32644 1.00014,2.0553 0.38871,0.72888 1.59663,2.25204 2.69606,3.49518 1.09941,1.24322 2.11885,2.22936 3.04763,2.96226 0.92881,0.733 1.76864,1.2003 2.17839,1.29647 0.72071,0.20183 0.4552,-0.0375 0.76615,0.0682 z"
           id="path1045" />
      </g>
      <g
         style="fill:#000000;fill-opacity:1;stroke-linejoin:miter"
         id="g1051"
         transform="rotate(90,259.41968,748.93978)">
        <path
           d="m 148.51015,558.97186 c -0.65421,-0.45056 -2.01906,-1.05726 -2.17336,-1.24636 -0.15428,-0.18906 -0.3358,-0.4073 -0.48309,-0.6281 -0.14731,-0.2208 -0.26328,-0.44225 -0.35127,-0.6644 -0.088,-0.2222 -0.15961,-0.4795 -0.20778,-0.65944 -0.0482,-0.17996 -0.11085,-0.45316 -0.1859,-0.82593 -0.0751,-0.37283 -0.15837,-0.84228 -0.25627,-1.40503 -0.0979,-0.56274 -0.21204,-1.21673 -0.23059,-1.35785 -0.0185,-0.14111 -0.0333,-0.27245 -0.0435,-0.3894 -0.0102,-0.11695 -0.0159,-0.21855 -0.0191,-0.30341 -0.003,-0.0849 -0.002,-0.12874 0.0367,-1.3186 0.0383,-1.18994 0.0831,-2.21114 0.13215,-3.06114 0.0491,-0.8501 0.0572,-1.52736 0.0673,-2.0232 0.01,-0.4958 0.0418,-0.82325 0.12604,-1.4879 0.0842,-0.66464 0.21274,-1.259 0.38403,-1.7986 0.1713,-0.5396 0.38446,-1.0272 0.64108,-1.46595 0.25664,-0.43885 0.5624,-0.84205 1.28717,-1.67295 0.72478,-0.83096 1.45874,-1.5933 2.19342,-2.3018 0.73468,-0.7084 1.47312,-1.3667 1.9944,-1.90684 0.52129,-0.5401 0.52129,-0.5401 0.10728,-0.28106 0,0 -1.02752,0.2149 -1.93023,0.73003 -0.90272,0.51514 -1.7995,1.12307 -2.68214,1.82667 -0.88265,0.7036 -1.75647,1.49267 -2.19563,1.98144 -0.43918,0.4887 -0.82819,1.04461 -1.154,1.66442 -0.32582,0.61984 -0.60058,1.29514 -0.81353,2.02784 -0.21297,0.73266 -0.36799,1.49304 -0.43839,1.96765 -0.0704,0.47455 -0.13469,1.09985 -0.14256,1.87885 -0.008,0.779 0.0342,1.71496 0.0993,2.8106 0.0651,1.09564 0.1532,2.3525 0.16866,2.4962 0.0155,0.1437 0.0369,0.2808 0.0661,0.42385 0.0292,0.14315 0.0644,0.29365 0.1053,0.45235 0.0409,0.15867 0.0894,0.3341 0.27159,0.9527 0.18221,0.6186 0.34946,1.1467 0.49616,1.587 0.14669,0.44026 0.27161,0.79524 0.38046,1.0703 0.10887,0.27505 0.19405,0.4484 0.34415,0.73934 0.15008,0.29096 0.33999,0.57782 0.56454,0.84136 0.22455,0.2636 0.47704,0.5074 0.75995,0.7285 0.2829,0.2211 0.71359,0.4798 1.51477,0.5059 1.52544,0.248 0.84251,-0.1089 1.56679,0.11296 z"
           id="path1049" />
      </g>
      <g
         style="fill:#000000;fill-opacity:1;stroke-linejoin:miter"
         id="g1055"
         transform="rotate(90,259.41968,748.93978)">
        <path
           d="m 149.67947,555.88055 c 0.0927,-0.25065 0.19443,-0.72465 0.28716,-1.15301 0.0927,-0.42828 0.18431,-0.81004 0.26918,-1.14551 0.0849,-0.33539 0.17483,-0.62183 0.24502,-0.84423 0.0702,-0.2224 0.13047,-0.40363 0.21962,-0.63636 0.0892,-0.23274 0.20823,-0.51374 0.35075,-0.84338 0.14251,-0.32959 0.31236,-0.70586 0.45875,-1.07202 0.14638,-0.36609 0.24153,-0.64974 0.34947,-0.97434 0.10794,-0.3247 0.23395,-0.68906 0.36276,-1.0972 0.12882,-0.4082 0.26825,-0.8582 0.75717,-2.9308 0.48893,-2.0725 1.01195,-5.7564 1.03933,-5.9547 0.0274,-0.1983 0.0629,-0.4113 0.10571,-0.64526 0.0428,-0.23389 0.0931,-0.48834 0.15396,-0.7619 0.0608,-0.27354 0.13638,-0.57178 0.15462,-0.65834 0.0182,-0.0865 0.0311,-0.17534 0.0409,-0.27104 0.01,-0.0957 0.017,-0.19966 0.0207,-0.31336 0.004,-0.11377 0.007,-0.2667 -0.0118,-0.5122 -0.0191,-0.2455 -0.0499,-0.4649 -0.0941,-0.6636 -0.0442,-0.1987 -0.10474,-0.37907 -0.1888,-0.5432 -0.0841,-0.16406 -0.16643,-0.26446 -0.37692,-0.5068 -0.21051,-0.24234 -0.4832,-0.50613 -0.81018,-0.7882 -0.32699,-0.282 -0.7117,-0.5812 -1.05414,-0.788 -0.34244,-0.20685 -0.34244,-0.20685 -0.16008,-0.024 0,0 0.22691,0.50049 0.48695,0.87515 0.26003,0.37467 0.47362,0.7031 0.6377,0.9852 0.16407,0.28205 0.29063,0.5313 0.31482,0.5888 0.0242,0.0575 0.0364,0.12904 0.0437,0.2376 0.007,0.10866 0.005,0.25216 -0.01,0.4279 -0.0147,0.1757 -0.0429,0.3758 -0.0645,0.4651 -0.0216,0.0893 -0.0428,0.1792 -0.0617,0.2544 -0.0189,0.0752 -0.0363,0.13436 -0.051,0.1751 -0.0147,0.0408 -0.0243,0.0581 -0.1369,0.34195 -0.1126,0.28395 -0.2186,0.55511 -0.31319,0.81175 -0.0946,0.2567 -0.1743,0.5002 -0.24249,0.7302 -0.0682,0.22996 -0.12273,0.4344 -0.92787,4.0582 -0.80516,3.6238 -0.88732,4.0746 -0.97254,4.52076 -0.0852,0.44614 -0.16539,0.84874 -0.2297,1.21051 -0.0643,0.36173 -0.12508,0.67923 -0.17276,0.93323 -0.0477,0.254 -0.16407,0.6702 -0.26731,1.06726 -0.10324,0.39694 -0.18773,0.74674 -0.24985,1.05157 -0.0621,0.30481 -0.10952,0.56407 -0.13418,0.76941 -0.0247,0.20532 -0.0597,0.49506 -0.0811,0.84052 -0.0214,0.34539 -0.0288,0.7279 -0.0128,1.14954 0.016,0.4217 0.0537,0.8827 0.12332,1.1283 0.0609,0.5002 0.21074,0.2505 0.20199,0.50505 z"
           id="path1053" />
      </g>
      <g
         style="fill:#000000;fill-opacity:1;stroke-linejoin:miter"
         id="g1059"
         transform="rotate(90,259.41968,748.93978)">
        <path
           d="m 148.57881,497.30194 c -0.2406,-0.34647 -0.76958,-1.03036 -1.26001,-1.86254 -0.49043,-0.83222 -0.94993,-1.82468 -1.38069,-2.98783 -0.43076,-1.16315 -0.82806,-2.50337 -1.13922,-3.76247 -0.31116,-1.25917 -0.54053,-2.2826 -0.73743,-3.23817 -0.19691,-0.9556 -0.36134,-1.84268 -0.50104,-2.65888 -0.13967,-0.81622 -0.2449,-1.5628 -0.30566,-2.30345 -0.0608,-0.7407 -0.0833,-1.55223 -0.11746,-2.29478 -0.0341,-0.74256 -0.0602,-1.41882 -0.0577,-2.02892 0.002,-0.61012 0.0399,-1.15217 0.10385,-1.7239 0.0639,-0.5717 0.19652,-1.1516 0.42359,-1.73873 0.22708,-0.58717 0.5534,-1.18594 0.98655,-1.79669 0.43315,-0.61072 0.98224,-1.22632 1.37359,-1.64142 0.39135,-0.41506 0.50861,-0.53921 0.87759,-0.85889 0.36897,-0.31964 0.95033,-0.78557 1.72894,-1.3941 0.77861,-0.60849 1.74427,-1.36954 2.3989,-1.87885 0.65464,-0.50932 0.93019,-0.69232 1.24284,-0.88629 0.31265,-0.194 0.66033,-0.40283 1.04333,-0.62503 0.38302,-0.2222 0.80115,-0.45794 1.15235,-0.58334 0.35119,-0.1254 0.35119,-0.1254 0.11665,-0.0429 0,0 -0.47029,0.16156 -0.93146,0.25156 -0.46118,0.09 -0.88531,0.18914 -1.27444,0.29275 -0.38913,0.10361 -0.7429,0.21329 -1.07488,0.33521 -0.33197,0.12191 -1.58122,0.75886 -2.60047,1.31198 -1.01926,0.55313 -1.8218,1.01733 -2.4188,1.38666 -0.59701,0.36932 -1.0034,0.6531 -1.18127,0.82299 -0.17786,0.16993 -0.91576,0.75275 -1.59561,1.4162 -0.67987,0.66343 -1.25272,1.36869 -1.7135,2.1167 -0.46077,0.74799 -0.80611,1.53678 -1.02321,2.33521 -0.2171,0.79842 -0.3319,1.40042 -0.41381,2.06909 -0.0819,0.66863 -0.13191,1.39169 -0.15724,2.17083 -0.0253,0.77915 0.0426,1.6118 0.1483,2.5151 0.10575,0.90333 0.26721,1.69395 0.45879,2.5009 0.19157,0.80697 0.42001,1.6713 0.69389,2.59186 0.2739,0.92056 0.58557,1.89971 0.93782,2.94531 0.35225,1.04563 0.92903,2.51613 1.54202,3.80483 0.613,1.2887 1.27053,2.38392 1.96631,3.28117 0.69579,0.89727 1.42809,1.587 1.8503,1.80709 0.75441,0.46537 0.50609,0.10651 0.83827,0.35178 z"
           id="path1057" />
      </g>
      <g
         style="fill:#000000;fill-opacity:1;stroke-linejoin:miter"
         id="g1063"
         transform="rotate(90,259.41968,748.93978)">
        <path
           d="m 146.10205,495.6985 c 0.38435,-0.24202 0.99806,-0.8384 1.54483,-1.46687 0.54678,-0.62851 1.02739,-1.28516 1.45354,-1.96039 0.42615,-0.67526 0.79405,-1.37006 1.01698,-1.87444 0.22293,-0.50444 0.3433,-0.81922 0.46,-1.16462 0.11669,-0.34538 0.23016,-0.72158 0.34097,-1.12898 0.11082,-0.4074 0.22476,-0.84508 0.31309,-1.21203 0.0883,-0.36697 0.16339,-0.71002 0.25165,-1.1358 0.0883,-0.42577 0.19002,-0.93585 0.30549,-1.53107 0.11548,-0.59524 0.24474,-1.2761 0.32557,-1.70794 0.0808,-0.43189 0.10588,-0.58586 0.13058,-0.75928 0.0247,-0.17343 0.047,-0.36858 0.0441,-0.58826 -0.003,-0.21966 4.9e-4,-0.46215 0.001,-0.85199 9.6e-4,-0.38986 -0.0214,-0.9533 -0.0631,-1.60863 -0.0417,-0.65534 -0.10794,-1.4047 -0.18991,-2.24998 -0.082,-0.84527 -0.18844,-1.78689 -0.26053,-2.34866 -0.0721,-0.56174 -0.088,-0.66406 -0.10528,-0.7648 -0.0173,-0.10074 -0.0359,-0.19989 -0.0558,-0.29752 -0.0199,-0.0976 -0.0412,-0.19357 -0.11012,-0.43304 -0.0689,-0.23944 -0.16823,-0.54837 -0.2563,-0.8272 -0.0881,-0.27882 -0.161,-0.52803 -0.22025,-0.74672 -0.0592,-0.21872 -0.10815,-0.40551 -0.15921,-0.59533 -0.051,-0.18979 -0.12981,-0.38291 -0.2381,-0.59137 -0.10828,-0.20848 -0.24659,-0.44025 -0.41583,-0.69988 -0.16922,-0.2597 -0.37044,-0.54872 -0.71646,-0.67384 -0.34604,-0.12516 -0.34604,-0.12516 -0.25262,0.0364 0,0 -0.22503,0.55743 -0.10053,0.85256 0.12451,0.29514 0.22191,0.54752 0.29117,0.7545 0.0693,0.20696 0.10966,0.3638 0.12207,0.4609 0.0124,0.0971 0.0217,0.26645 0.0447,0.49133 0.023,0.22487 0.057,0.47733 0.0958,0.75931 0.0388,0.28201 0.0843,0.59366 0.13971,0.92736 0.0554,0.33375 0.0545,0.3704 0.0608,0.44956 0.006,0.0792 0.0114,0.1601 0.0152,0.24284 0.004,0.0827 0.007,0.16717 0.007,0.24602 9.1e-4,0.0789 -0.004,1.08338 -0.009,1.98488 -0.005,0.90144 -0.01,1.69997 -0.0283,2.39507 -0.0187,0.69506 -0.0438,1.28485 -0.0746,1.76767 -0.0308,0.48281 -0.0541,0.70773 -0.0959,0.92483 -0.0418,0.21713 -0.0495,0.40913 -0.0568,0.57285 -0.007,0.16372 -0.0138,0.29803 -0.0216,0.4075 -0.008,0.10948 -0.0724,0.85391 -0.1315,1.50898 -0.059,0.65505 -0.11267,1.22198 -0.16073,1.7002 -0.0481,0.47817 -0.0904,0.86675 -0.1273,1.1674 -0.0369,0.30063 -0.0885,0.75232 -0.1445,1.16407 -0.056,0.41173 -0.11602,0.78963 -0.18057,1.13305 -0.0646,0.34338 -0.12329,0.65468 -0.18667,0.92316 -0.0634,0.26852 -0.27289,0.9502 -0.52256,1.63104 -0.24966,0.68082 -0.54487,1.37036 -0.88967,2.06818 -0.34482,0.69784 -0.72838,1.41302 -0.87753,1.82126 -0.42249,0.73758 -0.0405,0.49838 -0.31385,0.82774 z"
           id="path1061" />
      </g>
      <g
         style="fill:#000000;fill-opacity:1;stroke-linejoin:miter"
         id="g1067"
         transform="rotate(90,259.41968,748.93978)">
        <path
           d="m 182.01483,543.9718 c 0.0138,-0.0864 0.009,-0.26153 -0.004,-0.4468 -0.0129,-0.18516 -0.0341,-0.38016 -0.0663,-0.58414 -0.0322,-0.20396 -0.0743,-0.41686 -0.34673,-1.33096 -0.27239,-0.91404 -0.7453,-2.37345 -1.16257,-3.64713 -0.41725,-1.27377 -0.761,-2.36823 -1.02614,-3.28237 -0.26514,-0.9141 -0.45221,-1.64244 -0.64049,-2.49845 -0.18826,-0.85605 -0.40284,-1.89445 -0.58654,-2.8819 -0.18372,-0.98749 -0.33667,-1.92371 -0.45675,-2.80895 -0.12007,-0.8852 -0.20933,-1.7186 -0.24158,-2.1569 -0.0322,-0.43826 -0.0357,-0.5595 -0.0378,-0.7294 -0.002,-0.1699 -0.002,-0.38446 0.003,-0.6413 0.006,-0.25683 0.0104,-0.55475 0.0746,-2.86194 0.0643,-2.30716 -0.0536,-6.5794 -0.0723,-12.89221 -0.0186,-6.31277 -0.0253,-6.8298 -0.0307,-7.29059 -0.005,-0.46078 -0.009,-0.86078 -0.0139,-1.19983 -0.005,-0.33903 -0.008,-0.61667 -0.009,-0.83398 -7.6e-4,-0.21729 -0.004,-1.13272 -0.005,-1.95157 -0.001,-0.81885 -0.005,-1.54478 0.001,-2.17678 0.006,-0.632 0.0161,-1.17088 0.0332,-1.62074 0.0171,-0.44989 0.0145,-0.57636 0.0336,-0.7366 0.0191,-0.16026 0.0658,-0.37756 0.13739,-0.64766 0.0716,-0.2701 0.16755,-0.59154 0.27141,-0.8477 0.10385,-0.25616 0.10385,-0.25616 0.0201,-0.0927 0,0 -0.21089,0.3053 -0.39416,0.56979 -0.18329,0.26446 -0.32498,0.49631 -0.42942,0.69654 -0.10444,0.20019 -0.17207,0.37432 -0.2572,0.64254 -0.0851,0.26822 -0.22525,0.74433 -0.35965,1.31528 -0.13439,0.57092 -0.26974,1.2356 -0.39956,1.99457 -0.12984,0.759 -0.26195,1.6116 -0.33642,2.16815 -0.0745,0.55652 -0.1051,0.79971 -0.14146,1.10162 -0.0364,0.30188 -0.0785,0.66316 -0.12253,1.08429 -0.044,0.42117 -0.0948,0.90219 -0.39636,4.31697 -0.30157,3.41478 -0.78514,9.7473 -0.7749,14.07805 0.0102,4.33081 0.0267,4.68585 0.0454,4.98315 0.0187,0.2973 0.0372,0.5574 0.053,0.7818 0.0159,0.22443 0.0319,0.41553 0.0504,0.59003 0.0185,0.17447 0.15466,1.02607 0.3277,1.92993 0.17304,0.90384 0.38907,1.84607 0.64398,2.82801 0.2549,0.98187 0.55614,2.00193 0.89462,3.05753 0.33847,1.0556 0.54909,1.7082 0.86976,2.5288 0.32066,0.8206 0.74226,1.7876 1.27252,2.9038 0.53027,1.1162 1.18191,2.37803 1.97279,3.77647 0.79088,1.39843 0.88489,1.57193 0.9771,1.75193 0.0922,0.1801 0.17581,0.3536 0.25113,0.52084 0.0753,0.16726 0.14041,0.32896 0.18271,0.40521 0.0549,0.15695 0.1818,0.0545 0.19436,0.13525 z"
           id="path1065" />
      </g>
      <g
         style="fill:#000000;fill-opacity:1;stroke-linejoin:miter"
         id="g1071"
         transform="rotate(90,259.41968,748.93978)">
        <path
           d="m 185.13855,540.8082 c 0.60774,-0.3384 1.33934,-1.0791 1.97188,-1.651 0.63254,-0.5718 1.29143,-1.29917 2.0115,-2.0049 0.72008,-0.70577 1.30638,-1.2413 1.97625,-1.98165 0.66984,-0.74029 1.19836,-1.22198 1.83309,-1.71845 0.63474,-0.49645 1.17123,-1.131 1.7334,-1.6894 0.5622,-0.5584 0.89385,-0.81413 1.53073,-1.37254 0.6369,-0.55841 1.01128,-0.90306 1.69083,-1.54226 0.67955,-0.6391 0.97078,-0.9299 1.43298,-1.35435 0.46222,-0.42445 0.98682,-0.99485 1.27631,-1.50049 0.28948,-0.50556 0.61658,-0.81012 0.92358,-1.22866 0.30703,-0.41855 0.39547,-0.8918 0.67626,-1.08445 0.28079,-0.19265 0.28079,-0.19265 0.0936,-0.0642 0,0 -0.37439,0.25686 -0.68581,0.54846 -0.31143,0.2916 -0.71872,0.6883 -1.14708,1.015 -0.42836,0.32674 -0.80049,0.70327 -1.36595,1.10525 -0.56546,0.40191 -0.95967,0.5747 -1.66031,1.05325 -0.70065,0.4786 -1.26057,0.86154 -1.94673,1.34274 -0.68616,0.48126 -1.01904,0.67306 -1.7516,1.17856 -0.73258,0.50546 -1.21206,0.9625 -1.88651,1.56827 -0.67444,0.60583 -1.0831,1.06743 -1.76279,1.99953 -0.6797,0.93205 -0.94848,1.25755 -1.70544,2.2063 -0.75694,0.9488 -1.05493,1.4077 -1.68634,2.3053 -0.6314,0.8976 -0.87502,1.2894 -1.04112,1.795 -0.61321,0.9777 -0.0636,0.60274 -0.51073,1.0747 z"
           id="path1069" />
      </g>
      <g
         style="fill:#000000;fill-opacity:1;stroke-linejoin:miter"
         id="g1075"
         transform="rotate(90,259.41968,748.93978)">
        <path
           d="m 179.41475,487.58307 c 0.53979,0.629 1.77769,1.65207 3.99654,3.68255 2.21884,2.03048 2.73721,2.50724 5.33905,4.37208 2.60183,1.8648 3.3417,2.25036 5.83584,3.38543 2.49416,1.1351 3.17105,1.42725 4.52229,2.18585 1.35125,0.75862 1.77506,1.01512 2.49453,1.33672 0.71945,0.32158 1.17292,0.5026 0.92277,0.38356 -0.25015,-0.11906 -0.25015,-0.11906 -0.0351,-0.0464 0,0 0.57511,0.12528 0.12807,-0.34521 -0.44703,-0.47046 -1.26905,-1.07516 -1.79016,-1.56238 -0.52111,-0.48721 -2.25113,-1.84168 -3.44851,-2.59085 -1.19738,-0.74918 -4.19776,-2.53568 -5.69724,-3.43216 -1.49948,-0.89651 -4.29834,-2.79123 -5.75311,-3.83807 -1.45477,-1.04688 -4.14508,-2.71323 -4.95618,-2.97248 -1.48417,-0.67846 -0.88573,-0.13946 -1.55882,-0.55865 z"
           id="path1073" />
      </g>
      <g
         style="fill:#000000;fill-opacity:1;stroke-linejoin:miter"
         id="g1079"
         transform="rotate(90,259.41968,748.93978)">
        <path
           d="m 195.71182,495.90698 c -0.016,0.0822 -0.0221,0.22928 -0.0283,0.35507 -0.006,0.1258 -0.0127,0.23008 -0.0193,0.31225 -0.007,0.0822 -0.0134,0.14115 -0.0184,0.1829 -0.005,0.0417 -0.008,0.073 -0.0119,0.103 -0.004,0.03 -0.007,0.0587 -0.0112,0.0861 -0.004,0.0274 -0.008,0.0535 -0.0181,0.0957 -0.0102,0.0422 -0.0258,0.11582 -0.0388,0.18442 -0.013,0.0686 -0.0236,0.13217 -0.0321,0.19083 -0.009,0.0587 -0.0152,0.11294 -0.0207,0.15822 -0.006,0.0453 -0.0108,0.10978 -0.0153,0.1878 -0.005,0.0781 -0.009,0.17158 -0.012,0.28166 -0.003,0.11008 -0.005,0.23684 -5.5e-4,0.4158 0.004,0.17896 0.0158,0.46404 0.0399,0.8465 0.0241,0.38244 0.07,0.86221 0.12587,1.44229 0.0559,0.58008 0.12927,1.25931 0.18695,1.74603 0.0577,0.4867 0.0807,0.71702 0.099,0.91902 0.0182,0.202 0.031,0.37548 0.0427,0.51906 0.0117,0.14359 0.0216,0.25644 0.094,1.22348 0.0723,0.96704 0.22579,2.79383 0.23517,3.00726 0.009,0.21345 0.0169,0.43735 0.0211,0.65928 0.004,0.22192 0.005,0.44198 0.002,0.66012 -0.002,0.2181 -0.009,0.42072 0.04,1.9489 0.0485,1.52815 0.0522,1.676 0.0533,1.85134 0.001,0.17536 0.002,0.33926 0.002,0.49146 -2.3e-4,0.15215 -0.006,0.2919 -0.0152,0.4205 -0.009,0.1286 -0.0211,0.30294 -0.0307,0.4623 -0.01,0.15937 -0.0209,0.3014 -0.0328,0.42566 -0.0118,0.12434 -0.0231,0.23034 -0.0308,0.31114 -0.008,0.0809 -0.0946,0.64486 -0.16649,1.14516 -0.0719,0.50031 -0.13019,0.93201 -0.17627,1.29564 -0.0461,0.3636 -0.0801,0.66023 -0.0981,0.8828 -0.018,0.22256 -0.0321,0.3593 -0.0511,0.6418 -0.019,0.28254 -0.0452,0.6889 -0.0621,1.2264 -0.0169,0.5375 -0.0297,1.2066 -0.0312,2.0101 -0.002,0.8035 0.0112,1.06875 0.047,1.3518 0.0358,0.2832 0.0937,0.5873 0.17376,0.9131 0.0801,0.3258 0.18311,0.67354 0.24842,0.9489 0.0653,0.2754 0.0653,0.2754 0.0379,0.0896 0,0 -0.007,-0.37814 0.0109,-0.7262 0.0175,-0.3482 0.0413,-0.66324 0.0764,-0.9452 0.0351,-0.28194 0.0772,-0.53005 0.20093,-1.0508 0.12379,-0.5208 0.2859,-1.25836 0.42033,-1.8657 0.13443,-0.60744 0.23448,-1.08486 0.30654,-1.42965 0.072,-0.34479 0.12236,-0.54935 0.16358,-0.71505 0.0412,-0.16556 0.0972,-0.3892 0.17304,-0.6854 0.0759,-0.29614 0.17358,-0.66223 0.29309,-1.09717 0.11951,-0.43493 0.25798,-0.93878 0.34848,-1.27637 0.0905,-0.33752 0.1179,-0.45376 0.14456,-0.58336 0.0267,-0.1297 0.0544,-0.2732 0.0851,-0.43104 0.0307,-0.15776 0.0639,-0.33026 0.0905,-0.49701 0.0266,-0.16675 0.0473,-0.32435 0.0696,-0.4909 0.0223,-0.16651 0.0452,-0.34235 0.0649,-0.52808 0.0197,-0.18567 0.0372,-0.38127 0.0786,-1.27127 0.0413,-0.89 0.031,-2.42557 0.0122,-2.67362 -0.0188,-0.24808 -0.0413,-0.49018 -0.0677,-0.73318 -0.0263,-0.243 -0.0564,-0.48688 -0.0903,-0.7316 -0.0339,-0.24472 -0.0745,-0.515 -0.42333,-2.32107 -0.34878,-1.80607 -0.36725,-1.90769 -0.39328,-2.04215 -0.026,-0.13448 -0.0637,-0.29308 -0.1084,-0.47758 -0.0447,-0.18447 -0.094,-0.39574 -0.15158,-0.64046 -0.0576,-0.24472 -0.25047,-0.97134 -0.42302,-1.59284 -0.17253,-0.62152 -0.32266,-1.14428 -0.43828,-1.5701 -0.11561,-0.4258 -0.20773,-0.7519 -0.2649,-0.9795 -0.0572,-0.2276 -0.0849,-0.35594 -0.11145,-0.46913 -0.0265,-0.11319 -0.0487,-0.20865 -0.0657,-0.28595 -0.017,-0.0773 -0.0288,-0.13538 -0.0357,-0.17688 -0.007,-0.0415 -0.0135,-0.0871 -0.0198,-0.13327 -0.006,-0.0462 -0.0122,-0.0996 -0.0178,-0.15964 -0.006,-0.0601 -0.0119,-0.1268 -0.0177,-0.20291 -0.006,-0.0761 -0.009,-0.11804 -0.014,-0.14847 -0.005,-0.0304 -0.01,-0.0617 -0.0151,-0.0938 -0.006,-0.0321 -0.0116,-0.0651 -0.0181,-0.0973 -0.007,-0.0322 -0.0164,-0.0835 -0.0334,-0.15682 -0.0169,-0.0733 -0.0406,-0.16444 -0.0711,-0.27443 -0.0304,-0.10995 -0.0677,-0.23917 -0.10161,-0.30865 -0.044,-0.14856 -0.17398,-0.0517 -0.18407,-0.13074 z"
           id="path1077" />
      </g>
    </g>
  </g>
</svg>
