<?xml version="1.0" encoding="UTF-8" standalone="no"?>
<!-- Created with Inkscape (http://www.inkscape.org/) -->

<svg
   width="268.67789em"
   height="268.67789em"
   viewBox="0 0 268.67789 268.67789"
   version="1.1"
   id="svg5"
   xml:space="preserve"
   xmlns="http://www.w3.org/2000/svg"
   xmlns:svg="http://www.w3.org/2000/svg"><defs
     id="defs2" /><g
     id="layer1"
     transform="translate(1645.512,-699.17822)"><g
       id="g53715"><rect
         style="display:inline;fill:none;fill-opacity:1;stroke:none;stroke-width:5.29167;stroke-dasharray:none;stroke-opacity:1"
         id="rect53397"
         width="268.67789"
         height="268.67789"
         x="-1645.512"
         y="699.17822" /><g
         id="g52773"
         transform="matrix(3.1803656,0,0,3.1803656,-4345.8597,-2173.9333)"><g
           style="fill:#000000;fill-opacity:1;stroke-linejoin:miter"
           id="g50676"
           transform="matrix(0.0212301,0.88760364,-0.82571352,0.02282136,2056.9295,403.92004)"><path
             d="m 544.3006,1464.178 c -0.1107,-0.2345 -0.3591,-0.6481 -0.55585,-1.0618 -0.19685,-0.4138 -0.34365,-0.8274 -0.44605,-1.2385 -0.10235,-0.4113 -0.163,-0.8217 -0.1666,-1.013 -0.004,-0.1914 0.003,-0.2647 0.0119,-0.3228 0.008,-0.058 0.0176,-0.1 0.0264,-0.1205 0.009,-0.021 0.0147,-0.016 0.0343,-0.061 0.0196,-0.045 0.0684,-0.2025 0.1315,-0.415 0.0631,-0.2125 0.14213,-0.4862 0.2375,-0.8237 0.0954,-0.3376 0.20724,-0.7397 0.3101,-1.0994 0.1029,-0.3597 0.1951,-0.6781 0.2164,-0.7307 0.0213,-0.053 0.0467,-0.1206 0.073,-0.1875 0.0263,-0.067 0.0532,-0.1321 0.081,-0.1961 0.0276,-0.064 0.0594,-0.1334 0.19605,-0.4374 0.1366,-0.304 0.2605,-0.575 0.37066,-0.8133 0.11014,-0.2381 0.20454,-0.444 0.28571,-0.6142 0.0812,-0.1703 0.15943,-0.3335 0.19659,-0.4353 0.0372,-0.1019 0.0644,-0.181 0.0894,-0.2598 0.0251,-0.079 0.0486,-0.1593 0.0701,-0.2395 0.0215,-0.08 -0.0108,0.061 0.0308,-0.1046 0.0417,-0.166 -0.2238,-0.3617 -0.22836,-0.5634 -0.005,-0.2018 -0.0165,-0.4725 -0.0347,-0.8185 -0.0181,-0.3459 -0.0455,-0.7716 -0.0536,-0.8787 -0.008,-0.1073 -0.0166,-0.2009 -0.025,-0.2879 -0.008,-0.087 -0.017,-0.1684 -0.0257,-0.2441 -0.009,-0.076 -0.0176,-0.1447 -0.13066,-0.8175 -0.11309,-0.6729 -0.22804,-1.284 -0.35274,-1.83 -0.1246,-0.5461 -0.25126,-1.0279 -0.37943,-1.4465 -0.12817,-0.4185 -0.25387,-0.753 -0.49701,-1.4046 -0.24311,-0.6517 -0.48986,-1.2291 -0.73606,-1.7261 -0.2463,-0.4969 -0.4477,-0.9301 -0.5828,-1.2258 -0.1351,-0.2955 -0.1351,-0.2955 -0.045,-0.098 0,0 0.18013,0.3942 0.29168,0.8803 0.11155,0.4859 0.17535,1.0492 0.21395,1.6817 0.0386,0.6326 0.0594,1.3456 0.0741,1.7089 0.0147,0.3632 0.009,0.7821 -0.0146,1.2662 -0.024,0.4842 -0.0648,1.0327 -0.11621,1.6452 -0.0515,0.6125 -0.12097,1.2955 -0.12769,1.3376 -0.007,0.042 -0.0153,0.095 -0.0257,0.1569 -0.0105,0.062 -0.0228,0.134 -0.0373,0.2151 -0.0144,0.081 -0.0302,0.1573 -0.0997,0.5414 -0.0695,0.3841 -0.125,0.6893 -0.1679,0.9116 -0.043,0.2223 -0.0715,0.354 -0.18275,0.2314 -0.11135,-0.1227 -0.12659,-0.095 -0.15285,0.048 -0.0263,0.1435 -0.0267,0.1732 -0.0275,0.2009 -8e-4,0.028 -0.002,0.053 -0.003,0.076 -10e-4,0.023 0.0139,0 -0.0321,0.1754 -0.0459,0.1791 -0.10057,0.4011 -0.15794,0.6526 -0.0573,0.2515 -0.11586,0.5348 -0.17846,0.8494 -0.0627,0.3146 -0.12904,0.6592 -0.1488,0.7541 -0.0199,0.095 -0.0398,0.194 -0.0582,0.2939 -0.0183,0.1 -0.0351,0.2001 -0.0503,0.3012 -0.0153,0.1012 -0.036,0.2372 -0.0675,0.5989 -0.0315,0.3616 -0.0409,0.8424 -0.0448,1.2306 -0.004,0.3882 -0.008,0.7073 -0.0136,0.956 -0.005,0.2488 -0.01,0.4241 -0.0152,0.5295 -0.005,0.1052 -0.0171,0.2022 -0.0203,0.3032 -0.003,0.1008 0.002,0.1974 0.0121,0.2942 0.0104,0.097 0.0257,0.1974 0.0551,0.3611 0.0294,0.1638 0.2229,0.6519 0.46404,1.1141 0.24106,0.4622 0.53333,0.8888 0.86706,1.2816 0.3338,0.393 0.7074,0.7526 0.9402,0.8955 0.4097,0.3255 0.54516,-0.16 0.7221,0.023 z"
             id="path50674" /></g><g
           style="fill:#000000;fill-opacity:1;stroke-linejoin:miter"
           id="g50680"
           transform="matrix(0.0212301,0.88760364,-0.82571352,0.02282136,2056.9295,403.92004)"><path
             d="m 540.5614,1414.4111 c 0.7216,0.2151 2.02704,0.3322 3.1505,0.304 1.12355,-0.028 2.07954,-0.2071 2.8925,-0.5728 0.8129,-0.3658 1.4506,-0.9995 1.721,-1.5603 0.27036,-0.5609 0.37974,-0.8967 0.46964,-1.237 0.09,-0.3404 0.1579,-0.6857 0.20156,-1.0357 0.0436,-0.3499 0.0615,-0.7032 0.0734,-1.9618 0.0119,-1.2585 0.0343,-3.5194 -0.0471,-4.1038 -0.0814,-0.5845 -0.13435,-1.1266 -0.18214,-1.7631 -0.0478,-0.6365 -0.39459,-1.323 -0.58126,-2.1266 -0.1866,-0.8035 -0.3805,-1.6814 -0.44126,-2.0262 -0.0607,-0.3449 -0.11469,-0.7354 -0.15979,-1.1552 -0.0451,-0.4199 -0.0811,-0.8685 -0.11085,-1.3453 -0.0296,-0.4768 -0.0798,-0.8075 0.056,-1.5849 0.1358,-0.7772 0.35962,-1.7419 0.6546,-2.8504 0.29496,-1.1086 0.66486,-2.3565 0.90082,-3.4027 0.23594,-1.0462 0.23594,-1.0462 -0.0702,-0.4198 0,0 -1.0584,1.0393 -1.7514,2.1141 -0.6929,1.0748 -1.26694,2.0642 -1.7303,2.9692 -0.4634,0.9049 -0.83114,1.8128 -0.93386,2.4281 -0.10274,0.6154 -0.17139,1.1248 -0.22514,1.6156 -0.0538,0.4908 -0.0924,0.9635 -0.1155,1.4187 -0.0231,0.4554 -0.0273,0.9253 -0.006,1.8482 0.0209,0.9227 0.0508,1.7557 0.0686,2.5123 0.0178,0.7566 0.1831,1.4121 0.34456,1.991 0.16144,0.5788 0.27039,0.8026 0.64698,2.9491 0.37656,2.1466 0.42476,2.3868 0.45906,2.5897 0.0343,0.2029 0.0548,0.4128 0.0605,0.6315 0.006,0.2187 -0.007,0.4455 -0.021,0.632 -0.0143,0.1866 -0.053,0.4275 -0.22357,0.6623 -0.17056,0.2347 -0.63366,0.5526 -1.39666,0.8729 -0.763,0.3204 -1.8049,0.6263 -2.40656,0.8904 -1.3078,0.2815 -0.59084,0.699 -1.29694,0.7165 z"
             id="path50678" /></g><g
           style="fill:#000000;fill-opacity:1;stroke-linejoin:miter"
           id="g50684"
           transform="matrix(0.0212301,0.88760364,-0.82571352,0.02282136,2056.9295,403.92004)"><path
             d="m 564.1559,1456.6969 c -0.33516,0.057 -0.90395,0.2369 -1.39284,0.3707 -0.48886,0.1339 -0.89426,0.2211 -1.20626,0.2652 -0.3119,0.044 -0.51676,0.044 -0.8649,0.023 -0.3482,-0.021 -0.813,-0.057 -1.25947,-0.1231 -0.44647,-0.066 -0.87473,-0.1599 -1.28583,-0.2808 -0.41107,-0.1208 -0.80914,-0.2541 -1.1403,-0.4045 -0.3312,-0.1503 -0.6485,-0.344 -0.9592,-0.5714 -0.3107,-0.2274 -0.6191,-0.4835 -0.9242,-0.7748 -0.3051,-0.2911 -0.6114,-0.6142 -0.9209,-0.9867 -0.3094,-0.3724 -0.582,-0.7566 -0.78037,-1.0846 -0.19843,-0.328 -0.32643,-0.588 -0.38318,-0.7656 -0.0567,-0.1777 -0.0546,-0.2543 -0.0273,-0.3575 0.0272,-0.1033 0.12244,-0.3808 0.37135,-0.8871 0.24885,-0.5065 0.67559,-1.2039 1.29935,-2.0523 0.6238,-0.8485 1.454,-1.8243 1.82705,-2.4599 0.37305,-0.6355 0.58875,-0.8678 0.80325,-1.0784 0.21445,-0.2106 0.42923,-0.3973 0.6456,-0.5623 0.2164,-0.1648 0.4345,-0.3087 0.664,-0.4409 0.22956,-0.1323 0.13825,-0.1024 0.2527,-0.1518 0.1144,-0.049 0.3619,-0.1308 0.7114,-0.2334 0.34956,-0.1027 0.79305,-0.2256 1.1686,-0.3225 0.3756,-0.097 0.5396,-0.1536 0.704,-0.2227 0.1644,-0.069 0.3536,-0.1557 0.57663,-0.262 0.22303,-0.1062 0.48327,-0.2331 0.36427,-0.2512 -0.11897,-0.018 -0.6586,-0.082 -1.0702,-0.3446 -0.4117,-0.2624 -0.5835,-0.5143 -0.633,-0.6505 -0.0495,-0.1364 -0.0479,-0.1743 -0.0417,-0.01 0.006,0.164 0.0166,0.8237 0.0321,1.3876 0.0156,0.564 0.0362,1.0348 0.0626,1.4208 0.0264,0.3859 0.065,0.7043 0.48265,2.6252 0.41765,1.9209 1.29135,5.531 1.45295,6.0701 0.16155,0.5392 0.32323,1.022 0.4835,1.4523 0.1602,0.4303 0.2576,0.8238 0.33503,1.0943 0.0775,0.2706 0.0775,0.2706 0.0258,0.09 0,0 -0.10325,-0.3608 -0.1643,-0.7775 -0.0609,-0.4166 -0.0704,-0.8872 -0.0628,-1.4036 0.008,-0.5165 0.0329,-1.071 0.2115,-4.7729 0.1787,-3.7019 0.1857,-3.8408 0.2142,-4.0642 0.0285,-0.2235 0.0774,-0.5703 0.15094,-1.0251 0.0734,-0.4547 0.17156,-1.0124 0.297,-1.7061 0.12546,-0.6938 0.0863,-1.2608 0.0217,-1.5218 -0.0646,-0.2611 -0.2071,-0.5771 -0.5388,-0.9437 -0.33174,-0.3666 -0.9223,-0.6409 -1.5379,-0.6244 -0.6156,0.017 -0.96205,0.1143 -1.2099,0.1785 -0.2479,0.064 -0.4477,0.1138 -0.5936,0.1463 -0.1459,0.033 -0.22844,0.046 -0.1891,0.031 0.0395,-0.015 -0.496,0.034 -0.97916,0.089 -0.48314,0.055 -0.8963,0.1199 -1.25594,0.1931 -0.3596,0.073 -0.6985,0.1707 -0.9214,0.2649 -0.2229,0.094 -0.5528,0.2069 -0.993,0.4065 -0.44013,0.1997 -0.87134,0.432 -1.29206,0.6953 -0.42074,0.2633 -0.83094,0.5562 -1.31207,0.9747 -0.48117,0.4185 -1.63263,1.5991 -2.36427,2.8207 -0.7317,1.2217 -1.30767,2.3447 -1.7178,3.3996 -0.4102,1.055 -0.6373,2.0764 -0.6381,3.038 -8e-4,0.9615 0.1369,1.5808 0.3625,2.0944 0.2255,0.5135 0.5205,0.9813 0.876,1.4237 0.3555,0.4423 0.7721,0.8703 1.2477,1.3038 0.47567,0.4335 0.95675,0.8257 1.4432,1.1663 0.4864,0.3407 0.9828,0.6352 1.48803,0.8808 0.50531,0.2456 1.01747,0.4424 1.54407,0.5989 0.5267,0.1566 1.09406,0.2576 1.63666,0.3041 0.5426,0.046 1.08644,0.045 1.62864,0.01 0.54226,-0.039 1.08223,-0.1158 1.6075,-0.2314 0.52533,-0.1156 0.78943,-0.1734 1.1354,-0.3045 0.346,-0.1312 0.71836,-0.3268 1.1315,-0.5858 0.41316,-0.259 0.8731,-0.5797 1.09584,-0.8088 0.50982,-0.3826 0.0177,-0.613 0.30476,-0.7664 z"
             id="path50682" /></g><g
           style="fill:#000000;fill-opacity:1;stroke-linejoin:miter"
           id="g50688"
           transform="matrix(0.0212301,0.88760364,-0.82571352,0.02282136,2056.9295,403.92004)"><path
             d="m 557.8422,1412.1495 2.629,-0.4636 4.8019,-0.8465 3.23215,-0.57 -10.66305,1.8801"
             id="path50686" /></g><g
           style="fill:#000000;fill-opacity:1;stroke-linejoin:miter"
           id="g50692"
           transform="matrix(0.0212301,0.88760364,-0.82571352,0.02282136,2056.9295,403.92004)"><path
             d="m 558.4618,1410.8081 c -0.0825,-0.2861 -0.295,-0.7801 -0.4602,-1.2335 -0.1652,-0.4534 -0.28303,-0.864 -0.3578,-1.2267 -0.0748,-0.3625 -0.10724,-0.6749 -0.12256,-0.9814 -0.0154,-0.3067 -0.007,-0.576 0.0333,-0.8881 0.0405,-0.3121 0.11583,-0.6665 0.22827,-1.0618 0.11246,-0.3952 0.26312,-0.8307 0.35216,-1.1103 0.089,-0.2797 0.0949,-0.2488 0.17604,-0.3974 0.0811,-0.1485 0.22351,-0.4035 0.24806,-0.8269 0.0246,-0.4234 0.17283,-0.9035 0.5725,-1.865 0.39965,-0.9614 1.0823,-2.4626 1.2302,-2.7578 0.14797,-0.2952 0.3199,-0.6159 0.51454,-0.955 0.19466,-0.3392 0.41181,-0.6962 0.65136,-1.0711 0.23963,-0.3748 0.5418,-0.7288 0.61244,-0.8054 0.0706,-0.077 0.1524,-0.1543 0.24546,-0.2329 0.093,-0.079 0.1973,-0.1586 0.281,-0.2189 0.0838,-0.06 0.0838,-0.06 0.028,-0.02 0,0 -0.1117,0.08 -0.21224,0.1599 -0.10052,0.079 -0.18982,0.1577 -0.26786,0.2351 -0.0781,0.077 -0.145,0.1535 -0.4904,0.4571 -0.3453,0.3036 -0.68656,0.5808 -1.0036,0.8507 -0.317,0.2701 -0.60997,0.5332 -0.8791,0.7901 -0.2692,0.2569 -0.5169,0.521 -1.61496,1.7812 -1.09814,1.2602 -1.45644,1.836 -1.84424,2.1888 -0.38775,0.3527 -0.50696,0.7299 -0.6004,1.0273 -0.0934,0.2972 -0.16156,0.5382 -0.1928,0.706 -0.0312,0.1679 -0.0974,0.6993 -0.1245,1.237 -0.0271,0.5377 -0.0219,1.0376 0.0173,1.5008 0.0392,0.4633 0.1144,0.8909 0.22584,1.258 0.11151,0.367 0.23466,0.7156 0.42026,1.1085 0.18564,0.3929 0.42807,0.7867 0.721,1.1868 0.29295,0.4 0.6354,0.8092 0.8635,0.9926 0.39124,0.4197 0.58625,-0.064 0.7494,0.1724 z"
             id="path50690" /></g><g
           style="fill:#000000;fill-opacity:1;stroke-linejoin:miter"
           id="g50696"
           transform="matrix(0.0212301,0.88760364,-0.82571352,0.02282136,2056.9295,403.92004)"><path
             d="m 569.50397,1410.1384 c 0.006,-0.058 -0.002,-0.1742 -0.0134,-0.2984 -0.0114,-0.1243 -0.0262,-0.2564 -0.0447,-0.3962 -0.0185,-0.1397 -0.0404,-0.2873 -0.0676,-0.3952 -0.0272,-0.1079 -0.0563,-0.2581 -0.13074,-0.6544 -0.0744,-0.3964 -0.18686,-1.0224 -0.34956,-1.8715 -0.1627,-0.8491 -0.3833,-1.9185 -0.5091,-2.5605 -0.12584,-0.6422 -0.1359,-0.7415 -0.1433,-0.8464 -0.007,-0.1048 -0.0164,-0.2149 -0.0227,-0.3311 -0.006,-0.1161 -0.01,-0.2381 -0.006,-0.3245 0.003,-0.086 0.0149,-0.1331 0.0312,-0.1872 0.0163,-0.054 0.0388,-0.1171 -0.11121,-0.2356 -0.15004,-0.1187 -0.14044,-0.225 0.0702,-1.0862 0.21063,-0.8614 0.62171,-2.5335 0.64027,-2.772 0.0185,-0.2384 0.01,-0.4334 -0.0143,-0.6309 -0.024,-0.1973 -0.0619,-0.3972 -0.1122,-0.5994 -0.0502,-0.2023 -0.11216,-0.4042 -0.14914,-0.5121 -0.037,-0.1078 -0.086,-0.2185 -0.14566,-0.329 -0.0597,-0.1105 -0.1299,-0.2216 -0.21055,-0.3336 -0.0806,-0.1121 -0.1809,-0.2397 -0.51595,-0.5345 -0.335,-0.2949 -0.56205,-0.5753 -0.7375,-0.7982 -0.1755,-0.2229 -0.29934,-0.3884 -0.3664,-0.4837 -0.0672,-0.095 -0.0672,-0.095 -0.0224,-0.032 0,0 0.0895,0.1271 0.2305,0.3118 0.14106,0.1846 0.33375,0.4266 0.55275,0.7471 0.21905,0.3203 0.45251,0.7218 0.49085,0.8399 0.0383,0.1182 0.0715,0.235 0.0948,0.3429 0.0235,0.1079 0.0374,0.2066 0.0421,0.2949 0.005,0.088 0.002,0.1731 -0.007,0.3644 -0.009,0.1913 -0.0275,0.3693 -0.0547,0.5353 -0.0272,0.1659 -0.061,0.3198 -0.10154,0.4618 -0.0406,0.142 -0.0615,0.1798 -0.9253,1.6532 -0.8637,1.4735 -0.962,1.6988 -1.03126,1.886 -0.0693,0.187 -0.4256,0.329 -0.43531,0.5417 -0.01,0.2128 -0.003,0.4253 0.0222,0.6289 0.0247,0.2035 0.0627,0.3846 0.10315,0.55 0.0403,0.1654 0.0843,0.326 0.13415,0.482 0.0498,0.1559 0.1059,0.3069 0.17015,0.4663 0.0643,0.1593 0.6245,1.2776 1.0891,2.1848 0.4646,0.9071 0.8364,1.6065 1.1107,2.1005 0.2743,0.494 0.4421,0.7889 0.5009,0.8772 0.0588,0.088 0.1193,0.1964 0.1821,0.3199 0.0627,0.1237 0.11966,0.2409 0.17093,0.3516 0.0512,0.1108 0.0967,0.2152 0.12577,0.2622 0.0399,0.099 0.45516,-0.042 0.46597,0.01 z"
             id="path50694" /></g><g
           style="fill:#000000;fill-opacity:1;stroke-linejoin:miter"
           id="g50700"
           transform="matrix(0.0212301,0.88760364,-0.82571352,0.02282136,2056.9295,403.92004)"><path
             d="m 601.60315,1454.8628 c -0.36765,-0.3776 -1.04795,-1.0022 -1.52595,-1.634 -0.47796,-0.632 -0.7707,-1.261 -0.90734,-1.8958 -0.13666,-0.6348 -0.12421,-1.2999 -0.0425,-1.8513 0.0817,-0.5515 0.15947,-0.9132 0.2496,-1.213 0.0902,-0.2998 0.1835,-0.5342 0.27077,-0.6977 0.0873,-0.1633 0.15619,-0.2524 0.54413,-0.8476 0.38793,-0.5951 0.99945,-1.5397 1.6181,-2.4213 0.61865,-0.8816 1.22375,-1.7115 1.825,-2.484 0.6012,-0.7726 1.1912,-1.4917 1.7002,-2.1631 0.5091,-0.6714 0.5374,-1.2197 0.7173,-1.6399 0.17986,-0.42 0.32903,-0.8214 0.44494,-1.2175 0.11596,-0.3962 0.19256,-0.8033 0.20766,-0.9797 0.015,-0.1763 0.0363,-0.3533 0.0532,-0.5336 0.017,-0.1803 0.03,-0.3646 0.0377,-0.5531 0.008,-0.1885 0.0105,-0.3811 -0.008,-0.9304 -0.0182,-0.5492 -0.0539,-1.2966 -0.0812,-1.9148 -0.0273,-0.6183 -0.0462,-1.106 -0.0571,-1.4588 -0.0109,-0.3529 -0.0155,-0.5584 0.004,-1.0068 0.0192,-0.4482 0.0456,-1.1683 0.0614,-1.7539 0.0157,-0.5855 0.0203,-1.0373 0.021,-1.3595 7e-4,-0.3221 -10e-4,-0.5366 -0.01,-0.6752 -0.009,-0.1385 -0.0177,-0.3662 -0.0308,-0.5908 -0.0131,-0.2245 -0.0304,-0.4459 -0.0532,-0.664 -0.0228,-0.2183 -0.0518,-0.4333 -0.10096,-0.726 -0.0491,-0.2927 -0.1178,-0.6396 -0.19044,-0.9667 -0.0727,-0.3269 -0.14935,-0.6343 -0.23,-0.9216 -0.0806,-0.2875 -0.1669,-0.5548 -0.43296,-0.7012 -0.26611,-0.1463 -0.26611,-0.1463 -0.24204,-0.021 0,0 -0.41195,0.3326 -0.41286,0.5964 -8.4e-4,0.2638 -0.01,0.5457 -0.0278,0.8455 -0.018,0.2997 -0.0449,0.6175 -0.0809,0.9518 -0.036,0.3342 -0.0643,0.5136 -0.0963,0.7042 -0.0321,0.1905 -0.0655,0.3827 -0.10317,0.5764 -0.0376,0.1936 -0.0797,0.3889 -0.12733,0.6006 -0.0477,0.2117 -0.0601,0.2945 -0.10924,0.4746 -0.0492,0.18 -0.1402,0.5117 -0.27006,0.979 -0.1299,0.4672 -0.29177,1.069 -0.4849,1.8077 -0.1931,0.7388 -0.2363,0.9537 -0.2907,1.2609 -0.0543,0.3074 -0.1236,0.7263 -0.209,1.267 -0.0854,0.5406 -0.1871,1.2054 -0.305,1.988 -0.11783,0.7826 -0.1442,0.8746 -0.17545,1.0125 -0.0313,0.1378 -0.0613,0.2669 -0.0918,0.3871 -0.0305,0.12 -0.0619,0.2307 -0.10215,0.3769 -0.0403,0.1461 -0.0791,0.3019 -0.1277,0.3965 -0.0486,0.095 -0.1357,0.2674 -0.2681,0.5012 -0.13236,0.2339 -0.31107,0.519 -0.5572,0.7488 -0.2461,0.2298 -0.7277,0.9919 -1.2528,1.9038 -0.5252,0.9117 -1.03256,1.873 -1.5243,2.8834 -0.4917,1.0104 -0.9564,2.0762 -1.41176,3.1713 -0.45534,1.0951 -0.5553,1.3113 -0.6836,1.6919 -0.12834,0.3805 -0.20834,0.7784 -0.25378,1.198 -0.0455,0.4195 -0.0626,0.8653 -0.0611,1.3667 0.002,0.5013 0.1094,1.4937 0.4308,2.4342 0.3214,0.9404 0.8345,1.7543 1.5253,2.4159 0.6907,0.6615 1.53855,1.166 2.05406,1.301 0.97714,0.3694 0.71258,-0.2531 1.17419,-0.019 z"
             id="path50698" /></g></g></g></g></svg>
