<?xml version="1.0" encoding="UTF-8" standalone="no"?>
<svg
   version="1.1"
   width="135.38521"
   height="135.38521"
   viewBox="0 0 135.38521 135.38521"
   id="svg1214"
   xmlns="http://www.w3.org/2000/svg"
   xmlns:svg="http://www.w3.org/2000/svg">
  <defs
     id="defs1218" />
  <g
     id="g7300"
     transform="translate(-706.27039,-1270.9547)">
    <rect
       style="display:inline;opacity:0.5;fill:none;fill-opacity:1;stroke:none;stroke-width:2.66644;stroke-dasharray:none;stroke-opacity:1"
       id="rect5453"
       width="135.38521"
       height="135.38521"
       x="706.27039"
       y="1270.9547" />
    <g
       id="g7281">
      <g
         id="g4174"
         transform="matrix(1.2546297,0,0,1.2546297,1298.7599,1.6951487)">
        <g
           style="fill:#000000;fill-opacity:1;stroke-linejoin:miter"
           id="g239"
           transform="rotate(90,259.41968,748.93978)">
          <path
             d="m 544.19507,1464.2803 c -0.11367,-0.2376 -0.36853,-0.6573 -0.58137,-1.0723 -0.2128,-0.415 -0.38085,-0.8304 -0.5103,-1.2456 -0.12946,-0.4153 -0.2178,-0.8347 -0.2436,-1.0514 -0.0258,-0.2167 -0.022,-0.2949 -0.0164,-0.3596 0.006,-0.065 0.0126,-0.115 0.0195,-0.1478 0.007,-0.033 0.0125,-0.046 0.03,-0.098 0.0174,-0.053 0.058,-0.2047 0.11033,-0.4154 0.0523,-0.2108 0.11747,-0.4845 0.19287,-0.8234 0.0754,-0.3392 0.1603,-0.7441 0.24665,-1.1157 0.0864,-0.3715 0.17355,-0.6944 0.19285,-0.7586 0.0194,-0.064 0.0418,-0.1382 0.0653,-0.2112 0.0234,-0.073 0.0486,-0.1442 0.0751,-0.2141 0.0266,-0.07 0.0554,-0.1436 0.1729,-0.4551 0.1175,-0.3115 0.2278,-0.5891 0.32716,-0.834 0.0993,-0.2448 0.18518,-0.4575 0.25879,-0.6364 0.0736,-0.1789 0.14255,-0.3414 0.17108,-0.4244 0.0285,-0.083 0.0502,-0.1522 0.0701,-0.2216 0.0199,-0.07 0.0385,-0.1403 0.0555,-0.2116 0.0169,-0.071 -6.1e-4,0 0.0285,-0.1173 0.029,-0.1143 0.006,-0.2626 0.01,-0.4587 0.004,-0.1962 0.009,-0.4637 0.009,-0.8074 4.3e-4,-0.3436 0.004,-0.7662 0.002,-0.8701 -10e-4,-0.1039 -0.004,-0.1956 -0.008,-0.2805 -0.003,-0.085 -0.007,-0.1637 -0.0118,-0.2364 -0.005,-0.073 -0.01,-0.1386 -0.0789,-0.8113 -0.0691,-0.6724 -0.1469,-1.2834 -0.2346,-1.8308 -0.0877,-0.5475 -0.18004,-1.0323 -0.2865,-1.4543 -0.1064,-0.4219 -0.2151,-0.7598 -0.42076,-1.4207 -0.20554,-0.661 -0.43334,-1.2473 -0.67004,-1.7536 -0.23663,-0.5065 -0.4811,-0.9311 -0.6698,-1.2041 -0.1887,-0.2731 -0.1887,-0.2731 -0.0986,-0.076 0,0 0.0729,0.4392 0.16589,0.9249 0.093,0.4856 0.17004,1.0394 0.23544,1.6624 0.0653,0.6229 0.1267,1.3276 0.15946,1.6873 0.0327,0.3597 0.0516,0.7755 0.0643,1.257 0.0127,0.4816 0.007,1.0296 -0.005,1.6425 -0.0116,0.6129 -0.0357,1.2958 -0.0387,1.3409 -0.003,0.045 -0.007,0.1007 -0.0128,0.1653 -0.006,0.064 -0.0128,0.1384 -0.0214,0.2212 -0.009,0.083 -0.0171,0.1642 -0.0623,0.5508 -0.0452,0.3866 -0.0816,0.6943 -0.11107,0.9204 -0.0295,0.2261 -0.0517,0.3646 -0.0557,0.3225 -0.004,-0.042 -0.0162,-0.025 -0.0374,0.086 -0.0211,0.1112 -0.0262,0.1501 -0.032,0.187 -0.006,0.037 -0.0119,0.072 -0.0185,0.105 -0.007,0.033 -0.004,0.034 -0.0575,0.209 -0.054,0.1749 -0.117,0.3887 -0.1833,0.6336 -0.0663,0.2447 -0.1371,0.5212 -0.21625,0.8283 -0.0791,0.3073 -0.16431,0.645 -0.18615,0.735 -0.0218,0.09 -0.0429,0.1829 -0.0636,0.2765 -0.0206,0.094 -0.0403,0.1882 -0.0586,0.2834 -0.0183,0.095 -0.0397,0.2139 -0.0773,0.5672 -0.0375,0.3531 -0.0729,0.8226 -0.1023,1.2082 -0.0294,0.3858 -0.05,0.704 -0.0679,0.9532 -0.0179,0.2492 -0.0326,0.4272 -0.0446,0.5361 -0.0119,0.109 -0.0229,0.1886 -0.0271,0.2742 -0.004,0.085 -10e-4,0.171 0.007,0.26 0.008,0.089 0.0203,0.1834 0.0427,0.324 0.0223,0.1406 0.18219,0.6196 0.39899,1.073 0.21675,0.4534 0.47589,0.8804 0.78949,1.2722 0.3136,0.3918 0.67426,0.7492 0.90226,0.8877 0.40505,0.3208 0.3294,0.04 0.50637,0.2224 z"
             id="path237" />
        </g>
        <g
           style="fill:#000000;fill-opacity:1;stroke-linejoin:miter"
           id="g243"
           transform="rotate(90,259.41968,748.93978)">
          <path
             d="m 540.55774,1414.2642 c 0.71806,0.2076 2.01062,0.2739 3.10636,0.1987 1.0958,-0.075 2.0036,-0.2829 2.7357,-0.646 0.7321,-0.363 1.2694,-0.9251 1.49876,-1.4211 0.22934,-0.4961 0.32111,-0.8148 0.39324,-1.1354 0.0722,-0.3207 0.1191,-0.6439 0.1479,-0.9685 0.0289,-0.3246 0.0351,-0.6504 -0.004,-1.8989 -0.0388,-1.2486 -0.11078,-3.481 -0.20557,-4.0275 -0.0948,-0.5467 -0.1723,-1.0999 -0.25037,-1.7442 -0.078,-0.6441 -0.2329,-1.3673 -0.37524,-2.1826 -0.1424,-0.8152 -0.28406,-1.7086 -0.32611,-2.0717 -0.042,-0.3631 -0.0752,-0.7645 -0.0981,-1.1929 -0.0229,-0.4286 -0.0431,-0.8841 -0.045,-1.3658 -0.002,-0.4815 -0.0126,-0.8596 0.18364,-1.6418 0.1962,-0.7823 0.4848,-1.7292 0.85243,-2.8093 0.36757,-1.0801 0.79651,-2.3002 1.00997,-3.3572 0.2134,-1.0569 0.2134,-1.0569 -0.0927,-0.4305 0,0 -1.1034,1.0178 -1.72666,2.1236 -0.62324,1.1057 -1.13244,2.1179 -1.53264,3.0369 -0.4002,0.919 -0.7087,1.8066 -0.78,2.396 -0.0713,0.5895 -0.1079,1.0937 -0.1424,1.5771 -0.0345,0.4834 -0.0514,0.9468 -0.0542,1.3904 -0.003,0.4436 0.0107,0.8895 0.0797,1.7991 0.069,0.9096 0.1435,1.7301 0.24235,2.4648 0.0989,0.7346 0.23345,1.3819 0.36975,1.9484 0.1363,0.5665 0.2442,0.8796 0.5282,3.0441 0.284,2.1643 0.3216,2.4173 0.343,2.6471 0.0215,0.2297 0.0265,0.4642 0.0116,0.7039 -0.0148,0.2399 -0.0428,0.4859 -0.0807,0.7051 -0.0379,0.2194 -0.129,0.5415 -0.39646,0.8203 -0.26754,0.2788 -0.79884,0.5856 -1.60278,0.8692 -0.80402,0.2837 -1.86756,0.5402 -2.47742,0.7751 -1.31604,0.2524 -0.60639,0.376 -1.3125,0.3936 z"
             id="path241" />
        </g>
        <g
           style="fill:#000000;fill-opacity:1;stroke-linejoin:miter"
           id="g247"
           transform="rotate(90,259.41968,748.93978)">
          <path
             d="m 564.22516,1456.8265 c -0.33631,0.058 -0.9057,0.2435 -1.3924,0.3933 -0.48676,0.15 -0.88986,0.2635 -1.21006,0.3263 -0.3202,0.063 -0.54573,0.081 -0.8997,0.083 -0.354,0 -0.83067,-0.014 -1.29234,-0.055 -0.46166,-0.041 -0.9093,-0.109 -1.3443,-0.2019 -0.43499,-0.093 -0.85676,-0.2194 -1.22662,-0.3638 -0.36994,-0.1443 -0.72464,-0.3263 -1.07374,-0.5455 -0.34905,-0.2193 -0.6938,-0.4744 -1.03734,-0.7636 -0.34351,-0.289 -0.68356,-0.6168 -1.02756,-0.9961 -0.34396,-0.3794 -0.6557,-0.7667 -0.89554,-1.1113 -0.23981,-0.3445 -0.40771,-0.64 -0.50836,-0.8745 -0.10065,-0.2345 -0.14075,-0.3975 -0.1445,-0.627 -0.004,-0.2296 0.0854,-0.6536 0.3347,-1.2658 0.2493,-0.6121 0.68535,-1.3834 1.30693,-2.2947 0.62157,-0.9114 1.42257,-1.9584 1.92383,-2.6062 0.50124,-0.6478 0.75531,-0.8915 1.01124,-1.1095 0.256,-0.218 0.5133,-0.4108 0.7723,-0.58 0.25906,-0.1693 0.5181,-0.32 0.74356,-0.4379 0.22554,-0.1181 0.21777,-0.1214 0.37237,-0.1779 0.15461,-0.056 0.42517,-0.1328 0.79037,-0.2262 0.36515,-0.093 0.8215,-0.1945 1.1705,-0.2739 0.349,-0.08 0.48866,-0.1248 0.64357,-0.1834 0.15483,-0.059 0.34133,-0.1332 0.56563,-0.2239 0.2243,-0.091 0.48673,-0.2038 0.4643,-0.2326 -0.0224,-0.029 -0.3693,-0.07 -0.63284,-0.2361 -0.26356,-0.1666 -0.36816,-0.3184 -0.39416,-0.384 -0.026,-0.066 -0.0207,-0.057 -0.0324,0.186 -0.0117,0.243 -0.0328,0.8964 -0.0438,1.4536 -0.011,0.5574 -0.005,1.0208 0.002,1.3955 0.007,0.3749 0.0328,0.6746 0.32544,2.6005 0.29256,1.9259 0.94311,5.5563 1.08111,6.1014 0.138,0.5451 0.28449,1.0335 0.44005,1.469 0.1556,0.4354 0.3186,0.817 0.4409,1.0757 0.1223,0.2586 0.1223,0.2586 0.0707,0.078 0,0 -0.0136,-0.3846 -0.043,-0.8046 -0.0294,-0.4202 -0.0457,-0.8855 -0.0546,-1.3967 -0.009,-0.5112 -0.0129,-1.0586 -0.0649,-4.7398 -0.052,-3.681 -0.057,-3.8313 -0.0426,-4.0703 0.0145,-0.2391 0.0402,-0.5957 0.0938,-1.0576 0.0537,-0.4618 0.12356,-1.026 0.2144,-1.7149 0.0909,-0.6888 0.0536,-1.1138 -0.002,-1.321 -0.0557,-0.2072 -0.1653,-0.4431 -0.40344,-0.7052 -0.2381,-0.2621 -0.65246,-0.4535 -1.0852,-0.4406 -0.4328,0.013 -0.75906,0.1197 -1.00476,0.1988 -0.2458,0.079 -0.4451,0.1436 -0.5957,0.1875 -0.1506,0.044 -0.2455,0.068 -0.2462,0.066 -7.5e-4,0 -0.5335,0.067 -1.0027,0.1406 -0.46925,0.074 -0.86604,0.1417 -1.1982,0.2165 -0.33214,0.075 -0.6226,0.1599 -0.80846,0.2422 -0.18584,0.082 -0.51434,0.2141 -0.9129,0.4082 -0.39854,0.1942 -0.78674,0.4219 -1.16529,0.6787 -0.3786,0.2568 -0.74762,0.5419 -1.16021,0.9126 -0.4126,0.3707 -1.40638,1.611 -2.15351,2.7681 -0.74707,1.1571 -1.32583,2.2123 -1.73183,3.1825 -0.40605,0.9702 -0.6312,1.8757 -0.6499,2.7015 -0.0186,0.8258 0.0867,1.3174 0.2681,1.7555 0.1813,0.4381 0.4347,0.8567 0.74944,1.2704 0.31476,0.4136 0.69,0.8304 1.12876,1.2595 0.4388,0.4292 0.8854,0.8131 1.3357,1.1521 0.45033,0.3391 0.90834,0.6364 1.3766,0.8852 0.46826,0.2487 0.9414,0.4565 1.4284,0.6212 0.48694,0.1648 1.0188,0.273 1.53693,0.3362 0.51813,0.063 1.03937,0.092 1.56372,0.078 0.52435,-0.014 1.05035,-0.066 1.56915,-0.1558 0.51887,-0.09 0.7724,-0.1329 1.10193,-0.2469 0.32957,-0.114 0.69764,-0.2884 1.11267,-0.5258 0.415,-0.2373 0.8778,-0.5428 1.0996,-0.7688 0.509,-0.3793 0.15535,-0.3503 0.44246,-0.5038 z"
             id="path245" />
        </g>
        <g
           style="fill:#000000;fill-opacity:1;stroke-linejoin:miter"
           id="g251"
           transform="rotate(90,259.41968,748.93978)">
          <path
             d="m 557.8545,1412.219 c 0.43957,0.064 2.42297,-0.025 3.82446,-0.1746 1.40144,-0.1495 2.21774,-0.3783 4.11187,-0.9735 1.89411,-0.5952 2.71442,-0.8015 2.71442,-0.8015 0,0 0,0 0,0 0,0 0,0 -1.41571,0.069 -1.41574,0.069 -3.39254,0.1945 -4.2309,0.2987 -0.83834,0.1043 -2.74328,0.6375 -3.67828,1.0036 -1.3504,0.4392 -0.91046,0.5049 -1.32586,0.5781 z"
             id="path249" />
        </g>
        <g
           style="fill:#000000;fill-opacity:1;stroke-linejoin:miter"
           id="g255"
           transform="rotate(90,259.41968,748.93978)">
          <path
             d="m 558.3408,1410.8916 c -0.0838,-0.288 -0.3012,-0.7846 -0.48155,-1.2368 -0.18029,-0.4522 -0.3208,-0.8617 -0.41809,-1.2293 -0.0974,-0.3675 -0.1521,-0.692 -0.18906,-1.0026 -0.037,-0.3109 -0.0431,-0.6021 -0.0217,-0.9346 0.0214,-0.3324 0.0772,-0.7066 0.16418,-1.1223 0.0869,-0.4158 0.20801,-0.8728 0.29017,-1.1556 0.0821,-0.2825 0.0997,-0.302 0.1774,-0.4702 0.0778,-0.1681 0.2125,-0.4349 0.3596,-0.8075 0.1471,-0.3725 0.32615,-0.8399 0.7938,-1.774 0.4677,-0.9342 1.2297,-2.3838 1.3927,-2.666 0.1631,-0.2821 0.3514,-0.5879 0.55695,-0.9156 0.20555,-0.3275 0.43175,-0.674 0.67595,-1.0419 0.2442,-0.3678 0.5076,-0.7576 0.56447,-0.8448 0.0569,-0.087 0.12393,-0.1765 0.203,-0.2697 0.0791,-0.093 0.17433,-0.1845 0.25803,-0.2448 0.0838,-0.06 0.0838,-0.06 0.028,-0.02 0,0 -0.1117,0.08 -0.22365,0.1464 -0.11185,0.066 -0.2154,0.1307 -0.30845,0.1973 -0.093,0.067 -0.17214,0.1316 -0.5349,0.4207 -0.3627,0.2889 -0.6988,0.5735 -1.00693,0.8537 -0.30811,0.2803 -0.58802,0.5564 -0.84017,0.8281 -0.2521,0.2719 -0.4872,0.5472 -1.4987,1.8602 -1.0115,1.3128 -1.3277,1.8894 -1.5692,2.3061 -0.24153,0.4167 -0.3774,0.7804 -0.4781,1.0637 -0.1008,0.2835 -0.16877,0.5013 -0.19434,0.6426 -0.0257,0.1415 -0.1051,0.6694 -0.16119,1.1858 -0.0561,0.5165 -0.0736,0.9963 -0.0537,1.4397 0.0199,0.4432 0.076,0.8503 0.16994,1.2037 0.0941,0.3534 0.19456,0.699 0.36023,1.0815 0.16559,0.3823 0.38063,0.7752 0.65363,1.1765 0.273,0.4011 0.6024,0.8114 0.8274,0.9926 0.3881,0.4175 0.3412,0.101 0.5043,0.3372 z"
             id="path253" />
        </g>
        <g
           style="fill:#000000;fill-opacity:1;stroke-linejoin:miter"
           id="g259"
           transform="rotate(90,259.41968,748.93978)">
          <path
             d="m 569.36005,1410.1685 c 0.006,-0.056 -10e-4,-0.1702 -0.0119,-0.2923 -0.0108,-0.122 -0.0252,-0.2523 -0.0431,-0.3904 -0.0179,-0.138 -0.0402,-0.2839 -0.0655,-0.383 -0.0254,-0.099 -0.0609,-0.2571 -0.1478,-0.6509 -0.087,-0.3937 -0.23196,-1.009 -0.4352,-1.8445 -0.20325,-0.8354 -0.4707,-1.8889 -0.63764,-2.5284 -0.16696,-0.6395 -0.18786,-0.7464 -0.20599,-0.8588 -0.0181,-0.1125 -0.0334,-0.2309 -0.0446,-0.3553 -0.0112,-0.1244 -0.0181,-0.2544 -0.0202,-0.3583 -0.002,-0.104 0.002,-0.179 0.0133,-0.2606 0.0114,-0.082 0.0329,-0.1703 0.0267,-0.2755 -0.006,-0.1054 0.0154,-0.2177 0.28343,-1.0651 0.26807,-0.8474 0.77924,-2.4791 0.80667,-2.7196 0.0274,-0.2406 0.0273,-0.4369 0.0141,-0.6365 -0.0132,-0.1996 -0.0389,-0.4027 -0.0787,-0.6091 -0.0398,-0.2064 -0.0921,-0.412 -0.12671,-0.5264 -0.0346,-0.1144 -0.082,-0.2323 -0.1402,-0.3496 -0.0582,-0.1173 -0.12695,-0.2349 -0.20595,-0.3533 -0.079,-0.1184 -0.18815,-0.2664 -0.5201,-0.5669 -0.3319,-0.3005 -0.6043,-0.5429 -0.81624,-0.7365 -0.21192,-0.1935 -0.3418,-0.3544 -0.40886,-0.4497 -0.0672,-0.095 -0.0672,-0.095 -0.0224,-0.032 0,0 0.0895,0.1271 0.2108,0.3272 0.12133,0.2002 0.27453,0.4746 0.4727,0.813 0.19826,0.3383 0.43416,0.7306 0.4689,0.8353 0.0347,0.1047 0.0694,0.2152 0.0943,0.3165 0.0249,0.1013 0.0403,0.193 0.0466,0.274 0.006,0.081 0.007,0.1602 0.007,0.3476 3e-4,0.1873 -0.006,0.3612 -0.0216,0.5243 -0.0152,0.1631 -0.0391,0.3152 -0.0711,0.4562 -0.0321,0.1411 -0.0437,0.1753 -0.80749,1.6887 -0.76392,1.5134 -0.84697,1.7269 -0.90437,1.9073 -0.0574,0.1805 -0.1376,0.3564 -0.14995,0.5426 -0.0124,0.1863 -0.011,0.3711 0.006,0.5489 0.0175,0.1777 0.0516,0.347 0.0883,0.5042 0.0366,0.1573 0.0745,0.3097 0.11594,0.4577 0.0415,0.1481 0.0866,0.2914 0.13846,0.4387 0.0519,0.1473 0.5438,1.2874 0.9602,2.2108 0.41635,0.9235 0.7567,1.6334 1.00705,2.1349 0.25045,0.5015 0.40845,0.7974 0.46535,0.8854 0.0569,0.088 0.11845,0.2064 0.1814,0.3317 0.0628,0.1253 0.1203,0.2442 0.17204,0.357 0.0518,0.1128 0.0979,0.2194 0.12736,0.2684 0.0404,0.1009 0.16774,0.02 0.17855,0.072 z"
             id="path257" />
        </g>
        <g
           style="fill:#000000;fill-opacity:1;stroke-linejoin:miter"
           id="g263"
           transform="rotate(90,259.41968,748.93978)">
          <path
             d="m 601.53656,1454.9939 c -0.37466,-0.3798 -1.08326,-0.9927 -1.60946,-1.6146 -0.5262,-0.622 -0.88004,-1.2594 -1.07096,-1.9289 -0.19094,-0.6695 -0.24104,-1.3846 -0.18424,-1.9726 0.0567,-0.588 0.11857,-0.968 0.1909,-1.2929 0.0723,-0.3248 0.15575,-0.5915 0.2429,-0.7962 0.0871,-0.2049 0.1677,-0.3467 0.5271,-0.9571 0.3595,-0.6102 0.9425,-1.583 1.52577,-2.5003 0.58333,-0.9174 1.15997,-1.7835 1.73643,-2.5945 0.5765,-0.811 1.14565,-1.5714 1.6106,-2.21 0.465,-0.6385 0.6548,-1.0724 0.83186,-1.4655 0.17704,-0.3932 0.32364,-0.7604 0.43171,-1.113 0.10813,-0.3526 0.18253,-0.6984 0.20629,-0.8733 0.0237,-0.1749 0.0496,-0.3387 0.0705,-0.5073 0.021,-0.1687 0.0377,-0.3423 0.0512,-0.5207 0.0134,-0.1786 0.0236,-0.3622 0.0331,-0.8947 0.009,-0.5325 0.0142,-1.2793 0.0199,-1.8976 0.006,-0.6181 0.0115,-1.107 0.019,-1.4633 0.008,-0.3562 0.0146,-0.5712 0.0585,-1.0257 0.0438,-0.4543 0.1089,-1.1678 0.1606,-1.747 0.0517,-0.5791 0.0849,-1.0256 0.10525,-1.3423 0.0204,-0.3167 0.029,-0.5215 0.0299,-0.6612 9.4e-4,-0.1395 0.006,-0.3636 0.006,-0.5852 7e-4,-0.2214 -0.003,-0.4403 -0.0149,-0.6565 -0.0114,-0.2162 -0.0271,-0.4295 -0.056,-0.7209 -0.0289,-0.2915 -0.0713,-0.6391 -0.1251,-0.9673 -0.0537,-0.3281 -0.11556,-0.6371 -0.1823,-0.927 -0.0668,-0.29 -0.13876,-0.561 -0.4344,-0.7021 -0.29567,-0.141 -0.29567,-0.141 -0.2716,-0.016 0,0 -0.4711,0.3432 -0.458,0.6037 0.013,0.2607 0.0182,0.5402 0.0158,0.8384 -0.002,0.2984 -0.008,0.6151 -0.0171,0.9492 -0.009,0.3341 -0.0243,0.5158 -0.0434,0.708 -0.019,0.1924 -0.0422,0.3866 -0.0665,0.5831 -0.0243,0.1963 -0.0526,0.3949 -0.0862,0.6074 -0.0336,0.2126 -0.0406,0.2951 -0.0763,0.4829 -0.0357,0.1876 -0.104,0.5245 -0.20015,0.9979 -0.096,0.4734 -0.22496,1.0811 -0.3778,1.8256 -0.1528,0.7446 -0.18865,0.9422 -0.2289,1.2427 -0.0403,0.3002 -0.089,0.7169 -0.14774,1.2568 -0.0587,0.5398 -0.12316,1.205 -0.19676,1.9911 -0.0736,0.7861 -0.0927,0.9052 -0.1167,1.0525 -0.0241,0.1472 -0.0496,0.2865 -0.0767,0.4174 -0.0271,0.131 -0.0535,0.254 -0.0864,0.3979 -0.0328,0.144 -0.0645,0.3203 -0.11744,0.4697 -0.053,0.1495 -0.1492,0.3611 -0.285,0.6261 -0.13583,0.265 -0.31595,0.5758 -0.50937,0.8934 -0.19343,0.3177 -0.70709,1.0843 -1.25439,1.9556 -0.5473,0.8715 -1.08069,1.7953 -1.60084,2.771 -0.52013,0.9756 -1.02715,2.0032 -1.52044,3.0723 -0.49322,1.069 -0.60286,1.2788 -0.72326,1.6108 -0.1204,0.3319 -0.20484,0.6915 -0.2648,1.0811 -0.0598,0.3895 -0.0937,0.8129 -0.1068,1.289 -0.0131,0.4762 0.0582,1.4276 0.3213,2.3228 0.26306,0.895 0.72174,1.6801 1.3578,2.3375 0.636,0.6573 1.4357,1.1818 1.9336,1.3216 0.9595,0.3741 0.56175,0.014 1.02336,0.2481 z"
             id="path261" />
        </g>
      </g>
    </g>
  </g>
</svg>
