<?xml version="1.0" encoding="UTF-8" standalone="no"?>
<svg
   version="1.1"
   width="135.38521"
   height="135.38521"
   viewBox="0 0 135.38521 135.38521"
   id="svg1214"
   xmlns="http://www.w3.org/2000/svg"
   xmlns:svg="http://www.w3.org/2000/svg">
  <defs
     id="defs1218" />
  <g
     id="g7160"
     transform="translate(-250.48431,-428.23495)">
    <rect
       style="display:inline;opacity:0.5;fill:none;fill-opacity:1;stroke:none;stroke-width:2.66644;stroke-dasharray:none;stroke-opacity:1"
       id="rect5345"
       width="135.38521"
       height="135.38521"
       x="250.48431"
       y="428.23495" />
    <g
       id="g4334"
       transform="translate(-33.150987,1.886628)">
      <g
         style="fill:#000000;fill-opacity:1;stroke-linejoin:miter"
         id="g639"
         transform="rotate(90,259.41968,748.93978)">
        <path
           d="m -18.733414,706.7235 c -0.183439,-0.091 -0.585951,-0.29613 -1.035186,-0.6244 -0.449234,-0.3283 -0.955052,-0.77836 -1.51972,-1.35606 -0.56467,-0.57774 -1.188347,-1.2854 -1.88748,-2.14394 -0.699135,-0.8585 -1.377098,-1.75877 -1.965283,-2.6027 -0.588186,-0.84393 -1.087967,-1.6296 -1.491737,-2.36035 -0.40377,-0.73075 -0.711994,-1.40338 -0.864765,-1.83395 -0.152771,-0.43046 -0.211867,-0.69504 -0.244465,-0.96964 -0.0326,-0.2746 -0.04399,-0.56043 -0.0259,-0.86029 0.01809,-0.29981 0.06024,-0.61477 0.111925,-0.84237 0.05168,-0.2276 0.101801,-0.40055 0.155634,-0.55937 0.05383,-0.15873 0.110912,-0.30353 0.170911,-0.43393 0.06,-0.1304 0.124438,-0.2457 0.169972,-0.32156 0.04553,-0.0758 0.08011,-0.11874 0.200402,-0.26648 0.120288,-0.14783 0.310486,-0.36946 0.566272,-0.6521 0.255787,-0.28256 0.571734,-0.62591 0.812027,-0.89406 0.240296,-0.26805 0.347912,-0.41795 0.439865,-0.5711 0.09196,-0.1531 0.170817,-0.3087 0.240742,-0.4669 0.06992,-0.1582 0.131888,-0.3197 0.226437,-0.61713 0.09455,-0.29737 0.193793,-0.77087 0.203743,-1.26392 0.0099,-0.49295 -0.02296,-1.00095 -0.10027,-1.52868 -0.07731,-0.52767 -0.196405,-1.07807 -0.451679,-2.00647 -0.255274,-0.9285 -0.662065,-2.21845 -1.125479,-3.47034 -0.463412,-1.25196 -0.982151,-2.46552 -1.555814,-3.64002 -0.573664,-1.17444 -1.204178,-2.3081 -1.74144,-3.21447 -0.537264,-0.90644 -1.046913,-1.72307 -1.664635,-2.61243 -0.617723,-0.88928 -1.343929,-1.85334 -2.206581,-2.87439 -0.862652,-1.02105 -1.874442,-2.08881 -2.626717,-2.9715 -0.752277,-0.88269 -0.752277,-0.88269 -0.297802,-0.26031 0,0 0.767827,1.3465 1.426434,2.599 0.658607,1.2525 1.256268,2.3764 1.781017,3.38086 0.52475,1.00445 0.962966,1.8975 1.315544,2.699 0.352576,0.8015 0.879296,1.93845 1.345566,3.07157 0.466273,1.13313 0.886706,2.29013 1.252308,3.47603 0.365603,1.1858 0.685255,2.39787 0.954296,3.6468 0.269043,1.24905 0.358748,1.72555 0.411026,2.14065 0.05228,0.41505 0.07121,0.77525 0.06072,1.07679 -0.01049,0.30151 -0.05934,0.53956 -0.09303,0.75186 -0.03369,0.2124 -0.04469,0.2577 -0.06226,0.3155 -0.01756,0.0578 -0.0327,0.0986 -0.04298,0.1222 -0.01029,0.0237 -0.01231,0.0299 -0.0039,0.0221 0.0084,-0.008 -0.323767,0.40327 -0.609059,0.7694 -0.285293,0.3662 -0.522911,0.6749 -0.713409,0.93385 -0.190497,0.25895 -0.341242,0.48055 -0.452447,0.67705 -0.111207,0.19655 -0.200036,0.3883 -0.292785,0.61604 -0.09275,0.22766 -0.175752,0.46222 -0.24789,0.70423 -0.07214,0.24193 -0.133993,0.49143 -0.190647,0.77293 -0.05665,0.28145 -0.103529,0.7561 -0.116482,1.2189 -0.01295,0.46276 0.01433,0.9162 0.0798,1.35863 0.06547,0.44237 0.169568,0.87217 0.322523,1.30337 0.152954,0.4312 0.529131,1.17 1.000458,1.9295 0.471327,0.75944 1.035177,1.53984 1.695015,2.34196 0.659837,0.80204 1.415762,1.62734 2.272935,2.47694 0.857174,0.8496 1.677844,1.56164 2.430462,2.13646 0.752621,0.57477 1.44389,1.01214 2.066462,1.31644 0.622572,0.3043 1.175301,0.46835 1.435261,0.4718 0.464525,0.0291 0.277553,-0.1367 0.482118,-0.111 z"
           id="path637" />
      </g>
      <g
         style="fill:#000000;fill-opacity:1;stroke-linejoin:miter"
         id="g643"
         transform="rotate(90,259.41968,748.93978)">
        <path
           d="m -45.67147,648.2364 c 0.316654,0.1324 0.989414,0.2611 1.708824,0.331 0.719406,0.0699 1.482494,0.0898 2.28617,0.0561 0.803673,-0.0336 1.647152,-0.11394 2.377396,-0.28309 0.730244,-0.16915 1.151066,-0.37231 1.529625,-0.6167 0.378563,-0.24435 0.704842,-0.54085 0.9767,-0.88295 0.271858,-0.34214 0.477555,-0.7295 0.632005,-1.16526 0.154444,-0.43584 0.28229,-0.98358 0.383826,-1.63184 0.101532,-0.6482 0.182247,-1.40326 0.243894,-2.2698 0.06164,-0.86655 0.10481,-1.8466 0.01508,-3.2839 -0.08973,-1.4373 -0.257973,-2.9858 -0.390218,-4.3927 -0.132243,-1.4069 -0.245112,-2.6692 -0.315337,-3.7881 -0.07022,-1.11895 -0.113628,-2.09063 -0.09842,-2.85217 0.0152,-0.76147 0.06772,-1.40473 0.14715,-1.91343 0.07942,-0.50875 0.17062,-0.87154 0.250715,-1.06545 0.0801,-0.19391 0.09508,-0.20709 0.213335,-0.31855 0.118254,-0.11144 0.209204,-0.19286 0.350813,-0.2984 0.14161,-0.1055 0.336007,-0.2245 0.576657,-0.3585 0.24065,-0.134 0.5199,-0.29396 2.052463,-0.871 1.532559,-0.577 4.239571,-1.6122 6.566933,-2.5813 2.327362,-0.96904 4.280584,-1.8649 5.861709,-2.6991 1.581124,-0.8341 2.801644,-1.60783 4.110899,-2.6703 1.309255,-1.0625 2.802166,-2.47025 4.061934,-3.89316 1.259767,-1.42284 2.27709,-2.86094 3.029256,-4.31284 0.752166,-1.452 1.2211726,-2.90475 1.5265005,-3.9463 0.3053279,-1.04164 0.3053279,-1.04164 0.05317,-0.3681 0,0 -0.6501317,1.2844 -1.5271607,2.50194 -0.877027,1.21753 -1.9145758,2.41336 -3.1287308,3.60296 -1.214154,1.1896 -2.622499,2.37165 -4.236353,3.54694 -1.613855,1.17529 -2.478595,1.70616 -3.743364,2.31686 -1.264769,0.61057 -2.936382,1.289 -4.99835,2.0449 -2.061966,0.75585 -4.51442,1.5795 -7.370739,2.483 -2.856317,0.9036 -3.443307,1.1664 -3.824692,1.3701 -0.381385,0.20366 -0.727945,0.42607 -1.045803,0.6625 -0.31786,0.2365 -0.610362,0.4891 -0.837672,0.7277 -0.227307,0.2385 -0.532464,0.5866 -0.828973,1.15306 -0.296513,0.56644 -0.472172,1.16814 -0.581699,1.82379 -0.109528,0.65565 -0.164888,1.38235 -0.175824,2.21315 -0.01094,0.8308 0.06696,1.81773 0.180199,2.8946 0.113243,1.0768 0.285812,2.2804 0.494091,3.61533 0.208279,1.33497 0.4678,2.80072 0.767436,4.36247 0.299634,1.5618 0.356267,2.4788 0.398324,3.3775 0.04206,0.89876 0.05555,1.6762 0.04149,2.32937 -0.01406,0.65307 -0.05386,1.17733 -0.110291,1.56873 -0.05643,0.3915 -0.105209,0.60265 -0.190117,0.7895 -0.0849,0.1868 -0.210275,0.37486 -0.391075,0.56267 -0.180805,0.18773 -0.416866,0.38083 -0.672706,0.54783 -0.255844,0.167 -1.008831,0.3825 -1.777474,0.579 -0.768646,0.1964 -1.505535,0.35064 -2.211036,0.4774 -0.705498,0.1267 -1.382649,0.22346 -1.715249,0.31666 -0.653862,0.0671 -0.344047,0.23394 -0.665305,0.20784 z"
           id="path641" />
      </g>
      <g
         style="fill:#000000;fill-opacity:1;stroke-linejoin:miter"
         id="g647"
         transform="rotate(90,259.41968,748.93978)">
        <path
           d="m 0.6673272,694.30133 c -0.93163178,-0.32653 -2.677794,-0.64917 -4.2265518,-0.97546 -1.5487574,-0.32627 -2.8978664,-0.68903 -4.0448699,-1.09257 -1.1470035,-0.4036 -2.0898685,-0.8458 -2.9521365,-1.4534 -0.862268,-0.60766 -1.765003,-1.4225 -2.548959,-2.2673 -0.783957,-0.8448 -1.446616,-1.727 -2.022347,-2.6317 -0.575729,-0.90464 -1.090694,-1.8355 -1.279103,-2.15995 -0.188407,-0.32455 -0.185819,-0.40535 -0.11284,-0.57315 0.07298,-0.1678 0.247769,-0.4131 0.537525,-0.71353 0.289757,-0.30042 0.695918,-0.64081 1.03431,-0.90461 0.338392,-0.26379 0.698464,-0.4859 1.449302,-0.87701 0.75084,-0.39111 1.853496,-0.93115 3.293597,-1.62455 1.4401,-0.69344 3.207811,-1.55825 4.371114,-2.1698 1.163303,-0.6116 1.48712,-0.8134 1.784582,-1.00955 0.297462,-0.1961 0.5673815,-0.38835 0.811402,-0.57238 0.2440207,-0.18407 0.479944,-0.32843 0.647859,-0.42807 0.1679152,-0.0996 0.1679152,-0.0996 0.055972,-0.0332 0,0 -0.2238867,0.13284 -0.4866887,0.24386 -0.2628018,0.11108 -0.5594014,0.20614 -0.8798446,0.30359 -0.3204431,0.0974 -0.6651554,0.19715 -1.0286194,0.29919 -0.3634637,0.10206 -2.5083946,0.6698 -4.281201,1.21326 -1.7728063,0.54346 -3.1883043,1.01886 -4.2578243,1.41095 -1.069519,0.39209 -1.810437,0.69555 -2.233392,0.92761 -0.422955,0.23204 -1.003306,0.58294 -1.530924,0.97674 -0.527621,0.39375 -0.972212,0.8104 -1.323712,1.27613 -0.351499,0.46567 -0.598527,0.99493 -0.660732,1.73597 -0.0622,0.7411 0.398361,2.0128 0.980238,3.1601 0.581877,1.14727 1.366625,2.1827 2.272266,3.13976 0.905643,0.95704 1.928879,1.83564 3.091587,2.63739 1.16271,0.8017 2.243431,1.30085 3.4484013,1.66699 1.204971,0.36606 2.5680575,0.63049 4.095725,0.78076 1.5276673,0.1502 3.2207893,0.18085 4.1313806,-6.7e-4 1.85894646,-0.14429 0.91612967,-0.32263 1.8644843,-0.2854 z"
           id="path645" />
      </g>
      <g
         style="fill:#000000;fill-opacity:1;stroke-linejoin:miter"
         id="g651"
         transform="rotate(90,259.41968,748.93978)">
        <path
           d="m -0.92143416,672.6104 c -0.52413024,0.002 -1.45077134,0.272 -2.27264484,0.70894 -0.821873,0.43686 -1.5270337,1.03496 -2.10988,1.77686 -0.5828465,0.74193 -1.0231503,1.6242 -1.2733253,2.4929 -0.250175,0.86866 -0.3588427,1.515 -0.4443612,2.10926 -0.085519,0.59424 -0.1375915,1.13849 -0.16324,1.63454 -0.025648,0.496 -0.023587,0.94707 0.032176,1.6113 0.055763,0.66426 0.129853,1.46205 0.1881013,2.14674 0.058249,0.68476 0.1056013,1.25446 0.1696907,1.70356 0.06409,0.4491 0.107336,0.7766 0.158845,1.13323 0.051509,0.35657 0.112086,0.65287 0.177345,0.92837 0.065259,0.2754 0.130945,0.531 0.197262,0.7675 0.066318,0.2365 0.1336946,0.45477 0.276603,0.90875 0.142909,0.45405 0.452306,1.20685 0.8554494,1.89645 0.4031436,0.68955 0.8999266,1.3098 1.4867568,1.8538 0.5868301,0.544 1.254643,1.0143 1.9189063,1.35815 0.6642634,0.34381 1.3382932,0.52661 2.08341783,0.552 0.74512467,0.0254 1.55799077,-0.0823 2.44038527,-0.33692 0.8823946,-0.25469 1.8339204,-0.65478 2.6082274,-0.94373 0.7743067,-0.28893 0.7743067,-0.28893 0.248901,-0.1293 0,0 -1.078416,0.22025 -2.0395725,0.29044 -0.9611563,0.0702 -1.7796924,0.0683 -2.4555081,-0.009 -0.67581567,-0.0774 -1.20667366,-0.23356 -1.61023318,-0.4533 -0.40355952,-0.2197 -0.95369692,-0.6605 -1.41667322,-1.1272 -0.4629764,-0.4666 -0.8370737,-0.9622 -1.1325237,-1.4862 -0.2954503,-0.524 -0.5140417,-1.08293 -0.6639623,-1.7118 -0.1499208,-0.6288 -0.1956025,-0.8248 -0.2313543,-1.0107 -0.035752,-0.18593 -0.071166,-0.39724 -0.1057782,-0.6331 -0.034613,-0.2359 -0.068466,-0.49576 -0.100318,-0.74656 -0.031852,-0.25084 -0.026547,-0.48674 -0.027624,-0.91404 -0.00108,-0.4273 -0.080953,-0.94784 -0.1872621,-1.57107 -0.1063089,-0.62329 -0.2432373,-1.35093 -0.4055923,-2.17493 -0.162355,-0.8239 -0.2078406,-1.1164 -0.239525,-1.495 -0.031684,-0.3786 -0.045912,-0.8271 -0.045794,-1.34246 1.168e-4,-0.51538 0.016983,-1.09588 0.048155,-1.70014 0.031171,-0.6043 0.202075,-1.41094 0.4927716,-2.1372 0.2906966,-0.72625 0.6930504,-1.3724 1.2230988,-1.94806 0.5300482,-0.57568 1.1972739,-1.08838 1.5482046,-1.40264 0.81449035,-0.4649 0.3073168,-0.4486 0.77087644,-0.5992 z"
           id="path649" />
      </g>
      <g
         style="fill:#000000;fill-opacity:1;stroke-linejoin:miter"
         id="g655"
         transform="rotate(90,259.41968,748.93978)">
        <path
           d="m -10.954275,650.5003 c -0.474992,-0.8192 -1.579861,-2.1568 -2.593718,-3.392 -1.013857,-1.23525 -1.914811,-2.3922 -2.698795,-3.4751 -0.783983,-1.08297 -1.447142,-2.0949 -2.043804,-3.0435 -0.596663,-0.9486 -1.064268,-1.7401 -1.410256,-2.4491 -0.345987,-0.70896 -0.566042,-1.33304 -0.671726,-1.86155 -0.105684,-0.52855 -0.113416,-0.95795 -0.06283,-1.28905 0.05059,-0.3312 0.236673,-0.81983 0.493446,-1.2998 0.256772,-0.48006 0.583615,-0.95534 0.986079,-1.4254 0.402464,-0.4702 0.883585,-0.9336 1.248147,-1.2439 0.364566,-0.31027 0.840426,-0.6143 1.727593,-1.1249 0.887168,-0.5106 2.158723,-1.21906 3.801243,-2.136 1.642519,-0.9169 3.6337585,-2.0869 4.76815,-2.8219 1.134391,-0.73504 1.201877,-0.79686 1.263123,-0.85735 0.061245,-0.0605 0.1189707,-0.11925 0.1684416,-0.18305 0.049471,-0.0637 0.090688,-0.1325 0.1174734,-0.1865 0.026785,-0.0541 0.026785,-0.0541 0.00893,-0.0181 0,0 -0.035713,0.0721 -0.079682,0.1392 -0.043968,0.0671 -0.096191,0.1292 -0.1573596,0.1854 -0.061169,0.0563 -0.137985,0.0967 -0.219846,0.12946 -0.081861,0.0328 -2.587178,0.7536 -4.6346044,1.47839 -2.047427,0.72479 -3.677713,1.36401 -4.912281,1.87895 -1.23457,0.515 -2.08495,0.9025 -2.588118,1.1831 -0.50317,0.2806 -1.178302,0.75576 -1.791729,1.2815 -0.613426,0.5257 -1.155182,1.0922 -1.621623,1.70076 -0.466445,0.60858 -0.846942,1.26239 -1.163201,2.0119 -0.316258,0.74944 -0.417593,1.63507 -0.291634,2.44614 0.12596,0.8112 0.405604,1.6223 0.813959,2.4427 0.408356,0.82045 0.942208,1.6578 1.589216,2.49336 0.647008,0.83564 1.349036,1.78138 2.21111,2.79774 0.862074,1.01635 1.85182,2.0622 2.984878,3.12475 1.13306,1.06255 2.412039,2.13795 3.204368,2.5694 1.459205,1.04809 0.888173,0.32782 1.55505,0.94445 z"
           id="path653" />
      </g>
      <g
         style="fill:#000000;fill-opacity:1;stroke-linejoin:miter"
         id="g659"
         transform="rotate(90,259.41968,748.93978)">
        <path
           d="m -12.264066,647.11383 c -0.04292,-0.50378 -0.262594,-1.39978 -0.452389,-2.22553 -0.189795,-0.8257 -0.344967,-1.5843 -0.448611,-2.281 -0.103644,-0.6967 -0.162935,-1.329 -0.217071,-2.0858 -0.05414,-0.7568 -0.103299,-1.5555 -0.09894,-2.2665 0.0044,-0.71105 0.05093,-1.3314 0.141376,-1.85815 0.09044,-0.52675 0.220135,-0.95721 0.350886,-1.26845 0.130749,-0.31126 0.235119,-0.524 0.353878,-0.7358 0.118759,-0.21175 0.252176,-0.42275 0.378027,-0.6481 0.125849,-0.2254 0.265898,-0.45434 1.669433,-2.33386 1.403535,-1.87957 4.0274323,-5.50781 4.3199753,-5.914 0.2925434,-0.40619 0.631062,-0.83244 1.007864,-1.28997 0.3768015,-0.45752 0.7933917,-0.94513 1.0927807,-1.36777 0.2993887,-0.4226 0.2993887,-0.4226 0.043718,-0.2056 0,0 -0.6795773,0.2397 -1.2074307,0.60266 -0.527854,0.36298 -1.0009085,0.73184 -1.4241325,1.10094 -0.4232235,0.36915 -0.7984845,0.73 -3.8874918,3.9723 -3.089007,3.24225 -3.341381,3.5543 -3.555777,3.82575 -0.214398,0.27145 -0.376826,0.57098 -0.521266,0.87372 -0.144441,0.30273 -0.270669,0.60853 -0.378715,0.91823 -0.108045,0.30973 -0.269995,0.8716 -0.368252,1.52824 -0.09826,0.65662 -0.123594,1.36396 -0.07563,2.1253 0.04796,0.7613 0.158021,1.57926 0.336624,2.443 0.178602,0.86366 0.297053,1.48936 0.490026,2.18829 0.192973,0.69891 0.455409,1.43091 0.784753,2.19702 0.329344,0.76612 0.734258,1.56345 1.040361,1.94025 0.496251,0.8205 0.435863,0.32117 0.62601,0.76483 z"
           id="path657" />
      </g>
      <g
         style="fill:#000000;fill-opacity:1;stroke-linejoin:miter"
         id="g663"
         transform="rotate(90,259.41968,748.93978)">
        <path
           d="m 26.460808,642.8153 c -0.04629,0.3921 -0.03755,1.14967 -0.05232,1.9038 -0.01477,0.7542 -0.06405,1.5093 -0.145275,2.2681 -0.08123,0.7588 -0.203218,1.52275 -0.2883,2.0876 -0.08508,0.565 -0.195222,1.0534 -0.425403,1.90835 -0.230181,0.85495 -0.587935,2.05042 -1.05698,3.58285 -0.469046,1.5324 -1.053467,3.39897 -1.438671,4.66087 -0.385203,1.26193 -0.476773,1.68063 -0.560736,2.14349 -0.08396,0.46289 -0.16878,0.97119 -0.239874,1.52808 -0.07109,0.55696 -0.140781,1.16216 -0.22411,2.10101 -0.08333,0.93885 -0.135782,2.26752 -0.07256,3.66681 0.06323,1.39934 0.221279,2.86987 0.48509,4.41014 0.263811,1.54024 0.627718,3.15096 0.972553,4.4037 0.344836,1.2528 0.638802,2.1227 0.969242,3.0026 0.330439,0.88 0.697119,1.7698 1.098595,2.67 0.401476,0.9002 0.833275,1.8127 1.366493,2.82594 0.533219,1.01326 1.19673,2.21246 1.978783,3.6629 0.782051,1.45046 1.688869,3.14716 2.721957,5.08836 1.033086,1.94124 2.196786,4.1244 3.237184,5.91274 1.040396,1.78833 1.826226,2.92836 2.377231,3.57062 0.551005,0.64221 1.301369,1.12914 2.201039,1.4143 0.899673,0.2851 1.933399,0.38831 2.773201,0.2417 0.839802,-0.1466 0.839802,-0.1466 0.301565,-0.19846 0,0 -1.011576,-0.55276 -1.823435,-0.85915 -0.811859,-0.30645 -1.409271,-0.6836 -1.813595,-1.12049 -0.40432,-0.43686 -0.690544,-1.01581 -1.308708,-2.21582 -0.618168,-1.20007 -1.611114,-3.63224 -2.543304,-5.83274 -0.93219,-2.20046 -1.775124,-4.14345 -2.529931,-5.82925 -0.754804,-1.68579 -1.414922,-3.11859 -1.970541,-4.27911 -0.555618,-1.16054 -0.926676,-2.02334 -1.277574,-2.89864 -0.350899,-0.8753 -0.672064,-1.73185 -0.963886,-2.5695 -0.291823,-0.83765 -0.550423,-1.6579 -0.787247,-2.4572 -0.236824,-0.7993 -0.707747,-2.348 -1.080631,-3.7998 -0.372887,-1.45186 -0.652411,-2.8236 -0.841389,-4.115 -0.18898,-1.2914 -0.281298,-2.50306 -0.287115,-3.65565 -0.0058,-1.15259 0.0091,-1.76095 0.03323,-2.31435 0.02413,-0.5534 0.05814,-1.05174 0.0955,-1.49436 0.03736,-0.44269 0.08522,-0.82727 0.132751,-1.13574 0.04753,-0.3085 0.526699,-2.4464 0.908826,-4.2611 0.382125,-1.8148 0.671933,-3.2932 0.863315,-4.4404 0.191381,-1.14714 0.297964,-1.9684 0.312378,-2.45317 0.01441,-0.48483 0.04941,-1.28703 0.02764,-2.10973 -0.02176,-0.82264 -0.09368,-1.6267 -0.223919,-2.41004 -0.130241,-0.78339 -0.324978,-1.54273 -0.505497,-1.90246 -0.257339,-0.7305 -0.318762,-0.33106 -0.39558,-0.7018 z"
           id="path661" />
      </g>
      <g
         style="fill:#000000;fill-opacity:1;stroke-linejoin:miter"
         id="g667"
         transform="rotate(90,259.41968,748.93978)">
        <path
           d="m 33.92132,638.0523 c 0.585443,0.8545 1.833628,2.11494 2.863295,3.11805 1.029663,1.00311 1.818992,1.77275 2.350455,2.31485 0.53147,0.5422 0.777203,0.832 2.56028,3.5001 1.78308,2.6681 5.311978,7.80834 6.168748,9.23064 0.856772,1.4223 1.534198,2.74486 2.024185,3.95266 0.489982,1.20774 0.797809,2.2935 0.938255,3.2492 0.14045,0.9557 0.125404,1.804 -0.0021,2.7191 -0.127506,0.9151 -0.317711,1.8254 -0.537853,2.71936 -0.220146,0.89398 -0.502763,1.76868 -0.856957,2.62314 -0.354198,0.85446 -0.73389,1.62564 -1.251616,2.37753 -0.517724,0.75197 -1.361245,2.05057 -2.47458,3.83973 -1.11334,1.78914 -2.502052,4.07154 -4.14977,6.86077 -1.647715,2.78927 -3.546385,6.08112 -3.721903,6.3689 -0.175522,0.28777 -0.52425,0.98287 -1.029213,2.07247 -0.504967,1.0896 -1.157517,2.59 -1.498032,4.03733 -0.340515,1.44733 -0.340515,1.44733 0.103764,0.59644 0,0 1.540364,-1.3598 2.325954,-2.6134 0.785587,-1.25367 1.334347,-2.12767 1.64586,-2.58631 0.31151,-0.45862 0.44772,-0.60632 2.54286,-3.55542 2.095147,-2.94914 3.851243,-5.43214 5.274667,-7.44848 1.423427,-2.0163 2.520607,-3.55886 3.293449,-4.61292 0.772846,-1.05408 1.326527,-1.76384 1.870232,-2.78589 0.543702,-1.02195 0.983802,-2.04559 1.347532,-3.09925 0.36373,-1.05364 0.650053,-2.13647 0.815927,-3.2522 0.165871,-1.11565 0.246673,-2.3015 0.140503,-3.57836 -0.106174,-1.27679 -0.43191,-2.59844 -0.954094,-3.95884 -0.522182,-1.36043 -1.245441,-2.7609 -2.151626,-4.2155 -0.90619,-1.45456 -2.00977,-2.98844 -5.969605,-7.8369 -3.959835,-4.8484 -4.169758,-5.1016 -4.64125,-5.5121 -0.471495,-0.4104 -1.1941,-0.9691 -2.19249,-1.6912 -0.998385,-0.7221 -2.285641,-1.59893 -3.129005,-1.96136 -1.617627,-0.98234 -0.931607,-0.25214 -1.70587,-0.87214 z"
           id="path665" />
      </g>
    </g>
  </g>
</svg>
