<?xml version="1.0" encoding="UTF-8" standalone="no"?>
<svg
   version="1.1"
   width="135.38521"
   height="135.38521"
   viewBox="0 0 135.38521 135.38521"
   id="svg1214"
   xmlns="http://www.w3.org/2000/svg"
   xmlns:svg="http://www.w3.org/2000/svg">
  <defs
     id="defs1218" />
  <g
     id="g7528"
     transform="translate(-706.9707,-708.71716)">
    <rect
       style="display:inline;opacity:0.5;fill:none;fill-opacity:1;stroke:none;stroke-width:2.66644;stroke-dasharray:none;stroke-opacity:1"
       id="rect5225"
       width="135.38521"
       height="135.38521"
       x="706.9707"
       y="708.71716" />
    <g
       id="g4504"
       transform="translate(-9.7016615,-5.0704124)">
      <g
         style="fill:#000000;fill-opacity:1;stroke-linejoin:miter"
         id="g951"
         transform="rotate(90,259.41968,748.93978)">
        <path
           d="m 251.49701,247.38002 c 0.27545,0.33371 0.90671,0.9449 1.55447,1.64345 0.64778,0.69855 1.3153,1.49118 2.00284,2.38498 0.68755,0.8938 1.39128,1.89518 2.19391,3.03097 0.80261,1.13581 1.63557,2.32724 2.44007,3.58673 0.80447,1.25949 1.59384,2.5788 2.3557,3.9675 0.76188,1.3887 1.50306,2.84323 2.23774,4.28928 0.73466,1.44604 1.45209,2.78119 2.11078,4.05905 0.65868,1.27789 1.24881,2.50314 1.77923,3.67206 0.53045,1.16894 0.99778,2.28341 1.35285,3.15746 0.3551,0.87406 0.65115,1.63563 1.00284,2.61762 0.35168,0.98198 0.76046,2.17932 1.24081,3.58585 0.48035,1.40653 1.04983,3.01743 1.42938,3.98148 0.37957,0.96402 0.44959,1.13742 0.4975,1.30115 0.0479,0.16375 0.0735,0.3186 0.0589,0.46105 -0.0146,0.14243 -0.0559,0.26981 -0.0972,0.35797 -0.0413,0.0881 -0.0413,0.0881 -0.0138,0.0294 0,0 0.055,-0.11752 0.0895,-0.24982 0.0345,-0.13232 0.0611,-0.2788 0.0811,-0.44482 0.0201,-0.16598 0.0214,-0.35244 0.005,-0.55368 -0.0165,-0.20123 -0.18454,-2.0585 -0.4207,-3.68423 -0.23616,-1.62573 -0.48518,-3.0318 -0.7344,-4.22248 -0.24922,-1.1907 -0.4864,-2.17187 -0.70317,-2.93243 -0.21677,-0.76052 -0.54033,-1.90792 -0.93848,-3.13367 -0.39815,-1.22577 -0.86275,-2.50601 -1.39609,-3.83942 -0.53332,-1.33343 -1.13106,-2.72183 -1.81228,-4.15429 -0.68125,-1.43244 -1.53333,-2.93374 -2.42028,-4.36644 -0.88697,-1.43267 -1.806,-2.78728 -2.7506,-4.06673 -0.94457,-1.27945 -1.91793,-2.48065 -2.90877,-3.59067 -0.99083,-1.11003 -1.8461,-2.10325 -2.71155,-2.99871 -0.86545,-0.89547 -1.71718,-1.66859 -2.55344,-2.31595 -0.83624,-0.64739 -1.65619,-1.16321 -2.09961,-1.31751 -0.79757,-0.37492 -0.51808,-0.0345 -0.87222,-0.25511 z"
           id="path949" />
      </g>
      <g
         style="fill:#000000;fill-opacity:1;stroke-linejoin:miter"
         id="g955"
         transform="rotate(90,259.41968,748.93978)">
        <path
           d="m 251.60997,217.8987 c 0.71501,-0.1047 2.02179,-0.69 3.29063,-1.52082 1.26883,-0.83081 2.49033,-1.89308 3.6691,-3.16565 1.17874,-1.27256 2.30234,-2.75763 3.01947,-3.87324 0.7171,-1.11562 1.00565,-1.72963 1.25366,-2.40227 0.24802,-0.67264 0.46067,-1.40225 0.63935,-2.18913 0.17868,-0.78687 0.31997,-1.63193 0.39874,-2.86063 0.0787,-1.22868 0.0973,-2.50831 0.0975,-3.58482 1.5e-4,-1.07651 -0.0134,-1.9525 -0.0396,-2.63637 -0.0262,-0.68385 -0.0648,-1.19696 -0.076,-1.32477 -0.0112,-0.12779 -0.004,-0.22358 0.007,-0.30258 0.0112,-0.079 0.0229,-0.14155 0.0353,-0.18759 0.0123,-0.046 0.0251,-0.0761 0.46453,-0.77707 0.43945,-0.70094 1.32425,-2.2207 2.19477,-3.42703 0.8705,-1.20633 1.64327,-2.31415 2.27984,-3.27008 0.63656,-0.95595 1.13898,-1.76416 1.51623,-2.43582 0.37723,-0.67166 0.60395,-1.16454 0.80838,-1.60428 0.20445,-0.43975 0.4061,-0.89914 0.59647,-1.36862 0.19038,-0.46947 0.37408,-0.94683 0.54721,-1.43381 0.17313,-0.48699 0.35397,-1.04096 0.8782,-3.01779 0.52427,-1.97683 0.94989,-3.59093 1.28803,-4.84688 0.33814,-1.25595 0.5921,-2.14884 0.75079,-2.65669 0.15865,-0.50786 0.25757,-0.69376 0.52491,-1.36151 0.2673,-0.66775 0.60577,-1.37734 1.00726,-2.15915 0.40152,-0.7818 0.87208,-1.63224 1.16675,-2.37796 0.29463,-0.74574 0.29463,-0.74574 -0.0144,-0.33028 0,0 -0.95593,0.58589 -1.58313,1.32539 -0.62716,0.73949 -1.16383,1.45165 -1.60846,2.13803 -0.44461,0.68637 -0.78082,1.30314 -0.96423,1.6319 -0.18344,0.32878 -0.48254,0.99556 -0.88959,1.99658 -0.40707,1.00104 -0.91905,2.34697 -1.53925,4.04001 -0.6202,1.69304 -1.33605,3.71881 -1.5185,4.13211 -0.18242,0.41332 -0.38335,0.84349 -0.58745,1.26421 -0.2041,0.42071 -0.41071,0.8325 -0.62335,1.2339 -0.21265,0.40138 -0.44245,0.81404 -0.69904,1.25226 -0.25656,0.43823 -0.66144,1.03525 -1.22253,1.79999 -0.56107,0.76475 -1.26853,1.69436 -2.12659,2.78012 -0.85804,1.08577 -1.93924,2.44253 -2.8811,4.1351 -0.94187,1.69258 -1.1167,2.11505 -1.1763,2.33938 -0.0596,0.22436 -0.10129,0.45018 -0.12534,0.67728 -0.024,0.2271 -0.0319,0.45506 -0.0218,0.74873 0.0101,0.29368 0.0726,0.62731 0.12817,1.0851 0.0556,0.45781 0.11164,1.15113 0.17573,2.06122 0.0641,0.9101 0.12783,2.03273 0.20281,3.33209 0.075,1.29937 0.0327,2.01041 -0.0502,2.749 -0.0829,0.73858 -0.1937,1.41215 -0.33015,2.02078 -0.13641,0.60861 -0.30191,1.15062 -0.4746,1.60856 -0.1727,0.45795 -1.05191,2.07508 -1.97065,3.50661 -0.9187,1.43152 -1.8734,2.6882 -2.86923,3.77742 -0.99583,1.08922 -2.03578,2.02338 -2.51867,2.54085 -1.09194,0.81105 -0.4216,0.64464 -1.03063,0.93822 z"
           id="path953" />
      </g>
      <g
         style="fill:#000000;fill-opacity:1;stroke-linejoin:miter"
         id="g959"
         transform="rotate(90,259.41968,748.93978)">
        <path
           d="m 272.97318,259.4084 c 0.54397,-0.634 1.59957,-2.4226 2.691,-4.3181 1.09147,-1.89552 1.91772,-3.16327 3.24848,-4.64493 1.33072,-1.48164 2.91556,-2.74368 4.44244,-3.66998 1.52686,-0.92629 2.62345,-1.5025 3.34802,-1.67187 0.72458,-0.16938 1.26318,-0.17237 1.17743,-0.18097 -0.0857,-0.009 0.163,0.23245 0.80495,1.36299 0.64195,1.13054 0.9139,1.61323 1.81578,5.06366 0.90186,3.45042 1.35788,5.62318 1.81604,7.90352 0.45816,2.28033 0.76858,3.84718 1.07721,6.49704 0.30859,2.64987 0.45514,4.28732 0.4931,5.68957 0.038,1.40222 0.0639,1.66675 -0.094,2.49603 -0.1579,0.82929 -0.29148,1.30332 -0.19666,1.19434 0.0948,-0.10898 -0.42758,0.1749 -0.91442,0.41937 -0.48685,0.24448 -1.32285,0.45753 -2.72852,0.5116 -1.40568,0.0541 -3.22038,0.134 -4.92598,0.0156 -1.70555,-0.11835 -2.97313,-0.38972 -4.17287,-1.0013 -1.19973,-0.61153 -1.98393,-1.09813 -2.75573,-1.7603 -0.7718,-0.66214 -1.29935,-1.39048 -1.89835,-2.10822 -0.59903,-0.71778 -1.01125,-1.39886 -1.39215,-1.7807 -0.38092,-0.38183 -0.89447,-0.91992 -0.7304,-1.52362 0.16405,-0.6037 0.16405,-0.6037 0.0342,-0.19894 0,0 -0.3212,0.81631 -0.0348,1.47012 0.28641,0.65378 0.53756,0.9834 0.88672,1.6716 0.34914,0.6882 0.73712,1.68946 1.44742,2.62996 0.7103,0.94057 1.23987,1.7497 2.23386,2.50575 0.99401,0.75607 2.54022,1.73291 4.2582,2.16755 1.71799,0.4346 3.68006,0.73672 5.39689,0.80523 1.71682,0.0685 3.31411,0.11957 4.51055,-0.12053 1.19642,-0.24013 2.03226,-0.73735 2.61982,-1.0587 0.58755,-0.32135 1.17898,-1.29217 1.44995,-2.15155 0.27095,-0.85937 0.53927,-2.04648 0.56152,-2.79379 0.0222,-0.74732 0.0796,-2.90158 0.005,-4.53873 -0.0749,-1.63715 -0.42092,-5.70108 -0.74126,-7.45323 -0.32034,-1.75215 -0.97208,-4.71626 -1.55368,-7.07411 -0.58161,-2.35787 -2.19702,-7.04273 -2.83126,-8.14154 -0.63423,-1.0988 -1.60453,-2.4712 -2.3849,-3.14544 -0.7804,-0.67424 -2.0656,-0.76557 -2.88666,-0.61372 -0.82101,0.15186 -2.24459,0.59464 -3.81152,1.57901 -1.56689,0.98438 -3.08499,2.21646 -4.5726,3.84583 -1.48762,1.62937 -2.74814,3.53048 -3.50784,5.19413 -0.75974,1.66365 -1.60468,4.04594 -1.80208,5.09144 -0.5123,1.78028 -0.0676,1.1011 -0.38252,1.8359 z"
           id="path957" />
      </g>
      <g
         style="fill:#000000;fill-opacity:1;stroke-linejoin:miter"
         id="g963"
         transform="rotate(90,259.41968,748.93978)">
        <path
           d="m 279.59012,175.78705 c -0.23319,0.46852 -0.54052,1.44087 -0.85654,2.43124 -0.31598,0.99039 -0.65661,1.99819 -1.02124,3.02573 -0.36464,1.02753 -0.76284,2.0735 -1.15967,2.83093 -0.39679,0.75743 -0.81617,1.35759 -1.16949,1.85388 -0.35333,0.49628 -0.63956,0.88713 -0.85488,1.16782 -0.21534,0.28067 -0.34962,0.43925 -0.75434,0.82849 -0.40473,0.38922 -1.09246,1.07007 -1.67801,1.66214 -0.58557,0.59209 -1.06977,1.09767 -1.45203,1.5249 -0.38226,0.42725 -0.67325,0.78261 -0.89685,1.06616 -0.22363,0.28357 -0.4628,0.6003 -0.6727,0.90003 -0.2099,0.29974 -0.39285,0.58478 -0.54962,0.86252 -0.15677,0.27775 -0.28348,0.55928 -0.38608,0.84179 -0.1026,0.28252 -0.20904,0.63353 -0.30273,1.00455 -0.0937,0.371 -0.18161,0.76199 -0.2555,1.17563 -0.0739,0.41365 -0.12912,0.85084 -0.15704,1.02509 -0.028,0.17425 -0.0618,0.50357 -0.0812,0.91342 -0.0194,0.40985 -0.0452,1.02511 -0.0744,1.85959 -0.0292,0.83448 -0.0562,1.89045 -0.13506,2.65002 -0.0789,0.75955 -0.26133,1.51857 -0.26618,1.90485 -0.005,0.38626 0.0283,0.61674 0.0898,0.85254 0.0615,0.23579 0.1556,0.47273 0.28473,0.70202 0.12915,0.22928 0.75482,0.83394 8.39401,5.40366 7.63919,4.56972 8.0621,4.8007 8.50449,5.02301 0.44237,0.2223 0.92167,0.45552 1.44177,0.69452 0.5201,0.239 1.08032,0.48692 1.68854,0.74539 0.60818,0.25847 0.86926,0.35599 1.07976,0.41675 0.21055,0.0607 0.43254,0.10772 0.68177,0.13468 0.24923,0.027 0.54425,0.0182 1.0867,-1.62531 0.54245,-1.64353 -0.83624,-2.56635 -1.37851,-2.89827 -0.54229,-0.33193 -0.53631,-0.31527 -0.5415,-0.32064 -0.005,-0.005 -0.0227,-0.0434 -0.0411,-0.12469 -0.0183,-0.0812 -0.0298,-0.20685 -0.0279,-0.41098 0.002,-0.20415 0.013,-0.42487 0.0341,-0.64385 0.021,-0.21898 0.0518,-0.4366 0.0926,-0.6531 0.0408,-0.21651 0.0915,-0.43218 0.23977,-0.89098 0.14828,-0.45878 0.42081,-1.28345 0.69916,-2.17825 0.27835,-0.89481 0.56277,-1.86009 0.85529,-2.89551 0.29251,-1.0354 0.59393,-2.14096 0.90325,-3.52493 0.30936,-1.38397 0.56116,-2.75763 0.75611,-3.88352 0.19494,-1.12587 0.33069,-2.00547 0.41882,-2.64061 0.0881,-0.63513 0.12555,-1.04217 0.16055,-1.56462 0.035,-0.52243 0.0438,-1.38385 -0.0444,-2.21257 -0.0882,-0.82872 -0.27676,-1.61943 -0.56396,-2.36476 -0.28717,-0.74535 -0.66894,-1.44041 -0.9299,-1.96801 -0.26096,-0.5276 -0.26096,-0.5276 -0.1027,-0.1696 0,0 0.26941,0.73482 0.38428,1.495 0.11484,0.76016 0.15848,1.51135 0.1366,2.2604 -0.0219,0.74903 -0.11807,1.50196 -0.28278,2.28217 -0.16467,0.7802 -0.19922,0.98449 -0.3092,1.40097 -0.10999,0.41648 -0.30134,1.09206 -0.57102,2.01513 -0.26968,0.92306 -0.61099,2.09303 -1.02152,3.49168 -0.41054,1.39865 -0.79882,2.46594 -1.18343,3.50455 -0.38462,1.03862 -0.75012,2.00648 -1.0997,2.90222 -0.34955,0.89575 -0.67557,1.72165 -0.99094,2.49007 -0.31537,0.76841 -0.4339,1.11503 -0.52298,1.41984 -0.0891,0.30483 -0.16431,0.6135 -0.22562,0.92566 -0.0613,0.31218 -0.10863,0.62771 -0.14181,0.94406 -0.0332,0.31636 -0.0529,0.64746 -0.0371,1.00537 0.0158,0.35793 0.0753,0.71579 0.18942,1.06903 0.11417,0.35325 0.28914,0.69245 0.62214,1.08889 0.333,0.39643 1.64413,1.37773 2.5672,0.24115 0.9231,-1.13659 1.1107,-1.16787 1.20776,-1.16855 0.0971,-6.9e-4 0.12234,-2.3e-4 0.0961,-0.0119 -0.0262,-0.0117 -0.0927,-0.0387 -0.39167,-0.18062 -0.29905,-0.14188 -0.84783,-0.40572 -1.35103,-0.65833 -0.5032,-0.25262 -0.96285,-0.48842 -1.3753,-0.71286 -0.4124,-0.22442 -0.77825,-0.43379 -4.74474,-2.82287 -3.9665,-2.38909 -11.6684,-6.8315 -11.38642,-6.56044 0.28198,0.27105 0.31742,0.34353 0.33746,0.40335 0.0201,0.0598 0.0278,0.10101 0.0285,0.11903 7e-4,0.018 -0.0315,0.33818 0.11408,-0.46156 0.14554,-0.79975 0.12085,-2.14533 0.0984,-3.11978 -0.0225,-0.97446 -0.0423,-1.72319 -0.0485,-2.24141 -0.006,-0.51822 -0.008,-0.78806 -0.003,-0.81198 0.005,-0.0239 0.0326,-0.47841 0.0671,-0.83848 0.0344,-0.36006 0.0702,-0.69079 0.1155,-0.99035 0.0454,-0.29955 0.1046,-0.56575 0.16953,-0.80945 0.0649,-0.24368 0.0942,-0.35063 0.14383,-0.47736 0.0496,-0.1267 0.13352,-0.3067 0.25708,-0.5269 0.12356,-0.2202 0.28369,-0.47714 0.4863,-0.7805 0.2026,-0.30336 0.35928,-0.55498 0.60138,-0.88176 0.24212,-0.32678 0.59314,-0.76907 1.04315,-1.32097 0.45003,-0.55191 1.00125,-1.20688 1.65369,-1.97096 0.6524,-0.76408 0.82492,-0.98178 1.00921,-1.26158 0.18427,-0.27982 0.41001,-0.65099 0.68576,-1.12381 0.27577,-0.47284 0.60349,-1.04998 1.0112,-1.79784 0.40772,-0.74786 0.73947,-1.96808 0.99039,-3.08287 0.25092,-1.11479 0.4462,-2.20937 0.58814,-3.28122 0.14194,-1.07187 0.22448,-2.12062 0.15902,-2.6506 0.006,-1.02472 -0.2052,-0.55007 -0.13406,-1.0448 z"
           id="path961" />
      </g>
      <g
         style="fill:#000000;fill-opacity:1;stroke-linejoin:miter"
         id="g967"
         transform="rotate(90,259.41968,748.93978)">
        <path
           d="m 327.08466,256.13684 c 0.0295,-0.002 -0.43219,-0.19936 -1.54212,-0.79404 -1.10994,-0.59468 -2.87808,-1.53335 -5.31476,-2.79507 -2.4367,-1.26172 -5.54614,-2.83852 -9.56234,-4.66028 -4.01621,-1.82175 -8.36319,-3.57674 -9.13314,-3.98053 -0.77,-0.40378 -0.23527,0.61701 -0.0997,-0.007 0.13556,-0.6235 0.24618,-1.27199 0.33365,-1.94519 0.0875,-0.67322 0.15738,-1.37088 0.19958,-2.1273 0.0422,-0.75643 0.0208,-3.50518 -0.015,-5.76229 -0.0358,-2.25709 -0.0592,-4.04597 -0.0589,-5.35977 2.7e-4,-1.31378 0.0228,-2.13208 0.0684,-2.50528 0.0456,-0.37318 0.0713,-1.09553 0.12439,-1.67398 0.0531,-0.57844 0.14074,-1.1568 0.26318,-1.73582 0.12247,-0.57903 0.28012,-1.15935 0.50983,-1.86155 0.22967,-0.70219 0.28711,-1.48164 0.28851,-1.78027 0.001,-0.29863 -5.2e-4,-0.54756 -0.006,-0.75691 -0.006,-0.20935 -0.0196,-0.40628 -0.061,-0.63405 -0.0414,-0.22777 -0.48224,-1.86031 -0.70142,-2.66955 -0.21915,-0.80926 -0.20622,-0.73598 -0.20142,-0.63764 0.005,0.0983 -0.005,0.21697 -0.0351,0.34407 -0.03,0.12712 -0.0801,0.25189 0.81842,0.17572 0.89853,-0.0762 3.7334,-1.13328 6.56366,-2.11251 2.83023,-0.97925 5.65587,-1.88064 8.47693,-2.70423 2.82101,-0.82358 5.63751,-1.56941 6.45391,-1.97589 0.81641,-0.4065 -0.3219,-1.68208 -0.34472,-1.78107 -0.0228,-0.099 -0.0284,0.10124 -0.0524,0.4527 -0.0241,0.35146 -0.0678,0.83267 -0.26573,1.86696 -0.198,1.03428 -0.52182,2.58928 -0.76892,3.88791 -0.24713,1.29862 -0.41818,2.34842 -0.51318,3.17663 -0.095,0.82822 -0.10392,1.51686 -0.0506,2.11904 0.0533,0.60218 0.14627,1.55594 0.28525,2.5959 0.13898,1.03996 0.32348,2.16859 0.55328,3.38786 0.2298,1.21927 0.5048,2.53032 0.7416,3.59888 0.2368,1.06854 0.5058,2.16334 0.94,3.69901 0.4342,1.53564 1.02384,3.52497 1.77455,5.97076 0.7507,2.44578 1.65838,5.35048 2.4895,8.28074 0.83111,2.93027 1.4328,5.36875 1.92535,7.29181 0.49256,1.92307 0.88108,3.33229 1.16107,4.24477 0.27997,0.91247 0.50103,1.45279 0.6001,1.60879 0.099,0.15601 0.29715,0.58179 0.52623,0.99268 0.22905,0.41085 0.4854,0.80771 0.76747,1.19083 0.28211,0.38312 0.59093,0.75146 1.28308,1.45632 0.69217,0.70487 1.77005,1.73972 2.1847,2.05195 0.41467,0.31219 0.78207,0.5838 1.11555,0.83413 0.33342,0.25034 0.631,0.48182 0.89537,0.69266 0.26438,0.21082 0.49073,0.40619 0.41203,0.24872 -0.0787,-0.15744 -0.0787,-0.15744 -0.0263,-0.0525 0,0 0.10496,0.20993 -0.0592,-0.058 -0.16409,-0.26798 -0.35971,-0.56562 -0.59119,-0.88796 -0.23148,-0.32234 -0.49771,-0.6698 -0.79908,-1.04137 -0.30138,-0.37155 -0.6103,-0.73033 -1.46114,-1.92569 -0.85083,-1.19537 -1.08026,-1.54519 -1.29288,-1.90004 -0.21264,-0.35487 -0.39968,-0.71254 -0.56098,-1.07353 -0.16125,-0.36102 -0.2992,-0.72461 -0.44182,-1.16021 -0.14258,-0.43564 -0.21204,-0.4657 -0.30423,-0.90706 -0.0922,-0.44136 -0.28388,-1.4986 -0.55329,-3.0898 -0.26941,-1.5912 -0.6199,-3.70928 -1.05936,-6.38727 -0.43942,-2.67799 -1.27593,-5.99712 -1.98742,-8.78036 -0.71152,-2.78324 -1.30435,-5.09173 -1.7627,-6.92765 -0.45831,-1.83592 -0.79242,-3.19179 -0.99853,-4.06823 -0.20609,-0.87644 -0.50403,-2.21706 -0.75342,-3.44541 -0.24943,-1.22835 -0.45303,-2.35544 -0.61096,-3.37976 -0.15797,-1.02432 -0.2706,-1.94397 -0.34125,-2.79269 -0.0707,-0.84871 -0.10934,-1.06156 -0.0812,-1.46085 0.0282,-0.39931 0.13093,-1.16017 0.31422,-2.21539 0.18328,-1.05522 0.44648,-2.39057 0.79526,-4.02994 0.34882,-1.63936 0.43252,-2.3967 0.47424,-2.89163 0.0417,-0.49492 0.0647,-0.89711 0.0643,-1.25222 -3.9e-4,-0.3551 -0.0825,-0.8638 -1.32836,-1.58879 -1.24588,-0.72499 -4.10178,-0.0204 -6.98472,0.76911 -2.88296,0.78952 -5.76892,1.65809 -8.65784,2.60568 -2.8889,0.94757 -5.7808,1.9741 -8.68194,3.08208 -2.90116,1.10797 -3.99402,2.18272 -4.08226,2.43936 -0.0883,0.25664 -0.13624,0.51988 -0.14592,0.77653 -0.01,0.25664 0.0136,0.49851 0.0558,0.70066 0.0422,0.20213 0.4837,1.83734 0.69272,2.59713 0.20901,0.75979 0.19318,0.65235 0.19613,0.72222 0.003,0.0699 0.006,0.23115 0.007,0.46095 6.1e-4,0.2298 -0.002,0.52255 -0.0676,0.71427 -0.0659,0.19169 -0.29104,0.91351 -0.47369,1.6398 -0.18267,0.72627 -0.32245,1.45648 -0.41895,2.1899 -0.0965,0.73342 -0.14947,1.46935 -0.1828,1.86393 -0.0333,0.39459 -0.085,1.10416 -0.10226,2.17877 -0.0173,1.07463 -0.01,2.58748 0.0221,4.55551 0.0317,1.96804 0.1102,4.39453 0.168,6.04129 0.0578,1.64678 0.0363,2.27936 -7.9e-4,2.88263 -0.0371,0.60327 -0.0928,1.17714 -0.16632,1.72154 -0.0735,0.54441 -0.16844,1.05858 0.79066,2.6157 0.95906,1.55711 2.28936,2.22418 6.79537,3.71846 4.50601,1.49429 8.16086,2.95439 11.20065,4.10587 3.03983,1.15148 5.41208,1.97393 7.11444,2.47025 1.70236,0.49633 2.72234,0.69355 3.03334,0.6881 0.3435,-0.0546 0.1932,-0.0834 0.22576,-0.13251 z"
           id="path965" />
      </g>
    </g>
  </g>
</svg>
