<?xml version="1.0" encoding="UTF-8" standalone="no"?>
<!-- Created with Inkscape (http://www.inkscape.org/) -->

<svg
   width="268.67789em"
   height="268.67789em"
   viewBox="0 0 268.67789 268.67789"
   version="1.1"
   id="svg5"
   xml:space="preserve"
   xmlns="http://www.w3.org/2000/svg"
   xmlns:svg="http://www.w3.org/2000/svg"><defs
     id="defs2" /><g
     id="layer1"
     transform="translate(-198.63404,-334.34629)"><g
       id="g3552"
       style="display:inline;stroke-width:4.43694;stroke-dasharray:none"
       transform="matrix(1.19264,0,0,1.19264,530.96824,-97.79284)"><path
         style="font-variation-settings:normal;opacity:1;fill:none;fill-opacity:1;stroke:#000000;stroke-width:4.43694;stroke-linecap:butt;stroke-linejoin:miter;stroke-miterlimit:4;stroke-dasharray:none;stroke-dashoffset:0;stroke-opacity:1;stop-color:#000000;stop-opacity:1"
         d="m -263.67809,453.10536 48.52612,-25.72467 16.95491,-15.78563"
         id="path3417" /><path
         style="font-variation-settings:normal;opacity:1;fill:none;fill-opacity:1;stroke:#000000;stroke-width:4.43694;stroke-linecap:butt;stroke-linejoin:miter;stroke-miterlimit:4;stroke-dasharray:none;stroke-dashoffset:0;stroke-opacity:1;stop-color:#000000;stop-opacity:1"
         d="m -137.39324,413.34901 c 0,0 8.76978,18.12422 25.14004,13.447 l 46.187514,20.46284"
         id="path3419" /><path
         style="font-variation-settings:normal;opacity:1;fill:none;fill-opacity:1;stroke:#000000;stroke-width:4.43694;stroke-linecap:butt;stroke-linejoin:miter;stroke-miterlimit:4;stroke-dasharray:none;stroke-dashoffset:0;stroke-opacity:1;stop-color:#000000;stop-opacity:1"
         d="m -75.42012,465.38306 c -4.677217,-12.86234 -36.24843,-23.97073 -36.24843,-23.97073 -14.6163,-6.43117 -15.7856,21.04748 -15.7856,21.04748 0,0 15.20095,19.87817 32.155859,11.69304"
         id="path3421" /><path
         style="font-variation-settings:normal;opacity:1;fill:none;fill-opacity:1;stroke:#000000;stroke-width:4.43694;stroke-linecap:butt;stroke-linejoin:miter;stroke-miterlimit:4;stroke-dasharray:none;stroke-dashoffset:0;stroke-opacity:1;stop-color:#000000;stop-opacity:1"
         d="m -220.99849,451.35141 c 0,0 16.37026,-4.09258 17.53957,21.04747 0,0 -24.5554,16.37027 -36.24844,14.61631"
         id="path3423" /><path
         style="font-variation-settings:normal;opacity:1;fill:none;fill-opacity:1;stroke:#000000;stroke-width:4.43694;stroke-linecap:butt;stroke-linejoin:miter;stroke-miterlimit:4;stroke-dasharray:none;stroke-dashoffset:0;stroke-opacity:1;stop-color:#000000;stop-opacity:1"
         d="m -244.96922,459.53653 c 0,0 -11.69305,22.80145 5.84652,28.0633"
         id="path3425" /><path
         style="font-variation-settings:normal;opacity:1;fill:none;fill-opacity:1;stroke:#000000;stroke-width:4.43694;stroke-linecap:butt;stroke-linejoin:miter;stroke-miterlimit:4;stroke-dasharray:none;stroke-dashoffset:0;stroke-opacity:1;stop-color:#000000;stop-opacity:1"
         d="m -212.22871,544.31109 25.7247,-40.34099 c 0,0 44.43355,-5.84653 53.20334,1.1693 0,0 19.29351,31.57122 15.7856,35.66378 0,0 -62.55777,-12.86234 -95.88294,14.61631"
         id="path3427" /><rect
         style="display:inline;fill:none;stroke:none;stroke-width:5.29167;stroke-dasharray:none;stroke-opacity:1"
         id="rect4655"
         width="268.67789"
         height="268.67789"
         x="628.68103"
         y="398.32809"
         transform="matrix(0.838476,0,0,0.838476,-805.7882,28.349733)" /></g></g></svg>
