<?xml version="1.0" encoding="UTF-8" standalone="no"?>
<svg
   version="1.1"
   width="135.38521"
   height="135.38521"
   viewBox="0 0 135.38521 135.38521"
   id="svg1214"
   xmlns="http://www.w3.org/2000/svg"
   xmlns:svg="http://www.w3.org/2000/svg">
  <defs
     id="defs1218" />
  <g
     id="g7622"
     transform="translate(-401.37216,-989.1994)">
    <rect
       style="display:inline;opacity:0.5;fill:none;fill-opacity:1;stroke:none;stroke-width:2.66644;stroke-dasharray:none;stroke-opacity:1"
       id="rect5275"
       width="135.38521"
       height="135.38521"
       x="401.37216"
       y="989.1994" />
    <g
       id="g5157"
       transform="translate(-30.078071,8.6243676)">
      <g
         style="fill:#000000;fill-opacity:1;stroke-linejoin:miter"
         id="g1139"
         transform="rotate(90,259.41968,748.93978)">
        <path
           d="m 514.53925,515.80505 c 0.60355,0.15035 1.70929,0.46665 2.71845,1.1012 1.00915,0.63445 1.96416,1.61895 2.8861,2.98025 0.922,1.36124 1.811,3.1133 2.31836,4.2655 0.50734,1.1521 0.57974,1.41276 0.6756,1.9683 0.0959,0.55554 0.18574,1.36255 0.26004,2.4021 0.0744,1.03955 0.1309,2.30554 0.17984,3.11017 0.049,0.80469 0.0306,0.84703 -0.0369,1.37743 -0.0675,0.5304 -0.21593,1.3946 -0.4255,2.567 -0.2096,1.1724 -0.49575,2.6454 -0.6869,3.74075 -0.1912,1.09525 -0.19985,1.4809 -0.1989,1.84815 8e-4,0.3672 0.0162,0.71795 0.0543,1.0548 0.0381,0.3369 0.0948,0.66236 0.25195,1.25775 0.1572,0.5954 0.5109,1.60355 1.0151,2.67575 0.50413,1.07224 1.1492,2.2216 1.93834,3.45444 0.78906,1.23291 1.72516,2.55156 2.70111,3.7796 0.97595,1.22806 1.87249,2.16586 2.77765,2.93952 0.9052,0.77374 1.8159,1.38554 2.7367,1.82354 0.9208,0.438 1.84673,0.69587 2.6211,0.82014 0.7744,0.12432 1.5805,0.17896 2.4531,0.12436 0.8727,-0.0545 1.81385,-0.2281 2.823,-0.5227 1.0092,-0.2945 2.08204,-0.72636 2.9429,-1.0277 0.8609,-0.3014 0.8609,-0.3014 0.27683,-0.1397 0,0 -1.19836,0.2057 -2.29223,0.28326 -1.0939,0.0776 -2.0613,0.11184 -2.9077,0.0759 -0.84645,-0.0359 -1.571,-0.13123 -2.20375,-0.3071 -0.63282,-0.1758 -1.37945,-0.3842 -2.0586,-0.7193 -0.6792,-0.3351 -1.36755,-0.81705 -2.07031,-1.4503 -0.70284,-0.63323 -1.41444,-1.428 -2.13224,-2.3749 -0.71786,-0.94687 -1.58755,-2.3323 -2.3303,-3.6157 -0.74266,-1.2834 -1.34953,-2.4385 -1.81236,-3.46435 -0.46284,-1.02585 -0.78214,-1.91461 -0.97414,-2.6864 -0.192,-0.77185 -0.2192,-0.91555 -0.23497,-1.07445 -0.0157,-0.159 -0.02,-0.357 -0.0167,-0.5914 0.003,-0.23436 0.0235,-0.50303 0.0442,-0.7585 0.0207,-0.2555 0.25494,-1.9326 0.43414,-3.34195 0.1792,-1.40935 0.30981,-2.5249 0.38576,-3.35845 0.0759,-0.8335 0.1013,-1.4191 0.0644,-1.724 -0.0369,-0.3049 -0.1864,-1.7022 -0.3478,-2.9349 -0.1614,-1.23265 -0.33094,-2.25645 -0.5069,-3.08244 -0.17596,-0.82596 -0.37604,-1.47346 -0.5899,-1.90236 -0.2139,-0.4288 -1.32123,-2.43803 -2.5001,-4.09117 -1.1789,-1.65313 -2.4182,-2.89093 -3.7067,-3.69713 -1.2885,-0.8063 -2.6046,-1.1542 -3.26244,-1.0646 -1.27486,0.1388 -0.64666,0.2303 -1.26361,0.27955 z"
           id="path1137" />
      </g>
      <g
         style="fill:#000000;fill-opacity:1;stroke-linejoin:miter"
         id="g1143"
         transform="rotate(90,259.41968,748.93978)">
        <path
           d="m 514.5589,492.8952 c 0.81836,0.0799 2.32275,-0.2298 3.7053,-0.85022 1.3826,-0.62042 2.6213,-1.53943 3.7073,-2.7279 1.086,-1.18848 2.0008,-2.64058 2.46527,-3.64228 0.46443,-1.00167 0.53839,-1.3117 0.58899,-1.638 0.0506,-0.32626 0.08,-0.6696 0.0901,-1.0315 0.01,-0.36187 -0.002,-0.74294 -0.14954,-1.63756 -0.14806,-0.8946 -0.3569,-2.03217 -0.51977,-3.04901 -0.16293,-1.01683 -0.27856,-1.91105 -0.34057,-2.67917 -0.0621,-0.76813 -0.0848,-1.4029 -0.0257,-2.38639 0.0591,-0.98347 0.1389,-2.45309 0.13125,-3.91827 -0.008,-1.46515 -0.0697,-2.92334 -0.15855,-4.37396 -0.089,-1.45059 -0.209,-2.89344 -0.2907,-3.79059 -0.0816,-0.89715 -0.0731,-1.31418 -0.0213,-1.74909 0.0518,-0.43493 0.14333,-0.89036 0.28576,-1.36462 0.14252,-0.4743 0.33442,-0.96786 0.55091,-1.38818 0.21656,-0.42029 0.48746,-0.79441 0.76186,-1.09021 0.2743,-0.29581 0.55247,-0.51745 0.83714,-0.67565 0.28472,-0.1582 0.58422,-0.2592 0.91526,-0.3493 0.3311,-0.0901 0.6407,-0.155 1.39455,-0.22676 0.75391,-0.0717 1.88805,-0.14292 3.38775,-0.22586 1.4997,-0.083 3.3647,-0.23191 4.9406,-0.2757 1.57595,-0.0438 1.57595,-0.0438 0.5297,-0.0999 0,0 -2.0796,-0.3682 -3.81325,-0.64295 -1.73358,-0.27475 -3.12365,-0.42309 -4.17375,-0.49962 -1.0501,-0.0765 -1.7787,-0.0854 -2.1649,-0.0255 -0.3861,0.0599 -0.8114,0.0841 -1.3632,0.23493 -0.5518,0.15079 -1.0755,0.40674 -1.5666,0.75159 -0.4911,0.34488 -0.94536,0.77598 -1.3801,1.30658 -0.43476,0.53058 -0.7879,1.16824 -1.0594,1.75567 -0.2715,0.58743 -0.4838,1.18021 -0.6468,1.77478 -0.1629,0.59455 -0.2606,1.19327 -0.302,1.80091 -0.0414,0.60764 -0.0135,2.04699 -0.005,3.4577 0.009,1.41071 -0.007,2.82562 -0.0447,4.2449 -0.0382,1.41928 -0.0597,2.84394 -0.0676,4.29444 -0.008,1.4505 0.0294,2.18353 0.1171,2.98886 0.0878,0.80534 0.2463,1.70016 0.4586,2.69274 0.2122,0.99256 0.4779,2.0865 0.8059,3.2561 0.328,1.1696 0.35124,1.35954 0.3806,1.64747 0.0293,0.28797 0.0436,0.54553 0.043,0.77139 -6.7e-4,0.22587 -0.0148,0.4191 -0.0181,0.51969 -0.003,0.10058 -0.58093,1.61609 -1.287,2.88611 -0.7061,1.27004 -1.5536,2.33831 -2.5582,3.22076 -1.0046,0.88242 -2.1806,1.59515 -2.7985,2.01862 -1.3704,0.5766 -0.5896,0.56186 -1.3422,0.71496 z"
           id="path1141" />
      </g>
      <g
         style="fill:#000000;fill-opacity:1;stroke-linejoin:miter"
         id="g1147"
         transform="rotate(90,259.41968,748.93978)">
        <path
           d="m 550.2398,494.8395 c 0.44935,0.06 1.28693,0.003 2.0733,-0.10885 0.7864,-0.11165 1.5221,-0.27032 2.20875,-0.46783 0.68665,-0.19752 1.3252,-0.43182 2.2666,-0.8812 0.94141,-0.44937 2.07065,-1.05884 3.00925,-1.62172 0.9387,-0.56294 1.6895,-1.08986 2.26944,-1.59675 0.57996,-0.5069 1.00246,-1.04535 1.15896,-1.32315 0.1565,-0.2778 0.30515,-0.57044 0.4139,-0.88034 0.10884,-0.30994 0.1828,-0.63434 0.22475,-0.97364 0.0419,-0.33926 0.0583,-0.69384 0.005,-1.29364 -0.0529,-0.59976 -0.13725,-1.30743 -0.21635,-2.07308 -0.0791,-0.76566 -0.14832,-1.58964 -0.21619,-2.4705 -0.0679,-0.88086 -0.13106,-1.819 -0.19659,-2.5355 -0.0656,-0.71648 -0.11827,-1.04656 -0.18577,-1.3715 -0.0675,-0.32496 -0.1475,-0.64488 -0.24575,-0.95753 -0.0983,-0.31265 -0.211,-0.61837 -0.41278,-1.10855 -0.20177,-0.49017 -0.57813,-1.19189 -1.05463,-1.83026 -0.47654,-0.63834 -1.04574,-1.20859 -1.70074,-1.70691 -0.65503,-0.49832 -1.38807,-0.92902 -2.30146,-1.32303 -0.91339,-0.39402 -1.86444,-0.70785 -2.76304,-0.93558 -0.8987,-0.22774 -1.7454,-0.37338 -2.5442,-0.42169 -0.79884,-0.0484 -1.5485,-0.003 -2.4569,0.24165 -0.9084,0.24447 -1.8434,0.64492 -2.6803,1.11687 -0.8369,0.47196 -1.57326,1.01363 -2.2006,1.62699 -0.62736,0.61334 -1.13914,1.29507 -1.45505,1.88229 -0.31595,0.58725 -0.44185,1.05735 -0.45975,1.55518 -0.0179,0.49783 0.0605,1.01715 0.23416,1.55727 0.17371,0.54014 0.43884,1.1021 0.61704,1.56016 0.1782,0.45807 0.1782,0.45807 0.0687,0.14969 0,0 -0.19065,-0.62583 -0.23965,-1.20737 -0.049,-0.58154 -0.0335,-1.08758 0.04,-1.51672 0.0735,-0.42914 0.20044,-0.78336 0.37214,-1.06886 0.17163,-0.28545 0.66236,-0.8256 1.21646,-1.2998 0.55417,-0.4742 1.1848,-0.88015 1.8907,-1.23062 0.706,-0.35046 1.49525,-0.64294 2.35207,-0.87198 0.85673,-0.229 1.29683,-0.23623 1.86523,-0.18823 0.5684,0.048 1.2052,0.17508 1.9104,0.38196 0.70514,0.20691 1.4776,0.49627 2.2987,0.86679 0.8211,0.37051 1.37824,0.70743 1.8663,1.07883 0.488,0.37143 0.8878,0.75528 1.204,1.15495 0.31624,0.3997 0.55635,0.81697 0.74056,1.2925 0.1842,0.47555 0.25879,0.71124 0.32428,0.95843 0.0654,0.24719 0.14636,0.49255 0.21679,0.74481 0.0705,0.25223 0.13797,0.50943 0.19617,0.7283 0.0583,0.21888 0.1743,1.17371 0.3087,2.10889 0.1345,0.93517 0.268,1.81517 0.40834,2.63931 0.14036,0.82413 0.28766,1.59246 0.42936,2.27386 0.14175,0.6814 0.15634,0.83064 0.15927,1.0437 0.003,0.2131 -0.007,0.38917 -0.0261,0.5276 -0.0191,0.13842 -0.0442,0.2396 -0.11034,0.3792 -0.0662,0.13963 -0.1587,0.409 -0.3878,0.7113 -0.22915,0.30235 -0.69046,0.7538 -1.3671,1.30858 -0.67657,0.55477 -1.5533,1.2113 -2.6269,1.95572 -1.0736,0.74438 -1.56,1.04583 -2.11327,1.34432 -0.55328,0.2985 -1.16753,0.58708 -1.84223,0.86762 -0.67473,0.28056 -1.4076,0.56473 -1.7794,0.77786 -0.7927,0.2914 -0.346,0.3519 -0.7668,0.4302 z"
           id="path1145" />
      </g>
      <g
         style="fill:#000000;fill-opacity:1;stroke-linejoin:miter"
         id="g1151"
         transform="rotate(90,259.41968,748.93978)">
        <path
           d="m 541.6741,521.48096 c 1.0492,0.47194 3.02713,1.00924 4.7402,1.54358 1.71314,0.53442 3.1598,1.07876 4.3285,1.65706 1.16876,0.5783 2.05694,1.1763 2.66845,1.62547 0.61145,0.44913 0.79859,0.60827 1.16431,1.0083 0.36579,0.40003 0.85217,1.02603 1.43814,1.86393 0.586,0.8379 1.2605,1.8859 1.78977,2.748 0.52923,0.8621 0.80373,1.3554 1.00317,1.8088 0.1994,0.4533 0.33926,0.85606 0.41962,1.20665 0.0804,0.35065 0.10858,0.64691 0.12874,1.31895 0.0202,0.6721 0.0719,1.51577 0.0886,2.2502 0.0167,0.73444 -0.005,1.35614 -0.0644,1.85834 -0.0589,0.50216 -0.145,0.87756 -0.2968,1.18936 -0.15186,0.3117 -0.45276,0.71823 -0.7763,1.0275 -0.32356,0.30926 -0.6763,0.53936 -1.0822,0.6993 -0.40597,0.1598 -0.8832,0.24973 -1.78335,0.2902 -0.90008,0.0405 -2.06811,0.0312 -3.20275,-0.0665 -1.1346,-0.0978 -2.2379,-0.2822 -3.31434,-0.5496 -1.07641,-0.2674 -2.12886,-0.6195 -2.85272,-0.9434 -0.72388,-0.32386 -1.16681,-0.6782 -1.60354,-1.1577 -0.4367,-0.4795 -0.8522,-1.10037 -1.2626,-1.8564 -0.4105,-0.75605 -0.81166,-1.6519 -1.0233,-2.4116 -0.2117,-0.75973 -0.2117,-0.75973 -0.10134,-0.2458 0,0 0.12829,1.0503 0.27618,2.0097 0.14786,0.9594 0.39616,1.8116 0.74526,2.5532 0.34904,0.74165 0.7912,1.3751 1.3478,1.8941 0.55666,0.51906 1.6323,1.1308 2.7434,1.63014 1.11123,0.49933 2.2763,0.89866 3.4925,1.19409 1.21627,0.29547 2.4804,0.4884 3.77803,0.58533 1.29761,0.0968 2.07837,0.10498 2.88257,-0.0256 0.80414,-0.1306 1.5665,-0.4089 2.2609,-0.83754 0.6945,-0.42866 1.305,-0.99432 1.842,-1.6991 0.53706,-0.70476 0.8337,-1.39946 1.0082,-2.06096 0.17455,-0.66145 0.28954,-1.39296 0.354,-2.20265 0.0645,-0.80969 0.0756,-1.70265 0.0128,-2.66089 -0.0628,-0.95831 -0.0923,-1.43512 -0.2142,-2.03406 -0.122,-0.5989 -0.3179,-1.1948 -0.59097,-1.7877 -0.27307,-0.593 -0.60888,-1.19057 -1.00378,-1.7908 -0.39495,-0.60027 -1.245,-1.7629 -2.00415,-2.74425 -0.75916,-0.98138 -1.4352,-1.77618 -2.03516,-2.39595 -0.59994,-0.61973 -1.1488,-1.0775 -1.54934,-1.28666 -0.4005,-0.20924 -1.2837,-0.81971 -2.51706,-1.40514 -1.2334,-0.5854 -2.69239,-1.0486 -4.37804,-1.4086 -1.6856,-0.36003 -3.60896,-0.58476 -4.67445,-0.4861 -2.16405,-0.0453 -1.08375,0.2387 -2.18235,0.0948 z"
           id="path1149" />
      </g>
      <g
         style="fill:#000000;fill-opacity:1;stroke-linejoin:miter"
         id="g1155"
         transform="rotate(90,259.41968,748.93978)">
        <path
           d="m 599.49744,529.8638 c -0.25784,-0.0243 -0.97944,-0.1731 -2.04834,-0.5734 -1.069,-0.4003 -2.4974,-1.043 -4.29126,-1.92553 -1.79384,-0.88251 -3.95414,-2.00653 -5.81554,-3.20837 -1.8614,-1.2018 -3.1802,-2.396 -4.23146,-3.54554 -1.05134,-1.14956 -1.83004,-2.25311 -2.35884,-3.29146 -0.5288,-1.0383 -0.8191,-2.01384 -0.946,-2.8622 -0.1268,-0.8484 -0.19077,-1.4197 -0.23105,-1.9892 -0.0402,-0.56957 -0.0406,-1.14342 0.004,-1.72487 0.0445,-0.58146 0.13708,-1.17183 0.21554,-1.55195 0.0784,-0.38015 0.1099,-0.51398 0.1651,-0.71008 0.0551,-0.1961 0.1328,-0.44687 0.2319,-0.74737 0.0991,-0.30048 0.2193,-0.64913 1.3169,-3.73679 1.09753,-3.08764 3.0962,-8.89389 3.8207,-10.56027 0.7245,-1.66635 1.42753,-3.04517 2.1009,-4.12714 0.6733,-1.08197 1.3244,-1.87829 1.8002,-2.39043 0.47583,-0.51213 0.47583,-0.51213 0.0933,-0.25138 0,0 -0.96085,0.27945 -1.8797,1.05868 -0.9188,0.77927 -1.8676,1.88965 -2.8304,3.3274 -0.9628,1.43774 -1.9606,3.2301 -4.4891,8.85574 -2.5285,5.62564 -2.69714,6.01922 -2.84216,6.3681 -0.14504,0.34888 -0.26874,0.6593 -0.37174,0.93378 -0.10305,0.27448 -0.1863,0.51785 -0.2469,0.72342 -0.0606,0.20556 -0.2574,0.91729 -0.4001,1.67608 -0.14276,0.75876 -0.2257,1.52158 -0.25134,2.28723 -0.0257,0.76565 0.0532,1.52851 0.19084,2.25739 0.13765,0.72896 0.4204,2.00952 1.0091,3.36826 0.58864,1.3588 1.45247,2.66 2.5779,3.90615 1.12536,1.2461 2.49633,2.45435 4.169,3.65265 1.6727,1.1983 4.3107,2.2981 6.499,3.1065 2.1884,0.80836 4.00967,1.36945 5.46163,1.68226 1.45203,0.31284 2.52912,0.37684 2.93977,0.28638 0.673,-0.15724 0.37585,-0.2273 0.63824,-0.29404 z"
           id="path1153" />
      </g>
      <g
         style="fill:#000000;fill-opacity:1;stroke-linejoin:miter"
         id="g1159"
         transform="rotate(90,259.41968,748.93978)">
        <path
           d="m 599.1768,529.65924 c 1.1623,-1.5025 2.86007,-4.7818 3.00936,-5.21728 0.14929,-0.43546 0.25654,-0.85026 0.34804,-1.27716 0.0915,-0.4268 0.1635,-0.8665 0.21824,-1.31855 0.0547,-0.45205 0.084,-0.94018 0.0596,-1.54135 -0.0245,-0.6012 -0.10845,-1.27164 -0.249,-2.01315 -0.14064,-0.74145 -0.337,-1.55731 -0.5929,-2.44875 -0.2559,-0.89134 -0.56226,-1.83696 -0.7032,-2.2442 -0.1409,-0.4072 -0.35235,-0.85435 -0.61596,-1.30144 -0.26364,-0.44702 -0.57349,-0.90036 -0.93354,-1.35998 -0.36,-0.45963 -0.63006,-0.75958 -0.64556,-0.88928 -0.0155,-0.1297 -0.0995,-0.38553 -0.16901,-0.62775 -0.0695,-0.24222 -0.12817,-0.46995 -0.16907,-0.68433 -0.0408,-0.21435 -0.0576,-0.37246 -0.0791,-0.79294 -0.0216,-0.42048 -0.028,-0.82828 -0.0116,-1.21615 0.0164,-0.38785 0.048,-0.75607 0.0911,-1.10608 0.0431,-0.34998 0.10796,-0.74665 0.1198,-0.86298 0.0118,-0.1163 0.0566,-0.28823 0.1514,-0.55804 0.0947,-0.26981 0.2384,-0.62189 0.42923,-1.04663 0.19087,-0.4247 0.45203,-0.96558 0.53817,-1.21674 0.086,-0.25119 0.13267,-0.435 0.17234,-0.62512 0.0398,-0.19012 0.0732,-0.38669 0.1012,-0.59094 0.028,-0.2043 0.0504,-0.41193 0.0652,-0.76306 0.0148,-0.35114 -0.0177,-0.74674 -0.0898,-1.16797 -0.0721,-0.42124 -0.18404,-0.87961 -0.32815,-1.38513 -0.1441,-0.50554 -0.35089,-1.15364 -0.98695,-2.56946 -0.63603,-1.41583 -1.193,-2.57128 -1.68333,-3.48408 -0.49042,-0.91277 -0.92147,-1.59344 -1.33557,-2.09048 -0.4141,-0.49704 -0.74634,-0.69972 -0.8639,-0.78462 -0.1175,-0.0849 -0.2991,-0.20106 -0.4911,-0.31163 -0.1919,-0.11057 -0.3954,-0.21515 -0.6124,-0.31117 -0.2171,-0.096 -0.5239,-0.21752 -2.0666,-0.61916 -1.5427,-0.40164 -2.849,-0.73471 -3.9241,-1.01492 -1.07505,-0.28022 -1.9211,-0.50839 -2.4475,-0.65305 -0.52635,-0.14462 -0.52635,-0.14462 -0.2026,0.0115 0,0 0.5659,0.49146 1.40617,0.98014 0.84033,0.48868 1.92233,1.0249 3.24073,1.61516 1.31835,0.5902 2.8599,1.21852 2.9907,1.3007 0.1308,0.0822 0.2826,0.17838 0.4181,0.26975 0.13556,0.0914 0.2524,0.18137 0.35004,0.26859 0.0977,0.0872 0.28206,0.24956 0.39456,0.3659 0.11246,0.1163 0.34665,0.51361 0.66465,1.21399 0.31799,0.70041 0.70685,1.67609 1.16335,2.91557 0.45646,1.23946 0.9681,2.712 1.0622,3.1598 0.0941,0.44782 0.1745,0.86894 0.2202,1.21327 0.0457,0.3443 0.0648,0.60208 0.0605,0.75457 -0.004,0.15246 -0.0286,0.26831 -0.0572,0.42276 -0.0287,0.15445 -0.0585,0.29102 -0.0891,0.41098 -0.0306,0.11994 -0.0613,0.22254 -0.0912,0.30732 -0.0298,0.0847 0.005,0.006 -0.26019,0.48227 -0.26489,0.47616 -0.49805,0.92605 -0.68875,1.33197 -0.19076,0.40591 -0.3405,0.7774 -0.44943,1.14169 -0.10901,0.36432 -0.14577,0.58862 -0.22537,1.03204 -0.0796,0.44339 -0.1142,0.93277 -0.1252,1.43183 -0.0111,0.49905 0.009,1.00787 0.0506,1.52655 0.0421,0.5187 0.11996,1.06143 0.19396,1.39511 0.074,0.33368 0.15907,0.64911 0.25984,0.96792 0.10076,0.31882 0.22096,0.64012 0.35856,0.96454 0.13765,0.32446 0.4547,0.93274 0.8764,1.37934 0.4218,0.44659 0.7211,0.78484 0.9637,1.09964 0.2426,0.31484 0.4293,0.6032 0.56776,0.85824 0.13834,0.25501 0.25344,0.56366 0.60924,1.4386 0.3559,0.875 0.64924,1.65472 0.8801,2.3501 0.2308,0.69531 0.39805,1.3045 0.5032,1.82276 0.1051,0.5182 0.1514,0.9483 0.16236,1.337 0.011,0.38876 0.009,0.77853 -0.0148,1.1573 -0.0237,0.3788 -0.062,0.7474 -0.11787,1.10603 -0.0559,0.35867 -0.10103,0.63527 -0.45007,2.47457 -1.06066,3.53135 -0.21896,1.89396 -0.93056,3.58604 z"
           id="path1157" />
      </g>
    </g>
  </g>
</svg>
