<?xml version="1.0" encoding="UTF-8" standalone="no"?>
<svg
   version="1.1"
   width="135.38521"
   height="135.38521"
   viewBox="0 0 135.38521 135.38521"
   id="svg1214"
   xmlns="http://www.w3.org/2000/svg"
   xmlns:svg="http://www.w3.org/2000/svg">
  <defs
     id="defs1218" />
  <g
     id="g6325"
     transform="translate(-97.640701,-568.47607)">
    <rect
       style="display:inline;opacity:0.5;fill:none;fill-opacity:1;stroke:none;stroke-width:2.66644;stroke-dasharray:none;stroke-opacity:1"
       id="rect5353"
       width="135.38521"
       height="135.38521"
       x="97.640701"
       y="568.47607" />
    <g
       id="g4114"
       transform="translate(573.39727,-115.54333)">
      <g
         style="fill:#000000;fill-opacity:1;stroke-linejoin:miter"
         id="g187"
         transform="rotate(90,259.41968,748.93978)">
        <path
           d="m 230.54202,1467.5358 c -0.425,-0.1996 -1.2149,-0.4496 -1.88337,-0.7048 -0.66848,-0.255 -1.21322,-0.5225 -1.63233,-0.8007 -0.41911,-0.2781 -0.71373,-0.5612 -1.07869,-0.9304 -0.36497,-0.3693 -0.69943,-0.6696 -0.97378,-0.9412 -0.27435,-0.2715 -0.48526,-0.5126 -0.63889,-0.7087 -0.15362,-0.1961 -0.23994,-0.3454 -0.32837,-0.514 -0.0884,-0.1687 -0.14869,-0.3134 -0.21095,-0.5139 -0.0623,-0.2004 -0.12338,-0.4527 -0.18474,-0.7531 -0.0613,-0.3006 -0.11703,-0.6491 -0.15805,-0.9966 -0.041,-0.3477 -0.0511,-0.6785 -0.032,-1.0552 0.0191,-0.3768 0.0693,-0.7985 0.15235,-1.2637 0.083,-0.4653 0.19965,-0.9731 0.39743,-1.7075 0.19779,-0.7343 0.49706,-1.7357 0.84018,-2.8251 0.34312,-1.0893 0.72931,-2.2667 1.08881,-3.5538 0.35948,-1.2872 0.74196,-2.6703 1.00055,-3.6428 0.2586,-0.9724 0.33035,-1.391 0.39373,-1.8211 0.0634,-0.4302 0.11081,-0.8734 0.1503,-1.3286 0.0395,-0.4552 0.0634,-0.9236 0.073,-1.2311 0.01,-0.3075 0.0107,-0.4413 0.009,-0.5731 -0.002,-0.1318 -0.006,-0.2615 -0.0125,-0.3889 -0.007,-0.1273 -0.0164,-0.2528 -0.0599,-0.5445 -0.0435,-0.2914 -0.11528,-0.7217 -0.18541,-1.2321 -0.0701,-0.5103 -0.14636,-1.0985 -0.22589,-1.7639 -0.0795,-0.6654 -0.16554,-1.4074 -0.24153,-2.1702 -0.076,-0.7629 -0.13054,-1.4382 -0.18596,-1.9806 -0.0554,-0.5423 -0.10533,-0.9526 -0.14462,-1.2355 -0.0393,-0.2828 -0.0717,-0.462 -0.0974,-0.5808 -0.0257,-0.1187 -0.0967,-0.4146 -0.21617,-0.7741 -0.11948,-0.3594 -0.28595,-0.7886 -0.50717,-1.2889 -0.22123,-0.5002 -0.49834,-1.072 -0.66594,-1.5581 -0.16759,-0.4859 -0.16759,-0.4859 -0.0669,-0.1585 0,0 0.16828,0.6646 0.24292,1.262 0.0747,0.5976 0.13142,1.1036 0.17073,1.5162 0.0393,0.4125 0.0568,0.7298 0.0536,0.9658 -0.003,0.2359 0.0103,0.3107 0.003,0.4664 -0.008,0.1558 -0.0284,0.4656 -0.0642,0.9125 -0.0358,0.447 -0.0761,1.0288 -0.12662,1.7536 -0.0506,0.7249 -0.0676,1.5441 -0.0774,2.2764 -0.01,0.7322 -0.004,1.391 0.005,1.9778 0.009,0.5869 0.0354,1.1019 0.0596,1.5344 0.0242,0.4326 0.0187,0.4647 0.0157,0.5554 -0.003,0.091 -0.008,0.1849 -0.0156,0.2822 -0.007,0.097 -0.0171,0.1978 -0.0288,0.2976 -0.0117,0.1 -0.0701,0.5387 -0.13457,0.9549 -0.0645,0.4163 -0.13637,0.8156 -0.21919,1.1973 -0.0828,0.3816 -0.16864,0.7467 -0.25913,1.06 -0.0905,0.3134 -0.61097,1.713 -1.09158,3.0553 -0.48062,1.3423 -0.87659,2.6134 -1.17328,3.8161 -0.29667,1.2025 -0.55253,2.3189 -0.76153,3.3536 -0.20902,1.0347 -0.3154,1.6603 -0.38033,2.2451 -0.0649,0.5849 -0.0971,1.1358 -0.0952,1.6541 0.002,0.5183 0.0392,1.0052 0.11289,1.4515 0.0737,0.4464 0.1752,0.8744 0.28262,1.26 0.10741,0.3856 0.22258,0.7348 0.35214,1.0481 0.12957,0.3133 0.2719,0.5945 0.41333,0.8192 0.14142,0.2248 0.2791,0.4388 0.50382,0.7012 0.22473,0.2625 0.49289,0.5225 0.81593,0.7807 0.32304,0.258 0.69395,0.5277 1.09094,0.7858 0.39699,0.2581 0.73683,0.56 1.2603,0.8648 0.52347,0.3047 1.13407,0.5328 1.83524,0.6846 0.70115,0.1518 1.49447,0.2248 1.93309,0.1606 0.88563,-0.012 0.45512,-0.2043 0.90214,-0.1517 z"
           id="path185" />
      </g>
      <g
         style="fill:#000000;fill-opacity:1;stroke-linejoin:miter"
         id="g191"
         transform="rotate(90,259.41968,748.93978)">
        <path
           d="m 224.57301,1408.6686 c 0.69297,-0.4006 1.71993,-1.292 2.52029,-2.0349 0.80038,-0.743 1.3904,-1.326 1.78373,-1.7528 0.39333,-0.4268 0.62595,-0.7472 0.76616,-0.9991 0.1402,-0.2519 0.35522,-0.6322 0.53338,-1.0042 0.17815,-0.3721 0.32306,-0.7351 0.43728,-1.09 0.11421,-0.3549 0.19545,-0.704 0.26509,-1.2197 0.0696,-0.5158 0.14257,-1.2086 0.19862,-1.9031 0.056,-0.6946 0.0951,-1.3906 0.1172,-2.088 0.0221,-0.6974 0.0232,-1.396 -0.005,-2.1701 -0.0285,-0.7741 -0.0768,-1.5492 -0.13199,-2.2639 -0.0552,-0.7147 -0.11453,-1.3701 -0.18197,-1.9669 -0.0674,-0.5968 -0.14226,-1.1365 -0.18967,-1.6005 -0.0474,-0.4638 -0.0876,-0.9751 -0.11789,-1.4154 -0.0303,-0.4403 -0.0444,-0.8088 -0.0795,-1.0995 -0.0351,-0.2907 -0.0537,-0.5014 -0.0464,-0.6274 0.007,-0.126 0.0381,-0.5831 0.0448,-1.1258 0.007,-0.5428 -0.007,-1.1839 -0.0451,-1.931 -0.0377,-0.747 -0.0985,-1.6027 -0.0823,-3.1126 0.0162,-1.5099 0.11231,-3.7813 0.11736,-3.8472 0.005,-0.066 0.0131,-0.1435 0.0209,-0.2065 0.008,-0.063 0.0145,-0.11 0.0186,-0.138 0.004,-0.028 -0.047,0.085 0.37872,-0.789 0.42572,-0.8736 1.05391,-1.8577 1.89288,-2.9674 0.83896,-1.1098 1.88112,-2.3466 2.61717,-3.5048 0.73606,-1.1581 0.73606,-1.1581 0.0887,-0.5464 0,0 -1.76463,0.7424 -2.95163,1.8262 -1.18698,1.0838 -2.15306,2.1238 -2.90378,3.1234 -0.75071,0.9996 -1.26771,1.9172 -1.3272,2.0773 -0.0595,0.1599 -0.0885,0.2598 -0.11457,0.3626 -0.0261,0.1028 -0.0503,0.2106 -0.0734,0.3249 -0.0231,0.1143 -0.051,0.2856 -0.35097,2.5686 -0.29996,2.2829 -0.30422,3.3238 -0.31928,4.114 -0.0151,0.79 -0.0336,1.4586 -0.0628,2.0014 -0.0292,0.543 -0.0678,0.9526 -0.12032,1.2913 -0.0525,0.3386 -0.0582,0.7317 -0.0638,1.0273 -0.006,0.2957 0.0334,0.6469 0.089,1.0601 0.0556,0.4133 0.11507,0.8921 0.19442,1.4627 0.0794,0.5705 0.19993,1.0863 0.30066,1.591 0.10074,0.5047 0.20544,1.0767 0.30881,1.7152 0.10337,0.6386 0.21057,1.3423 0.31587,2.1022 0.1053,0.7598 0.17108,1.3968 0.22395,2.0513 0.0529,0.6544 0.0918,1.3105 0.11466,1.9685 0.0229,0.6581 0.0297,1.318 0.0205,1.9785 -0.009,0.6604 -0.0151,0.8781 -0.0452,1.1202 -0.03,0.2422 -0.0914,0.5159 -0.18119,0.8202 -0.0897,0.3043 -0.21331,0.6356 -0.37001,1.0183 -0.15669,0.3827 -0.15936,0.4506 -0.31938,0.7063 -0.16003,0.2558 -0.51901,0.7638 -1.04858,1.491 -0.52958,0.7273 -1.21918,1.6761 -1.52236,2.3101 -0.81823,1.1964 -0.19905,0.729 -0.71411,1.2916 z"
           id="path189" />
      </g>
      <g
         style="fill:#000000;fill-opacity:1;stroke-linejoin:miter"
         id="g195"
         transform="rotate(90,259.41968,748.93978)">
        <path
           d="m 249.18385,1402.1971 c -0.37123,-0.1395 -2.11741,-0.4531 -3.36677,-0.6265 -1.24938,-0.1734 -2.00838,-0.048 -3.77428,0.1194 -1.7659,0.1672 -2.52038,0.1821 -2.52038,0.1821 0,0 0,0 0,0 0,0 0,0 1.2479,0.2091 1.2479,0.2091 2.99544,0.4896 3.74628,0.5636 0.75084,0.074 2.51407,-0.028 3.39963,-0.175 1.26186,-0.1315 0.89131,-0.288 1.26762,-0.2727 z"
           id="path193" />
      </g>
      <g
         style="fill:#000000;fill-opacity:1;stroke-linejoin:miter"
         id="g199"
         transform="rotate(90,259.41968,748.93978)">
        <path
           d="m 239.90991,1400.1237 c 0.017,-0.4261 -0.0575,-1.2218 -0.10151,-1.9884 -0.044,-0.7666 -0.0507,-1.5082 -0.015,-2.2281 0.0357,-0.7197 0.1179,-1.4193 0.18866,-1.8574 0.0708,-0.438 0.10882,-0.6239 0.14418,-0.782 0.0353,-0.1579 0.0691,-0.2867 0.0981,-0.3835 0.029,-0.097 0.0494,-0.1579 0.17218,-0.4939 0.1228,-0.3361 0.32783,-0.9127 0.50485,-1.4021 0.17701,-0.4895 0.31341,-0.8965 0.41733,-1.2213 0.10389,-0.3249 0.17657,-0.574 0.41903,-1.6491 0.24245,-1.0751 0.59743,-2.9925 0.64929,-3.2297 0.0519,-0.2371 0.11869,-0.5034 0.19315,-0.7612 0.0745,-0.2579 0.15654,-0.5069 0.24628,-0.7476 0.0898,-0.2407 0.18482,-0.4746 0.57238,-1.3269 0.38756,-0.8523 0.75979,-1.5902 1.114,-2.2192 0.35422,-0.6291 0.69507,-1.1448 1.01264,-1.5523 0.31756,-0.4076 0.67224,-0.7433 0.80998,-0.8935 0.13774,-0.1502 0.45039,-0.2796 0.99181,-0.3765 0.54141,-0.097 1.28938,-0.1603 1.96455,-0.29 0.67517,-0.1298 0.67517,-0.1298 0.23375,-0.1705 0,0 -0.85674,-0.4627 -1.60158,-0.5492 -0.74484,-0.086 -1.35985,-0.064 -1.87666,0.099 -0.51682,0.163 -0.78839,0.4042 -1.21878,0.7444 -0.43039,0.3403 -0.89682,0.8037 -1.36837,1.3741 -0.47152,0.5705 -0.9572,1.2434 -1.45234,2.0234 -0.49515,0.7797 -0.99656,1.6586 -1.14365,1.9362 -0.14709,0.2775 -0.28387,0.565 -0.41148,0.8621 -0.1276,0.297 -0.24594,0.603 -0.35523,0.9182 -0.10926,0.3151 -0.22377,0.7155 -0.49603,2.6674 -0.27225,1.9519 -0.28797,2.0637 -0.33591,2.3059 -0.048,0.2422 -0.12298,0.5838 -0.22064,1.0201 -0.0976,0.4364 -0.21556,0.9664 -0.36395,1.5877 -0.14837,0.6213 -0.1752,0.731 -0.1962,0.8601 -0.021,0.129 -0.037,0.274 -0.0517,0.4394 -0.0146,0.1653 -0.0296,0.3527 -0.0449,0.577 -0.0153,0.2244 -0.0272,0.9869 0.0295,1.7626 0.0567,0.7759 0.17636,1.5514 0.35988,2.3247 0.18351,0.7732 0.44356,1.5401 0.6633,1.9036 0.33343,0.756 0.35534,0.3242 0.46902,0.7167 z"
           id="path197" />
      </g>
      <g
         style="fill:#000000;fill-opacity:1;stroke-linejoin:miter"
         id="g203"
         transform="rotate(90,259.41968,748.93978)">
        <path
           d="m 253.00507,1398.2303 c 0.008,-0.1795 -0.0161,-0.5543 -0.0244,-0.9744 -0.008,-0.4203 -0.004,-0.8869 0.0112,-1.4009 0.015,-0.514 0.0451,-1.0767 0.0595,-1.4147 0.0144,-0.338 0.0263,-0.4217 0.0556,-0.6155 0.0292,-0.1937 0.0741,-0.4796 0.13713,-0.8526 0.063,-0.3731 0.14061,-0.8324 0.205,-1.2254 0.0644,-0.393 0.10797,-0.6512 0.1541,-0.8965 0.0461,-0.2453 0.0884,-0.4783 0.12779,-0.6989 0.0393,-0.2205 0.081,-0.4278 0.13774,-0.9837 0.0568,-0.5559 0.11265,-1.3935 0.16734,-2.1422 0.0547,-0.7486 0.11489,-1.4071 0.16968,-1.9769 0.0548,-0.57 0.11121,-1.0496 0.19247,-1.5674 0.0813,-0.5177 0.17934,-1.0906 0.28434,-1.5967 0.10499,-0.5062 0.22084,-0.9458 0.34716,-1.3218 0.12633,-0.3758 0.29432,-0.6697 0.44002,-0.8439 0.14571,-0.1741 0.14571,-0.1741 0.0486,-0.058 0,0 -0.19427,0.2322 -0.42343,0.514 -0.22916,0.282 -0.47871,0.6314 -0.72851,1.0579 -0.2498,0.4265 -0.49709,0.9289 -0.7392,1.5056 -0.24211,0.5768 -0.39435,1.0051 -0.5555,1.5197 -0.16115,0.5147 -0.32138,1.1175 -0.48625,1.8079 -0.16489,0.6906 -0.32877,1.4697 -0.49017,2.3351 -0.1614,0.8654 -0.1765,1.068 -0.19175,1.2943 -0.0152,0.2263 -0.032,0.4637 -0.0418,0.7134 -0.01,0.2495 -0.0183,0.5106 -0.0273,0.7825 -0.009,0.2719 -0.0251,0.7996 -0.0306,1.244 -0.005,0.4443 -0.005,0.8043 -3e-4,1.082 0.005,0.2777 0.016,0.4791 0.0302,0.5944 0.0143,0.1152 0.0879,0.7163 0.18263,1.2756 0.0947,0.5593 0.2056,1.0658 0.33214,1.5183 0.12656,0.4524 0.26846,0.8496 0.37071,1.0232 0.15007,0.3405 0.23796,0.1348 0.28579,0.3016 z"
           id="path201" />
      </g>
      <g
         style="fill:#000000;fill-opacity:1;stroke-linejoin:miter"
         id="g207"
         transform="rotate(90,259.41968,748.93978)">
        <path
           d="m 251.09747,1456.7112 c -0.0525,-0.072 -0.19387,-0.2608 -0.36209,-0.5547 -0.16821,-0.2938 -0.36755,-0.6888 -0.60206,-1.1829 -0.23452,-0.4939 -0.50328,-1.0877 -0.6895,-1.5014 -0.18622,-0.4136 -0.24379,-0.5856 -0.29016,-0.769 -0.0464,-0.1833 -0.0823,-0.3786 -0.10572,-0.5874 -0.0234,-0.2087 -0.0338,-0.431 -0.0415,-0.5814 -0.008,-0.1502 0.004,-0.068 0.016,-0.1556 0.0124,-0.087 0.0373,-0.2529 0.0746,-0.4849 0.0373,-0.2319 0.0868,-0.5281 0.25775,-1.078 0.17094,-0.5499 0.4919,-1.5328 1.04611,-4.1712 0.55423,-2.6385 1.16362,-4.7394 1.42926,-6.1012 0.26564,-1.362 0.27089,-1.7062 0.25263,-2.0406 -0.0183,-0.3343 -0.0611,-0.6584 -0.12958,-0.9715 -0.0685,-0.3131 -0.16364,-0.6139 -0.25226,-0.8574 -0.0886,-0.2436 -0.45511,-0.7094 -0.82962,-0.9133 -0.37451,-0.2037 -0.77694,-0.3116 -1.24945,-0.3896 -0.47252,-0.078 -1.03269,-0.1338 -2.301,-0.176 -1.26832,-0.042 -2.95425,-0.053 -4.33615,-0.018 -1.38191,0.035 -2.45866,0.1127 -3.22635,0.2033 -0.76767,0.091 -1.22433,0.1383 -1.4147,0.1631 -0.19035,0.025 -0.19035,0.025 -0.0635,0.01 0,0 0.25382,-0.033 0.80878,0.044 0.55495,0.078 1.40681,0.2466 2.55923,0.4619 1.15242,0.2155 2.60715,0.469 4.36258,0.745 1.75545,0.276 2.3061,0.3822 2.75202,0.4878 0.44591,0.1056 0.76075,0.2053 0.91697,0.276 0.15622,0.071 0.10982,0.043 -0.007,-0.097 -0.11667,-0.1397 -0.0454,0.1165 -0.0162,0.2898 0.0292,0.1732 0.0443,0.3618 0.0443,0.5672 -6e-5,0.2054 -0.0163,0.4278 -0.037,0.5962 -0.0207,0.1684 -0.68049,2.3059 -1.09625,4.8159 -0.41577,2.5101 -0.68351,5.1795 -0.87318,6.091 -0.18967,0.9115 -0.21712,1.3632 -0.22629,1.6492 -0.009,0.286 -0.0147,0.5106 -0.0167,0.6782 -0.002,0.1675 -4.4e-4,0.2932 0.009,0.3736 0.01,0.08 0.0567,0.3344 0.12234,0.6082 0.0656,0.2738 0.14673,0.534 0.244,0.7795 0.0973,0.2455 0.21354,0.4747 0.34202,0.6854 0.12847,0.2107 0.55213,0.8127 0.93937,1.3148 0.38722,0.5022 0.73349,0.9054 1.0349,1.2114 0.30141,0.3059 0.55464,0.5166 0.67638,0.5816 0.19881,0.1167 0.20048,-0.052 0.27758,-5e-4 z"
           id="path205" />
      </g>
      <g
         style="fill:#000000;fill-opacity:1;stroke-linejoin:miter"
         id="g211"
         transform="rotate(90,259.41968,748.93978)">
        <path
           d="m 246.67577,1457.9263 c -0.32821,-0.045 -0.93187,-0.068 -1.48165,-0.1377 -0.54976,-0.07 -1.04979,-0.1816 -1.50274,-0.3491 -0.45298,-0.1676 -0.86356,-0.3842 -1.27213,-0.6504 -0.40858,-0.2664 -0.82747,-0.5541 -1.26981,-0.868 -0.44234,-0.3137 -0.90303,-0.6619 -1.38562,-1.0398 -0.48259,-0.3776 -0.98831,-0.7832 -1.26654,-1.0288 -0.27821,-0.2455 -0.36968,-0.3543 -0.46989,-0.4961 -0.1002,-0.1416 -0.20663,-0.3167 -0.31667,-0.5249 -0.11002,-0.2081 -0.22224,-0.4491 -0.33099,-0.7784 -0.10875,-0.3293 -0.22554,-0.8177 -0.30536,-1.3164 -0.0798,-0.4987 -0.12295,-1.0083 -0.1788,-1.5291 -0.0558,-0.5207 -0.0779,-1.0612 -0.0576,-1.4534 0.0203,-0.3922 0.0917,-0.7795 0.16405,-1.1348 0.0723,-0.3555 0.14,-0.6804 0.21603,-0.9702 0.076,-0.2897 0.14497,-0.5482 0.24907,-0.8534 0.10411,-0.3052 0.26755,-0.7345 0.45922,-1.2001 0.19166,-0.4656 0.40805,-0.9689 0.65116,-1.5082 0.24314,-0.5393 0.50457,-1.1191 0.69635,-1.5399 0.19181,-0.4206 0.25667,-0.6149 0.30607,-0.8054 0.0494,-0.1904 0.0829,-0.3773 0.10098,-0.5598 0.0181,-0.1826 0.02,-0.3611 0.003,-0.5435 -0.0173,-0.1824 -0.0462,-0.3485 -0.0819,-0.5022 -0.0357,-0.1537 -0.0791,-0.2959 -0.13191,-0.4272 -0.0528,-0.1314 -0.1171,-0.2525 -0.36389,-0.2039 -0.24678,0.049 -0.24678,0.049 -0.22509,0.087 0,0 -0.38508,0.2913 -0.37175,0.3522 0.0133,0.061 0.0244,0.1415 0.0309,0.2411 0.006,0.1 0.007,0.2174 0.001,0.3469 -0.006,0.1296 -0.0218,0.2214 -0.0485,0.3242 -0.0267,0.1029 -0.0651,0.2138 -0.11631,0.3324 -0.0512,0.1187 -0.11305,0.2461 -0.18042,0.3664 -0.0674,0.1202 -0.43517,0.67 -0.78244,1.2045 -0.34727,0.5347 -0.65971,1.0439 -0.94249,1.5252 -0.28278,0.4814 -0.53074,0.9382 -0.75301,1.3718 -0.22227,0.4337 -0.34915,0.7279 -0.46647,1.0305 -0.11733,0.3028 -0.23171,0.6333 -0.35091,0.9901 -0.1192,0.3569 -0.23591,0.7427 -0.36317,1.2157 -0.12726,0.4731 -0.19341,1.193 -0.22252,1.8448 -0.0291,0.6517 0.0515,1.2899 0.18318,1.9104 0.13167,0.6203 0.30753,1.2229 0.53105,1.8159 0.22354,0.5929 0.424,0.9679 0.59889,1.2515 0.1749,0.2834 0.3548,0.5423 0.54184,0.7772 0.18705,0.2348 0.38335,0.4455 0.60692,0.6419 0.22356,0.1963 0.8244,0.5821 1.3877,0.9329 0.56331,0.351 1.10737,0.6676 1.63031,0.9529 0.52295,0.2854 1.02394,0.5404 1.50488,0.7585 0.48093,0.2182 0.99545,0.4323 1.55609,0.578 0.56066,0.1458 1.14131,0.2022 1.73554,0.1779 0.59422,-0.024 1.19998,-0.1351 1.49841,-0.2732 0.61253,-0.1977 0.27211,-0.2769 0.5862,-0.3364 z"
           id="path209" />
      </g>
      <g
         style="fill:#000000;fill-opacity:1;stroke-linejoin:miter"
         id="g215"
         transform="rotate(90,259.41968,748.93978)">
        <path
           d="m 293.91797,1442.4944 c -1.11767,-1.8645 -3.88097,-5.0592 -3.89243,-5.086 -0.0114,-0.027 -0.0197,-0.054 -0.0206,-0.074 -8.4e-4,-0.019 0.001,-0.034 0.005,-0.05 0.004,-0.016 0.009,-0.03 0.10763,-0.5718 0.0987,-0.5417 0.28414,-1.4283 0.56406,-2.6501 0.27991,-1.2219 0.65388,-2.7745 1.10193,-4.6599 0.44805,-1.8853 0.97793,-4.0896 1.10443,-4.4805 0.12646,-0.3907 0.28555,-0.8644 0.47284,-1.3931 0.18731,-0.5288 0.41144,-1.1086 0.65771,-1.744 0.24627,-0.6353 0.49827,-1.2713 0.90631,-2.2505 0.40806,-0.9791 0.74696,-1.8482 1.02296,-2.5815 0.27596,-0.7333 0.4901,-1.3342 0.64544,-1.8141 0.15536,-0.4799 0.23184,-0.7788 0.36691,-1.2502 0.13507,-0.4716 0.25919,-0.9825 0.37223,-1.51 0.11302,-0.5277 0.21304,-1.0728 0.3031,-1.6353 0.0901,-0.5624 0.16332,-1.1538 0.21859,-1.7761 0.0553,-0.6225 0.0876,-1.2056 0.10533,-1.7537 0.0177,-0.5481 0.0126,-1.0625 -0.0118,-1.5437 -0.0245,-0.4811 -0.069,-0.9314 -0.14642,-1.4057 -0.0774,-0.4744 -0.20179,-1.0852 -0.37483,-1.8421 -0.17306,-0.7569 -0.40316,-1.6618 -0.68868,-2.7165 -0.28552,-1.0547 -0.62722,-2.2538 -0.65885,-2.3796 -0.0316,-0.1257 -0.0563,-0.2373 -0.0715,-0.3144 -0.0152,-0.077 -0.0225,-0.1112 -0.0421,-0.056 -0.0197,0.055 10e-4,0.012 -0.006,0 -0.006,-0.017 -0.005,-0.033 0.0339,-0.086 0.0393,-0.053 0.11583,-0.1295 0.22643,-0.2222 0.11057,-0.093 0.24137,-0.1942 1.35713,-1.0444 1.11577,-0.8501 1.11577,-0.8501 0.29907,-0.4203 0,0 -1.85202,0.4485 -2.03778,0.5392 -0.18572,0.091 -0.34265,0.1808 -0.47907,0.2776 -0.13645,0.097 -0.25528,0.2081 -0.35403,0.3542 -0.0988,0.1461 -0.12632,0.2206 -0.15509,0.3036 -0.0288,0.083 -0.0451,0.2033 -0.0504,0.3161 -0.005,0.1129 -0.006,0.2388 -0.002,0.3864 0.004,0.1476 0.017,0.3502 0.16202,1.537 0.14502,1.1868 0.27244,2.2074 0.37384,3.0656 0.10144,0.8581 0.1767,1.552 0.22156,2.0765 0.0449,0.5245 0.0544,0.871 0.0474,1.2535 -0.007,0.3826 -0.0338,0.8067 -0.0806,1.2705 -0.0467,0.4639 -0.10842,0.9676 -0.19522,1.5093 -0.0868,0.5419 -0.19388,1.1128 -0.30875,1.6293 -0.1149,0.5165 -0.23898,1.0155 -0.37293,1.4916 -0.13397,0.4761 -0.27452,0.9297 -0.42442,1.3601 -0.14992,0.4304 -0.3178,0.8801 -0.4292,1.1918 -0.11146,0.3116 -0.29335,0.7524 -0.5531,1.3416 -0.25978,0.5891 -0.59566,1.3208 -1.00654,2.1914 -0.41089,0.8708 -0.88516,1.9344 -1.13294,2.67 -0.2478,0.7357 -0.46319,1.3938 -0.64192,2.0061 -0.17867,0.6124 -0.34303,1.1725 -0.47398,1.6877 -0.13099,0.5154 -0.24247,1.0378 -0.5918,3.1902 -0.34932,2.1522 -0.6258,3.9679 -0.8266,5.4545 -0.20078,1.4865 -0.34149,2.6428 -0.4184,3.4785 -0.0769,0.8357 -0.0912,1.3506 -0.0806,1.5553 0.0106,0.2048 0.0499,0.4027 0.1182,0.5915 0.0683,0.189 0.16262,0.3638 0.27788,0.5215 0.11527,0.1578 0.26645,0.3197 2.06394,1.5007 3.29266,2.6651 1.89698,1.0809 3.39215,2.565 z"
           id="path213" />
      </g>
    </g>
  </g>
</svg>
