<?xml version="1.0" encoding="UTF-8" standalone="no"?>
<svg
   version="1.1"
   width="135.38521"
   height="135.38521"
   viewBox="0 0 135.38521 135.38521"
   id="svg1214"
   xmlns="http://www.w3.org/2000/svg"
   xmlns:svg="http://www.w3.org/2000/svg">
  <defs
     id="defs1218" />
  <g
     id="g7372"
     transform="translate(-859.81427,-848.95837)">
    <rect
       style="display:inline;opacity:0.5;fill:none;fill-opacity:1;stroke:none;stroke-width:2.66644;stroke-dasharray:none;stroke-opacity:1"
       id="rect5237"
       width="135.38521"
       height="135.38521"
       x="859.81427"
       y="848.95837" />
    <g
       id="g4442"
       transform="translate(4.1131549,1.3186356)">
      <g
         style="fill:#000000;fill-opacity:1;stroke-linejoin:miter"
         id="g847"
         transform="rotate(90,259.41968,748.93978)">
        <path
           d="m 386.95544,129.9851 c 0.55636,-0.0335 1.54541,-0.37972 2.44089,-0.90368 0.89547,-0.52394 1.69263,-1.20986 2.37917,-2.04945 0.68657,-0.8396 1.26558,-1.81951 1.725,-2.89813 0.4594,-1.07862 0.8263,-2.05073 1.05248,-2.89431 0.22619,-0.84358 0.37845,-1.53851 0.48059,-2.08464 0.10217,-0.54612 0.1521,-0.96181 0.17261,-1.51175 0.0205,-0.54995 0.0396,-1.3022 0.0498,-1.95143 0.0102,-0.64922 0.003,-1.19651 -0.0132,-1.64217 -0.0162,-0.44567 -0.0385,-0.79183 -0.0728,-1.18003 -0.0343,-0.38819 -0.0947,-0.89151 -0.17395,-1.35912 -0.0792,-0.4676 -0.1767,-0.89869 -0.29364,-1.29178 -0.11691,-0.39308 -0.22803,-0.75199 -0.28993,-1.01049 -0.0619,-0.2585 -0.0619,-0.2585 -0.0206,-0.0862 0,0 0.0826,0.34466 0.094,0.72796 0.0114,0.3833 -0.009,0.79399 -0.0477,1.2308 -0.0385,0.43681 -0.0924,0.9008 -0.16352,1.39873 -0.0711,0.49791 -0.0964,0.76217 -0.14756,1.11398 -0.0511,0.35181 -0.12857,0.80898 -0.2232,1.37012 -0.0946,0.56115 -0.21122,1.22532 -0.34598,1.99537 -0.1348,0.77007 -0.16834,0.9819 -0.27008,1.33541 -0.10172,0.35352 -0.27274,0.88496 -0.52054,1.57696 -0.2478,0.69201 -0.52662,1.55476 -0.79572,2.58776 -0.2691,1.03299 -0.58724,2.01382 -0.99215,2.88024 -0.40488,0.86642 -0.90825,1.63659 -1.51929,2.32007 -0.61102,0.68347 -1.33783,1.28784 -1.70462,1.6473 -0.85086,0.54679 -0.31584,0.4911 -0.7999,0.67844 z"
           id="path845" />
      </g>
      <g
         style="fill:#000000;fill-opacity:1;stroke-linejoin:miter"
         id="g851"
         transform="rotate(90,259.41968,748.93978)">
        <path
           d="m 391.91364,69.36641 c 0.47259,-0.13015 1.23168,-0.51096 1.84876,-0.87193 0.6171,-0.36098 1.10238,-0.694126 1.4643,-1.00907 0.36195,-0.31493 0.61592,-0.63768 0.73677,-0.85466 0.12085,-0.216985 0.2579,-0.473195 0.39073,-0.76456 0.1328,-0.29137 0.25817,-0.62077 0.3811,-0.98782 0.1229,-0.36705 0.2446,-0.77236 0.33806,-1.100816 0.0934,-0.328457 0.15201,-0.59702 0.20844,-0.895044 0.0564,-0.298022 0.10367,-0.628154 0.151,-0.99084 0.0473,-0.362686 0.0913,-0.759044 0.1305,-1.529236 0.0392,-0.770191 0.068,-1.761174 0.0755,-2.615204 0.008,-0.854034 -0.0709,-1.569553 -0.16325,-2.155933 -0.0924,-0.58638 -0.2001,-1.059067 -0.48326,-1.844311 -0.28317,-0.785246 -0.7605,-1.995243 -1.28146,-3.266731 -0.52098,-1.271492 -1.09948,-2.599645 -1.74982,-3.97905 -0.6503,-1.379402 -1.40241,-2.798605 -1.91583,-3.91986 -0.51343,-1.121258 -0.51343,-1.121258 -0.23017,-0.352158 0,0 0.38954,1.602989 0.73894,3.138428 0.34938,1.535435 0.71517,2.983095 1.07878,4.350281 0.36362,1.367187 0.71039,2.659252 1.03042,3.876327 0.32002,1.217072 0.36366,1.436137 0.40046,1.827257 0.0368,0.39111 0.0596,0.951 0.10454,1.663817 0.045,0.712823 0.11644,1.576083 0.1817,2.58448 0.0653,1.0084 0.0719,1.375828 0.0768,1.735046 0.005,0.359215 5.2e-4,0.680504 -0.0123,0.962799 -0.0129,0.282292 -0.03,0.524773 -0.0574,0.732483 -0.0274,0.207705 -0.0802,0.628555 -0.1431,0.998485 -0.0629,0.36993 -0.13004,0.6963 -0.19803,0.97899 -0.068,0.282695 -0.13641,0.520694 -0.2175,0.73562 -0.0811,0.21494 -0.12427,0.38501 -0.26059,0.601885 -0.13632,0.216875 -0.42215,0.542065 -0.83698,0.958545 -0.41485,0.41646 -0.95147,0.92312 -1.2152,1.2709 -0.65003,0.604265 -0.1857,0.465394 -0.57196,0.72188 z"
           id="path849" />
      </g>
      <g
         style="fill:#000000;fill-opacity:1;stroke-linejoin:miter"
         id="g855"
         transform="rotate(90,259.41968,748.93978)">
        <path
           d="m 442.32635,108.92926 c -5.92459,-1.96184 -18.00607,-4.25797 -17.31975,-3.56757 0.68633,0.6904 0.69002,0.74417 0.69216,0.7597 0.002,0.0155 0.009,-0.002 0.0236,-0.0464 0.0147,-0.0447 0.0115,-0.0384 0.71412,-1.65566 0.70261,-1.61724 1.33216,-3.15296 1.89591,-4.596896 0.56375,-1.443944 1.06109,-2.797124 1.49037,-4.061174 0.4293,-1.26404 0.7834,-2.41542 1.034,-3.27438 0.2506,-0.858965 0.466,-1.76739 0.64912,-2.70452 0.18311,-0.93714 0.33426,-1.90293 0.45374,-2.89736 0.1195,-0.99443 0.20398,-1.975866 0.26812,-2.614965 0.0642,-0.639095 0.1077,-1.300845 0.12744,-1.958045 0.0198,-0.657204 0.0157,-1.30977 -0.0123,-1.95749 -0.0281,-0.64772 -0.0811,-1.30067 -0.2995,-3.31803 -0.21842,-2.017365 -0.43915,-3.81146 -0.66297,-5.385835 -0.22383,-1.574365 -0.46927,-2.929005 -0.72553,-4.071865 -0.25628,-1.14286 -0.49294,-1.96489 -0.58135,-2.516 -0.0884,-0.55111 -0.15259,-1.088618 -0.17525,-1.575823 -0.0227,-0.487207 -0.0152,-0.922654 0.0241,-1.305523 0.0392,-0.38287 0.11644,-0.756501 -0.016,-0.51175 -0.13244,0.244751 -0.40951,0.500561 -0.64319,0.599713 -0.23368,0.09916 -0.33786,0.10796 -0.32281,0.107979 0.015,1.9e-5 0.15593,0.02022 10.27191,1.553414 10.11594,1.53319 11.36835,1.618316 12.47312,1.6692 1.10476,0.05089 2.11056,0.06588 3.01547,0.05647 0.9049,-0.0094 1.70898,-0.05233 2.41147,-0.12072 0.70248,-0.06839 0.90486,-0.13239 1.03012,-0.18969 0.12524,-0.0573 0.18518,-0.10602 0.18481,-0.150346 -3.7e-4,-0.04432 -0.065,-0.09311 -0.14569,-0.131954 -0.0807,-0.03885 -0.0807,-0.03885 -0.0269,-0.01295 0,0 0.10754,0.05179 0.15078,0.0991 0.0432,0.04731 0.0222,0.09013 -0.0669,0.11481 -0.0892,0.02468 -0.24128,0.03314 -0.65677,-0.03525 -0.4155,-0.0684 -1.12998,-0.22125 -1.94123,-0.39095 -0.81125,-0.16969 -1.72073,-0.35317 -2.72897,-0.55522 -1.00821,-0.20204 -2.11536,-0.424572 -7.64466,-1.75333 -5.52932,-1.32876 -15.49932,-3.603195 -15.8225,-3.652844 -0.3232,-0.04965 -0.69132,-0.05542 -1.1196,0.0302 -0.4283,0.08563 -0.90607,0.341187 -1.28073,0.798325 -0.37467,0.457142 -0.50737,0.852886 -0.63013,1.410902 -0.1228,0.55802 -0.19924,1.166315 -0.22778,1.803583 -0.0285,0.637264 -0.008,1.304087 0.0516,2.002247 0.06,0.69817 0.17837,1.50084 0.38134,2.43555 0.20296,0.93471 0.38931,2.06013 0.59576,3.42148 0.20646,1.36135 0.42212,2.95674 0.63727,4.78447 0.21513,1.82772 0.42905,3.8838 0.46576,4.422865 0.0367,0.539065 0.0537,1.089515 0.0504,1.646485 -0.003,0.55697 -0.027,1.120544 -0.0712,1.69091 -0.0442,0.570366 -0.11499,1.20168 -0.20666,2.1475 -0.0917,0.94582 -0.20933,1.83732 -0.35444,2.695304 -0.14511,0.857986 -0.31738,1.682436 -0.5151,2.473916 -0.19773,0.79148 -0.42093,1.589706 -0.74786,2.75112 -0.32694,1.161416 -0.70625,2.417115 -1.14884,3.77564 -0.44263,1.35854 -0.94452,2.820544 -1.50238,4.386547 -0.55786,1.566 -1.18546,3.24607 -1.2522,3.46353 -0.0668,0.21748 -0.10794,0.40224 -0.13544,0.59664 -0.0275,0.1944 -0.0376,0.40259 -0.0205,0.6317 0.0171,0.2291 1.40736,1.66883 7.60882,1.79484 12.2832,1.02802 6.22211,-0.0136 12.30389,0.88837 z"
           id="path853" />
      </g>
      <g
         style="fill:#000000;fill-opacity:1;stroke-linejoin:miter"
         id="g859"
         transform="rotate(90,259.41968,748.93978)">
        <path
           d="m 431.51828,92.24643 c 0.4567,0.23546 1.33142,0.496215 2.10862,0.694305 0.77718,0.198095 1.4561,0.340599 2.03643,0.445129 0.58035,0.104526 1.06573,0.168606 2.79607,0.09336 1.73036,-0.07524 4.69026,-0.29366 5.8047,-0.48967 1.11447,-0.196024 2.25473,-0.45938 3.43777,-0.80097 1.18305,-0.34158 2.40963,-0.75688 3.67939,-1.24604 1.26974,-0.489156 2.59584,-1.04962 3.42084,-1.47225 0.82498,-0.42264 1.56442,-0.87227 2.22598,-1.35417 0.66156,-0.481896 1.24496,-0.99984 1.74847,-1.5587 0.50355,-0.55887 0.87795,-1.10944 1.56567,-2.182916 0.68768,-1.073479 1.27665,-2.112678 1.75022,-3.118204 0.47356,-1.00552 0.81086,-1.985136 1.04303,-2.92662 0.23218,-0.94148 0.3392,-1.76198 0.34149,-2.33862 0.002,-0.57664 -0.2207,-1.241205 -0.60922,-1.75333 -0.38849,-0.51212 -0.86252,-0.87533 -1.38739,-1.14964 -0.52491,-0.2743 -1.13858,-0.49614 -1.76282,-0.64949 -0.62421,-0.15335 -1.33733,-0.29704 -2.17139,-0.44592 -0.83404,-0.14888 -1.79171,-0.303906 -2.87506,-0.4657 -1.08334,-0.16181 -2.29788,-0.32345 -2.62073,-0.351565 -0.32285,-0.0281 -0.66,-0.04514 -1.01727,-0.04506 -0.3573,9e-5 -0.73558,0.0088 -1.1362,0.03093 -0.4006,0.02211 -0.80438,0.0605 -1.31476,0.114604 -0.51037,0.0541 -1.17872,0.177976 -1.99807,0.360716 -0.8194,0.18274 -1.79635,0.43226 -2.93512,0.74886 -1.1388,0.3166 -2.44678,0.70764 -2.68576,0.80345 -0.23899,0.09582 -0.47257,0.20396 -0.73301,0.33317 -0.2604,0.1292 -0.54916,0.27982 -0.8667,0.45351 -0.3175,0.173684 -0.69348,0.38931 -1.69824,1.063035 -1.00476,0.673735 -1.85086,1.248555 -2.54126,1.735001 -0.6904,0.48645 -1.23523,0.867544 -1.57466,1.097198 -0.33946,0.229656 -0.33946,0.229656 -0.0944,0.115656 0,0 0.54653,-0.11067 1.24075,-0.34224 0.69418,-0.23157 1.548,-0.55293 2.55337,-0.976716 1.00538,-0.423784 2.14725,-0.948214 2.48205,-1.072474 0.33482,-0.12426 0.64698,-0.24168 0.92246,-0.33998 0.27549,-0.09829 0.51324,-0.177184 0.71104,-0.23617 0.19778,-0.05898 0.29452,-0.0813 1.55428,-0.29978 1.25977,-0.218474 2.34512,-0.392096 3.24924,-0.52287 0.90412,-0.13078 1.6225,-0.22075 2.14316,-0.25842 0.52066,-0.03766 0.88449,-0.0285 1.26776,-0.02538 0.38324,0.0031 0.72546,0.01116 1.03574,0.03061 0.31027,0.01945 0.58746,0.04689 0.82998,0.08142 0.2425,0.03454 0.44199,0.07539 1.57569,0.31823 1.13369,0.24284 2.13858,0.46541 3.01092,0.67089 0.87238,0.20548 1.61035,0.39329 2.20999,0.560044 0.59964,0.166746 1.00214,0.292496 1.29624,0.43486 0.2941,0.142376 0.46512,0.257016 0.50006,0.292346 0.0349,0.03531 -0.0249,-0.05168 -0.0656,-0.22276 -0.0407,-0.17108 -0.0781,-0.07439 -0.22535,0.603785 -0.14724,0.678185 -0.38467,1.394665 -0.71582,2.192375 -0.33118,0.79771 -0.73868,1.68482 -1.24676,2.65015 -0.50812,0.96532 -1.13278,2.018605 -1.38266,2.39893 -0.24988,0.38033 -0.56786,0.75353 -0.98331,1.138534 -0.4154,0.385006 -0.92743,0.779706 -1.53439,1.182996 -0.60696,0.403285 -1.30319,0.79255 -2.49323,1.388416 -1.19003,0.595874 -2.3414,1.12088 -3.44663,1.578714 -1.10522,0.45783 -2.16555,0.84624 -3.1801,1.17029 -1.01453,0.324055 -1.94617,0.57009 -4.8234,1.11916 -2.87723,0.549064 -3.1583,0.57111 -3.64157,0.57979 -0.48328,0.0087 -1.08429,0.0062 -1.79956,-0.01043 -0.7153,-0.0166 -1.54532,-0.03539 -2.01142,0.03887 -0.94729,-0.0027 -0.4884,0.21368 -0.96957,0.13675 z"
           id="path857" />
      </g>
    </g>
  </g>
</svg>
