<?xml version="1.0" encoding="UTF-8" standalone="no"?>
<svg
   version="1.1"
   width="135.38521"
   height="135.38521"
   viewBox="0 0 135.38521 135.38521"
   id="svg1214"
   xmlns="http://www.w3.org/2000/svg"
   xmlns:svg="http://www.w3.org/2000/svg">
  <defs
     id="defs1218" />
  <g
     id="g7638"
     transform="translate(-554.21576,-989.19946)">
    <rect
       style="display:inline;opacity:0.5;fill:none;fill-opacity:1;stroke:none;stroke-width:2.66644;stroke-dasharray:none;stroke-opacity:1"
       id="rect5265"
       width="135.38521"
       height="135.38521"
       x="554.21576"
       y="989.19946" />
    <g
       id="g5129"
       transform="translate(-19.932417,-0.41368577)">
      <g
         style="fill:#000000;fill-opacity:1;stroke-linejoin:miter"
         id="g1187"
         transform="rotate(90,259.41968,748.93978)">
        <path
           d="m 542.7819,416.55414 c -0.1862,-0.82471 -0.8034,-2.29517 -1.42094,-3.7099 -0.61756,-1.41471 -1.22086,-2.78342 -1.79236,-4.1164 -0.5714,-1.33297 -1.1157,-2.62841 -1.50805,-3.55214 -0.39225,-0.92375 -0.6731,-1.5927 -1.0387,-2.52714 -0.3656,-0.93448 -0.81091,-2.12863 -1.33705,-3.57813 -0.5262,-1.44949 -1.12816,-3.15487 -2.1117,-5.55236 -0.9835,-2.39747 -2.23783,-5.18613 -2.4269,-5.68707 -0.1891,-0.50092 -0.41305,-1.143 -0.6623,-1.90098 -0.2493,-0.75796 -0.5234,-1.62954 -0.8473,-2.60542 -0.324,-0.9759 -0.6791,-2.04 -0.7589,-2.34804 -0.0799,-0.30801 -0.1399,-0.58978 -0.1772,-0.81476 -0.0373,-0.225 -0.0499,-0.3868 -0.0539,-0.4728 -0.004,-0.086 -0.002,-0.10935 0.0195,-0.19983 0.0214,-0.0905 0.0528,-0.16597 0.11706,-0.25934 0.0643,-0.0934 0.1734,-0.20481 0.3342,-0.33328 0.16074,-0.12848 0.12424,-0.15317 1.5817,-0.64625 1.45746,-0.49304 2.7424,-0.953 3.8199,-1.36495 1.07744,-0.41195 1.9509,-0.78122 2.6342,-1.11695 0.6832,-0.33572 1.02637,-0.55716 1.42,-0.73996 0.3936,-0.18284 1.18095,-0.66891 2.32786,-1.44317 1.14694,-0.77427 2.66724,-1.85193 4.55969,-3.24677 1.89245,-1.39487 4.10315,-3.1116 5.83191,-4.31534 1.72874,-1.20373 1.72874,-1.20373 0.46784,-0.59152 0,0 -2.84723,0.6536 -5.19495,1.97409 -2.34765,1.3205 -4.23385,2.40335 -5.6933,3.23027 -1.45945,0.82686 -2.49005,1.38777 -3.04132,1.65657 -0.55123,0.2688 -0.82409,0.33109 -1.31553,0.55841 -0.49154,0.22732 -1.15474,0.47257 -2.05263,0.767 -0.89787,0.29442 -2.02317,0.63165 -3.37183,1.00787 -1.34854,0.37625 -2.99469,0.82335 -3.53484,1.12922 -0.5402,0.30583 -0.9193,0.59393 -1.2535,0.93316 -0.3342,0.33921 -0.6195,0.72641 -0.8381,1.15987 -0.2187,0.4335 -0.34524,0.85637 -0.4065,1.23173 -0.0612,0.37534 -0.0765,0.75487 -0.0532,1.13971 0.0232,0.38486 0.0716,0.78479 0.15118,1.20624 0.0796,0.42142 0.1966,0.91809 0.51286,2.01386 0.31625,1.09579 0.6363,2.06634 0.9482,2.92696 0.3119,0.86063 0.602,1.61716 0.8726,2.2725 0.2707,0.65536 0.545,1.25333 1.9436,3.96643 1.3986,2.71307 2.15555,4.47623 2.8588,6.06451 0.7033,1.58832 1.31286,2.93198 1.8351,4.0308 0.5222,1.09881 0.9598,1.95553 1.2961,2.55081 0.3363,0.59527 0.97927,1.81645 1.6834,3.07998 0.7042,1.26352 1.4595,2.54444 2.27585,3.83689 0.8164,1.29248 1.70385,2.59015 2.28785,3.17361 0.98955,1.28281 0.70604,0.51267 1.1116,1.21201 z"
           id="path1185" />
      </g>
      <g
         style="fill:#000000;fill-opacity:1;stroke-linejoin:miter"
         id="g1191"
         transform="rotate(90,259.41968,748.93978)">
        <path
           d="m 547.33057,353.82693 c -0.11921,-0.10413 -0.38267,-0.28775 -0.65567,-0.501 -0.273,-0.21329 -0.5587,-0.45263 -0.8569,-0.72107 -0.2982,-0.26846 -0.61304,-0.56166 -5.20997,-4.62176 -4.59693,-4.0601 -13.66143,-11.59415 -14.18093,-12.02167 -0.51945,-0.42753 -1.0033,-0.85718 -1.44395,-1.30735 -0.44075,-0.45016 -0.83935,-0.92135 -1.19685,-1.41443 -0.35747,-0.49307 -0.64445,-0.94909 -0.5889,-0.72975 0.0555,0.2193 0.0508,0.21108 0.0683,0.13137 0.0175,-0.0797 0.066,-0.22123 0.1574,-0.40934 0.0913,-0.18811 0.15966,-0.33209 0.71777,-1.08325 0.55813,-0.75118 1.24603,-1.79268 2.05063,-3.09463 0.8046,-1.30195 1.71444,-2.87835 2.7339,-4.72965 1.0195,-1.85126 2.12013,-3.99026 2.2213,-4.19107 0.10116,-0.2008 0.25564,-0.57913 0.4596,-1.12673 0.20394,-0.54762 0.4447,-1.2768 0.5496,-1.9582 0.1049,-0.6814 0.1049,-0.6814 -0.0806,-0.28107 0,0 -0.71763,0.63887 -1.0859,1.23145 -0.36837,0.59259 -0.6381,1.02106 -0.8096,1.26942 -0.17156,0.24837 -0.2706,0.3611 -1.61535,2.22927 -1.34465,1.86816 -2.50435,3.49206 -3.50451,4.85687 -1.00014,1.36481 -1.83964,2.46771 -2.5185,3.29776 -0.67884,0.83002 -1.24627,1.4499 -1.48604,1.80865 -0.23967,0.35877 -0.41557,0.67408 -0.5547,0.99988 -0.1392,0.32577 -0.2335,0.67357 -0.2655,1.05445 -0.0319,0.38089 0.1325,1.09707 0.5208,1.79462 0.3882,0.6975 0.8142,1.33978 1.292,1.95568 0.4777,0.61594 1.00644,1.20482 1.5821,1.7695 0.57565,0.56467 1.22555,1.05554 10.9084,7.79318 9.6829,6.73761 10.076,6.98206 10.45955,7.20331 0.3836,0.22125 0.75341,0.4054 1.10585,0.55591 0.35234,0.15048 0.68785,0.26392 0.8595,0.28762 0.31297,0.0824 0.2259,-0.10665 0.36717,-0.048 z"
           id="path1189" />
      </g>
      <g
         style="fill:#000000;fill-opacity:1;stroke-linejoin:miter"
         id="g1195"
         transform="rotate(90,259.41968,748.93978)">
        <path
           d="m 549.8164,347.79382 c -0.2129,-0.66189 -0.816,-1.76568 -1.40234,-2.74242 -0.58636,-0.97675 -1.1391,-1.83878 -1.65346,-2.5901 -0.5144,-0.7513 -0.9816,-1.4003 -1.23594,-1.7555 -0.25426,-0.35515 -0.37671,-0.56142 -0.48462,-0.7547 -0.10784,-0.19323 -0.20239,-0.3717 -0.28564,-0.53405 -0.0832,-0.16232 -0.1536,-0.30815 -0.3669,-0.8161 -0.2133,-0.50793 -0.5314,-1.35702 -0.77166,-2.14108 -0.24029,-0.78407 -0.40384,-1.5004 -0.53004,-2.14072 -0.12614,-0.64032 -0.2124,-1.21277 -0.2031,-1.67752 0.009,-0.46475 0.1056,-0.97149 0.2549,-1.44643 0.1492,-0.47495 0.34934,-0.92338 0.6091,-1.34608 0.25983,-0.42272 0.575,-0.82757 0.8736,-1.13824 0.2986,-0.3107 0.5304,-0.53358 0.75885,-0.74121 0.22839,-0.20767 0.45345,-0.40027 0.67481,-0.57795 0.22144,-0.17764 0.43684,-0.34422 1.10214,-0.77386 0.6653,-0.42966 1.6793,-1.10474 2.49734,-1.6864 0.818,-0.58166 1.43891,-1.0701 1.87126,-1.44608 0.4324,-0.37598 0.70613,-0.59508 0.81936,-0.70566 0.11324,-0.11056 0.11324,-0.11056 0.0377,-0.0369 0,0 -0.15097,0.14744 -0.5233,0.34448 -0.3723,0.19702 -0.9643,0.43668 -1.7577,0.74994 -0.7934,0.31322 -1.7787,0.71997 -2.9638,1.21899 -1.18503,0.499 -1.4824,0.65083 -1.7566,0.80493 -0.2742,0.15415 -0.5505,0.3252 -0.8305,0.511 -0.27994,0.18575 -0.56363,0.38622 -0.8581,0.6076 -0.29446,0.2214 -0.79416,0.65112 -1.25015,1.1455 -0.45605,0.49442 -0.8418,1.0441 -1.16165,1.6404 -0.31986,0.5963 -0.5666,1.23848 -0.74606,1.9571 -0.17944,0.71864 -0.19617,1.52043 -0.12864,2.3007 0.0674,0.78024 0.2803,1.58526 0.58396,2.41885 0.30364,0.83359 0.68847,1.70008 1.15088,2.59748 0.4624,0.8974 0.57216,1.08889 0.6839,1.26699 0.11176,0.17813 0.23746,0.36268 0.37686,0.555 0.13943,0.19232 0.2914,0.39315 0.474,0.63202 0.18264,0.23883 0.68637,0.7604 1.2388,1.35206 0.5525,0.5916 1.1761,1.28102 1.8794,2.06047 0.70324,0.77943 1.4927,1.64373 2.0082,2.03778 0.90036,0.93183 0.6302,0.31192 1.0151,0.84967 z"
           id="path1193" />
      </g>
      <g
         style="fill:#000000;fill-opacity:1;stroke-linejoin:miter"
         id="g1199"
         transform="rotate(90,259.41968,748.93978)">
        <path
           d="m 548.79047,384.63846 c -0.36877,0.42032 -0.87447,1.3056 -1.28207,2.15214 -0.40763,0.84655 -0.73154,1.6482 -0.9781,2.4036 -0.2466,0.75542 -0.41195,1.4662 -0.5004,1.91902 -0.0884,0.45282 -0.1518,0.84488 -0.2059,1.35733 -0.0542,0.51245 -0.10574,1.1539 -0.15383,1.9288 -0.0481,0.77491 -0.0878,1.68457 -0.10587,2.35993 -0.0182,0.67535 -0.007,1.00582 0.0203,1.33562 0.027,0.32978 0.0698,0.65843 0.1284,0.9859 0.0586,0.3275 0.13276,0.6534 0.3565,1.3623 0.2238,0.70894 0.7399,1.7271 1.2951,2.74934 0.5553,1.02228 1.1877,2.03241 1.89004,3.0336 0.70236,1.00119 1.48226,1.98816 2.12451,2.73081 0.64235,0.74265 1.18795,1.2557 1.84275,1.73218 0.6548,0.47644 1.41665,0.92047 2.2941,1.31951 0.87743,0.39908 1.8709,0.74909 2.63476,1.06653 0.76384,0.31748 0.76384,0.31748 0.27024,0.0753 0,0 -0.94035,-0.57617 -1.7362,-1.18677 -0.7958,-0.61056 -1.48485,-1.17993 -2.06065,-1.72018 -0.57581,-0.54026 -1.04025,-1.04968 -1.39375,-1.54663 -0.3535,-0.49695 -1.02196,-1.53852 -1.62084,-2.55979 -0.59886,-1.02126 -1.13342,-2.02734 -1.5979,-3.02209 -0.46446,-0.99477 -0.86756,-1.97452 -1.22711,-2.94074 -0.35955,-0.96621 -0.43268,-1.16906 -0.50965,-1.40993 -0.077,-0.24088 -0.1422,-0.48432 -0.1959,-0.7309 -0.0537,-0.2466 -0.0957,-0.4964 -0.12575,-0.74302 -0.0302,-0.24658 -0.0907,-1.22618 -0.13471,-2.07415 -0.044,-0.84793 -0.0819,-1.55713 -0.0989,-2.12519 -0.017,-0.56808 -0.0145,-0.99026 -0.002,-1.2821 0.0125,-0.29184 0.0392,-0.9184 0.11635,-1.58881 0.0771,-0.67043 0.20775,-1.4216 0.38744,-2.25378 0.17962,-0.83219 0.40636,-1.74588 0.44806,-2.26593 0.2506,-1.00608 -0.088,-0.57584 0.12097,-1.06186 z"
           id="path1197" />
      </g>
      <g
         style="fill:#000000;fill-opacity:1;stroke-linejoin:miter"
         id="g1203"
         transform="rotate(90,259.41968,748.93978)">
        <path
           d="m 598.4134,412.08264 c -0.28144,-0.32937 -0.97083,-1.09564 -1.76454,-2.19574 -0.7937,-1.10013 -1.70026,-2.5444 -2.72509,-4.33716 -1.02487,-1.79278 -2.17267,-3.93432 -3.16227,-6.12606 -0.98965,-2.19175 -1.70144,-4.12858 -2.2522,-5.80793 -0.5508,-1.67935 -0.92983,-3.09795 -1.1543,-4.23422 -0.2245,-1.13623 -0.2824,-1.96743 -0.2614,-2.76068 0.021,-0.79325 0.0626,-1.5545 0.14663,-2.26105 0.084,-0.70654 0.19941,-1.35965 0.35577,-1.95794 0.1564,-0.59833 0.34657,-1.14374 0.5335,-1.71442 0.1869,-0.57071 0.3713,-1.04774 0.83766,-2.01328 0.46637,-0.96554 1.17359,-2.35226 2.13001,-4.1293 0.95643,-1.77706 2.15983,-3.93823 2.97058,-5.41736 0.81075,-1.47915 0.97905,-1.90265 1.11665,-2.33502 0.13756,-0.4324 0.2367,-0.8743 0.3052,-1.32138 0.0686,-0.44708 0.10354,-0.8984 0.1193,-1.51328 0.0157,-0.61482 -0.0354,-1.60177 -0.1996,-2.70792 -0.16424,-1.10613 -0.43555,-2.34728 -0.8114,-3.73482 -0.3758,-1.38752 -0.85675,-2.92643 -1.2352,-4.00562 -0.37857,-1.07916 -0.64676,-1.64059 -1.0387,-2.39362 -0.392,-0.75299 -0.91354,-1.71298 -1.5679,-2.88577 -0.6544,-1.17279 -1.45373,-2.55437 -1.9326,-3.4541 -0.47896,-0.89972 -0.62306,-1.3819 -0.7263,-1.78519 -0.1032,-0.40332 -0.1619,-0.7225 -0.1841,-0.94258 -0.0222,-0.2201 -0.0239,-0.32094 0.2824,-1.00956 0.30633,-0.68864 1.05914,-2.0398 1.94635,-3.24104 0.8872,-1.20123 1.91479,-2.2634 3.09179,-3.20528 1.177,-0.9419 2.50786,-1.79599 3.63096,-2.29084 1.1231,-0.49484 1.1231,-0.49484 0.3509,-0.22314 0,0 -1.61473,0.36886 -3.1374,0.93776 -1.5227,0.56892 -2.91465,1.3967 -4.16465,2.4585 -1.25,1.0618 -2.35385,2.34138 -3.30125,3.81727 -0.94734,1.47589 -1.11635,1.99113 -1.15566,2.39863 -0.0393,0.40752 -0.0211,0.83694 0.034,1.31023 0.055,0.47327 0.1488,0.99917 0.3139,1.68033 0.1651,0.68114 0.9589,2.33154 1.6,3.68544 0.6412,1.35387 1.16805,2.4749 1.57216,3.36348 0.40418,0.88855 0.68284,1.53799 0.81924,1.89514 0.1364,0.35718 0.5789,1.95676 0.92576,3.38568 0.34684,1.42896 0.6029,2.67258 0.76544,3.7242 0.16254,1.05156 0.2264,1.90108 0.2107,2.5739 -0.0157,0.67285 -0.0418,0.98694 -0.0794,1.24884 -0.0376,0.2619 -0.0926,0.51828 -0.16395,0.77142 -0.0713,0.25318 -0.15805,0.50514 -0.23829,0.70514 -0.0803,0.19998 -1.44646,2.6134 -2.5852,4.67853 -1.13866,2.06509 -2.03796,3.76172 -2.69263,5.10547 -0.65466,1.34375 -1.07793,2.35858 -1.2536,2.98315 -0.17563,0.62458 -0.37463,1.17095 -0.58663,1.9429 -0.212,0.77195 -0.36,1.5813 -0.4565,2.42463 -0.0965,0.84332 -0.13546,1.72195 -0.1244,2.61276 0.011,0.89084 0.0274,1.82883 0.24553,3.04456 0.21817,1.2157 0.61567,2.60378 1.19747,4.1887 0.5817,1.58498 1.3453,3.37758 2.3043,5.415 0.959,2.0374 2.45215,4.37945 3.8026,6.31847 1.3505,1.93906 2.59255,3.51553 3.72707,4.72388 1.13443,1.20838 2.1546,2.04475 2.66663,2.27942 0.8809,0.45245 0.58386,0.11307 0.9527,0.33087 z"
           id="path1201" />
      </g>
      <g
         style="fill:#000000;fill-opacity:1;stroke-linejoin:miter"
         id="g1207"
         transform="rotate(90,259.41968,748.93978)">
        <path
           d="m 596.79834,401.5315 c 0.64736,0.004 1.77972,-0.25074 2.76296,-0.6123 0.98313,-0.36155 1.8274,-0.80476 2.52757,-1.33943 0.70019,-0.5347 1.25018,-1.16317 1.79809,-1.98857 0.54798,-0.8254 1.1911,-1.89985 1.72534,-3.01317 0.5343,-1.11331 0.9723,-2.25763 1.30835,-3.43283 0.33605,-1.17523 0.56875,-2.37942 0.66935,-3.3922 0.1007,-1.01283 0.1271,-1.74272 0.13296,-2.45667 0.006,-0.71399 -0.003,-1.41239 -0.0391,-2.09455 -0.0357,-0.68218 -0.0936,-1.34818 -0.2544,-2.35758 -0.1607,-1.0094 -0.43734,-2.3619 -0.76524,-3.86514 -0.32796,-1.5032 -0.712,-3.15676 -1.1556,-4.9602 -0.4436,-1.80341 -0.9456,-3.7572 -1.4318,-5.62666 -0.48616,-1.8694 -0.86666,-3.69445 -1.1126,-5.408 -0.246,-1.71354 -0.4481,-2.66233 -0.6395,-3.58015 -0.19134,-0.91785 -0.3903,-1.88211 -0.5935,-2.89319 -0.20325,-1.01106 -0.41064,-2.06896 -0.6334,-3.1925 -0.22286,-1.12356 -1.3669,-5.99332 -2.04384,-8.92392 -0.67701,-2.9306 -0.82616,-3.91678 -0.95221,-4.72397 -0.12605,-0.80722 -0.22669,-1.43509 -0.2931,-1.88135 -0.0664,-0.44626 -0.0949,-0.7008 -0.11015,-0.8414 -0.0152,-0.14059 -0.0294,-0.23645 -0.0305,-0.52002 -10e-4,-0.28357 0.0113,-0.71917 0.0333,-1.29965 0.022,-0.58045 0.0453,-1.30572 0.13867,-1.90655 0.0933,-0.6008 0.0933,-0.6008 0.013,-0.20386 0,0 -0.21463,0.78308 -0.44443,1.42303 -0.22987,0.63996 -0.39627,1.1536 -0.50697,1.54263 -0.11077,0.38904 -0.16796,0.66273 -0.1728,0.8021 -0.005,0.1394 -0.034,0.2741 -0.06,0.63513 -0.0259,0.36103 -0.0485,0.89127 -0.0559,1.59809 -0.007,0.70681 -0.01,1.59228 0.0166,2.69408 0.0261,1.10178 0.7009,6.0698 1.12526,9.0858 0.42444,3.01598 0.55579,4.12618 0.69384,5.1893 0.13813,1.0631 0.27534,2.08047 0.4116,3.05212 0.13626,0.97168 0.27835,1.89658 0.418,3.15398 0.13965,1.2574 0.3022,3.0581 0.6273,5.02906 0.3251,1.97098 0.8715,4.09717 1.42336,5.96192 0.55184,1.86472 1.04854,3.57582 1.48724,5.13378 0.4387,1.55796 0.829,2.95997 1.14563,4.19272 0.31667,1.23276 0.41071,1.73902 0.48981,2.34217 0.0791,0.60315 0.14796,1.22705 0.2019,1.87222 0.0539,0.64513 0.0927,1.31161 0.11416,1.96979 0.0213,0.6582 -0.0351,1.72874 -0.17837,2.79348 -0.14337,1.06476 -0.36953,2.12293 -0.68793,3.17481 -0.3184,1.05188 -0.73046,2.09793 -1.23455,3.15615 -0.50409,1.05827 -0.76801,1.6292 -1.15369,2.13297 -0.38576,0.50379 -0.93103,1.01683 -1.64756,1.52703 -0.71664,0.51023 -1.60103,1.0211 -2.06386,1.37822 -1.04529,0.53851 -0.42084,0.49185 -1.0033,0.67328 z"
           id="path1205" />
      </g>
    </g>
  </g>
</svg>
