<?xml version="1.0" encoding="UTF-8" standalone="no"?>
<svg
   version="1.1"
   width="135.38521"
   height="135.38521"
   viewBox="0 0 135.38521 135.38521"
   id="svg1214"
   xmlns="http://www.w3.org/2000/svg"
   xmlns:svg="http://www.w3.org/2000/svg">
  <defs
     id="defs1218" />
  <g
     id="g7558"
     transform="translate(-554.21576,-568.47607)">
    <rect
       style="display:inline;opacity:0.5;fill:none;fill-opacity:1;stroke:none;stroke-width:2.66644;stroke-dasharray:none;stroke-opacity:1"
       id="rect5271"
       width="135.38521"
       height="135.38521"
       x="554.21576"
       y="568.47607" />
    <g
       id="g4530"
       transform="translate(-18.851592)">
      <g
         style="fill:#000000;fill-opacity:1;stroke-linejoin:miter"
         id="g983"
         transform="rotate(90,259.41968,748.93978)">
        <path
           d="m 105.624,387.05304 c 0.59859,0.18736 1.68282,0.46136 2.60626,0.87876 0.92342,0.41738 1.70315,0.99886 2.367,1.7516 0.66386,0.7528 1.22435,1.69343 1.4789,2.31977 0.25456,0.62635 0.3191,0.96555 0.37313,1.36127 0.054,0.39572 0.0963,0.84646 0.12586,1.35086 0.0296,0.5044 0.046,1.0616 0.0316,2.28784 -0.0144,1.22626 -0.0422,2.98764 -0.0663,4.54766 -0.0241,1.56004 -0.0551,2.91847 -0.0826,4.07414 -0.0275,1.15566 -0.0514,2.10718 -0.0403,2.64529 0.0111,0.53812 0.0376,0.87327 0.0882,1.36267 0.0506,0.4894 0.12555,1.14862 0.22514,1.98252 0.0996,0.83388 0.22388,1.84381 0.3365,2.69861 0.11262,0.85482 0.23907,1.50793 0.43296,2.1698 0.19389,0.66189 0.46257,1.33053 0.79235,2.01147 0.32978,0.6809 0.72002,1.37643 1.53225,2.49634 0.81222,1.11986 2.01841,2.4686 3.30988,3.59376 1.29146,1.12514 2.66214,2.01873 4.10592,2.65862 1.44379,0.63986 2.94841,1.0043 4.06685,1.23941 1.11844,0.23511 1.11844,0.23511 0.39109,0.0247 0,0 -1.39987,-0.58164 -2.66732,-1.3598 -1.26745,-0.7782 -2.43912,-1.68854 -3.53256,-2.74732 -1.09345,-1.05874 -2.10752,-2.28769 -3.05044,-3.69501 -0.94292,-1.40735 -1.2385,-2.01693 -1.50686,-2.639 -0.26836,-0.62207 -0.4769,-1.20331 -0.62263,-1.74355 -0.14573,-0.5403 -0.23447,-1.03676 -0.26846,-1.5195 -0.034,-0.48277 -0.0908,-1.61742 -0.14349,-2.5673 -0.0527,-0.94993 -0.0922,-1.71915 -0.11837,-2.3054 -0.0262,-0.58624 -0.0387,-0.9839 -0.038,-1.16842 7.1e-4,-0.18451 0.0282,-1.01715 -0.01,-2.05902 -0.0377,-1.04184 -0.0853,-2.27939 -0.16581,-3.71378 -0.0806,-1.43438 -0.17441,-3.06662 -0.301,-4.90176 -0.12661,-1.83515 -0.1982,-2.48868 -0.27871,-3.06934 -0.0805,-0.58068 -0.17139,-1.11423 -0.27336,-1.60174 -0.10196,-0.48754 -0.21588,-0.93027 -0.37077,-1.39591 -0.15488,-0.46563 -0.87947,-1.6503 -1.73395,-2.60876 -0.85448,-0.95847 -1.83208,-1.66977 -2.91463,-2.11463 -1.08256,-0.44484 -2.24783,-0.61752 -2.85862,-0.50668 -1.22239,0.12061 -0.60855,0.25204 -1.22015,0.26178 z"
           id="path981" />
      </g>
      <g
         style="fill:#000000;fill-opacity:1;stroke-linejoin:miter"
         id="g987"
         transform="rotate(90,259.41968,748.93978)">
        <path
           d="m 101.87013,358.04443 c 0.62586,0.16587 1.77015,0.19327 2.77394,0.0682 1.00378,-0.125 1.87329,-0.37877 2.60392,-0.7807 0.73063,-0.40192 1.30468,-0.96237 1.64627,-1.53275 0.3416,-0.57037 0.51817,-1.03502 0.64679,-1.51187 0.12861,-0.47683 0.21075,-0.9645 0.23875,-1.46148 0.028,-0.49697 3.7e-4,-1.00025 -0.074,-1.54667 -0.0744,-0.5464 -0.18973,-1.17626 -0.34132,-1.83993 -0.1516,-0.66367 -0.33915,-1.36167 -0.56613,-2.09307 -0.22697,-0.73145 -0.49294,-1.49653 -0.6445,-1.98164 -0.15156,-0.48506 -0.21772,-0.8201 -0.27091,-1.11432 -0.0532,-0.29419 -0.0898,-0.54654 -0.10897,-0.75324 -0.0192,-0.20666 -0.0212,-0.36236 -0.0119,-0.78094 0.009,-0.41856 0.0521,-1.09096 0.13101,-1.75066 0.0789,-0.65967 0.18847,-1.30808 0.34028,-1.9444 0.15181,-0.6363 0.33907,-1.26212 0.95202,-2.9541 0.61294,-1.69196 1.58812,-4.2393 2.38043,-6.28473 0.79231,-2.04547 1.40827,-3.58332 1.84062,-4.60279 0.43235,-1.0195 0.66375,-1.46121 1.02706,-1.98668 0.3633,-0.52552 1.00117,-1.37803 1.75567,-2.24516 0.75451,-0.86714 1.63118,-1.74464 2.61277,-2.65794 0.98159,-0.91326 2.06514,-1.87526 2.98332,-2.53676 0.91817,-0.6615 0.91817,-0.6615 0.27585,-0.26798 0,0 -1.37524,0.64457 -2.65374,1.30429 -1.27851,0.65973 -2.42443,1.38739 -3.44029,2.17142 -1.01584,0.78406 -1.91095,1.6102 -2.66775,2.45209 -0.75681,0.84192 -0.99852,1.08139 -1.45193,1.82739 -0.45341,0.746 -1.08905,1.93262 -1.92316,3.60092 -0.8341,1.66831 -1.86707,3.82453 -3.09874,6.48743 -1.23168,2.6629 -1.51066,3.51044 -1.67478,4.27634 -0.16413,0.76586 -0.27143,1.54116 -0.34512,2.32086 -0.0737,0.77966 -0.0931,1.56595 -0.0722,2.34637 0.0208,0.78043 0.038,1.04023 0.0785,1.32849 0.0404,0.28824 0.097,0.59409 0.17152,0.92279 0.0746,0.32875 0.16691,0.68308 0.29848,1.12037 0.13156,0.43731 0.49191,1.22368 0.78452,1.90728 0.29261,0.68363 0.55325,1.32822 0.77492,1.93622 0.22167,0.608 0.40456,1.17893 0.54948,1.71442 0.14492,0.53546 0.22889,0.9082 0.27316,1.26159 0.0443,0.35343 0.058,0.70633 0.0309,1.06144 -0.0271,0.3551 -0.0905,0.71483 -0.18163,1.05373 -0.0912,0.33894 -0.30279,0.77427 -0.66262,1.1591 -0.35984,0.38482 -0.90322,0.74807 -1.64579,1.07083 -0.74257,0.32272 -1.68195,0.60263 -2.20742,0.83387 -1.13422,0.26134 -0.51851,0.3722 -1.12725,0.40233 z"
           id="path985" />
      </g>
      <g
         style="fill:#000000;fill-opacity:1;stroke-linejoin:miter"
         id="g991"
         transform="rotate(90,259.41968,748.93978)">
        <path
           d="m 142.83008,419.37256 c -0.25997,-0.42981 -0.85978,-1.13476 -1.4176,-1.79578 -0.55785,-0.66098 -1.07068,-1.28305 -1.52649,-1.87866 -0.4558,-0.59564 -0.8608,-1.15909 -1.18998,-1.72362 -0.32917,-0.56453 -0.63714,-1.1735 -0.89177,-1.74733 -0.25462,-0.57382 -0.45985,-1.10907 -0.61985,-1.60281 -0.16002,-0.49376 -0.27099,-0.94644 -0.33655,-1.33603 -0.0656,-0.38956 -0.10376,-0.74293 -0.12332,-1.10243 -0.0196,-0.35945 -0.0205,-0.72536 -0.003,-1.098 0.0173,-0.3727 -0.004,-0.75572 0.006,-1.07343 0.0103,-0.31769 0.0166,-0.5366 0.0233,-0.74977 0.007,-0.21313 0.0147,-0.42052 0.0238,-0.62206 0.009,-0.20154 0.0195,-0.39728 0.0423,-0.65027 0.0228,-0.25302 0.0669,-0.73107 0.11306,-1.35471 0.0462,-0.62362 0.0935,-1.39663 0.13832,-2.32128 0.0448,-0.92466 0.0872,-2.00153 0.10346,-2.72306 0.0162,-0.72155 0.0186,-0.95916 0.016,-1.1831 -0.003,-0.22394 -0.009,-0.43415 -0.0167,-0.63042 -0.008,-0.1963 -0.0163,-0.37874 -0.0507,-0.81972 -0.0343,-0.44101 -0.0922,-1.06828 -0.14949,-1.59985 -0.0573,-0.53159 -0.10787,-0.96743 -0.14389,-1.30743 -0.036,-0.33997 -0.0589,-0.58396 -0.0677,-0.7138 -0.009,-0.12986 -0.0114,-0.2105 -0.007,-0.29948 0.004,-0.089 0.0206,-0.1843 0.0543,-0.28299 0.0336,-0.0987 0.0747,-0.20313 0.10934,-0.28436 0.0346,-0.0813 0.0346,-0.0813 0.0115,-0.0271 0,0 -0.0461,0.10833 -0.0848,0.21087 -0.0386,0.10254 -0.0697,0.19928 -0.10556,0.2876 -0.0358,0.0883 -0.0663,0.17226 -0.0882,0.25159 -0.0219,0.0793 -0.0706,0.25735 -0.13168,0.53311 -0.0611,0.27576 -0.13138,0.64766 -0.20947,1.11576 -0.0781,0.4681 -0.1611,1.03243 -0.23816,1.6909 -0.0771,0.65852 -0.10074,0.81 -0.12836,0.98878 -0.0276,0.17877 -0.0587,0.37164 -0.0914,0.57868 -0.0326,0.20706 -0.0672,0.42822 -0.10052,0.65674 -0.0333,0.2285 -0.24599,1.3835 -0.42148,2.39 -0.17549,1.00648 -0.32127,1.86097 -0.444,2.56172 -0.12274,0.70078 -0.22604,1.24542 -0.30835,1.64598 -0.0823,0.40055 -0.11893,0.63856 -0.15018,0.84623 -0.0313,0.20767 -0.0617,0.42081 -0.0914,0.63944 -0.0297,0.21866 -0.0586,0.44278 -0.0844,0.6709 -0.0258,0.22809 -0.076,0.67373 -0.0964,1.13495 -0.0205,0.46118 0.0109,0.91616 0.0647,1.36278 0.0537,0.44666 0.12986,0.8847 0.22908,1.31696 0.0992,0.43222 0.25525,0.96106 0.46721,1.51477 0.21195,0.55375 0.4758,1.12244 0.79752,1.70457 0.32171,0.58212 0.68985,1.18432 1.12489,1.81625 0.43504,0.63189 0.92996,1.19412 1.46672,1.72998 0.53678,0.53589 1.13638,1.07157 1.79765,1.60791 0.66127,0.53636 1.38982,1.0672 1.83193,1.26724 0.80621,0.51114 0.5338,0.0927 0.89792,0.40378 z"
           id="path989" />
      </g>
      <g
         style="fill:#000000;fill-opacity:1;stroke-linejoin:miter"
         id="g995"
         transform="rotate(90,259.41968,748.93978)">
        <path
           d="m 152.67169,416.45892 c -0.73895,-2.25027 -2.90835,-6.31765 -3.05577,-6.55447 -0.14742,-0.23682 -0.30281,-0.47315 -0.47308,-0.71481 -0.17028,-0.24164 -0.35866,-0.48614 -0.56175,-0.73639 -0.20311,-0.25022 -0.45685,-0.54239 -4.55192,-4.27605 -4.09506,-3.73372 -5.18324,-4.42012 -6.10629,-4.98897 -0.92305,-0.56881 -1.75679,-1.08183 -2.50953,-1.52983 -0.75275,-0.44807 -1.41706,-0.84288 -1.86046,-1.127 -0.44341,-0.28412 -0.44341,-0.28412 -0.17765,-0.0589 0,0 0.44197,0.55802 0.99643,1.15393 0.55445,0.59592 1.20708,1.24374 1.96128,1.93677 0.75419,0.693 1.61082,1.42853 3.91195,3.80337 2.30114,2.37486 6.33661,6.14875 6.53174,6.33897 0.19512,0.19021 0.3916,0.39166 0.57303,0.58471 0.18144,0.19309 0.34827,0.37742 0.49793,0.55482 0.14967,0.17736 0.27072,0.33468 1.87579,2.03918 2.8288,3.64984 1.72459,1.6293 2.9483,3.57464 z"
           id="path993" />
      </g>
      <g
         style="fill:#000000;fill-opacity:1;stroke-linejoin:miter"
         id="g999"
         transform="rotate(90,259.41968,748.93978)">
        <path
           d="m 146.04263,334.90192 c -0.14744,0.13452 -0.45221,0.48431 -0.84335,0.91583 -0.39116,0.43152 -0.86362,0.94995 -1.41882,1.5556 -0.55519,0.60562 -1.19561,1.297 -1.65032,1.78552 -0.45471,0.48853 -0.78172,0.79651 -1.28151,1.23005 -0.49978,0.43353 -1.16221,0.99096 -1.98747,1.66696 -0.82526,0.67599 -1.80728,1.47549 -2.45726,2.01212 -0.65,0.53658 -0.80179,0.68313 -0.94333,0.82934 -0.14152,0.14624 -0.27297,0.29286 -0.39435,0.44086 -0.1214,0.14804 -0.23272,0.2986 -0.36038,0.5347 -0.12764,0.23608 -0.30603,0.57806 -0.491,0.9542 -0.18496,0.3761 -0.37354,0.78893 -0.56897,1.23775 -0.19543,0.44882 -0.39799,0.93402 -0.72412,1.90979 -0.32614,0.97576 -0.74199,2.31064 -1.16639,3.62376 -0.42441,1.3131 -0.85955,2.60454 -1.28273,3.88643 -0.42318,1.28189 -0.82808,2.56024 -1.2123,3.47337 -0.38422,0.91314 -0.38422,0.91314 -0.0865,0.325 0,0 0.71995,-1.11447 1.45868,-2.24853 0.73872,-1.13407 1.41934,-2.32379 2.05777,-3.55884 0.63844,-1.23508 1.24275,-2.51043 1.80886,-3.80835 0.56612,-1.29794 0.79583,-1.70621 1.03104,-2.13754 0.2352,-0.43134 0.4572,-0.8234 0.66557,-1.1756 0.20838,-0.3522 0.39739,-0.66681 0.58533,-0.93558 0.18795,-0.2688 0.23134,-0.34994 0.28472,-0.43768 0.0534,-0.0877 0.12043,-0.18622 0.20121,-0.29428 0.0808,-0.10806 0.1751,-0.2248 0.26175,-0.32944 0.0867,-0.10464 1.08344,-1.08551 1.94191,-1.9444 0.85849,-0.85886 1.56029,-1.59832 2.12068,-2.20471 0.5604,-0.60638 0.97475,-1.09015 1.25367,-1.44971 0.27891,-0.35952 0.85183,-1.2221 1.34041,-1.99414 0.48857,-0.77206 0.88937,-1.45788 1.2081,-2.05255 0.31872,-0.59463 0.55206,-1.09918 0.61552,-1.33618 0.157,-0.40515 -0.0599,-0.3056 0.0336,-0.47375 z"
           id="path997" />
      </g>
      <g
         style="fill:#000000;fill-opacity:1;stroke-linejoin:miter"
         id="g1003"
         transform="rotate(90,259.41968,748.93978)">
        <path
           d="m 138.98354,328.87384 c -0.43535,0.024 -1.23705,0.25513 -2.00784,0.57456 -0.7708,0.31942 -1.50831,0.72125 -2.21462,1.19473 -0.7063,0.47345 -1.37758,1.01941 -1.88761,1.51593 -0.51004,0.49649 -0.85969,0.89071 -1.19842,1.31164 -0.33872,0.4209 -0.67214,0.86417 -0.99725,1.3318 -0.32514,0.4676 -0.63897,0.96102 -0.85523,1.3329 -0.21625,0.3719 -0.33324,0.63056 -0.45017,0.93345 -0.11694,0.30292 -0.23948,0.65899 -0.37032,1.07335 -0.13086,0.4144 -0.27097,0.8892 -0.43898,1.55082 -0.16802,0.66162 -0.33292,1.38944 -0.39376,2.06565 -0.0608,0.67617 -0.12088,1.28333 -0.1553,1.82721 -0.0344,0.54388 -0.0472,1.02624 -0.0295,1.55829 0.0177,0.53201 0.0527,1.16473 0.12109,1.8247 0.0684,0.66001 0.15431,1.3479 0.26935,2.06317 0.11504,0.71526 0.25127,1.45866 0.43448,2.22849 0.18321,0.76983 0.46744,1.50667 0.85905,2.18753 0.39162,0.68088 0.8873,1.30109 1.48841,1.85107 0.6011,0.54999 1.29944,1.03012 1.82042,1.4177 0.52096,0.38757 0.52096,0.38757 0.18777,0.11319 0,0 -0.62404,-0.59677 -1.09285,-1.25269 -0.46881,-0.65591 -0.83835,-1.30408 -1.11824,-1.94583 -0.27988,-0.64175 -0.46292,-1.2877 -0.56422,-1.9459 -0.10131,-0.65816 -0.1348,-1.3964 -0.16533,-2.11648 -0.0305,-0.72009 -0.0442,-1.405 -0.0469,-2.05412 -0.003,-0.6491 0.0131,-1.26268 0.0399,-1.83836 0.0268,-0.57569 0.0611,-0.93244 0.12228,-1.3685 0.0612,-0.43607 0.15015,-0.94614 0.2632,-1.52832 0.11305,-0.58219 0.2934,-1.22788 0.39681,-1.95542 0.10342,-0.72754 0.18902,-1.20852 0.2744,-1.64404 0.0854,-0.43552 0.16491,-0.80109 0.23707,-1.09332 0.0722,-0.29227 0.13411,-0.50614 0.17697,-0.63019 0.0429,-0.12405 0.2795,-0.61825 0.52447,-1.09168 0.24497,-0.47345 0.49053,-0.92923 0.7476,-1.36077 0.25705,-0.4316 0.52226,-0.8411 0.78195,-1.22205 0.2597,-0.38098 0.76445,-0.98865 1.30208,-1.55512 0.53762,-0.56646 1.11044,-1.09195 1.72355,-1.57519 0.6131,-0.48328 1.26221,-0.93848 1.57373,-1.21864 0.69292,-0.4279 0.26052,-0.4118 0.64193,-0.55956 z"
           id="path1001" />
      </g>
      <g
         style="fill:#000000;fill-opacity:1;stroke-linejoin:miter"
         id="g1007"
         transform="rotate(90,259.41968,748.93978)">
        <path
           d="m 184.62611,399.81018 c -0.39497,-0.2363 -1.22824,-0.59278 -2.08031,-0.98874 -0.85204,-0.39596 -1.72569,-0.83722 -2.62164,-1.332 -0.89595,-0.49474 -1.81428,-1.04706 -2.41871,-1.46534 -0.60443,-0.4183 -0.90464,-0.73864 -1.15763,-1.09264 -0.25299,-0.35401 -0.46167,-0.74851 -0.62558,-1.19159 -0.16391,-0.44312 -0.28245,-0.93887 -0.335,-1.37487 -0.0526,-0.436 -0.0732,-0.80653 -0.0817,-1.118 -0.008,-0.31142 -0.008,-0.56 0.002,-0.737 0.01,-0.17696 0.0271,-0.26717 0.20243,-1.05474 0.17535,-0.78756 0.46157,-2.08053 0.68969,-3.07739 0.22811,-0.99689 0.4021,-1.69097 0.50037,-2.04395 0.0983,-0.35292 -0.3255,0.25254 -0.0224,-0.20349 0.30315,-0.45599 0.45833,-0.73428 0.71874,-1.09466 0.26039,-0.36037 0.62215,-0.79297 1.0907,-1.2826 0.46853,-0.48962 1.04466,-1.02835 1.60515,-1.66101 0.56048,-0.63269 0.67326,-0.86221 0.76873,-1.09979 0.0955,-0.23757 0.16915,-0.4884 0.21718,-0.75723 0.048,-0.26884 0.0636,-0.55896 0.0454,-0.82994 -0.0182,-0.27095 -0.0899,-0.61837 -0.2,-0.92998 -0.11014,-0.31165 -0.24558,-0.60809 -0.4065,-0.90369 -0.16092,-0.29559 -0.34901,-0.59649 -1.05775,-1.47876 -0.70875,-0.88229 -1.72864,-2.04657 -2.54718,-3.00617 -0.81856,-0.95956 -1.43672,-1.70748 -1.84061,-2.23134 -0.40388,-0.52386 -0.57014,-0.76581 -0.90279,-1.32541 -0.33264,-0.5596 -0.78015,-1.31461 -1.12715,-1.98041 -0.34698,-0.66584 -0.59398,-1.23636 -0.74829,-1.69861 -0.15431,-0.46223 -0.22291,-0.80356 -0.23538,-1.07825 -0.0125,-0.27468 0.0216,-0.59185 0.14145,-1.0989 0.11986,-0.50705 0.32353,-1.17701 0.61465,-1.99318 0.29114,-0.81615 0.6615,-1.77602 1.22049,-2.85012 0.55898,-1.07412 1.27296,-2.2398 1.86255,-3.26141 0.58957,-1.02157 1.05406,-1.89984 1.40717,-2.62793 0.35309,-0.72812 0.5897,-1.31311 0.70199,-1.70416 0.11231,-0.39102 0.13753,-0.62546 0.13975,-0.84412 0.002,-0.21869 -0.021,-0.42156 -0.0692,-0.60773 -0.0482,-0.18613 -0.12329,-0.35357 -0.18625,-0.46966 -0.063,-0.11607 -0.17166,-0.29282 -0.33099,-0.47657 -0.15932,-0.18377 -0.36991,-0.38397 -0.63694,-0.60204 -0.26703,-0.21808 -0.5839,-0.46244 -0.81506,-0.69214 -0.23117,-0.22972 -0.23117,-0.22972 -0.0771,-0.0766 0,0 0.30822,0.30627 0.52175,0.61865 0.21353,0.31238 0.37785,0.5823 0.49568,0.80377 0.11783,0.22147 0.18481,0.39215 0.2113,0.52567 0.0265,0.13354 0.0712,0.26758 0.0788,0.37048 0.008,0.10291 -0.001,0.22345 -0.0287,0.36338 -0.0272,0.13992 -0.0732,0.2998 -0.13208,0.45883 -0.0588,0.15905 -0.2787,0.53515 -0.64126,1.06463 -0.36258,0.52944 -0.84841,1.2099 -1.46964,2.03061 -0.62124,0.82071 -1.36976,1.78543 -2.26523,2.93598 -0.89546,1.15055 -1.48922,2.27895 -1.93837,3.20022 -0.44914,0.9213 -0.80722,1.73007 -1.07573,2.43543 -0.26849,0.70538 -0.44189,1.3244 -0.52023,1.8651 -0.0784,0.54072 -0.0877,1.1215 0.0136,1.7976 0.10122,0.67607 0.30279,1.39134 0.59865,2.1601 0.29583,0.76875 0.68083,1.60026 1.1383,2.47273 0.45749,0.87243 0.54433,1.10184 0.88242,1.65117 0.33807,0.5494 0.83427,1.24736 1.50445,2.14192 0.67018,0.89456 1.51895,1.99438 2.55893,3.27368 1.04,1.27933 1.12552,1.3952 1.2467,1.57898 0.12119,0.18375 0.20781,0.32562 0.25507,0.41772 0.0472,0.0921 0.0595,0.11905 0.0594,0.10126 -9e-5,-0.0178 0.004,-0.0401 0.009,-0.0743 0.005,-0.0342 0.006,-0.027 -0.005,0.0172 -0.0107,0.0442 -0.0361,0.12082 0.0532,0.036 0.0894,-0.0848 -0.49527,0.50096 -1.07867,1.13941 -0.5834,0.63849 -1.07895,1.24469 -1.49004,1.82541 -0.41108,0.58072 -0.72671,1.15332 -0.90313,1.58874 -0.17643,0.43543 0.17889,-0.10968 -0.14237,0.54447 -0.32126,0.65417 -0.42935,1.22259 -0.56481,2.06363 -0.13546,0.84103 -0.30042,1.96954 -0.50011,3.38888 -0.19969,1.41934 -0.22846,1.63419 -0.23644,1.91522 -0.008,0.28104 0.004,0.58216 0.0369,0.91803 0.0332,0.33585 0.085,0.71204 0.15878,1.16391 0.0738,0.45188 0.25977,1.14411 0.50927,1.7779 0.2495,0.63378 0.56512,1.21216 0.94682,1.7297 0.38171,0.51756 0.83183,0.96503 1.35923,1.35571 0.52741,0.39069 1.60181,0.89605 2.62429,1.31092 1.02246,0.41488 2.02,0.75326 2.9909,1.01208 0.97092,0.25879 1.91338,0.43395 2.39276,0.41901 0.91036,0.0802 0.50986,-0.15283 0.94081,-0.0577 z"
           id="path1005" />
      </g>
      <g
         style="fill:#000000;fill-opacity:1;stroke-linejoin:miter"
         id="g1011"
         transform="rotate(90,259.41968,748.93978)">
        <path
           d="m 183.6009,394.5749 c 0.78388,-0.43238 2.00495,-1.48863 3.03069,-2.52198 1.02574,-1.03339 1.86836,-2.03172 2.54836,-2.9823 0.67999,-0.95059 1.20165,-1.85782 1.51215,-2.57832 0.31048,-0.7205 0.51948,-1.32955 0.70127,-1.98778 0.18179,-0.65822 0.33723,-1.36592 0.46411,-2.12372 0.12686,-0.7578 0.22684,-1.56577 0.28784,-2.11182 0.061,-0.54608 0.0852,-0.96905 0.0668,-1.41821 -0.0184,-0.44919 -0.076,-0.93213 -0.16442,-1.45654 -0.0884,-0.52439 -0.21243,-1.09266 -0.32991,-1.56993 -0.11746,-0.47725 -0.21989,-0.86492 -0.34326,-1.24865 -0.12337,-0.38372 -0.26411,-0.76431 -0.42437,-1.14019 -0.16028,-0.37589 -0.33066,-0.75138 -0.7918,-1.54981 -0.46113,-0.79843 -1.12224,-1.91751 -1.83095,-3.01498 -0.70871,-1.09751 -1.40074,-2.21442 -2.07528,-3.35144 -0.67455,-1.13703 -1.34328,-2.28813 -1.75064,-3.02976 -0.40735,-0.74164 -0.6216,-1.17062 -0.89541,-1.75777 -0.2738,-0.58714 -0.60748,-1.32603 -0.99766,-2.21476 -0.3902,-0.88874 -0.84526,-1.92298 -1.14795,-2.61584 -0.30271,-0.69288 -0.41493,-0.9075 -0.53625,-1.1158 -0.12134,-0.20827 -0.24862,-0.4118 -0.38596,-0.6081 -0.13736,-0.19633 -0.28413,-0.3854 -0.53233,-0.7084 -0.2482,-0.32296 -0.8402,-0.85024 -1.63472,-1.27916 -0.79455,-0.4289 -1.79618,-0.79526 -3.02455,-1.08948 -1.22838,-0.29422 -2.692,-0.49701 -3.8828,-0.70038 -1.19081,-0.20334 -1.19081,-0.20334 -0.41266,-0.009 0,0 1.50918,0.56641 2.76311,1.13015 1.25392,0.56376 2.26411,1.07093 3.0197,1.53312 0.7556,0.46216 1.24295,0.87485 1.49823,1.25098 0.25529,0.37613 0.38298,0.57605 0.47332,0.73694 0.0904,0.16092 0.17583,0.32326 0.25357,0.48928 0.0777,0.16602 0.14611,0.33646 0.20493,0.49748 0.0588,0.161 0.42882,1.33822 0.76025,2.3742 0.33145,1.036 0.63091,1.91977 0.89031,2.65622 0.2594,0.73645 0.47677,1.32986 0.66575,1.78768 0.18897,0.4578 0.7625,1.70548 1.35727,2.93604 0.59478,1.23059 1.21758,2.44006 1.86147,3.63193 0.64389,1.19186 1.3116,2.36447 2.0525,3.45943 0.74091,1.095 0.86597,1.30128 1.01947,1.5906 0.15351,0.2893 0.28777,0.58306 0.41437,0.8765 0.12662,0.29347 0.24227,0.58855 0.34827,0.89494 0.10602,0.3064 0.27565,0.84336 0.40765,1.3056 0.13199,0.46226 0.22327,0.86332 0.27913,1.19703 0.0559,0.33371 0.0839,0.59373 0.0774,0.83273 -0.006,0.23898 -0.0187,1.05527 -0.0556,1.78235 -0.0369,0.72711 -0.0946,1.40082 -0.17791,2.02032 -0.0833,0.61948 -0.19156,1.18448 -0.32257,1.69213 -0.131,0.5077 -0.39022,1.27525 -0.78928,2.13478 -0.39908,0.85949 -0.95582,1.8312 -1.66595,2.91192 -0.71015,1.08072 -1.56029,2.2794 -1.92832,3.01514 -0.95906,1.34833 -0.26643,0.83374 -0.85747,1.44636 z"
           id="path1009" />
      </g>
    </g>
  </g>
</svg>
