<?xml version="1.0" encoding="UTF-8" standalone="no"?>
<!-- Created with Inkscape (http://www.inkscape.org/) -->

<svg
   width="268.67789em"
   height="268.67789em"
   viewBox="0 0 268.67789 268.67789"
   version="1.1"
   id="svg5"
   xml:space="preserve"
   xmlns="http://www.w3.org/2000/svg"
   xmlns:svg="http://www.w3.org/2000/svg"><defs
     id="defs2" /><g
     id="layer1"
     transform="translate(90.184069,-47.866772)"><g
       id="g4527"
       transform="matrix(0.84475707,0,0,0.84475707,-1175.7345,-248.01876)"
       style="stroke-width:6.26413;stroke-dasharray:none"><path
         style="font-variation-settings:normal;opacity:1;fill:none;fill-opacity:1;stroke:#000000;stroke-width:6.26413;stroke-linecap:butt;stroke-linejoin:miter;stroke-miterlimit:4;stroke-dasharray:none;stroke-dashoffset:0;stroke-opacity:1;stop-color:#000000;stop-opacity:1"
         d="m 1306.1128,456.02863 c 0,0 30.4019,-36.24844 76.0047,-37.41774 0,0 17.5396,4.67722 24.5554,-10.52373"
         id="path4505" /><path
         style="font-variation-settings:normal;opacity:1;fill:none;fill-opacity:1;stroke:#000000;stroke-width:6.26413;stroke-linecap:butt;stroke-linejoin:miter;stroke-miterlimit:4;stroke-dasharray:none;stroke-dashoffset:0;stroke-opacity:1;stop-color:#000000;stop-opacity:1"
         d="m 1481.5084,402.24064 c 0,0 2.3386,22.21677 31.5712,4.6772 0,0 57.2959,-9.35442 77.1741,37.41775"
         id="path4507" /><path
         style="font-variation-settings:normal;opacity:1;fill:none;fill-opacity:1;stroke:#000000;stroke-width:6.26413;stroke-linecap:butt;stroke-linejoin:miter;stroke-miterlimit:4;stroke-dasharray:none;stroke-dashoffset:0;stroke-opacity:1;stop-color:#000000;stop-opacity:1"
         d="m 1328.3295,498.12357 c 0,0 37.4178,-33.90982 61.9732,-23.38607 l -45.6029,26.89399"
         id="path4509" /><path
         style="font-variation-settings:normal;opacity:1;fill:none;fill-opacity:1;stroke:#000000;stroke-width:6.26413;stroke-linecap:butt;stroke-linejoin:miter;stroke-miterlimit:4;stroke-dasharray:none;stroke-dashoffset:0;stroke-opacity:1;stop-color:#000000;stop-opacity:1"
         d="m 1549.328,489.93845 c -23.3861,-40.92564 -63.1424,-22.21677 -63.1424,-22.21677 l 47.9415,18.70886"
         id="path4511" /><path
         style="font-variation-settings:normal;opacity:1;fill:none;fill-opacity:1;stroke:#000000;stroke-width:6.26413;stroke-linecap:butt;stroke-linejoin:miter;stroke-miterlimit:4;stroke-dasharray:none;stroke-dashoffset:0;stroke-opacity:1;stop-color:#000000;stop-opacity:1"
         d="m 1502.5558,578.80556 c 0,0 -31.5711,-23.38607 -67.8196,3.50793 0,0 -23.3861,1.1693 -23.3861,-4.67722 0,-5.84652 -29.2326,3.50791 -29.2326,11.69304 0,0 59.6344,60.80379 120.4383,-10.52375 z"
         id="path4513" /><rect
         style="display:inline;fill:none;stroke:none;stroke-width:5.29167;stroke-dasharray:none;stroke-opacity:1"
         id="rect4686"
         width="268.67789"
         height="268.67789"
         x="339.86292"
         y="111.84858"
         transform="matrix(1.1837723,0,0,1.1837723,882.7242,217.85784)" /></g></g></svg>
