<?xml version="1.0" encoding="UTF-8" standalone="no"?>
<svg
   version="1.1"
   width="135.38521"
   height="135.38521"
   viewBox="0 0 135.38521 135.38521"
   id="svg1214"
   xmlns="http://www.w3.org/2000/svg"
   xmlns:svg="http://www.w3.org/2000/svg">
  <defs
     id="defs1218" />
  <g
     id="g7410"
     transform="translate(-859.81427,-568.47607)">
    <rect
       style="display:inline;opacity:0.5;fill:none;fill-opacity:1;stroke:none;stroke-width:2.66644;stroke-dasharray:none;stroke-opacity:1"
       id="rect5241"
       width="135.38521"
       height="135.38521"
       x="859.81427"
       y="568.47607" />
    <g
       id="g4416"
       transform="translate(12.371442,0.32580329)">
      <g
         style="fill:#000000;fill-opacity:1;stroke-linejoin:miter"
         id="g787"
         transform="rotate(90,259.41968,748.93978)">
        <path
           d="m 134.2776,145.69543 c -0.15309,-1.19151 -0.80684,-3.1491 -1.39317,-4.73121 -0.58633,-1.58211 -1.0788,-2.803 -1.4689,-3.67797 -0.39011,-0.87495 -0.6964,-1.43618 -1.22348,-2.41595 -0.52709,-0.97978 -1.39022,-2.59444 -2.18901,-3.96512 -0.79881,-1.3707 -1.53364,-2.50223 -2.19996,-3.41392 -0.66631,-0.91168 -1.29061,-1.61422 -2.06275,-2.41736 -0.77214,-0.80313 -1.87874,-1.81069 -2.83867,-2.67757 -0.95992,-0.86686 -1.79787,-1.57198 -2.51184,-2.12837 -0.71397,-0.55638 -1.31652,-0.97196 -1.68409,-1.18886 -0.36756,-0.21691 -0.66307,-0.40231 -0.97203,-0.58175 -0.30895,-0.17943 -0.62939,-0.3558 -0.95887,-0.53348 -0.32949,-0.17768 -0.67205,-0.34997 -3.88073,-1.79639 -3.20868,-1.44643 -9.41619,-3.85215 -9.50782,-3.9052 -0.0916,-0.053 -0.15869,-0.12235 -0.19829,-0.20978 -0.0396,-0.0874 -0.0348,-0.19226 -0.0128,-0.27561 0.022,-0.0834 0.022,-0.0834 0.007,-0.0278 0,0 -0.0293,0.11114 -0.0351,0.21541 -0.006,0.10428 0.0173,0.20847 0.0787,0.31062 0.0614,0.10215 0.16647,0.20333 5.78322,3.74553 5.61676,3.54219 5.90771,3.7235 6.20395,3.91219 0.29624,0.18869 0.58169,0.37342 0.85169,0.56169 0.27,0.18826 0.52821,0.37388 0.79215,0.56999 0.26395,0.1961 0.66188,0.47827 1.16062,0.90297 0.49875,0.4247 1.14128,1.03409 1.91906,1.81735 0.77778,0.78326 1.68895,1.73599 2.7755,2.84634 1.08656,1.11035 1.60227,1.53064 2.14417,2.09662 0.54189,0.566 1.22284,1.39799 2.01927,2.48465 0.79642,1.08669 1.70535,2.41997 2.74453,4.00077 1.03919,1.58077 1.2717,1.85626 1.60523,2.3778 0.33353,0.52155 0.85002,1.41623 1.54021,2.65627 0.69017,1.24004 1.57705,2.80943 2.24682,3.63155 1.136,1.87381 0.79885,0.7649 1.26506,1.81658 z"
           id="path785" />
      </g>
      <g
         style="fill:#000000;fill-opacity:1;stroke-linejoin:miter"
         id="g791"
         transform="rotate(90,259.41968,748.93978)">
        <path
           d="m 141.29709,130.32367 c -0.29184,-0.27705 -0.86779,-0.74458 -1.35422,-1.24994 -0.48645,-0.50537 -0.8846,-1.06058 -1.20634,-1.66872 -0.32175,-0.60814 -0.56534,-1.27952 -0.67647,-1.6974 -0.11112,-0.41788 -0.1312,-0.56251 -0.14446,-0.73135 -0.0133,-0.16883 -0.0153,-0.36145 -0.0117,-0.57624 0.004,-0.2148 0.0116,-0.45161 0.043,-0.84729 0.0314,-0.39569 0.078,-0.96634 0.1194,-1.56181 0.0413,-0.59547 0.076,-1.21575 0.1083,-1.86079 0.0323,-0.64503 0.0621,-1.31483 0.0867,-1.79972 0.0246,-0.48488 0.045,-0.78202 0.0642,-1.0512 0.0192,-0.26918 0.0358,-0.5103 0.013,-0.72423 -0.0228,-0.21393 -0.0227,-0.39871 -0.0236,-1.0601 -8.7e-4,-0.66138 0.0285,-1.75829 0.0996,-2.7745 0.0712,-1.01622 0.18559,-1.95198 0.33893,-2.80909 0.15332,-0.85711 0.34361,-1.63789 0.51584,-2.18026 0.17221,-0.54237 0.28659,-0.87416 0.40165,-1.17674 0.11507,-0.30259 0.23252,-0.57506 0.35195,-0.81737 0.11941,-0.24229 0.23825,-0.4561 0.31503,-0.59047 0.0768,-0.13437 0.1249,-0.21336 0.28208,-0.40287 0.15718,-0.18953 0.406,-0.46899 0.73832,-0.83898 0.33232,-0.36999 0.7452,-0.83225 1.1393,-1.16911 0.39412,-0.33686 0.39412,-0.33686 0.12396,-0.12154 0,0 -0.56253,0.40287 -1.06544,0.6933 -0.50292,0.29044 -0.89748,0.53086 -1.18614,0.72196 -0.28866,0.19108 -0.48027,0.33351 -0.57286,0.42852 -0.0926,0.095 -0.26769,0.26813 -0.45723,0.49297 -0.18955,0.22485 -0.37822,0.47918 -0.56757,0.76217 -0.18936,0.28301 -0.3797,0.59476 -0.56842,0.94024 -0.18874,0.34547 -0.54921,1.09717 -0.87181,1.9473 -0.3226,0.85013 -0.59842,1.78515 -0.82491,2.80415 -0.22647,1.01899 -0.40397,2.12088 -0.53766,3.29718 -0.13368,1.17628 -0.14889,1.36245 -0.16212,1.5661 -0.0132,0.20364 -0.0707,0.43256 -0.065,0.68977 0.006,0.25722 0.0139,0.54128 0.0236,0.86241 0.01,0.32114 0.0489,1.01066 0.0833,1.66355 0.0344,0.65288 0.064,1.28106 0.0887,1.88451 0.0248,0.60346 0.0532,1.18231 0.0736,1.74125 0.0203,0.55894 0.0375,0.85545 0.0595,1.13011 0.022,0.27467 0.0601,0.53192 0.10548,0.77279 0.0453,0.24088 0.099,0.46632 0.16887,0.69136 0.0698,0.22505 0.41445,1.00655 0.86039,1.71266 0.44595,0.70611 0.97324,1.31401 1.58346,1.81138 0.61023,0.49737 1.29802,0.87584 1.69597,0.96787 0.7523,0.25625 0.4573,-0.0361 0.81166,0.12817 z"
           id="path789" />
      </g>
      <g
         style="fill:#000000;fill-opacity:1;stroke-linejoin:miter"
         id="g795"
         transform="rotate(90,259.41968,748.93978)">
        <path
           d="m 143.33778,129.3171 c 0.0712,-0.0558 0.1819,-0.17594 0.28045,-0.28548 0.0985,-0.10953 0.18502,-0.20865 0.25943,-0.29779 0.0744,-0.0892 0.13587,-0.16935 0.2807,-0.38355 0.14483,-0.21418 0.36308,-0.54004 0.56292,-0.83501 0.19983,-0.29497 0.3826,-0.55818 0.55179,-0.78691 0.16919,-0.22872 0.32105,-0.42421 0.46839,-0.60988 0.14735,-0.18568 0.33451,-0.39984 0.58032,-0.67256 0.2458,-0.27272 0.55168,-0.60023 0.91299,-0.98465 0.36131,-0.38441 0.77942,-0.82403 1.06151,-1.12141 0.28209,-0.29739 0.36342,-0.39936 0.44762,-0.50949 0.0842,-0.11012 0.17227,-0.22842 0.26342,-0.35625 0.0911,-0.12783 0.18393,-0.2663 0.31046,-0.4454 0.12654,-0.1791 0.30904,-0.48536 0.45029,-0.81568 0.14123,-0.33033 0.23593,-0.68155 0.28891,-1.04741 0.053,-0.36585 0.0659,-0.74385 0.0101,-1.36987 -0.0558,-0.62602 -0.25536,-1.46291 -0.56992,-2.28548 -0.31457,-0.82256 -0.71492,-1.63502 -1.19853,-2.43705 -0.48361,-0.80202 -1.04897,-1.59387 -1.52361,-2.15863 -0.47462,-0.56475 -0.75143,-0.85197 -1.00311,-1.0987 -0.25166,-0.24673 -0.48134,-0.45118 -0.68551,-0.61924 -0.20418,-0.16807 -0.38627,-0.30159 -0.48057,-0.36972 -0.0943,-0.0681 -0.28082,-0.19581 -0.53179,-0.32123 -0.25098,-0.12544 -0.58883,-0.26428 -1.02118,-0.4198 -0.43236,-0.15551 -0.96209,-0.32673 -1.30866,-0.43936 -0.34657,-0.11264 -0.46515,-0.174 -0.58777,-0.24826 -0.12262,-0.0743 -0.24897,-0.16147 -0.37085,-0.26842 -0.12187,-0.10695 -0.23263,-0.23733 -0.3159,-0.34109 -0.0833,-0.10376 -0.0833,-0.10376 -0.0277,-0.0346 0,0 0.11102,0.13834 0.21936,0.26687 0.10833,0.12853 0.20014,0.26164 0.29469,0.38373 0.0945,0.12209 0.19209,0.23319 0.29976,0.33713 0.10766,0.10394 0.62492,0.4527 1.05196,0.7435 0.42703,0.29079 0.7659,0.52742 1.01371,0.70715 0.24783,0.17974 0.39417,0.30144 0.45447,0.37653 0.0603,0.0751 0.19809,0.20384 0.32019,0.34442 0.12212,0.14057 0.27238,0.33056 0.44946,0.56636 0.17708,0.2358 0.38285,0.51417 0.5987,0.82222 0.21586,0.30805 0.68042,1.10984 1.07185,1.89102 0.39143,0.78117 0.70999,1.53835 0.95441,2.27361 0.24441,0.73526 0.40933,1.45112 0.55894,2.14399 0.14961,0.69287 0.17859,0.89883 0.18686,1.11599 0.008,0.21714 -0.006,0.41394 -0.0395,0.59466 -0.0334,0.18073 -0.0856,0.34995 -0.17812,0.53616 -0.0926,0.18622 -0.18039,0.35002 -0.24745,0.47576 -0.0671,0.12575 -0.12865,0.23992 -0.18607,0.34123 -0.0574,0.1013 -0.1114,0.18852 -0.15138,0.25188 -0.04,0.0633 -0.4267,0.5999 -0.77322,1.08006 -0.34652,0.48016 -0.63887,0.90523 -0.88038,1.27342 -0.2415,0.36819 -0.4336,0.67999 -0.57467,0.93212 -0.14107,0.25214 -0.26056,0.46749 -0.38584,0.72435 -0.12526,0.25685 -0.24936,0.54712 -0.38018,0.86743 -0.13085,0.3203 -0.25707,0.67717 -0.38425,1.06614 -0.12718,0.38898 -0.15041,0.45868 -0.18512,0.55042 -0.0347,0.0917 -0.0775,0.19961 -0.12891,0.32269 -0.0514,0.12308 -0.11139,0.26113 -0.13235,0.34281 -0.0685,0.1529 0.0965,0.16 0.0489,0.23125 z"
           id="path793" />
      </g>
      <g
         style="fill:#000000;fill-opacity:1;stroke-linejoin:miter"
         id="g799"
         transform="rotate(90,259.41968,748.93978)">
        <path
           d="m 133.21098,78.28234 c -0.29176,-0.26396 -0.93519,-0.77114 -1.60307,-1.41231 -0.66788,-0.64116 -1.36903,-1.42255 -2.10391,-2.35452 -0.73488,-0.93197 -1.50377,-2.018005 -2.24788,-3.16719 -0.74411,-1.149185 -1.33512,-2.16866 -1.75841,-3.045334 -0.42328,-0.876671 -0.67936,-1.596966 -0.78424,-2.130716 -0.10489,-0.53374 -0.0866,-0.853834 -0.0163,-1.08404 0.0704,-0.230205 0.12544,-0.38479 0.1804,-0.52202 0.0549,-0.13723 0.1085,-0.257204 0.16128,-0.35902 0.0528,-0.10181 0.10364,-0.18547 0.29151,-0.423758 0.18787,-0.238285 0.63143,-0.832972 1.06351,-1.441392 0.43207,-0.608416 0.84806,-1.234103 1.24911,-1.876014 0.40105,-0.64191 0.78604,-1.300659 1.11678,-1.855392 0.33075,-0.55473 0.65359,-1.031094 0.9628,-1.449356 0.30918,-0.418268 0.60137,-0.779843 0.87374,-1.085594 0.27237,-0.305756 0.52414,-0.554444 1.00483,-0.990109 0.48066,-0.435665 1.19258,-0.984915 1.98904,-1.455852 0.79648,-0.47094 1.68221,-0.870285 2.66559,-1.199973 0.98337,-0.329687 2.06923,-0.60288 2.94024,-0.684618 0.87104,-0.08174 0.87104,-0.08174 0.28806,-0.06518 0,0 -1.17284,-0.08072 -2.30222,-0.09302 -1.12936,-0.01231 -2.2064,0.137176 -3.2267,0.425987 -1.02029,0.288806 -1.97833,0.715618 -2.84832,1.263206 -0.87,0.547585 -1.19249,0.764687 -1.55312,1.058447 -0.36061,0.29376 -0.73389,0.634848 -1.117,1.028532 -0.38314,0.393684 -0.77719,0.839828 -1.19849,1.349688 -0.4213,0.509866 -0.86335,1.148706 -1.28488,1.72859 -0.42152,0.579883 -0.85423,1.14089 -1.2959,1.684597 -0.44168,0.543708 -0.8874,1.074213 -1.36562,1.605523 -0.47821,0.531302 -0.68248,0.85878 -0.78012,1.06252 -0.0976,0.20375 -0.18364,0.415662 -0.25907,0.63598 -0.0754,0.220322 -0.1388,0.450013 -0.19864,0.70382 -0.0598,0.2538 -0.17098,0.93628 -0.0664,1.773704 0.10454,0.837426 0.40224,1.692936 0.8745,2.59832 0.47226,0.90538 1.10763,1.882356 1.91121,2.942841 0.80358,1.060475 1.77506,2.19413 2.71608,3.158995 0.941,0.96486 1.85247,1.75916 2.72795,2.382615 0.87545,0.623455 1.71575,1.064485 2.15066,1.166815 0.78691,0.25478 0.49098,-0.02721 0.843,0.12523 z"
           id="path797" />
      </g>
      <g
         style="fill:#000000;fill-opacity:1;stroke-linejoin:miter"
         id="g803"
         transform="rotate(90,259.41968,748.93978)">
        <path
           d="m 135.65044,80.99022 c -0.0145,-0.22741 -0.0978,-0.705285 -0.17528,-1.25397 -0.0775,-0.54868 -0.1523,-1.169745 -0.22252,-1.86549 -0.0702,-0.69576 -0.13319,-1.46748 -0.15405,-1.96904 -0.0209,-0.50157 0.008,-0.734186 0.0595,-0.96314 0.051,-0.22894 0.12706,-0.4559 0.23011,-0.68211 0.10308,-0.22622 0.23629,-0.45123 0.34922,-0.622345 0.11291,-0.17112 0.21074,-0.270045 0.34515,-0.378035 0.13442,-0.10799 0.31192,-0.220095 0.53516,-0.330614 0.22325,-0.110526 0.49012,-0.220786 0.68902,-0.311616 0.19892,-0.09083 0.18087,-0.06747 0.52044,-0.127486 0.33956,-0.06002 0.91511,-0.146574 1.70832,-0.254184 0.7932,-0.107594 1.80068,-0.235425 2.61241,-0.3956 0.81174,-0.16016 0.94892,-0.23805 1.10074,-0.35646 0.15183,-0.118405 0.31613,-0.30672 0.44876,-0.604344 0.13263,-0.297626 0.15907,-0.677156 0.12998,-0.858786 -0.0291,-0.181635 -0.0916,-0.39146 -0.17006,-0.57379 -0.0784,-0.18233 -0.16719,-0.350536 -0.26706,-0.51424 -0.0999,-0.16371 -0.21259,-0.32664 -2.35205,-2.82628 -2.13948,-2.499636 -6.47615,-7.125506 -6.72669,-7.414526 -0.25055,-0.289017 -0.51545,-0.620034 -0.78631,-0.985398 -0.27084,-0.36536 -0.54934,-0.763622 -0.83275,-1.195919 -0.28342,-0.432297 -0.57245,-0.886127 -0.73862,-1.198925 -0.16617,-0.312797 -0.29767,-0.643367 -0.40449,-0.993278 -0.10683,-0.349911 -0.18311,-0.722786 -0.22501,-1.120079 -0.0419,-0.397297 -0.0517,-0.842789 -0.06,-0.941967 -0.008,-0.09918 0.034,-0.305992 0.13564,-0.625584 0.10159,-0.319591 0.25587,-0.743267 0.35973,-1.134426 0.10386,-0.391158 0.10386,-0.391158 -0.0263,-0.164518 0,0 -0.44296,0.350904 -0.69446,0.6999 -0.25148,0.348995 -0.42549,0.63476 -0.52809,0.879382 -0.1026,0.244622 -0.11533,0.38715 -0.18901,0.840565 -0.0737,0.453413 -0.10214,0.914023 -0.0856,1.369613 0.0165,0.45559 0.0839,0.90405 0.20305,1.34186 0.1192,0.437808 0.27974,0.86318 0.51543,1.38389 0.23568,0.52071 0.47461,1.005395 0.71672,1.460446 0.24211,0.455054 0.49214,0.877831 0.74481,1.272289 0.25265,0.394459 0.52403,0.775695 4.50484,5.708439 3.9808,4.932736 4.04164,5.003136 4.1075,5.083866 0.0658,0.08072 0.11054,0.13909 0.13253,0.16878 0.022,0.0297 0.0222,0.02111 0.0169,-0.002 -0.005,-0.02306 -0.0207,-0.167426 0.0352,-0.4618 0.056,-0.29437 0.17323,-0.4913 0.27179,-0.5913 0.0985,-0.1 0.158,-0.1393 0.34079,-0.200836 0.1828,-0.06154 -0.93428,0.182526 -1.8673,0.398621 -0.93301,0.216105 -1.6616,0.392655 -2.19246,0.531385 -0.53087,0.13874 -0.8874,0.247065 -1.07815,0.3396 -0.19076,0.09255 -0.47588,0.2355 -0.80594,0.43335 -0.33005,0.19786 -0.62488,0.41188 -0.88642,0.64216 -0.26151,0.23028 -0.48423,0.48436 -0.65904,0.75544 -0.1748,0.27108 -0.3378,0.608 -0.459,0.952896 -0.1212,0.344904 -0.21063,0.690368 -0.26373,1.036694 -0.0531,0.34633 -0.0694,0.69201 -0.0428,1.05393 0.0266,0.36192 0.2302,1.19991 0.43918,1.941434 0.209,0.741526 0.42949,1.402196 0.65595,1.981896 0.22644,0.5797 0.46222,1.07594 0.61641,1.283714 0.23712,0.411196 0.28492,0.154466 0.36786,0.357896 z"
           id="path801" />
      </g>
      <g
         style="fill:#000000;fill-opacity:1;stroke-linejoin:miter"
         id="g807"
         transform="rotate(90,259.41968,748.93978)">
        <path
           d="m 98.27006,70.044 c 2.10907,-0.674554 5.58545,-2.541086 8.50376,-4.29745 2.91831,-1.756358 5.31602,-3.348685 7.19948,-4.781485 1.88347,-1.4328 3.20196,-2.776039 4.11398,-3.871015 0.91202,-1.094973 1.73434,-2.11434 2.4604,-3.085253 0.72606,-0.970909 1.35505,-1.894284 1.88744,-2.770104 0.53238,-0.875823 0.96881,-1.70412 1.25268,-2.337783 0.28387,-0.63366 0.50512,-1.247235 0.7357,-2.047257 0.23058,-0.800026 0.47234,-1.79517 0.70773,-2.99522 0.23539,-1.200051 0.44028,-2.612889 0.67279,-3.752117 0.23251,-1.139226 0.23251,-1.139226 0.0216,-0.395844 0,0 -0.58965,1.438461 -1.1379,2.673721 -0.54825,1.235257 -0.99837,2.283087 -1.37194,3.135207 -0.37357,0.85212 -0.68246,1.499982 -0.92573,1.939466 -0.24329,0.439484 -0.66994,1.118134 -1.18342,1.83646 -0.51348,0.718331 -1.12174,1.489484 -1.82982,2.309424 -0.70807,0.819944 -1.51026,1.692854 -2.4188,2.62311 -0.90853,0.93026 -1.86851,1.91921 -3.2733,3.145683 -1.4048,1.226467 -3.26777,2.790153 -5.62687,4.629989 -2.3591,1.839833 -5.20211,3.963848 -6.62253,5.375898 -3.23984,2.54473 -1.3458,1.5319 -3.16522,2.66457 z"
           id="path805" />
      </g>
      <g
         style="fill:#000000;fill-opacity:1;stroke-linejoin:miter"
         id="g811"
         transform="rotate(90,259.41968,748.93978)">
        <path
           d="m 195.75366,111.94183 c -0.53103,-1.42686 -1.79701,-3.87326 -2.76158,-6.14976 -0.96457,-2.27651 -1.60252,-4.40883 -1.89915,-6.41019 -0.29665,-2.00136 -0.27231,-3.876524 0.033,-6.20204 0.30531,-2.32551 0.66165,-4.837715 1.01355,-6.984665 0.35191,-2.146945 0.70378,-3.92292 1.0499,-5.31546 0.34614,-1.392535 0.67385,-2.380699 0.95667,-3.124805 0.28283,-0.74411 0.49947,-1.37611 0.81027,-2.250355 0.31081,-0.874245 0.71903,-1.979435 1.22603,-3.309825 0.50702,-1.33039 1.11225,-2.884244 1.57877,-3.99838 0.46652,-1.11414 0.81567,-1.78536 1.22081,-2.50169 0.40513,-0.71634 0.86623,-1.47667 1.38316,-2.279857 0.51695,-0.803189 1.08963,-1.64856 1.55088,-2.407258 0.46122,-0.758701 0.55711,-1.128085 0.54635,-1.634275 -0.0107,-0.506197 -0.24917,-1.10493 -0.69484,-1.537443 -0.44566,-0.432514 -0.90106,-0.622067 -2.13466,-0.510559 -1.23358,0.111507 -2.57448,0.416748 -3.84408,0.742492 -1.26963,0.325745 -2.46837,0.67243 -3.59677,1.040734 -1.12842,0.368306 -2.18702,0.758953 -3.82584,1.187426 -1.63884,0.42848 -4.21783,0.99187 -6.7327,1.557035 -2.51485,0.565165 -4.96557,1.132118 -7.35222,1.700878 -2.38664,0.568767 -4.70923,1.139347 -7.39491,1.852387 -2.6857,0.71305 -5.73502,1.55616 -5.96045,1.62407 -0.22543,0.06792 -0.47561,0.16456 -0.72761,0.29309 -0.252,0.12854 -0.50545,0.30034 -0.75087,0.53203 -0.24544,0.231695 -0.7646,1.46496 -0.88925,5.01442 -0.12464,3.54944 -0.62714,6.29585 -1.02074,8.780866 -0.3936,2.485024 -0.65262,4.545884 -0.79225,6.190834 -0.13962,1.64495 -0.15005,2.89857 -0.0283,3.7423 0.12178,0.843744 0.17871,1.21057 0.28827,1.736574 0.10957,0.525996 0.26642,1.080506 0.46064,1.668366 0.19423,0.58785 0.43192,1.2091 0.69991,1.85303 0.26798,0.643925 0.35095,0.87701 0.59747,1.35882 0.24652,0.48182 0.63179,1.14209 1.15981,2.00963 0.52801,0.86755 1.2088,1.94274 2.04928,3.21401 0.84049,1.27126 1.05536,1.65731 1.28522,2.11867 0.22986,0.46137 0.44959,0.96652 0.66994,1.5122 0.22034,0.54568 0.4408,1.13278 0.66342,1.76241 0.22264,0.62963 0.26474,0.72446 0.32165,0.80228 0.0569,0.0778 0.12768,0.13978 0.2049,0.1968 0.0772,0.057 0.16803,0.10674 0.24439,0.13899 0.0763,0.0323 0.0763,0.0323 0.0254,0.0108 0,0 -0.10181,-0.043 -0.18714,-0.0961 -0.0853,-0.0531 -0.14839,-0.12168 -0.18689,-0.20078 -0.0385,-0.0791 -0.0582,-0.16241 -0.0667,-0.54717 -0.009,-0.38476 -0.0423,-1.04826 -0.10901,-1.67809 -0.0667,-0.62983 -0.16978,-1.22438 -0.30081,-1.78529 -0.13103,-0.5609 -0.28508,-1.09003 -0.72969,-2.09805 -0.44461,-1.00803 -1.06256,-2.30563 -1.56383,-3.36487 -0.50126,-1.05925 -0.88487,-1.87805 -1.13316,-2.45442 -0.24829,-0.57638 -0.35509,-0.87415 -0.4879,-1.31296 -0.13283,-0.43881 -0.32381,-1.05277 -0.47354,-1.616844 -0.14975,-0.564072 -0.26068,-1.075661 -0.33876,-1.530831 -0.0781,-0.455175 -0.12285,-0.851925 -0.18695,-1.344315 -0.0641,-0.49238 -0.058,-1.17746 0.0791,-2.38451 0.13703,-1.20706 0.41826,-2.87971 0.84134,-4.99718 0.4231,-2.11747 0.98801,-4.67367 1.45719,-8.042145 0.46917,-3.368475 0.67408,-6.934855 0.42349,-6.345855 -0.25059,0.589 -0.33167,0.6572 -0.37488,0.68499 -0.0432,0.02779 -0.0442,0.02843 -0.004,0.01466 0.0404,-0.01377 0.17099,-0.0486 3.21125,-0.889264 3.04027,-0.840656 5.27915,-1.401976 7.60491,-1.967526 2.32576,-0.56556 4.71646,-1.12964 7.17211,-1.692226 2.45564,-0.562584 4.97617,-1.123654 7.60944,-1.694618 2.63329,-0.570966 3.79816,-1.02224 4.78241,-1.370712 0.98425,-0.348474 2.04808,-0.681878 3.19089,-0.999384 1.14282,-0.317503 2.36421,-0.6186 3.64326,-0.8989 1.27906,-0.2803 0.44501,-0.312707 0.12462,-0.500825 -0.3204,-0.188122 -0.63784,-0.589669 -0.75274,-1.014085 -0.1149,-0.42442 -0.0904,-0.693523 0.0219,-0.95028 0.11224,-0.256758 -0.49381,0.61008 -1.08206,1.492754 -0.58827,0.882676 -1.12381,1.73064 -1.60677,2.544806 -0.48295,0.814164 -0.91337,1.59551 -1.30788,2.382905 -0.39451,0.787385 -1.08624,2.542005 -1.66549,4.03888 -0.57926,1.496875 -1.06252,2.776585 -1.45066,3.84198 -0.38815,1.065385 -0.67703,1.923325 -0.84582,2.508545 -0.16878,0.58521 -0.52158,1.49378 -0.87354,2.85371 -0.35195,1.359935 -0.65843,3.0319 -0.927,5.03754 -0.26858,2.00563 -0.49469,4.35354 -0.68448,7.04471 -0.1898,2.691176 -0.30581,4.77925 -0.033,6.99228 0.27283,2.21302 0.94819,4.44667 2.00296,6.69679 1.05477,2.25011 2.50612,4.50407 3.54703,5.50515 1.91309,2.1962 1.15497,0.91785 2.02713,2.11298 z"
           id="path809" />
      </g>
      <g
         style="fill:#000000;fill-opacity:1;stroke-linejoin:miter"
         id="g815"
         transform="rotate(90,259.41968,748.93978)">
        <path
           d="m 158.70068,112.32101 c 0.63082,0.58651 2.07054,1.50359 3.5972,2.41349 1.52666,0.9099 3.1295,1.83597 4.8046,2.787 1.67508,0.95103 3.41813,1.93601 4.94984,2.7441 1.53171,0.80809 2.67275,1.33131 3.71306,1.76705 1.04033,0.43574 1.98055,0.79162 2.83809,1.02603 0.85754,0.23443 1.62976,0.36835 2.58711,0.42402 0.95737,0.0557 2.16632,0.0451 3.43775,-0.0273 1.27142,-0.0725 2.60586,-0.20688 4.00402,-0.40181 1.39817,-0.19493 2.85938,-0.45874 3.71543,-0.62855 0.85606,-0.16981 1.23849,-0.28601 1.76871,-0.49565 0.53022,-0.20965 1.24467,-0.51876 2.14846,-0.94197 0.9038,-0.42321 1.9939,-0.97424 2.78727,-1.42841 0.79335,-0.45417 1.10281,-0.69684 1.38558,-0.93521 0.28278,-0.23838 0.53913,-0.47134 0.76964,-0.69688 0.23052,-0.22556 0.45589,-0.41633 0.62007,-0.54732 0.16417,-0.13099 0.16417,-0.13099 0.0547,-0.0437 0,0 -0.2189,0.17465 -0.48144,0.32608 -0.26255,0.15142 -0.55863,0.28958 -0.87656,0.43081 -0.31792,0.14124 -0.65893,0.28433 -1.00349,0.42393 -0.34456,0.13959 -1.65425,0.49139 -2.74844,0.80392 -1.0942,0.31254 -1.97028,0.55696 -2.62269,0.73645 -0.6524,0.17948 -1.07493,0.27718 -1.25691,0.2951 -0.18198,0.0179 -1.68552,0.15249 -3.09502,0.24015 -1.4095,0.0877 -2.73796,0.13625 -3.98608,0.1327 -1.24812,-0.004 -2.41493,-0.0493 -3.49333,-0.14462 -1.07839,-0.0953 -1.55965,-0.1835 -2.1976,-0.36215 -0.63796,-0.17865 -1.42601,-0.3841 -2.34665,-0.66624 -0.92062,-0.28215 -1.96832,-0.64423 -3.12242,-1.07742 -1.1541,-0.43319 -3.00293,-1.26065 -4.81688,-2.05848 -1.81397,-0.79783 -3.56945,-1.54042 -5.26529,-2.22947 -1.69586,-0.68904 -3.33864,-1.31049 -4.20217,-1.474 -1.60557,-0.51898 -0.92453,-0.0362 -1.66658,-0.39167 z"
           id="path813" />
      </g>
    </g>
  </g>
</svg>
