<?xml version="1.0" encoding="UTF-8" standalone="no"?>
<!-- Created with Inkscape (http://www.inkscape.org/) -->

<svg
   width="268.67789em"
   height="268.67789em"
   viewBox="0 0 268.67789 268.67789"
   version="1.1"
   id="svg5"
   xml:space="preserve"
   xmlns="http://www.w3.org/2000/svg"
   xmlns:svg="http://www.w3.org/2000/svg"><defs
     id="defs2" /><g
     id="layer1"
     transform="translate(1012.2489,-409.49393)"><g
       id="g53517"><rect
         style="display:inline;fill:none;fill-opacity:1;stroke:none;stroke-width:5.29167;stroke-dasharray:none;stroke-opacity:1"
         id="rect53377"
         width="268.67789"
         height="268.67789"
         x="-1012.2489"
         y="409.49393" /><g
         id="g52857"
         transform="matrix(1.9639723,0,0,1.9639723,-3503.1372,-1331.4784)"><g
           style="fill:#000000;fill-opacity:1;stroke-linejoin:miter"
           id="g50940"
           transform="matrix(0.0212301,0.88760364,-0.82571352,0.02282136,2056.9295,403.92004)"><path
             d="m 637.2215,924.24164 c -2.2096,-0.45934 -6.0743,-0.55609 -9.2259,-0.58354 -3.15154,-0.0275 -5.5917,-0.0496 -7.3018,-0.0997 -1.7101,-0.05 -2.6164,-0.13006 -3.54146,-0.2574 -0.92511,-0.1273 -2.05494,-0.3571 -3.21978,-0.67136 -1.16486,-0.31427 -2.3667,-0.74114 -3.59956,-1.30494 -1.2329,-0.56384 -2.5089,-1.23595 -3.2856,-1.7104 -0.77665,-0.4744 -1.1056,-0.73674 -1.38175,-0.9981 -0.27618,-0.2613 -0.50342,-0.5202 -0.68755,-0.7765 -0.18415,-0.2562 -0.3307,-0.5116 -2.13057,-4.11625 -1.79983,-3.60465 -5.31863,-10.4873 -5.81359,-11.6424 -0.49488,-1.15505 -0.86314,-2.15295 -1.07374,-2.9317 -0.2106,-0.77875 -0.27075,-1.29845 -0.2623,-1.48615 0.008,-0.1876 0.10935,-0.5319 0.0294,-0.28966 -0.08,0.24216 -0.30744,0.70226 -0.51185,0.96396 -0.2044,0.2618 -0.29975,0.3542 -0.24701,0.3499 0.0528,-0.004 -0.31524,0.12626 2.5163,-0.4784 2.83156,-0.6046 5.33526,-1.14235 7.43736,-1.6675 2.1021,-0.5251 3.82784,-1.0084 5.23104,-1.47174 1.4032,-0.46331 4.93536,-8.14392 2.94306,-10.01092 -1.99226,-1.86694 -2.919,-2.78874 -3.797,-3.9162 -0.878,-1.12744 -1.7202,-2.46174 -2.4974,-4.02808 -0.77714,-1.56636 -1.40416,-3.06231 -1.41264,-3.48919 -0.009,-0.42687 0.0381,-0.69737 0.12544,-0.85767 0.0873,-0.16034 0.3095,-0.381 0.81645,-0.76117 0.5069,-0.38019 1.65241,-0.98303 1.89855,-1.09273 0.2461,-0.1097 0.6119,-0.21873 1.1799,-0.33696 0.568,-0.11824 1.32353,-0.22369 2.2504,-0.3023 0.9269,-0.0785 2.2287,-0.15277 2.4629,-0.17724 0.23413,-0.0245 0.86804,0.0292 2.0093,0.19506 1.1412,0.16589 2.70634,0.4483 4.65635,0.84619 1.94995,0.39795 4.31775,0.92045 4.95865,1.01538 0.6408,0.095 1.22763,0.14124 1.89285,0.17417 0.66525,0.033 1.44555,0.058 2.35955,0.0617 0.914,0.004 2.994,-0.0749 6.30323,-0.81863 3.30917,-0.74377 5.9491,-1.2854 8.06387,-1.65637 2.1148,-0.37104 3.6651,-0.5846 4.51365,-0.6399 0.84855,-0.0554 1.52069,0.0397 2.71429,0.0944 1.19361,0.0547 2.15826,0.11847 3.0094,0.19864 0.85116,0.0801 1.58396,0.1727 2.19123,0.26694 0.6073,0.0942 1.29998,0.24646 1.12579,0.17151 -0.17419,-0.0749 -0.9895,-0.48825 -1.85492,-1.43012 -0.86544,-0.94189 -1.32504,-2.20569 -1.33447,-3.17303 -0.009,-0.96735 0.73363,-2.71106 0.56067,-2.5033 -0.17294,0.20777 -0.84524,0.90033 -1.86574,1.89234 -1.02056,0.99196 -2.3869,2.2265 -4.0554,3.72216 -1.6685,1.49573 -3.4112,3.0467 -7.67066,6.11005 -4.25944,3.06335 -6.00894,5.85605 -6.4231,6.94085 -0.41414,1.08485 -0.77284,2.0829 -1.05464,3.01386 -0.2818,0.93097 -0.50926,1.80174 -0.64274,2.53854 -0.13346,0.7368 -0.24596,1.41465 -0.30896,2.43284 -0.0629,1.01826 -0.0505,2.14721 0.0353,3.44736 0.0859,1.3002 0.23736,2.7913 0.43796,4.48696 0.20065,1.69568 0.21114,1.53444 0.21743,1.50954 0.006,-0.0249 -0.0347,0.3512 -0.12873,0.9563 -0.094,0.6051 -0.221,1.4164 -0.4332,2.74864 -0.2123,1.33216 0.0322,3.1543 0.3468,4.39676 0.3146,1.2425 0.7191,2.46756 1.2099,3.6742 0.49077,1.2067 1.06535,2.39443 1.69645,3.50546 0.63105,1.11094 0.98355,1.77539 1.8031,2.64569 0.81955,0.8703 1.84089,1.65675 3.14551,2.49095 1.30464,0.83424 2.91004,1.757 4.81739,2.75593 1.9074,0.99903 1.6701,0.80793 1.64865,0.75861 -0.0213,-0.0493 -0.071,-0.15668 -0.1183,-0.32514 -0.0473,-0.1684 -0.0651,-0.37566 -0.0619,-0.4437 0.003,-0.068 0.17499,-0.59456 0.63075,-1.0704 0.4558,-0.4758 0.5236,-0.489 0.36657,-0.43255 -0.15711,0.0564 -0.47057,0.14002 -0.82877,0.22778 -0.3582,0.0878 -2.01175,0.23652 -3.8208,0.42701 -1.80905,0.19043 -3.7038,0.4447 -5.68247,0.79006 -1.97869,0.3454 -4.04119,0.7638 -5.62988,1.099 -1.58865,0.33524 -1.58865,0.33524 -0.52051,0.2699 0,0 2.16326,0.3435 4.21241,0.53964 2.04919,0.19616 3.99365,0.38501 5.83385,0.54529 1.8403,0.16037 3.5776,0.33207 4.8135,0.41317 1.2358,0.081 1.7572,0.0525 2.21764,-0.002 0.46051,-0.0547 0.89361,-0.1535 1.4237,-0.41034 0.53009,-0.25683 1.26106,-1.1863 1.37262,-1.6402 0.11157,-0.45385 0.13111,-0.93414 0.0449,-1.4016 -0.0862,-0.46753 -0.259,-0.88514 -0.48287,-1.2365 -0.22393,-0.3514 -0.47783,-0.6442 -1.65856,-1.5347 -1.18073,-0.8905 -2.77063,-2.05345 -4.02197,-3.0385 -1.2513,-0.9851 -2.1491,-1.7764 -2.6591,-2.30456 -0.51004,-0.5282 -0.5473,-0.63524 -0.8148,-1.29104 -0.26744,-0.65574 -0.6628,-1.6536 -0.99864,-2.62876 -0.33582,-0.97524 -0.57532,-1.94304 -0.76001,-2.89051 -0.18465,-0.94753 -0.30045,-1.88173 -0.22131,-2.27398 0.0792,-0.39225 0.33856,-1.35901 0.53786,-2.16365 0.19926,-0.8047 0.3408,-1.45946 0.4413,-2.0172 0.10055,-0.55774 0.144,-1.2479 0.1034,-2.2897 -0.0406,-1.0417 -0.0918,-2.5677 -0.085,-3.8453 0.007,-1.27766 0.0358,-2.2919 0.0905,-3.0104 0.0548,-0.7185 0.12495,-1.0764 0.2381,-1.50707 0.1132,-0.4306 0.2299,-0.8244 0.4347,-1.37783 0.20483,-0.5533 0.50085,-1.2435 0.8738,-2.0599 0.3729,-0.81635 0.83726,-1.74555 2.4308,-2.6382 1.5936,-0.89263 6.05166,-3.6751 8.2143,-5.34026 2.1626,-1.66514 3.90084,-3.04187 5.3348,-4.23924 1.43396,-1.1974 2.5892,-2.2185 3.5081,-3.1301 0.9189,-0.91155 1.7809,-1.99974 2.2668,-3.62773 0.4859,-1.62797 0.34985,-3.03052 -0.40546,-4.45687 -0.75531,-1.42625 -1.90084,-2.3655 -2.92889,-2.7877 -1.02805,-0.4221 -1.17845,-0.44934 -1.96515,-0.65674 -0.7866,-0.20746 -1.7415,-0.41066 -2.76605,-0.57739 -1.02455,-0.16681 -2.12175,-0.32157 -3.29955,-0.44667 -1.1778,-0.125 -2.19764,-0.2255 -3.53566,-0.327 -1.33801,-0.10145 -3.14367,-0.0272 -5.28698,0.19804 -2.14331,0.22526 -4.69806,0.59052 -7.69846,1.11121 -3.00046,0.52069 -6.1329,1.10605 -6.56393,1.02985 -0.43097,-0.0763 -1.21332,-0.0952 -1.82247,-0.1177 -0.6091,-0.0224 -1.02665,-0.0461 -1.17894,-0.0582 -0.15226,-0.012 0.0799,0.0292 -2.21692,-0.46595 -2.29684,-0.49512 -4.2926,-0.88849 -5.98639,-1.17625 -1.69378,-0.28786 -3.12695,-0.4707 -4.46515,-0.5292 -1.3382,-0.0584 -2.03906,0.0198 -3.3383,0.1217 -1.2993,0.1019 -2.61915,0.28126 -3.8669,0.5304 -1.24774,0.2491 -2.4369,0.58326 -3.5856,1.0356 -1.1488,0.4523 -2.07174,0.95336 -3.86514,2.152 -1.79336,1.19876 -3.42822,2.81204 -4.62341,4.8095 -1.19519,1.9975 -1.82665,4.2589 -1.84215,6.55357 -0.0155,2.29473 0.58867,4.80263 1.7422,7.18969 1.1534,2.38709 2.39817,4.43394 3.7866,6.28479 1.38836,1.85075 2.93365,3.48945 4.63464,4.89695 1.70092,1.4076 1.49511,0.34603 2.09112,-2.97117 0.59604,-3.31723 -0.55981,-2.89428 -2.18793,-2.35703 -1.62813,0.53715 -3.70648,1.1511 -6.20813,1.87644 -2.50164,0.72536 -5.558,1.57576 -6.5602,2.04602 -1.00223,0.47028 -1.7089,0.94024 -2.39414,1.56751 -0.68516,0.6272 -1.3028,1.46823 -1.72436,2.52373 -0.4215,1.0555 -0.48475,1.5598 -0.5576,2.7186 -0.0729,1.1588 0.0882,2.4849 0.4491,3.7755 0.3609,1.29064 0.8673,2.6028 1.51957,3.9768 0.65228,1.37396 1.51083,2.89557 5.6275,9.49743 4.1167,6.60193 4.52789,7.23084 5.00743,7.82767 0.47957,0.5967 1.0144,1.1443 1.59785,1.6413 0.58345,0.497 1.21115,0.9441 1.93268,1.3739 0.72162,0.42984 2.34997,1.16495 3.95017,1.7503 1.60025,0.58524 3.1739,1.03275 4.7177,1.34885 1.54374,0.31605 3.0571,0.49921 4.4612,0.50915 1.40414,0.01 2.0716,0.0488 3.5063,-0.0595 1.4347,-0.10834 3.4642,-0.39527 6.14716,-0.8503 2.68299,-0.45506 6.02558,-1.1306 7.88104,-1.90404 3.9953,-0.99786 1.81007,-1.20626 3.9499,-1.43072 z"
             id="path50938" /></g><g
           style="fill:#000000;fill-opacity:1;stroke-linejoin:miter"
           id="g50944"
           transform="matrix(0.0212301,0.88760364,-0.82571352,0.02282136,2056.9295,403.92004)"><path
             d="m 548.95056,934.3463 c -0.74586,-0.4003 -2.11853,-0.8928 -3.24451,-1.29216 -1.12591,-0.39934 -1.99639,-0.72724 -2.59429,-0.98034 -0.59791,-0.2531 -0.87891,-0.40736 -1.20406,-0.5836 -0.3251,-0.1763 -0.5022,-0.2898 -0.6038,-0.3851 -0.1016,-0.0953 -0.1329,-0.1583 -0.11616,-0.1746 0.0167,-0.0163 0.0528,0.007 0.0339,-0.13826 -0.0188,-0.14564 -0.0301,-0.35684 -0.0394,-0.72748 -0.009,-0.37066 -0.003,-0.87866 0.0347,-1.51166 0.0374,-0.633 0.0929,-1.3851 0.14736,-2.0499 0.0544,-0.66494 0.10638,-1.10903 0.17054,-1.5061 0.0641,-0.3971 0.1391,-0.7455 0.22124,-1.0426 0.0822,-0.297 0.16461,-0.5419 0.45196,-1.00076 0.2873,-0.45894 0.9446,-1.51474 1.4381,-2.68774 0.4935,-1.173 1.0762,-2.3272 1.6914,-3.4944 0.61526,-1.1671 1.2529,-2.355 1.64285,-3.0477 0.38989,-0.6927 0.48822,-0.88454 0.56965,-1.0877 0.0814,-0.20316 0.1432,-0.4163 0.18206,-0.6363 0.0389,-0.22005 0.0534,-0.44326 -0.0547,-0.9663 -0.10807,-0.523 -0.28017,-0.89957 -0.47997,-1.2648 -0.1999,-0.3653 -0.4278,-0.7183 -0.68495,-1.05756 -0.25705,-0.33924 -0.53855,-0.66684 -0.77069,-0.92511 -0.23212,-0.25823 -0.65026,-0.68719 -1.29106,-1.25363 -0.6408,-0.5665 -1.5327,-1.29043 -2.68446,-2.1774 -1.15184,-0.88696 -2.57344,-1.9311 -3.62574,-2.94104 -1.05237,-1.00996 -1.05237,-1.00996 -0.36956,-0.31826 0,0 1.3092,1.4388 2.25906,2.7945 0.95,1.35573 1.7175,2.45125 2.2924,3.2897 0.5749,0.83843 0.9433,1.41625 1.1096,1.74505 0.16627,0.3288 0.37806,0.68878 0.52,0.97851 0.14193,0.28974 0.2578,0.57084 0.3533,0.84074 0.0956,0.2699 0.1681,0.53097 0.2077,0.74246 0.0396,0.21148 -0.01,-0.16706 -0.0165,-0.19013 -0.007,-0.0231 -0.0117,-0.0441 -0.0175,-0.0583 -0.006,-0.0141 -0.0153,-0.0194 -0.0336,-0.012 -0.0182,0.007 -0.9328,1.07656 -1.81263,2.1715 -0.87975,1.09494 -1.69725,2.212 -2.4795,3.3333 -0.78227,1.1213 -1.60325,2.2073 -2.15763,3.46116 -0.55437,1.25391 -0.77157,1.99734 -0.84557,2.47794 -0.074,0.4807 -0.1138,0.9798 -0.12666,1.49923 -0.0129,0.51941 -8e-4,1.06104 0.0349,1.61841 0.0357,0.55736 0.11095,1.42856 0.20068,2.20066 0.0897,0.7722 0.18517,1.4405 0.28192,2.0137 0.0968,0.57324 0.20965,1.0636 0.34155,1.45324 0.1319,0.38971 0.2592,0.71112 0.52064,1.11072 0.26141,0.39964 0.59586,0.71584 0.96899,0.95117 0.37311,0.23542 0.77267,0.40377 1.11524,0.49402 0.34259,0.0902 0.59703,0.20195 1.22009,0.35529 0.62304,0.15332 1.44534,0.25896 2.50064,0.35016 1.0553,0.0911 2.3566,0.15136 3.11526,0.0354 1.55224,0.0228 0.83364,-0.5447 1.6272,-0.4059 z"
             id="path50942" /></g><g
           style="fill:#000000;fill-opacity:1;stroke-linejoin:miter"
           id="g50948"
           transform="matrix(0.0212301,0.88760364,-0.82571352,0.02282136,2056.9295,403.92004)"><path
             d="m 557.73505,934.6362 c 0.32595,-1.0009 0.60805,-2.81613 0.82092,-4.35245 0.21289,-1.53631 0.36473,-2.79305 0.49393,-3.76629 0.12924,-0.97336 0.2288,-1.65566 0.2847,-2.18426 0.056,-0.52863 0.0664,-0.9313 0.0641,-1.3255 -0.002,-0.3943 -0.0175,-0.78047 -0.0407,-1.15956 -0.0233,-0.37904 -0.0604,-0.75064 -0.0689,-0.95114 -0.008,-0.20047 -0.0941,-0.6956 -0.23526,-1.3242 -0.14126,-0.6286 -0.35324,-1.48796 -0.86593,-2.51946 -0.51264,-1.03149 -1.11637,-2.31091 -1.55417,-3.21104 -0.4377,-0.9002 -0.67356,-1.3429 -1.0477,-2.0618 -0.37415,-0.71885 -0.8945,-1.70085 -1.5629,-2.9419 -0.6684,-1.24094 -1.4957,-2.73606 -2.0971,-3.77793 -0.6014,-1.04181 -0.8554,-1.42307 -1.098,-1.76514 -0.2426,-0.34213 -0.445,-0.66033 -0.61694,-0.95353 -0.172,-0.29323 -0.3396,-0.54805 -0.46316,-0.7199 -0.1236,-0.17184 -0.1236,-0.17184 -0.0412,-0.0573 0,0 0.16476,0.22915 0.3338,0.4967 0.1691,0.26766 0.3425,0.5737 0.47757,0.93905 0.13503,0.36535 0.25287,0.77605 0.36627,1.2196 0.1134,0.44355 0.49266,2.31171 0.83976,3.88545 0.3471,1.57366 0.6481,2.8549 0.8998,3.8465 0.25165,0.99156 0.45307,1.69756 0.57153,2.0899 0.11841,0.3923 0.50107,1.9126 0.81293,3.181 0.31189,1.26846 0.48344,2.2893 0.77161,2.96786 0.28813,0.67854 0.44543,1.07318 0.48173,1.18969 0.0363,0.11655 0.1472,0.49732 0.2261,0.76362 0.079,0.26633 0.15124,0.54998 0.2107,0.85137 0.0594,0.3014 0.1112,0.61936 0.15776,0.91486 0.0466,0.2955 0.0673,0.78564 0.12909,1.6177 0.0617,0.83207 0.15839,1.92686 0.31375,3.2915 0.15537,1.3646 0.3783,3.00096 0.6875,3.90965 0.31327,1.90881 0.7443,0.9068 0.74845,1.90695 z"
             id="path50946" /></g><g
           style="fill:#000000;fill-opacity:1;stroke-linejoin:miter"
           id="g50952"
           transform="matrix(0.0212301,0.88760364,-0.82571352,0.02282136,2056.9295,403.92004)"><path
             d="m 564.6389,918.86115 -2.42577,-4.91169 -0.85113,-1.72351 3.2769,6.6352"
             id="path50950" /></g><g
           style="fill:#000000;fill-opacity:1;stroke-linejoin:miter"
           id="g50956"
           transform="matrix(0.0212301,0.88760364,-0.82571352,0.02282136,2056.9295,403.92004)"><path
             d="m 555.4093,867.8213 c 0.3092,-0.2037 0.79914,-0.653 1.2329,-1.05824 0.4338,-0.40521 0.8105,-0.76766 1.1275,-1.09076 0.31703,-0.3231 0.58064,-0.60425 1.36555,-1.59796 0.78495,-0.99364 2.06295,-2.71204 2.6269,-3.49964 0.56395,-0.7876 1.06555,-1.5566 1.36419,-2.36785 0.29871,-0.81128 0.54999,-1.58175 0.74402,-2.31549 0.19397,-0.73383 0.33254,-1.43061 0.43694,-2.18876 0.10444,-0.7582 0.17964,-1.4138 0.2237,-1.9765 0.044,-0.5627 0.0575,-1.03494 0.0441,-1.42373 -0.0135,-0.38873 -0.0578,-0.68907 -0.16446,-1.10787 -0.10654,-0.41874 -0.27414,-0.9016 -0.50414,-1.4498 -0.2299,-0.5482 -0.5176,-1.1657 -0.7473,-1.6685 -0.2298,-0.50284 -0.2298,-0.50284 -0.1246,-0.15365 0,0 0.0667,0.74015 0.12885,1.37689 0.0622,0.63676 0.0915,1.17656 0.094,1.61371 0.003,0.43715 -0.0254,0.77605 -0.0719,0.99935 -0.0466,0.2232 -0.14331,0.5492 -0.29322,0.9731 -0.1499,0.42403 -0.34473,0.9435 -0.59198,1.55434 -0.24725,0.61086 -0.54265,1.2973 -0.81768,1.85986 -0.27503,0.5626 -0.59821,1.16504 -1.04227,1.7723 -0.44406,0.6072 -0.73404,1.3519 -1.0611,2.1547 -0.3272,0.80274 -0.69735,1.66566 -1.55044,3.6227 -0.85316,1.9571 -0.96302,2.1971 -1.13562,2.53954 -0.17254,0.34246 -0.38788,0.7492 -0.6388,1.22369 -0.25097,0.47447 -0.54181,1.01233 -0.65504,1.33771 -0.33116,0.60046 0.22786,0.59582 0.01,0.87086 z"
             id="path50954" /></g><g
           style="fill:#000000;fill-opacity:1;stroke-linejoin:miter"
           id="g50960"
           transform="matrix(0.0212301,0.88760364,-0.82571352,0.02282136,2056.9295,403.92004)"><path
             d="m 565.8753,868.71454 c 0.0348,-0.0639 0.0788,-0.18874 0.11786,-0.30314 0.0391,-0.1144 0.0733,-0.2185 0.10279,-0.3128 0.0294,-0.0943 0.0539,-0.1789 0.0693,-0.22775 0.0154,-0.0489 0.0361,-0.12421 0.0682,-0.24375 0.0321,-0.11965 0.0764,-0.2881 0.1331,-0.5066 0.0566,-0.21846 0.12565,-0.4872 0.17686,-0.67915 0.0511,-0.19195 0.0777,-0.28461 0.10474,-0.37615 0.027,-0.0916 0.0537,-0.1826 0.08,-0.27284 0.0263,-0.0904 0.053,-0.17966 0.10945,-0.35706 0.0564,-0.17737 0.1419,-0.44104 0.008,-0.72876 -0.1337,-0.28774 -0.12904,-0.53814 -0.12227,-0.77447 0.007,-0.23633 0.0159,-0.45832 0.0233,-0.60761 0.007,-0.14936 0.008,-0.22466 0.007,-0.29926 -0.001,-0.0746 -0.004,-0.14855 -0.008,-0.2217 -0.005,-0.0731 -0.0108,-0.1457 -0.0203,-0.22525 -0.009,-0.0796 -0.0204,-0.1543 -0.0303,-0.21775 -0.01,-0.0636 -0.0186,-0.11593 -0.0263,-0.1576 -0.008,-0.0417 -0.0145,-0.0739 -0.0233,-0.11007 -0.009,-0.0361 -0.0242,-0.0989 -0.0437,-0.17133 -0.0196,-0.0724 -0.0435,-0.1548 -0.0718,-0.24706 -0.0282,-0.0923 -0.0609,-0.1947 -0.0843,-0.30604 -0.0234,-0.1113 -0.0468,-0.2339 -0.0764,-0.37176 -0.0296,-0.13788 -0.0656,-0.29114 -0.10784,-0.45977 -0.0422,-0.16867 -0.0908,-0.3526 -0.1304,-0.49827 -0.0395,-0.1458 -0.0395,-0.1458 -0.0132,-0.0486 0,0 0.0528,0.19427 0.0992,0.37316 0.0465,0.17884 0.0866,0.34234 0.1205,0.49048 0.0339,0.14816 0.0614,0.28086 0.0826,0.39831 0.0213,0.11735 0.0277,0.23095 0.0254,0.33435 -0.002,0.1034 -0.005,0.1953 -0.009,0.2757 -0.004,0.0804 -0.009,0.1491 -0.0145,0.2072 -0.006,0.0581 -0.007,0.0803 -0.0104,0.1088 -0.004,0.0285 -0.0103,0.07 -0.0193,0.12333 -0.009,0.0534 -0.0204,0.11823 -0.0345,0.19337 -0.0142,0.0751 -0.0289,0.13756 -0.0454,0.20183 -0.0164,0.0643 -0.0344,0.12837 -0.054,0.19202 -0.0195,0.0636 -0.0405,0.12701 -0.0625,0.18701 -0.0221,0.06 -0.10196,0.25914 -0.185,0.47717 -0.083,0.21797 -0.1684,0.45037 -0.4329,0.66657 -0.2644,0.2162 -0.2713,0.4937 -0.27586,0.78534 -0.005,0.29162 -0.006,0.39856 -0.005,0.49866 6.7e-4,0.10015 0.002,0.20074 0.005,0.30175 0.003,0.10105 0.008,0.20265 0.0125,0.30845 0.005,0.1058 0.0283,0.41885 0.0477,0.67654 0.0193,0.25766 0.0342,0.46316 0.0447,0.61596 0.0104,0.1528 0.0166,0.2514 0.0183,0.2992 0.002,0.0479 0.005,0.12744 0.008,0.2107 0.003,0.0833 0.005,0.1797 0.006,0.2887 5.4e-4,0.109 -1.2e-4,0.2305 0.0103,0.2971 -0.002,0.134 0.4384,0.14546 0.426,0.21284 z"
             id="path50958" /></g><g
           style="fill:#000000;fill-opacity:1;stroke-linejoin:miter"
           id="g50964"
           transform="matrix(0.0212301,0.88760364,-0.82571352,0.02282136,2056.9295,403.92004)"><path
             d="m 531.15796,879.66956 c 0.93294,0.76044 2.74764,1.78021 4.28794,2.57214 1.5404,0.7919 2.803,1.3736 3.78493,1.7939 0.98194,0.4203 1.72557,0.6705 2.4209,0.8056 0.69527,0.135 1.49152,0.2142 2.26757,0.162 0.77613,-0.0522 1.5421,-0.2955 2.2383,-0.79715 0.69616,-0.5017 1.19585,-1.24041 1.40765,-1.63425 0.21179,-0.3938 0.51305,-1.1359 0.67669,-1.919 0.1637,-0.7832 0.21796,-1.6114 0.18226,-2.498 -0.0357,-0.88655 -0.1468,-1.84254 -0.3189,-2.72176 -0.17213,-0.87921 -0.4136,-1.68064 -0.76753,-2.66778 -0.35387,-0.98706 -0.83617,-2.18696 -1.44117,-3.61796 -0.605,-1.43105 -1.3222,-3.1044 -1.90014,-3.9535 -0.57796,-0.84913 -0.70116,-1.1384 -0.79176,-1.40755 -0.0906,-0.2691 -0.15166,-0.51955 -0.18663,-0.75531 -0.035,-0.23577 -0.046,-0.46154 0.0377,-1.1607 0.0836,-0.6991 0.2611,-1.8393 0.4292,-2.83764 0.16814,-0.99836 0.33696,-1.8495 0.51573,-2.54285 0.17871,-0.6933 0.34447,-1.2259 0.50877,-1.66309 0.1643,-0.43719 0.29476,-0.79286 0.44485,-1.16541 0.15005,-0.37255 0.32019,-0.76115 0.51065,-1.16555 0.1905,-0.4043 0.4011,-0.8237 0.82254,-1.4971 0.42146,-0.6734 1.08001,-1.66266 1.61856,-2.5435 0.5386,-0.8809 0.9685,-1.6453 1.2986,-2.2909 0.3301,-0.64565 0.5561,-1.183 0.6955,-1.5745 0.1394,-0.39146 0.2896,-0.8655 0.428,-1.451 0.13835,-0.5855 0.26006,-1.2921 0.37554,-2.1205 0.11541,-0.82844 0.29492,-1.7611 0.49816,-2.50526 0.20325,-0.74414 0.20325,-0.74414 0.0677,-0.24804 0,0 -0.27099,0.9922 -0.6336,1.8261 -0.36261,0.8339 -0.72165,1.532 -1.03675,2.1028 -0.3151,0.5708 -0.58416,1.0107 -0.81787,1.33074 -0.23373,0.31996 -0.47326,0.6593 -0.82757,1.07116 -0.35436,0.4118 -0.84223,0.9342 -1.4646,1.55884 -0.62246,0.62466 -1.3667,1.35866 -2.24921,2.22852 -0.88251,0.86994 -1.29205,1.38734 -1.60809,1.79858 -0.3161,0.41132 -0.61243,0.81806 -0.88892,1.22083 -0.27644,0.40273 -0.53314,0.802 -0.75774,1.18109 -0.2246,0.37909 -0.545,0.93091 -0.8847,1.66571 -0.3398,0.73486 -0.67866,1.58313 -1.0314,2.55143 -0.35265,0.96834 -0.7069,2.0652 -1.0614,3.30636 -0.3544,1.24114 -0.47454,1.87164 -0.5256,2.47744 -0.0512,0.60575 -0.0411,1.218 0.0272,1.83115 0.0684,0.6131 0.1919,1.22475 0.41016,1.93091 0.2182,0.70614 0.93624,2.62664 1.7832,4.07674 0.84698,1.45005 1.531,2.6672 2.05054,3.6426 0.5195,0.9754 0.8935,1.6844 1.0776,2.0813 0.18405,0.3969 0.4132,1.162 0.56906,1.83144 0.15589,0.66946 0.23804,1.21142 0.26814,1.61181 0.0301,0.40045 0.0234,0.6493 -0.0661,0.91625 -0.0893,0.26704 -0.16571,0.6087 -0.064,0.5308 0.1017,-0.0779 0.1489,-0.0699 0.0107,0.006 -0.1382,0.076 -0.48297,0.15586 -1.02374,0.177 -0.54076,0.0212 -0.84186,0.0141 -1.54413,-0.0994 -0.70233,-0.1135 -1.78823,-0.3277 -3.22143,-0.65245 -1.4333,-0.32471 -3.21893,-0.7243 -4.2993,-0.76099 -2.1465,-0.4447 -1.2361,0.36988 -2.30214,-0.0382 z"
             id="path50962" /></g></g></g></g></svg>
