<?xml version="1.0" encoding="UTF-8" standalone="no"?>
<svg
   version="1.1"
   width="135.38521"
   height="135.38521"
   viewBox="0 0 135.38521 135.38521"
   id="svg1214"
   xmlns="http://www.w3.org/2000/svg"
   xmlns:svg="http://www.w3.org/2000/svg">
  <defs
     id="defs1218" />
  <g
     id="g7092"
     transform="translate(-250.48431,-989.19946)">
    <rect
       style="display:inline;opacity:0.5;fill:none;fill-opacity:1;stroke:none;stroke-width:2.66644;stroke-dasharray:none;stroke-opacity:1"
       id="rect5337"
       width="135.38521"
       height="135.38521"
       x="250.48431"
       y="989.19946" />
    <g
       id="g4258"
       transform="matrix(0.93661312,0,0,0.93661312,200.49047,39.78616)">
      <g
         style="fill:#000000;fill-opacity:1;stroke-linejoin:miter"
         id="g503"
         transform="rotate(90,259.41968,748.93978)">
        <path
           d="m 637.2368,924.3879 c -2.1952,-0.31637 -6.0437,-0.2309 -9.18724,-0.11434 -3.14362,0.11654 -5.58686,0.19177 -7.31846,0.20694 -1.7316,0.0152 -2.7075,-0.0304 -3.6458,-0.12955 -0.9383,-0.0991 -2.14444,-0.27385 -3.3855,-0.56015 -1.24094,-0.28634 -2.51474,-0.70364 -3.8282,-1.2344 -1.31343,-0.5307 -2.66567,-1.1834 -3.53993,-1.6759 -0.87421,-0.49256 -1.27491,-0.78724 -1.62903,-1.0879 -0.35414,-0.30066 -0.66084,-0.6114 -0.92328,-0.93207 -0.26246,-0.32067 -0.48376,-0.65246 -2.48726,-4.20178 -2.0035,-3.54931 -5.8015,-10.29335 -6.39824,-11.51935 -0.59676,-1.226 -1.04756,-2.3139 -1.34476,-3.2331 -0.2973,-0.9192 -0.44705,-1.65307 -0.4733,-2.173 -0.0262,-0.52 0.0753,-1.0336 0.0717,-1.0947 -0.004,-0.0611 -0.0232,-0.0221 0.0141,-0.0599 0.0374,-0.0378 0.1682,-0.13964 0.4077,-0.27644 0.2395,-0.1368 0.35233,-0.21136 3.18125,-0.9055 2.82892,-0.69416 5.27675,-1.3279 7.3197,-1.8956 2.04295,-0.56767 3.68715,-1.0718 4.95205,-1.5221 1.2649,-0.4502 3.06504,-3.5488 1.44035,-4.8558 -1.62465,-1.30695 -2.78839,-2.4011 -3.87715,-3.70326 -1.08873,-1.30218 -2.1009,-2.81784 -3.03264,-4.55124 -0.93171,-1.7335 -1.74216,-3.58566 -1.8888,-4.6563 -0.1466,-1.07053 -0.0525,-2.0149 0.27429,-2.8474 0.32675,-0.8325 0.91425,-1.615 1.82471,-2.37114 0.9104,-0.75616 2.25501,-1.50971 2.76214,-1.75346 0.50715,-0.24373 1.138,-0.4568 1.91975,-0.64236 0.78175,-0.18554 1.70945,-0.3363 2.77785,-0.44694 1.06834,-0.1107 2.34336,-0.1829 2.84513,-0.2109 0.50177,-0.028 1.36902,0.0442 2.63667,0.2276 1.2677,0.1834 2.9087,0.4795 4.9104,0.8879 2.0017,0.40843 4.37475,0.93205 4.76726,0.98863 0.39254,0.0565 0.8692,0.094 1.47294,0.12377 0.60385,0.0298 1.3466,0.0536 2.23434,0.0723 0.88776,0.0186 2.25799,0.007 5.51496,-0.65975 3.257,-0.66715 5.9699,-1.16595 8.18536,-1.50629 2.21544,-0.34033 3.92004,-0.52256 5.06494,-0.55511 1.1449,-0.0326 1.9137,0.0865 3.08,0.169 1.1663,0.0824 2.1901,0.17865 3.1116,0.29115 0.92156,0.1125 1.739,0.2404 2.44914,0.3818 0.71016,0.1415 1.39002,0.3144 1.44672,0.3156 0.0567,10e-4 -0.15096,-0.1042 -0.40786,-0.385 -0.2568,-0.2809 -0.39646,-0.662 -0.40244,-0.9177 -0.006,-0.2557 0.23254,-0.7782 -0.16466,-0.3295 -0.39723,0.4486 -1.1718,1.2129 -2.27614,2.2176 -1.10431,1.0048 -2.52906,2.23843 -4.2688,3.6954 -1.7398,1.457 -3.69796,3.06275 -7.98136,5.93274 -4.28347,2.87 -5.3313,4.67806 -5.77035,5.70016 -0.43905,1.022 -0.80555,1.9535 -1.09995,2.79966 -0.29445,0.84619 -0.51674,1.61384 -0.6561,2.26714 -0.13933,0.6533 -0.2639,1.2472 -0.3407,2.12104 -0.0768,0.8739 -0.0951,1.92166 -0.0632,3.17076 0.0319,1.24916 0.11235,2.709 0.24064,4.3854 0.1283,1.6764 0.14016,1.6517 0.12146,1.7833 -0.0186,0.1317 -0.0879,0.5542 -0.209,1.1809 -0.121,0.62674 -0.29246,1.4443 -0.53697,2.6244 -0.24457,1.1801 -0.0736,2.67183 0.17212,3.8533 0.24565,1.18145 0.59115,2.35235 1.02595,3.512 0.4348,1.1597 0.9552,2.3076 1.53545,3.41414 0.5802,1.1065 0.85885,1.67871 1.54755,2.432 0.6887,0.75326 1.6343,1.50956 2.8693,2.36596 1.23507,0.85633 2.78695,1.8141 4.6432,2.8829 1.85633,1.0688 1.75373,0.99455 1.77955,1.0101 0.0259,0.0156 0.0208,-0.005 0.005,-0.0651 -0.0158,-0.06 -0.0216,-0.14585 -0.0233,-0.14115 -0.002,0.005 0.10784,-0.304 0.36524,-0.5828 0.25744,-0.2788 0.2298,-0.26256 0.0231,-0.20116 -0.20664,0.0614 -0.5502,0.12976 -0.9555,0.20066 -0.4053,0.0709 -2.0733,0.12783 -3.8768,0.2289 -1.8036,0.101 -3.69685,0.2492 -5.67884,0.462 -1.98196,0.21275 -4.05072,0.5119 -5.6377,0.87553 -1.58706,0.36371 -1.58706,0.36371 -0.51892,0.29837 0,0 2.16656,0.40036 4.21036,0.4709 2.0437,0.0705 3.9861,0.1262 5.82926,0.1914 1.84314,0.0653 3.58714,0.14224 4.77994,0.1707 1.1928,0.0284 1.6917,-0.0204 2.117,-0.083 0.4254,-0.0626 0.79947,-0.1509 1.2006,-0.346 0.4011,-0.195 0.8978,-0.82456 0.97576,-1.1575 0.078,-0.33295 0.0926,-0.6918 0.0252,-1.0412 -0.0674,-0.3495 -0.2027,-0.6649 -0.38034,-0.93726 -0.17762,-0.2724 -0.38496,-0.50674 -1.52381,-1.29214 -1.13891,-0.78544 -2.77995,-1.9021 -4.0899,-2.8549 -1.30995,-0.9528 -2.28321,-1.72937 -2.88349,-2.3085 -0.60022,-0.5791 -0.79449,-0.8484 -1.11436,-1.5416 -0.3199,-0.69317 -0.78597,-1.7174 -1.17165,-2.7365 -0.38562,-1.01917 -0.69159,-2.0329 -0.94091,-3.03626 -0.24927,-1.00329 -0.43274,-2.00204 -0.39784,-2.71197 0.0349,-0.70997 0.24476,-1.67591 0.4074,-2.46947 0.1627,-0.7936 0.2789,-1.4211 0.3508,-1.9106 0.0718,-0.4895 0.0945,-0.95667 0.0109,-1.9375 -0.0836,-0.9808 -0.1922,-2.53064 -0.2532,-3.84534 -0.0611,-1.31466 -0.0753,-2.38806 -0.0461,-3.20496 0.0292,-0.8168 0.092,-1.34795 0.189,-1.8407 0.0971,-0.49267 0.2223,-1.01324 0.4248,-1.6633 0.2025,-0.6501 0.48306,-1.41964 0.84146,-2.3014 0.35834,-0.8817 0.79424,-1.8722 2.80224,-3.4092 2.00806,-1.5369 6.29084,-4.40215 8.31024,-6.0622 2.01941,-1.66 3.6861,-3.0696 5.05072,-4.26836 1.36469,-1.19879 2.43254,-2.19254 3.22084,-3.00391 0.7883,-0.81133 1.3607,-1.54643 1.5593,-2.25143 0.1986,-0.705 0.13954,-1.309 -0.176,-1.90335 -0.3155,-0.59445 -0.80354,-0.99275 -1.27894,-1.18435 -0.47546,-0.1915 -0.66166,-0.21976 -1.39966,-0.3922 -0.7379,-0.17235 -1.5973,-0.3305 -2.5418,-0.4668 -0.9445,-0.1363 -1.9764,-0.252 -3.0977,-0.3481 -1.12136,-0.0961 -2.2496,-0.1665 -3.3555,-0.2422 -1.1058,-0.0758 -2.68646,0.0166 -4.69665,0.26744 -2.01019,0.25086 -4.47555,0.65759 -7.40905,1.21996 -2.9336,0.5623 -6.2312,1.2604 -7.02894,1.23316 -0.79766,-0.0272 -1.60886,-0.0469 -2.2622,-0.071 -0.65336,-0.0241 -1.14296,-0.0521 -1.44483,-0.0796 -0.30183,-0.0274 -0.37733,-0.0409 -2.64868,-0.53075 -2.27145,-0.4898 -4.20935,-0.8718 -5.81345,-1.14466 -1.60415,-0.27284 -2.8879,-0.43689 -3.905,-0.48564 -1.0171,-0.0488 -1.5916,0.0216 -2.838,0.11076 -1.2464,0.0892 -2.41584,0.23184 -3.47834,0.42934 -1.06246,0.1974 -2.02246,0.45494 -2.88611,0.7834 -0.86358,0.32846 -1.5697,0.7051 -3.06531,1.6678 -1.4956,0.9627 -2.71991,2.14534 -3.58274,3.5374 -0.8628,1.39206 -1.31484,2.9581 -1.3422,4.6177 -0.0273,1.6597 0.3718,3.4764 1.3594,5.6037 0.98766,2.1273 2.0715,4.00336 3.2744,5.6757 1.20295,1.67245 2.5278,3.13705 3.9755,4.3865 1.4476,1.2495 2.2466,1.4518 1.89316,0.43774 -0.35339,-1.01404 -1.61896,-0.58929 -3.32166,-0.0863 -1.7027,0.50306 -3.8317,1.0794 -6.381,1.72676 -2.54923,0.6473 -5.5715,1.3787 -6.2468,1.6878 -0.67536,0.3091 -1.18146,0.63133 -1.6323,1.0316 -0.45083,0.40033 -0.82754,0.902 -1.07547,1.50574 -0.24798,0.60376 -0.29783,0.98376 -0.37723,1.86981 -0.0794,0.88605 0.026,1.92371 0.29703,3.02735 0.27094,1.10363 0.69422,2.2947 1.26467,3.5909 0.5705,1.2962 1.3065,2.7415 5.1156,9.5055 3.8091,6.76395 4.14897,7.318 4.55235,7.84226 0.40345,0.52429 0.85919,1.01164 1.36355,1.46104 0.50425,0.4494 1.0548,0.8612 1.6815,1.2504 0.62676,0.3892 2.178,1.137 3.6995,1.748 1.52156,0.6111 3.0152,1.0927 4.48415,1.42996 1.46895,0.33734 2.90771,0.54354 4.26925,0.60169 1.3614,0.0581 2.0114,0.11205 3.3961,0.0441 1.38464,-0.068 3.40154,-0.27084 6.08495,-0.617 2.68345,-0.3461 6.03809,-0.85403 7.90882,-1.4649 4.01063,-0.83524 1.85603,-0.75113 3.99583,-0.9756 z"
           id="path501" />
      </g>
      <g
         style="fill:#000000;fill-opacity:1;stroke-linejoin:miter"
         id="g507"
         transform="rotate(90,259.41968,748.93978)">
        <path
           d="m 548.92523,934.49115 c -0.7489,-0.38672 -2.13513,-0.81592 -3.27653,-1.15935 -1.1415,-0.3434 -2.0313,-0.624 -2.65724,-0.8468 -0.62592,-0.2228 -0.95546,-0.3821 -1.27076,-0.5392 -0.31537,-0.15716 -0.5362,-0.2685 -0.6915,-0.3762 -0.1554,-0.10775 -0.2473,-0.2045 -0.29037,-0.2793 -0.0431,-0.0748 -0.0582,-0.1304 -0.10023,-0.30745 -0.042,-0.17705 -0.08,-0.43145 -0.1092,-0.8288 -0.0292,-0.39735 -0.0425,-0.92291 -0.0373,-1.5686 0.005,-0.64569 0.0297,-1.40825 0.0575,-2.08255 0.0278,-0.6743 0.0575,-1.14053 0.10424,-1.56467 0.0467,-0.42407 0.10896,-0.80483 0.1802,-1.14133 0.0712,-0.3366 0.152,-0.6277 0.45775,-1.198 0.30575,-0.5704 0.9414,-1.6594 1.53772,-2.7936 0.59637,-1.13416 1.2229,-2.27857 1.89003,-3.4273 0.6671,-1.14875 1.3728,-2.3035 1.7899,-2.9627 0.4172,-0.6593 0.5045,-0.8211 0.5768,-0.99153 0.0723,-0.17041 0.1275,-0.34847 0.16343,-0.53207 0.0359,-0.1835 0.0514,-0.37003 -0.0345,-0.8016 -0.086,-0.43165 -0.2374,-0.7923 -0.4132,-1.1465 -0.1758,-0.3542 -0.38076,-0.6993 -0.6111,-1.03686 -0.2303,-0.33754 -0.4889,-0.6651 -0.70154,-0.93874 -0.21256,-0.27366 -0.59296,-0.709 -1.18946,-1.30687 -0.59643,-0.59778 -1.4348,-1.3692 -2.5247,-2.31549 -1.0899,-0.94629 -2.4719,-2.03014 -3.5794,-2.98584 -1.10757,-0.9557 -1.10757,-0.9557 -0.42476,-0.264 0,0 1.19876,1.5473 2.19926,2.8533 1.00044,1.3059 1.83034,2.3426 2.45576,3.1383 0.62544,0.7957 1.03494,1.3488 1.2309,1.66956 0.19598,0.32074 0.42517,0.6596 0.59254,0.94909 0.1674,0.28955 0.3088,0.57455 0.43035,0.85215 0.12155,0.27774 0.21315,0.5533 0.27745,0.7937 0.0644,0.2404 0.0305,0.003 0.0234,0.0164 -0.007,0.0135 -0.0163,0.0288 -0.0296,0.049 -0.0133,0.0202 -0.0327,0.0468 -0.0616,0.0823 -0.029,0.0355 -0.87866,1.14533 -1.6959,2.26831 -0.81734,1.12293 -1.58803,2.25391 -2.3185,3.38856 -0.7305,1.13464 -1.4055,2.2814 -1.9752,3.48876 -0.56966,1.2074 -0.74105,1.78774 -0.82064,2.22424 -0.0796,0.4366 -0.13171,0.8987 -0.16036,1.38746 -0.0285,0.48871 -0.0326,1.00531 -0.018,1.54534 0.0144,0.54005 0.0566,1.4049 0.11314,2.166 0.0565,0.76113 0.1229,1.4157 0.2004,1.9687 0.0775,0.55305 0.16924,1.0128 0.2773,1.3686 0.10795,0.3558 0.21,0.639 0.4172,0.9653 0.20717,0.3262 0.4793,0.59275 0.7942,0.80124 0.3149,0.2085 0.6628,0.37201 0.9935,0.47449 0.33066,0.10247 0.58475,0.23023 1.1687,0.38807 0.5839,0.1579 1.37986,0.31 2.41794,0.44836 1.03806,0.1383 2.32346,0.26334 3.07386,0.18584 1.54394,0.0613 0.77465,-0.21654 1.56823,-0.0778 z"
           id="path505" />
      </g>
      <g
         style="fill:#000000;fill-opacity:1;stroke-linejoin:miter"
         id="g511"
         transform="rotate(90,259.41968,748.93978)">
        <path
           d="m 557.5881,934.63684 c 0.29905,-1.00098 0.4959,-2.81664 0.62577,-4.35464 0.12983,-1.5379 0.23223,-2.7976 0.31063,-3.77695 0.0783,-0.97945 0.1462,-1.67345 0.17997,-2.1742 0.0337,-0.50075 0.0327,-0.88975 0.0199,-1.26879 -0.0128,-0.37909 -0.0374,-0.74842 -0.0744,-1.10796 -0.0369,-0.3596 -0.0862,-0.70955 -0.10764,-0.9183 -0.0214,-0.2087 -0.1026,-0.63244 -0.25952,-1.23375 -0.15699,-0.60125 -0.39874,-1.44049 -0.80324,-2.50415 -0.4045,-1.0636 -0.93474,-2.3665 -1.3238,-3.27173 -0.389,-0.90527 -0.60856,-1.36227 -0.9411,-2.10022 -0.33256,-0.73805 -0.7871,-1.74625 -1.37144,-3.01941 -0.58426,-1.2732 -1.30636,-2.80774 -1.85306,-3.87414 -0.5468,-1.06635 -0.7883,-1.45594 -1.0256,-1.8042 -0.23724,-0.3483 -0.46704,-0.656 -0.6885,-0.92274 -0.2214,-0.26676 -0.40464,-0.51171 -0.5282,-0.68356 -0.1236,-0.17184 -0.1236,-0.17184 -0.0412,-0.0573 0,0 0.16476,0.22915 0.3025,0.51516 0.1378,0.28594 0.25923,0.61804 0.38277,0.98559 0.12347,0.36762 0.24768,0.77195 0.37383,1.20539 0.12617,0.43341 0.6017,2.26446 1.0455,3.80176 0.4437,1.5373 0.8248,2.7876 1.1333,3.7558 0.3085,0.96813 0.54527,1.6564 0.6827,2.0469 0.1375,0.3905 0.5958,1.89004 0.97725,3.13723 0.38145,1.24717 0.70375,2.22277 0.96525,2.92304 0.26156,0.70023 0.41085,1.12623 0.44674,1.28369 0.0359,0.15744 0.1261,0.51124 0.19236,0.79844 0.0663,0.28725 0.1244,0.58974 0.17403,0.9074 0.0496,0.31766 0.0906,0.65036 0.12267,0.97336 0.0321,0.32294 0.026,0.82754 0.0476,1.65004 0.0216,0.82243 0.0652,1.91246 0.154,3.2745 0.0889,1.36214 0.2293,2.99733 0.4824,3.9058 0.25724,1.90855 0.3943,0.90776 0.3985,1.90794 z"
           id="path509" />
      </g>
      <g
         style="fill:#000000;fill-opacity:1;stroke-linejoin:miter"
         id="g515"
         transform="rotate(90,259.41968,748.93978)">
        <path
           d="m 564.7022,918.8299 c -0.0423,-0.3006 -0.4608,-1.5946 -0.7911,-2.50336 -0.33035,-0.90874 -0.72946,-1.3548 -1.5041,-2.4729 -0.7746,-1.11804 -1.045,-1.62769 -1.045,-1.62769 0,0 0,0 0,0 0,0 0,0 0.3222,0.91278 0.3222,0.91277 0.7521,2.20117 0.9613,2.74097 0.20924,0.5398 0.94404,1.6775 1.37324,2.2159 0.55686,0.7968 0.55576,0.4758 0.68346,0.7343 z"
           id="path513" />
      </g>
      <g
         style="fill:#000000;fill-opacity:1;stroke-linejoin:miter"
         id="g519"
         transform="rotate(90,259.41968,748.93978)">
        <path
           d="m 555.29407,867.7299 c 0.30903,-0.20335 0.79313,-0.65623 1.20959,-1.0734 0.41651,-0.4171 0.76894,-0.79566 1.068,-1.1284 0.29904,-0.3327 0.54028,-0.6241 1.26614,-1.6405 0.7259,-1.0164 1.9247,-2.7798 2.4416,-3.5828 0.5169,-0.8029 0.9738,-1.5801 1.35146,-2.3383 0.37774,-0.7582 0.65544,-1.5035 0.88177,-2.2115 0.22632,-0.70794 0.40227,-1.37945 0.55267,-2.12005 0.1504,-0.7406 0.2656,-1.38312 0.34144,-1.93595 0.0758,-0.5528 0.12146,-1.01675 0.13202,-1.4012 0.0105,-0.3845 -0.0213,-0.6845 -0.10846,-1.1065 -0.0872,-0.422 -0.2283,-0.912 -0.4303,-1.46974 -0.20197,-0.55766 -0.46924,-1.18396 -0.7699,-1.66606 -0.3007,-0.48214 -0.3007,-0.48214 -0.1955,-0.13295 0,0 -0.0751,0.78155 0.009,1.40935 0.0843,0.6279 0.14563,1.1577 0.17175,1.5891 0.0261,0.43136 0.0164,0.7682 -0.0138,0.99306 -0.0303,0.22479 -0.0991,0.55654 -0.2171,0.98938 -0.11796,0.43286 -0.28086,0.96266 -0.48606,1.58746 -0.2052,0.6248 -0.45285,1.33155 -0.69186,1.91974 -0.23904,0.58826 -0.53214,1.21631 -0.86719,1.8888 -0.33495,0.67256 -0.65855,1.41803 -1.02925,2.21156 -0.37065,0.7935 -0.7926,1.636 -1.7339,3.5433 -0.94144,1.9074 -1.07205,2.15633 -1.2658,2.4884 -0.19376,0.3322 -0.425,0.7301 -0.69773,1.18997 -0.27267,0.4599 -0.57892,0.987 -0.69513,1.31079 -0.33414,0.59884 -0.006,0.41144 -0.22357,0.68644 z"
           id="path517" />
      </g>
      <g
         style="fill:#000000;fill-opacity:1;stroke-linejoin:miter"
         id="g523"
         transform="rotate(90,259.41968,748.93978)">
        <path
           d="m 565.7307,868.6879 c 0.0347,-0.0635 0.0786,-0.1876 0.1175,-0.30106 0.0389,-0.11344 0.073,-0.21649 0.10224,-0.30934 0.0292,-0.0928 0.0534,-0.17546 0.0687,-0.2258 0.0153,-0.0503 0.0344,-0.122 0.0644,-0.24055 0.0301,-0.11855 0.0709,-0.28675 0.12026,-0.5055 0.0494,-0.21875 0.10944,-0.48805 0.15074,-0.68305 0.0413,-0.19494 0.0617,-0.2891 0.0825,-0.3824 0.0209,-0.0932 0.0437,-0.1857 0.067,-0.2774 0.0232,-0.0917 0.047,-0.18254 0.095,-0.36375 0.0479,-0.18115 0.1181,-0.44885 0.14156,-0.70985 0.0234,-0.261 0.0439,-0.50805 0.065,-0.74084 0.021,-0.23276 0.0408,-0.45159 0.0543,-0.60216 0.0136,-0.1506 0.0169,-0.22736 0.0183,-0.30354 10e-4,-0.0762 10e-4,-0.15179 -10e-4,-0.22676 -0.002,-0.0749 -0.006,-0.1495 -0.0127,-0.2321 -0.007,-0.0826 -0.0154,-0.15796 -0.0234,-0.22253 -0.008,-0.0646 -0.0159,-0.11853 -0.023,-0.16297 -0.007,-0.0444 -0.0138,-0.0822 -0.0219,-0.1171 -0.008,-0.0351 -0.0227,-0.10085 -0.0413,-0.17544 -0.0186,-0.0746 -0.0413,-0.15863 -0.0682,-0.25246 -0.0269,-0.0937 -0.0579,-0.1974 -0.094,-0.309 -0.0362,-0.1116 -0.0802,-0.2325 -0.13284,-0.36676 -0.0528,-0.13428 -0.11406,-0.28224 -0.17746,-0.4458 -0.0634,-0.16354 -0.112,-0.34747 -0.1516,-0.49314 -0.0395,-0.1458 -0.0395,-0.1458 -0.0132,-0.0486 0,0 0.0528,0.19427 0.0915,0.37505 0.0389,0.18079 0.052,0.35065 0.0612,0.50355 0.009,0.1529 0.0146,0.2886 0.016,0.40703 10e-4,0.11847 10e-4,0.23117 6.6e-4,0.33317 -8e-4,0.1021 -0.003,0.1924 -0.005,0.27096 -0.003,0.0785 -0.007,0.1449 -0.0116,0.20174 -0.005,0.0568 -0.005,0.0808 -0.009,0.1049 -0.004,0.0242 -0.009,0.0634 -0.0171,0.11536 -0.008,0.0519 -0.0171,0.1159 -0.0287,0.18944 -0.0116,0.0736 -0.0239,0.13246 -0.0379,0.19484 -0.014,0.0623 -0.0295,0.12463 -0.0466,0.18666 -0.017,0.0619 -0.0355,0.1238 -0.0547,0.18113 -0.0192,0.0573 -0.0898,0.25787 -0.16105,0.47913 -0.0712,0.22134 -0.14107,0.4574 -0.2318,0.70434 -0.0908,0.2469 -0.11496,0.5198 -0.1342,0.8075 -0.0191,0.2877 -0.0233,0.3908 -0.0256,0.4895 -0.002,0.0987 -0.004,0.1979 -0.005,0.29737 -0.002,0.0994 -0.003,0.19927 -0.005,0.30233 -10e-4,0.103 0.009,0.41403 0.0194,0.6713 0.0109,0.2572 0.0191,0.46246 0.0266,0.6157 0.008,0.1533 0.012,0.2534 0.0127,0.30227 6.7e-4,0.0489 0.004,0.12703 0.007,0.21203 0.003,0.085 0.005,0.1828 0.005,0.29285 4e-4,0.11011 -4e-4,0.23248 0.01,0.29965 -0.002,0.1345 0.1491,0.0927 0.1367,0.1601 z"
           id="path521" />
      </g>
      <g
         style="fill:#000000;fill-opacity:1;stroke-linejoin:miter"
         id="g527"
         transform="rotate(90,259.41968,748.93978)">
        <path
           d="m 531.2106,879.5322 c 0.9453,0.7266 2.79697,1.6436 4.3634,2.3531 1.5663,0.70955 2.8395,1.2378 3.8215,1.6038 0.982,0.36594 1.6951,0.57615 2.3462,0.6858 0.65106,0.10977 1.3871,0.15963 2.0679,0.0951 0.6808,-0.0645 1.3141,-0.27415 1.8612,-0.67686 0.5471,-0.40264 0.9283,-0.98384 1.119,-1.37378 0.19067,-0.38989 0.43457,-1.0163 0.56,-1.70566 0.1254,-0.6894 0.152,-1.4428 0.1012,-2.2693 -0.0508,-0.8266 -0.18147,-1.7325 -0.3549,-2.53975 -0.1734,-0.80725 -0.43094,-1.54571 -0.80484,-2.49188 -0.3739,-0.94617 -0.88176,-2.11367 -1.52002,-3.51367 -0.63831,-1.4 -1.41644,-3.03125 -1.93719,-4.0034 -0.52075,-0.9722 -0.64665,-1.3264 -0.73395,-1.66445 -0.0872,-0.33815 -0.1429,-0.65991 -0.1621,-0.96865 -0.0192,-0.30863 -0.0111,-0.6067 0.109,-1.3553 0.12,-0.74856 0.3392,-1.8952 0.559,-2.8993 0.2198,-1.00404 0.4313,-1.86574 0.64156,-2.5786 0.21024,-0.7129 0.41414,-1.27176 0.60168,-1.7095 0.1875,-0.4377 0.34272,-0.7977 0.52146,-1.1697 0.17886,-0.372 0.3743,-0.75926 0.5933,-1.1578 0.21904,-0.3985 0.4549,-0.81185 0.92736,-1.48305 0.47244,-0.6712 1.17294,-1.61969 1.75864,-2.45691 0.5858,-0.83714 1.0573,-1.56409 1.4198,-2.18104 0.3625,-0.61693 0.6156,-1.1316 0.78146,-1.50817 0.16584,-0.37653 0.33914,-0.83873 0.505,-1.41443 0.16584,-0.5757 0.3288,-1.2701 0.46994,-2.09283 0.141,-0.82277 0.26035,-1.77437 0.41965,-2.53077 0.1593,-0.7564 0.1593,-0.7564 0.0238,-0.2603 0,0 -0.35888,0.96764 -0.74085,1.7942 -0.3819,0.8265 -0.7112,1.5318 -0.99053,2.1136 -0.27937,0.58194 -0.52377,1.0315 -0.73417,1.3638 -0.2104,0.3322 -0.42056,0.6887 -0.74734,1.1244 -0.32672,0.43566 -0.77783,0.99047 -1.35436,1.6565 -0.5766,0.666 -1.27656,1.44206 -2.1107,2.34605 -0.83425,0.90399 -1.1965,1.39835 -1.4861,1.8158 -0.28956,0.41735 -0.5565,0.82959 -0.80683,1.23335 -0.25031,0.40373 -0.47657,0.80345 -0.68227,1.18236 -0.2057,0.3789 -0.49266,0.92574 -0.7985,1.63614 -0.3058,0.7105 -0.6114,1.54214 -0.916,2.5023 -0.30465,0.9601 -0.60903,2.0514 -0.9196,3.2822 -0.31046,1.23085 -0.404,1.7766 -0.43797,2.3098 -0.034,0.5332 -0.008,1.0725 0.0644,1.6153 0.0719,0.5428 0.2004,1.0858 0.4002,1.68826 0.19974,0.60244 1.0664,2.41931 1.8641,3.90634 0.79774,1.4871 1.45277,2.7344 1.9497,3.74386 0.49696,1.00944 0.85054,1.76459 1.03096,2.23859 0.18044,0.474 0.39819,1.29181 0.53821,2.01405 0.14007,0.72216 0.20413,1.3287 0.20533,1.8102 10e-4,0.48154 -0.0519,0.8306 -0.18025,1.1525 -0.12835,0.3219 -0.22635,0.67724 -0.25799,0.739 -0.0317,0.0618 -0.13446,0.14594 -0.39319,0.2374 -0.25873,0.0914 -0.68567,0.14945 -1.27441,0.1424 -0.58866,-0.007 -0.94251,-0.0378 -1.66406,-0.194 -0.7215,-0.15625 -1.7994,-0.4336 -3.2146,-0.8274 -1.41517,-0.3938 -3.1743,-0.87347 -4.23005,-0.97845 -2.12175,-0.51305 -1.10615,0.0268 -2.17215,-0.38125 z"
           id="path525" />
      </g>
    </g>
  </g>
</svg>
