<?xml version="1.0" encoding="UTF-8" standalone="no"?>
<svg
   version="1.1"
   width="135.38521"
   height="135.38521"
   viewBox="0 0 135.38521 135.38521"
   id="svg1214"
   xmlns="http://www.w3.org/2000/svg"
   xmlns:svg="http://www.w3.org/2000/svg">
  <defs
     id="defs1218" />
  <g
     id="g7590"
     transform="translate(-554.21576,-848.95837)">
    <rect
       style="display:inline;opacity:0.5;fill:none;fill-opacity:1;stroke:none;stroke-width:2.66644;stroke-dasharray:none;stroke-opacity:1"
       id="rect5267"
       width="135.38521"
       height="135.38521"
       x="554.21576"
       y="848.95837" />
    <g
       id="g5143"
       transform="translate(-18.389993,2.7098744)">
      <g
         style="fill:#000000;fill-opacity:1;stroke-linejoin:miter"
         id="g1163"
         transform="rotate(90,259.41968,748.93978)">
        <path
           d="m 391.34076,380.7081 c 0.1203,0.20377 0.42419,0.6224 0.75989,1.1326 0.33565,0.51022 0.71115,1.10953 1.11981,1.8061 0.40866,0.69655 0.85416,1.48867 1.17981,2.0805 0.32568,0.59185 0.50897,0.9351 0.69391,1.3028 0.18492,0.36764 0.38452,0.75213 0.586,1.16088 0.20147,0.40875 0.40548,0.84128 0.51446,1.09172 0.10898,0.2505 0.13709,0.34618 0.15516,0.43715 0.018,0.091 0.027,0.17831 0.0278,0.26349 8e-4,0.0851 -0.006,0.16958 -0.0245,0.29974 -0.0183,0.13016 -0.0499,0.22238 -0.10133,0.31268 -0.0514,0.0903 -0.13025,0.18834 -0.24802,0.29792 -0.11775,0.10959 -0.28145,0.22879 -0.57985,0.44946 -0.2984,0.2207 -0.60292,0.4238 -1.02955,0.66519 -0.42665,0.2414 -0.97257,0.50855 -1.63165,0.7991 -0.6591,0.29053 -1.42847,0.60417 -2.11213,0.92875 -0.68362,0.32458 -0.9176,0.50408 -1.13637,0.70032 -0.2188,0.19622 -0.422,0.4079 -0.60832,0.63436 -0.18634,0.22647 -0.35518,0.4668 -0.58108,0.89004 -0.2259,0.42326 -0.44373,0.91044 -0.64014,1.40556 -0.19641,0.49508 -0.38394,0.99359 -0.52774,1.50567 -0.1438,0.51212 -0.25824,1.03171 -0.32972,1.8515 -0.0715,0.8198 -0.0566,1.65327 -0.005,2.4386 0.0517,0.78531 0.13931,1.52297 0.26635,2.21317 0.12708,0.69018 0.28693,1.33468 0.59568,2.2109 0.30874,0.8762 0.79193,1.999 1.35476,3.11356 0.56281,1.11456 1.20929,2.21864 1.94154,3.30972 0.73226,1.0911 1.5501,2.16815 2.2487,3.02295 0.69862,0.8548 1.2823,1.46729 1.9054,1.97847 0.62314,0.5112 1.28934,0.9088 1.9862,1.1939 0.6969,0.28506 1.41893,0.45446 1.949,0.5982 0.53005,0.14377 0.53005,0.14377 0.18144,0.0347 0,0 -0.68289,-0.25763 -1.27684,-0.65836 -0.59398,-0.40072 -1.1278,-0.86001 -1.61216,-1.37762 -0.48438,-0.51761 -0.92234,-1.10062 -1.32969,-1.76587 -0.40731,-0.66525 -1.09985,-1.81968 -1.71667,-2.9378 -0.61678,-1.11814 -1.15991,-2.21888 -1.63046,-3.30283 -0.47055,-1.08395 -0.86957,-2.15189 -1.18888,-3.21002 -0.31927,-1.05813 -0.42304,-1.52478 -0.5003,-2.06323 -0.0773,-0.53843 -0.12114,-1.1345 -0.1359,-1.78693 -0.0148,-0.65244 -10e-4,-1.36097 0.0428,-2.08051 0.0438,-0.71956 0.1344,-0.99776 0.27246,-1.43091 0.13804,-0.43315 0.2522,-0.87275 0.3833,-1.30895 0.13114,-0.4362 0.28421,-0.86713 0.43881,-1.28 0.1546,-0.41288 0.17103,-0.4512 0.24259,-0.56556 0.0716,-0.11434 0.15354,-0.22479 0.24682,-0.33218 0.0933,-0.10736 0.19922,-0.21219 0.2135,-0.25519 0.0143,-0.043 0.80372,-0.41787 1.56534,-0.80664 0.76163,-0.38876 1.42378,-0.76181 1.99246,-1.11719 0.5687,-0.35537 1.0445,-0.70414 1.3924,-1.01524 0.34792,-0.31114 0.57782,-0.49577 0.85925,-0.7762 0.28143,-0.2804 0.5174,-0.59176 0.698,-0.93484 0.18063,-0.34308 0.29654,-0.71253 0.33899,-1.06552 0.0424,-0.353 0.0458,-0.5579 0.0304,-0.77686 -0.0154,-0.21896 -0.0508,-0.43491 -0.10558,-0.6463 -0.0548,-0.2114 -0.12817,-0.41702 -0.22682,-0.63135 -0.0987,-0.21433 -0.37752,-0.65787 -0.63768,-1.06726 -0.26019,-0.40939 -0.51605,-0.79614 -0.76495,-1.16167 -0.24893,-0.36555 -0.49157,-0.70955 -0.72711,-1.0343 -0.23551,-0.32475 -0.84636,-1.1134 -1.42261,-1.80452 -0.57629,-0.69116 -1.12033,-1.27828 -1.62409,-1.76544 -0.50376,-0.48718 -0.97009,-0.86964 -1.21612,-0.99854 -0.4195,-0.2787 -0.33829,-0.0221 -0.51178,-0.1719 z"
           id="path1161" />
      </g>
      <g
         style="fill:#000000;fill-opacity:1;stroke-linejoin:miter"
         id="g1167"
         transform="rotate(90,259.41968,748.93978)">
        <path
           d="m 388.3841,360.13107 c 0.48382,0.0906 1.45904,0.0901 2.47634,0.0491 1.01731,-0.0411 2.07743,-0.11399 3.18026,-0.215 1.10282,-0.10098 2.2497,-0.22092 3.00132,-0.31598 0.75162,-0.095 1.0531,-0.15073 1.32602,-0.2301 0.27292,-0.0793 0.53769,-0.20865 0.81494,-0.49085 0.27726,-0.28222 0.4191,-0.8309 -2.72454,-2.72418 -3.14368,-1.89324 -8.77808,-4.53021 -9.21177,-4.76068 -0.43367,-0.23046 -0.84271,-0.46696 -1.21023,-0.68982 -0.36754,-0.22287 -0.68754,-0.44046 -0.96334,-0.64407 -0.27583,-0.20362 -0.32966,-0.23413 -0.7174,-0.78547 -0.38774,-0.55133 -0.7236,-1.08746 -0.97643,-1.5685 -0.25287,-0.48106 -0.42111,-0.90324 -0.51617,-1.25648 -0.0951,-0.35322 -0.15546,-0.80594 -0.19315,-0.988 -0.0377,-0.18207 -0.0392,-0.35622 -0.0422,-0.63059 -0.003,-0.27435 0.0239,-0.63745 0.0766,-1.07968 0.0527,-0.44223 0.11438,-0.85388 0.25097,-1.26669 0.13663,-0.41278 0.302,-0.83148 0.48996,-1.21158 0.18796,-0.3801 0.39697,-0.72266 0.61832,-1.0358 0.22134,-0.31314 0.39706,-0.52344 2.2781,-2.30988 1.88105,-1.78646 3.51133,-3.40536 4.88547,-4.8393 1.37418,-1.43395 2.49399,-2.68407 3.36206,-3.7551 0.86807,-1.07103 1.47385,-1.9544 1.67407,-2.28618 0.2002,-0.33179 0.38007,-0.65826 0.54377,-0.99092 0.16366,-0.33266 0.31369,-0.66984 0.45001,-1.01137 0.13635,-0.34149 0.2739,-0.72625 0.5752,-1.93246 0.3013,-1.20621 0.55444,-2.25079 0.76425,-3.14163 0.20981,-0.89081 0.3789,-1.62827 0.47885,-2.10996 0.0999,-0.48168 0.0999,-0.48168 -0.024,-0.18365 0,0 -0.41972,0.52679 -0.81458,1.24344 -0.39484,0.71667 -0.82526,1.59457 -1.29294,2.63165 -0.46768,1.03711 -0.9682,2.2171 -1.11191,2.48358 -0.14374,0.26648 -0.30551,0.54575 -0.47794,0.81836 -0.17243,0.27264 -0.35549,0.53879 -0.54599,0.80078 -0.19049,0.26196 -0.38046,0.49576 -1.11154,1.29511 -0.73108,0.79931 -1.73376,1.7785 -3.00818,2.94027 -1.27442,1.16178 -2.81362,2.5091 -4.62106,4.03568 -1.8074,1.5266 -3.90579,3.25616 -4.33126,3.72027 -0.42548,0.46415 -0.78407,0.93203 -1.10447,1.4386 -0.3204,0.50659 -0.60443,1.04877 -0.85853,1.62247 -0.25408,0.5737 -0.4989,1.26532 -0.6265,1.89773 -0.12758,0.63245 -0.20558,1.16833 -0.2595,1.66573 -0.0539,0.4974 -0.0451,0.9672 0.0156,1.4241 0.0607,0.45687 0.12298,0.66082 0.25818,1.23723 0.13517,0.57642 0.3757,1.22949 0.70483,1.87699 0.3291,0.64748 0.73514,1.29916 1.22234,1.95794 0.4872,0.65874 1.1165,1.39926 1.56764,1.74324 0.45111,0.34398 0.84816,0.59865 1.28049,0.84502 0.43231,0.24638 0.89721,0.49168 1.40187,0.72516 0.50465,0.23352 1.08333,0.49145 6.91267,2.67349 5.82935,2.18203 5.2048,1.25897 5.33405,0.9606 0.12924,-0.2984 0.21304,-0.35733 0.16828,-0.32959 -0.0448,0.0278 -0.19084,0.0869 -0.41737,0.15506 -0.22656,0.0682 -1.36719,0.34033 -2.46453,0.60849 -1.09736,0.26817 -2.1499,0.53247 -3.15827,0.79233 -1.00839,0.25986 -1.97253,0.51814 -2.42871,0.72867 -0.91876,0.27249 -0.43742,0.35047 -0.90002,0.41244 z"
           id="path1165" />
      </g>
      <g
         style="fill:#000000;fill-opacity:1;stroke-linejoin:miter"
         id="g1171"
         transform="rotate(90,259.41968,748.93978)">
        <path
           d="m 403.184,411.47504 c -0.16783,-0.98307 -0.6665,-2.72422 -0.963,-4.35444 -0.2965,-1.63018 -0.36828,-3.16925 -0.21874,-4.63073 0.14954,-1.46149 0.52294,-2.85782 0.87341,-3.69104 0.3505,-0.83323 0.58338,-1.18693 0.91629,-1.57253 0.33292,-0.38563 0.76291,-0.80217 1.29358,-1.24208 0.53066,-0.43992 1.16446,-0.89654 1.60983,-1.15892 0.44535,-0.2624 0.98508,-0.43806 1.7735,-0.6526 0.78843,-0.21454 1.81525,-0.44016 3.06703,-0.6896 1.2518,-0.24946 2.72734,-0.51292 3.0109,-0.7082 0.28355,-0.19525 -0.1313,-0.45474 -0.43446,-0.9936 -0.30317,-0.53884 -0.30936,-1.03295 -0.22818,-1.29857 0.0811,-0.26563 0.14854,-0.38547 0.15674,-0.43873 0.008,-0.0533 -0.27277,0.2056 -0.5297,0.47114 -0.25693,0.2655 -0.48785,0.54309 -0.6899,0.83966 -0.2021,0.29657 -0.37333,0.616 -0.47972,0.82116 -0.10638,0.20517 -0.27221,0.5405 -0.42178,0.89328 -0.1496,0.35279 -0.28543,0.72236 -0.41214,1.10796 -0.12671,0.38554 -0.23836,0.78935 -0.37946,1.8568 -0.14108,1.0674 -0.277,2.4951 -0.37017,3.73962 -0.0932,1.24454 -0.13611,2.30988 -0.14411,3.20388 -0.008,0.89402 0.0363,1.63337 0.13791,2.26722 0.10159,0.63385 0.24477,1.18858 0.41843,1.71968 0.17364,0.53108 0.37842,1.03786 0.6149,1.51918 0.23644,0.48132 0.50494,0.93602 0.86279,1.45422 0.35785,0.5182 0.86565,1.1709 1.46675,1.84952 0.60103,0.67862 1.29268,1.38935 2.0758,2.13523 0.78307,0.74591 1.65835,1.52871 2.39617,0.85858 0.73785,-0.67011 0.22973,-0.762 -0.44269,-0.9596 -0.67242,-0.19757 -1.49414,-0.50203 -2.45752,-0.90893 -0.96336,-0.40686 -2.06524,-0.91468 -2.96844,-1.29407 -0.90317,-0.37943 -1.43445,-0.50793 -2.0116,-0.62433 -0.57718,-0.11636 -1.19989,-0.22287 -1.87222,-0.30517 -0.67233,-0.0823 -1.39337,-0.14197 -1.8359,-0.17475 -0.44254,-0.0328 -0.567,-0.0604 -0.6681,-0.1018 -0.1011,-0.0414 -0.17624,-0.0963 -0.22974,-0.15478 -0.0535,-0.0585 -0.0855,-0.12052 -0.0986,-0.16883 -0.0132,-0.0483 -0.0132,-0.0483 -0.004,-0.0161 0,0 0.0175,0.0644 0.0567,0.12522 0.0391,0.0609 0.0998,0.11816 0.18149,0.17315 0.0817,0.055 0.17804,0.12269 0.30023,0.19147 0.12219,0.0688 0.82269,0.34638 1.47444,0.60385 0.6518,0.25748 1.25587,0.49836 1.813,0.7211 0.5571,0.22278 1.06342,0.44043 1.48404,0.62903 0.42063,0.1886 1.50601,0.92853 2.52921,1.55716 1.02315,0.62864 1.94659,1.13544 2.77355,1.52658 0.82694,0.39112 1.56678,0.66636 2.83894,-0.0527 1.27212,-0.71903 0.16421,-1.94382 -0.57447,-2.74647 -0.73871,-0.80266 -1.38797,-1.54323 -1.93719,-2.22875 -0.54923,-0.68555 -1.00178,-1.30921 -1.36628,-1.87457 -0.3645,-0.56538 -0.54894,-0.88681 -0.70403,-1.21723 -0.15507,-0.33038 -0.29044,-0.68585 -0.40557,-1.06769 -0.11516,-0.38183 -0.20958,-0.79096 -0.27955,-1.20718 -0.07,-0.41623 -0.0969,-0.80194 -0.0807,-1.43246 0.0161,-0.63052 0.0773,-1.47932 0.19171,-2.53064 0.11438,-1.05133 0.27432,-2.30024 0.4891,-3.72663 0.21476,-1.42642 0.26006,-1.61969 0.33374,-1.92415 0.0737,-0.3045 0.15494,-0.58326 0.2425,-0.83598 0.0875,-0.25269 0.17904,-0.47964 0.29362,-0.72742 0.11455,-0.2478 0.19402,-0.44644 0.23473,-0.5237 0.0407,-0.0773 0.11487,-0.18803 0.22337,-0.32798 0.1085,-0.13999 0.25646,-0.30092 0.47228,-0.51012 0.21585,-0.20918 0.52662,-0.59245 0.63832,-0.82252 0.11174,-0.23011 0.2031,-0.61718 0.0897,-1.20746 -0.11343,-0.59024 -0.54162,-1.10672 -1.32309,-1.31656 -0.78143,-0.20984 -2.42932,0.15747 -3.85821,0.50452 -1.42887,0.34704 -2.64807,0.67452 -3.66275,0.98538 -1.01468,0.31082 -1.83478,0.60647 -2.52822,0.93591 -0.69343,0.32947 -1.50465,0.95773 -2.15675,1.53555 -0.6521,0.57782 -1.2132,1.15238 -1.68723,1.724 -0.47402,0.57163 -0.85519,1.14898 -1.15048,1.75846 -0.29529,0.60949 -0.74609,2.24312 -0.92644,3.92798 -0.1804,1.68487 -0.0641,3.38201 0.3365,5.07629 0.4006,1.6943 1.0945,3.37381 1.68125,4.14095 1.02315,1.62956 0.71275,0.70344 1.14915,1.56584 z"
           id="path1169" />
      </g>
      <g
         style="fill:#000000;fill-opacity:1;stroke-linejoin:miter"
         id="g1175"
         transform="rotate(90,259.41968,748.93978)">
        <path
           d="m 409.57687,352.81473 c -0.28033,-0.16263 -0.86331,-0.45328 -1.45544,-0.83029 -0.59213,-0.37704 -1.198,-0.8505 -1.82603,-1.41932 -0.62804,-0.56884 -1.27636,-1.24139 -1.83996,-1.91207 -0.56364,-0.67069 -0.99691,-1.30465 -1.35812,-1.97483 -0.36122,-0.67016 -0.66102,-1.37326 -0.89402,-2.11627 -0.23296,-0.74305 -0.39962,-1.52785 -0.44817,-2.01965 -0.0486,-0.4918 -0.0335,-0.78208 -0.0129,-1.0008 0.0206,-0.21872 0.0496,-0.3547 0.0619,-0.38232 0.0123,-0.0276 -0.0428,0.0843 -0.0511,0.0956 -0.008,0.0113 -0.16306,0.1528 -0.11866,0.14697 0.0444,-0.006 0.22742,-0.0568 0.5159,-0.11529 0.28848,-0.0585 0.66896,-0.12552 1.06601,-0.21264 0.39703,-0.0871 0.58282,-0.17127 0.77025,-0.29612 0.18745,-0.12485 0.36378,-0.29538 0.50724,-0.50522 0.14346,-0.20981 0.24064,-0.44266 0.25676,-0.55756 0.0161,-0.1149 0.0506,-0.4654 0.0341,-0.6305 -0.0165,-0.16512 -0.0421,-0.29753 -0.0758,-0.43737 -0.0337,-0.13986 -0.0772,-0.29556 -0.19751,-0.67529 -0.1203,-0.37974 -0.27548,-0.86212 -0.40673,-1.26184 -0.13123,-0.39972 -0.22578,-0.718 -0.29047,-0.94568 -0.0647,-0.22766 -0.096,-0.34772 -0.142,-0.59662 -0.046,-0.2489 -0.10929,-0.64062 -0.17163,-1.05157 -0.0624,-0.41093 -0.1178,-0.84159 -0.16617,-1.29175 -0.0484,-0.4502 -0.0966,-0.91962 -0.14483,-1.54376 -0.0483,-0.62412 -0.0857,-1.37125 -0.082,-2.13632 0.004,-0.76508 0.0479,-1.54856 0.12879,-2.35202 0.0809,-0.8035 0.19763,-1.62818 0.30273,-2.17725 0.10512,-0.54907 0.19766,-0.81753 0.28644,-1.02683 0.0887,-0.2093 0.1705,-0.3585 0.23834,-0.4484 0.0678,-0.0899 0.11426,-0.13088 0.20134,-0.17425 0.0871,-0.0433 0.0672,-0.0515 0.21495,-0.0259 0.1478,0.0256 0.40085,0.11012 0.74255,0.2487 0.3417,0.13858 0.7687,0.32962 1.0952,0.5497 0.32647,0.22008 0.32647,0.22008 0.11034,0.0711 0,0 -0.42767,-0.30473 -0.75348,-0.5997 -0.32576,-0.29496 -0.59918,-0.51252 -0.8244,-0.65962 -0.22519,-0.14708 -0.42438,-0.22506 -0.58191,-0.20862 -0.1575,0.0164 -0.28149,0.016 -0.48755,0.11026 -0.20605,0.0942 -0.3928,0.24662 -0.56934,0.44965 -0.17651,0.20303 -0.34811,0.45685 -0.5252,0.78247 -0.1771,0.32562 -0.49206,1.17044 -0.74152,2.00543 -0.24948,0.83499 -0.44784,1.66813 -0.59054,2.49906 -0.1427,0.83093 -0.23114,1.65847 -0.272,2.47047 -0.0408,0.81194 -0.0466,1.3136 -0.0526,1.8076 -0.006,0.494 10e-4,0.9724 0.0179,1.4353 0.0168,0.4629 0.0435,0.9106 0.0827,1.3335 0.0392,0.42288 0.0515,0.57624 0.0921,0.83057 0.0405,0.2543 0.10345,0.56418 0.18707,0.94577 0.0836,0.38159 0.1868,0.83926 0.31769,1.36446 0.13087,0.5252 0.14822,0.63352 0.1676,0.7474 0.0194,0.11382 0.0307,0.1887 0.0317,0.20885 10e-4,0.0201 -0.005,-0.0631 0.0231,-0.26203 0.0278,-0.19894 -0.0119,-0.17044 0.0543,-0.30072 0.0662,-0.1303 0.15729,-0.2445 0.25354,-0.32623 0.0962,-0.0817 0.18085,-0.13 0.30829,-0.17077 0.12741,-0.0408 -0.31732,0.0601 -0.73577,0.171 -0.41844,0.11092 -0.7771,0.22447 -1.0959,0.35268 -0.31878,0.1282 -0.63388,0.31052 -0.88525,0.56422 -0.2514,0.25365 -0.3627,0.4017 -0.50092,0.73723 -0.13823,0.33554 -0.19448,0.6459 -0.21723,0.9657 -0.0227,0.31982 -0.0225,0.66629 0.009,1.11953 0.0313,0.45324 0.27444,1.41858 0.58826,2.30616 0.31384,0.88758 0.70248,1.72143 1.16974,2.49643 0.46725,0.77502 1.00686,1.49127 1.6247,2.14502 0.61782,0.65377 1.43877,1.3468 2.2346,1.90823 0.79585,0.56143 1.56413,1.00958 2.3085,1.33127 0.7444,0.32168 1.45738,0.51599 1.81575,0.51855 0.66833,0.065 0.38625,-0.13582 0.69622,-0.0734 z"
           id="path1173" />
      </g>
      <g
         style="fill:#000000;fill-opacity:1;stroke-linejoin:miter"
         id="g1179"
         transform="rotate(90,259.41968,748.93978)">
        <path
           d="m 403.08197,317.78268 c 0.55527,0.74022 1.7847,1.85447 2.91888,2.79734 1.13415,0.9429 2.16013,1.7326 3.06498,2.39088 0.90484,0.65822 1.68957,1.18938 1.79812,1.14113 0.10855,-0.0482 0.0745,-0.14813 0.0621,-0.21799 -0.0124,-0.0698 -0.0148,-0.10894 -0.0165,-0.12237 -0.002,-0.0135 -0.007,-0.005 -0.0331,-0.005 -0.0265,1e-4 -0.18014,0.26766 -0.32171,0.5464 -0.14155,0.27875 -0.27103,0.56843 -0.38855,0.8688 -0.11752,0.3004 -0.2232,0.61125 -0.42523,1.2445 -0.20207,0.6332 -0.47147,1.51485 -0.68729,2.25188 -0.21582,0.73706 -0.3826,1.33179 -0.49194,1.79828 -0.10934,0.46646 -0.17081,0.8381 -0.2482,1.46487 -0.0774,0.62677 -0.18888,1.68375 -0.26221,2.71707 -0.0733,1.0333 -0.0736,2.04258 -0.0141,3.02426 0.0596,0.98169 0.15335,1.93519 0.36035,3.05399 0.207,1.11881 0.6012,2.34842 1.16182,3.54169 0.56063,1.19323 1.2785,2.35049 2.1568,3.46682 0.8783,1.11634 1.91115,2.19394 2.34838,2.3389 0.43719,0.14499 0.46087,0.0626 0.52105,-0.0427 0.0602,-0.10526 0.16022,-0.20432 0.26953,-0.26373 0.10934,-0.0594 0.19714,-0.0797 0.16894,-0.0826 -0.0282,-0.003 -0.26116,-0.001 -0.4782,0.008 -0.217,0.009 -0.419,0.026 -0.60742,0.0527 -0.18842,0.0267 -0.36475,0.0646 -0.39002,0.4741 -0.0252,0.40952 -0.0252,0.40952 0.0373,0.39664 0,0 0.26234,0.75464 0.37032,0.75342 0.10798,-10e-4 0.24121,0.002 0.39816,0.012 0.15695,0.0104 0.33639,0.029 0.55652,0.0576 0.22012,0.0285 0.46676,0.0119 0.645,-0.0486 0.17824,-0.0605 0.3551,-0.1791 0.49095,-0.34424 0.1359,-0.16513 0.2143,-0.34406 0.12763,-0.84278 -0.0867,-0.49871 -1.05435,-1.63531 -1.83655,-2.7189 -0.78217,-1.08358 -1.41077,-2.14948 -1.89223,-3.19604 -0.4815,-1.04657 -0.81267,-2.07819 -1.00517,-3.09806 -0.19247,-1.01983 -0.22733,-1.82333 -0.24439,-2.71168 -0.017,-0.88832 -10e-4,-1.80458 0.007,-2.75047 0.007,-0.94593 0.0177,-1.92438 0.062,-2.94751 0.0443,-1.02312 0.0435,-1.17606 0.0775,-1.43762 0.034,-0.2616 0.11539,-0.7171 0.23557,-1.33918 0.12016,-0.6221 0.28586,-1.40292 0.4895,-2.3435 0.20364,-0.94056 0.26116,-1.22034 0.32171,-1.46579 0.0606,-0.24546 0.1301,-0.48038 0.2085,-0.70513 0.0784,-0.22478 0.16562,-0.43956 0.28143,-0.68144 0.11579,-0.24186 0.21799,-0.56246 0.23536,-0.68314 0.0174,-0.12066 0.025,-0.25094 0.0167,-0.39654 -0.008,-0.1456 -0.0415,-0.30958 -0.31287,-0.68711 -0.27136,-0.37753 -1.00021,-0.73699 -1.84713,-1.1853 -0.84693,-0.44827 -1.84925,-1.00824 -3.00675,-1.67505 -1.15747,-0.66678 -2.47977,-1.4248 -3.28223,-1.71417 -1.51684,-0.80855 -0.88546,-0.1752 -1.59985,-0.69437 z"
           id="path1177" />
      </g>
      <g
         style="fill:#000000;fill-opacity:1;stroke-linejoin:miter"
         id="g1183"
         transform="rotate(90,259.41968,748.93978)">
        <path
           d="m 467.1687,398.42416 c -0.59933,0.15006 -1.76535,0.50211 -3.0514,0.69181 -1.28603,0.18969 -2.71856,0.20959 -4.31417,0.0563 -1.59561,-0.15332 -3.36153,-0.483 -5.23043,-0.97809 -1.8689,-0.49508 -3.67164,-1.13717 -5.41502,-1.95321 -1.74338,-0.81604 -3.43264,-1.8061 -5.06951,-2.97742 -1.63687,-1.17132 -3.22847,-2.52012 -4.12527,-3.43515 -0.8968,-0.91504 -1.18885,-1.39313 -1.37156,-1.81377 -0.18271,-0.42064 -0.26204,-0.78755 -0.27214,-1.11403 -0.0101,-0.3265 0.0462,-0.64114 0.45643,-1.52899 0.41025,-0.88788 1.20429,-2.51785 2.0546,-4.17096 0.85031,-1.65307 1.75693,-3.32919 2.71991,-5.02826 0.96298,-1.69903 1.98233,-3.42096 2.74636,-4.75592 0.76408,-1.33499 1.10813,-2.07004 1.3851,-2.7333 0.277,-0.66327 0.48774,-1.2652 0.6303,-1.83347 0.14254,-0.56824 0.20263,-1.14993 0.1411,-1.70465 -0.0615,-0.55472 -0.4006,-1.2493 -0.813,-1.66626 -0.41234,-0.41696 -0.84624,-0.70556 -1.32573,-0.95246 -0.47952,-0.24685 -1.02249,-0.477 -2.50073,-0.7929 -1.47821,-0.3159 -3.2135,-0.61627 -4.59052,-0.9068 -1.37704,-0.2905 -2.37927,-0.5635 -2.95032,-0.77957 -0.571,-0.21607 -0.58874,-0.21453 -1.06268,-0.69998 -0.47397,-0.48542 -1.00722,-1.04548 -1.31454,-1.4759 -0.30731,-0.43042 -0.4137,-0.68219 -0.42636,-0.73532 -0.0126,-0.0531 -0.0185,-0.0331 1.12741,-0.62887 1.14587,-0.59574 3.80797,-2.06092 6.28,-3.34119 2.47197,-1.2803 4.75237,-2.37549 6.83844,-3.28534 2.08603,-0.90985 3.97453,-1.6344 5.38153,-2.02957 1.40695,-0.39516 2.6708,-0.55414 3.98834,-0.59729 1.3175,-0.0432 2.69066,0.0312 4.12096,0.2254 1.43034,0.19419 2.91828,0.51007 3.251,0.45583 0.33272,-0.0542 0.22945,-0.1792 0.11406,-0.40453 -0.11542,-0.22531 -0.19,-0.5581 -0.1582,-0.92157 0.0318,-0.36346 0.15439,-0.661 0.75924,-1.14203 0.60486,-0.48104 0.28406,-0.41439 -0.05,-0.29617 -0.33411,0.11823 -0.68161,0.31272 -1.01383,0.6169 -0.33223,0.30424 -0.59483,0.71837 -1.1174,2.0481 -0.52258,1.32975 -1.44351,3.69798 -1.56326,4.05256 -0.11975,0.35462 -0.25971,0.93216 -0.43323,1.7533 -0.17352,0.82114 -0.38664,1.90654 -0.62724,3.2662 -0.2406,1.35964 -0.4974,2.95674 -0.9267,5.34764 -0.42937,2.39086 -0.70845,4.5727 -0.84486,6.52358 -0.13642,1.95086 -0.11854,3.6763 0.0515,5.18466 0.16994,1.50833 0.48687,2.70251 0.83608,3.88751 0.34922,1.185 0.92938,2.50409 1.7225,3.92179 0.79316,1.41769 1.8104,2.93554 3.04615,4.56216 1.23571,1.6266 2.70343,3.33838 3.01422,3.65253 0.31075,0.31417 0.78491,0.60742 1.39251,0.87085 0.60764,0.26342 1.36371,0.49398 2.03672,0.56305 0.673,0.069 0.673,0.069 0.2713,-0.0896 0,0 -0.66245,-0.65486 -1.2529,-1.02469 -0.59042,-0.36984 -1.01355,-0.69025 -1.25433,-0.94697 -0.24079,-0.25668 -0.37153,-0.5108 -1.50303,-2.34045 -1.1315,-1.82968 -2.0758,-3.47439 -2.81742,-4.9494 -0.74157,-1.475 -1.2806,-2.77453 -1.61586,-3.88843 -0.33527,-1.11392 -0.49106,-2.13366 -0.64334,-3.26828 -0.15226,-1.13461 -0.16273,-2.48989 -0.0312,-4.10824 0.13156,-1.61835 0.40518,-3.494 0.82791,-5.6213 0.42273,-2.12733 0.99469,-4.55268 1.30841,-6.09263 0.31374,-1.53995 0.5505,-2.78557 0.74322,-3.74757 0.19272,-0.96196 0.3393,-1.63204 0.42145,-1.9561 0.0822,-0.32404 0.12055,-0.39078 1.04547,-2.7691 0.9249,-2.37837 0.8848,-2.3013 0.73194,-2.10053 -0.1529,0.2008 -0.3028,0.31653 -0.39429,0.36316 -0.0915,0.0466 -0.11179,0.053 0.1513,-0.002 0.26307,-0.0546 1.42087,-1.06476 1.54805,-1.49286 0.12713,-0.42813 0.11937,-0.90198 -0.009,-1.30402 -0.12805,-0.402 -0.31387,-0.69636 -0.89605,-1.11969 -0.58219,-0.42331 -2.28125,-0.86642 -3.9419,-1.17724 -1.66067,-0.31079 -3.28314,-0.48767 -4.86647,-0.52833 -1.58336,-0.0406 -3.1261,0.0568 -4.67363,0.3063 -1.54747,0.24952 -3.52307,0.92332 -5.59341,1.75584 -2.07036,0.83249 -4.31321,1.84546 -6.73209,3.039 -2.41887,1.19351 -5.01572,2.56786 -7.84274,4.1546 -2.82703,1.58674 -3.81751,2.82834 -4.01273,3.84296 -0.19525,1.01465 -0.006,2.00537 0.43955,2.885 0.44605,0.87968 1.08508,1.68995 1.83569,2.42555 0.75061,0.73562 1.01279,1.08749 1.86984,1.58258 0.85706,0.49507 1.87652,0.84244 3.17127,1.16467 1.29477,0.3222 2.8955,0.63703 4.76513,0.9421 1.86966,0.3051 2.05522,0.40486 2.40922,0.5632 0.354,0.15837 0.57504,0.28022 0.6378,0.3208 0.0628,0.0406 -0.0464,-0.0932 -0.16512,-0.41594 -0.11871,-0.32279 -0.11011,-0.27262 -0.13934,-0.11878 -0.0292,0.15387 -0.12589,0.48569 -0.30034,0.9491 -0.17442,0.46342 -0.42674,1.0416 -0.73082,1.67772 -0.30408,0.63615 -1.35398,2.36055 -2.37973,4.118 -1.02575,1.75747 -1.99548,3.49465 -2.90912,5.2116 -0.9136,1.71692 -1.77113,3.41373 -2.57373,5.12384 -0.8026,1.71009 -1.0697,2.63639 -1.12622,3.48832 -0.0565,0.85194 0.0628,1.69827 0.34375,2.50967 0.28091,0.81137 0.70067,1.58099 1.30463,2.37439 0.60391,0.79343 2.41098,2.336 4.24926,3.65018 1.83832,1.31418 3.73493,2.41687 5.68178,3.31122 1.94682,0.89434 3.9406,1.57898 5.97322,2.04116 2.03262,0.46216 4.06821,0.74222 5.92615,0.82442 1.85793,0.0822 3.53299,-0.0434 5.01388,-0.37556 1.4809,-0.33222 2.7515,-0.87641 3.26233,-1.30914 1.02132,-0.757 0.43512,-0.5519 0.94562,-0.87614 z"
           id="path1181" />
      </g>
    </g>
  </g>
</svg>
