<?xml version="1.0" encoding="UTF-8" standalone="no"?>
<svg
   version="1.1"
   width="135.38521"
   height="135.38521"
   viewBox="0 0 135.38521 135.38521"
   id="svg1214"
   xmlns="http://www.w3.org/2000/svg"
   xmlns:svg="http://www.w3.org/2000/svg">
  <defs
     id="defs1218" />
  <g
     id="g7074"
     transform="translate(-250.43784,-1129.4353)">
    <rect
       style="display:inline;opacity:0.5;fill:none;fill-opacity:1;stroke:none;stroke-width:2.66644;stroke-dasharray:none;stroke-opacity:1"
       id="rect5441"
       width="135.38521"
       height="135.38521"
       x="250.43784"
       y="1129.4353" />
    <g
       id="g4064"
       transform="translate(550.72054,742.9328)">
      <g
         style="fill:#000000;fill-opacity:1;stroke-linejoin:miter"
         id="g295"
         transform="rotate(90,259.41968,748.93978)">
        <path
           d="m -77.49973,1275.5195 c 0.01724,-0.3078 -0.02167,-0.9096 -0.03904,-1.5263 -0.01737,-0.6167 -0.01699,-1.2506 0.01189,-1.9057 0.02888,-0.655 0.08779,-1.3323 0.13287,-1.7835 0.04507,-0.4513 0.10058,-0.6947 0.23387,-1.1167 0.13329,-0.4219 0.35389,-0.996 0.641265,-1.7188 0.287365,-0.7228 0.659905,-1.5853 1.02729,-2.3652 0.367385,-0.7799 0.730945,-1.4859 1.063655,-2.2422 0.332715,-0.7562 0.62936,-1.5637 0.92406,-2.407 0.2947,-0.8433 0.5875,-1.7223 0.77322,-2.2748 0.185705,-0.5525 0.29806,-0.8223 0.42826,-1.1105 0.130195,-0.2882 0.27819,-0.5944 0.44053,-0.9202 0.16234,-0.3258 0.34024,-0.6705 0.58455,-1.1152 0.2443,-0.4448 0.56151,-0.9641 0.945965,-1.4731 0.384461,-0.5092 0.827835,-1.0186 1.335435,-1.5276 0.50759,-0.5091 1.07997,-1.0207 1.58046,-1.3376 0.50049,-0.3168 0.50049,-0.3168 0.15788,-0.1204 0,0 -0.71205,0.3484 -1.40706,0.6753 -0.69501,0.3269 -1.32937,0.708 -1.90025,1.1418 -0.57087,0.434 -1.07978,0.9153 -1.51979,1.4324 -0.44002,0.517 -0.691804,0.8549 -0.92903,1.177 -0.23723,0.3223 -0.45227,0.6355 -0.64789,0.9381 -0.195626,0.3027 -0.37326,0.5943 -0.540894,0.894 -0.167636,0.2997 -0.565566,1.168 -0.947356,1.984 -0.381784,0.8159 -0.75856,1.5953 -1.12202,2.3414 -0.363455,0.7462 -0.649214,1.4883 -0.94428,2.2217 -0.295075,0.7332 -0.627236,1.7821 -0.87636,2.6609 -0.24912,0.8789 -0.44152,1.6153 -0.56616,2.2181 -0.12465,0.6028 -0.19493,1.0781 -0.1985,1.4205 -0.0036,0.3424 0.0377,1.0619 0.11406,1.7692 0.07634,0.7073 0.19436,1.3821 0.35021,2.0227 0.155845,0.6406 0.354415,1.2445 0.516715,1.5219 0.240245,0.5629 0.298505,0.2402 0.376445,0.5258 z"
           id="path293" />
      </g>
      <g
         style="fill:#000000;fill-opacity:1;stroke-linejoin:miter"
         id="g299"
         transform="rotate(90,259.41968,748.93978)">
        <path
           d="m -65.72376,1224.1951 c -0.95408,-1.8948 -3.41377,-5.1972 -3.58015,-5.4571 -0.16638,-0.2599 -0.336,-0.5528 -0.494994,-0.8707 -0.158996,-0.3179 -0.30867,-0.6592 -0.455536,-1.0213 -0.14686,-0.3621 -0.26722,-0.6999 -1.77829,-4.601 -1.51107,-3.9011 -1.58493,-4.0686 -1.65065,-4.225 -0.06571,-0.1565 -0.124176,-0.3044 -0.17392,-0.4441 -0.04975,-0.1395 -0.09145,-0.2704 -0.12418,-0.3701 -0.03273,-0.1 -0.17998,-0.8299 -0.28729,-1.5283 -0.1073,-0.6983 -0.1839,-1.3684 -0.22685,-2.0139 -0.04295,-0.6456 -0.04807,-1.2692 -0.01662,-1.7254 0.03145,-0.456 0.03145,-0.456 -0.0286,-0.1588 0,0 -0.23735,0.574 -0.410484,1.2022 -0.173126,0.6281 -0.296126,1.3038 -0.363996,2.0232 -0.06787,0.7193 -0.08796,1.4799 -0.06946,1.9712 0.0185,0.4912 0.04314,0.6496 0.07405,0.8149 0.0309,0.1653 0.06578,0.3385 0.10593,0.5193 0.04014,0.1808 0.08609,0.3694 0.6698,2.4853 0.58371,2.116 1.90819,6.0926 2.121426,6.5314 0.213244,0.4388 0.427094,0.8309 0.656234,1.197 0.22915,0.3661 0.465455,0.7106 0.7124,1.031 0.24696,0.3203 0.520785,0.6422 2.19216,1.9136 3.02266,2.8193 1.777714,1.1786 3.12902,2.7266 z"
           id="path297" />
      </g>
      <g
         style="fill:#000000;fill-opacity:1;stroke-linejoin:miter"
         id="g303"
         transform="rotate(90,259.41968,748.93978)">
        <path
           d="m -55.33644,1221.3464 c -0.246224,-0.3521 -0.764352,-0.9528 -1.19905,-1.5608 -0.434694,-0.6079 -0.78648,-1.231 -1.056604,-1.8768 -0.270123,-0.6457 -0.458886,-1.3194 -0.555016,-1.7573 -0.09613,-0.4379 -0.13429,-0.6485 -0.186386,-1.0133 -0.0521,-0.3649 -0.127709,-0.8701 -0.303227,-1.4972 -0.175517,-0.6271 -0.380004,-1.3894 -0.522243,-1.9266 -0.142239,-0.5373 -0.196957,-0.7411 -0.246374,-0.927 -0.04941,-0.1861 -0.09148,-0.3543 -0.12553,-0.5047 -0.03404,-0.1504 -0.06014,-0.2822 -0.08125,-0.3967 -0.02111,-0.1146 -0.04104,-0.2465 -0.06188,-0.4727 -0.02084,-0.2263 -0.04584,-0.5382 -0.07776,-0.9327 -0.03192,-0.3946 -0.06969,-0.8711 -0.09718,-1.21 -0.02749,-0.3388 -0.02968,-0.5005 -0.02569,-0.679 0.004,-0.1788 0.01687,-0.3736 0.04,-0.5838 0.02313,-0.2103 0.08939,-0.4252 0.144486,-0.5925 0.0551,-0.1674 0.0551,-0.1674 0.01836,-0.056 0,0 -0.07346,0.2231 -0.151959,0.4295 -0.0785,0.2062 -0.163322,0.3968 -0.235538,0.5781 -0.07222,0.1812 -0.131653,0.3537 -0.17579,0.5191 -0.04413,0.1653 -0.154342,0.6903 -0.23815,1.1371 -0.08381,0.4468 -0.14482,0.8172 -0.183656,1.1124 -0.03884,0.2953 -0.05964,0.519 -0.06386,0.6683 -0.0042,0.1494 -0.0092,0.2829 -0.0081,0.448 0.0011,0.165 0.0069,0.3457 0.01749,0.5424 0.01057,0.1968 0.02728,0.4098 0.05078,0.6363 0.0235,0.2263 0.118747,1.1048 0.20613,1.8497 0.08738,0.7449 0.148964,1.3588 0.277645,1.8243 0.128681,0.4655 0.232405,0.8051 0.305439,1.0132 0.07303,0.2083 0.342406,0.9617 0.721346,1.688 0.378942,0.7263 0.84823,1.3854 1.40393,1.9729 0.555697,0.5874 1.202475,1.092 1.59732,1.2632 0.728385,0.418 0.478793,0.058 0.81234,0.3044 z"
           id="path301" />
      </g>
      <g
         style="fill:#000000;fill-opacity:1;stroke-linejoin:miter"
         id="g307"
         transform="rotate(90,259.41968,748.93978)">
        <path
           d="m -53.68769,1223.6122 c 0.57703,-0.2879 1.476505,-1.0052 2.210273,-1.7174 0.733772,-0.7122 1.325043,-1.4003 1.77137,-2.072 0.446327,-0.6719 0.746971,-1.3342 0.936837,-1.8308 0.18987,-0.4968 0.385116,-0.9658 0.542556,-1.3898 0.157444,-0.4241 0.282421,-0.8051 0.368414,-1.1527 0.086,-0.3477 0.13038,-0.6735 0.186586,-1.1426 0.0562,-0.469 0.135296,-1.1972 0.176216,-1.8587 0.04092,-0.6613 0.04208,-1.26 -9.99e-4,-1.8032 -0.04308,-0.5433 -0.139173,-1.0395 -0.416611,-1.6502 -0.277439,-0.6108 -0.764129,-1.3796 -1.398945,-2.1299 -0.634815,-0.7504 -1.410804,-1.4931 -2.332149,-2.2309 -0.921341,-0.7379 -1.989748,-1.4724 -2.897528,-2.0183 -0.907785,-0.5457 -1.48142,-0.8532 -1.979494,-1.094 -0.498076,-0.2408 -0.914673,-0.4266 -1.254204,-0.5567 -0.339527,-0.1302 -0.610447,-0.206 -0.802078,-0.2401 -0.191634,-0.034 -0.45385,-0.053 -0.756234,-0.023 -0.30238,0.03 -0.653438,0.1054 -1.058303,0.2246 -0.404867,0.1192 -0.865501,0.2826 -1.252564,0.3662 -0.387065,0.084 -0.387065,0.084 -0.128473,0.031 0,0 0.518824,-0.097 0.98009,-0.097 0.46126,-3e-4 0.846195,0.014 1.152336,0.047 0.306137,0.034 0.528007,0.083 0.679031,0.149 0.151023,0.066 0.306339,0.1318 0.517433,0.2592 0.211098,0.1274 0.508583,0.3258 0.88311,0.5981 0.374527,0.2722 0.824314,0.6168 1.346398,1.0155 0.522087,0.3986 1.529747,1.2548 2.391182,2.0588 0.86144,0.8041 1.571666,1.5571 2.130027,2.2549 0.558363,0.6976 0.961388,1.3371 1.210083,1.9278 0.24869,0.5907 0.320667,0.7738 0.39959,1.0854 0.07892,0.3116 0.14201,0.7312 0.181164,1.2492 0.03915,0.5182 0.05169,1.1298 0.03477,1.8456 -0.01692,0.7158 -0.009,0.9363 -0.02246,1.1277 -0.0135,0.1914 -0.05252,0.4667 -0.124834,0.8129 -0.07231,0.3463 -0.180388,0.7574 -0.327116,1.2597 -0.146734,0.5022 -0.238754,1.0541 -0.437439,1.6026 -0.198689,0.5484 -0.527321,1.1991 -0.991631,1.9408 -0.46431,0.7417 -1.056224,1.5766 -1.317284,2.1007 -0.697677,0.9498 -0.162506,0.6251 -0.59912,1.0509 z"
           id="path305" />
      </g>
      <g
         style="fill:#000000;fill-opacity:1;stroke-linejoin:miter"
         id="g311"
         transform="rotate(90,259.41968,748.93978)">
        <path
           d="m -60.301514,1274.6279 c -0.06809,-0.2199 -0.278129,-0.7299 -0.525314,-1.3998 -0.247189,-0.6698 -0.540474,-1.4978 -0.879429,-2.4864 -0.338953,-0.9888 -0.724796,-2.1382 -0.988263,-2.9712 -0.26346,-0.8331 -0.3438,-1.2543 -0.378875,-1.6778 -0.03507,-0.4236 -0.01943,-0.8526 0.03499,-1.2902 0.05442,-0.4375 0.156476,-0.8862 0.317474,-1.377 0.161002,-0.4908 0.375164,-1.0197 0.596008,-1.5583 0.220841,-0.5387 0.45393,-1.0907 0.725022,-1.6474 0.271087,-0.5566 0.588688,-1.1128 0.810535,-1.4757 0.221847,-0.363 0.366307,-0.576 0.54557,-0.8247 0.179265,-0.2486 0.388031,-0.536 0.627217,-0.8602 0.23918,-0.3242 0.50924,-0.6846 0.94227,-1.2164 0.433027,-0.5318 1.03378,-1.2478 1.59327,-1.9693 0.55949,-0.7214 1.084657,-1.4406 1.562246,-2.1679 0.477594,-0.7273 0.913764,-1.4556 1.28183,-1.9517 0.368061,-0.496 0.368061,-0.496 0.107978,-0.1775 0,0 -0.564277,0.6006 -1.207809,1.1576 -0.643532,0.557 -1.298702,1.1264 -1.9617,1.7135 -0.663002,0.5872 -1.345368,1.1829 -2.05111,1.8007 -0.705738,0.6178 -1.07312,0.9919 -1.38232,1.3092 -0.3092,0.3171 -0.584795,0.6046 -0.824661,0.8647 -0.239869,0.26 -0.448147,0.4904 -0.633444,0.7066 -0.185293,0.216 -0.62772,0.7904 -1.02641,1.3816 -0.39869,0.5911 -0.757085,1.1925 -1.076616,1.8031 -0.319534,0.6106 -0.537498,1.2537 -0.712804,1.9024 -0.1753,0.6486 -0.28936,1.2556 -0.343226,1.8521 -0.05386,0.5965 -0.04671,1.1817 0.02992,1.7522 0.07662,0.5703 0.20786,1.1244 0.40383,1.6591 0.19597,0.5347 0.794503,1.7452 1.345597,2.783 0.551093,1.0378 1.051863,1.9139 1.512633,2.6222 0.46077,0.7083 0.871766,1.2513 1.090913,1.4481 0.350287,0.3782 0.333547,0.1142 0.464683,0.2954 z"
           id="path309" />
      </g>
      <g
         style="fill:#000000;fill-opacity:1;stroke-linejoin:miter"
         id="g315"
         transform="rotate(90,259.41968,748.93978)">
        <path
           d="m -61.2946,1272.5188 c 0.471007,0.1152 1.351073,0.1179 2.159613,0.01 0.80854,-0.1085 1.542721,-0.3259 2.201817,-0.6447 0.659095,-0.3188 1.236557,-0.7425 1.55049,-1.0418 0.313935,-0.2993 0.494992,-0.4949 0.696237,-0.737 0.201243,-0.2419 0.431953,-0.5316 0.684005,-0.8787 0.252053,-0.3472 0.53228,-0.7488 0.826298,-1.2137 0.29402,-0.4648 0.55928,-0.9089 0.844853,-1.3775 0.285572,-0.4687 0.594437,-0.9602 0.926479,-1.4744 0.332043,-0.5143 0.687324,-1.051 0.940742,-1.4914 0.253416,-0.4406 0.358956,-0.6808 0.452412,-0.9084 0.09346,-0.2275 0.174924,-0.4433 0.244364,-0.6488 0.06945,-0.2053 0.126837,-0.402 0.195642,-0.7146 0.06881,-0.3125 0.132258,-0.7637 0.15387,-1.2265 0.02161,-0.4629 0.0042,-0.9367 -0.0526,-1.4209 -0.05682,-0.4843 -0.151615,-0.979 -0.247725,-1.3458 -0.09611,-0.3668 -0.15081,-0.5 -0.21032,-0.633 -0.05951,-0.133 -0.123777,-0.266 -0.192685,-0.399 -0.06891,-0.1331 -0.142483,-0.2662 -0.462353,-0.777 -0.319866,-0.5108 -0.815369,-1.2676 -1.207596,-1.8765 -0.392226,-0.609 -0.689046,-1.0651 -0.877516,-1.3689 -0.188474,-0.3037 -0.26055,-0.4298 -0.42747,-0.7593 -0.166915,-0.3294 -0.43802,-0.838 -0.659537,-1.2776 -0.221513,-0.4394 -0.391769,-0.8117 -0.502983,-1.121 -0.111218,-0.3094 -0.124993,-0.5577 -0.11178,-0.7071 0.01321,-0.1495 0.01321,-0.1495 0.0044,-0.05 0,0 -0.01762,0.1993 -0.01037,0.4764 0.0072,0.277 0.02757,0.6399 0.08808,1.0847 0.06051,0.4449 0.16231,0.9697 0.30827,1.5639 0.145957,0.5942 0.143607,0.657 0.23495,0.9278 0.09134,0.2709 0.2495,0.683 0.48236,1.2535 0.232857,0.5703 0.556267,1.2929 0.955937,2.1736 0.39967,0.8804 0.436083,0.9752 0.478673,1.0876 0.04259,0.1123 0.08075,0.2218 0.114406,0.3284 0.03365,0.1064 0.06293,0.2099 0.07623,0.2651 0.0133,0.055 0.06253,0.4814 0.08199,0.8879 0.01945,0.4067 0.01015,0.7853 -0.02175,1.1363 -0.03189,0.3509 -0.09707,0.6738 -0.183494,0.9823 -0.08643,0.3084 -0.121116,0.3974 -0.174406,0.5223 -0.05328,0.125 -0.122107,0.2711 -0.206454,0.4365 -0.08435,0.1653 -0.184246,0.349 -0.295436,0.5221 -0.11119,0.1731 -0.41942,0.7499 -0.721307,1.3268 -0.301883,0.577 -0.583187,1.1304 -0.843963,1.6598 -0.26078,0.5294 -0.501053,1.0354 -0.705757,1.5018 -0.204701,0.4663 -0.427548,0.8935 -0.640705,1.2859 -0.213158,0.3926 -0.399346,0.7235 -0.556,0.9922 -0.156655,0.2686 -0.286288,0.4686 -0.390942,0.6087 -0.104648,0.14 -0.454181,0.5894 -0.862419,0.9614 -0.408234,0.3718 -0.920254,0.7054 -1.543465,0.9963 -0.623207,0.2908 -1.357666,0.5457 -1.753929,0.737 -0.849609,0.2249 -0.385823,0.3321 -0.839163,0.3658 z"
           id="path313" />
      </g>
      <g
         style="fill:#000000;fill-opacity:1;stroke-linejoin:miter"
         id="g319"
         transform="rotate(90,259.41968,748.93978)">
        <path
           d="m -5.4991074,1265.6813 c -0.7158112,-0.5464 -2.0885472,-1.2593 -3.2118236,-1.8344 -1.123277,-0.5752 -1.985054,-1.035 -2.564277,-1.3882 -0.579223,-0.3531 -0.842243,-0.5616 -1.12845,-0.7978 -0.286206,-0.2362 -0.629961,-0.5317 -1.183371,-1.0784 -0.55341,-0.5466 -1.292969,-1.3288 -2.206846,-2.3442 -0.913877,-1.0155 -2.010465,-2.2518 -2.473905,-2.7047 -0.46344,-0.4529 -0.435723,-0.3011 -0.398323,-0.4211 0.0374,-0.1198 0.156463,-0.415 0.355528,-0.8374 0.199064,-0.4224 0.485797,-0.9527 0.837195,-1.5578 0.3514,-0.6051 0.782454,-1.2598 1.330752,-2.0076 0.548297,-0.7477 1.208876,-1.5874 1.988886,-2.5097 0.78001,-0.9225 1.667508,-1.9351 2.333635,-2.7532 0.666127,-0.8183 0.801359,-1.1134 0.905634,-1.4187 0.104277,-0.3052 0.180415,-0.6179 0.23306,-0.9363 0.05265,-0.3184 0.07784,-0.6425 0.0729,-1.0442 -0.0049,-0.4018 -0.08714,-0.9062 -0.231819,-1.3962 -0.144677,-0.49 -0.346154,-0.9898 -0.602047,-1.517 -0.255894,-0.5272 -0.565022,-1.0913 -1.309891,-2.1857 -0.744869,-1.0945 -1.8793,-2.6279 -2.716993,-3.5158 -0.837694,-0.888 -1.484393,-1.5957 -1.99019,-2.1785 -0.505799,-0.5828 -0.864796,-1.031 -1.060243,-1.3088 -0.195447,-0.2779 -0.316125,-0.5235 -0.384576,-0.6344 -0.06845,-0.111 -0.105665,-0.2187 -0.151365,-0.4291 -0.0457,-0.2106 -0.08541,-0.5137 -0.110054,-0.8994 -0.02464,-0.3858 -0.03126,-0.9005 -0.02337,-1.4175 0.0079,-0.5171 0.102018,-0.9664 0.289108,-1.4365 0.18709,-0.47 0.480212,-0.9685 0.89383,-1.4954 0.41362,-0.5269 0.911478,-1.0366 1.775318,-1.7147 0.863841,-0.6781 1.820932,-1.3693 2.845594,-2.0506 1.024663,-0.6812 2.117149,-1.3525 3.277268,-2.0129 1.160118,-0.6604 2.349925,-1.2909 2.1225293,-1.2211 -0.2273953,0.07 -0.3290503,0.064 -0.4067133,0.044 -0.077661,-0.021 -0.107698,-0.035 -0.085114,-0.017 0.022584,0.019 0.213989,0.2068 0.41188,0.3899 0.197892,0.1831 0.498782,0.5384 0.920107,1.0957 0.421325,0.5571 0.9469892,1.3014 1.569561,2.2248 0.6225726,0.9236 1.3053643,1.9688 1.3336384,2.0851 0.028275,0.1164 0.1183616,0.4486 0.2053176,0.9088 0.086956,0.4601 0.166299,1.0375 0.2245606,1.7249 0.058262,0.6872 0.1072228,1.489 0.1147785,1.7424 0.00756,0.2535 0.011935,0.5131 0.014646,0.7698 0.00271,0.2566 0.00473,0.5106 -0.00102,0.7617 -0.00575,0.251 -0.00809,0.4163 -0.081747,1.2346 -0.073654,0.8184 -0.1338485,1.5585 -0.1754095,2.2056 -0.041561,0.647 -0.066632,1.2034 -0.07363,1.6765 -0.007,0.473 0.00607,0.8001 0.021194,1.938 0.015121,1.1378 0.052999,2.3173 0.10985,3.5278 0.056852,1.2105 0.1387598,2.4521 0.2421178,3.7249 0.1033581,1.2727 0.2299984,2.5522 0.2522808,3.0383 0.022282,0.4861 0.043975,0.9697 0.057171,1.429 0.013196,0.4593 0.025399,0.8943 0.032808,1.3047 0.00741,0.4104 0.011369,0.7735 -0.035553,1.9333 -0.046923,1.1599 -0.1613195,2.3352 -0.3377118,3.5365 -0.1763921,1.2013 -0.4207375,2.4287 -0.7063718,3.694 -0.2856347,1.2651 -0.6090241,2.5854 -0.6135367,2.8647 -0.00451,0.2794 0.01564,0.5121 0.053733,0.7117 0.038093,0.1994 0.087132,0.366 0.1187583,0.479 0.031626,0.113 0.031626,0.113 0.010542,0.038 0,0 -0.042168,-0.1507 -0.036097,-0.3297 0.00607,-0.1788 0.04164,-0.3793 0.1026937,-0.6018 0.061053,-0.2225 0.135801,-0.439 0.767709,-1.6331 0.6319083,-1.1939 1.1568864,-2.4095 1.575973,-3.6356 0.419087,-1.2261 0.7491126,-2.4552 0.9927806,-3.6848 0.2436678,-1.2296 0.3952943,-2.4436 0.43226667,-2.8653 0.0369723,-0.4218 0.0706413,-0.8558 0.10169023,-1.313 0.031049,-0.4573 0.0518303,-0.9383 0.0773227,-1.4429 0.0254923,-0.5046 0.0404999,-1.0767 0.029682,-2.3646 -0.0108179,-1.288 -0.006097,-2.5286 0.008553,-3.7337 0.0146501,-1.2051 0.0426108,-2.3747 0.0868918,-3.5091 0.0442811,-1.1344 0.0974099,-2.2539 0.1132769,-2.5962 0.0158671,-0.3422 0.0489486,-0.7674 0.10366156,-1.3013 0.054713,-0.5338 0.13696094,-1.1715 0.23702782,-1.9109 0.10006689,-0.7395 0.2264239,-1.6128 0.24828758,-1.9372 0.02186367,-0.3246 0.03658446,-0.6103 0.05147664,-0.8982 0.01489217,-0.288 0.02212402,-0.5785 0.02562687,-0.8714 0.003503,-0.2929 0.002843,-0.6059 -0.01725353,-1.4417 -0.02009696,-0.8358 -0.06911979,-1.5938 -0.14169249,-2.276 -0.0725727,-0.6822 -0.18071311,-1.2952 -0.33604603,-1.8538 -0.15533292,-0.5585 -0.45641232,-1.2205 -1.18086532,-2.322 -0.7244532,-1.1017 -1.3460269,-2.0111 -1.8859816,-2.7603 -0.5399546,-0.7491 -1.0062242,-1.3463 -1.4310602,-1.8174 -0.424836,-0.4709 -0.7090624,-0.7104 -0.96405,-0.9353 -0.2549874,-0.2247 -0.623682,-0.47 -1.0496008,-0.653 -0.4259182,-0.183 -0.8993668,-0.2801 -1.3840272,-0.2719 -0.48466,0.01 -1.236391,0.2318 -2.5324761,0.9335 -1.296083,0.7018 -2.509556,1.4103 -3.659299,2.1352 -1.149742,0.725 -2.23593,1.4671 -3.258273,2.2266 -1.022341,0.7595 -2.032163,1.5816 -2.748871,2.3608 -0.716707,0.7792 -1.290152,1.5787 -1.731075,2.4234 -0.440924,0.8448 -0.736707,1.7328 -0.872139,2.6504 -0.135429,0.9175 -0.112578,1.7103 -0.09627,2.2535 0.01631,0.5432 0.0611,1.0705 0.139764,1.5635 0.07867,0.493 0.200257,0.961 0.387654,1.4159 0.187399,0.4548 0.325231,0.6719 0.556873,1.0649 0.231642,0.393 0.60326,0.8982 1.084988,1.4817 0.481727,0.5835 1.083278,1.2635 1.810569,2.0488 0.727292,0.7856 1.475352,1.5594 2.509232,2.9456 1.033878,1.3863 1.285216,1.7911 1.533237,2.2241 0.248022,0.433 0.430293,0.7947 0.550706,1.0711 0.120413,0.2762 0.175197,0.4524 0.188148,0.5334 0.01295,0.081 0.01365,0.2165 0.0071,0.353 -0.0066,0.1365 -0.01852,0.25 -0.03799,0.3406 -0.01947,0.091 -0.04156,0.1605 0.02041,0.092 0.06197,-0.068 -0.841557,1.0402 -1.680688,2.1099 -0.839132,1.0697 -1.56484,2.066 -2.192223,2.9802 -0.627383,0.9142 -1.144843,1.7582 -1.558753,2.5197 -0.413909,0.7616 -0.741042,1.4498 -1.001937,2.0581 -0.260894,0.6082 -0.455095,1.1467 -0.579189,1.6443 -0.124094,0.4975 -0.167528,1.0079 0.06852,1.6903 0.236048,0.6823 1.596286,2.0078 2.749651,3.0936 1.153364,1.0859 2.125247,1.9592 2.91458,2.6287 0.789332,0.6693 1.411889,1.134 1.815273,1.3706 0.403384,0.2367 0.589458,0.4107 1.156404,0.7155 0.566945,0.3047 1.357152,0.6271 2.406959,0.9822 1.0498091,0.3551 2.3696355,0.7374 3.1714854,0.8015 1.6110153,0.3607 0.8504333,-0.068 1.6595983,0.2282 z"
           id="path317" />
      </g>
    </g>
  </g>
</svg>
