<?xml version="1.0" encoding="UTF-8" standalone="no"?>
<svg
   version="1.1"
   width="135.38521"
   height="135.38521"
   viewBox="0 0 135.38521 135.38521"
   id="svg1214"
   xmlns="http://www.w3.org/2000/svg"
   xmlns:svg="http://www.w3.org/2000/svg">
  <defs
     id="defs1218" />
  <g
     id="g7538"
     transform="translate(-706.9707,-568.47607)">
    <rect
       style="display:inline;opacity:0.5;fill:none;fill-opacity:1;stroke:none;stroke-width:2.66644;stroke-dasharray:none;stroke-opacity:1"
       id="rect5227"
       width="135.38521"
       height="135.38521"
       x="706.9707"
       y="568.47607" />
    <g
       id="g4512"
       transform="translate(-2.1013915,-2.0583183)">
      <g
         style="fill:#000000;fill-opacity:1;stroke-linejoin:miter"
         id="g971"
         transform="rotate(90,259.41968,748.93978)">
        <path
           d="m 115.05826,276.61987 c 0.65807,-1.24247 2.46651,-7.30899 3.60279,-11.67529 1.13628,-4.3663 1.58112,-7.03641 2.44822,-13.30305 0.86709,-6.26665 1.09553,-8.98278 1.09553,-8.98278 0,0 0,0 0,0 0,0 0,0 -1.38149,4.31418 -1.38149,4.31417 -3.02807,10.4151 -3.61042,13.056 -0.58235,2.64093 -1.57314,8.88127 -1.79237,12.06012 -0.50035,4.50145 -0.0811,3.20825 -0.36226,4.53082 z"
           id="path969" />
      </g>
      <g
         style="fill:#000000;fill-opacity:1;stroke-linejoin:miter"
         id="g975"
         transform="rotate(90,259.41968,748.93978)">
        <path
           d="m 111.76151,224.96179 c 0.54634,-0.42669 1.3445,-1.42023 1.98167,-2.43399 0.63717,-1.01375 1.12785,-2.03555 1.47263,-3.06146 0.34478,-1.02591 0.54032,-2.05299 0.60358,-2.69153 0.0633,-0.63852 0.0796,-1.00629 0.0717,-1.44325 -0.008,-0.43697 -0.0338,-0.94996 -0.0774,-1.54297 -0.0436,-0.59302 -0.10486,-1.26776 -0.41558,-3.04038 -0.31073,-1.77261 -0.79326,-4.30352 -1.34369,-6.5404 -0.55044,-2.23688 -1.02301,-4.21461 -1.40471,-5.93605 -0.3817,-1.72144 -0.6633,-3.1875 -0.79169,-3.93478 -0.12839,-0.74729 -0.1618,-0.95812 -0.19717,-1.26957 -0.0354,-0.31143 -0.0778,-0.71624 -0.11901,-1.21124 -0.0412,-0.49498 -0.0881,-1.07883 -0.12425,-1.4888 -0.0362,-0.40996 -0.0478,-0.57951 -0.056,-0.72874 -0.008,-0.14923 -0.0129,-0.27774 -0.0145,-0.38454 -0.002,-0.10678 -3.9e-4,-0.19061 0.0152,-0.44653 0.0155,-0.25591 0.0518,-0.68424 0.10914,-1.10004 0.0573,-0.4158 0.13533,-0.82018 0.23386,-1.21463 0.0985,-0.39444 0.23371,-0.7717 0.3812,-1.028 0.14747,-0.2563 0.14747,-0.2563 0.0491,-0.0854 0,0 -0.19664,0.34173 -0.42641,0.67889 -0.22976,0.33717 -0.44575,0.69875 -0.63971,1.08762 -0.19396,0.38888 -0.36308,0.80465 -0.50873,1.24191 -0.14565,0.43727 -0.17089,0.53586 -0.19461,0.65027 -0.0237,0.11441 -0.0469,0.24501 -0.07,0.39312 -0.0231,0.14813 -0.0462,0.31444 -0.0694,0.50187 -0.0232,0.1874 -0.0928,0.83593 -0.1358,1.39953 -0.0429,0.56362 -0.0766,1.0437 -0.094,1.4422 -0.0175,0.39849 -0.0199,0.71892 -0.0108,0.95027 0.009,0.23136 0.0599,1.58867 0.20909,3.21634 0.14922,1.62767 0.38968,3.50847 0.7288,5.6418 0.33912,2.13332 0.82331,4.50881 1.5473,7.08707 0.72398,2.57828 0.84957,3.1967 0.96386,3.80969 0.11428,0.61301 0.20225,1.13942 0.26404,1.57666 0.0618,0.43724 0.0978,0.78125 0.11418,1.03662 0.0164,0.25536 0.0325,1.14946 -0.0627,2.04935 -0.0952,0.89989 -0.31131,1.85343 -0.63969,2.86685 -0.32837,1.01344 -0.76867,2.09088 -0.93261,2.71192 -0.53332,1.16061 -0.0474,0.70076 -0.41681,1.24035 z"
           id="path973" />
      </g>
      <g
         style="fill:#000000;fill-opacity:1;stroke-linejoin:miter"
         id="g979"
         transform="rotate(90,259.41968,748.93978)">
        <path
           d="m 153.89148,263.005 c 0.2119,-0.70333 0.001,-3.7176 -0.0543,-6.65945 -0.0556,-2.94186 -0.74992,-11.03023 -0.93643,-13.1736 -0.1865,-2.14337 -0.80161,-8.31929 -1.14237,-11.17979 -0.34077,-2.86052 -1.09589,-6.43901 -1.4797,-8.17076 -0.38382,-1.73175 -1.17414,-5.41796 -1.55892,-8.09722 -0.38478,-2.67928 -0.38582,-4.2847 -0.16527,-5.64858 0.22057,-1.36387 0.5659,-2.01199 0.91507,-2.5724 0.34919,-0.56042 1.07929,-1.07266 1.63626,-1.76812 0.55698,-0.69547 1.10847,-1.25232 1.42266,-2.71649 0.31419,-1.46416 -0.12534,-2.50077 -0.39253,-3.03519 -0.26722,-0.53441 -0.90909,-1.58867 -0.93473,-1.09973 -0.0256,0.48892 0.015,0.4796 0.44182,0.25401 0.42682,-0.22558 3.02797,-1.52661 4.57359,-2.16972 1.54561,-0.64313 4.97826,-1.96347 6.51826,-2.47687 1.54,-0.5134 4.43849,-1.30342 5.83425,-1.68707 1.39575,-0.38364 3.40311,-0.63018 4.48194,-0.76508 1.07881,-0.1349 2.9642,-0.40419 3.46228,-0.30527 0.49809,0.0989 1.97488,0.58953 3.6231,1.53876 1.64824,0.94925 3.44559,2.23047 5.09321,3.75455 1.64759,1.52408 3.05995,2.93251 4.0509,3.99939 0.99095,1.06689 1.68089,2.69142 2.29913,4.91125 0.61824,2.21984 0.85167,4.34838 1.11676,7.12326 0.26508,2.77489 0.55631,4.8855 0.68305,7.97977 0.12674,3.09427 0.12878,5.31473 0.16446,8.15975 0.0357,2.84501 -0.0282,3.54786 -0.42106,5.87655 -0.39289,2.32869 -0.63255,3.28799 -1.48122,6.35536 -0.84869,3.06735 -1.20254,4.13814 -2.31478,6.36725 -1.11224,2.2291 -1.60478,2.96883 -2.75359,4.54419 -1.1488,1.57538 -1.69516,2.30743 -2.89895,3.74785 -1.20378,1.4404 -1.78815,2.1674 -3.12561,3.31264 -1.33747,1.1452 -2.26146,1.89859 -3.70343,2.60913 -1.44199,0.71057 -2.42823,1.11493 -3.57996,1.38995 -1.15175,0.27502 -2.34278,0.31433 -3.57695,0.3887 -1.23418,0.0744 -2.55637,-0.35379 -4.08461,-0.85 -1.52824,-0.49619 -3.13327,-0.65832 -4.60882,-1.22257 -1.47555,-0.56425 -3.05205,-1.00412 -4.26163,-1.43423 -1.20957,-0.43012 -1.37323,-0.82355 -1.54867,-0.79582 -0.17544,0.0278 0.15092,-0.1723 0.78432,-0.5224 0.6334,-0.3501 2.14431,-1.12822 2.64795,-1.4065 0.50367,-0.27827 0.50367,-0.27827 0.16222,-0.10756 0,0 -0.69989,0.29703 -1.87474,0.55503 -1.17485,0.25799 -1.9261,0.40136 -2.52509,1.12496 -0.599,0.72357 0.04,1.26954 0.78122,1.79969 0.74123,0.53012 2.02032,1.42273 3.06802,1.88974 1.04774,0.46701 3.50996,1.70564 4.66807,2.01804 1.15809,0.3124 3.26564,1.20525 4.57693,1.56075 1.31128,0.3555 3.449,0.43387 4.66968,0.45487 1.22066,0.021 3.30124,-0.50042 4.479,-0.91046 1.17775,-0.41004 3.50289,-1.50553 4.70832,-2.36402 1.20543,-0.85849 3.21206,-2.51084 4.10223,-3.5039 0.89017,-0.99304 2.53101,-2.88111 3.36925,-3.99714 0.83824,-1.11602 2.19652,-3.01759 3.07316,-4.34587 0.87666,-1.32827 2.28502,-4.69674 2.98653,-6.80088 0.70151,-2.10413 1.52268,-5.65435 1.93601,-7.31961 0.41332,-1.66529 0.69894,-4.47544 0.83725,-6.05367 0.1383,-1.57823 -0.13085,-5.38673 -0.14533,-8.46941 -0.0145,-3.08266 -0.26442,-5.61285 -0.52928,-7.86213 -0.26488,-2.24929 -0.54888,-5.34091 -0.97325,-7.84233 -0.42438,-2.50144 -1.2804,-5.07332 -2.40868,-7.12804 -1.12828,-2.05472 -2.61299,-3.27225 -4.07336,-4.73343 -1.46038,-1.46118 -3.45179,-3.16749 -5.44397,-4.58549 -1.99219,-1.41799 -4.137,-2.34984 -5.78888,-2.8505 -1.6519,-0.50064 -2.8227,-0.4142 -4.44211,-0.19522 -1.6194,0.21898 -2.35403,0.31081 -4.46564,0.71838 -2.11162,0.40758 -3.2436,0.7163 -5.66281,1.43201 -2.4192,0.7157 -3.89415,1.20847 -6.50555,2.23998 -2.61141,1.03151 -4.22547,1.70617 -5.9617,2.60832 -1.73626,0.90216 -2.82537,1.62108 -3.28522,3.58234 -0.45985,1.96127 0.44922,2.74824 0.5291,3.02276 0.0799,0.27452 0.3471,0.80899 0.39457,0.83368 0.0475,0.0247 0.14139,-0.24863 -0.31164,0.33801 -0.45305,0.58664 -0.55368,0.67212 -1.42041,1.56067 -0.86672,0.88857 -1.49342,1.84899 -2.00453,3.38773 -0.51111,1.53874 -0.79253,3.54104 -0.65132,5.89035 0.14118,2.34929 0.69149,5.65069 1.44516,9.00607 0.75366,3.35538 0.89492,3.92448 1.72461,8.00058 0.82968,4.07608 0.94031,4.79492 1.59117,8.87424 0.65086,4.07933 1.03317,6.3007 2.13569,12.84347 1.10253,6.54276 1.29848,7.27536 1.83356,8.68991 0.53509,2.08258 0.67627,1.41456 0.67627,2.08258 z"
           id="path977" />
      </g>
    </g>
  </g>
</svg>
