<?xml version="1.0" encoding="UTF-8" standalone="no"?>
<svg
   version="1.1"
   width="135.38521"
   height="135.38521"
   viewBox="0 0 135.38521 135.38521"
   id="svg1214"
   xmlns="http://www.w3.org/2000/svg"
   xmlns:svg="http://www.w3.org/2000/svg">
  <defs
     id="defs1218" />
  <g
     id="g7108"
     transform="translate(-250.48431,-848.95837)">
    <rect
       style="display:inline;opacity:0.5;fill:none;fill-opacity:1;stroke:none;stroke-width:2.66644;stroke-dasharray:none;stroke-opacity:1"
       id="rect5339"
       width="135.38521"
       height="135.38521"
       x="250.48431"
       y="848.95837" />
    <g
       id="g4272"
       transform="translate(210.63072,23.702859)">
      <g
         style="fill:#000000;fill-opacity:1;stroke-linejoin:miter"
         id="g531"
         transform="rotate(90,259.41968,748.93978)">
        <path
           d="m 425.37454,938.7709 c -0.38159,-0.1189 -1.25254,-0.5452 -2.32914,-1.45205 -1.0766,-0.9068 -2.3823,-2.30645 -3.9226,-4.2077 -1.54025,-1.90125 -3.31338,-4.30845 -4.60345,-6.20015 -1.2901,-1.8916 -1.90445,-3.0949 -2.47175,-4.5394 -0.56728,-1.44454 -1.07598,-3.1334 -1.53033,-5.06264 -0.45431,-1.92926 -0.85165,-4.09876 -1.15582,-6.00403 -0.30415,-1.90523 -0.47827,-3.31053 -0.58205,-4.46777 -0.1038,-1.15723 -0.13887,-2.05656 -0.12236,-2.66856 0.0165,-0.6121 0.0565,-0.8736 0.27556,-1.56887 0.219,-0.69523 0.5829,-1.78277 1.06874,-3.00397 0.48581,-1.22116 1.1012,-2.56866 1.83661,-4.04412 0.73545,-1.47544 1.59027,-3.07774 2.32849,-4.84744 0.73819,-1.7697 1.15204,-3.2729 1.53106,-4.6095 0.37904,-1.3366 0.72886,-2.50626 1.03865,-3.5181 0.30975,-1.01184 0.59921,-1.86316 0.8786,-2.3808 0.27935,-0.51764 0.27935,-0.51764 0.0783,-0.18085 0,0 -0.44665,0.64855 -1.00452,1.43695 -0.55785,0.78833 -1.14092,1.76215 -1.7325,2.92225 -0.59162,1.16009 -1.2005,2.49975 -1.7995,3.95361 -0.599,1.4538 -1.66926,2.9563 -2.65708,4.47589 -0.98782,1.51959 -1.8381,2.9472 -2.5527,4.28435 -0.71462,1.3371 -1.29425,2.58613 -1.72504,3.70704 -0.43076,1.12086 -0.61278,1.49982 -0.7627,2.26892 -0.1499,0.76911 -0.21108,1.68097 -0.20538,2.79314 0.006,1.1122 0.0731,2.4411 0.199,4.02565 0.1259,1.58455 0.56812,4.03045 1.12275,6.21735 0.55462,2.1868 1.17972,4.14435 1.87478,5.87475 0.69504,1.73035 1.47117,3.2309 2.32167,4.5022 0.8505,1.27135 3.0563,3.89581 5.0307,6.00185 1.97442,2.10606 3.72045,3.6984 5.2359,4.7728 1.51543,1.07435 2.7924,1.6233 3.35927,1.6498 0.9823,0.0105 0.56143,-0.11463 0.97687,-0.1306 z"
           id="path529" />
      </g>
      <g
         style="fill:#000000;fill-opacity:1;stroke-linejoin:miter"
         id="g535"
         transform="rotate(90,259.41968,748.93978)">
        <path
           d="m 424.07187,935.2172 c 0.48513,-0.236 1.52688,-1.26334 2.79568,-2.9699 1.26883,-1.70647 2.75445,-4.08525 4.46295,-7.12834 1.7085,-3.04309 3.6337,-6.75246 5.11304,-9.92116 1.47936,-3.1687 2.24946,-5.2091 2.86516,-7.15416 0.61568,-1.94504 1.07994,-3.79468 1.32478,-5.55784 0.24488,-1.7632 0.33924,-3.42257 0.31775,-4.5259 -0.0215,-1.10333 -0.12213,-1.7439 -0.29571,-2.39294 -0.17359,-0.64906 -0.42249,-1.3086 -0.73896,-1.98396 -0.31646,-0.67535 -0.69896,-1.3703 -1.06106,-1.93945 -0.3621,-0.56915 -0.7286,-1.02459 -1.24106,-1.60275 -0.51248,-0.5783 -1.18759,-1.2912 -2.02429,-2.1506 -0.83673,-0.8594 -1.8425,-1.8622 -3.55319,-3.5086 -1.7107,-1.6465 -3.79646,-3.5094 -5.55732,-4.875 -1.76086,-1.3656 -3.18784,-2.23664 -4.25991,-2.61134 -1.07206,-0.37469 -1.73316,-0.27929 -2.04258,-0.037 -0.30941,0.2423 -0.30941,0.2423 -0.10241,0.0832 0,0 0.41623,-0.31076 1.10141,-0.0327 0.68518,0.278 1.63318,1.0584 2.90201,2.3108 1.26884,1.25245 2.86534,2.9855 4.79954,5.19996 1.93413,2.21454 2.93715,3.39384 3.791,4.41174 0.85388,1.0179 1.55197,1.86725 2.09174,2.5445 0.53973,0.67724 0.91589,1.17504 1.10302,1.4559 0.18711,0.2809 0.50727,0.9063 0.76667,1.4925 0.25937,0.58626 0.45202,1.1185 0.58337,1.5913 0.13138,0.4729 0.201,0.8841 0.2201,1.2255 0.0191,0.3413 -0.0515,1.73437 -0.2524,3.2246 -0.20085,1.49023 -0.5408,3.1042 -0.93938,4.86395 -0.39856,1.75975 -0.93132,3.65175 -1.58789,5.65009 -0.65659,1.99836 -2.40951,6.22966 -3.93943,9.8302 -1.5299,3.60056 -2.83053,6.54303 -3.8987,8.83142 -1.0682,2.28834 -1.91388,3.922 -2.19782,4.57824 -0.64298,0.99506 -0.1871,0.7589 -0.54611,1.0977 z"
           id="path533" />
      </g>
      <g
         style="fill:#000000;fill-opacity:1;stroke-linejoin:miter"
         id="g539"
         transform="rotate(90,259.41968,748.93978)">
        <path
           d="m 385.45602,931.5118 c -0.31787,-0.6489 -1.10824,-1.72255 -1.86496,-2.7153 -0.75668,-0.99267 -1.4663,-1.9175 -2.12539,-2.778 -0.65909,-0.86054 -1.26157,-1.6621 -1.65937,-2.2281 -0.3978,-0.5659 -0.61923,-0.9176 -0.7842,-1.2156 -0.165,-0.2979 -0.2726,-0.5352 -0.32374,-0.69534 -0.0511,-0.16016 -0.0543,-0.21976 -0.0644,-0.46026 -0.0102,-0.24055 -0.0652,-0.55934 -0.0921,-0.91267 -0.0269,-0.35333 -0.0367,-0.7392 -0.0287,-1.15693 0.008,-0.41765 0.0285,-0.8671 0.0622,-1.39055 0.0337,-0.52345 0.0753,-1.02685 0.12884,-1.4964 0.0535,-0.46955 0.1257,-0.90415 0.21527,-1.30435 0.0896,-0.4001 0.1911,-0.7679 0.36293,-1.2728 0.17183,-0.50495 0.4178,-1.11896 0.73473,-1.72 0.31689,-0.601 0.7001,-1.1963 1.1535,-1.78965 0.45337,-0.59332 0.98027,-1.18609 1.45862,-1.5661 0.47839,-0.38 0.47839,-0.38 0.14813,-0.14145 0,0 -0.69461,0.4326 -1.3706,0.8578 -0.67603,0.42525 -1.28055,0.9149 -1.80905,1.4662 -0.52851,0.5513 -0.98499,1.15656 -1.35575,1.8023 -0.37076,0.64577 -0.56695,1.0167 -0.75,1.44185 -0.18301,0.42525 -0.34318,0.88575 -0.48488,1.38001 -0.14174,0.4942 -0.26545,1.02214 -0.366,1.57174 -0.10053,0.54953 -0.192,1.034 -0.26365,1.5227 -0.0716,0.4886 -0.1282,0.9568 -0.15442,1.40617 -0.0262,0.4494 -0.0286,0.88013 0.003,1.26709 0.0312,0.38694 0.0595,0.62834 0.17148,0.98217 0.11197,0.35382 0.27854,0.69137 0.4935,1.03723 0.215,0.34584 0.47864,0.71058 0.7983,1.10894 0.31968,0.3984 0.9945,1.1173 1.72685,1.87153 0.73233,0.75421 1.53351,1.54712 2.41702,2.36667 0.88353,0.8195 1.85111,1.6634 2.4476,2.0127 1.07395,0.84616 0.69833,0.2515 1.17575,0.7484 z"
           id="path537" />
      </g>
      <g
         style="fill:#000000;fill-opacity:1;stroke-linejoin:miter"
         id="g543"
         transform="rotate(90,259.41968,748.93978)">
        <path
           d="m 373.8458,937.4535 c -0.63062,-0.6829 -1.96753,-1.71345 -3.18247,-2.64564 -1.21497,-0.93213 -2.29283,-1.79166 -3.22713,-2.58691 -0.93434,-0.79525 -1.72438,-1.52505 -2.30293,-2.09272 -0.57855,-0.56768 -0.90762,-0.93833 -1.14367,-1.29183 -0.23606,-0.35337 -0.38703,-0.6867 -0.46998,-1.0024 -0.0829,-0.31575 -0.10354,-0.6267 -0.0701,-1.50417 0.0334,-0.8775 0.0999,-2.12786 0.21788,-3.25 0.11797,-1.12213 0.19445,-2.12523 0.32045,-3.00373 0.12601,-0.87847 0.29775,-1.63054 0.81641,-3.103 0.51864,-1.4725 1.27534,-3.5226 1.89164,-5.1934 0.6163,-1.67075 1.0961,-2.9594 1.44393,-3.85844 0.34781,-0.89896 0.56394,-1.38646 0.67977,-1.59491 0.11586,-0.20845 0.18522,-0.3471 0.24943,-0.47295 0.0642,-0.1259 0.12463,-0.2378 0.18085,-0.3352 0.0562,-0.0974 0.10769,-0.1801 -0.0667,-0.42494 -0.17435,-0.24486 -0.17435,-0.24486 -0.20833,-0.20476 0,0 -0.51845,-0.2891 -0.609,-0.1911 -0.0905,0.0979 -0.18432,0.2064 -0.28195,0.32573 -0.0976,0.11933 -0.19937,0.24967 -0.29449,0.37837 -0.0951,0.1286 -0.31372,0.40294 -0.70286,1.04345 -0.38915,0.64045 -0.92956,1.63379 -1.6291,2.99265 -0.69957,1.3589 -1.54478,3.092 -2.54515,5.20595 -1.00033,2.11395 -1.32907,2.96021 -1.59658,3.90035 -0.26752,0.9401 -0.47779,1.9859 -0.59165,3.14214 -0.11386,1.15626 -0.12704,2.41946 -0.084,3.77846 0.0431,1.35886 0.0688,1.92564 0.21186,2.5564 0.1431,0.63065 0.40108,1.22525 0.76384,1.7713 0.3628,0.546 0.81684,1.0443 1.33072,1.4804 0.51389,0.43614 1.31641,1.09434 2.29234,1.7934 0.9759,0.699 2.0951,1.4176 3.3693,2.1424 1.27415,0.7248 2.70634,1.45096 3.5513,1.68564 1.6155,0.68152 0.91573,0.11261 1.6863,0.55946 z"
           id="path541" />
      </g>
      <g
         style="fill:#000000;fill-opacity:1;stroke-linejoin:miter"
         id="g547"
         transform="rotate(90,259.41968,748.93978)">
        <path
           d="m 376.54333,892.2705 c -0.0579,-0.18847 -0.30151,-0.6243 -0.67578,-1.1908 -0.37425,-0.56646 -0.88833,-1.2535 -1.53795,-2.0638 -0.64967,-0.8102 -1.43766,-1.7405 -2.51753,-3.0929 -1.07989,-1.3524 -2.36722,-3.0351 -2.54864,-3.5849 -0.18143,-0.54983 -0.34351,-1.15347 -0.43703,-1.7248 -0.0935,-0.5713 -0.12938,-1.1102 -0.0996,-1.6212 0.0298,-0.51096 0.12156,-1.03226 0.1628,-1.1735 0.0413,-0.1412 0.0832,-0.26306 0.0996,-0.3514 0.0164,-0.0883 0.0312,-0.1308 0.0233,-0.12894 -0.008,0.002 -0.071,0.0596 1.35074,-1.3147 1.42181,-1.37433 2.07092,-2.37671 2.53613,-3.1048 0.46521,-0.72806 0.86705,-1.3388 1.20893,-1.82611 0.34192,-0.48725 0.61679,-0.85035 0.85919,-1.11965 0.24243,-0.2692 0.34811,-0.4452 0.62991,-0.73386 0.2818,-0.2887 0.82732,-0.79094 1.6127,-1.47858 0.7854,-0.68762 1.7938,-1.57452 2.6189,-2.40076 0.8251,-0.82623 0.8251,-0.82623 0.19574,-0.3886 0,0 -1.49662,0.53564 -2.58716,1.1565 -1.09051,0.62084 -1.90713,1.1391 -2.48053,1.5325 -0.57336,0.39345 -0.93118,0.7051 -1.09735,0.85994 -0.1662,0.15486 -0.50546,0.46776 -0.89575,0.88026 -0.39026,0.41247 -0.84233,0.9277 -1.35358,1.55395 -0.51129,0.62625 -1.08845,1.36071 -2.04962,2.2594 -0.96121,0.89862 -2.46506,2.12055 -2.66296,2.34685 -0.19794,0.2263 -0.3393,0.4544 -0.46307,0.68415 -0.12382,0.2298 -0.2004,0.47825 -0.25697,0.73805 -0.0565,0.25975 -0.10446,0.5709 -0.14117,1.27697 -0.0367,0.70613 0.0159,1.43473 0.1524,2.16433 0.13657,0.7296 0.3592,1.45755 0.66044,2.18405 0.30123,0.72655 0.78338,1.62345 2.3411,3.24815 1.55767,1.6248 2.5942,2.5293 3.46728,3.2741 0.87307,0.7447 1.60862,1.3708 2.20495,1.88065 0.59635,0.50985 1.05397,0.90429 1.25702,1.04715 0.3078,0.2931 0.31885,0.0621 0.42358,0.2123 z"
           id="path545" />
      </g>
      <g
         style="fill:#000000;fill-opacity:1;stroke-linejoin:miter"
         id="g551"
         transform="rotate(90,259.41968,748.93978)">
        <path
           d="m 383.88382,886.6368 c -0.11029,-0.20656 -0.42062,-0.673 -0.8027,-1.2881 -0.38208,-0.6151 -0.84348,-1.37617 -1.38502,-2.2846 -0.54156,-0.9084 -1.1647,-1.964 -1.57934,-2.7084 -0.41464,-0.74443 -0.54648,-1.0855 -0.61871,-1.3656 -0.0722,-0.28 -0.0857,-0.4947 -0.0637,-0.64135 0.022,-0.14675 0.0629,-0.2406 0.24734,-0.52285 0.18448,-0.28214 0.51428,-0.69406 0.85333,-1.13834 0.33902,-0.44426 0.77182,-0.86216 1.28867,-1.26286 0.51685,-0.40065 1.11865,-0.784 1.57645,-1.05916 0.45775,-0.27514 0.7337,-0.43364 1.27368,-0.66494 0.53997,-0.23124 1.31112,-0.53947 2.30505,-0.92027 0.9939,-0.38079 2.2012,-0.86283 3.23419,-1.18426 1.03303,-0.32141 1.03303,-0.32141 0.33219,-0.15863 0,0 -1.43823,0.17096 -2.6597,0.30406 -1.2215,0.13313 -2.21121,0.2962 -2.98178,0.4565 -0.77058,0.1603 -1.33243,0.32153 -1.66434,0.4625 -0.33191,0.14095 -1.07736,0.4316 -1.79986,0.7954 -0.72254,0.36374 -1.37223,0.78806 -1.9524,1.2665 -0.5802,0.47847 -1.10882,0.99684 -1.46938,1.61366 -0.36057,0.61688 -0.5319,1.01064 -0.6064,1.46274 -0.0745,0.4521 -0.0384,0.9056 0.0829,1.34964 0.12134,0.44396 0.31284,0.88436 0.58115,1.34146 0.26831,0.4572 1.11853,1.53244 1.87869,2.4439 0.76016,0.9114 1.4368,1.67435 2.03757,2.28184 0.60077,0.60746 1.11727,1.06386 1.37363,1.21612 0.42172,0.3078 0.35312,0.0494 0.51846,0.20504 z"
           id="path549" />
      </g>
    </g>
  </g>
</svg>
