<?xml version="1.0" encoding="UTF-8" standalone="no"?>
<!-- Created with Inkscape (http://www.inkscape.org/) -->

<svg
   width="268.67789em"
   height="268.67789em"
   viewBox="0 0 268.67789 268.67789"
   version="1.1"
   id="svg5"
   xml:space="preserve"
   xmlns="http://www.w3.org/2000/svg"
   xmlns:svg="http://www.w3.org/2000/svg"><defs
     id="defs2" /><g
     id="layer1"
     transform="translate(710.77527,-977.07288)"><g
       id="g53431"><rect
         style="display:inline;fill:none;fill-opacity:1;stroke:none;stroke-width:5.29167;stroke-dasharray:none;stroke-opacity:1"
         id="rect53367"
         width="268.67789"
         height="268.67789"
         x="-710.77527"
         y="977.07288" /><g
         id="g52883"
         transform="matrix(3.0855799,0,0,3.0855799,-4651.8434,-1297.0479)"><g
           style="fill:#000000;fill-opacity:1;stroke-linejoin:miter"
           id="g50968"
           transform="matrix(0.0212301,0.88760364,-0.82571352,0.02282136,2056.9295,403.92004)"><path
             d="m 425.3689,938.62396 c -0.35395,-0.11736 -1.17762,-0.55276 -2.1892,-1.50066 -1.01158,-0.948 -2.22545,-2.40846 -3.6623,-4.37135 -1.43686,-1.96289 -3.09986,-4.43121 -4.28403,-6.33569 -1.18417,-1.90446 -1.72547,-3.06091 -2.21047,-4.46956 -0.48503,-1.4086 -0.92607,-3.0604 -1.30632,-4.95824 -0.38025,-1.89782 -0.68045,-4.0426 -1.056,-5.87966 -0.37552,-1.837 -0.58278,-3.2165 -0.73242,-4.3399 -0.1496,-1.1233 -0.22406,-1.97715 -0.23834,-2.5138 -0.0143,-0.5366 -0.0262,-0.6541 0.16592,-1.3468 0.19214,-0.69266 0.48853,-1.76053 0.91324,-2.9754 0.42475,-1.2148 0.97992,-2.5679 1.63178,-4.07194 0.65184,-1.50406 1.42344,-3.14441 2.08551,-4.99389 0.66205,-1.84957 0.97717,-3.38407 1.27325,-4.75074 0.29605,-1.36657 0.58115,-2.56439 0.86268,-3.59383 0.2815,-1.0294 0.66866,-1.834 0.97027,-2.33915 0.30163,-0.50519 0.30163,-0.50519 0.10055,-0.1684 0,0 -0.40216,0.67355 -0.91977,1.47815 -0.51757,0.8046 -1.13998,1.75745 -1.80142,2.8891 -0.66143,1.1317 -1.3613,2.44 -2.05233,3.8404 -0.691,1.4004 -1.82822,2.8188 -2.90168,4.30206 -1.07342,1.48334 -2.00287,2.8883 -2.77398,4.22534 -0.77109,1.3371 -1.42014,2.5933 -1.90137,3.7159 -0.48127,1.12254 -0.68363,1.52293 -0.87561,2.40886 -0.19202,0.88598 -0.28253,1.859 -0.31653,3.01208 -0.034,1.15306 -0.0182,2.51346 0.0638,4.14392 0.082,1.63044 0.4361,4.14679 1.0751,6.36157 0.63902,2.21487 1.34065,4.20407 2.11705,5.96741 0.7764,1.76336 1.62205,3.30676 2.55365,4.61981 0.93164,1.31305 3.26007,3.87525 5.3482,5.91485 2.08817,2.0396 3.92368,3.58045 5.52082,4.6014 1.59714,1.0209 2.93262,1.5337 3.53692,1.5564 1.01978,0.007 0.58762,-0.41225 1.00306,-0.42824 z"
             id="path50966" /></g><g
           style="fill:#000000;fill-opacity:1;stroke-linejoin:miter"
           id="g50972"
           transform="matrix(0.0212301,0.88760364,-0.82571352,0.02282136,2056.9295,403.92004)"><path
             d="m 424.1728,935.32416 c 0.4949,-0.24526 1.57967,-1.26203 2.94805,-2.92401 1.36835,-1.66199 2.97528,-3.99012 4.82305,-6.97755 1.84776,-2.98736 3.91676,-6.6417 5.5223,-9.81005 1.60555,-3.16835 2.4381,-5.22725 3.13683,-7.19769 0.6987,-1.97046 1.22737,-3.86616 1.37274,-5.71136 0.14538,-1.8453 0.20447,-3.5771 0.14285,-4.7623 -0.0616,-1.18516 -0.19052,-1.913 -0.40292,-2.6282 -0.21237,-0.71516 -0.49957,-1.4241 -0.85523,-2.1348 -0.35562,-0.71073 -0.77722,-1.42924 -1.18887,-2.04234 -0.41165,-0.61316 -0.82172,-1.08691 -1.37463,-1.65676 -0.55292,-0.5698 -1.26474,-1.26426 -2.13457,-2.10245 -0.86983,-0.8382 -1.9276,-1.79865 -3.73042,-3.36762 -1.80283,-1.56893 -4.01428,-3.31893 -5.87192,-4.58343 -1.85766,-1.2645 -3.33432,-2.0601 -4.3858,-2.4278 -1.05152,-0.3677 -1.68549,-0.37445 -1.99601,-0.13586 -0.31051,0.23866 -0.31051,0.23866 -0.10351,0.0796 0,0 0.41403,-0.31815 1.13516,-0.10434 0.7211,0.2138 1.6655,1.03454 2.86725,2.37234 1.20172,1.3378 2.68918,3.17765 4.50259,5.4989 1.81342,2.32114 2.74796,3.555 3.5564,4.608 0.80844,1.053 1.47916,1.9169 1.98032,2.6106 0.50114,0.6938 0.83688,1.19385 0.97412,1.4337 0.1372,0.2399 0.41449,0.841 0.6347,1.3999 0.22022,0.559 0.37378,1.05153 0.46472,1.47023 0.091,0.41867 0.1255,0.75657 0.1164,1.00097 -0.009,0.24434 -0.13184,1.5804 -0.3788,2.99775 -0.24697,1.41735 -0.72896,2.94049 -1.05858,4.66059 -0.32965,1.72003 -0.76984,3.59456 -1.35082,5.56336 -0.58097,1.96886 -2.17024,6.24145 -3.5564,9.8978 -1.38618,3.65645 -2.55195,6.6536 -3.50608,8.99044 -0.95412,2.33686 -1.70752,4.01326 -1.96506,4.67016 -0.61658,0.9957 0.0411,0.97345 -0.31786,1.31226 z"
             id="path50970" /></g><g
           style="fill:#000000;fill-opacity:1;stroke-linejoin:miter"
           id="g50976"
           transform="matrix(0.0212301,0.88760364,-0.82571352,0.02282136,2056.9295,403.92004)"><path
             d="m 385.56204,931.4099 c -0.31244,-0.65337 -1.06289,-1.7631 -1.77364,-2.79546 -0.71073,-1.03234 -1.37296,-1.99554 -1.99006,-2.88674 -0.61714,-0.89115 -1.17432,-1.72294 -1.53314,-2.29466 -0.3588,-0.57174 -0.55088,-0.92028 -0.68863,-1.20284 -0.13777,-0.28245 -0.21737,-0.4899 -0.23859,-0.59727 -0.0212,-0.10743 0.005,-0.0776 0.01,-0.30183 0.005,-0.22417 -0.2649,-0.501 -0.31095,-0.83635 -0.0461,-0.33539 -0.077,-0.70725 -0.0917,-1.11465 -0.0146,-0.4073 -0.0168,-0.8495 -0.013,-1.3766 0.004,-0.5271 0.005,-1.0272 0.0243,-1.4947 0.0195,-0.4675 0.0596,-0.902 0.11987,-1.3039 0.0603,-0.4019 0.13697,-0.77295 0.27097,-1.2922 0.13398,-0.5192 0.34433,-1.15086 0.6301,-1.77696 0.28577,-0.6261 0.64777,-1.24859 1.09457,-1.86154 0.44684,-0.613 1.04459,-1.1289 1.53998,-1.48666 0.49542,-0.35779 0.49542,-0.35779 0.16516,-0.11924 0,0 -0.66055,0.477 -1.30188,0.9328 -0.6413,0.4557 -1.25747,0.9219 -1.81326,1.4447 -0.55579,0.5227 -1.0412,1.10776 -1.45499,1.7344 -0.41378,0.62666 -0.63522,0.9895 -0.8446,1.41194 -0.20941,0.42242 -0.40025,0.88171 -0.57471,1.37671 -0.17444,0.49505 -0.33284,1.02565 -0.46794,1.57545 -0.1351,0.54973 -0.258,1.02983 -0.35597,1.5265 -0.098,0.4967 -0.16971,0.9768 -0.21646,1.4414 -0.0468,0.46464 -0.0675,0.9148 -0.1351,1.32286 -0.0676,0.40804 -0.0259,0.68188 0.11569,1.11157 0.14157,0.42963 0.3378,0.81037 0.57986,1.18127 0.24204,0.37085 0.53398,0.7463 0.88614,1.14954 0.35217,0.40326 1.06931,1.10401 1.8392,1.83362 0.76994,0.72967 1.62522,1.48024 2.55518,2.26129 0.92999,0.78105 1.94396,1.58425 2.56316,1.91321 1.0966,0.82584 0.93303,0.0274 1.41044,0.52434 z"
             id="path50974" /></g><g
           style="fill:#000000;fill-opacity:1;stroke-linejoin:miter"
           id="g50980"
           transform="matrix(0.0212301,0.88760364,-0.82571352,0.02282136,2056.9295,403.92004)"><path
             d="m 373.91956,937.3263 c -0.61969,-0.69916 -1.91506,-1.7921 -3.08126,-2.7882 -1.1662,-0.99617 -2.19768,-1.9044 -3.08296,-2.7379 -0.88528,-0.83365 -1.62186,-1.5906 -2.17324,-2.17276 -0.5514,-0.58214 -0.81818,-0.93188 -0.99024,-1.24164 -0.17206,-0.30975 -0.2666,-0.5733 -0.29993,-0.8007 -0.0333,-0.2274 -0.0207,-0.43556 0.0518,-1.2818 0.0724,-0.84627 0.1856,-2.06935 0.33272,-3.15584 0.14713,-1.08646 0.0475,-2.07172 0.12888,-2.91632 0.0814,-0.8446 0.2189,-1.55548 0.65387,-3.02314 0.43493,-1.4676 1.08368,-3.56066 1.61346,-5.2659 0.52979,-1.7053 0.92139,-3.0302 1.21143,-3.95296 0.29001,-0.92274 0.46536,-1.42719 0.56646,-1.64429 0.10108,-0.2171 0.16184,-0.3609 0.21978,-0.49085 0.0579,-0.12994 0.11284,-0.2458 0.16432,-0.3472 0.0514,-0.10147 0.0991,-0.1883 -0.0634,-0.42336 -0.16238,-0.23504 -0.16238,-0.23504 -0.19636,-0.19494 0,0 -0.49455,-0.2695 -0.58928,-0.1756 -0.0947,0.0939 -0.19352,0.1983 -0.29694,0.3136 -0.10338,0.1153 -0.21164,0.2416 -0.31561,0.36425 -0.10394,0.12255 -0.34299,0.38655 -0.7763,1.00885 -0.43332,0.6223 -1.04175,1.5875 -1.82777,2.9113 -0.786,1.3238 -1.71954,3.02186 -2.83218,5.0963 -1.11264,2.0745 -1.49212,2.96646 -1.79682,3.94516 -0.30468,0.97869 -0.56408,2.05624 -0.75265,3.24078 -0.18853,1.18451 -0.17015,2.48041 -0.0757,3.8584 0.0944,1.37796 0.14209,1.99636 0.32446,2.72566 0.18237,0.7293 0.49427,1.4062 0.91663,2.01335 0.42234,0.60712 0.94164,1.14025 1.49904,1.58365 0.55742,0.4433 1.3895,1.0791 2.41804,1.74606 1.02854,0.66694 2.19406,1.34574 3.51654,2.01504 1.32248,0.66917 2.80194,1.32993 3.67312,1.52525 1.64173,0.64221 1.0895,-0.18109 1.86006,0.26575 z"
             id="path50978" /></g><g
           style="fill:#000000;fill-opacity:1;stroke-linejoin:miter"
           id="g50984"
           transform="matrix(0.0212301,0.88760364,-0.82571352,0.02282136,2056.9295,403.92004)"><path
             d="m 376.66394,892.1864 c -0.0609,-0.1927 -0.30887,-0.634 -0.67354,-1.21435 -0.3647,-0.58039 -0.848,-1.30042 -1.46415,-2.1471 -0.61619,-0.84662 -1.36228,-1.82235 -2.3653,-3.22055 -1.00299,-1.3982 -2.18515,-3.1103 -2.29602,-3.5853 -0.11087,-0.475 -0.22573,-1.0459 -0.28265,-1.5704 -0.0569,-0.52444 -0.0573,-1.00546 -0.004,-1.4481 0.0535,-0.4426 0.16629,-0.9096 0.20581,-1.0033 0.0395,-0.0936 0.0778,-0.17143 1.9e-4,-0.24034 -0.0776,-0.0689 -0.0954,-0.0617 -0.15113,-8e-4 -0.0557,0.0608 -0.19876,0.19314 1.17194,-1.26996 1.37067,-1.463 2.03189,-2.55865 2.45907,-3.307 0.42719,-0.74835 0.79175,-1.3787 1.09791,-1.8841 0.30616,-0.50537 0.54959,-0.8818 0.77368,-1.1668 0.22408,-0.2851 0.32245,-0.47174 0.57418,-0.7731 0.25178,-0.30124 0.76554,-0.83964 1.51276,-1.5787 0.74724,-0.739 1.71289,-1.6876 2.57202,-2.4652 0.8591,-0.77773 0.8591,-0.77773 0.22974,-0.3401 0,0 -1.42859,0.63274 -2.55722,1.19945 -1.12863,0.56672 -1.9881,1.02875 -2.5914,1.39305 -0.6033,0.36434 -0.99313,0.6728 -1.1668,0.81093 -0.1737,0.13813 -0.54194,0.44227 -0.96723,0.83802 -0.42527,0.39569 -0.91025,0.89495 -1.45939,1.5011 -0.54913,0.60615 -1.16388,1.32061 -2.13705,2.1184 -0.97318,0.79775 -2.54318,1.95075 -2.80803,2.24525 -0.2649,0.2945 -0.44786,0.5787 -0.67805,0.8269 -0.23017,0.2482 -0.31461,0.5484 -0.37378,0.84906 -0.0592,0.30064 -0.10897,0.66919 -0.12409,1.43814 -0.0151,0.76895 0.0628,1.5629 0.23282,2.34714 0.17004,0.78426 0.4344,1.55446 0.78024,2.31086 0.34583,0.75646 0.9271,1.7759 2.57914,3.35967 1.65202,1.58373 2.75878,2.44923 3.67065,3.15183 0.91187,0.70266 1.67867,1.29476 2.29813,1.7788 0.61941,0.48404 1.08078,0.8693 1.28014,1.00736 0.30415,0.28824 0.5564,-0.11096 0.66114,0.0392 z"
             id="path50982" /></g><g
           style="fill:#000000;fill-opacity:1;stroke-linejoin:miter"
           id="g50988"
           transform="matrix(0.0212301,0.88760364,-0.82571352,0.02282136,2056.9295,403.92004)"><path
             d="m 383.9846,886.52966 c -0.10658,-0.20286 -0.4108,-0.66436 -0.77238,-1.28961 -0.3616,-0.62525 -0.7854,-1.40955 -1.28112,-2.34601 -0.49577,-0.93644 -1.05927,-2.02868 -1.4255,-2.76954 -0.3662,-0.7409 -0.46672,-1.057 -0.502,-1.2968 -0.0353,-0.2398 -0.0216,-0.3907 0.01,-0.4507 0.0312,-0.06 0.0575,-0.0518 0.23106,-0.26537 0.17359,-0.21353 0.48581,-0.56473 0.68554,-1.07708 0.19978,-0.51239 0.58625,-0.94225 1.05934,-1.37195 0.47308,-0.4296 1.03926,-0.85114 1.48324,-1.15576 0.44397,-0.30469 0.69849,-0.48204 1.22152,-0.75464 0.52302,-0.2725 1.28285,-0.6207 2.2646,-1.05274 0.98172,-0.43206 2.18505,-0.93652 3.23632,-1.18066 1.05128,-0.24414 1.05128,-0.24414 0.35044,-0.0814 0,0 -1.40171,0.3255 -2.63034,0.42419 -1.22864,0.0987 -2.23236,0.20577 -3.01657,0.32287 -0.78421,0.11714 -1.36402,0.24214 -1.70895,0.36775 -0.34492,0.12561 -1.11338,0.36905 -1.87397,0.69795 -0.76063,0.32884 -1.45728,0.72685 -2.08368,1.1991 -0.62643,0.4722 -1.38748,0.8549 -1.75592,1.5286 -0.36841,0.6737 -0.56335,1.15174 -0.64398,1.70167 -0.0806,0.54993 -0.0285,1.08323 0.12365,1.58303 0.15217,0.4998 0.38306,0.9729 0.68854,1.4568 0.30546,0.48397 1.20954,1.5377 2.02086,2.4181 0.8113,0.88044 1.53688,1.6127 2.16924,2.20125 0.63236,0.58862 1.16426,1.03925 1.42556,1.1958 0.4266,0.31215 0.55954,-0.16045 0.7249,-0.005 z"
             id="path50986" /></g></g></g></g></svg>
