<?xml version="1.0" encoding="UTF-8" standalone="no"?>
<!-- Created with Inkscape (http://www.inkscape.org/) -->

<svg
   width="268.67789em"
   height="268.67789em"
   viewBox="0 0 268.67789 268.67789"
   version="1.1"
   id="svg5"
   xml:space="preserve"
   xmlns="http://www.w3.org/2000/svg"
   xmlns:svg="http://www.w3.org/2000/svg"><defs
     id="defs2" /><g
     id="layer1"
     transform="translate(1010.5647,-106.33602)"><g
       id="g53535"><rect
         style="display:inline;fill:none;fill-opacity:1;stroke:none;stroke-width:5.29167;stroke-dasharray:none;stroke-opacity:1"
         id="rect53375"
         width="268.67789"
         height="268.67789"
         x="-1010.5647"
         y="106.33602" /><g
         id="g52789"
         transform="matrix(2.7485123,0,0,2.7485123,-3775.8694,-2354.8053)"><g
           style="fill:#000000;fill-opacity:1;stroke-linejoin:miter"
           id="g50848"
           transform="matrix(0.0212301,0.88760364,-0.82571352,0.02282136,2056.9295,403.92004)"><path
             d="m 562.72565,1270.1493 c -0.58315,-0.3754 -1.70945,-0.9417 -2.69335,-1.5248 -0.9839,-0.583 -1.82563,-1.1863 -2.5289,-1.8081 -0.70317,-0.6217 -1.27525,-1.2587 -1.6926,-1.983 -0.4174,-0.7244 -0.8479,-1.576 -1.1797,-2.2675 -0.3317,-0.6915 -0.55114,-1.2181 -0.6583,-1.5349 -0.1072,-0.3166 -0.0835,-0.3069 -0.13283,-0.6631 -0.0494,-0.3563 -0.11432,-0.7466 -0.30353,-1.0362 -0.18924,-0.2897 -0.27118,-0.5323 -0.32428,-0.6967 -0.0531,-0.1643 -0.0775,-0.2255 -0.1322,-0.6645 -0.0547,-0.4391 -0.14846,-1.2549 -0.23572,-1.9357 -0.0873,-0.6808 -0.16858,-1.2305 -0.25034,-1.6632 -0.0817,-0.4328 -0.17227,-0.7888 -0.1973,-0.8445 -0.0251,-0.056 -0.1108,-0.3701 -0.2563,-0.7118 -0.1455,-0.3417 -0.36564,-0.7967 -0.66185,-1.3837 -0.2962,-0.5868 -0.66955,-1.3089 -1.00565,-1.9257 -0.3361,-0.617 -0.6712,-1.0727 -1.12685,-1.5257 -0.45569,-0.453 -1.04125,-0.9107 -1.75185,-1.3889 -0.71056,-0.478 -1.50474,-1.0333 -2.1184,-1.5265 -0.6137,-0.4931 -0.6137,-0.4931 -0.2046,-0.1644 0,0 0.81826,0.6576 1.4307,1.3496 0.61235,0.692 1.0791,1.3314 1.423,1.8824 0.34395,0.5511 0.5623,1.0052 0.6618,1.3688 0.0995,0.3635 0.28304,1.2543 0.4407,1.9871 0.1577,0.7327 0.2743,1.3066 0.3485,1.7148 0.0742,0.4084 0.1042,0.6287 0.0981,0.7095 -0.006,0.081 0.0292,0.271 0.021,0.4784 -0.008,0.2074 -0.0236,0.6025 -0.0558,1.1518 -0.0322,0.5494 -0.0844,1.2455 -0.15696,2.0917 -0.0726,0.8463 -0.0714,1.1127 -0.0513,1.3836 0.0202,0.271 0.0525,0.5645 0.0975,0.9035 0.0451,0.3391 -0.0547,0.7698 0.0803,1.1411 0.13504,0.3713 0.17034,0.5757 0.3949,1.1064 0.22454,0.5306 0.53931,1.051 0.96021,1.6576 0.42093,0.6066 0.94323,1.327 1.63023,2.211 0.6871,0.8841 1.57375,1.667 2.50624,2.2823 0.93256,0.6152 1.97936,1.1002 3.12061,1.4776 1.14125,0.3776 2.38092,0.6381 3.06535,0.6235 1.33217,0.1501 0.79164,-0.4362 1.43935,-0.2718 z"
             id="path50846" /></g><g
           style="fill:#000000;fill-opacity:1;stroke-linejoin:miter"
           id="g50852"
           transform="matrix(0.0212301,0.88760364,-0.82571352,0.02282136,2056.9295,403.92004)"><path
             d="m 567.08966,1268.0438 c -0.11261,-0.1751 -0.37292,-0.4867 -0.62266,-0.8168 -0.2498,-0.3301 -0.48934,-0.6788 -0.7192,-1.046 -0.2299,-0.3672 -0.4557,-0.7485 -0.7859,-1.4454 -0.3301,-0.697 -0.80486,-1.7004 -1.2683,-2.6162 -0.4634,-0.9158 -0.91424,-1.745 -1.3372,-2.4998 -0.423,-0.7546 -0.8311,-1.4272 -1.1534,-1.9851 -0.32226,-0.5578 -0.61926,-1.1316 -0.8605,-1.6179 -0.24124,-0.4862 -0.43436,-0.8762 -0.5683,-1.167 -0.13394,-0.2908 -0.2008,-0.4639 -0.4864,-0.8965 -0.28566,-0.4326 -0.3634,-0.5554 -0.5191,-0.8067 -0.15566,-0.2514 -0.36666,-0.6126 -0.7288,-1.0048 -0.36217,-0.3921 -0.75334,-0.8938 -1.0509,-1.2793 -0.2975,-0.3856 -0.47624,-0.6415 -0.6311,-0.885 -0.15484,-0.2434 -0.2863,-0.4741 -0.3954,-0.6912 -0.10905,-0.217 -0.19663,-0.42 -0.23264,-0.4843 -0.0361,-0.064 -0.0508,-0.2915 -0.0415,-0.4906 0.009,-0.1992 0.0402,-0.3758 0.0938,-0.54 0.0537,-0.164 0.1335,-0.3238 0.21945,-0.4515 0.0859,-0.1277 0.14525,-0.2046 0.21148,-0.2838 0.0662,-0.079 0.13984,-0.1608 0.22047,-0.2446 0.0807,-0.084 0.16845,-0.1701 0.3495,-0.3125 0.18095,-0.1424 0.5932,-0.432 0.96257,-0.7124 0.36938,-0.2806 0.69623,-0.5525 0.98047,-0.8186 0.28426,-0.2662 0.52459,-0.5303 0.87276,-0.9789 0.3481,-0.4486 0.7958,-1.0424 1.15574,-1.5475 0.35992,-0.505 0.63296,-0.9207 0.82356,-1.2448 0.1906,-0.3241 0.3002,-0.56 0.2842,-0.7092 -0.0159,-0.1492 -0.0159,-0.1492 -0.05,-0.076 0,0 -0.2024,0.069 -0.3953,0.2544 -0.1929,0.1853 -0.4974,0.4376 -0.9122,0.754 -0.4148,0.3163 -0.9321,0.7032 -1.559,1.1553 -0.6268,0.4523 -0.83665,0.5969 -1.0781,0.7327 -0.2415,0.1356 -0.5311,0.2805 -0.87103,0.4297 -0.33991,0.1493 -0.72913,0.3014 -1.19327,0.469 -0.4641,0.1676 -0.73343,0.3248 -0.8776,0.4126 -0.14416,0.088 -0.2834,0.1783 -0.4181,0.2724 -0.13475,0.094 -0.26494,0.1918 -0.399,0.3023 -0.134,0.1103 -0.44065,0.3893 -0.7309,0.7569 -0.29013,0.3677 -0.5251,0.7793 -0.70114,1.2245 -0.17596,0.4452 -0.29356,0.9168 -0.35286,1.4688 -0.0593,0.5521 0.0249,1.1143 0.1069,1.4882 0.082,0.3741 0.189,0.7522 0.32005,1.1355 0.13111,0.3835 0.28545,0.7724 0.47145,1.1824 0.186,0.4099 0.54217,1.0864 0.7914,1.6992 0.24924,0.6127 0.60477,1.0529 0.92057,1.4241 0.31579,0.3713 0.60217,0.6836 0.73529,0.7843 0.13304,0.1007 0.0518,-0.024 0.24544,0.2799 0.1936,0.3039 0.4382,0.6548 0.7448,1.0676 0.30663,0.413 0.6787,0.8909 1.12694,1.4716 0.44816,0.5807 0.95893,1.1437 1.47119,1.7073 0.51233,0.5636 1.08127,1.2002 1.68811,1.9206 0.60686,0.7205 1.28339,1.5026 2.01776,2.37 0.7344,0.8675 1.11664,1.248 1.47504,1.5628 0.35846,0.3149 0.72119,0.6026 1.0846,0.8657 0.3634,0.2631 0.72736,0.5015 0.932,0.5879 0.36261,0.2125 0.47632,-0.2537 0.63422,-0.1276 z"
             id="path50850" /></g><g
           style="fill:#000000;fill-opacity:1;stroke-linejoin:miter"
           id="g50856"
           transform="matrix(0.0212301,0.88760364,-0.82571352,0.02282136,2056.9295,403.92004)"><path
             d="m 564.7044,1237.5162 c 0.1193,0.2652 0.4156,0.7397 0.696,1.2235 0.2803,0.4838 0.5449,0.9766 0.8008,1.4739 0.2559,0.4973 0.4992,1.0026 0.70114,1.5139 0.20191,0.5113 0.38691,1.0817 0.54396,1.625 0.157,0.5433 0.2972,1.0546 0.40355,1.5411 0.10625,0.4865 0.17715,0.9476 0.25115,1.5146 0.0741,0.5671 0.15535,1.1764 0.4244,1.6454 0.269,0.469 0.40636,0.8708 0.5071,1.1786 0.1006,0.3078 0.16666,0.5123 0.48447,1.8701 0.31783,1.3577 0.95163,3.9308 1.05833,4.4814 0.10677,0.5508 0.1935,1.0148 0.2589,1.3791 0.0655,0.3642 0.1096,0.6286 0.13235,0.7931 0.0227,0.1645 0.0241,0.2297 0.0181,0.3625 -0.006,0.1328 -0.0217,0.2782 -0.0453,0.4363 -0.0235,0.1581 -0.0552,0.3287 -0.0829,0.4631 -0.0276,0.1344 -0.0276,0.1344 -0.009,0.045 0,0 0.037,-0.1792 0.0659,-0.3457 0.0289,-0.1665 0.0498,-0.3203 0.0627,-0.4614 0.0129,-0.1411 0.0206,-0.2694 0.0444,-0.3668 0.0239,-0.098 0.0595,-0.2965 0.107,-0.597 0.0475,-0.3004 0.10676,-0.702 0.17791,-1.205 0.0711,-0.5032 0.15135,-1.1342 0.27375,-3.7885 0.1224,-2.6543 0.11926,-2.9013 0.10077,-3.2198 -0.0185,-0.3186 -0.0537,-0.7138 -0.10427,-1.1944 -0.0506,-0.4806 0.0751,-1.0941 -0.14195,-1.7209 -0.21695,-0.6267 -0.40245,-1.1303 -0.62645,-1.6602 -0.2241,-0.5299 -0.4744,-1.0675 -0.76344,-1.6092 -0.289,-0.5418 -0.62286,-1.0845 -0.99886,-1.6509 -0.37596,-0.5664 -0.78807,-1.0625 -1.1933,-1.4982 -0.4052,-0.4355 -0.8219,-0.8515 -1.2529,-1.2453 -0.43104,-0.3937 -0.8704,-0.7693 -1.1277,-0.9212 -0.44647,-0.357 -0.5771,0.1432 -0.7663,-0.062 z"
             id="path50854" /></g><g
           style="fill:#000000;fill-opacity:1;stroke-linejoin:miter"
           id="g50860"
           transform="matrix(0.0212301,0.88760364,-0.82571352,0.02282136,2056.9295,403.92004)"><path
             d="m 573.5332,1215.3793 c -0.2183,-0.059 -0.7183,-0.1885 -1.32055,-0.4524 -0.60215,-0.2639 -1.30835,-0.6605 -2.12439,-1.1808 -0.81596,-0.5201 -1.74126,-1.1686 -2.45349,-1.7319 -0.71217,-0.5635 -1.12677,-0.9914 -1.41053,-1.3788 -0.28374,-0.3875 -0.45239,-0.7108 -0.52148,-0.9625 -0.0691,-0.2516 -0.0721,-0.4346 -0.0535,-0.4607 0.0186,-0.026 0.0444,-0.1274 0.0701,-0.2165 0.0257,-0.089 0.0517,-0.1654 0.076,-0.2287 0.0243,-0.063 0.046,-0.1115 0.1347,-0.258 0.0887,-0.1463 0.30109,-0.5864 0.49265,-1.0293 0.19156,-0.4428 0.3691,-0.8864 0.53256,-1.3303 0.16344,-0.444 0.31254,-0.8884 0.38834,-1.0696 0.0758,-0.1811 0.16543,-0.3531 0.26187,-0.5227 0.0964,-0.1694 0.19973,-0.3363 0.30719,-0.5029 0.10748,-0.1667 0.22144,-0.3318 0.29394,-0.4244 0.0725,-0.093 -0.0584,-0.2888 -0.0125,-0.3658 0.0459,-0.077 0.0941,-0.1523 0.14465,-0.2263 0.0506,-0.074 0.10382,-0.1467 0.36615,-0.4413 0.2623,-0.2946 0.78265,-0.8652 1.21435,-1.3646 0.4317,-0.4994 0.78515,-0.9214 1.06645,-1.2737 0.2813,-0.3523 0.5034,-0.6534 1.30153,-2.1886 0.79822,-1.5352 2.06917,-4.2529 3.24182,-6.2476 1.17261,-1.9948 1.28085,-2.2613 1.34131,-2.4594 0.0604,-0.1981 0.10644,-0.3785 0.13788,-0.5417 0.0315,-0.1631 0.0481,-0.309 0.0489,-0.4339 9.4e-4,-0.1249 3e-4,-0.2162 -0.0162,-0.3518 -0.0165,-0.1356 -0.0491,-0.3087 -0.0882,-0.5227 -0.0391,-0.2139 -0.0608,-0.4717 -0.0913,-0.7724 -0.0305,-0.3008 -0.0281,-0.3733 -0.0235,-0.4385 0.005,-0.065 0.0116,-0.1233 0.0207,-0.1741 0.009,-0.051 0.0206,-0.094 0.0302,-0.1233 0.01,-0.029 0.01,-0.029 0.003,-0.01 0,0 -0.0129,0.039 -0.0236,0.084 -0.0107,0.046 -0.019,0.099 -0.0252,0.1596 -0.006,0.06 -0.01,0.1281 0.005,0.3219 0.0155,0.1937 0.0431,0.4802 0.0525,0.7244 0.009,0.244 -0.0137,0.4454 -0.0384,0.6002 -0.0246,0.1548 -0.0504,0.2605 -0.0787,0.3517 -0.0284,0.091 -0.0694,0.1942 -0.12905,0.3114 -0.0597,0.1172 -0.13845,0.2485 -0.23645,0.3935 -0.098,0.145 -0.2154,0.3037 -1.12854,1.151 -0.91321,0.8474 -2.66546,2.5022 -4.58832,4.8941 -1.92284,2.3917 -1.94848,2.3847 -2.14384,2.5526 -0.1953,0.1678 -0.5097,0.4267 -0.9314,0.7607 -0.42164,0.334 -0.9469,0.7387 -1.5752,1.2313 -0.62837,0.4928 -0.84333,0.7035 -0.96876,0.8331 -0.12544,0.1295 -0.24719,0.2633 -0.3645,0.4006 -0.11734,0.1372 -0.23094,0.2787 -0.43324,0.3906 -0.2023,0.1118 -0.3549,0.3977 -0.49254,0.6801 -0.13766,0.2823 -0.26282,0.5683 -0.37476,0.8584 -0.1119,0.29 -0.2125,0.5822 -0.32324,0.9448 -0.11072,0.3625 -0.19276,0.8566 -0.25706,1.2372 -0.0643,0.3805 -0.1412,0.7676 -0.23104,1.1612 -0.0899,0.3937 -0.19262,0.7941 -0.31046,1.2263 -0.11794,0.4323 -0.1917,0.704 -0.2144,0.8385 -0.0226,0.1346 -0.0409,0.271 -0.0562,0.4119 -0.0154,0.1408 -0.0293,0.286 -0.0486,0.5755 -0.0194,0.2895 0.0643,0.9663 0.31744,1.6535 0.2532,0.6873 0.64924,1.2959 1.1562,1.8279 0.5069,0.5319 1.11236,0.9982 1.8263,1.4409 0.714,0.4429 1.9554,0.9518 3.0388,1.3239 1.0834,0.372 2.04115,0.6244 2.86964,0.7602 0.82846,0.1359 1.52362,0.1626 1.83566,0.1 0.549,-0.083 0.27566,-0.4966 0.5126,-0.5165 z"
             id="path50858" /></g><g
           style="fill:#000000;fill-opacity:1;stroke-linejoin:miter"
           id="g50864"
           transform="matrix(0.0212301,0.88760364,-0.82571352,0.02282136,2056.9295,403.92004)"><path
             d="m 575.07166,1214.4563 c 0.0649,-0.2231 0.14581,-0.6755 0.26564,-1.1398 0.11973,-0.4642 0.2781,-0.9411 0.4702,-1.433 0.192,-0.4919 0.4183,-0.9997 0.76965,-1.7219 0.35135,-0.722 0.78455,-1.6116 1.15925,-2.436 0.3747,-0.8246 0.71074,-1.5783 1.0086,-2.2612 0.29785,-0.6829 0.5514,-1.2983 0.8256,-1.8633 0.27425,-0.5651 0.39864,-1.4297 0.6307,-2.2309 0.232,-0.8011 0.4388,-1.594 0.6239,-2.3765 0.18505,-0.7828 0.3504,-1.5544 0.43566,-2.2996 0.0853,-0.7452 0.0446,-1.1619 0.004,-1.5112 -0.0408,-0.3494 -0.0797,-0.633 -0.1178,-0.8579 -0.0381,-0.225 -0.08,-0.4094 -0.52237,-1.283 -0.44238,-0.8737 -1.28373,-2.4291 -1.3938,-2.6792 -0.11013,-0.25 -0.16137,-0.4939 -0.19443,-0.7178 -0.0332,-0.224 -0.0482,-0.4281 -0.0504,-0.5711 -0.002,-0.1431 -0.002,-0.1431 -7e-4,-0.048 0,0 0.003,0.1908 0.024,0.4015 0.021,0.2107 0.0602,0.4413 0.0982,0.6969 0.0382,0.2555 0.0704,0.5431 0.37561,2.2832 0.30515,1.7401 0.28795,1.7269 0.27345,1.8386 -0.0145,0.1119 -0.0435,0.3144 -0.0903,0.5921 -0.0468,0.2778 -0.11186,0.6272 -0.17856,0.9614 -0.0668,0.3342 -0.3796,0.9174 -0.7354,1.6038 -0.3558,0.6864 -0.71586,1.3851 -1.0841,2.0951 -0.36815,0.7099 -0.74645,1.4307 -1.1472,2.2064 -0.40076,0.7755 -0.5521,1.4674 -0.68177,2.1244 -0.1297,0.657 -0.27243,1.3994 -0.44633,2.2203 -0.1739,0.821 -0.35603,1.7278 -0.55086,2.7244 -0.19474,0.9966 -0.29934,1.6235 -0.36304,2.222 -0.0638,0.5985 -0.0839,1.1697 -0.0682,1.7103 0.0156,0.5406 0.0663,1.0498 0.14099,1.2959 0.0851,0.4739 0.5094,0.2262 0.5199,0.4539 z"
             id="path50862" /></g><g
           style="fill:#000000;fill-opacity:1;stroke-linejoin:miter"
           id="g50868"
           transform="matrix(0.0212301,0.88760364,-0.82571352,0.02282136,2056.9295,403.92004)"><path
             d="m 608.4333,1248.561 c 0.048,-0.1916 0.0786,-0.6405 0.1021,-1.195 0.0235,-0.5546 0.0399,-1.215 0.0403,-1.98 3e-4,-0.7649 -0.0194,-1.6338 -0.0246,-2.1975 -0.005,-0.5636 0.01,-0.836 0.0293,-1.1184 0.0196,-0.2825 0.0438,-0.5747 0.0634,-0.8765 0.0196,-0.3018 0.0425,-0.6135 0.10638,-1.219 0.0638,-0.6053 0.15966,-1.426 0.22986,-2.1023 0.0702,-0.6764 0.1206,-1.2076 0.15937,-1.5895 0.0387,-0.3818 0.0671,-0.6018 0.19683,-1.3421 0.12976,-0.7403 -0.0526,-2.1319 -0.0459,-2.4395 0.007,-0.3076 0.0141,-0.6127 0.0176,-0.8752 0.003,-0.2625 0.003,-0.4861 -0.002,-0.683 -0.005,-0.1969 -0.016,-0.3104 -0.13295,-1.4623 -0.1169,-1.1517 -0.19725,-1.6749 -0.2649,-2.0927 -0.0676,-0.4178 -0.1232,-0.765 -0.16684,-1.0411 -0.0436,-0.2762 -0.0752,-0.4804 -0.0946,-0.6099 -0.0195,-0.1295 -0.0384,-0.2719 -0.0559,-0.3996 -0.0176,-0.1276 -0.032,-0.2393 -0.0431,-0.3342 -0.0112,-0.095 -0.0193,-0.1722 -0.0244,-0.2334 -0.005,-0.061 -0.009,-0.1675 -0.0107,-0.2669 -0.002,-0.099 -0.003,-0.1925 -0.002,-0.2795 6.6e-4,-0.087 0.003,-0.1679 0.005,-0.2373 0.002,-0.069 0.0544,-0.5983 0.0943,-1.0432 0.0399,-0.445 0.0635,-0.803 0.0766,-1.0741 0.0131,-0.2711 0.0162,-0.459 0.008,-0.5622 -0.008,-0.1032 -0.0136,-0.083 -0.0132,-0.103 4e-4,-0.02 0.002,-0.038 0.005,-0.056 0.003,-0.018 0.006,-0.035 0.0131,-0.054 0.007,-0.019 0.0146,-0.043 0.0239,-0.063 0.009,-0.02 0.0291,-0.045 0.0596,-0.076 0.0304,-0.03 0.0714,-0.063 0.1095,-0.095 0.038,-0.032 0.4016,-0.1527 0.722,-0.2541 0.3204,-0.1014 0.596,-0.1713 0.82046,-0.2464 0.22449,-0.075 0.39789,-0.1551 0.50244,-0.2178 0.1045,-0.063 0.1045,-0.063 0.0348,-0.021 0,0 -0.13935,0.084 -0.3298,0.1622 -0.1904,0.079 -0.4319,0.1517 -0.7261,0.2119 -0.29415,0.06 -0.6471,0.067 -0.8923,0.079 -0.24517,0.012 -0.3138,0.034 -0.3763,0.058 -0.0625,0.025 -0.11923,0.054 -0.1704,0.09 -0.0511,0.035 -0.0964,0.079 -0.1236,0.1106 -0.0271,0.031 -0.051,0.062 -0.0727,0.096 -0.0216,0.033 -0.041,0.069 -0.0582,0.1055 -0.0172,0.037 -0.0321,0.075 -0.0438,0.1406 -0.0117,0.066 -0.0407,0.1525 -0.1095,0.3362 -0.0688,0.1838 -0.1769,0.4529 -0.3221,0.8047 -0.1452,0.3519 -0.324,0.7867 -0.44354,1.0823 -0.11956,0.2954 -0.15156,0.387 -0.18311,0.4832 -0.0315,0.096 -0.0628,0.1978 -0.0939,0.3041 -0.0311,0.1063 -0.0621,0.218 -0.0877,0.3173 -0.0256,0.099 -0.0466,0.1971 -0.0677,0.3055 -0.0211,0.1083 -0.0425,0.228 -0.0645,0.3609 -0.022,0.1329 -0.0441,0.279 -0.0619,0.4201 -0.0177,0.141 -0.0368,0.3108 -0.0625,0.5478 -0.0257,0.2369 -0.058,0.5433 -0.0969,0.9198 -0.0389,0.3764 -0.0845,0.8236 -0.18036,1.6174 -0.0959,0.7939 -0.22358,1.9404 -0.23574,2.0209 -0.0121,0.08 -0.0364,0.2044 -0.0747,0.3894 -0.0383,0.1849 -0.0906,0.424 -0.1568,0.7136 -0.0663,0.2895 -0.15575,0.7132 -0.332,2.1109 -0.17635,1.3979 -0.1732,1.6125 -0.1564,1.9385 0.0168,0.3261 0.0475,0.7797 0.0977,1.3714 0.0502,0.5917 0.12014,1.3234 0.2179,2.1999 0.0978,0.8764 0.1377,1.2315 0.17999,1.5593 0.0423,0.328 0.0893,0.6458 0.14675,0.9528 0.0573,0.307 0.1169,0.6036 0.1823,0.9178 0.0654,0.3144 0.3406,1.2229 0.58434,2.0098 0.24372,0.7868 0.45886,1.473 0.63856,2.0598 0.1796,0.5868 0.31854,1.0749 0.4046,1.2818 0.0984,0.3906 0.52026,0.1779 0.5326,0.3615 z"
             id="path50866" /></g><g
           style="fill:#000000;fill-opacity:1;stroke-linejoin:miter"
           id="g50872"
           transform="matrix(0.0212301,0.88760364,-0.82571352,0.02282136,2056.9295,403.92004)"><path
             d="m 544.1651,1209.942 c 0.4553,0.2616 1.2972,0.5752 1.9908,0.8129 0.6935,0.2375 1.2444,0.3968 1.67613,0.4834 0.4317,0.087 0.83783,0.076 1.11707,0.043 0.27923,-0.033 0.75616,-0.1042 1.2119,-0.2255 0.45576,-0.1214 0.8884,-0.297 1.2899,-0.5342 0.4016,-0.2372 0.76205,-0.5374 1.04605,-0.7688 0.28399,-0.2316 0.73625,-0.6543 1.16135,-1.1588 0.42514,-0.5045 0.8218,-1.0957 1.2002,-1.7709 0.37844,-0.675 0.73855,-1.4366 0.9572,-1.9363 0.21866,-0.4995 0.28635,-0.6758 0.3518,-0.8578 0.0653,-0.182 0.1287,-0.3699 0.1875,-0.5645 0.0588,-0.1946 0.1155,-0.3956 0.18473,-0.8147 0.0692,-0.4191 0.13117,-0.7913 0.21412,-1.2261 0.0829,-0.435 -0.10541,-0.9669 -0.0853,-1.5388 0.0201,-0.5721 0.0517,-1.205 0.0728,-1.5988 0.0211,-0.3938 0.0402,-0.5618 0.0706,-0.7357 0.0303,-0.1738 0.0726,-0.3544 0.12745,-0.541 0.0548,-0.1868 0.12268,-0.3801 0.21588,-0.5979 0.0932,-0.2177 0.22632,-0.4905 0.35027,-0.7311 0.124,-0.2406 0.239,-0.4473 0.34254,-0.6198 0.10346,-0.1725 0.19176,-0.311 1.26406,-1.5944 1.0723,-1.2834 3.12083,-3.7971 3.2718,-4.0211 0.1509,-0.224 0.3033,-0.4943 0.4627,-0.8151 0.1593,-0.3207 0.33335,-0.6887 0.50926,-0.9656 0.17584,-0.2767 0.17584,-0.2767 0.0586,-0.092 0,0 -0.2345,0.3691 -0.49915,0.6525 -0.26464,0.2834 -0.5041,0.5144 -0.71325,0.6936 -0.20915,0.1791 -0.37975,0.2996 -3.07031,2.1016 -2.69064,1.8021 -2.91124,1.9829 -3.11548,2.1709 -0.20423,0.1878 -0.40991,0.4005 -0.62156,0.6369 -0.21176,0.2365 -0.4311,0.4976 -0.6635,0.7989 -0.23234,0.3014 -0.41514,0.5869 -0.56724,0.8488 -0.15206,0.2619 -0.28956,0.5295 -0.41176,0.8023 -0.1221,0.2728 -0.2285,0.5514 -0.3214,0.8516 -0.0929,0.3001 -0.27276,0.994 -0.4282,1.6215 -0.1554,0.6276 -0.2891,1.2057 -0.455,1.7311 -0.1659,0.5254 -0.17355,1.0194 -0.1644,1.4055 0.009,0.3861 0.0187,0.3705 8.6e-4,0.5277 -0.0179,0.1571 -0.037,0.3053 -0.055,0.4449 -0.018,0.1394 -0.0373,0.2693 -0.0525,0.374 -0.0152,0.1046 -0.197,0.8756 -0.3912,1.5238 -0.1942,0.6482 -0.38794,1.1987 -0.58106,1.6485 -0.19314,0.45 -0.38054,0.7996 -0.61904,1.1014 -0.2384,0.3016 -0.4566,0.6044 -0.59226,0.7686 -0.13564,0.1642 -0.30694,0.3301 -0.5282,0.4889 -0.22119,0.1589 -0.49591,0.3069 -0.86474,0.4475 -0.36884,0.1407 -0.4318,0.1958 -0.5642,0.2253 -0.1324,0.029 -0.52876,0.053 -1.11745,0.054 -0.58875,0 -1.35925,-0.011 -1.81895,0.057 -0.9465,-0.033 -0.5477,0.4936 -1.0345,0.393 z"
             id="path50870" /></g></g></g></g></svg>
