<?xml version="1.0" encoding="UTF-8" standalone="no"?>
<svg
   version="1.1"
   width="135.38521"
   height="135.38521"
   viewBox="0 0 135.38521 135.38521"
   id="svg1214"
   xmlns="http://www.w3.org/2000/svg"
   xmlns:svg="http://www.w3.org/2000/svg">
  <defs
     id="defs1218" />
  <g
     id="g7318"
     transform="translate(-859.11395,-1270.9547)">
    <rect
       style="display:inline;opacity:0.5;fill:none;fill-opacity:1;stroke:none;stroke-width:2.66644;stroke-dasharray:none;stroke-opacity:1"
       id="rect5451"
       width="135.38521"
       height="135.38521"
       x="859.11395"
       y="1270.9547" />
    <g
       id="g4190"
       transform="matrix(1.2525948,0,0,1.2525948,1204.5656,-0.26298502)">
      <g
         style="fill:#000000;fill-opacity:1;stroke-linejoin:miter"
         id="g411"
         transform="rotate(90,259.41968,748.93978)">
        <path
           d="m 562.68945,1270.2919 c -0.58831,-0.3703 -1.73765,-0.8932 -2.75805,-1.4284 -1.02045,-0.5353 -1.9088,-1.1015 -2.6681,-1.7007 -0.7593,-0.599 -1.3945,-1.2305 -1.8949,-1.9746 -0.50036,-0.7439 -0.9703,-1.5803 -1.3353,-2.2674 -0.36495,-0.6872 -0.62246,-1.2188 -0.7651,-1.5711 -0.14263,-0.3523 -0.1616,-0.4514 -0.2216,-0.7899 -0.0599,-0.3384 -0.1399,-0.7323 -0.23695,-1.0535 -0.097,-0.321 -0.16735,-0.5778 -0.21265,-0.7624 -0.0452,-0.1845 -0.0653,-0.2797 -0.092,-0.7423 -0.0267,-0.4626 -0.0806,-1.275 -0.1371,-1.9513 -0.0565,-0.6764 -0.1092,-1.2197 -0.1694,-1.6404 -0.0602,-0.4206 -0.12915,-0.7493 -0.1505,-0.8196 -0.0214,-0.07 -0.0911,-0.3481 -0.2121,-0.6865 -0.1209,-0.3385 -0.3096,-0.8004 -0.5652,-1.3996 -0.25555,-0.5994 -0.58245,-1.3376 -0.87365,-1.969 -0.29125,-0.6314 -0.59949,-1.0994 -1.0329,-1.5713 -0.43341,-0.4719 -0.98875,-0.9634 -1.68402,-1.4649 -0.69519,-0.5014 -1.53027,-1.0141 -2.17407,-1.4707 -0.64386,-0.4566 -0.64386,-0.4566 -0.23476,-0.1279 0,0 0.75795,0.7307 1.35573,1.4338 0.59787,0.7032 1.08357,1.3162 1.45387,1.8395 0.3702,0.5233 0.6106,0.9613 0.7391,1.3146 0.1286,0.3533 0.3707,1.2232 0.5734,1.9409 0.20275,0.7177 0.3569,1.2809 0.462,1.6844 0.10507,0.4036 0.15396,0.633 0.156,0.7228 0.002,0.09 0.0444,0.2693 0.0576,0.4978 0.0132,0.2285 0.0197,0.6331 0.0149,1.188 -0.005,0.5551 -0.0216,1.2551 -0.0491,2.1023 -0.0274,0.8473 -0.0206,1.068 0.005,1.3103 0.0255,0.2424 0.067,0.5188 0.12735,0.8439 0.0603,0.3251 0.12595,0.7065 0.2472,1.0973 0.1213,0.3907 0.148,0.5882 0.3334,1.0396 0.1854,0.4515 0.4648,0.9502 0.8484,1.5561 0.3836,0.6059 0.876,1.3315 1.50676,2.2151 0.6308,0.8836 1.42454,1.6434 2.30044,2.2634 0.8759,0.6201 1.8607,1.1462 2.95835,1.5654 1.0976,0.4192 2.30481,0.729 2.97515,0.7388 1.31806,0.1742 0.70515,-0.127 1.35285,0.037 z"
           id="path409" />
      </g>
      <g
         style="fill:#000000;fill-opacity:1;stroke-linejoin:miter"
         id="g415"
         transform="rotate(90,259.41968,748.93978)">
        <path
           d="m 566.9979,1268.1587 c -0.1145,-0.1768 -0.37845,-0.4913 -0.63694,-0.8191 -0.25856,-0.3278 -0.51176,-0.67 -0.76266,-1.0259 -0.2508,-0.3558 -0.4935,-0.7312 -0.86563,-1.4165 -0.37217,-0.6854 -0.89087,-1.6572 -1.39307,-2.5425 -0.50226,-0.8852 -0.9852,-1.6859 -1.4392,-2.4094 -0.4539,-0.7234 -0.8859,-1.3655 -1.243,-1.9292 -0.3571,-0.5638 -0.68004,-1.1257 -0.9475,-1.6028 -0.26746,-0.4769 -0.4784,-0.867 -0.6319,-1.1649 -0.15356,-0.2978 -0.2459,-0.4916 -0.4673,-0.8204 -0.22136,-0.3288 -0.3416,-0.4811 -0.5265,-0.7461 -0.18485,-0.2652 -0.42484,-0.6282 -0.7308,-1.0728 -0.3059,-0.4444 -0.67396,-0.9701 -0.96216,-1.3877 -0.28814,-0.4177 -0.45534,-0.702 -0.60354,-0.9716 -0.1481,-0.2696 -0.27104,-0.5278 -0.37034,-0.773 -0.0993,-0.2451 -0.17926,-0.4759 -0.20706,-0.6211 -0.0277,-0.1453 -0.0212,-0.4106 0.0135,-0.647 0.0347,-0.2362 0.0924,-0.4489 0.1813,-0.642 0.0889,-0.1932 0.20446,-0.3759 0.3132,-0.5093 0.1088,-0.1334 0.18014,-0.21 0.2573,-0.2886 0.0772,-0.079 0.1605,-0.1597 0.25084,-0.2415 0.0904,-0.082 0.18866,-0.1635 0.40086,-0.2976 0.2123,-0.134 0.6339,-0.3934 1.0125,-0.6464 0.37845,-0.253 0.7142,-0.5003 1.0058,-0.7464 0.2916,-0.2459 0.54056,-0.4909 0.91525,-0.9097 0.3747,-0.4188 0.84865,-0.9859 1.23395,-1.4677 0.3853,-0.4817 0.6783,-0.8827 0.88214,-1.2039 0.20386,-0.321 0.32846,-0.5654 0.24896,-0.7514 -0.0794,-0.186 -0.0794,-0.186 -0.1135,-0.1125 0,0 -0.32937,0 -0.5082,0.1768 -0.1789,0.1813 -0.47003,0.4392 -0.861,0.775 -0.391,0.3359 -0.88516,0.745 -1.47787,1.2322 -0.59277,0.4873 -0.79153,0.6482 -1.02527,0.8027 -0.23382,0.1546 -0.5155,0.3211 -0.84646,0.4959 -0.33084,0.1748 -0.7109,0.3553 -1.159,0.5518 -0.4481,0.1966 -0.6776,0.3429 -0.81155,0.4343 -0.13391,0.091 -0.26365,0.1833 -0.38849,0.2778 -0.12482,0.094 -0.24323,0.1931 -0.36276,0.301 -0.11954,0.1078 -0.3975,0.3808 -0.6499,0.7246 -0.2523,0.3438 -0.4568,0.7222 -0.60593,1.131 -0.14917,0.4088 -0.2428,0.8427 -0.2829,1.3382 -0.0401,0.4958 0.0434,0.9709 0.13313,1.3172 0.0897,0.3462 0.20854,0.6957 0.3472,1.0522 0.1387,0.3565 0.29976,0.7194 0.4931,1.0967 0.1933,0.3772 0.5651,1.0265 0.8937,1.5757 0.3287,0.5492 0.66095,0.9878 0.9497,1.3525 0.28876,0.3647 0.5418,0.6608 0.6864,0.7918 0.14453,0.1311 0.1264,0.1238 0.2965,0.4125 0.17006,0.2887 0.39705,0.6352 0.68226,1.0518 0.28514,0.4166 0.62984,0.9056 1.04714,1.4869 0.4173,0.5811 0.8943,1.143 1.3822,1.736 0.48784,0.5931 1.01976,1.2638 1.5991,2.0091 0.5793,0.7451 1.2012,1.5674 1.8877,2.4632 0.68646,0.8959 1.03656,1.2743 1.3746,1.5988 0.338,0.3246 0.6827,0.6217 1.03385,0.8901 0.35105,0.2686 0.70845,0.5072 0.91035,0.5913 0.3598,0.2102 0.29,-0.026 0.4479,0.1 z"
           id="path413" />
      </g>
      <g
         style="fill:#000000;fill-opacity:1;stroke-linejoin:miter"
         id="g419"
         transform="rotate(90,259.41968,748.93978)">
        <path
           d="m 564.81244,1237.4165 c 0.12036,0.2662 0.42086,0.7415 0.71576,1.2178 0.2949,0.4762 0.588,0.9522 0.86816,1.4381 0.28024,0.4858 0.55324,0.9779 0.78968,1.4928 0.23651,0.515 0.45556,1.0787 0.64959,1.6177 0.19403,0.539 0.34947,1.0584 0.48541,1.5512 0.13586,0.4928 0.2414,0.9629 0.34412,1.531 0.10278,0.5682 0.21474,1.1735 0.35779,1.6749 0.14315,0.5013 0.25425,0.9127 0.3363,1.2299 0.0821,0.3171 0.12995,0.5343 0.35815,1.907 0.2282,1.3727 0.7018,3.9602 0.77546,4.5103 0.0736,0.5499 0.14474,1.0138 0.20004,1.3772 0.0552,0.3635 0.0949,0.6262 0.1152,0.7849 0.0203,0.1587 0.0206,0.2245 0.0346,0.3576 0.014,0.1332 0.0227,0.2779 0.0255,0.438 0.003,0.1601 -5e-4,0.3353 -0.0199,0.4713 -0.0195,0.136 -0.0195,0.136 -10e-4,0.046 0,0 0.0534,-0.176 0.11,-0.3387 0.0566,-0.1627 0.10316,-0.3155 0.13966,-0.4584 0.0365,-0.1429 0.0614,-0.2676 0.0838,-0.3688 0.0224,-0.1013 0.0549,-0.3037 0.0966,-0.6054 0.0417,-0.3019 0.0878,-0.704 0.13726,-1.2071 0.0495,-0.503 0.0913,-1.1357 0.0495,-3.7746 -0.0418,-2.6391 -0.0561,-2.8725 -0.0936,-3.1795 -0.0376,-0.307 -0.0901,-0.6937 -0.1657,-1.1653 -0.0756,-0.4714 -0.17794,-1.0289 -0.36447,-1.6596 -0.18643,-0.6308 -0.34493,-1.1282 -0.5365,-1.6499 -0.19153,-0.5216 -0.41293,-1.0541 -0.67749,-1.5926 -0.26458,-0.5383 -0.5581,-1.0882 -0.89824,-1.6565 -0.34016,-0.5681 -0.7208,-1.06 -1.0972,-1.5089 -0.3764,-0.4488 -0.7724,-0.8745 -1.1808,-1.2811 -0.4084,-0.4065 -0.83535,-0.7883 -1.09,-0.9393 -0.4439,-0.3561 -0.35845,-0.055 -0.54766,-0.2604 z"
           id="path417" />
      </g>
      <g
         style="fill:#000000;fill-opacity:1;stroke-linejoin:miter"
         id="g423"
         transform="rotate(90,259.41968,748.93978)">
        <path
           d="m 573.5455,1215.5259 c -0.2308,-0.059 -0.751,-0.1881 -1.3722,-0.4358 -0.62124,-0.2478 -1.3539,-0.6078 -2.20095,-1.0875 -0.84705,-0.4798 -1.81015,-1.0794 -2.57625,-1.6213 -0.766,-0.5417 -1.22715,-0.967 -1.56834,-1.3662 -0.34113,-0.3991 -0.56856,-0.7617 -0.69456,-1.0813 -0.1261,-0.3194 -0.1665,-0.5998 -0.1574,-0.7236 0.009,-0.1238 0.0322,-0.2338 0.0552,-0.3331 0.023,-0.099 0.0457,-0.1876 0.0679,-0.2648 0.0222,-0.077 0.0433,-0.1416 0.1313,-0.3301 0.0881,-0.1884 0.27505,-0.6241 0.44827,-1.0588 0.17313,-0.4346 0.32773,-0.8698 0.47013,-1.3034 0.1424,-0.4335 0.2697,-0.8663 0.3481,-1.1033 0.0785,-0.2372 0.1668,-0.4339 0.26355,-0.628 0.0967,-0.1939 0.19855,-0.3869 0.30845,-0.5781 0.1099,-0.191 0.22775,-0.3801 0.31283,-0.5026 0.0851,-0.1224 0.11797,-0.2273 0.17633,-0.315 0.0583,-0.088 0.12004,-0.1734 0.1839,-0.2572 0.0638,-0.084 0.12939,-0.167 0.42814,-0.4699 0.2987,-0.3029 0.8355,-0.8485 1.287,-1.3177 0.45155,-0.4693 0.8167,-0.8666 1.1053,-1.1918 0.28857,-0.3253 0.50396,-0.5969 1.34967,-2.0635 0.8457,-1.4665 2.28773,-4.0869 3.57629,-5.9971 1.28854,-1.9101 1.41574,-2.1862 1.48498,-2.3838 0.0692,-0.1976 0.12232,-0.3798 0.16056,-0.547 0.0383,-0.1673 0.0614,-0.3204 0.0667,-0.452 0.005,-0.1314 0.007,-0.2269 -0.007,-0.3708 -0.014,-0.1441 -0.0439,-0.3219 -0.0897,-0.5383 -0.0457,-0.2165 -0.1101,-0.4723 -0.1903,-0.7686 -0.0802,-0.2963 -0.0798,-0.3686 -0.0752,-0.4338 0.005,-0.065 0.0116,-0.1233 0.0207,-0.1741 0.009,-0.051 0.0206,-0.094 0.0302,-0.1233 0.01,-0.029 0.01,-0.029 0.003,-0.01 0,0 -0.0129,0.039 -0.0236,0.084 -0.0107,0.046 -0.019,0.099 -0.0252,0.1596 -0.006,0.06 -0.01,0.1281 -0.0215,0.3246 -0.0115,0.1965 -0.0313,0.4867 -0.0515,0.7311 -0.0202,0.2443 -0.0401,0.4421 -0.0622,0.5911 -0.022,0.1492 -0.0453,0.2448 -0.0712,0.3322 -0.0259,0.087 -0.0609,0.1805 -0.11395,0.2916 -0.053,0.1112 -0.12485,0.2393 -0.2157,0.3831 -0.0908,0.1438 -0.19795,0.3042 -1.05029,1.1872 -0.8523,0.883 -2.47546,2.626 -4.25136,5.1071 -1.77586,2.4811 -1.8293,2.5301 -2.0266,2.7257 -0.19726,0.1956 -0.49994,0.4827 -0.9067,0.8435 -0.4067,0.3609 -0.91043,0.7968 -1.51554,1.3139 -0.6051,0.517 -0.77726,0.6875 -0.89016,0.8067 -0.1128,0.1193 -0.22086,0.2434 -0.3248,0.3706 -0.10395,0.1272 -0.20594,0.257 -0.3169,0.398 -0.1109,0.141 -0.25726,0.4004 -0.39123,0.6587 -0.13391,0.2583 -0.25777,0.5195 -0.37067,0.7839 -0.1129,0.2644 -0.2124,0.5327 -0.31744,0.8437 -0.10496,0.3111 -0.1944,0.7715 -0.28026,1.1634 -0.0858,0.3917 -0.1836,0.7887 -0.2941,1.1909 -0.11046,0.4022 -0.2317,0.8104 -0.37175,1.2378 -0.14005,0.4275 -0.19615,0.6291 -0.21995,0.7483 -0.0238,0.119 -0.0447,0.2424 -0.0632,0.3718 -0.0184,0.1295 -0.0347,0.265 -0.0541,0.4945 -0.0194,0.2295 0.0426,0.8222 0.25027,1.4215 0.2077,0.5993 0.5434,1.1507 0.9924,1.6521 0.4491,0.5015 0.9967,0.9661 1.6614,1.4065 0.66466,0.4404 1.8504,0.9999 2.89946,1.4153 1.04907,0.4154 1.97559,0.7108 2.78094,0.8755 0.8053,0.1645 1.48224,0.2027 1.77796,0.1401 0.53264,-0.082 0.28387,-0.2032 0.52084,-0.2231 z"
           id="path421" />
      </g>
      <g
         style="fill:#000000;fill-opacity:1;stroke-linejoin:miter"
         id="g427"
         transform="rotate(90,259.41968,748.93978)">
        <path
           d="m 574.92474,1214.463 c 0.0648,-0.2272 0.14582,-0.687 0.25426,-1.1598 0.1085,-0.4726 0.24916,-0.9599 0.4162,-1.4656 0.1671,-0.5057 0.3633,-1.0311 0.67964,-1.7712 0.31636,-0.7401 0.69483,-1.6466 1.03166,-2.4817 0.33693,-0.8352 0.63314,-1.5992 0.8956,-2.2898 0.26244,-0.6907 0.4838,-1.311 0.7451,-1.9175 0.2613,-0.6065 0.5722,-1.3892 0.8399,-2.1723 0.2678,-0.7832 0.5153,-1.5569 0.7466,-2.3196 0.2313,-0.7628 0.444,-1.5153 0.5623,-2.229 0.1183,-0.7138 0.1024,-1.1283 0.0864,-1.4761 -0.0161,-0.3476 -0.0343,-0.6302 -0.0592,-0.855 -0.025,-0.2246 -0.0604,-0.409 -0.45517,-1.2988 -0.39475,-0.8898 -1.181,-2.4628 -1.2866,-2.706 -0.1056,-0.2433 -0.19585,-0.4738 -0.2654,-0.6888 -0.0695,-0.2151 -0.1181,-0.4154 -0.12516,-0.5582 -0.007,-0.1428 -0.007,-0.1428 -0.006,-0.047 0,0 -0.007,0.1913 -0.0202,0.4075 -0.0135,0.2163 -0.0117,0.4574 0.008,0.722 0.0193,0.2647 0.059,0.5611 0.43723,2.2767 0.37824,1.7155 0.36527,1.7016 0.35987,1.8133 -0.005,0.1118 -0.0198,0.3148 -0.0435,0.5938 -0.0236,0.279 -0.065,0.6302 -0.10764,0.9803 -0.0427,0.3501 -0.31283,0.9666 -0.61935,1.6732 -0.30652,0.7066 -0.62535,1.4238 -0.95405,2.1527 -0.32866,0.7289 -0.6738,1.4671 -0.989,2.265 -0.3152,0.7981 -0.47705,1.4441 -0.63843,2.0957 -0.16132,0.6515 -0.34367,1.3844 -0.55127,2.1968 -0.20764,0.8123 -0.4378,1.7047 -0.68335,2.6836 -0.24555,0.9788 -0.37329,1.5883 -0.46175,2.1714 -0.0884,0.583 -0.13926,1.1399 -0.1402,1.6708 -9e-4,0.5309 0.0426,1.0322 0.1172,1.2726 0.0851,0.4681 0.21565,0.2339 0.22614,0.4615 z"
           id="path425" />
      </g>
      <g
         style="fill:#000000;fill-opacity:1;stroke-linejoin:miter"
         id="g431"
         transform="rotate(90,259.41968,748.93978)">
        <path
           d="m 608.2866,1248.5708 c 0.0481,-0.1895 0.0791,-0.6351 0.0913,-1.186 0.0124,-0.5509 0.003,-1.206 -0.0347,-1.9634 -0.0374,-0.7576 -0.0968,-1.6183 -0.13306,-2.1912 -0.0362,-0.5727 -0.0387,-0.8476 -0.0386,-1.1325 1.3e-4,-0.2851 0.004,-0.5801 0.0145,-0.8853 0.0105,-0.3053 0.0238,-0.6204 0.0552,-1.2319 0.0314,-0.6115 0.0859,-1.4331 0.1239,-2.1111 0.038,-0.6779 0.0692,-1.2118 0.095,-1.5988 0.0258,-0.3869 0.0458,-0.6194 0.1387,-1.3731 0.093,-0.7538 0.145,-2.1345 0.16945,-2.4502 0.0245,-0.3157 0.0457,-0.6153 0.0606,-0.8713 0.0149,-0.2559 0.0235,-0.4709 0.0236,-0.6536 2e-4,-0.1828 -0.008,-0.2925 -0.0609,-1.4424 -0.0533,-1.1498 -0.0967,-1.6658 -0.1366,-2.0846 -0.0399,-0.4188 -0.0724,-0.767 -0.0976,-1.0441 -0.0251,-0.2771 -0.0429,-0.4823 -0.0541,-0.6131 -0.0112,-0.1309 -0.0226,-0.2743 -0.0315,-0.4028 -0.009,-0.1284 -0.0153,-0.241 -0.0194,-0.3369 -0.004,-0.096 -0.006,-0.174 -0.005,-0.2363 10e-4,-0.062 0.007,-0.1677 0.0135,-0.2664 0.007,-0.099 0.0127,-0.1911 0.0196,-0.2775 0.007,-0.086 0.0148,-0.1663 0.0218,-0.2349 0.007,-0.069 0.0847,-0.5913 0.147,-1.031 0.0624,-0.4398 0.1086,-0.7934 0.1355,-1.0635 0.0268,-0.2701 0.037,-0.4615 0.0321,-0.5716 -0.005,-0.1101 -0.0123,-0.065 -0.0126,-0.079 -1.6e-4,-0.014 3e-4,-0.027 10e-4,-0.038 8.6e-4,-0.012 0.003,-0.023 0.008,-0.037 0.005,-0.014 0.009,-0.031 0.01,-0.039 6.5e-4,-0.01 0.0128,-0.026 0.0369,-0.05 0.0241,-0.024 0.0596,-0.052 0.0791,-0.075 0.0195,-0.023 0.38025,-0.1378 0.7021,-0.2537 0.3219,-0.1158 0.58996,-0.2323 0.8042,-0.3449 0.21416,-0.1128 0.38665,-0.1952 0.4912,-0.2579 0.1045,-0.063 0.1045,-0.063 0.0348,-0.021 0,0 -0.13935,0.084 -0.33595,0.1436 -0.19659,0.06 -0.44725,0.093 -0.74635,0.1128 -0.2991,0.02 -0.6468,0.031 -0.9095,0.053 -0.26285,0.022 -0.3362,0.047 -0.40445,0.078 -0.0683,0.03 -0.13175,0.066 -0.19092,0.111 -0.0591,0.044 -0.11313,0.1008 -0.14263,0.1374 -0.0295,0.037 -0.0559,0.074 -0.0796,0.1134 -0.0237,0.039 -0.0447,0.081 -0.0627,0.1237 -0.0181,0.043 -0.0334,0.086 -0.0452,0.1634 -0.0118,0.077 -0.0359,0.1525 -0.0952,0.3345 -0.0594,0.1819 -0.15165,0.453 -0.2744,0.8096 -0.12274,0.3567 -0.279,0.7969 -0.38366,1.0958 -0.10468,0.299 -0.13111,0.3915 -0.15664,0.4885 -0.0256,0.097 -0.0506,0.1991 -0.074,0.3062 -0.0233,0.107 -0.0456,0.2193 -0.0636,0.3186 -0.018,0.099 -0.0325,0.1959 -0.0471,0.3032 -0.0147,0.1073 -0.0287,0.2263 -0.0425,0.3583 -0.0137,0.1321 -0.0272,0.2773 -0.0382,0.4171 -0.011,0.1398 -0.0194,0.3084 -0.0298,0.5443 -0.0103,0.2361 -0.0226,0.5415 -0.037,0.917 -0.0142,0.3755 -0.0305,0.8215 -0.074,1.6211 -0.0435,0.7996 -0.1117,1.9458 -0.12025,2.0366 -0.009,0.091 -0.0268,0.2262 -0.0552,0.419 -0.0285,0.1928 -0.0686,0.438 -0.12014,0.7329 -0.0516,0.2949 -0.12109,0.6972 -0.21362,2.0974 -0.0926,1.4002 -0.0961,1.5939 -0.0892,1.9105 0.007,0.3167 0.023,0.7664 0.0479,1.3558 0.0249,0.5895 0.0618,1.3199 0.11466,2.1943 0.0528,0.8743 0.0763,1.2203 0.1109,1.5448 0.0345,0.3244 0.0691,0.6389 0.10657,0.9432 0.0375,0.3043 0.0778,0.5985 0.12637,0.9012 0.0486,0.3027 0.27775,1.2135 0.4813,2.0085 0.20355,0.7949 0.3839,1.488 0.5422,2.0797 0.15824,0.5915 0.2915,1.0826 0.3777,1.2922 0.0987,0.3933 0.2272,0.2002 0.2395,0.3838 z"
           id="path429" />
      </g>
      <g
         style="fill:#000000;fill-opacity:1;stroke-linejoin:miter"
         id="g435"
         transform="rotate(90,259.41968,748.93978)">
        <path
           d="m 544.1948,1209.798 c 0.45486,0.2607 1.2992,0.5525 1.9948,0.7579 0.6955,0.2056 1.243,0.3369 1.6573,0.402 0.4144,0.065 0.759,0.053 1.03225,0.01 0.27332,-0.046 0.72272,-0.1302 1.1438,-0.2614 0.42115,-0.1313 0.81158,-0.3114 1.16888,-0.5396 0.3573,-0.2281 0.68087,-0.5012 0.95862,-0.7482 0.27775,-0.2469 0.67905,-0.6485 1.05609,-1.1359 0.37706,-0.4875 0.73322,-1.0613 1.07206,-1.7223 0.3389,-0.6609 0.6663,-1.4084 0.85714,-1.8963 0.1908,-0.4878 0.24766,-0.6546 0.30236,-0.8279 0.0548,-0.1733 0.10743,-0.3531 0.1582,-0.5395 0.0509,-0.1865 0.0998,-0.3798 0.1523,-0.7471 0.0525,-0.3674 0.0951,-0.7574 0.15985,-1.2074 0.0647,-0.4499 0.0792,-0.967 0.13085,-1.5411 0.0517,-0.5741 0.12336,-1.2059 0.17054,-1.6155 0.0473,-0.4094 0.0822,-0.5934 0.12921,-0.7812 0.047,-0.1878 0.10638,-0.3798 0.17745,-0.5765 0.071,-0.1965 0.1526,-0.3989 0.2707,-0.624 0.118,-0.2252 0.26737,-0.4963 0.4115,-0.7331 0.14413,-0.2367 0.27554,-0.4429 0.3981,-0.6139 0.1226,-0.1711 0.232,-0.3075 1.38623,-1.5158 1.15427,-1.2081 3.32862,-3.5834 3.49147,-3.808 0.1628,-0.2246 0.3263,-0.4929 0.49376,-0.8131 0.16744,-0.32 0.34214,-0.6917 0.45288,-1.0108 0.11066,-0.3191 0.11066,-0.3191 -0.007,-0.1346 0,0 -0.36485,0.2845 -0.62561,0.5662 -0.26068,0.2817 -0.49109,0.5137 -0.68934,0.6942 -0.19823,0.1806 -0.3558,0.299 -2.9132,2.2477 -2.5573,1.9487 -2.7547,2.1251 -2.938,2.3153 -0.18334,0.1902 -0.37157,0.4033 -0.56505,0.6419 -0.19348,0.2385 -0.39255,0.5036 -0.604,0.8049 -0.21135,0.3011 -0.37018,0.5737 -0.50782,0.8262 -0.13763,0.2525 -0.25783,0.5101 -0.36303,0.7706 -0.10517,0.2605 -0.19513,0.5244 -0.2715,0.8026 -0.0763,0.2783 -0.22124,0.9686 -0.3413,1.5959 -0.12005,0.6274 -0.22125,1.2028 -0.2971,1.7283 -0.0758,0.5254 -0.0972,1.0041 -0.1057,1.3947 -0.008,0.3906 -0.0164,0.4516 -0.0421,0.6167 -0.0257,0.165 -0.0529,0.3215 -0.0816,0.4693 -0.0287,0.1477 -0.0587,0.2865 -0.0867,0.4068 -0.028,0.1202 -0.25064,0.8929 -0.47924,1.5556 -0.2285,0.6628 -0.4654,1.2267 -0.70105,1.6942 -0.23565,0.4676 -0.47465,0.8334 -0.74515,1.1385 -0.27036,0.305 -0.488,0.5914 -0.66355,0.777 -0.17545,0.1856 -0.39251,0.3538 -0.65375,0.5053 -0.2612,0.1515 -0.5674,0.29 -0.9492,0.4127 -0.38185,0.1228 -0.45826,0.1752 -0.63374,0.1972 -0.17556,0.022 -0.58191,0.016 -1.17206,-0.012 -0.59015,-0.027 -1.35724,-0.074 -1.8159,-0.018 -0.9455,-0.045 -0.48726,0.1943 -0.9741,0.094 z"
           id="path433" />
      </g>
    </g>
  </g>
</svg>
