<?xml version="1.0" encoding="UTF-8" standalone="no"?>
<svg
   version="1.1"
   width="135.38521"
   height="135.38521"
   viewBox="0 0 135.38521 135.38521"
   id="svg1214"
   xmlns="http://www.w3.org/2000/svg"
   xmlns:svg="http://www.w3.org/2000/svg">
  <defs
     id="defs1218" />
  <g
     id="g7514"
     transform="translate(-706.9707,-848.95831)">
    <rect
       style="display:inline;opacity:0.5;fill:none;fill-opacity:1;stroke:none;stroke-width:2.66644;stroke-dasharray:none;stroke-opacity:1"
       id="rect5223"
       width="135.38521"
       height="135.38521"
       x="706.9707"
       y="848.95831" />
    <g
       id="g4492">
      <g
         style="fill:#000000;fill-opacity:1;stroke-linejoin:miter"
         id="g923"
         transform="rotate(90,259.41968,748.93978)">
        <path
           d="m 407.77765,281.18668 c -0.58908,-0.88008 -1.95215,-2.40702 -3.25211,-4.00605 -1.29994,-1.59903 -2.52829,-3.29243 -3.68176,-5.09343 -1.15348,-1.80104 -2.22861,-3.71745 -2.99388,-5.35685 -0.76524,-1.63945 -1.21092,-2.95227 -1.52666,-4.21745 -0.31574,-1.26516 -0.50494,-2.48443 -0.56104,-3.66207 -0.0561,-1.17767 0.007,-2.31641 0.0506,-3.07193 0.0439,-0.75551 0.0536,-0.9884 0.13318,-1.60713 0.0796,-0.61873 0.22876,-1.54892 0.43382,-2.77451 0.20504,-1.22558 0.4731,-2.7408 0.7095,-3.81901 0.23635,-1.0782 0.488,-1.72785 0.78778,-2.37185 0.2998,-0.64399 0.64065,-1.28654 1.02719,-1.92582 0.38653,-0.63927 0.82257,-1.27263 1.24833,-1.79486 0.42577,-0.52225 0.9146,-0.99765 1.43184,-1.44889 0.51724,-0.45123 1.06574,-0.87577 1.64444,-1.27648 0.57874,-0.40073 1.18854,-0.77785 1.56362,-1.01047 0.3751,-0.23264 0.50657,-0.30612 1.0111,-0.48598 0.50454,-0.17985 1.30556,-0.44183 2.38732,-0.79127 1.08172,-0.34945 2.43508,-0.81948 3.60391,-1.13648 1.16882,-0.31702 1.16882,-0.31702 0.37793,-0.16597 0,0 -1.61682,0.12122 -2.95246,0.2152 -1.33563,0.094 -2.38122,0.21244 -3.14675,0.33187 -0.76555,0.11944 -1.27252,0.22837 -1.51227,0.33217 -0.23972,0.10381 -0.92664,0.37775 -1.6337,0.71132 -0.70706,0.33356 -1.38513,0.71156 -2.03718,1.12726 -0.65203,0.41571 -1.27767,0.86908 -1.8946,1.3849 -0.61695,0.51583 -1.22966,1.20578 -1.75795,1.87471 -0.52825,0.66893 -1.01028,1.35556 -1.4447,2.06008 -0.43445,0.70451 -0.824,1.425 -1.1886,2.22873 -0.36455,0.80372 -0.80658,2.567 -1.15105,3.98462 -0.3445,1.41761 -0.6092,2.5607 -0.79133,3.43798 -0.18213,0.87729 -0.28372,1.5103 -0.30572,1.8317 -0.022,0.3214 -0.18555,1.60098 -0.14075,3.01195 0.0448,1.41098 0.24493,2.83233 0.60455,4.259 0.35962,1.42667 0.86048,2.86121 1.5307,4.31525 0.67023,1.45404 1.91895,3.48095 3.24967,5.33841 1.33072,1.85745 2.74716,3.56842 4.26355,5.11537 1.51638,1.547 3.1376,2.91462 4.08487,3.41658 1.73931,1.14877 1.03656,0.39258 1.82861,1.0394 z"
           id="path921" />
      </g>
      <g
         style="fill:#000000;fill-opacity:1;stroke-linejoin:miter"
         id="g927"
         transform="rotate(90,259.41968,748.93978)">
        <path
           d="m 397.23892,226.18063 c -0.26239,0.0344 -0.70942,-0.0151 -1.15017,-0.3388 -0.44077,-0.32373 -0.92447,-0.94841 -1.44611,-1.89987 -0.52161,-0.95148 -1.08402,-2.22774 -1.52112,-3.42429 -0.4371,-1.19657 -0.71576,-2.15152 -0.98358,-3.13153 -0.26784,-0.98 -0.51114,-1.99033 -0.73151,-3.0307 -0.22039,-1.04038 -0.42489,-2.10941 -0.5661,-2.92856 -0.14123,-0.81915 -0.21658,-1.35056 -0.26379,-1.93024 -0.0472,-0.57966 -0.0732,-1.20614 -0.0695,-1.87961 0.004,-0.67346 -0.0173,-1.39373 -0.012,-2.00383 0.005,-0.61009 0.0483,-1.11968 0.14126,-1.6581 0.093,-0.53843 0.23264,-1.10642 0.42618,-1.70147 0.19356,-0.59506 0.43292,-1.21993 0.60076,-1.59654 0.16785,-0.37662 0.3047,-0.60147 0.50987,-0.89337 0.20516,-0.2919 0.47009,-0.64803 0.79541,-1.06188 0.32532,-0.41384 0.70832,-0.88513 1.28289,-1.48092 0.57459,-0.59578 1.31617,-1.31658 1.93805,-1.95595 0.62188,-0.63937 1.1279,-1.19493 1.5203,-1.66979 0.39236,-0.47483 0.67658,-0.87359 0.79303,-1.04098 0.11645,-0.16737 0.32333,-0.47635 0.49652,-0.90442 0.17315,-0.42808 0.3573,-1.01952 0.54309,-1.79495 0.18582,-0.77543 0.37079,-1.7388 0.58887,-2.52864 0.21807,-0.78984 0.21807,-0.78984 0.0408,-0.27445 0,0 -0.45032,0.9973 -0.88382,1.79973 -0.4335,0.80245 -0.77921,1.43242 -1.04032,1.88233 -0.26106,0.4499 -0.4404,0.698 -0.55682,0.78128 -0.11644,0.0833 -0.37184,0.38269 -0.69944,0.69953 -0.3276,0.31685 -0.79446,0.71386 -1.38625,1.19542 -0.5918,0.48156 -1.31241,1.04067 -2.17572,1.70081 -0.86335,0.66014 -1.405,1.19146 -1.8335,1.62399 -0.4285,0.43254 -0.79793,0.82337 -1.11026,1.17499 -0.31232,0.35161 -0.56583,0.67098 -0.78707,0.98688 -0.22123,0.31592 -0.60053,1.02415 -0.9229,1.71344 -0.32235,0.68928 -0.5848,1.37395 -0.7977,2.05076 -0.21285,0.67682 -0.3651,1.349 -0.46013,2.01679 -0.095,0.66778 -0.14124,1.50557 -0.12873,2.2849 0.0125,0.77934 0.0724,1.51809 0.16251,2.21617 0.0901,0.69807 0.2041,1.35652 0.34647,1.95826 0.14233,0.60176 0.42733,1.70557 0.7406,2.78949 0.31326,1.08393 0.65573,2.13242 1.02063,3.14685 0.36485,1.01442 0.75213,1.99476 1.17858,2.9506 0.42647,0.95584 1.2446,2.43089 2.02494,3.57296 0.78033,1.14208 1.51947,1.9609 2.2276,2.44536 0.70813,0.48447 1.37549,0.61443 1.66953,0.50332 0.54336,-0.23945 0.22936,-0.23662 0.47872,-0.36497 z"
           id="path925" />
      </g>
      <g
         style="fill:#000000;fill-opacity:1;stroke-linejoin:miter"
         id="g931"
         transform="rotate(90,259.41968,748.93978)">
        <path
           d="m 407.2805,214.11508 c -0.3559,-0.5948 -1.965,-2.56486 -2.68474,-3.49978 -0.71976,-0.93493 -1.89496,-2.68445 -2.60321,-3.38147 -0.70828,-0.69703 -1.61115,-1.57373 -2.05459,-2.17981 -0.44346,-0.60607 -1.22803,-1.736 -1.42603,-1.95137 -0.198,-0.21538 -0.36557,-1.02227 -0.55349,-1.66201 -0.18794,-0.63975 -0.004,-0.94778 0.0282,-1.42394 0.0324,-0.47616 0.36027,-1.16242 0.75937,-1.83349 0.3991,-0.67106 0.66742,-1.15544 1.08212,-1.67299 0.41471,-0.51756 0.68232,-0.80458 1.32654,-1.61692 0.6442,-0.81235 0.65009,-0.85985 1.73297,-1.80272 1.08287,-0.94288 1.39417,-1.23079 2.34232,-2.01343 0.94815,-0.78262 1.93561,-1.52705 2.65051,-2.27921 0.71491,-0.75215 0.84568,-0.99174 1.3563,-1.45364 0.51062,-0.46188 0.69162,-0.51015 1.14929,-1.05306 0.45767,-0.5429 0.93185,-0.94155 1.18835,-1.14515 0.25647,-0.20362 -1.7172,-1.78849 -1.91812,-1.45157 -0.20093,0.3369 -0.29888,1.31468 -0.50906,2.11954 -0.21018,0.80487 -0.28322,1.35278 -0.37326,1.92907 -0.0901,0.5763 -0.43756,1.42493 -0.48703,2.39753 -0.0495,0.97258 -0.07,1.69104 0.0178,2.88839 0.0878,1.19736 0.11828,2.24071 0.2413,3.64627 0.12305,1.40555 0.31003,2.1155 0.47358,2.9571 0.1635,0.84161 0.22378,1.23967 0.33184,1.97958 0.10809,0.73991 0.20221,1.22658 0.2442,2.06522 0.042,0.83865 0.3476,1.28901 0.6258,1.64665 0.27822,0.35763 0.763,0.67904 1.12182,0.98013 0.35884,0.30109 0.78952,0.41808 0.95041,0.69164 0.16089,0.27356 0.16089,0.27356 0.0536,0.0912 0,0 -0.21452,-0.36474 -0.46736,-0.67145 -0.25286,-0.3067 -0.61529,-0.73359 -0.84381,-1.10009 -0.22851,-0.3665 -0.39489,-0.75957 -0.4386,-1.10798 -0.0437,-0.3484 0.17621,-1.29988 0.1876,-2.09731 0.0114,-0.79743 0.0192,-1.34419 0.0186,-2.13849 -5.5e-4,-0.79431 -0.1149,-1.5711 -0.15942,-2.65103 -0.0445,-1.07993 0.0273,-1.99968 0.049,-3.43609 0.0217,-1.4364 0.0866,-1.8629 0.15686,-2.77897 0.0703,-0.91608 0.0965,-1.01044 0.38654,-1.77124 0.28997,-0.76081 0.51342,-1.55109 0.68261,-2.23555 0.16919,-0.68447 0.46163,-1.35752 0.58033,-1.98889 0.11868,-0.63138 0.6091,-1.97341 -1.13642,-2.38086 -1.74548,-0.40746 -2.32535,0.14676 -2.92093,0.69947 -0.59558,0.55271 -0.78589,0.77056 -1.05633,1.0654 -0.27045,0.29486 -0.69004,0.39772 -1.35977,0.99575 -0.66975,0.59802 -1.31431,1.31347 -2.38563,2.13725 -1.07135,0.82379 -1.86688,1.60856 -2.6177,2.38656 -0.75082,0.778 -1.59762,1.53022 -2.12784,2.30408 -0.53021,0.77388 -0.8902,1.20217 -1.39673,1.83019 -0.50653,0.62802 -0.92105,1.4308 -1.2489,2.02458 -0.32782,0.59378 -0.69089,1.51739 -0.9577,2.43491 -0.26685,0.91749 -0.19052,1.67453 -0.0252,2.76107 0.16536,1.08657 0.30298,1.45374 0.71271,2.29685 0.40975,0.84309 0.7684,1.21478 1.40215,1.94559 0.63374,0.73081 1.42725,1.60449 2.20353,2.21321 0.77627,0.60872 1.74399,1.34321 2.63567,2.30934 0.8917,0.96612 2.26835,2.22889 3.36564,2.93869 1.60141,1.14966 1.19013,0.60342 1.69426,1.04327 z"
           id="path929" />
      </g>
      <g
         style="fill:#000000;fill-opacity:1;stroke-linejoin:miter"
         id="g935"
         transform="rotate(90,259.41968,748.93978)">
        <path
           d="m 417.12524,236.12439 c -0.23354,0.15329 -0.69009,0.52664 -1.22506,0.92737 -0.53498,0.40072 -1.14862,0.83389 -1.8465,1.29748 -0.69788,0.46358 -1.48135,0.95768 -2.18948,1.53293 -0.70813,0.57524 -1.0934,1.02135 -1.4314,1.45375 -0.33798,0.43241 -0.6365,0.84598 -0.903,1.23784 -0.26652,0.39188 -0.49025,0.77016 -0.5826,0.87544 -0.0923,0.10529 -0.40356,0.6142 -0.74676,1.37525 -0.34324,0.76105 -0.80496,1.89605 -1.38634,3.42843 -0.58137,1.53238 -1.27684,3.46804 -1.75386,4.89194 -0.47699,1.42391 -0.54117,1.97547 -0.61102,2.51283 -0.0698,0.53739 -0.11492,1.06665 -0.13959,1.58705 -0.0246,0.5204 -0.0283,1.03185 -9.1e-4,1.6345 0.0273,0.60267 0.13201,1.29258 0.3189,1.95124 0.18688,0.65863 0.46045,1.27912 0.81025,1.8584 0.34979,0.57926 0.77868,1.11032 1.10965,1.44654 0.33096,0.33624 0.51678,0.5021 0.71198,0.66479 0.19518,0.16266 0.40105,0.32086 0.61178,0.48148 0.21072,0.16061 0.43188,0.3171 1.10292,0.75185 0.67106,0.43476 1.66536,1.06776 2.49586,1.59296 0.83051,0.52524 1.49298,0.94782 1.99082,1.26094 0.49782,0.31313 0.82208,0.5225 1.2135,0.79015 0.39142,0.26761 0.90466,0.60475 1.33069,0.88211 0.42605,0.27738 0.76205,0.49844 1.00586,0.66538 0.24383,0.16693 0.3934,0.28088 0.49327,0.34552 0.0999,0.0647 0.19487,0.0931 0.28248,0.11682 0.0876,0.0237 0.16934,0.0442 0.24854,0.0539 0.0792,0.01 0.15594,0.009 0.21225,0.002 0.0563,-0.006 0.0563,-0.006 0.0188,-0.002 0,0 -0.0751,0.008 -0.15262,0.006 -0.0776,-0.002 -0.1576,-0.0157 -0.2399,-0.0405 -0.0823,-0.0248 -0.16104,-0.0735 -0.23554,-0.12992 -0.0745,-0.0565 -0.12906,-0.16174 -0.26403,-0.35183 -0.13498,-0.1901 -0.34575,-0.4542 -0.63269,-0.79247 -0.28693,-0.3383 -0.65326,-0.7473 -1.10276,-1.22 -0.4495,-0.47273 -0.64047,-0.67122 -0.98404,-0.99947 -0.34356,-0.32821 -0.83866,-0.77301 -1.48803,-1.33553 -0.64939,-0.56254 -1.45583,-1.24033 -2.41779,-2.03226 -0.96197,-0.79196 -1.13599,-0.9455 -1.31161,-1.09914 -0.17563,-0.15367 -0.33985,-0.30717 -0.49186,-0.4614 -0.152,-0.15422 -0.29557,-0.30448 -0.4165,-0.43965 -0.12097,-0.13515 -0.44733,-0.55099 -0.68837,-0.95505 -0.24098,-0.40405 -0.42253,-0.81802 -0.54442,-1.2496 -0.12186,-0.43158 -0.18458,-0.8854 -0.19601,-1.3793 -0.0115,-0.4939 0.015,-0.90018 0.0597,-1.3327 0.0447,-0.43253 0.10794,-0.87442 0.19101,-1.32575 0.083,-0.45132 0.18161,-0.91288 0.28418,-1.34367 0.10257,-0.43078 0.70485,-2.65413 1.2149,-4.48279 0.51007,-1.82866 0.91355,-3.24405 1.21625,-4.23573 0.30274,-0.9917 0.49646,-1.53218 0.58002,-1.64286 0.0835,-0.11068 0.30468,-0.58079 0.46872,-0.92625 0.16403,-0.34546 0.36334,-0.72842 0.60406,-1.1431 0.24073,-0.41467 0.52213,-0.85998 0.78333,-1.29094 0.2612,-0.43096 0.96359,-1.02066 1.64645,-1.64709 0.68282,-0.62642 1.27462,-1.22089 1.76868,-1.78848 0.49408,-0.5676 0.89047,-1.10437 1.02136,-1.39128 0.29755,-0.49895 0.0199,-0.37413 0.18652,-0.58617 z"
           id="path933" />
      </g>
      <g
         style="fill:#000000;fill-opacity:1;stroke-linejoin:miter"
         id="g939"
         transform="rotate(90,259.41968,748.93978)">
        <path
           d="m 416.99313,270.3304 c -0.0575,-0.14644 -0.18545,-0.46944 -0.27859,-0.8857 -0.0932,-0.41626 -0.15686,-0.9284 -0.19501,-1.53906 -0.0381,-0.61069 -0.0543,-1.32124 -0.0474,-1.81054 0.007,-0.48936 0.0158,-0.69602 0.0286,-0.9021 0.0128,-0.20612 0.0295,-0.41175 0.0483,-0.61692 0.0188,-0.20518 0.0396,-0.41003 0.14967,-1.08908 0.11003,-0.67908 0.27563,-1.8166 0.41315,-2.87006 0.13751,-1.05344 0.24105,-2.02368 0.31836,-2.91101 0.0773,-0.88736 0.12817,-1.69299 0.15164,-2.28009 0.0235,-0.58709 0.0225,-1.0888 0.003,-1.6629 -0.0197,-0.57411 -0.0622,-1.22337 -0.18173,-1.94269 -0.11957,-0.71931 -0.2616,-1.51533 -0.44916,-2.42965 -0.18757,-0.91433 -0.3928,-1.8166 -0.59014,-2.6279 -0.19734,-0.8113 -0.38133,-1.53312 -0.5595,-2.16489 -0.17815,-0.63178 -0.34673,-1.17551 -0.50875,-1.65369 -0.16199,-0.47819 -0.38211,-1.08975 -0.69049,-1.86871 -0.30836,-0.77895 -0.70838,-1.72759 -1.22046,-2.84075 -0.5121,-1.11316 -1.1598,-2.38301 -1.62097,-3.44578 -0.46115,-1.06279 -0.46115,-1.06279 -0.20847,-0.33534 0,0 0.3411,1.51164 0.61112,2.83961 0.26999,1.32796 0.52484,2.45265 0.74249,3.38098 0.21763,0.92835 0.38419,1.66312 0.49676,2.20855 0.11255,0.54542 0.20792,1.01875 0.30549,1.57411 0.0975,0.55536 0.20058,1.20617 0.30654,1.95166 0.10596,0.74547 0.21741,1.58453 0.33432,2.5122 0.11695,0.92768 0.19648,1.75551 0.26322,2.50679 0.0667,0.75129 0.1153,1.41626 0.1928,1.98943 0.0775,0.57317 0.1305,1.05899 0.15766,1.46402 0.0272,0.40503 0.0659,1.11721 0.0877,1.91199 0.0218,0.7948 0.0263,1.68307 0.0153,2.66366 -0.0111,0.98062 -0.0293,2.05359 -0.0594,3.2229 -0.0301,1.16931 -0.028,1.42496 -0.0195,1.65021 0.008,0.22528 0.0245,0.44989 0.0448,0.67368 0.0202,0.22377 0.0446,0.44677 0.0736,0.67489 0.029,0.22808 0.17105,1.02625 0.33746,1.72443 0.16641,0.69818 0.3577,1.29053 0.57704,1.77385 0.21932,0.48335 0.4617,0.85518 0.61095,0.99037 0.25305,0.25571 0.25619,0.0431 0.35998,0.16353 z"
           id="path937" />
      </g>
      <g
         style="fill:#000000;fill-opacity:1;stroke-linejoin:miter"
         id="g943"
         transform="rotate(90,259.41968,748.93978)">
        <path
           d="m 439.87292,217.84875 c 0.0599,0.0724 0.17301,0.25704 0.25043,0.55075 0.0774,0.29372 0.12189,0.69929 0.13541,1.2182 0.0135,0.51893 -0.003,1.15198 -0.35379,3.39402 -0.35044,2.24205 -0.86023,5.62155 -1.21985,8.28488 -0.35959,2.66332 -0.59072,4.61145 -0.7066,5.86284 -0.11585,1.25139 -0.10482,2.00369 -0.14747,2.96645 -0.0426,0.96275 -0.13305,3.29238 -0.14971,5.80737 -0.0167,2.515 0.0429,5.2149 0.17396,8.09964 0.13103,2.88473 0.3754,5.95056 0.64543,7.945 0.27005,1.99445 0.49564,2.36493 0.8006,2.6656 0.30499,0.30068 0.647,0.5078 0.98425,0.63177 0.33728,0.12399 0.65668,0.18555 2.7237,0.29583 2.06704,0.11033 5.4385,0.29404 8.18326,0.47394 2.74476,0.17994 4.85748,0.35532 6.31704,0.52228 1.45957,0.16696 2.19297,0.30472 3.15875,-2.00488 0.96579,-2.30964 0.34049,-4.19214 0.0346,-5.88764 -0.30584,-1.69546 -0.31021,-3.20414 -0.0362,-4.5465 0.27395,-1.34237 0.82062,-2.55166 1.9024,-3.93616 1.08179,-1.38449 2.68842,-2.94272 4.51055,-4.32541 1.8222,-1.38271 3.86546,-2.59119 6.13594,-3.62451 2.27051,-1.03332 4.7717,-1.88935 5.08789,-3.9614 0.31617,-2.07205 -0.21813,-1.85708 -0.64417,-1.75114 -0.42606,0.10594 -0.73773,0.12445 -0.95312,0.0905 -0.21544,-0.034 -0.37842,-0.1062 -1.5427,-0.9101 -1.16427,-0.80389 -3.03434,-2.12314 -4.59784,-3.34024 -1.5635,-1.2171 -2.82202,-2.32171 -3.76882,-3.30505 -0.94684,-0.98336 -1.57748,-1.82861 -1.98151,-2.6521 -0.40405,-0.82347 -0.76175,-1.79511 -1.04567,-2.73486 -0.2839,-0.93975 -0.50255,-1.8463 -0.64943,-2.72242 -0.14687,-0.87611 -0.2157,-1.72268 -0.89377,-2.38738 -0.6781,-0.66473 -0.6781,-0.66473 -0.68277,-0.21368 0,0 -1.37953,0.92583 -1.34338,1.93317 0.0361,1.00734 0.14828,2.04431 0.34275,3.10909 0.19448,1.06478 0.47036,2.15649 0.83877,3.31378 0.3684,1.1573 0.94885,2.31622 1.81729,3.50273 0.86844,1.18651 2.01272,2.43132 3.44074,3.74904 1.42803,1.31773 3.14153,2.71731 5.14526,4.18792 2.00372,1.47062 2.61712,1.86994 3.4259,2.1493 0.80874,0.27937 1.65942,0.35445 2.50919,0.25204 0.84975,-0.10239 1.69315,-0.35455 1.87222,-2.59592 0.17908,-2.24134 -2.78531,-1.42453 -5.44794,-0.41848 -2.66263,1.00604 -5.10831,2.22345 -7.33206,3.65439 -2.22377,1.43095 -4.22043,3.07562 -5.99427,4.94575 -1.77383,1.87013 -2.84292,3.52499 -3.5018,5.33122 -0.65884,1.80622 -0.91577,3.75161 -0.78503,5.80088 0.13071,2.04927 0.62918,4.19227 1.40393,6.21722 0.77478,2.02499 2.71945,-0.49942 1.48664,-0.69421 -1.23282,-0.19477 -3.00804,-0.37528 -5.38312,-0.55628 -2.37509,-0.181 -5.36062,-0.36416 -8.95734,-0.54999 -3.59668,-0.18579 -3.56178,-0.18327 -3.49725,-0.16595 0.0645,0.0173 0.18687,0.0707 0.3421,0.18353 0.15521,0.1128 0.3035,0.28455 0.44232,0.67621 0.13883,0.39164 -0.15332,-2.7464 -0.40838,-5.70246 -0.25504,-2.95608 -0.4777,-5.72201 -0.63565,-8.3005 -0.15796,-2.5785 -0.25942,-4.96945 -0.29667,-7.20448 -0.0372,-2.23503 -0.12063,-2.46549 -0.12429,-3.04126 -0.004,-0.57578 0.042,-2.01561 0.12274,-4.19881 0.0807,-2.18321 0.19412,-5.10251 0.28167,-8.76776 0.0876,-3.66524 -0.0189,-4.46469 -0.15444,-5.08334 -0.13559,-0.61864 -0.29657,-1.1193 -0.48053,-1.50103 -0.18396,-0.38172 -0.38895,-0.64315 -0.51374,-0.7225 -0.21661,-0.13158 -0.19458,0.0434 -0.28644,-0.009 z"
           id="path941" />
      </g>
      <g
         style="fill:#000000;fill-opacity:1;stroke-linejoin:miter"
         id="g947"
         transform="rotate(90,259.41968,748.93978)">
        <path
           d="m 432.25476,203.3095 c 0.64894,0.12992 1.99521,0.0933 3.4454,-0.0779 1.4502,-0.17123 3.00052,-0.46379 4.65018,-0.86383 1.64963,-0.40006 3.39441,-0.91391 4.48496,-1.25986 1.09054,-0.34594 1.47787,-0.47136 1.83255,-0.65304 0.35465,-0.18169 0.70453,-0.34697 1.04272,-0.51406 0.33817,-0.16708 0.66287,-0.3398 1.66745,-0.9302 1.00458,-0.59041 2.45706,-1.47425 3.60776,-2.18786 1.15072,-0.71362 1.99752,-1.26077 2.55109,-1.6177 0.55358,-0.35694 0.80533,-0.51888 1.0726,-0.68909 0.26727,-0.17021 0.67535,-0.43956 1.03,-0.66702 0.35461,-0.22747 0.65663,-0.41295 0.91131,-0.54489 0.25464,-0.13196 0.4668,-0.18764 0.59729,-0.21015 0.13053,-0.0225 0.13053,-0.0225 0.0435,-0.007 0,0 -0.17402,0.03 -0.41026,0.0842 -0.23624,0.0542 -0.54414,0.11429 -0.9158,0.20622 -0.3717,0.0919 -0.80551,0.21776 -1.2952,0.37766 -0.48968,0.15989 -0.56694,0.17311 -0.98239,0.32534 -0.41545,0.15223 -1.14273,0.43894 -2.18285,0.87247 -1.04017,0.43355 -2.38948,1.02233 -4.0412,1.77161 -1.65177,0.74928 -1.93107,0.86035 -2.2508,0.98288 -0.31977,0.12254 -0.65076,0.24482 -0.9939,0.3649 -0.3431,0.12007 -0.71234,0.20161 -1.07202,0.35628 -0.35971,0.15466 -2.07385,0.89439 -3.67958,1.53877 -1.60567,0.64439 -3.11552,1.20298 -4.53136,1.68103 -1.4158,0.47805 -2.73984,0.88307 -3.35814,1.1676 -1.23896,0.35377 -0.60273,0.42485 -1.22334,0.4941 z"
           id="path945" />
      </g>
    </g>
  </g>
</svg>
