<?xml version="1.0" encoding="UTF-8" standalone="no"?>
<svg
   version="1.1"
   width="135.38521"
   height="135.38521"
   viewBox="0 0 135.38521 135.38521"
   id="svg1214"
   xmlns="http://www.w3.org/2000/svg"
   xmlns:svg="http://www.w3.org/2000/svg">
  <defs
     id="defs1218" />
  <g
     id="g7228"
     transform="translate(-401.37216,-708.71716)">
    <rect
       style="display:inline;opacity:0.5;fill:none;fill-opacity:1;stroke:none;stroke-width:2.66644;stroke-dasharray:none;stroke-opacity:1"
       id="rect5279"
       width="135.38521"
       height="135.38521"
       x="401.37216"
       y="708.71716" />
    <g
       id="g5189"
       transform="translate(-24.946202,-6.5586449)">
      <g
         style="fill:#000000;fill-opacity:1;stroke-linejoin:miter"
         id="g1083"
         transform="rotate(90,259.41968,748.93978)">
        <path
           d="m 264.0688,568.59076 c -0.48567,-0.71266 -1.67537,-2.00556 -2.9385,-3.42916 -1.26314,-1.4235 -2.58843,-3.0008 -3.97136,-4.7427 -1.38294,-1.74196 -2.82052,-3.65376 -3.75371,-5.0219 -0.9332,-1.3681 -1.35363,-2.28915 -1.74483,-3.40567 -0.39119,-1.11643 -0.74208,-2.42913 -1.05945,-3.93283 -0.31737,-1.50375 -0.58856,-3.19986 -0.71359,-4.5617 -0.12503,-1.36185 -0.204,-2.4716 -0.23846,-3.6418 -0.0345,-1.17025 -0.045,-2.3998 -0.0327,-3.6886 0.0123,-1.2888 0.0464,-2.6367 0.0681,-3.5088 0.0217,-0.87214 0.0373,-1.2042 0.10125,-1.7566 0.0639,-0.5525 0.17816,-1.2982 0.34833,-2.22375 0.17015,-0.92555 0.38174,-2.03022 0.68921,-3.27745 0.30748,-1.24733 0.8102,-2.58596 1.50925,-3.9564 0.69906,-1.3704 1.59246,-2.7772 2.66917,-4.23606 1.07671,-1.45884 2.31469,-3.00204 3.39909,-4.12531 1.08442,-1.12326 1.08442,-1.12326 0.30417,-0.43663 0,0 -1.73245,1.1865 -3.26092,2.43016 -1.52849,1.24364 -2.81723,2.57174 -3.89047,3.95144 -1.07326,1.3796 -1.93352,2.8044 -2.57963,4.2656 -0.64611,1.46125 -1.02197,2.7243 -1.31545,3.77655 -0.2935,1.05225 -0.52418,1.94535 -0.69465,2.68575 -0.17047,0.7403 -0.2731,1.3421 -0.30875,1.7616 -0.0356,0.4195 -0.17992,1.80705 -0.29635,3.1709 -0.11644,1.3638 -0.19516,2.6759 -0.24386,3.93614 -0.0487,1.26031 -0.0681,2.46906 -0.0327,3.68406 0.0354,1.215 0.39697,3.1708 0.80161,4.89186 0.40464,1.72104 0.85359,3.2652 1.35906,4.63184 0.5055,1.36664 1.0654,2.559 1.70026,3.60266 0.63486,1.0437 2.3297,3.00659 3.95606,4.755 1.62637,1.74834 3.2081,3.30719 4.74533,4.67214 1.53723,1.3649 3.03723,2.5223 3.86151,2.92424 1.4754,0.91626 0.91177,0.29106 1.56294,0.80542 z"
           id="path1081" />
      </g>
      <g
         style="fill:#000000;fill-opacity:1;stroke-linejoin:miter"
         id="g1087"
         transform="rotate(90,259.41968,748.93978)">
        <path
           d="m 246.49744,497.26303 c 0.0898,-0.68953 0.0473,-2.02763 0.0128,-3.36763 -0.0345,-1.34 -0.0473,-2.68706 -0.0299,-4.04463 0.0174,-1.35761 0.0782,-2.72745 0.25826,-4.10443 0.18005,-1.37699 0.46809,-2.85126 0.58345,-3.13794 0.11535,-0.28668 0.27868,-0.8117 0.45445,-1.4673 0.17577,-0.6556 0.37305,-1.4461 0.58542,-2.37633 0.21236,-0.93021 0.42268,-1.91595 0.85632,-3.91031 0.43363,-1.99436 0.47946,-2.18823 0.56986,-2.43566 0.0904,-0.24744 0.22299,-0.54005 0.39901,-0.87272 0.17601,-0.33268 0.39949,-0.69971 0.63889,-1.07501 0.23938,-0.37534 1.48955,-1.91025 2.62979,-3.35675 1.14026,-1.44652 2.14909,-2.78876 3.02725,-4.02484 0.87818,-1.23612 1.60889,-2.37863 2.08017,-3.18845 0.47127,-0.80981 0.47127,-0.80981 0.0813,-0.33258 0,0 -1.00738,0.76655 -2.02573,1.72905 -1.01832,0.9625 -2.13322,2.0546 -3.35928,3.26555 -1.22604,1.21091 -2.56135,2.54305 -3.47557,3.50145 -0.91422,0.95842 -1.2402,1.37605 -1.52248,1.7799 -0.28225,0.40383 -0.52758,0.79198 -0.72886,1.17248 -0.20128,0.38049 -0.36443,0.75457 -0.73625,1.93552 -0.37183,1.18096 -1.00853,3.19305 -1.16373,4.25256 -0.15518,1.05954 -0.29428,1.92864 -0.41474,2.65014 -0.12046,0.72153 -0.23268,1.2896 -0.32612,1.6952 -0.0934,0.4056 -0.23187,0.88726 -0.38341,2.4879 -0.15153,1.60062 -0.0923,3.09837 0.0283,4.50398 0.1206,1.40562 0.30587,2.78712 0.55091,4.1427 0.24506,1.35556 0.56215,2.68194 0.85631,3.31567 0.41475,1.28805 0.43299,0.60818 0.55358,1.26248 z"
           id="path1085" />
      </g>
      <g
         style="fill:#000000;fill-opacity:1;stroke-linejoin:miter"
         id="g1091"
         transform="rotate(90,259.41968,748.93978)">
        <path
           d="m 266.1755,491.56 c 0.0387,-0.6144 -0.21212,-1.92398 -0.37063,-3.12058 -0.15851,-1.19659 -0.27011,-2.17044 -0.61612,-3.24814 -0.34601,-1.07768 -0.59655,-1.93768 -0.80423,-2.8396 -0.20767,-0.90191 -0.48072,-1.62176 -0.72242,-2.42278 -0.24166,-0.80106 -0.4757,-1.3482 -0.48253,-1.76652 -0.007,-0.4183 -0.007,-0.4183 -0.007,-0.13885 0,0 -0.0137,0.56057 -0.0343,1.13277 -0.0206,0.57225 0.0679,1.73457 0.10607,2.7829 0.0382,1.04838 0.0921,1.5655 0.4023,2.9224 0.31017,1.3569 0.40944,1.7031 0.79497,2.9446 0.3855,1.2415 0.6911,2.07908 1.0741,2.65413 0.52267,1.13391 0.51993,0.54077 0.65963,1.09967 z"
           id="path1089" />
      </g>
      <g
         style="fill:#000000;fill-opacity:1;stroke-linejoin:miter"
         id="g1095"
         transform="rotate(90,259.41968,748.93978)">
        <path
           d="m 274.5377,496.3587 c 0.009,-0.0987 -4e-5,-0.3195 -0.004,-0.5858 -0.004,-0.26634 -0.009,-0.5774 -0.0143,-0.93345 -0.005,-0.35605 -0.009,-0.75742 -0.0181,-1.03575 -0.01,-0.27834 -0.01,-0.49648 -0.0125,-0.86196 -0.002,-0.36548 -0.0113,-0.8753 -0.0201,-1.52939 -0.009,-0.65411 -0.0268,-1.45132 -0.11474,-3.05648 -0.088,-1.60517 -0.24948,-3.89451 -0.26245,-4.16602 -0.0129,-0.27152 -0.0269,-0.5993 -0.0409,-0.97379 -0.0139,-0.37451 -0.0277,-0.79544 -0.0414,-1.26251 -0.0136,-0.46707 -0.0294,-1.00671 -0.24445,-2.49109 -0.21508,-1.48436 -0.23135,-1.59268 -0.2495,-1.73529 -0.0181,-0.14261 -0.0375,-0.31417 -0.0585,-0.51347 -0.0211,-0.19927 -0.0463,-0.4255 -0.0667,-0.6704 -0.0205,-0.2449 -0.0738,-0.99725 -0.11565,-1.62472 -0.0419,-0.62748 -0.0783,-1.1239 -0.1028,-1.48798 -0.0245,-0.3641 -0.0374,-0.59115 -0.0387,-0.6862 -10e-4,-0.0951 -0.007,-0.29448 -0.008,-0.52336 -10e-4,-0.22888 -0.002,-0.51282 0.002,-0.8497 0.004,-0.33692 0.0186,-0.72524 0.0291,-1.16657 0.0106,-0.44134 0.0158,-0.78811 0.0234,-1.10519 0.008,-0.31708 0.0179,-0.60605 0.0286,-0.86713 0.0108,-0.26108 0.0221,-0.49423 0.0331,-0.70019 0.0111,-0.20596 0.0506,-0.75446 0.0841,-1.21756 0.0336,-0.46314 0.0638,-0.84174 0.0992,-1.13446 0.0354,-0.29274 0.10658,-0.48859 0.15491,-0.59299 0.0483,-0.1044 0.0483,-0.1044 0.0161,-0.0348 0,0 -0.0644,0.13919 -0.15884,0.35764 -0.0944,0.2184 -0.23032,0.51538 -0.38693,0.8972 -0.15662,0.38188 -0.33287,0.84837 -0.45747,1.20857 -0.1246,0.36017 -0.19356,0.5766 -0.26202,0.82063 -0.0684,0.244 -0.1354,0.5158 -0.20504,0.81475 -0.0696,0.29898 -0.14197,0.62527 -0.22672,1.02295 -0.0848,0.3977 -0.16546,0.8201 -0.23132,1.19494 -0.0659,0.37488 -0.12256,0.70218 -0.1646,0.9837 -0.042,0.28156 -0.07,0.51914 -0.0853,0.64164 -0.0153,0.12249 -0.032,0.30725 -0.0529,0.59976 -0.0208,0.29251 -0.0468,0.71002 -0.0742,1.25616 -0.0274,0.5461 -0.0588,1.22165 -0.0749,1.74878 -0.016,0.52716 -0.0195,0.78082 -0.0227,1.01007 -0.003,0.22922 -0.002,0.43412 0.001,0.61588 0.003,0.18177 0.008,0.34137 0.0522,1.16397 0.0438,0.82263 0.14407,2.30603 0.20622,2.7917 0.0621,0.4856 0.1211,0.93953 0.17586,1.34862 0.0548,0.40906 0.10531,0.77353 0.15174,1.09378 0.0464,0.32025 0.0908,0.61496 0.51183,2.87213 0.42107,2.25717 0.56477,3.12183 0.69782,3.8613 0.13302,0.7395 0.25003,1.33687 0.34009,1.79357 0.09,0.45673 0.16021,0.77293 0.203,0.94965 0.0428,0.17673 0.14334,0.59772 0.24914,0.97419 0.10578,0.37643 0.20582,0.7077 0.30155,0.99334 0.0957,0.28568 0.18381,0.52616 0.23993,0.62848 0.0779,0.19507 0.19357,0.0701 0.21534,0.16284 z"
           id="path1093" />
      </g>
      <g
         style="fill:#000000;fill-opacity:1;stroke-linejoin:miter"
         id="g1099"
         transform="rotate(90,259.41968,748.93978)">
        <path
           d="m 268.86124,553.1108 c -0.0298,-0.297 -0.31388,-0.82235 -0.48789,-1.86837 -0.17405,-1.04593 -0.46667,-2.7251 -0.54309,-4.83303 -0.0764,-2.1078 0.0545,-3.4661 0.19299,-4.79734 0.13855,-1.33126 0.30899,-2.54666 0.38155,-3.88406 0.0726,-1.33744 -0.22124,-2.802 -0.39024,-4.00675 -0.16901,-1.20475 -0.43579,-2.39975 -0.69031,-3.47589 -0.25452,-1.07616 -0.47435,-1.83581 -0.67495,-2.43056 -0.20063,-0.5947 -0.28428,-1.0968 -0.37467,-1.6324 -0.0904,-0.5356 -0.15186,-0.8996 -0.2143,-1.5887 -0.0624,-0.6891 -0.0367,-1.41474 -0.0515,-1.83973 -0.0147,-0.42497 -0.1141,-0.93267 -0.006,-1.19087 0.10766,-0.25817 0.10766,-0.25817 0.0359,-0.0861 0,0 -0.14355,0.34425 -0.26129,0.75781 -0.11777,0.41358 -0.16132,0.91404 -0.37324,1.50708 -0.2119,0.59296 -0.26058,1.6081 -0.27624,2.12766 -0.0157,0.51956 -0.0282,0.9352 0.0563,1.70865 0.0845,0.77335 0.13128,1.15905 0.26584,2.35695 0.13455,1.1978 0.1911,1.7154 0.26562,3.25157 0.0745,1.53623 0.13922,2.11313 0.12753,3.43237 -0.0117,1.31916 -0.0333,2.23779 -0.0628,3.43543 -0.0294,1.19757 -0.0342,2.79853 0.12784,4.59193 0.162,1.7934 0.6532,4.13023 1.16156,5.60106 0.50834,1.47088 1.04028,2.29858 1.3006,2.48584 0.36062,0.4311 0.39084,0.1335 0.49118,0.3774 z"
           id="path1097" />
      </g>
      <g
         style="fill:#000000;fill-opacity:1;stroke-linejoin:miter"
         id="g1103"
         transform="rotate(90,259.41968,748.93978)">
        <path
           d="m 279.25998,552.7115 c 3e-4,-0.12697 -0.0958,-0.4807 -0.29105,-1.0023 -0.19523,-0.5215 -0.49756,-1.2071 -0.92267,-2.0464 -0.42514,-0.8393 -0.96218,-1.83864 -1.29388,-2.43843 -0.33166,-0.59977 -0.40848,-0.76893 -0.50378,-0.99421 -0.0953,-0.22526 -0.20392,-0.50592 -0.33368,-0.83636 -0.12972,-0.3305 -0.27326,-0.7134 -0.52768,-1.4326 -0.25444,-0.7192 -0.581,-1.70424 -0.84514,-2.62307 -0.26412,-0.91888 -0.46605,-1.76993 -0.69884,-2.53343 -0.23279,-0.76356 -0.39749,-1.46907 -0.47503,-1.9411 -0.0775,-0.47206 -0.10773,-0.75795 -0.12983,-1.08003 -0.0221,-0.32217 -0.0278,-0.67927 -0.0267,-1.0708 10e-4,-0.3916 0.0151,-0.81671 0.0284,-1.10871 0.0134,-0.29196 0.0222,-0.41192 0.0493,-0.58746 0.0271,-0.1756 0.0707,-0.40045 0.13313,-0.6696 0.0624,-0.2692 0.1483,-0.57906 0.35442,-0.9516 0.20614,-0.3726 0.63943,-0.9523 1.07061,-1.4884 0.43122,-0.53615 0.85749,-1.03444 1.28351,-1.4944 0.42606,-0.4599 0.85684,-0.8791 1.21811,-1.1158 0.36127,-0.2367 0.36127,-0.2367 0.11737,-0.0835 0,0 -0.49695,0.2925 -1.04806,0.574 -0.55109,0.2815 -1.11126,0.6232 -1.67401,1.0284 -0.56275,0.40506 -1.1218,0.8763 -1.70771,1.4292 -0.5859,0.5529 -0.81469,1.0356 -0.94452,1.3396 -0.12985,0.30387 -0.23938,0.5763 -0.32547,0.8215 -0.0861,0.2452 -0.14758,0.4674 -0.18345,0.652 -0.0358,0.18455 -0.12126,0.64226 -0.1908,1.0863 -0.0696,0.444 -0.12172,0.8636 -0.15214,1.2599 -0.0304,0.3962 -0.0447,0.7697 -0.0384,1.1231 0.006,0.3534 0.0642,1.1213 0.18118,1.9621 0.11695,0.8407 0.28049,1.74015 0.61441,2.6595 0.33394,0.91946 0.73404,1.88467 1.20648,2.8927 0.47241,1.008 0.68456,1.427 0.87299,1.7837 0.18837,0.3567 0.3612,0.6648 0.51373,0.9276 0.15254,0.2629 0.28434,0.4826 0.40726,0.6736 0.12292,0.1911 0.90168,1.1834 1.55795,2.014 0.65625,0.83056 1.19123,1.5087 1.60767,2.0336 0.41641,0.5249 0.70356,0.90365 0.81606,1.0369 0.1451,0.24126 0.24772,0.0924 0.28028,0.2005 z"
           id="path1101" />
      </g>
      <g
         style="fill:#000000;fill-opacity:1;stroke-linejoin:miter"
         id="g1107"
         transform="rotate(90,259.41968,748.93978)">
        <path
           d="m 324.34155,542.43536 c -1.09775,-0.65366 -3.40512,-1.56466 -5.7218,-2.51066 -2.31671,-0.94606 -4.63905,-1.95906 -6.96285,-3.06166 -2.32383,-1.10254 -4.65217,-2.29297 -7.08524,-3.84058 -2.43311,-1.54761 -4.78904,-3.34506 -6.64258,-4.94342 -1.85352,-1.59839 -3.19492,-2.98234 -4.01378,-4.10248 -0.81883,-1.12006 -1.15126,-1.88576 -1.13374,-2.70862 0.0175,-0.82294 0.37747,-1.83034 1.16622,-2.74944 0.78876,-0.91913 2.11912,-1.7812 4.05152,-2.52436 1.9324,-0.74324 4.4631,-1.32264 5.80603,-4.12924 1.34292,-2.8066 -0.17483,-4.69287 -0.15097,-4.70218 0.0238,-0.009 -0.0478,-0.21307 -0.12146,-0.46588 -0.0736,-0.25278 -0.14502,-0.55362 -0.21143,-0.90036 -0.0664,-0.34674 -0.13287,-0.78668 -0.13812,-0.78971 -0.005,-0.003 -0.0108,-0.11181 -0.0128,-0.34735 -0.002,-0.23556 0.001,-0.57452 0.007,-1.00836 0.006,-0.43386 0.004,-0.78476 0.0938,-1.2146 0.0899,-0.42986 0.16787,-1.13632 0.22565,-1.9928 0.0578,-0.8565 0.0914,-1.87736 0.10253,-3.06982 0.0111,-1.19247 -0.003,-2.47934 0.0659,-2.96716 0.0688,-0.48786 0.1587,-0.99225 0.26287,-1.44394 0.10413,-0.45169 0.22093,-0.84989 0.34781,-1.19367 0.12686,-0.34377 0.31118,-0.73137 0.27999,-0.7153 -0.0311,0.0161 0.0911,-0.12327 0.4021,-0.40533 0.31095,-0.28208 0.77875,-0.67414 1.39673,-1.15497 0.61795,-0.48081 1.2883,-0.9867 3.5546,-2.33307 2.2663,-1.3464 4.28424,-2.64 6.0282,-3.86975 1.74395,-1.22971 3.20343,-2.40521 4.06814,-3.36285 0.86476,-0.95768 0.86476,-0.95768 0.1843,-0.46988 0,0 -1.67274,0.52365 -3.36728,1.4277 -1.69452,0.90408 -3.63596,1.89685 -5.83313,2.97083 -2.19721,1.07395 -4.69937,2.24877 -5.53186,2.7785 -0.83252,0.52972 -1.48273,0.96332 -2.00257,1.34015 -0.51986,0.3768 -0.92163,0.71347 -1.25756,1.1018 -0.33597,0.38834 -0.44489,0.63694 -0.65467,1.04377 -0.20974,0.40683 -0.41767,0.9013 -0.60174,1.43466 -0.18411,0.53335 -0.34635,1.10641 -0.48856,1.72017 -0.14221,0.61378 -0.27594,1.4055 -0.3417,2.71785 -0.0658,1.31235 -0.14502,2.39639 -0.22669,3.28793 -0.0816,0.89154 -0.16398,1.58344 -0.25091,2.051 -0.087,0.46759 -0.22592,1.00332 -0.26862,1.60256 -0.0427,0.59926 -0.0647,1.02706 -0.0779,1.3751 -0.0133,0.34806 -0.0174,0.62603 -0.005,0.89176 0.0126,0.2657 0.0279,0.34264 0.0803,0.8013 0.0525,0.45867 0.12876,0.91433 0.22326,1.34548 0.0945,0.43115 0.21656,0.83762 0.36393,1.22312 0.14734,0.38552 0.50769,1.0361 1.99927,1.81814 1.4916,0.78204 -0.23285,0.35196 -2.91285,1.08832 -2.68002,0.73634 -4.88105,1.74557 -6.59167,3.0914 -1.71066,1.34584 -2.8569,3.06664 -3.30981,5.05934 -0.45292,1.9926 -0.20099,3.61485 0.62623,5.1224 0.82717,1.5075 2.12807,2.9989 3.89168,4.55874 1.76362,1.55981 3.99805,3.21866 6.74618,5.00876 2.74817,1.79006 5.31669,2.95095 7.79324,3.9438 2.47657,0.9929 4.9514,1.8545 7.4205,2.5864 2.46913,0.7319 4.9357,1.3144 6.2183,1.3663 2.47568,0.3569 1.31757,-0.0848 2.51065,0.22016 z"
           id="path1105" />
      </g>
      <g
         style="fill:#000000;fill-opacity:1;stroke-linejoin:miter"
         id="g1111"
         transform="rotate(90,259.41968,748.93978)">
        <path
           d="m 320.1529,477.56467 c -0.0272,0.97775 0.27856,2.67983 0.6483,4.13595 0.36973,1.45612 0.77787,2.67633 1.21668,3.67325 0.43882,0.99693 0.9159,1.78626 1.9989,3.0253 1.08298,1.23903 2.71119,2.94946 4.2909,4.43546 1.57974,1.48599 3.10666,2.75521 4.58844,3.80313 1.48175,1.04794 2.92018,1.87786 1.98668,1.1875 -0.93352,-0.69034 -4.24764,0.52896 -4.70934,0.78729 -0.46166,0.2583 -0.8287,0.51915 -1.19396,0.81708 -0.36527,0.29791 -0.73267,0.63287 -1.10627,1.0057 -0.3736,0.37284 -0.87738,0.93729 -2.2421,3.03717 -1.36471,2.0999 -2.53958,4.156 -3.54013,6.16642 -1.00052,2.01038 -1.83276,3.97098 -2.48712,5.88452 -0.65438,1.91351 -1.14645,3.81586 -1.25908,5.15746 -0.11265,1.3417 -0.0641,2.64185 0.1315,3.9286 0.19558,1.2867 0.53945,2.55597 1.02547,3.8054 0.48605,1.24947 1.1377,2.5222 2.43231,4.3138 1.29465,1.7916 2.46906,3.1618 3.53064,4.1165 1.06156,0.9548 1.99582,1.48946 2.61148,1.64107 0.61566,0.15163 0.61566,0.15163 0.24988,-0.0212 0,0 -0.59753,-0.56074 -1.31491,-1.3799 -0.71735,-0.81915 -1.53857,-2.0283 -2.4834,-3.62646 -0.94485,-1.59814 -1.99077,-3.56744 -2.38641,-4.69154 -0.39566,-1.1241 -0.67914,-2.2481 -0.83173,-3.3544 -0.15256,-1.10634 -0.18921,-2.19576 -0.0996,-3.27425 0.0897,-1.07849 0.27848,-2.0838 0.87982,-3.75049 0.60138,-1.66662 1.36432,-3.40973 2.28592,-5.21066 0.9216,-1.8009 2.00455,-3.65943 3.24802,-5.577 1.24344,-1.91757 2.6048,-3.90405 2.84351,-4.16455 0.23867,-0.2605 0.51672,-0.54901 0.77008,-0.78821 0.25337,-0.23922 0.47873,-0.42858 0.66967,-0.56921 0.19098,-0.14066 0.17228,-0.15933 3.6872,-1.69453 3.5149,-1.5352 1.75424,-4.93645 0.4311,-5.65386 -1.3232,-0.71744 -2.7553,-1.6571 -4.30003,-2.80627 -1.54474,-1.14917 -3.19571,-2.51287 -4.95544,-4.08655 -1.75973,-1.57364 -2.15763,-1.96939 -2.61115,-2.6127 -0.45352,-0.64332 -0.96032,-1.55667 -1.51416,-2.72495 -0.55382,-1.1683 -1.16385,-2.58264 -1.63632,-3.32817 -0.7193,-1.64415 -0.60855,-0.7081 -0.8554,-1.60673 z"
           id="path1109" />
      </g>
    </g>
  </g>
</svg>
