<?xml version="1.0" encoding="UTF-8" standalone="no"?>
<svg
   version="1.1"
   width="135.38521"
   height="135.38521"
   viewBox="0 0 135.38521 135.38521"
   id="svg1214"
   xmlns="http://www.w3.org/2000/svg"
   xmlns:svg="http://www.w3.org/2000/svg">
  <defs
     id="defs1218" />
  <g
     id="g8632"
     transform="translate(-97.640701,-428.23495)">
    <rect
       style="display:inline;opacity:0.5;fill:none;fill-opacity:1;stroke:none;stroke-width:2.66644;stroke-dasharray:none;stroke-opacity:1"
       id="rect5355"
       width="135.38521"
       height="135.38521"
       x="97.640701"
       y="428.23495" />
    <g
       id="g8357"
       style="fill:#000000;fill-opacity:1;stroke:#000000;stroke-width:1.73e-06;stroke-dasharray:none;stroke-opacity:1">
      <g
         style="fill:#000000;fill-opacity:1;fill-rule:nonzero;stroke:#000000;stroke-width:1.73e-06;stroke-linejoin:miter;stroke-dasharray:none;stroke-opacity:1"
         id="g595"
         transform="rotate(90,278.32182,810.53316)">
        <path
           d="m -57.4238,968.22095 c -0.4014,-0.31439 -1.336442,-0.77555 -2.388,-1.20679 -1.05155,-0.43116 -2.212427,-0.84626 -3.48113,-1.2428 -1.26871,-0.39646 -2.64542,-0.76721 -3.42304,-0.9834 -0.77764,-0.21626 -1.00428,-0.30706 -1.23801,-0.40881 -0.233726,-0.10181 -0.47433,-0.21465 -0.72182,-0.33855 -0.24749,-0.1239 -0.501675,-0.2589 -0.81077,-0.4765 -0.30909,-0.2176 -0.725405,-0.58455 -1.07972,-0.97474 -0.35432,-0.3902 -0.64755,-0.80811 -0.88856,-1.2544 -0.24101,-0.44626 -0.42563,-0.92876 -0.572974,-1.29856 -0.147346,-0.3699 -0.06784,-0.0777 -0.02047,-0.26644 0.04738,-0.18872 0.182334,-0.63966 0.417784,-1.28036 0.235445,-0.6407 0.56372,-1.4567 0.7672,-1.9779 0.203474,-0.52116 0.14926,-0.38127 0.30601,-0.562 0.15675,-0.1807 0.46686,-0.51824 0.9153,-0.97137 0.44844,-0.45313 1.0308,-1.01273 1.69178,-1.72088 0.66098,-0.70815 1.12197,-1.27825 1.50839,-1.76142 0.38642,-0.48313 0.69641,-0.88488 0.93796,-1.21243 0.241556,-0.3275 0.42392,-0.6074 0.47094,-0.6531 0.04701,-0.0457 0.36371,-0.55915 0.66756,-1.1896 0.303854,-0.6305 0.685694,-1.50737 1.15833,-2.6593 0.47264,-1.1519 1.039262,-2.58464 1.37082,-3.45665 0.331562,-0.87205 0.42271,-1.05945 0.47847,-1.16165 0.05576,-0.1022 0.04786,-0.0921 -0.18757,0.1062 -0.235426,0.1982 -1.227892,0.44016 -1.939864,0.12357 -0.711966,-0.31653 -0.410896,0.11016 -0.02556,0.48108 0.385342,0.37095 0.84708,0.66445 1.35878,0.85308 0.511702,0.18867 1.042179,0.26257 2.099122,0.24494 1.056945,-0.0176 2.52525,-0.076 3.745612,-0.14527 1.220358,-0.0692 2.199278,-0.1531 2.96022,-0.25524 0.760941,-0.10226 1.373623,-0.24469 1.27578,-0.26696 -0.09785,-0.0222 -0.237702,-0.0369 -0.455635,-0.1094 -0.21793,-0.0725 -0.481682,-0.246 -0.689331,-0.51024 -0.207646,-0.26426 -0.306086,-0.53596 -0.321449,-0.7876 -0.01536,-0.25156 -0.0094,-0.2951 -0.06479,-0.0323 -0.05536,0.2628 -0.157871,0.7104 -0.309378,1.32157 -0.15151,0.61123 -0.34357,1.38423 -0.572214,2.17883 -0.228646,0.7947 -0.498421,1.63355 -0.760056,2.4873 -0.26163,0.85377 -0.50769,1.72486 -0.745613,2.61085 -0.237917,0.88595 -0.475074,1.78455 -0.698723,2.86675 -0.223644,1.0822 -0.41883,2.14277 -0.583344,3.033 -0.164515,0.89035 -0.29929,1.6092 -0.415114,2.1497 -0.11583,0.54045 -0.20113,0.89586 -0.248124,1.12846 -0.04699,0.23261 -0.08773,0.39899 -0.278808,0.96444 -0.191074,0.56535 -0.516827,1.4481 -0.956688,2.6428 -0.439856,1.19464 -0.976891,2.7068 -1.293411,3.7146 -0.316525,1.0079 -0.365215,1.2623 -0.383782,1.4972 -0.01857,0.23486 -0.01036,0.4482 0.01376,0.6398 0.02412,0.1917 0.05499,0.36733 0.09207,0.4919 0.03709,0.12464 0.03709,0.12464 0.01236,0.0416 0,0 -0.04945,-0.16617 -0.06591,-0.3467 -0.01646,-0.18055 0.02186,-0.37183 0.0895,-0.56934 0.06765,-0.19751 0.164219,-0.40226 0.284958,-0.61436 0.120739,-0.2121 1.119164,-1.7468 1.877067,-3.0411 0.757904,-1.29425 1.329701,-2.3213 1.724167,-3.0822 0.39447,-0.76094 0.629727,-1.2662 0.697315,-1.5051 0.06759,-0.2389 0.161942,-0.43125 0.323125,-0.8892 0.161186,-0.45795 0.351116,-1.0718 0.584625,-1.84613 0.233505,-0.77442 0.502288,-1.71377 0.79779,-2.80152 0.295502,-1.08785 0.584023,-1.91415 0.878695,-2.76645 0.294676,-0.8524 0.599226,-1.6867 0.906248,-2.5052 0.307026,-0.81856 0.616522,-1.6214 0.943626,-2.4402 0.327106,-0.8188 0.625046,-1.7433 0.853566,-2.4627 0.22852,-0.71937 0.39694,-1.2911 0.52206,-1.71827 0.125118,-0.42723 0.200077,-0.73783 0.21648,-1.15606 0.0164,-0.41822 -0.02502,-0.62937 -0.205837,-0.99781 -0.180817,-0.36841 -0.489388,-0.6831 -0.835273,-0.86712 -0.34589,-0.18409 -0.657647,-0.25537 -1.11816,-0.2298 -0.460515,0.0256 -0.672204,0.10826 -1.04331,0.14996 -0.371105,0.0417 -1.079772,0.0873 -2.06932,0.115 -0.989544,0.0276 -2.24754,0.035 -3.765404,0.0265 -1.517868,-0.009 -1.6245,-0.0175 -1.628606,-0.0239 -0.0041,-0.006 0.01463,-0.003 0.02152,-0.007 0.0069,-0.005 -0.02078,-0.0363 -0.144184,-0.2428 -0.123409,-0.20653 -1.760242,-1.1004 -2.562172,-0.77223 -0.80193,0.32826 -1.063095,0.63155 -1.22911,0.8925 -0.16602,0.26096 -0.30742,0.5288 -0.469285,0.87815 -0.161875,0.34935 -0.768275,1.98761 -1.248825,3.3172 -0.48056,1.32959 -0.86577,2.36375 -1.155,3.08929 -0.28923,0.72546 -0.45651,1.11151 -0.49506,1.15381 -0.03855,0.0423 -0.24732,0.38202 -0.364115,0.5697 -0.116795,0.18765 -0.326845,0.49875 -0.619215,0.91245 -0.29238,0.4137 -0.661455,0.9272 -1.07598,1.492 -0.41453,0.5647 -0.988315,1.1837 -1.5227,1.77054 -0.53439,0.58686 -0.95581,1.07556 -1.28016,1.47556 -0.32435,0.40005 -0.56843,0.7616 -0.695335,1.0661 -0.126915,0.30453 -0.462345,1.25534 -0.725995,2.10366 -0.26365,0.84827 -0.45323,1.55194 -0.562045,2.14414 -0.108811,0.59225 -0.12925,1.1556 0.0047,1.5833 0.13398,0.42765 0.350935,0.98137 0.7034,1.63084 0.352455,0.64941 0.776425,1.24622 1.271455,1.78406 0.49502,0.53784 1.05873,1.0118 1.687544,1.42737 0.628816,0.41558 1.025956,0.59673 1.324756,0.71643 0.29879,0.11975 0.59174,0.2288 0.87916,0.32727 0.28743,0.0984 0.56919,0.18597 0.888766,0.27393 0.319574,0.088 1.796224,0.2898 3.148684,0.4962 1.352445,0.2064 2.60747,0.4117 3.76756,0.6129 1.160092,0.2012 2.227666,0.3973 2.75848,0.4147 0.98327,0.18164 0.578965,-0.11524 1.03142,0.0489 z"
           id="path593"
           style="fill:#000000;fill-opacity:1;fill-rule:nonzero;stroke:#000000;stroke-width:1.73e-06;stroke-dasharray:none;stroke-opacity:1" />
      </g>
      <g
         style="fill:#000000;fill-opacity:1;fill-rule:nonzero;stroke:#000000;stroke-width:1.73e-06;stroke-linejoin:miter;stroke-dasharray:none;stroke-opacity:1"
         id="g599"
         transform="rotate(90,278.32182,810.53316)">
        <path
           d="m -61.28977,918.7852 c 1.54841,-0.84697 3.976152,-2.833 6.013433,-4.62065 2.037277,-1.7876 3.722733,-3.33825 5.071312,-4.64185 1.348585,-1.3036 2.368168,-2.3621 2.357695,-4.0453 -0.01047,-1.6832 -0.215166,-1.85094 -0.355414,-2.04423 -0.140246,-0.1933 -0.244946,-0.43232 -0.317616,-0.75567 -0.07267,-0.3234 -0.08598,-0.74964 -0.05993,-1.0791 0.02605,-0.32954 0.06916,-0.58876 0.117428,-0.83064 0.04827,-0.24186 0.0989,-0.46656 0.150032,-0.67396 0.05113,-0.2074 0.108093,-0.3959 0.947368,-2.9903 0.839276,-2.5943 2.42945,-7.6398 2.65087,-8.7606 0.221422,-1.12073 0.367353,-2.08173 0.46848,-2.9553 0.101132,-0.8737 0.156465,-1.66433 0.16288,-2.3811 0.0064,-0.7168 -0.03843,-1.3347 -0.106025,-1.73575 -0.06759,-0.401 -0.202655,-0.81769 -0.459925,-1.25075 -0.257272,-0.433 -0.686243,-0.83366 -1.24481,-1.07273 -0.558567,-0.23902 -1.353157,-0.25447 -2.49572,-0.0545 -1.14256,0.20003 -2.21947,0.3645 -3.265052,0.49953 -1.045582,0.13497 -2.059822,0.24047 -3.04245,0.31677 -0.982632,0.0764 -2.101963,0.13746 -3.311562,0.3709 -1.209598,0.2335 -2.316303,0.4662 -3.378436,0.7075 -1.062135,0.2412 -2.079755,0.491 -3.047345,0.77036 -0.967595,0.2793 -1.884595,0.55939 -2.47654,0.75604 -0.591945,0.19666 -1.094705,0.38404 -1.528425,0.5806 -0.433725,0.1965 -0.849695,0.4534 -1.325556,1.1592 -0.475854,0.70576 -0.472679,0.9179 -0.476584,0.87056 -0.0039,-0.0474 -0.06242,0.1618 -0.103875,0.37847 -0.04145,0.21662 -0.06383,0.44001 -0.06476,0.66747 -9.3e-4,0.2275 0.08165,0.75124 0.22788,1.1536 0.14623,0.40226 0.24839,0.70176 0.3225,0.9406 0.07411,0.2388 0.11802,0.40935 0.13776,0.48736 0.01973,0.078 0.02317,0.10119 0.09144,1.56604 0.06828,1.4648 0.160785,2.78515 0.28009,3.95605 0.11932,1.17085 0.26087,2.19535 0.42731,3.07959 0.166436,0.88422 0.35625,1.5802 0.49474,2.10716 0.138485,0.527 0.28565,1.0509 0.4425,1.5592 0.15685,0.5083 0.322725,1.0011 0.499986,1.47756 0.177264,0.47638 0.374584,0.97414 1.314924,3.0094 0.940356,2.03534 1.71654,3.70319 2.324446,5.01084 0.607906,1.30777 1.036834,2.25717 1.284914,2.83426 0.248087,0.57704 0.313894,0.84228 0.531725,1.40674 0.217831,0.56445 0.376305,1.07446 0.471115,1.5558 0.09481,0.4813 0.12473,0.938 0.1269,1.2778 0.0022,0.33986 0.0022,0.33986 0.04595,0.1198 0,0 0.223252,-0.4205 0.316998,-0.9179 0.09375,-0.49736 0.115845,-1.05077 0.06532,-1.65477 -0.05053,-0.60393 -0.16831,-1.21583 -0.227312,-1.62927 -0.05901,-0.41339 -0.250948,-1.20306 -0.586638,-2.35256 -0.335687,-1.1495 -0.815988,-2.6642 -1.45331,-4.5413 -0.637325,-1.8771 -1.42671,-4.1058 -1.54798,-4.52167 -0.12127,-0.41583 -0.237244,-0.86643 -0.351044,-1.33087 -0.113801,-0.46442 -0.215156,-0.94562 -0.309266,-1.44206 -0.09411,-0.49654 -0.188446,-1.0315 -0.298355,-1.71486 -0.109905,-0.68344 -0.194595,-1.51459 -0.252575,-2.51284 -0.05798,-0.9983 -0.08768,-2.15965 -0.09459,-3.48106 -0.0069,-1.32134 0.01149,-2.81484 -0.0066,-3.09649 -0.01811,-0.28168 -0.06533,-0.57845 -0.137315,-0.89081 -0.07197,-0.31244 -0.16078,-0.65614 -0.27444,-1.03699 -0.113666,-0.38085 -0.21515,-0.70898 -0.18192,-0.54138 0.03324,0.16753 0.03442,0.18109 0.03585,0.185 0.0014,0.004 0.0052,-0.004 0.01366,-0.0235 0.0085,-0.0197 0.16205,-0.54877 -0.03498,-0.15787 -0.19702,0.39096 -0.40163,0.589 -0.3169,0.5552 0.08474,-0.0338 0.36507,-0.13934 0.79482,-0.27087 0.42974,-0.13159 1.000136,-0.29023 1.89987,-0.52197 0.89973,-0.23176 1.8433,-0.45586 2.830006,-0.6919 0.986704,-0.23602 2.021331,-0.46502 3.103771,-0.68696 1.082443,-0.2219 2.096293,-0.4186 3.048653,-0.473 0.952358,-0.0544 2.0159,-0.14655 3.106567,-0.26936 1.090673,-0.12274 2.208643,-0.276 3.354019,-0.45959 1.145371,-0.18365 2.249168,-0.3858 1.851891,-0.42895 -0.397277,-0.0431 -0.687252,-0.2094 -0.855805,-0.3949 -0.168552,-0.1855 -0.221409,-0.2934 -0.223112,-0.2895 -0.0017,0.004 0.01137,0.1122 0.03109,0.56916 0.01973,0.45691 0.0015,1.02808 -0.05861,1.71924 -0.06009,0.69116 -0.16381,1.49615 -0.30646,2.4113 -0.14265,0.9152 -0.284777,1.7964 -1.646777,6.85774 -1.361999,5.0614 -1.427257,5.31763 -1.488373,5.59326 -0.06112,0.27564 -0.11721,0.5611 -0.162303,0.85803 -0.04509,0.29687 -0.08265,0.60487 -0.121187,0.98287 -0.03853,0.378 -0.01922,1.1581 0.1123,1.902 0.13151,0.74386 0.386484,1.4358 0.78584,2.0452 0.399362,0.6094 0.927205,1.108 1.124437,0.60485 0.197227,-0.50325 -0.185589,-0.20805 -1.178971,0.97155 -0.993386,1.1797 -2.298439,2.6669 -3.904693,4.4627 -1.606251,1.79585 -3.49992,3.9115 -4.364993,5.2592 -2.092058,2.5273 -0.767236,1.4496 -1.99422,2.6291 z"
           id="path597"
           style="fill:#000000;fill-opacity:1;fill-rule:nonzero;stroke:#000000;stroke-width:1.73e-06;stroke-dasharray:none;stroke-opacity:1" />
      </g>
      <g
         style="fill:#000000;fill-opacity:1;fill-rule:nonzero;stroke:#000000;stroke-width:1.73e-06;stroke-linejoin:miter;stroke-dasharray:none;stroke-opacity:1"
         id="g603"
         transform="rotate(90,278.32182,810.53316)">
        <path
           d="m -65.57766,930.9921 c -0.04943,0.1794 -0.10576,0.52395 -0.182716,0.85025 -0.07695,0.32629 -0.170639,0.63565 -0.286634,0.92865 -0.11601,0.2929 -0.24482,0.57336 -1.818514,3.2617 -1.573686,2.6883 -4.428551,7.85744 -4.920716,8.47066 -0.49217,0.61324 -0.920005,1.16364 -1.24051,1.5686 -0.32051,0.40494 -0.52775,0.66204 -0.550765,0.69494 -0.02301,0.0329 0.252869,-0.1836 -0.282255,0.2238 -0.535135,0.40743 -1.27433,1.1331 -2.305956,2.2403 -1.031614,1.10726 -2.338638,2.6371 -3.867344,4.64095 -1.52871,2.00385 -3.35726,4.47035 -3.506206,5.03895 -0.148954,0.5686 -0.147794,0.8568 -0.120468,1.1484 0.02732,0.2916 0.07647,0.58706 0.143294,0.88797 0.06684,0.30083 0.17845,0.69158 1.6573,4.28637 1.47884,3.59473 2.67006,5.70006 3.68477,7.18201 1.01472,1.48185 1.01472,1.48185 0.51891,0.41035 0,0 -0.44963,-2.3939 -1.355074,-5.33503 -0.905441,-2.94123 -1.976866,-6.6485 -2.004686,-6.83007 -0.02782,-0.1816 -0.05008,-0.38453 -0.05691,-0.5652 -0.0068,-0.18066 -5.1e-4,-0.33813 0.01365,-0.4721 0.01417,-0.134 -0.20998,0.3232 1.6572,-1.7991 1.86718,-2.1222 3.40802,-3.86765 4.5521,-5.26615 1.14408,-1.3985 1.956085,-2.3877 2.42339,-2.90601 0.46732,-0.51824 0.50295,-0.5379 0.75528,-0.75694 0.25233,-0.2191 0.40986,-0.4364 0.643344,-0.7836 0.233486,-0.34715 0.558906,-0.8374 0.976686,-1.47594 0.41778,-0.63861 1.01899,-1.58313 3.26585,-7.09631 2.24686,-5.51315 2.35476,-5.87815 2.422236,-6.23015 0.06747,-0.352 0.09838,-0.70845 0.09597,-1.067 -0.0024,-0.3586 -0.0411,-0.71866 -0.10075,-0.8987 -0.06952,-0.3594 -0.20061,-0.17225 -0.21048,-0.3516 z"
           id="path601"
           style="fill:#000000;fill-opacity:1;fill-rule:nonzero;stroke:#000000;stroke-width:1.73e-06;stroke-dasharray:none;stroke-opacity:1" />
      </g>
      <g
         style="fill:#000000;fill-opacity:1;fill-rule:nonzero;stroke:#000000;stroke-width:1.73e-06;stroke-linejoin:miter;stroke-dasharray:none;stroke-opacity:1"
         id="g607"
         transform="rotate(90,278.32182,810.53316)">
        <path
           d="m -61.75804,917.3846 c -0.396596,-0.1209 -1.172693,-0.4557 -1.967576,-1.13356 -0.794884,-0.67784 -1.636164,-1.72384 -2.533904,-3.15088 -0.89775,-1.42706 -1.849596,-3.24249 -2.42018,-4.4339 -0.57058,-1.19141 -0.70875,-1.57246 -0.87595,-2.15961 -0.1672,-0.58715 -0.36057,-1.3631 -0.56837,-2.3222 -0.20781,-0.95911 -0.43705,-2.09632 -0.62919,-3.28065 -0.19214,-1.18426 -0.37982,-2.3175 -0.52476,-3.2903 -0.14494,-0.97275 -0.26272,-1.78183 -0.3378,-2.42466 -0.07509,-0.64274 -0.11065,-1.11078 -0.16999,-1.69874 -0.05934,-0.58794 -0.151145,-1.18456 -0.23255,-1.67076 -0.0814,-0.48624 -0.15749,-0.86499 -0.21754,-1.15444 -0.06005,-0.2894 -0.14556,-0.55314 -1.2451,-2.8283 -1.09954,-2.27514 -3.44358,-6.662 -3.54368,-6.80767 -0.100095,-0.14569 -0.2214,-0.28633 -0.36235,-0.42493 -0.140936,-0.13855 -0.30117,-0.276 -0.4239,-0.3851 -0.122744,-0.10916 -0.122744,-0.10916 -0.04964,-0.0288 0,0 0.12005,0.1837 0.218606,0.3585 0.09855,0.1748 0.176324,0.3393 0.234779,0.49187 0.05844,0.15258 0.09658,0.29043 1.546829,5.03813 1.450266,4.7477 1.467226,4.7752 1.473191,4.8555 0.006,0.0802 0.03672,0.33824 0.0625,0.7262 0.02578,0.38786 0.05677,0.89634 0.08682,1.49937 0.03004,0.60303 0.007,0.95428 0.01028,1.55553 0.0033,0.60127 0.03478,1.34876 0.0888,2.25056 0.05403,0.90179 0.130976,1.96039 0.25589,3.20954 0.12492,1.2492 0.47735,2.57653 0.79117,3.671 0.31382,1.0945 0.60555,2.0214 0.877076,2.78554 0.27153,0.76416 0.527458,1.37359 0.765838,1.8222 0.238386,0.44861 1.467986,2.4715 2.666046,4.11686 1.19805,1.64535 2.34736,2.8942 3.45116,3.7338 1.10379,0.8396 2.147893,1.25835 2.65225,1.2484 0.927085,-0.0274 0.498523,-0.15106 0.92125,-0.1685 z"
           id="path605"
           style="fill:#000000;fill-opacity:1;fill-rule:nonzero;stroke:#000000;stroke-width:1.73e-06;stroke-dasharray:none;stroke-opacity:1" />
      </g>
      <g
         style="fill:#000000;fill-opacity:1;fill-rule:nonzero;stroke:#000000;stroke-width:1.73e-06;stroke-linejoin:miter;stroke-dasharray:none;stroke-opacity:1"
         id="g611"
         transform="rotate(90,278.32182,810.53316)">
        <path
           d="m 4.5073123,958.8668 c -0.5871513,-0.14506 -1.656445,-0.2416 -2.5873203,-0.34104 -0.93087545,-0.0994 -1.7229362,-0.22699 -2.3721672,-0.38111 -0.649231,-0.15411 -1.1511351,-0.3302 -2.8806571,-1.0921 -1.7295223,-0.7619 -4.3870573,-1.91425 -6.5153467,-2.87675 -2.128289,-0.96254 -3.720322,-1.7313 -4.737749,-2.30385 -1.017426,-0.57255 -1.365972,-0.84195 -1.707777,-1.18372 -0.341806,-0.34179 -0.667751,-0.6662 -1.151329,-1.22308 -0.483578,-0.55689 -1.091965,-1.33539 -1.807216,-2.32965 -0.715253,-0.9943 -1.539511,-2.19556 -2.061425,-2.9247 -0.521912,-0.7291 -0.429588,-0.6133 -0.612507,-1.1283 -0.182916,-0.51493 -0.472324,-1.4226 -0.853398,-2.68394 -0.38107,-1.26136 -0.855558,-2.86816 -1.092034,-3.4632 -0.236477,-0.59503 -0.240126,-0.56842 -0.241133,-0.56306 -0.001,0.005 0.0057,-0.0119 0.02557,-0.0516 0.01987,-0.0398 0.05609,-0.10006 0.07252,-0.0731 0.01643,0.0269 0.416601,-0.30296 0.779911,-0.63926 0.363308,-0.33627 0.68978,-0.6823 0.978669,-1.0441 0.288887,-0.36175 0.537689,-0.7446 0.792591,-1.2718 0.254902,-0.52714 0.495954,-1.08195 0.712589,-1.5963 0.216637,-0.51434 0.409008,-0.9887 0.577459,-1.4246 0.168452,-0.43587 0.313292,-0.8348 0.418587,-1.08315 0.105295,-0.24841 0.28179,-0.88505 0.340181,-1.50811 0.05839,-0.62304 0.05825,-1.32654 0.01411,-2.15344 -0.04414,-0.8269 -0.129864,-1.79084 -0.179772,-2.1659 -0.0499,-0.37506 -0.04803,-0.3871 -0.06269,-0.34564 -0.01466,0.0414 -0.06065,0.13004 -0.150654,0.24158 -0.09001,0.11156 -0.218197,0.21612 0.988288,6e-5 1.206484,-0.21607 4.029385,-0.86194 7.993537,-1.0755 3.9641505,-0.21357 6.4054185,-0.7456 8.234171,-1.14203 1.8287526,-0.39643 3.2516762,-0.69197 4.2589248,-0.88517 1.0072488,-0.19326 1.5650655,-0.2804 1.4440705,-0.29775 -0.1209953,-0.0172 0.6041857,0.0524 1.2710287,-0.19055 0.6668427,-0.243 1.0751274,-0.5602 1.4275277,-0.9203 0.3523998,-0.3601 0.7016133,-0.7814 0.9508867,-1.1371 0.2492736,-0.3557 -1.4617538,0.17824 -1.5857694,0.1321 -0.1240165,-0.0461 -0.2525065,-0.12427 -0.3560755,-0.2192 -0.103569,-0.0949 -0.1696529,-0.18394 -0.2188459,-0.292 -0.049193,-0.1082 0.6337644,1.979 1.2167297,3.7611 0.5829647,1.78214 1.0749537,3.24534 1.4440212,4.3957 0.3690682,1.1505 0.6206308,1.9776 0.7673265,2.5645 0.146696,0.5869 0.248048,0.745 0.313593,1.181 0.065544,0.43605 0.163153,1.45296 0.256063,2.9435 0.09291,1.4906 0.198585,3.4401 0.3087895,5.82556 0.1102045,2.38544 0.073,2.85864 6.205e-4,3.44544 -0.07238,0.5867 -0.176173,1.1578 -0.298917,1.7168 -0.122744,0.55895 -0.275138,1.1034 -0.438805,1.604 -0.163666,0.50066 -1.4822827,3.4259 -2.527138,5.8625 -1.0448545,2.43656 -1.81316,4.3657 -2.307305,5.78526 -0.4941448,1.41954 -0.7523665,2.30854 -0.8960742,2.67824 -0.1437078,0.3697 -0.1437078,0.3697 -0.03794,0.1278 0,0 0.2414207,-0.4699 0.8708749,-1.3902 0.6294541,-0.9203 1.5476343,-2.3388 2.7264098,-4.2715 1.178775,-1.9326 2.618391,-4.37975 3.574122,-6.1106 0.9557315,-1.73076 1.2083735,-2.3319 1.4277775,-2.9526 0.219403,-0.62075 0.410857,-1.25894 0.568121,-1.91555 0.157263,-0.65668 0.283745,-1.33035 0.37777,-3.03895 0.09403,-1.7086 0.137066,-3.9826 0.14499,-5.8158 0.0079,-1.8332 -0.02107,-3.23186 -0.07724,-4.2275 -0.05617,-0.9957 -0.193245,-1.7371 -0.265475,-2.00064 -0.07223,-0.26356 -0.241312,-0.99156 -0.50581,-1.99806 -0.264497,-1.00646 -0.631992,-2.31053 -1.110699,-3.9176 -0.4787055,-1.60704 -1.0943295,-3.5111 -1.5264145,-4.7698 -0.432085,-1.25875 -0.605488,-1.5592 -0.842618,-1.8412 -0.2371297,-0.282 -0.5363365,-0.52424 -0.87599,-0.70137 -0.3396534,-0.17713 -0.6940255,-0.28149 -1.9578385,0.32667 -1.2638135,0.6081 -1.547183,0.977 -1.7637708,1.22796 -0.2165877,0.25098 -0.3400991,0.36984 -0.2703884,0.33704 0.069711,-0.0328 0.5489843,-0.143 0.5012245,-0.17304 -0.04776,-0.03 -0.6825985,0.0195 -1.511676,0.16138 -0.8290774,0.14176 -2.02195045,0.37829 -3.6053245,0.71276 -1.5833743,0.3345 -3.5621613,0.7677 -6.5080083,1.10224 -2.9458485,0.33456 -7.0686825,0.56286 -10.1831255,1.2608 -3.114443,0.698 -3.908224,1.07126 -4.211968,1.35786 -0.303743,0.2866 -0.531554,0.61755 -0.683693,0.95825 -0.152139,0.34069 -0.242015,0.67665 -0.286583,1.14379 -0.04457,0.46716 0.06903,1.54181 0.134304,2.37086 0.06527,0.82903 0.09045,1.48144 0.08076,1.9341 -0.0097,0.4526 -0.03609,0.65903 -0.07164,0.71177 -0.03556,0.0527 -0.193924,0.49988 -0.326778,0.85743 -0.132856,0.35753 -0.292652,0.76384 -0.479044,1.2172 -0.186393,0.45344 -0.399102,0.9529 -0.627962,1.47597 -0.228863,0.52313 -0.279386,0.61193 -0.387627,0.76538 -0.108243,0.15345 -0.265013,0.33801 -0.472557,0.54725 -0.207544,0.2093 -0.466112,0.43883 -0.855846,0.7517 -0.389733,0.3129 -0.822579,0.8619 -0.958474,1.10327 -0.135893,0.24143 -0.252477,0.49768 -0.345188,0.77026 -0.09271,0.27257 -0.156906,0.5614 -0.149296,1.14427 0.0076,0.5829 0.580264,2.4684 1.075463,3.973 0.495197,1.50456 0.904015,2.67704 1.225565,3.53373 0.32155,0.85667 0.58484,1.44357 0.798446,1.74937 0.213606,0.3059 1.158059,1.583 2.039088,2.7211 0.881029,1.1381 1.66811,2.0808 2.356048,2.8435 0.687938,0.7627 1.291401,1.35565 1.725624,1.67566 0.434224,0.31994 0.710673,0.67174 1.669834,1.24084 0.95916,0.56903 2.345434,1.1789 4.241848,1.8944 1.896414,0.71547 4.3220355,1.53553 7.28656,2.4475 2.964524,0.91207 3.5105181,1.0812 4.2067086,1.1906 0.6961905,0.1093 1.4904956,0.14066 2.38852867,0.097 0.89803313,-0.0437 1.90234373,-0.16826 2.43455603,-0.35997 1.1089887,-0.23376 0.5219238,-0.33239 1.0987005,-0.37453 z"
           id="path609"
           style="fill:#000000;fill-opacity:1;fill-rule:nonzero;stroke:#000000;stroke-width:1.73e-06;stroke-dasharray:none;stroke-opacity:1" />
      </g>
      <g
         style="fill:#000000;fill-opacity:1;fill-rule:nonzero;stroke:#000000;stroke-width:1.73e-06;stroke-linejoin:miter;stroke-dasharray:none;stroke-opacity:1"
         id="g615"
         transform="rotate(90,278.32182,810.53316)">
        <path
           d="m -31.071869,958.5978 c -0.622389,-0.4562 -1.899189,-1.1362 -3.097748,-1.84414 -1.198553,-0.70786 -2.321053,-1.45426 -3.363128,-2.25781 -1.042075,-0.80355 -2.00544,-1.6662 -2.887415,-2.45471 -0.881975,-0.78844 -1.61886,-1.41404 -2.210596,-1.90854 -0.591736,-0.4944 -1.039341,-0.8586 -1.345742,-1.1001 -0.3064,-0.2415 -0.510632,-0.3866 -0.533237,-0.3941 -0.0226,-0.007 -0.125813,-0.0992 -0.220915,-0.18863 -0.09511,-0.0894 -0.18218,-0.17621 -0.25998,-0.26117 -0.0778,-0.085 -0.147042,-0.1672 -0.324227,-0.39026 -0.177183,-0.22304 -0.469727,-0.59224 -0.767313,-0.98779 -0.29758,-0.39555 -0.600108,-0.81745 -0.918646,-1.25965 -0.318534,-0.44226 -0.64914,-0.9074 -0.887674,-1.2529 -0.238528,-0.3455 -0.351283,-0.5403 -0.421897,-0.71115 -0.07061,-0.17085 -0.09895,-0.31965 -0.06487,-0.43921 0.03408,-0.11954 0.10707,-0.20724 0.18093,-0.25704 0.07386,-0.0498 0.07386,-0.0498 0.02462,-0.0166 0,0 -0.09848,0.0664 -0.158728,0.1647 -0.06025,0.0983 -0.08364,0.2284 -0.09369,0.3966 -0.01005,0.1683 0.01418,0.37757 0.07333,0.62616 0.05915,0.2486 0.245067,0.81314 0.440693,1.34954 0.195624,0.5365 0.403339,1.0449 0.623329,1.52455 0.21999,0.47965 0.443695,0.93548 0.673069,1.36265 0.229376,0.42726 0.298566,0.54354 0.378596,0.66634 0.08004,0.1228 0.166135,0.2475 0.258577,0.37426 0.09244,0.1268 0.191997,0.2552 0.32473,0.4097 0.132728,0.15445 0.232743,0.22025 0.368493,0.3593 0.135745,0.13897 0.431968,0.4477 0.86282,0.9076 0.43085,0.45994 0.999358,1.06346 1.696784,1.8363 0.697426,0.7729 1.783283,1.6463 2.953626,2.4277 1.170336,0.7815 2.413443,1.4627 3.72843,2.0374 1.314987,0.57456 2.701885,1.0331 3.460686,1.10623 1.462272,0.30867 0.803623,-0.0608 1.507095,0.17477 z"
           id="path613"
           style="fill:#000000;fill-opacity:1;fill-rule:nonzero;stroke:#000000;stroke-width:1.73e-06;stroke-dasharray:none;stroke-opacity:1" />
      </g>
      <g
         style="fill:#000000;fill-opacity:1;fill-rule:nonzero;stroke:#000000;stroke-width:1.73e-06;stroke-linejoin:miter;stroke-dasharray:none;stroke-opacity:1"
         id="g619"
         transform="rotate(90,278.32182,810.53316)">
        <path
           d="m -45.18223,940.38885 c 0.63337,1.07361 2.06608,2.74439 3.295687,4.18299 1.229606,1.4386 2.234123,2.66566 2.997183,3.68719 0.763067,1.02161 1.27272,1.82997 2.455507,1.40552 1.182789,-0.42445 1.0653,-0.67309 0.947067,-0.97325 -0.118236,-0.3002 -0.233147,-0.65193 -0.342504,-1.054 -0.109354,-0.4021 -0.21096,-0.8539 -0.28527,-1.7167 -0.07431,-0.8628 -0.127338,-2.1632 -0.148265,-3.2768 -0.02092,-1.1136 -0.01297,-2.0362 0.032,-2.75696 0.04497,-0.72084 0.117997,-1.22054 0.201249,-1.66284 0.08325,-0.44226 0.172515,-0.7839 0.321991,-1.1931 0.149474,-0.4092 0.358081,-0.8827 0.635551,-1.4121 0.27747,-0.52944 0.621643,-1.1125 0.857603,-1.48306 0.235953,-0.37048 0.318285,-0.48984 0.397833,-0.60199 0.07954,-0.11212 0.157654,-0.21635 0.234013,-0.31255 0.07636,-0.0963 0.151771,-0.18336 0.319156,-0.369 0.167382,-0.18576 0.548775,-0.5989 0.920845,-1.0187 0.372069,-0.4198 0.732947,-0.8483 1.078732,-1.28846 0.345783,-0.44014 0.68021,-0.88864 -0.118832,-2.60284 -0.799042,-1.7142 -1.676662,-1.99585 -2.454437,-2.331 -0.777775,-0.3351 -1.45712,-0.7284 -2.044907,-1.17944 -0.587793,-0.45096 -1.090313,-0.96206 -1.471463,-1.43139 -0.38115,-0.46943 -0.62199,-0.78777 -0.8268,-1.08397 -0.20481,-0.29616 -0.3701,-0.5709 -0.501267,-0.819 -0.131168,-0.2481 -0.231331,-0.467 -0.305618,-0.6417 -0.07428,-0.17463 -0.0738,-0.1557 -0.09882,-0.3528 -0.02502,-0.197 -0.04701,-0.5412 -0.05326,-1.0071 -0.0063,-0.4658 -0.0037,-1.0463 -0.01675,-1.58274 -0.01305,-0.53646 -0.06531,-0.76206 -0.155726,-0.99266 -0.09042,-0.23054 -0.239379,-0.4648 -0.470494,-0.67323 -0.231116,-0.20844 -0.530215,-0.34387 -0.93704,-0.36867 -0.406827,-0.0248 -0.83985,0.0701 -1.237424,0.2512 -0.397576,0.181 -0.760788,0.4386 -1.105786,0.7563 -0.344997,0.3178 -0.681068,0.6942 -0.932395,1.01534 -0.251332,0.32126 -0.455121,0.633 -0.650853,1.00576 -0.195732,0.37266 -0.392158,0.81266 -0.587962,1.3275 -0.1958,0.51477 -0.402783,1.1018 -0.63819,1.6841 -0.235403,0.5823 -0.55572,1.1866 -0.86066,1.7593 -0.304934,0.5727 -0.596137,1.1137 -0.87609,1.62263 -0.279953,0.50892 -0.552913,0.98371 -0.802543,1.28107 -0.249627,0.29736 -0.249627,0.29736 -0.08142,0.1006 0,0 0.34177,-0.38905 0.758834,-0.76625 0.41707,-0.3772 0.84479,-0.79779 1.28029,-1.26251 0.435504,-0.46474 0.872497,-0.97681 1.331973,-1.55334 0.459477,-0.5765 0.787369,-1.2158 1.056889,-1.7156 0.269524,-0.4998 0.513598,-0.91703 0.727066,-1.24974 0.213467,-0.3327 0.395192,-0.57466 0.547779,-0.73559 0.152588,-0.16097 0.480221,-0.48682 0.761326,-0.72254 0.281107,-0.23563 0.521633,-0.39863 0.713829,-0.48753 0.192198,-0.089 0.321522,-0.12434 0.410461,-0.1165 0.08894,0.008 -0.140813,-0.0278 -0.277298,-0.1051 -0.136482,-0.0772 -0.22118,-0.1662 -0.254885,-0.2159 -0.03371,-0.0497 -0.03908,-0.0456 -0.04019,-0.0631 -0.0011,-0.0175 -0.07749,0.61166 -0.130355,1.19091 -0.05287,0.57925 -0.08246,1.06531 -0.08819,1.47105 -0.0057,0.4058 0.02572,0.7594 0.09645,1.0257 0.07073,0.2664 0.141747,0.54164 0.27813,0.9125 0.13638,0.3709 0.310405,0.74676 0.51477,1.133 0.20437,0.3862 0.440857,0.78344 0.7066,1.19146 0.265744,0.40808 0.798005,1.17761 1.490704,1.91198 0.692696,0.73446 1.496456,1.38172 2.403556,1.94006 0.907098,0.55836 1.912587,1.0291 2.611764,1.1835 0.699173,0.1544 0.218146,-1.7434 -0.101372,-1.3656 -0.319522,0.37785 -0.651902,0.7439 -0.991158,1.1031 -0.339254,0.3593 -0.685784,0.71206 -1.064102,1.0734 -0.378322,0.3613 -0.591968,0.58117 -0.708168,0.7335 -0.116199,0.15236 -0.230087,0.3096 -0.3414,0.4723 -0.111314,0.16266 -0.220354,0.33106 -0.330002,0.5139 -0.109646,0.18294 -0.510715,0.89315 -0.858442,1.5853 -0.347723,0.6921 -0.636232,1.3515 -0.861185,1.9844 -0.224955,0.6329 -0.382153,1.24447 -0.461449,1.7767 -0.0793,0.5322 -0.168096,1.06005 -0.208566,1.82903 -0.04047,0.76907 -0.01536,1.67537 0.05175,2.73743 0.06711,1.06207 0.193279,2.28619 0.368962,3.70129 0.175677,1.4151 0.355632,2.08955 0.520644,2.58979 0.165016,0.50026 0.341278,0.96069 0.529381,1.38299 0.188103,0.42227 0.394225,0.80557 1.681419,0.49087 1.28719,-0.31466 0.777321,-1.0929 0.01189,-2.0148 -0.765431,-0.9219 -1.777401,-1.9699 -3.048245,-3.15 -1.270843,-1.1802 -2.817062,-2.48177 -3.811485,-3.0365 -1.871471,-1.37044 -1.090565,-0.4513 -1.967615,-1.26705 z"
           id="path617"
           style="fill:#000000;fill-opacity:1;fill-rule:nonzero;stroke:#000000;stroke-width:1.73e-06;stroke-dasharray:none;stroke-opacity:1" />
      </g>
      <g
         style="fill:#000000;fill-opacity:1;fill-rule:nonzero;stroke:#000000;stroke-width:1.73e-06;stroke-linejoin:miter;stroke-dasharray:none;stroke-opacity:1"
         id="g623"
         transform="rotate(90,278.32182,810.53316)">
        <path
           d="m -44.23637,923.6444 c 0.106132,-0.3999 0.184353,-1.1302 0.2551,-1.7667 0.07074,-0.6365 0.15041,-1.17854 0.23224,-1.6238 0.08182,-0.4452 0.178843,-0.78765 0.259543,-1.027 0.0807,-0.23935 0.133817,-0.39365 0.183687,-0.5271 0.04987,-0.13333 0.09598,-0.24484 0.13717,-0.3326 0.04119,-0.0878 0.0753,-0.1499 0.155202,-0.26063 0.07991,-0.11077 0.246773,-0.35567 0.413716,-0.60947 0.166942,-0.25394 0.336152,-0.51565 0.503528,-0.78744 0.167374,-0.27179 0.33197,-0.55416 0.731594,-1.16386 0.399624,-0.6097 1.023423,-1.53567 1.501732,-2.4223 0.478308,-0.8867 0.915791,-1.672 1.316105,-2.35293 0.400313,-0.68091 0.755473,-1.26237 0.958107,-1.56513 0.202629,-0.30264 0.279953,-0.40914 0.369072,-0.52429 0.08911,-0.11525 0.190294,-0.23885 0.304077,-0.36955 0.113781,-0.13075 0.24004,-0.2682 0.166337,-0.58437 -0.07371,-0.31613 -0.07371,-0.31613 -0.150662,-0.25018 0,0 -0.532173,-0.30231 -0.694233,-0.18201 -0.162055,0.12036 -0.312958,0.23896 -0.45298,0.35633 -0.140019,0.11733 -0.267555,0.23543 -0.386695,0.35633 -0.119138,0.1209 -0.548864,0.6019 -1.031434,1.18114 -0.482571,0.57926 -1.005211,1.25836 -1.570732,2.03601 -0.565518,0.77759 -1.178021,1.65175 -1.720459,2.69635 -0.542443,1.0446 -0.689675,1.38373 -0.815331,1.66364 -0.125656,0.27986 -0.244214,0.55481 -0.36689,0.81886 -0.12268,0.26396 -0.247146,0.51824 -0.378837,0.77446 -0.131687,0.25624 -0.202355,0.4162 -0.243827,0.54657 -0.04148,0.13037 -0.07803,0.27207 -0.111695,0.42747 -0.03366,0.1554 -0.06517,0.3257 -0.09409,0.50796 -0.02892,0.18219 -0.08759,0.54474 -0.111935,1.00294 -0.02435,0.4582 -0.01026,0.9864 0.04584,1.58934 0.0561,0.60303 0.160606,1.28256 0.296287,1.64466 0.15955,0.75585 0.2766,0.35363 0.300465,0.7473 z"
           id="path621"
           style="fill:#000000;fill-opacity:1;fill-rule:nonzero;stroke:#000000;stroke-width:1.73e-06;stroke-dasharray:none;stroke-opacity:1" />
      </g>
    </g>
  </g>
</svg>
