<?xml version="1.0" encoding="UTF-8" standalone="no"?>
<!-- Created with Inkscape (http://www.inkscape.org/) -->

<svg
   width="268.67789em"
   height="268.67789em"
   viewBox="0 0 268.67789 268.67789"
   version="1.1"
   id="svg5"
   xml:space="preserve"
   xmlns="http://www.w3.org/2000/svg"
   xmlns:svg="http://www.w3.org/2000/svg"><defs
     id="defs2" /><g
     id="layer1"
     transform="translate(698.98578,-96.230759)"><g
       id="g53483"><rect
         style="display:inline;fill:none;fill-opacity:1;stroke:none;stroke-width:5.29167;stroke-dasharray:none;stroke-opacity:1"
         id="rect53351"
         width="268.67789"
         height="268.67789"
         x="-698.98578"
         y="96.230759" /><g
         id="g52917"
         transform="matrix(2.4642518,0,0,2.4642518,-3747.5859,-739.14909)"><g
           style="fill:#000000;fill-opacity:1;stroke-linejoin:miter"
           id="g51032"
           transform="matrix(0.0212301,0.88760364,-0.82571352,0.02282136,2056.9295,403.92004)"><path
             d="m -57.373653,968.0827 c -0.40329,-0.31524 -1.333985,-0.8026 -2.374363,-1.28924 -1.040379,-0.48666 -2.192864,-0.95656 -3.453007,-1.4173 -1.260147,-0.46076 -2.628497,-0.90436 -3.363047,-1.15206 -0.734545,-0.2477 -0.9445,-0.3468 -1.16257,-0.45457 -0.21808,-0.10779 -0.44397,-0.22483 -0.677054,-0.35313 -0.233086,-0.12825 -0.472866,-0.26827 -0.712336,-0.47255 -0.23948,-0.20435 -0.59261,-0.55845 -0.88448,-0.92072 -0.29187,-0.36223 -0.52438,-0.73993 -0.70524,-1.13833 -0.18087,-0.39835 -0.31427,-0.8234 -0.448486,-1.2053 -0.134209,-0.3819 0.02565,0.2454 0.07086,0.18036 0.04522,-0.0651 0.183284,-0.45866 0.428139,-1.06206 0.244855,-0.6034 0.594105,-1.389 0.823815,-1.89717 0.2297,-0.50813 0.07436,-0.15393 0.19473,-0.26757 0.12038,-0.11356 0.419306,-0.41656 0.86965,-0.84056 0.45035,-0.42403 1.04163,-0.95675 1.76692,-1.7058 0.725294,-0.7491 1.215574,-1.3052 1.62723,-1.78213 0.41166,-0.47697 0.74779,-0.87957 1.01393,-1.22647 0.266126,-0.34684 0.48974,-0.6768 0.50542,-0.6661 0.01568,0.0107 0.453554,-0.6777 0.79764,-1.3545 0.34409,-0.6769 0.759754,-1.5667 1.273757,-2.7184 0.514003,-1.15166 1.131249,-2.5757 1.481999,-3.36486 0.35075,-0.78918 0.311674,-0.98854 0.322534,-1.03214 0.01085,-0.0437 -0.07747,0.0702 -0.55634,0.47587 -0.478875,0.40573 -2.28912,0.84633 -3.6269,0.16113 -1.337784,-0.68524 -0.92784,-0.13055 -0.3979,0.36884 0.52995,0.49936 1.17398,0.89976 1.885586,1.1502 0.711604,0.25036 1.433048,0.3443 2.564796,0.3053 1.131744,-0.039 2.612076,-0.15554 3.849495,-0.26617 1.237415,-0.11067 2.242433,-0.23181 3.055599,-0.35651 0.813168,-0.12469 1.548062,-0.31219 1.274586,-0.32106 -0.273472,-0.009 -0.549822,-0.0376 -0.947388,-0.1694 -0.397564,-0.1318 -0.862794,-0.4382 -1.226614,-0.902 -0.36383,-0.4638 -0.53826,-0.94683 -0.567667,-1.3972 -0.02941,-0.4503 0.0026,-0.6189 -0.03417,-0.38154 -0.03675,0.23734 -0.12126,0.6784 -0.24706,1.2904 -0.1258,0.612 -0.291418,1.3888 -0.481577,2.15924 -0.190153,0.77045 -0.435676,1.62745 -0.658798,2.50293 -0.223121,0.87557 -0.436992,1.76487 -0.653245,2.66467 -0.21625,0.89985 -0.41186,1.8174 -0.590018,2.9337 -0.178162,1.1163 -0.312839,2.1879 -0.432662,3.0854 -0.11983,0.89753 -0.224294,1.6194 -0.30706,2.16175 -0.08277,0.54235 -0.142293,0.89295 -0.183828,1.14425 -0.04153,0.2513 -0.04832,0.3843 -0.197592,0.95787 -0.149278,0.57363 -0.416913,1.47979 -0.78168,2.70853 -0.364764,1.2288 -0.821455,2.7791 -1.107127,3.7944 -0.285667,1.01525 -0.340225,1.25805 -0.392983,1.4766 -0.05276,0.2186 -0.07764,0.4229 -0.07464,0.6129 0.003,0.19 0.03386,0.36563 0.07095,0.4902 0.03709,0.12464 0.03709,0.12464 0.01236,0.0416 0,0 -0.04945,-0.16617 -0.07103,-0.34665 -0.02158,-0.18042 -0.01528,-0.37515 0.0189,-0.58425 0.03417,-0.209 0.09622,-0.43235 0.218344,-0.65494 0.122126,-0.2226 1.17362,-1.73306 2.013704,-2.98886 0.840086,-1.2557 1.47805,-2.25345 1.924776,-2.9954 0.446726,-0.74194 0.71918,-1.24536 0.805876,-1.4964 0.08669,-0.25103 0.18771,-0.4151 0.377216,-0.87524 0.189508,-0.46016 0.414688,-1.07062 0.684342,-1.84026 0.269653,-0.76966 0.585831,-1.701 0.942306,-2.7675 0.356476,-1.0665 0.67453,-1.8562 1.000233,-2.69253 0.325707,-0.83627 0.65308,-1.65601 0.995651,-2.45471 0.342566,-0.79871 0.690186,-1.57946 1.048073,-2.39991 0.357893,-0.82045 0.695493,-1.77191 0.948913,-2.48875 0.253426,-0.7168 0.4499,-1.2882 0.592194,-1.7264 0.142292,-0.43817 0.238114,-0.78436 0.263176,-1.4128 0.02506,-0.62846 -0.03571,-0.9417 -0.320564,-1.5229 -0.284856,-0.58126 -0.773696,-1.0808 -1.316612,-1.37094 -0.542919,-0.29016 -1.021359,-0.40066 -1.739074,-0.35772 -0.717713,0.0429 -0.902757,0.10356 -1.1802,0.11236 -0.27744,0.009 -0.94677,0.0301 -1.91376,0.0169 -0.966992,-0.0133 -2.20989,-0.0442 -3.714948,-0.1008 -1.505058,-0.0567 -1.475672,-0.0703 -1.283767,-0.0435 0.19191,0.0268 0.409395,0.1079 0.584825,0.22066 0.17543,0.1128 0.282183,0.20984 0.20436,0.0392 -0.07782,-0.17065 -2.948582,-1.74555 -4.32844,-1.19195 -1.37986,0.55364 -1.78983,1.0197 -2.02189,1.36706 -0.23205,0.34734 -0.41161,0.66321 -0.65661,1.06784 -0.245006,0.4047 -0.77698,2.0861 -1.20954,3.422 -0.43256,1.336 -0.78041,2.36667 -1.03372,3.07205 -0.25332,0.70538 -0.378135,1.02595 -0.34095,0.96435 0.03719,-0.0615 -0.26455,0.4238 -0.3478,0.5731 -0.08326,0.1493 -0.26998,0.4483 -0.536316,0.86404 -0.266344,0.41566 -0.610874,0.93676 -0.973464,1.48523 -0.362596,0.54843 -0.88233,1.13213 -1.40662,1.74943 -0.524274,0.6173 -0.953176,1.13027 -1.296445,1.5709 -0.343275,0.44065 -0.633445,0.88975 -0.813215,1.31236 -0.17978,0.42264 -0.45815,1.37754 -0.70708,2.25708 -0.24892,0.87956 -0.42815,1.62579 -0.53912,2.2904 -0.110965,0.66466 -0.12831,1.38782 0.05144,1.99012 0.17975,0.60224 0.41178,1.11779 0.81913,1.82144 0.40735,0.7037 0.89305,1.3453 1.45096,1.918 0.557915,0.5727 1.181466,1.07306 1.87573,1.4978 0.69426,0.42474 1.16292,0.62695 1.47609,0.742 0.31318,0.115 0.62059,0.2197 0.92283,0.31397 0.30224,0.0942 0.60039,0.17393 0.9613,0.26007 0.360906,0.0861 1.85775,0.2204 3.21741,0.362 1.35967,0.14166 2.625742,0.27516 3.795656,0.41946 1.169911,0.14426 2.248584,0.2885 2.780628,0.2924 0.984496,0.1681 0.680489,-0.4053 1.132943,-0.2411 z"
             id="path51030" /></g><g
           style="fill:#000000;fill-opacity:1;stroke-linejoin:miter"
           id="g51036"
           transform="matrix(0.0212301,0.88760364,-0.82571352,0.02282136,2056.9295,403.92004)"><path
             d="m -61.18787,918.8912 c 1.612137,-0.7815 4.154114,-2.65237 6.284756,-4.3513 2.130644,-1.6989 3.886528,-3.19035 5.29882,-4.45164 1.412296,-1.26129 2.491516,-2.29916 2.382752,-4.72496 -0.108761,-2.4258 -0.180161,-2.517 -0.205544,-2.595 -0.02538,-0.0779 -0.04314,-0.1847 -0.05268,-0.38115 -0.0095,-0.19645 0.01121,-0.50815 0.04796,-0.73955 0.03675,-0.2314 0.08362,-0.47084 0.133325,-0.6912 0.0497,-0.22025 0.105455,-0.4201 0.162277,-0.5993 0.05682,-0.1792 0.11401,-0.3373 1.035788,-2.89445 0.921774,-2.55715 2.67047,-7.58332 2.94615,-8.78101 0.27568,-1.19764 0.472336,-2.18604 0.619274,-3.10071 0.146938,-0.91473 0.242246,-1.76446 0.279846,-2.56753 0.0376,-0.803 0.01278,-1.51114 -0.0702,-2.0693 -0.08299,-0.5582 -0.278682,-1.19306 -0.695358,-1.90675 -0.416672,-0.71368 -1.152764,-1.41065 -2.126637,-1.83525 -0.973873,-0.42463 -2.397987,-0.45314 -3.555034,-0.30147 -1.157053,0.15174 -2.209863,0.26657 -3.21679,0.44373 -1.006931,0.17719 -1.982246,0.33114 -2.926818,0.45054 -0.944573,0.11947 -2.181561,0.22567 -3.45031,0.52676 -1.268745,0.30104 -2.381185,0.59114 -3.449195,0.88787 -1.06801,0.29677 -2.0916,0.60022 -3.06829,0.92097 -0.9767,0.3208 -1.90227,0.6251 -2.51779,0.8437 -0.61552,0.21855 -1.15615,0.4435 -1.66071,0.6895 -0.50455,0.246 -1.061255,0.5986 -1.80389,1.72107 -0.74263,1.12237 -0.7509,1.41523 -0.72628,1.25433 0.02462,-0.1609 -0.0497,0.1169 -0.10232,0.40845 -0.05261,0.29155 -0.07896,0.59575 -0.07561,0.90775 0.0033,0.31203 0.140535,1.12545 0.307054,1.5393 0.166526,0.41385 0.274842,0.6879 0.347611,0.8947 0.07277,0.2068 0.113745,0.33146 0.125945,0.33494 0.0122,0.003 0.01415,-0.0528 0.13926,1.42136 0.125114,1.4742 0.26659,2.8099 0.424995,3.9993 0.158405,1.1893 0.337065,2.23663 0.550055,3.1489 0.21299,0.9123 0.43283,1.6187 0.58907,2.1469 0.15623,0.5282 0.32112,1.06003 0.5,1.5749 0.17888,0.515 0.36856,1.01345 0.57197,1.4943 0.20342,0.4808 0.43756,0.99864 1.48414,2.99205 1.04659,1.99335 1.92043,3.62025 2.61557,4.89245 0.695146,1.27216 1.196237,2.1939 1.479,2.7605 0.282766,0.56666 0.36132,0.8283 0.613844,1.38685 0.252521,0.55859 0.430926,1.07425 0.538056,1.5675 0.107124,0.49325 0.115268,0.96271 0.0496,1.29275 -0.06567,0.33006 -0.06567,0.33006 -0.02189,0.11 0,0 0.08756,-0.44004 0.174511,-0.9241 0.08695,-0.4841 0.1255,-1.02754 0.101036,-1.6292 -0.02446,-0.6017 -0.105056,-1.22426 -0.144958,-1.6423 -0.0399,-0.4181 -0.187944,-1.22296 -0.449417,-2.4016 -0.261475,-1.1787 -0.643557,-2.7338 -1.184532,-4.6515 -0.540975,-1.9178 -1.212935,-4.18994 -1.30085,-4.59423 -0.08791,-0.40437 -0.181475,-0.84912 -0.269699,-1.30811 -0.08823,-0.45906 -0.172866,-0.93213 -0.251992,-1.42006 -0.07913,-0.48784 -0.150214,-1.02965 -0.222519,-1.6924 -0.0723,-0.6628 -0.109069,-1.46865 -0.129635,-2.44564 -0.02056,-0.97706 -0.0098,-2.12116 0.03474,-3.42776 0.04453,-1.30656 0.1227,-2.7955 0.1001,-3.16087 -0.02259,-0.36533 -0.07742,-0.72333 -0.15085,-1.07673 -0.07344,-0.3534 -0.16495,-0.725 -0.27019,-1.1302 -0.10524,-0.4052 -0.17683,-0.68705 -0.11279,-0.3319 0.06403,0.3551 0.06677,0.4523 0.06152,0.5352 -0.0052,0.0828 -0.01444,0.1479 -0.02284,0.19455 -0.0084,0.0465 0.220185,-0.77362 -0.12992,-0.0363 -0.350105,0.7373 -0.79355,1.15656 -0.822334,1.1983 -0.02879,0.0418 0.196184,-0.0202 0.592468,-0.1192 0.396276,-0.0989 0.948576,-0.2414 1.839741,-0.43914 0.891163,-0.1977 1.8251,-0.38276 2.805865,-0.56446 0.980763,-0.18174 2.00955,-0.35468 3.086274,-0.51854 1.076729,-0.16396 1.977978,-0.28414 2.89029,-0.29683 0.912316,-0.0127 2.014404,-0.0569 3.150154,-0.0853 1.135752,-0.0284 2.279792,-0.2376 3.448272,-0.46936 1.16848,-0.23184 2.221188,-0.48394 1.293106,-0.60084 -0.928081,-0.1168 -1.616586,-0.5199 -2.039558,-1.0025 -0.422968,-0.4826 -0.592915,-0.8539 -0.637886,-1.047 -0.04497,-0.1931 -0.03678,-0.22326 0.0068,0.1401 0.04353,0.3634 0.06007,0.85893 0.042,1.4974 -0.01807,0.6385 -0.07424,1.4076 -0.170326,2.2978 -0.09609,0.8902 -0.172093,1.64015 -1.372651,6.73555 -1.200557,5.09545 -1.265177,5.37732 -1.324047,5.68265 -0.05887,0.3054 -0.107845,0.6182 -0.149704,0.9387 -0.04186,0.3204 -0.0779,0.6493 -0.113826,1.08763 -0.03592,0.43842 0.0033,1.31372 0.18117,2.17627 0.17784,0.86255 0.500478,1.68555 0.99565,2.4242 0.495173,0.73864 1.148062,1.3417 1.196066,0.328 0.048,-1.01373 -0.09965,-1.10626 -1.032416,0.1017 -0.932767,1.208 -2.17199,2.7438 -3.698114,4.6109 -1.526126,1.86705 -3.322896,4.0769 -4.098986,5.51494 -2.003076,2.61761 -0.474458,1.75186 -1.70144,2.93136 z"
             id="path51034" /></g><g
           style="fill:#000000;fill-opacity:1;stroke-linejoin:miter"
           id="g51040"
           transform="matrix(0.0212301,0.88760364,-0.82571352,0.02282136,2056.9295,403.92004)"><path
             d="m -65.72447,931.0002 c -0.04959,0.17576 -0.10595,0.51286 -0.18601,0.83085 -0.08004,0.31805 -0.18294,0.61705 -0.30772,0.89759 -0.12478,0.28052 -0.270745,0.54321 -1.97609,3.156 -1.70534,2.61276 -4.794594,7.64846 -5.28422,8.19391 -0.48962,0.54545 -0.94074,1.0763 -1.27564,1.46505 -0.3349,0.3887 -0.548,0.62815 -0.520066,0.5929 0.02793,-0.0353 0.488442,-0.3858 -0.164244,0.0923 -0.65268,0.47809 -1.43915,1.21588 -2.52379,2.30234 -1.08463,1.08645 -2.311165,2.6973 -3.76512,4.76974 -1.45396,2.07246 -3.2114,4.62671 -3.416856,5.3855 -0.20546,0.75876 -0.191849,1.08386 -0.151558,1.40626 0.04029,0.3224 0.104744,0.64306 0.191014,0.96355 0.08627,0.32055 0.229724,0.76471 1.91748,4.29165 1.68777,3.52696 3.01963,5.57597 4.023624,7.06284 1.004006,1.48686 1.004006,1.48686 0.508196,0.41536 0,0 -0.471056,-2.3839 -1.18834,-5.3914 -0.717294,-3.00754 -1.60655,-6.77414 -1.60768,-6.9202 -0.0011,-0.14605 -0.0061,-0.3273 0.0017,-0.48095 0.0078,-0.15365 0.02614,-0.27838 0.05167,-0.37329 0.02554,-0.0949 -0.32192,0.70134 1.624535,-1.33836 1.946449,-2.0398 3.549355,-3.72524 4.701599,-5.10085 1.152246,-1.37561 1.922376,-2.37115 2.322816,-2.85705 0.40043,-0.486 0.28744,-0.4168 0.67955,-0.75733 0.39211,-0.34057 0.5566,-0.58533 0.781974,-0.94873 0.225376,-0.36334 0.532372,-0.87128 0.925696,-1.52979 0.39332,-0.65855 1.02525,-1.71825 3.026575,-7.36095 2.001325,-5.64265 2.1026,-6.0332 2.157119,-6.40064 0.05452,-0.36746 0.07663,-0.7356 0.06723,-1.10376 -0.0094,-0.3681 -0.04951,-0.73597 -0.109256,-0.9215 -0.06961,-0.36494 -0.494324,-0.1617 -0.504194,-0.341 z"
             id="path51038" /></g><g
           style="fill:#000000;fill-opacity:1;stroke-linejoin:miter"
           id="g51044"
           transform="matrix(0.0212301,0.88760364,-0.82571352,0.02282136,2056.9295,403.92004)"><path
             d="m -61.76412,917.23773 c -0.374277,-0.12018 -1.10523,-0.46277 -1.839403,-1.16373 -0.734177,-0.70095 -1.502571,-1.7701 -2.314677,-3.2221 -0.81211,-1.452 -1.656515,-3.2991 -2.16714,-4.49515 -0.51062,-1.19605 -0.60587,-1.53945 -0.738925,-2.10625 -0.133045,-0.56685 -0.28701,-1.3338 -0.451475,-2.2892 -0.164476,-0.9553 -0.345094,-2.0925 -0.59401,-3.21875 -0.24892,-1.12622 -0.474015,-2.24955 -0.654374,-3.21165 -0.180366,-0.9622 -0.330616,-1.75935 -0.441926,-2.3868 -0.11131,-0.62744 -0.17675,-1.0744 -0.26535,-1.68475 -0.0886,-0.61029 -0.21006,-1.20721 -0.314865,-1.69555 -0.104805,-0.48835 -0.193935,-0.8731 -0.272965,-1.17615 -0.07903,-0.3031 -0.183776,-0.61548 -1.43272,-2.83685 -1.24895,-2.2214 -3.81872,-6.51704 -3.914905,-6.6519 -0.09618,-0.13485 -0.188955,-0.28365 -0.301775,-0.4369 -0.11282,-0.15333 -0.24568,-0.3111 -0.35534,-0.43165 -0.109654,-0.12061 -0.109654,-0.12061 -0.03655,-0.0403 0,0 0.14621,0.1608 0.272385,0.3171 0.126185,0.15625 0.232325,0.30805 0.307445,0.4609 0.07512,0.1528 0.11627,0.3036 1.30805,5.15605 1.19178,4.85241 1.201156,4.86925 1.18872,4.91601 -0.01243,0.0467 -0.0021,0.29584 0.0068,0.67924 0.0089,0.38344 0.01387,0.89065 0.01158,1.4831 -0.0023,0.59254 -0.04884,0.9198 -0.07537,1.5397 -0.02652,0.61986 -0.03776,1.3819 -0.02273,2.2957 0.01503,0.9138 0.06665,1.9816 0.09378,3.2717 0.02712,1.2901 0.42416,2.6616 0.7847,3.75723 0.36053,1.09567 0.69413,2.02771 1.000576,2.80494 0.306454,0.77723 0.600234,1.41013 0.876544,1.88909 0.2763,0.47901 1.5929,2.46954 2.88321,4.09104 1.29031,1.6215 2.533825,2.8365 3.70631,3.65335 1.172486,0.81685 2.27351,1.21175 2.8116,1.19825 0.960812,-0.0309 0.520096,-0.4483 0.94282,-0.46577 z"
             id="path51042" /></g><g
           style="fill:#000000;fill-opacity:1;stroke-linejoin:miter"
           id="g51048"
           transform="matrix(0.0212301,0.88760364,-0.82571352,0.02282136,2056.9295,403.92004)"><path
             d="m 4.4965973,958.72015 c -0.5854836,-0.14855 -1.6514599,-0.2763 -2.5736258,-0.42475 -0.9221659,-0.1485 -1.69749911,-0.3127 -2.318196,-0.49975 -0.620697,-0.18705 -1.0762846,-0.39175 -2.7666369,-1.23242 -1.6903526,-0.8407 -4.2988766,-2.10243 -6.3777416,-3.15003 -2.078865,-1.04754 -3.620218,-1.8637 -4.563892,-2.4376 -0.943674,-0.5739 -1.119199,-0.7477 -1.472506,-1.12953 -0.353307,-0.38184 -0.587634,-0.65552 -1.017078,-1.18323 -0.429441,-0.52764 -0.981961,-1.30474 -1.653188,-2.29968 -0.671227,-0.995 -1.434548,-2.21586 -1.954836,-2.98889 -0.520289,-0.77307 -0.246027,-0.38013 -0.387062,-0.83767 -0.141033,-0.45756 -0.395515,-1.34995 -0.731659,-2.6102 -0.336144,-1.2603 -0.749071,-2.8763 -0.902856,-3.1463 -0.153781,-0.27 -0.170493,-0.1008 -0.197562,0.033 -0.02707,0.13374 -0.05512,0.22926 -0.07395,0.287 -0.01884,0.0577 -0.02253,0.0807 -0.194796,0.3417 -0.172266,0.26096 0.291474,-0.0926 0.725523,-0.46676 0.43405,-0.37424 0.838574,-0.77594 1.212224,-1.21711 0.373649,-0.44123 0.711557,-0.93298 1.043979,-1.56093 0.332422,-0.62785 0.605799,-1.1836 0.846424,-1.70603 0.240626,-0.5224 0.455732,-1.00967 0.653734,-1.46177 0.198,-0.4521 0.372403,-0.8754 0.479811,-1.0964 0.107409,-0.221 0.396935,-1.21814 0.490996,-2.0205 0.09406,-0.8024 0.124443,-1.6056 0.108241,-2.4994 -0.0162,-0.8938 -0.07044,-1.906 -0.0959,-2.0049 -0.02546,-0.0989 -0.05178,0.0811 -0.13641,0.35335 -0.08463,0.27215 -0.260471,0.62275 -0.555969,0.99811 -0.295498,0.37534 -0.698044,0.70924 0.08939,0.73534 0.787432,0.0261 3.389573,-0.45305 7.321343,-0.7967 3.931771,-0.34367 6.595712,-1.01414 8.3985485,-1.48204 1.80283627,-0.46789 3.1960686,-0.82896 4.1650281,-1.05716 0.9689595,-0.22824 1.4434321,-0.33505 0.9732601,-0.38156 -0.4701719,-0.0465 0.8297701,0.0633 1.968776,-0.35204 1.1390063,-0.4152 1.7244093,-0.88605 2.1591173,-1.3484 0.434708,-0.4624 0.8223195,-0.9539 0.974203,-1.2376 0.151882,-0.2837 -3.2240743,0.7087 -3.560244,0.5782 -0.3361697,-0.1306 -0.6670728,-0.33876 -0.937209,-0.59505 -0.270136,-0.25629 -0.4560653,-0.51775 -0.5969557,-0.83099 -0.1408903,-0.31326 0.6418271,1.7268 1.3048995,3.47594 0.6630725,1.74915 1.2024078,3.18775 1.6063675,4.3124 0.4039597,1.1247 0.6699907,1.9209 0.8440891,2.52245 0.1740989,0.60155 0.2790713,0.74865 0.3426236,1.05675 0.063553,0.3081 0.1843224,1.2898 0.338398,2.7619 0.1540757,1.4721 0.3243952,3.41175 0.532615,5.78144 0.20822,2.36976 0.197467,2.74986 0.146875,3.31516 -0.05059,0.5653 -0.118885,1.1191 -0.2085083,1.66244 -0.089623,0.54336 -0.2011897,1.07726 -0.3190632,1.5561 -0.1178732,0.47886 -1.2917645,3.4699 -2.1893521,5.98193 -0.8975874,2.51203 -1.5542302,4.49753 -1.9962549,5.94189 -0.4420245,1.4444 -0.8150427,2.27724 -0.9736935,2.64004 -0.158651,0.3628 -0.158651,0.3628 -0.052884,0.1209 0,0 0.2115345,-0.4837 0.7972447,-1.42616 0.5857104,-0.94244 1.580822,-2.32318 2.885598,-4.19184 1.304776,-1.86864 2.898588,-4.2365 3.9546243,-5.95116 1.056036,-1.7146 1.34438,-2.32587 1.603301,-2.95854 0.258921,-0.6327 0.47841,-1.2887 0.664254,-1.96456 0.185845,-0.6759 0.334241,-1.37134 0.501003,-3.13874 0.166764,-1.7674 0.28681,-4.04833 0.359923,-5.89373 0.07311,-1.84547 0.100713,-3.26647 0.06272,-4.31403 -0.03799,-1.04754 -0.192243,-1.97624 -0.241926,-2.20584 -0.04968,-0.2297 -0.205434,-1.0072 -0.439819,-2.0448 -0.234386,-1.03756 -0.577854,-2.36184 -0.998752,-3.996 -0.420899,-1.6342 -0.944576,-3.5746 -1.373816,-4.97815 -0.4292403,-1.40365 -0.6919683,-1.8717 -1.0649493,-2.32415 -0.37298,-0.45246 -0.853465,-0.84894 -1.4008575,-1.1411 -0.5473925,-0.2922 -1.1130071,-0.4653 -3.3176699,0.4732 -2.2046626,0.9384 -2.4660436,1.2491 -2.6319685,1.421 -0.1659248,0.1719 -0.1877479,0.17414 0.134767,-0.0305 0.3225149,-0.20466 1.4176249,-0.4694 1.4381255,-0.50764 0.020501,-0.0383 -0.8744516,0.009 -1.7682456,0.12354 -0.89379396,0.11407 -2.1171566,0.31646 -3.7298373,0.57824 -1.6126809,0.26176 -3.6143787,0.6319 -6.3810327,0.81346 -2.7666527,0.1816 -7.0899627,0.3172 -10.3184547,1.1516 -3.228491,0.83444 -4.853042,1.58584 -5.409393,2.1163 -0.556348,0.5305 -0.964287,1.1307 -1.224775,1.724 -0.260489,0.59326 -0.403458,1.14746 -0.465538,1.9619 -0.06208,0.8145 0.107241,1.9389 0.199928,2.7145 0.09269,0.7756 0.150393,1.35284 0.169615,1.6848 0.01922,0.3319 0.03687,0.32136 0.07484,0.1614 0.03797,-0.16 -0.150196,0.40684 -0.253471,0.7429 -0.103277,0.3361 -0.23357,0.7285 -0.397167,1.1706 -0.163597,0.4421 -0.351181,0.9351 -0.53742,1.43695 -0.18624,0.50189 -0.134642,0.43078 -0.154974,0.48565 -0.02033,0.0549 -0.09429,0.1689 -0.22622,0.3287 -0.131927,0.1598 -0.322196,0.35667 -0.723003,0.70994 -0.400806,0.35336 -1.125332,1.26596 -1.300924,1.59526 -0.175593,0.3293 -0.330107,0.68794 -0.455015,1.07857 -0.124907,0.39068 -0.211579,0.81299 -0.179318,1.78543 0.03226,0.9725 0.707937,2.8715 1.258644,4.37015 0.550709,1.49865 0.999924,2.67595 1.357914,3.5567 0.357992,0.88075 0.667093,1.54955 0.961708,1.97875 0.294613,0.42915 1.262236,1.649 2.199898,2.7722 0.937662,1.1233 1.760466,2.0747 2.499395,2.85 0.73893,0.7754 1.404547,1.40283 1.853983,1.7073 0.449438,0.3044 0.764077,0.65793 1.853412,1.2834 1.089335,0.6255 2.535783,1.2154 4.482171,1.87 1.946387,0.6547 4.4215917,1.3789 7.4364297,2.1681 3.0148377,0.78925 3.5875542,0.9371 4.3235036,1.0165 0.73594935,0.0793 1.55412151,0.0761 2.4661364,-0.01 0.9120149,-0.0862 1.9225084,-0.2605 2.457213,-0.4695 1.1114815,-0.25116 0.5029865,-0.64313 1.0797633,-0.68525 z"
             id="path51046" /></g><g
           style="fill:#000000;fill-opacity:1;stroke-linejoin:miter"
           id="g51052"
           transform="matrix(0.0212301,0.88760364,-0.82571352,0.02282136,2056.9295,403.92004)"><path
             d="m -31.025187,958.4584 c -0.615985,-0.4643 -1.861253,-1.20175 -3.018205,-1.965 -1.156952,-0.76324 -2.220148,-1.57336 -3.206501,-2.41247 -0.986357,-0.83903 -1.885287,-1.73143 -2.833267,-2.42163 -0.947976,-0.6902 -1.723835,-1.27624 -2.352215,-1.73364 -0.62838,-0.45736 -1.102722,-0.79511 -1.427967,-1.02046 -0.325245,-0.2253 -0.545828,-0.3702 -0.562081,-0.3654 -0.01626,0.005 -0.125305,-0.0786 -0.226204,-0.16016 -0.100903,-0.0815 -0.193748,-0.16094 -0.278543,-0.23824 -0.08479,-0.0772 -0.161543,-0.1521 -0.355642,-0.3631 -0.194096,-0.211 -0.507348,-0.56675 -0.827393,-0.94944 -0.320045,-0.38269 -0.652382,-0.78886 -0.990585,-1.22229 -0.338204,-0.43341 -0.682076,-0.89387 -0.911114,-1.25 -0.229038,-0.35607 -0.308956,-0.57127 -0.350651,-0.75467 -0.04169,-0.18326 -0.04516,-0.33475 -0.01039,-0.4543 0.03477,-0.1195 0.107756,-0.2072 0.181616,-0.257 0.07386,-0.0498 0.07386,-0.0498 0.02462,-0.0166 0,0 -0.09848,0.0664 -0.158728,0.1647 -0.06025,0.0983 -0.08227,0.22845 -0.06606,0.3905 0.0162,0.1621 0.07064,0.3561 0.160724,0.5831 0.09008,0.22714 0.265956,0.79306 0.446468,1.33536 0.180508,0.54234 0.365853,1.06134 0.558998,1.55548 0.19315,0.49416 0.395806,0.96246 0.6018,1.40521 0.205993,0.44269 0.26741,0.56549 0.33994,0.69595 0.07253,0.13034 0.15214,0.2626 0.238795,0.39695 0.08666,0.13425 0.18042,0.27075 0.312475,0.43701 0.13206,0.16624 0.24028,0.24139 0.359594,0.38678 0.119316,0.14536 0.394364,0.47386 0.795559,0.96346 0.4012,0.48954 0.92899,1.1344 1.512727,2.0355 0.58374,0.9011 1.725993,1.75415 2.96053,2.4999 1.234534,0.74577 2.525122,1.39756 3.891184,1.9155 1.366066,0.5179 2.793324,0.9155 3.571091,0.9558 1.481241,0.2759 0.915956,-0.37236 1.619428,-0.1368 z"
             id="path51050" /></g><g
           style="fill:#000000;fill-opacity:1;stroke-linejoin:miter"
           id="g51056"
           transform="matrix(0.0212301,0.88760364,-0.82571352,0.02282136,2056.9295,403.92004)"><path
             d="m -45.282368,940.4965 c 0.604918,1.10244 1.955902,2.8533 3.114346,4.3511 1.158447,1.4978 2.091488,2.7707 2.794456,3.8074 0.702973,1.0367 1.150466,1.8302 2.97197,1.00955 1.821499,-0.82065 1.735526,-1.03595 1.646568,-1.30825 -0.08896,-0.2723 -0.176639,-0.6003 -0.259322,-0.982 -0.08269,-0.3816 -0.15839,-0.8155 -0.18148,-1.60843 -0.02309,-0.79287 -0.03931,-2.08191 -0.02456,-3.17712 0.01475,-1.09515 0.07447,-1.98902 0.140922,-2.66165 0.06645,-0.6726 0.143986,-1.0927 0.243813,-1.51426 0.09982,-0.42151 0.183265,-0.67041 0.319445,-1.00594 0.136182,-0.3355 0.342714,-0.7444 0.62216,-1.21635 0.27944,-0.47198 0.629245,-1.00268 0.86333,-1.33925 0.234085,-0.3366 0.308094,-0.43547 0.379124,-0.5252 0.07103,-0.0897 0.138992,-0.1706 0.203346,-0.24236 0.06435,-0.0718 0.124424,-0.13428 0.19235,-0.323 0.06792,-0.18878 0.45238,-0.63124 0.826653,-1.07984 0.374273,-0.44866 0.738847,-0.90356 1.086237,-1.3707 0.347387,-0.46724 0.678633,-0.94545 -0.413711,-3.5376 -1.092343,-2.5921 -1.916929,-2.81105 -2.639596,-3.08425 -0.722671,-0.27319 -1.349399,-0.59735 -1.897553,-0.96582 -0.548156,-0.36853 -1.027026,-0.79013 -1.408698,-1.22113 -0.381672,-0.43097 -0.618902,-0.7247 -0.819145,-0.9936 -0.200247,-0.26885 -0.367657,-0.50896 -0.498477,-0.71996 -0.130822,-0.211 -0.22736,-0.38964 -0.308362,-0.55188 -0.081,-0.16216 -0.0682,-0.0404 -0.105878,-0.1936 -0.03768,-0.15332 -0.0786,-0.47656 -0.11342,-0.93091 -0.03482,-0.45441 -0.06217,-1.02899 -0.09802,-1.62085 -0.03585,-0.5919 -0.102726,-0.856 -0.217758,-1.1365 -0.115028,-0.2804 -0.306824,-0.57517 -0.608303,-0.8426 -0.30148,-0.2675 -0.692337,-0.44143 -1.195591,-0.47146 -0.50325,-0.0299 -1.003826,0.0889 -1.444607,0.30566 -0.440781,0.2167 -0.826645,0.51 -1.177867,0.86237 -0.351228,0.35233 -0.678433,0.76318 -0.917424,1.10913 -0.238991,0.34595 -0.437649,0.68445 -0.617573,1.0789 -0.179928,0.3945 -0.352566,0.8534 -0.520143,1.3849 -0.16757,0.5315 -0.331175,1.1386 -0.532935,1.7383 -0.201759,0.5997 -0.490432,1.22594 -0.770965,1.8174 -0.28053,0.59146 -0.558903,1.1447 -0.861634,1.6389 -0.302734,0.4942 -0.6455,0.9132 -0.897806,1.20836 -0.25231,0.2951 -0.25231,0.2951 -0.0841,0.0983 0,0 0.33641,-0.3935 0.692741,-0.81733 0.356327,-0.42383 0.790157,-0.83637 1.241085,-1.28747 0.450928,-0.4512 0.918713,-0.9407 1.408808,-1.49665 0.4901,-0.55595 0.855684,-1.17969 1.16289,-1.66085 0.30721,-0.48106 0.575748,-0.8822 0.8105,-1.1952 0.234757,-0.3129 0.429307,-0.5319 0.58667,-0.669 0.157364,-0.13706 0.505253,-0.4344 0.788964,-0.63725 0.283706,-0.20285 0.515436,-0.32785 0.678046,-0.38185 0.16261,-0.0539 0.242047,-0.0522 0.264195,-0.0273 0.02215,0.0249 -0.334425,-0.0313 -0.556685,-0.15554 -0.22226,-0.12421 -0.367894,-0.27576 -0.43759,-0.38269 -0.06969,-0.10687 -0.09515,-0.14862 -0.11023,-0.23257 -0.01508,-0.0839 -0.123724,0.5288 -0.207495,1.1155 -0.08378,0.5867 -0.138603,1.0867 -0.161392,1.5192 -0.02279,0.4326 -0.0015,0.8411 0.07674,1.1721 0.07823,0.3309 0.133133,0.6047 0.272369,1.01463 0.139241,0.40987 0.311871,0.82221 0.517777,1.23981 0.205902,0.4176 0.446323,0.84131 0.713619,1.2724 0.267296,0.43116 0.799018,1.25596 1.519908,2.07922 0.720887,0.82331 1.571187,1.54731 2.531957,2.17234 0.960769,0.625 2.021743,1.1554 2.513463,1.2211 0.491713,0.0656 -0.10796,-3.3479 -0.430665,-3.00025 -0.322705,0.34775 -0.648689,0.69031 -0.982582,1.02442 -0.333889,0.33403 -0.683043,0.65307 -1.073616,0.99673 -0.390572,0.34366 -0.77557,0.56345 -0.905767,0.7405 -0.130194,0.1771 -0.255442,0.35835 -0.37633,0.5441 -0.12089,0.1857 -0.23796,0.3762 -0.359665,0.5849 -0.121705,0.2087 -0.510725,0.95567 -0.85482,1.70133 -0.344095,0.74567 -0.630285,1.46527 -0.862785,2.16474 -0.2325,0.69943 -0.403268,1.38989 -0.479127,1.97683 -0.07586,0.5868 -0.144207,1.13956 -0.174019,1.97635 -0.02981,0.8368 0.02146,1.78351 0.133393,2.87049 0.111931,1.08696 0.27156,2.32686 0.495857,3.76606 0.224293,1.43914 0.44627,2.2166 0.63768,2.73546 0.19141,0.51884 0.394123,1.00084 0.610986,1.44774 0.21686,0.4469 0.451247,0.8604 2.42334,0.1757 1.972094,-0.6847 1.401366,-1.48196 0.57717,-2.40975 -0.8242,-0.9278 -1.90098,-1.94855 -3.240135,-3.08105 -1.33915,-1.1325 -2.962551,-2.3651 -4.012062,-2.8654 -1.926563,-1.316 -1.345928,-0.18154 -2.222981,-0.9973 z"
             id="path51054" /></g><g
           style="fill:#000000;fill-opacity:1;stroke-linejoin:miter"
           id="g51060"
           transform="matrix(0.0212301,0.88760364,-0.82571352,0.02282136,2056.9295,403.92004)"><path
             d="m -44.089603,923.6355 c 0.106201,-0.3986 0.195468,-1.1266 0.294696,-1.75885 0.09923,-0.63225 0.200531,-1.16635 0.308647,-1.59735 0.108117,-0.431 0.215928,-0.7521 0.307816,-0.983 0.09189,-0.2309 0.152138,-0.37845 0.207734,-0.50376 0.05559,-0.1253 0.105792,-0.22699 0.14884,-0.30234 0.04305,-0.0754 0.07634,-0.12106 0.155637,-0.2038 0.07929,-0.0829 0.264823,-0.3221 0.449169,-0.57156 0.184349,-0.24939 0.362396,-0.51159 0.540737,-0.78284 0.178341,-0.27123 0.357003,-0.55145 0.783703,-1.1259 0.426704,-0.5745 1.092457,-1.4685 1.42527,-2.43916 0.33281,-0.97058 0.717714,-1.78527 1.073274,-2.49267 0.355563,-0.70737 0.67369,-1.31262 0.85231,-1.63227 0.178622,-0.31964 0.248096,-0.4321 0.330443,-0.5534 0.08234,-0.1212 0.177577,-0.2509 0.285377,-0.3884 0.107797,-0.1376 0.22801,-0.2826 0.165544,-0.58584 -0.06246,-0.30326 -0.06246,-0.30326 -0.139416,-0.23731 0,0 -0.509688,-0.27649 -0.677768,-0.16345 -0.168084,0.11304 -0.324956,0.22504 -0.47091,0.33655 -0.145954,0.11151 -0.28111,0.22305 -0.40825,0.3385 -0.127143,0.11545 -0.596732,0.5675 -1.11856,1.12231 -0.521824,0.55487 -1.09249,1.20604 -1.71145,1.95434 -0.618952,0.7483 -1.468157,1.48383 -1.963137,2.5656 -0.49498,1.0818 -0.641023,1.449 -0.752007,1.7314 -0.110986,0.28235 -0.222888,0.55555 -0.333263,0.82105 -0.110371,0.26545 -0.215803,0.52521 -0.33223,0.79245 -0.116423,0.2673 -0.200176,0.4667 -0.241553,0.612 -0.04138,0.14535 -0.07522,0.2984 -0.104234,0.463 -0.02901,0.1646 -0.05429,0.3425 -0.0752,0.52916 -0.02092,0.1867 -0.06608,0.56394 -0.07146,1.04124 -0.0054,0.4774 0.03414,1.0171 0.118383,1.6267 0.08424,0.60964 0.21106,1.2924 0.352304,1.65634 0.165106,0.75763 0.575686,0.33756 0.599553,0.73126 z"
             id="path51058" /></g></g></g></g></svg>
