<?xml version="1.0" encoding="UTF-8" standalone="no"?>
<svg
   version="1.1"
   width="135.38521"
   height="135.38521"
   viewBox="0 0 135.38521 135.38521"
   id="svg1214"
   xmlns="http://www.w3.org/2000/svg"
   xmlns:svg="http://www.w3.org/2000/svg">
  <defs
     id="defs1218" />
  <g
     id="g7140"
     transform="translate(-250.48431,-568.47607)">
    <rect
       style="display:inline;opacity:0.5;fill:none;fill-opacity:1;stroke:none;stroke-width:2.66644;stroke-dasharray:none;stroke-opacity:1"
       id="rect5343"
       width="135.38521"
       height="135.38521"
       x="250.48431"
       y="568.47607" />
    <g
       id="g4298"
       transform="translate(203.82407,27.311323)">
      <g
         style="fill:#000000;fill-opacity:1;stroke-linejoin:miter"
         id="g575"
         transform="rotate(90,259.41968,748.93978)">
        <path
           d="m 96.7626,952.71313 c -0.55843,-0.11723 -1.65073,-0.25703 -2.74318,-0.52143 -1.09246,-0.2644 -2.19762,-0.6727 -3.328044,-1.22515 -1.130426,-0.55249 -2.290756,-1.25685 -5.840046,-4.16565 -3.549275,-2.9089 -9.59599,-7.8904 -9.953945,-8.2254 -0.357955,-0.335 -0.624605,-0.6147 -0.772185,-0.7962 -0.14759,-0.18146 -0.16165,-0.21295 -0.10387,0.0905 0.05778,0.3035 0.08605,0.313 0.103426,0.11 0.01737,-0.203 0.02833,-0.2428 0.03426,-0.2498 0.0059,-0.007 -7.9e-4,0.016 -0.02471,0.0617 -0.02393,0.0457 -0.01615,0.0447 0.29066,-0.3083 0.30681,-0.3529 0.594645,-0.6576 0.86061,-0.92395 0.26598,-0.2663 0.51706,-0.48545 0.74129,-0.66615 0.22423,-0.1807 0.50521,-0.3802 0.917054,-0.6699 0.41185,-0.28975 1.005416,-0.63856 1.81105,-1.0575 0.805636,-0.4189 1.790816,-0.9475 2.977126,-1.5299 1.1863,-0.5825 2.61224,-1.2522 3.028,-1.507 0.415765,-0.25473 0.74667,-0.4762 1.06331,-0.7009 0.316635,-0.2246 0.62069,-0.45074 0.90901,-0.6826 0.288324,-0.2318 0.60997,-0.51033 1.58854,-1.4755 0.97857,-0.9652 1.88162,-1.9205 2.7078,-2.8683 0.82619,-0.94784 1.57937,-1.88437 2.25618,-2.8125 0.676814,-0.9282 1.28919,-1.86654 1.590335,-2.4746 0.301155,-0.608 0.55439,-1.2493 0.764725,-1.9458 0.21034,-0.6964 0.38374,-1.44675 0.527145,-2.25095 0.143405,-0.80415 0.253175,-1.67565 0.261765,-1.969 0.0086,-0.29335 0.0082,-0.5274 9e-4,-0.74719 -0.0073,-0.21986 -0.01785,-0.42586 -0.02844,-0.6189 -0.0106,-0.19306 -0.03614,-0.44636 -0.18713,-1.15741 -0.15099,-0.71105 -0.270736,-1.33765 -0.368995,-1.88935 -0.09825,-0.5516 -0.168861,-1.0282 -0.215545,-1.42724 -0.04669,-0.39896 -0.07069,-0.70123 -0.0818,-1.83916 -0.01112,-1.13795 -0.041,-2.1213 -0.09814,-2.9443 -0.05714,-0.82304 -0.12315,-1.48405 -0.177696,-1.8977 -0.05453,-0.4137 -0.05453,-0.4137 -0.06475,-0.13994 0,0 -0.16015,0.54124 -0.30178,1.24084 -0.14163,0.6996 -0.308576,1.5572 -0.48736,2.57434 -0.17879,1.01716 -0.36423,2.20616 -0.39492,2.62396 -0.0307,0.4178 -0.0353,0.8933 -0.02131,1.43793 0.01398,0.54462 0.04628,1.16004 0.10174,1.84662 0.05547,0.68665 0.12621,1.42265 0.12235,1.52271 -0.0039,0.1001 -0.0072,0.25628 -0.02106,0.43144 -0.01382,0.1752 -0.03255,0.36855 -0.05447,0.57985 -0.02191,0.2113 -0.03937,0.35089 -0.222235,1.10075 -0.18286,0.7499 -0.378145,1.4358 -0.59409,2.0487 -0.21594,0.6129 -0.450826,1.1512 -0.69069,1.6186 -0.23986,0.4674 -0.468716,0.82466 -1.09872,1.6092 -0.630006,0.7846 -1.33413,1.5961 -2.1129,2.4203 -0.77876,0.8243 -1.63229,1.6609 -2.55672,2.51367 -0.92442,0.85283 -1.91847,1.72063 -2.12434,1.86953 -0.20588,0.1488 -0.44987,0.3213 -0.71061,0.49314 -0.26074,0.17176 -0.53618,0.34566 -0.82913,0.51672 -0.29296,0.17108 -0.459094,0.27124 -1.81717,0.8479 -1.35808,0.5766 -2.55546,1.12294 -3.57112,1.6322 -1.01567,0.50928 -1.84915,0.99524 -2.52528,1.45114 -0.676124,0.45585 -1.11704,0.8236 -1.41622,1.06254 -0.29918,0.23886 -0.63342,0.54176 -0.96386,0.87876 -0.33044,0.33706 -0.66364,0.7046 -0.99634,1.10805 -0.33269,0.40345 -0.65802,0.83135 -0.810774,1.05835 -0.152756,0.22693 -0.285492,0.49756 -0.376416,0.77185 -0.09093,0.27429 -0.145145,0.54731 -0.17205,0.81708 -0.02691,0.26977 -0.01162,0.27551 0.0053,0.80823 0.01696,0.53274 0.250962,1.08314 0.545472,1.48724 0.294514,0.4041 0.649874,0.7682 1.077834,1.1439 0.42796,0.3757 0.97264,0.8085 7.37928,5.35146 6.40664,4.54294 7.83584,5.31434 9.17101,5.86514 1.335186,0.55076 2.632534,0.91996 3.88682,1.0942 1.25429,0.1742 2.454256,0.15034 3.02731,-0.0236 1.123746,-0.237 0.557,-0.3142 1.10769,-0.37727 z"
           id="path573" />
      </g>
      <g
         style="fill:#000000;fill-opacity:1;stroke-linejoin:miter"
         id="g579"
         transform="rotate(90,259.41968,748.93978)">
        <path
           d="m 94.860214,889.12244 c -0.41156,-0.94264 -1.415714,-2.45674 -2.291734,-3.75384 -0.87601,-1.2971 -1.59397,-2.4003 -2.14579,-3.3095 -0.55182,-0.9093 -0.9314,-1.61775 -1.24589,-2.3222 -0.31449,-0.7045 -0.634915,-1.5293 -0.91491,-2.4029 -0.28001,-0.8736 -0.5261,-1.7945 -0.73147,-2.7661 -0.20537,-0.9716 -0.377504,-1.99264 -0.478716,-3.017 -0.101214,-1.0244 -0.179074,-2.0457 -0.262654,-2.9967 -0.08357,-0.9509 -0.17728,-1.8311 -0.32059,-2.63495 -0.14331,-0.80385 -0.28195,-1.5387 -0.34929,-1.88455 -0.06733,-0.3458 -0.08225,-0.52304 -0.09528,-0.7332 -0.01301,-0.2101 -0.02387,-0.4517 -0.03238,-0.7236 -0.0085,-0.2719 -0.01461,-0.5733 -0.01252,-1.33815 0.0021,-0.76475 0.01469,-1.87091 0.01883,-2.75335 0.0042,-0.88246 0.0035,-1.5433 -0.0073,-1.9942 -0.01078,-0.4509 -0.03111,-0.76783 -0.04124,-0.8483 -0.01014,-0.0805 -0.03819,-0.4149 -0.09357,-0.82505 -0.05538,-0.41025 -0.13734,-0.90875 -0.249635,-1.50115 -0.112295,-0.5924 -0.243825,-1.28236 -0.468655,-2.81404 -0.224834,-1.53166 -0.5519,-3.92346 -0.546474,-3.98466 0.0054,-0.0612 0.01929,-0.1592 0.03956,-0.2394 0.02026,-0.0802 0.04606,-0.1454 0.07802,-0.20044 0.03197,-0.0551 0.02169,-0.0714 0.63619,-0.49126 0.6145,-0.4199 1.142316,-0.8216 1.58014,-1.18867 0.437824,-0.36706 0.78454,-0.69853 1.00117,-0.92263 0.21662,-0.22404 0.21662,-0.22404 0.05358,-0.1005 0,0 -0.381975,0.1697 -0.835221,0.3782 -0.453254,0.2084 -0.99469,0.438 -1.622324,0.69535 -0.62763,0.25735 -1.356535,0.557 -1.53423,0.69281 -0.177705,0.13584 -0.309624,0.28084 -0.418786,0.44604 -0.109164,0.1653 -0.195794,0.3472 -0.260274,0.5431 -0.06448,0.1959 -0.112414,0.5167 -0.12488,2.9546 -0.01246,2.43785 0.06794,3.26396 0.125274,3.9135 0.05735,0.64953 0.09918,1.19287 0.123482,1.62676 0.0243,0.43384 0.03116,0.75194 0.02395,0.9997 -0.0072,0.24774 0.0134,0.35174 0.0016,0.54984 -0.01177,0.19815 -0.04999,0.6801 -0.111545,1.3951 -0.06156,0.71503 -0.142341,1.65833 -0.252805,2.83344 -0.11047,1.17516 -0.1335,1.54866 -0.146746,1.86121 -0.01325,0.31255 -0.02205,0.60015 -0.02629,0.86375 -0.0042,0.2636 -0.0037,0.5042 0.0079,0.7787 0.01162,0.2745 0.10527,0.97846 0.1909,1.7145 0.08562,0.73606 0.16472,1.5464 0.30589,2.42216 0.141185,0.87574 0.27757,1.82568 0.431766,2.87324 0.15419,1.04754 0.397694,2.2021 0.676194,3.2809 0.2785,1.0788 0.60349,2.1043 0.974425,3.0756 0.370925,0.9713 0.789075,1.88696 1.245315,2.73987 0.45623,0.85293 0.83626,1.50513 1.41278,2.30633 0.57652,0.8013 1.33027,1.73847 2.284166,2.80646 0.953894,1.06799 2.11409,2.26489 2.88813,2.80108 1.414528,1.28576 0.881374,0.44456 1.521858,1.1941 z"
           id="path577" />
      </g>
      <g
         style="fill:#000000;fill-opacity:1;stroke-linejoin:miter"
         id="g583"
         transform="rotate(90,259.41968,748.93978)">
        <path
           d="m 102.24269,881.4682 c -0.18292,-0.26465 -0.6571,-0.8519 -1.22001,-1.63385 -0.56292,-0.78185 -1.22282,-1.7594 -1.97781,-2.93865 -0.75499,-1.17927 -1.60491,-2.5618 -2.48684,-3.8082 -0.88192,-1.2464 -1.60871,-2.2554 -2.27392,-3.217 -0.665206,-0.9616 -1.26783,-1.8787 -1.821906,-2.74873 -0.55407,-0.87007 -1.054264,-1.70093 -1.322114,-2.33527 -0.26786,-0.63434 -0.26786,-0.63434 -0.11201,-0.20276 0,0 0.24354,0.88936 0.49881,1.86116 0.255276,0.9718 0.60908,1.9909 1.05961,3.05205 0.45054,1.06109 0.992914,2.16351 1.61969,3.31205 0.62677,1.1486 1.65587,2.627 2.66577,3.842 1.009914,1.215 1.930965,2.2178 2.7538,3.0127 0.82283,0.7949 1.5525,1.3732 1.91672,1.55194 0.616,0.36586 0.44843,0.0654 0.70021,0.25256 z"
           id="path581" />
      </g>
      <g
         style="fill:#000000;fill-opacity:1;stroke-linejoin:miter"
         id="g587"
         transform="rotate(90,259.41968,748.93978)">
        <path
           d="m 101.27342,931.18933 c 0.27837,-0.74347 0.83611,-4.25183 1.1155,-6.76403 0.27938,-2.5122 0.26066,-4.0293 0.091,-7.5758 -0.16964,-3.54646 -0.2601,-5.06733 -0.2601,-5.06733 0,0 0,0 0,0 0,0 0,0 -0.43245,2.50423 -0.43245,2.5041 -0.89534,6.01743 -1.00199,7.52793 -0.10665,1.51057 -0.04,5.05164 0.17332,6.83161 0.17374,2.53596 0.35433,1.78741 0.31471,2.54339 z"
           id="path585" />
      </g>
      <g
         style="fill:#000000;fill-opacity:1;stroke-linejoin:miter"
         id="g591"
         transform="rotate(90,259.41968,748.93978)">
        <path
           d="m 144.17271,929.0236 c -0.0588,-0.0268 -0.21704,-0.1036 -0.4297,-0.2521 -0.21268,-0.1485 -0.47984,-0.3656 -0.80307,-0.6489 -0.32323,-0.28324 -0.70489,-0.62956 -3.51059,-3.0746 -2.80569,-2.44503 -8.08026,-6.78366 -8.32571,-7.19235 -0.24546,-0.40869 -0.51842,-1.05218 -0.73778,-1.89655 -0.21936,-0.8444 -0.36948,-1.88714 -0.45247,-3.121 -0.083,-1.2339 -0.1627,-2.1479 1.80911,-6.82125 1.97184,-4.67328 2.77765,-5.48545 3.68332,-6.57045 0.90566,-1.0849 1.64258,-2.02465 2.22448,-2.82164 0.58189,-0.797 1.01744,-1.47006 1.28843,-2.00386 0.27098,-0.5338 0.94214,-1.9871 1.49465,-3.20464 0.5525,-1.21746 0.98094,-2.18766 1.28904,-2.92066 0.30809,-0.7329 0.50598,-1.26055 0.58896,-1.6166 0.083,-0.3559 0.235,-1.1455 0.36624,-1.9481 0.13126,-0.80254 0.23023,-1.5586 0.29627,-2.26977 0.066,-0.71123 0.0983,-1.3797 0.0843,-2.11493 -0.014,-0.7352 -1.04112,-6.9186 -1.47466,-10.3826 -0.43353,-3.464 -0.30366,-4.5917 -0.19062,-5.45175 0.11302,-0.86005 0.20608,-1.43815 0.24491,-1.63849 0.0388,-0.20026 -0.83563,0.75074 -0.44181,0.44349 0.3938,-0.30732 0.28651,-0.2016 0.26364,-0.18365 -0.0229,0.0179 0.0702,-0.0126 0.27749,-0.0505 0.20727,-0.0379 0.5179,-0.0646 1.8302,-0.0133 1.31229,0.0512 3.42183,0.1797 5.14682,0.32484 1.72499,0.14516 3.05611,0.30466 3.96155,0.46766 0.90544,0.163 1.303,0.2851 1.93654,0.59984 0.63354,0.3147 1.44686,0.73796 2.04918,1.11292 0.60234,0.37488 0.98144,0.67704 1.12955,0.83584 0.14811,0.1588 0.1175,0.0772 -0.20649,0.67344 -0.324,0.59616 -1.09541,2.75166 -1.25778,3.72126 -0.16238,0.9696 -0.30458,1.72594 -0.45703,2.41173 -0.15243,0.68577 -0.31412,1.29981 -0.48309,1.84017 -0.16899,0.54026 -0.30925,0.9254 -0.8929,2.1501 -0.58365,1.22476 -1.0773,2.2949 -1.47049,3.1892 -0.39319,0.89426 -0.68852,1.6209 -0.89356,2.2136 -0.20503,0.5927 -0.32658,1.15716 -0.48613,2.32293 -0.15954,1.16577 -0.37234,2.31672 -0.6433,3.48917 -0.27096,1.17246 -0.60044,2.3664 -0.9888,3.5819 -0.38839,1.2154 -0.83318,2.4449 -0.96277,2.9334 -0.12961,0.48845 -0.17312,1.1367 -0.16861,1.96123 0.005,0.82453 0.048,1.87607 0.1288,3.17297 0.0808,1.2969 0.19258,2.67506 0.0771,3.70954 -0.11543,1.03446 -0.20655,1.98993 -0.26723,2.76546 -0.0607,0.77543 -0.0907,1.38286 -0.0829,1.8829 0.008,0.5001 0.0441,0.69136 0.16391,1.7342 0.11983,1.04286 0.2756,1.9703 0.44548,2.7718 0.16988,0.8016 0.37328,1.48974 0.64,2.1007 0.26674,0.61097 0.54791,1.0186 1.53876,2.3357 0.99084,1.3171 2.00076,2.4814 3.01649,3.48285 1.01574,1.00145 2.04552,1.83429 3.09404,2.49255 1.04854,0.65827 1.97212,1.0695 1.73487,0.858 -0.23728,-0.2116 -0.25516,-0.2579 -0.26565,-0.3074 -0.0105,-0.0494 -0.0116,-0.0905 -0.007,-0.11084 0.004,-0.0204 0.17016,-0.45081 -0.23996,0.13599 -0.41013,0.58685 -1.13522,1.1961 -2.23053,1.81385 -1.09531,0.6178 -2.55107,1.2218 -4.35529,1.8023 -1.80421,0.5805 -3.89218,1.1356 -5.03479,1.15326 -1.1426,0.0177 -2.21409,-0.0189 -3.16261,-0.12189 -0.94852,-0.10297 -1.78303,-0.26593 -2.38434,-0.38373 -0.6013,-0.11784 -0.6013,-0.11784 -0.23451,0.0473 0,0 0.63138,0.5897 1.49632,0.9653 0.86495,0.3756 1.88291,0.6698 3.04489,0.8861 1.16201,0.21633 2.57753,0.3471 4.7737,0.002 2.19617,-0.3451 4.06252,-0.79556 5.63793,-1.3555 1.57542,-0.55987 2.86714,-1.2465 3.88302,-2.0907 1.01589,-0.84417 1.66155,-1.808 1.77875,-2.29235 0.11722,-0.48431 0.11534,-0.76282 0.0688,-1.04495 -0.0465,-0.28214 -0.1393,-0.55655 -0.27372,-0.81 -0.13444,-0.2535 -0.74355,-0.83743 -1.57499,-1.32767 -0.83145,-0.49017 -1.61627,-1.11059 -2.42551,-1.89943 -0.80924,-0.78874 -1.64138,-1.74784 -2.48351,-2.88633 -0.84212,-1.13857 -1.72165,-2.47943 -1.80576,-2.62977 -0.0841,-0.1504 -0.1843,-0.47204 -0.29959,-0.9978 -0.11531,-0.5258 -0.22684,-1.2341 -0.32065,-2.11126 -0.0938,-0.87714 -0.19829,-1.96009 -0.21628,-2.09644 -0.018,-0.13635 -0.0122,-0.4757 0.0232,-1.0517 0.0354,-0.5759 0.10217,-1.36193 0.20033,-2.34716 0.0982,-0.98529 0.24007,-2.37954 0.13371,-3.89319 -0.10634,-1.51361 -0.17189,-2.67609 -0.20022,-3.56299 -0.0284,-0.88686 -0.0217,-1.47736 -0.0154,-1.6471 0.006,-0.1698 0.0378,-0.17286 0.4999,-1.50091 0.46206,-1.32805 0.86162,-2.63751 1.19966,-3.93215 0.33804,-1.2946 0.61426,-2.5743 0.8282,-3.8392 0.21394,-1.2649 0.35634,-2.44234 0.41386,-2.6259 0.0575,-0.1836 0.23905,-0.67105 0.53486,-1.3759 0.29578,-0.7048 0.7014,-1.6104 1.21418,-2.7087 0.51279,-1.09835 1.15592,-2.4385 1.39597,-3.111 0.24005,-0.67253 0.44261,-1.3583 0.62712,-2.0994 0.18449,-0.7411 0.35225,-1.53883 0.50442,-2.3948 0.15217,-0.85594 0.22664,-1.4829 0.96535,-3.5395 0.73871,-2.0566 0.6937,-3.5198 0.26122,-4.2893 -0.43247,-0.7694 -1.02552,-1.3659 -1.7486,-1.8957 -0.7231,-0.52976 -1.58823,-1.0356 -2.57974,-1.52726 -0.99154,-0.49164 -1.52714,-0.76864 -2.49103,-1.02179 -0.9639,-0.25315 -2.19356,-0.44598 -3.75958,-0.61225 -1.56604,-0.1663 -3.48567,-0.31115 -5.7767,-0.43676 -2.29103,-0.12561 -2.94845,-0.10754 -3.4793,-0.0447 -0.53085,0.0629 -1.03866,0.18104 -1.53541,0.38318 -0.49675,0.20206 -0.97692,0.52616 -1.07697,0.66416 -0.10005,0.1381 0.0721,-0.056 -0.51587,0.8108 -0.58798,0.8668 -0.70059,1.4298 -0.81427,2.1916 -0.11366,0.7618 -0.23837,1.7586 -0.37536,3.22443 -0.13701,1.46577 0.89988,7.72101 1.40487,10.90937 0.50499,3.18835 0.49806,3.68347 0.46204,4.2441 -0.036,0.5606 -0.10233,1.1844 -0.19985,1.8691 -0.0975,0.6848 -0.22665,1.4291 -0.29893,1.86305 -0.0723,0.4339 -0.09,0.47625 -0.2775,0.94849 -0.18747,0.47226 -0.51428,1.23383 -0.97183,2.25891 -0.45755,1.02509 -1.04388,2.3086 -1.44571,3.19458 -0.40184,0.88597 -0.59304,1.22467 -0.9832,1.79727 -0.39015,0.5726 -0.96431,1.33725 -1.71397,2.2766 -0.74967,0.93925 -1.65461,2.0619 -3.23239,5.40916 -1.57779,3.34734 -3.40548,8.40464 -3.30715,10.15144 0.0983,1.74676 0.30534,3.07604 0.61063,4.24456 0.30529,1.16844 0.70432,2.18224 1.21771,3.04114 0.51338,0.8588 1.27025,1.6401 7.02925,5.39514 5.759,3.755 6.26453,4.05102 6.71054,4.2868 0.44602,0.23576 0.82869,0.41106 1.1467,0.52726 0.31802,0.1162 0.56932,0.1776 0.67947,0.17916 0.18157,0.006 0.11939,-0.13926 0.19078,-0.13466 z"
           id="path589" />
      </g>
      <g
         style="fill:#000000;fill-opacity:1;stroke-linejoin:miter"
         id="g627"
         transform="rotate(90,259.41968,748.93978)">
        <path
           d="m 97.188324,927.57965 c 0.426676,-0.63515 1.730486,-3.79968 2.549306,-6.09289 0.81883,-2.29322 1.13486,-3.72026 1.75308,-7.08486 0.61821,-3.36455 0.87144,-4.8099 0.87144,-4.8099 0,0 0,0 0,0 0,0 0,0 -0.96068,2.2518 -0.96068,2.25184 -2.17859,5.4415 -2.615696,6.8332 -0.437104,1.3917 -1.149009,4.72894 -1.33889,6.44605 -0.394089,2.41705 -0.05434,1.75659 -0.25856,2.4566 z"
           id="path625" />
      </g>
      <g
         style="fill:#000000;fill-opacity:1;stroke-linejoin:miter"
         id="g631"
         transform="rotate(90,259.41968,748.93978)">
        <path
           d="m 98.62966,928.9784 c 0.01245,-0.0606 -4.94e-4,-0.2704 -0.04545,-0.6252 -0.04496,-0.3548 -0.130416,-0.8546 -0.265726,-1.49663 -0.13531,-0.64207 -0.31827,-1.42697 -0.430884,-1.90897 -0.112616,-0.4821 -0.125671,-0.6238 -0.132436,-0.7615 -0.0068,-0.1377 -0.0059,-0.27173 0.0025,-0.4024 0.0083,-0.1307 0.02395,-0.25807 0.03799,-0.3463 0.01404,-0.0883 0.02235,-0.1266 0.03392,-0.17574 0.01158,-0.0492 0.02555,-0.10836 0.0427,-0.1767 0.01714,-0.0684 0.03765,-0.14536 0.12155,-0.38501 0.08391,-0.23955 0.2436,-0.7146 0.40326,-1.21728 0.15965,-0.50277 0.317885,-1.03357 0.39004,-1.61007 0.07215,-0.57646 0.15429,-1.1767 0.184315,-1.4657 0.03001,-0.289 0.03758,-0.32585 0.04879,-0.37187 0.01122,-0.0459 0.02602,-0.10028 0.04424,-0.16233 0.01822,-0.0621 0.03993,-0.1315 0.24469,-0.7199 0.20476,-0.58847 0.57595,-1.71243 0.62465,-1.875 0.04869,-0.1626 0.08797,-0.3105 0.119241,-0.44833 0.0313,-0.13782 0.056,-0.26557 0.0727,-0.38404 0.0167,-0.11843 0.023,-0.21148 0.0397,-0.39633 0.0167,-0.18496 0.0258,-0.3892 0.024,-0.6077 -0.002,-0.2185 -0.0133,-0.4514 -0.0337,-0.69897 -0.0203,-0.24753 -0.0529,-0.51568 -0.1038,-0.70533 -0.0509,-0.18957 -0.09773,-0.34704 -0.128255,-0.47826 -0.03052,-0.13114 -0.05242,-0.2359 -0.06924,-0.3006 -0.01682,-0.0647 -0.01682,-0.0647 -0.0056,-0.0215 0,0 0.02242,0.0862 0.04406,0.2002 0.02164,0.114 0.02368,0.2583 0.0157,0.4304 -0.008,0.1722 -0.02179,0.36384 -0.07354,0.6098 -0.05178,0.246 -0.10405,0.4754 -0.15912,0.68513 -0.05506,0.20972 -0.11042,0.39977 -0.1673,0.56952 -0.05688,0.16975 -0.11873,0.33035 -0.150985,0.4162 -0.03226,0.0859 -0.07153,0.17635 -0.119095,0.27885 -0.04758,0.10256 -0.104575,0.21663 -0.16909,0.34237 -0.06451,0.12573 -0.13411,0.25383 -0.70792,1.28543 -0.57381,1.03164 -0.61731,1.1207 -0.654186,1.1949 -0.03687,0.0743 -0.07026,0.1441 -0.100319,0.21034 -0.03006,0.0663 -0.05682,0.12939 -0.08824,0.22211 -0.03142,0.0927 -0.19759,0.69025 -0.35414,1.25165 -0.15655,0.5614 -0.34004,1.0873 -0.431005,1.60546 -0.09097,0.51824 -0.173705,1.01099 -0.26873,1.48084 -0.09503,0.4699 -0.119315,0.61474 -0.130785,0.708 -0.01147,0.0932 -0.02077,0.18067 -0.02725,0.26307 -0.0065,0.0824 -0.01032,0.16053 -0.01155,0.23169 -0.0012,0.0711 0.0015,0.24244 0.01388,0.42657 0.01244,0.18417 0.03542,0.36757 0.06874,0.54997 0.03334,0.18245 0.07681,0.36385 0.139025,0.5663 0.06222,0.20246 0.44279,1.03144 0.76579,1.709 0.32301,0.6776 0.58747,1.21697 0.787385,1.6202 0.199915,0.4033 0.326125,0.6729 0.370765,0.7575 0.04787,0.1352 0.185524,0.0755 0.18875,0.1262 z"
           id="path629" />
      </g>
    </g>
  </g>
</svg>
