<?xml version="1.0" encoding="UTF-8" standalone="no"?>
<svg
   version="1.1"
   width="135.38521"
   height="135.38521"
   viewBox="0 0 135.38521 135.38521"
   id="svg1214"
   xmlns="http://www.w3.org/2000/svg"
   xmlns:svg="http://www.w3.org/2000/svg">
  <defs
     id="defs1218" />
  <g
     id="g7606"
     transform="translate(-401.37216,-848.95831)">
    <rect
       style="display:inline;opacity:0.5;fill:none;fill-opacity:1;stroke:none;stroke-width:2.66644;stroke-dasharray:none;stroke-opacity:1"
       id="rect5277"
       width="135.38521"
       height="135.38521"
       x="401.37216"
       y="848.95831" />
    <g
       id="g5171"
       transform="translate(-26.440083,3.1752913)">
      <g
         style="fill:#000000;fill-opacity:1;stroke-linejoin:miter"
         id="g1115"
         transform="rotate(90,259.41968,748.93978)">
        <path
           d="m 387.28055,519.7198 c 0.35977,0.3648 1.16849,0.9788 2.00175,1.6369 0.8332,0.65813 1.6865,1.37523 2.56414,2.1511 0.87762,0.7758 1.7749,1.6195 2.44583,2.31715 0.67093,0.69769 1.09417,1.21729 1.43255,1.69165 0.33838,0.4744 0.59158,0.899 0.76118,1.2653 0.16958,0.36635 0.2601,0.6657 0.3661,1.1212 0.10603,0.45554 0.2002,0.94376 0.24794,1.40653 0.0478,0.46277 0.0549,0.90067 0.017,1.31647 -0.0379,0.41583 -0.11335,0.8121 -0.13547,0.8987 -0.0221,0.0866 -0.0635,0.1467 -0.10437,0.20176 -0.0409,0.055 -0.0832,0.10498 -0.12699,0.15014 -0.0438,0.0451 -0.0898,0.0867 -0.5043,0.3435 -0.41446,0.2568 -1.23804,0.80324 -1.90097,1.2582 -0.66297,0.45495 -1.16669,0.8326 -1.55011,1.1592 -0.38339,0.3265 -0.75873,0.8097 -0.89758,1.0445 -0.13888,0.2349 -0.45062,0.75705 -0.70554,1.3035 -0.25491,0.5465 -0.44922,1.11566 -0.57886,1.7031 -0.12963,0.58755 -0.19366,1.189 -0.20144,1.7668 -0.008,0.5778 0.0161,1.1041 0.0694,1.62275 0.0533,0.51865 0.13733,1.02875 0.24537,1.531 0.10806,0.5022 0.24585,0.99465 1.562,3.65955 1.3162,2.66485 3.74918,7.3891 4.9331,8.6923 1.18394,1.30324 2.84373,2.5528 5.01204,3.84786 2.16833,1.29498 4.86679,2.63604 7.31996,3.32944 2.4532,0.6935 2.4532,0.6935 0.98106,-0.0714 0,0 -2.45426,-2.43754 -4.74786,-3.94884 -2.29364,-1.51126 -4.04117,-2.84336 -5.2133,-3.98462 -1.1721,-1.14114 -1.72673,-1.94879 -3.83516,-6.71664 -2.1084,-4.7679 -2.1366,-4.96744 -2.24597,-5.3206 -0.10937,-0.3531 -0.19654,-0.71904 -0.2685,-1.097 -0.0719,-0.3779 -0.12227,-0.7692 -0.15619,-1.1611 -0.0339,-0.3919 -0.041,-0.75885 -0.009,-1.1063 0.0322,-0.3475 0.10364,-0.6868 0.20749,-1.0251 0.10388,-0.3383 0.24775,-0.67756 0.48102,-1.08485 0.23325,-0.40725 0.24365,-0.49555 0.24445,-0.47805 7.8e-4,0.0176 0.28405,-0.2371 0.75671,-0.6262 0.47263,-0.38916 1.12521,-0.88965 1.95389,-1.5166 0.82868,-0.6269 1.10178,-0.8729 1.23108,-1.0189 0.1293,-0.14596 0.24878,-0.3002 0.3577,-0.4613 0.10888,-0.1611 0.207,-0.32876 0.34026,-0.6283 0.13331,-0.2995 0.25251,-0.92354 0.30378,-1.5312 0.0513,-0.6077 0.0323,-1.222 -0.0455,-1.83955 -0.0778,-0.61755 -0.21297,-1.23761 -0.40033,-1.83289 -0.18734,-0.59521 -0.31964,-1.01876 -0.5665,-1.5332 -0.24686,-0.51446 -0.57414,-1.02316 -0.97784,-1.53619 -0.40372,-0.51307 -0.8833,-1.03647 -1.45573,-1.58807 -0.57244,-0.5516 -1.63604,-1.3667 -2.66345,-2.08643 -1.0274,-0.71977 -2.03862,-1.35277 -3.03198,-1.89707 -0.99334,-0.5443 -1.96857,-0.9949 -2.49017,-1.1129 -0.95871,-0.34104 -0.58585,0.008 -1.02292,-0.2153 z"
           id="path1113" />
      </g>
      <g
         style="fill:#000000;fill-opacity:1;stroke-linejoin:miter"
         id="g1119"
         transform="rotate(90,259.41968,748.93978)">
        <path
           d="m 392.70886,500.227 c -0.0438,-0.4664 -0.25622,-1.2802 -0.44536,-2.00636 -0.1892,-0.72619 -0.34657,-1.36816 -0.46428,-1.92744 -0.1177,-0.55922 -0.1932,-1.03417 -0.24812,-1.55138 -0.0549,-0.51722 -0.0849,-1.08438 -0.0667,-1.60705 0.0183,-0.52267 0.0793,-1.00057 0.18072,-1.43507 0.10138,-0.4345 0.24579,-0.8264 0.59247,-1.51647 0.34671,-0.69007 0.87277,-1.64966 1.37823,-2.49781 0.50547,-0.84814 0.98204,-1.58755 1.43439,-2.21197 0.45233,-0.62442 0.87755,-1.13095 1.36237,-1.57419 0.4848,-0.44324 1.24664,-1.02456 2.16302,-1.6626 0.91638,-0.63803 1.98831,-1.32636 3.20032,-2.08444 1.21201,-0.75812 2.53154,-1.63912 3.41554,-2.23059 0.88396,-0.59146 1.1442,-0.82833 1.37963,-1.09271 0.23537,-0.26442 0.45282,-0.55554 0.6585,-0.87427 0.20567,-0.31875 0.40299,-0.66623 0.97737,-2.04761 0.57433,-1.38137 1.3635,-3.46024 1.98742,-5.2272 0.6239,-1.76697 1.08133,-3.2254 1.37548,-4.38266 0.29413,-1.15726 0.42847,-2.03284 0.46656,-2.54088 0.0381,-0.50807 0.0936,-0.95985 0.12832,-1.3683 0.0348,-0.40842 0.0577,-0.77316 0.0582,-1.09778 4.3e-4,-0.32458 -0.0228,-0.61114 -0.095,-1.16842 -0.0722,-0.5573 -0.18808,-1.3741 -0.32401,-2.06913 -0.13592,-0.69507 -0.27814,-1.26779 -0.42221,-1.71637 -0.14403,-0.44857 -0.24957,-0.78067 -0.31765,-0.97384 -0.0681,-0.19318 -0.0681,-0.19318 -0.0227,-0.0644 0,0 0.0908,0.25756 0.12238,0.6412 0.0316,0.38361 0.0159,0.8848 -0.0206,1.50061 -0.0366,0.61585 -0.0918,1.34762 -0.1528,2.19989 -0.0609,0.8523 -0.0705,1.06891 -0.1022,1.30163 -0.0316,0.23273 -0.0824,0.517 -0.15587,0.85004 -0.0735,0.33301 -0.17435,0.71259 -0.29956,1.17016 -0.12522,0.45756 -0.21311,1.01295 -0.47959,1.82063 -0.26651,0.80764 -0.72512,1.94767 -1.3688,3.40411 -0.64368,1.45648 -1.46458,3.22786 -2.4708,5.30121 -1.00618,2.07335 -1.12808,2.25351 -1.28796,2.48663 -0.15988,0.2331 -0.30676,0.42114 -0.43576,0.56282 -0.129,0.14168 -0.23453,0.2366 -0.28409,0.27193 -0.0495,0.0353 -1.53767,0.86963 -2.8833,1.70465 -1.34561,0.83502 -2.51981,1.66572 -3.54944,2.45065 -1.0296,0.78497 -1.91546,1.5257 -2.68536,2.23465 -0.7699,0.70896 -1.29254,1.35138 -1.75127,2.04148 -0.45872,0.69012 -0.91392,1.47451 -1.3641,2.35916 -0.45018,0.88464 -0.89736,1.87068 -1.3492,2.96356 -0.45184,1.09286 -0.6359,1.65232 -0.74185,2.22762 -0.10593,0.57536 -0.1539,1.17002 -0.13415,1.78434 0.0197,0.61432 0.10644,1.24658 0.24624,1.89231 0.1398,0.64572 0.27231,1.11358 0.46371,1.6437 0.19145,0.53012 0.43965,1.11595 0.75232,1.75739 0.31269,0.64146 0.69818,1.33594 0.98463,1.67126 0.4657,0.744 0.4157,0.27863 0.59496,0.6873 z"
           id="path1117" />
      </g>
      <g
         style="fill:#000000;fill-opacity:1;stroke-linejoin:miter"
         id="g1123"
         transform="rotate(90,259.41968,748.93978)">
        <path
           d="m 412.3309,491.44617 c 0.5626,-0.13999 1.52207,-0.6481 2.3757,-1.26795 0.85364,-0.61987 1.60907,-1.33264 2.25763,-2.13659 0.64859,-0.80396 1.1976,-1.6883 1.48291,-2.29139 0.28531,-0.60304 0.37519,-0.84434 0.46262,-1.0885 0.0874,-0.2442 0.16874,-0.49244 0.24174,-0.74511 0.073,-0.25269 0.1379,-0.50965 0.19835,-0.771 0.0605,-0.26133 0.12427,-0.5639 0.19085,-0.90991 0.0666,-0.34604 0.13627,-0.73657 0.20927,-1.17249 0.073,-0.43593 0.10633,-0.92227 0.12733,-1.24768 0.021,-0.32545 0.0431,-0.51169 0.064,-0.6734 0.0209,-0.16168 0.038,-0.29855 0.0533,-0.40845 0.0154,-0.10986 0.029,-0.18966 0.0648,-0.35772 0.0357,-0.16803 0.1044,-0.48928 0.22491,-0.97858 0.12051,-0.4893 0.29398,-1.13647 0.50826,-1.9416 0.2143,-0.8051 0.4709,-1.7665 0.64976,-2.4633 0.17884,-0.6968 0.23462,-0.98054 0.27934,-1.23914 0.0447,-0.25864 0.0806,-0.49186 0.10768,-0.70038 0.0271,-0.20853 0.0454,-0.39328 0.0537,-0.7934 0.008,-0.40011 -0.0314,-0.98181 -0.12439,-1.49606 -0.093,-0.51425 -0.23657,-0.95802 -0.42962,-1.32602 -0.19309,-0.36798 -0.40985,-0.66968 -0.57135,-0.8797 -0.16147,-0.21005 -0.16147,-0.21005 -0.0538,-0.07 0,0 0.2153,0.28006 0.32888,0.6355 0.11362,0.35544 0.15619,0.75659 0.1446,1.20124 -0.0116,0.44463 -0.0741,0.9368 -0.18605,1.4842 -0.112,0.54738 -0.14727,0.6668 -0.19854,0.82777 -0.0513,0.16103 -0.11688,0.3491 -0.19676,0.56333 -0.0799,0.21423 -0.1741,0.45407 -0.27568,0.70993 -0.10159,0.25583 -0.54162,1.26334 -0.91062,2.13672 -0.369,0.87335 -0.6688,1.60455 -0.8972,2.19632 -0.2284,0.59176 -0.3936,1.04571 -0.4908,1.35965 -0.0972,0.31393 -0.12087,0.38723 -0.1589,0.5173 -0.038,0.13008 -0.0779,0.2757 -0.11874,0.44028 -0.0409,0.1646 -0.0829,0.34903 -0.13071,0.57696 -0.0478,0.22794 -0.12793,0.75194 -0.17745,1.20746 -0.0495,0.45558 -0.0783,0.86475 -0.1078,1.22478 -0.0295,0.3601 -0.0594,0.67006 -0.0899,0.93156 -0.0306,0.26151 -0.0613,0.49364 -0.0967,0.71756 -0.0355,0.22394 -0.0729,0.44586 -0.11579,0.66522 -0.0428,0.21933 -0.0914,0.43601 -0.14032,0.625 -0.0488,0.18903 -0.36142,1.06043 -0.75518,1.87076 -0.39377,0.81034 -0.88221,1.58646 -1.47277,2.33103 -0.5906,0.74453 -1.28273,1.4653 -1.61046,1.8974 -0.79022,0.71837 -0.25344,0.55212 -0.71594,0.83844 z"
           id="path1121" />
      </g>
      <g
         style="fill:#000000;fill-opacity:1;stroke-linejoin:miter"
         id="g1127"
         transform="rotate(90,259.41968,748.93978)">
        <path
           d="m 404.3865,529.0377 c 0.5646,1.3051 2.11213,3.6078 2.7225,4.2492 0.6104,0.64144 1.11475,1.1907 1.54884,1.67074 0.43406,0.4801 0.79013,0.89646 1.06439,1.24636 0.27427,0.34983 0.49612,0.659 0.71157,0.94834 0.21546,0.28931 0.44843,0.63172 0.70924,1.04066 0.2608,0.4089 0.54821,0.8832 0.92466,1.3816 0.37645,0.49834 0.79686,1.08885 0.9644,1.3138 0.16755,0.22506 0.46323,0.7122 0.89435,1.4726 0.43109,0.76046 0.99362,1.7833 1.70075,3.05807 0.7071,1.27473 1.5552,2.7251 1.8713,3.93923 0.3161,1.21415 0.3161,1.21415 0.2445,0.3686 0,0 0.27424,-1.7993 -0.2704,-3.40134 -0.54468,-1.60211 -1.01792,-2.88952 -1.4198,-3.90266 -0.40192,-1.0131 -0.7225,-1.7619 -0.97452,-2.27086 -0.25202,-0.50897 -0.39066,-0.70014 -0.7222,-1.28974 -0.33151,-0.58953 -0.63205,-1.1445 -0.97595,-1.596 -0.34391,-0.4515 -0.6608,-0.8466 -0.95261,-1.1871 -0.29182,-0.34037 -0.53485,-0.5972 -0.83075,-0.9181 -0.2959,-0.32095 -0.68243,-0.6915 -1.14175,-1.1068 -0.45935,-0.41526 -0.99512,-0.8759 -1.61482,-1.37693 -0.61965,-0.50107 -1.2638,-0.98107 -2.3714,-1.82547 -1.97298,-1.90354 -1.21685,-0.7549 -2.0823,-1.8142 z"
           id="path1125" />
      </g>
      <g
         style="fill:#000000;fill-opacity:1;stroke-linejoin:miter"
         id="g1131"
         transform="rotate(90,259.41968,748.93978)">
        <path
           d="m 461.8094,542.9336 c -1.17946,-0.46796 -3.4411,-0.97596 -5.49653,-1.49555 -2.05542,-0.51959 -3.90253,-1.08585 -5.53965,-1.71105 -1.63712,-0.6252 -3.06247,-1.31324 -4.80148,-2.28846 -1.73904,-0.97524 -3.61926,-2.03357 -5.10376,-2.8775 -1.48453,-0.84394 -2.56378,-1.47834 -3.20355,-1.89344 -0.63977,-0.4151 -0.69229,-0.451 -1.13791,-0.8926 -0.44562,-0.4416 -1.06967,-1.0711 -1.58082,-1.69346 -0.51113,-0.62244 -0.91112,-1.23684 -1.2129,-1.83874 -0.30183,-0.60193 -0.50578,-1.1974 -0.571,-1.807 -0.0652,-0.60957 -0.0437,-1.4743 0.0327,-2.2633 0.0763,-0.78896 0.21283,-1.504 0.40888,-2.1481 0.19604,-0.644 0.449,-1.2216 0.71844,-1.72545 0.26944,-0.50385 0.58023,-0.91685 1.17889,-1.52235 0.5987,-0.60546 1.47174,-1.35656 2.60675,-2.2296 1.13502,-0.87305 2.5261,-1.8599 3.67554,-2.7663 1.14944,-0.9064 1.47342,-1.331 1.74731,-1.7709 0.2739,-0.43982 0.49287,-0.90323 0.64365,-1.39914 0.15079,-0.49591 0.21612,-1.02503 0.17716,-1.67508 -0.039,-0.65006 -0.15348,-1.39466 -0.33354,-2.09644 -0.18005,-0.70178 -0.43203,-1.35977 -0.76412,-1.9678 -0.33208,-0.60806 -0.74832,-1.15622 -1.10798,-1.55521 -0.3596,-0.39899 -0.8643,-0.91348 -1.48638,-1.47293 -0.6221,-0.55948 -1.36987,-1.1771 -2.26099,-1.84466 -0.89113,-0.66761 -1.91613,-1.40284 -2.56485,-1.87922 -0.64871,-0.47642 -0.98268,-0.78852 -1.26846,-1.06256 -0.28574,-0.27406 -0.51622,-0.51318 -0.69282,-0.70796 -0.17657,-0.1948 -0.2959,-0.33733 -0.51604,-0.62028 -0.22019,-0.28299 -0.39866,-0.54462 -0.51398,-0.77228 -0.11533,-0.22769 -0.17511,-0.42902 -0.19562,-0.62074 -0.0205,-0.19173 2.8e-4,-0.3944 0.14194,-0.8659 0.14166,-0.4715 0.5163,-1.3488 1.1263,-2.4856 0.61006,-1.13677 1.45243,-2.51125 2.5139,-4.11816 1.06146,-1.6069 2.33798,-3.44396 3.52212,-4.94281 1.18412,-1.49887 2.20673,-2.57455 3.21552,-3.5856 1.00882,-1.01103 1.99686,-1.96731 2.96166,-2.87619 0.96485,-0.90887 1.90076,-1.78404 2.38618,-2.23736 0.48542,-0.45334 0.53305,-0.51715 0.5813,-0.59986 0.0482,-0.0827 0.0985,-0.18506 0.16247,-0.3009 0.064,-0.11584 0.14197,-0.24672 0.20375,-0.35492 0.0617,-0.10818 0.0617,-0.10818 0.0206,-0.0361 0,0 -0.0823,0.14427 -0.15806,0.26849 -0.0757,0.12421 -0.1593,0.21845 -0.23468,0.29108 -0.0754,0.0726 -0.13922,0.1247 -0.18892,0.15503 -0.0498,0.0303 -1.19154,0.57097 -2.3349,1.22314 -1.1434,0.65213 -2.29215,1.4007 -3.44358,2.2425 -1.15142,0.84176 -2.31204,1.7659 -3.51412,2.79797 -1.20213,1.03206 -2.85792,2.94464 -4.24064,4.63586 -1.38272,1.69126 -2.52954,3.20176 -3.4422,4.5389 -0.91266,1.33717 -1.60303,2.50737 -2.06278,3.52385 -0.45971,1.01645 -0.63938,1.63269 -0.69803,2.26875 -0.0587,0.636 0.005,1.27464 0.18103,1.8928 0.1763,0.61814 0.456,1.2038 0.79209,1.71287 0.33606,0.50906 0.45623,0.69235 0.67383,0.97993 0.2176,0.28755 0.47256,0.58516 0.76422,0.90493 0.29162,0.31977 0.62201,0.66517 1.06045,1.08883 0.43845,0.42368 1.55326,1.26901 2.46268,1.98274 0.90939,0.7137 1.67755,1.33818 2.30267,1.86727 0.62513,0.52911 1.09375,0.96551 1.43274,1.33288 0.33896,0.3674 0.61832,0.65958 0.77652,0.89325 0.15822,0.2337 0.30338,0.5329 0.42912,0.90784 0.1257,0.37496 0.22518,0.82906 0.291,1.36368 0.0658,0.5346 0.0666,0.54501 0.0558,0.59411 -0.0108,0.0491 -0.0517,0.16037 -0.14155,0.32944 -0.0899,0.16907 -0.23703,0.38783 -0.30305,0.51423 -0.066,0.12637 -1.58834,1.1581 -2.974,2.1657 -1.3856,1.00763 -2.5413,1.92676 -3.47582,2.771 -0.93454,0.84424 -1.65945,1.6383 -2.14318,2.375 -0.4837,0.7367 -0.89152,1.4952 -1.24116,2.38794 -0.34961,0.8927 -0.60089,1.84066 -0.75756,2.83896 -0.15665,0.99844 -0.2147,2.0456 -0.16932,3.20974 0.0454,1.16406 0.34031,2.24806 0.73944,3.14476 0.39914,0.89675 0.91587,1.7537 1.5512,2.56386 0.6354,0.81014 1.37904,1.57794 2.174,2.26074 0.79495,0.6828 0.8053,0.764 1.43533,1.19294 0.63007,0.42896 1.53991,0.91836 2.83404,1.57232 1.29413,0.65394 2.98767,1.47589 5.09195,2.45314 2.10428,0.9772 3.57761,1.65386 5.27466,2.22826 1.69705,0.57434 3.569,1.03114 5.62092,1.35424 2.0519,0.32307 4.2836,0.5045 5.47982,0.35377 2.41468,-0.0407 1.20892,-0.29147 2.42738,-0.18127 z"
           id="path1129" />
      </g>
      <g
         style="fill:#000000;fill-opacity:1;stroke-linejoin:miter"
         id="g1135"
         transform="rotate(90,259.41968,748.93978)">
        <path
           d="m 464.13684,529.7263 c -0.31974,-0.5613 -1.04684,-1.52134 -1.69549,-2.4691 -0.64863,-0.9477 -1.20707,-1.901 -1.67555,-2.8658 -0.46844,-0.96476 -0.85174,-1.9433 -1.16058,-2.9705 -0.3088,-1.02716 -0.56342,-2.1136 -0.75092,-3.2722 -0.18752,-1.1586 -0.31545,-2.3889 -0.38067,-3.6929 -0.0652,-1.30407 -0.0649,-2.68273 -0.0428,-3.4516 0.0221,-0.76882 0.0303,-0.88182 0.0425,-1.06646 0.0122,-0.1846 0.0301,-0.43364 0.0518,-0.74389 0.0216,-0.31025 0.0487,-0.68082 0.11183,-1.26953 0.0631,-0.58875 0.14423,-1.40796 0.2327,-2.24738 0.0885,-0.83939 0.18437,-1.699 0.27661,-2.57971 0.0922,-0.88071 0.18796,-1.78186 0.32092,-2.8501 0.13297,-1.06827 0.3158,-2.47503 0.50779,-4.06811 0.19198,-1.59305 0.39325,-3.37278 0.53329,-5.34589 0.14001,-1.97313 0.2886,-4.13313 0.37549,-5.96405 0.0868,-1.8309 0.11607,-3.00328 0.13989,-3.97998 0.0238,-0.9767 0.0424,-1.75678 0.061,-2.33637 0.0186,-0.57955 0.0363,-0.94943 0.10864,-2.10571 0.0723,-1.15628 0.17785,-2.97876 0.2645,-4.46997 0.0866,-1.49125 0.15612,-2.65018 0.21038,-3.47342 0.0543,-0.82323 0.0915,-1.29935 0.26139,-2.69815 0.16983,-1.3988 0.48565,-3.66873 0.80987,-5.53976 0.32419,-1.87104 0.65622,-3.34796 1.00366,-4.44352 0.34748,-1.09558 0.74863,-1.81835 1.13593,-2.1165 0.3873,-0.2982 0.3873,-0.2982 0.12219,-0.10643 0,0 -0.55099,0.36253 -1.19928,1.09195 -0.64824,0.7294 -1.30904,1.89108 -1.9436,3.47534 -0.63452,1.58429 -1.24652,3.58084 -1.83347,5.9798 -0.58694,2.39894 -0.65397,2.71094 -0.75793,3.33756 -0.10398,0.62661 -0.25202,1.56898 -0.43219,2.83748 -0.18018,1.26854 -0.40255,2.86378 -0.65268,4.78602 -0.25015,1.92228 -0.28861,2.19228 -0.34087,2.67615 -0.0523,0.48386 -0.11564,1.14978 -0.18703,2.00586 -0.0714,0.85607 -0.1553,1.90402 -0.24475,3.12091 -0.0895,1.21686 -0.33902,3.46124 -0.56932,5.54309 -0.23036,2.08182 -0.45103,3.9747 -0.5901,5.68542 -0.13907,1.71075 -0.26306,3.23298 -0.38123,4.57985 -0.11813,1.34685 -0.17324,2.30095 -0.22293,3.20202 -0.0497,0.90106 -0.0976,1.78146 -0.13812,2.64172 -0.0405,0.86029 -0.0805,1.69983 -0.11618,2.52516 -0.0356,0.8253 -0.0421,1.2676 -0.0511,1.62712 -0.009,0.35956 -0.0119,0.66205 -0.0127,0.90888 -8.6e-4,0.24682 0.001,0.44165 0.007,0.58206 0.006,0.14041 0.0696,1.63809 0.20536,3.08384 0.13577,1.4457 0.34227,2.8152 0.62271,4.1066 0.28046,1.2915 0.63196,2.50435 1.05016,3.6344 0.41825,1.13014 0.90174,2.18227 1.4877,3.19423 0.58598,1.0119 1.2723,1.96851 2.06693,2.85937 0.79462,0.89094 1.69492,1.71204 2.25501,2.0204 1.01946,0.7262 0.65516,0.2039 1.1145,0.6218 z"
           id="path1133" />
      </g>
    </g>
  </g>
</svg>
