<?xml version="1.0" encoding="UTF-8" standalone="no"?>
<svg
   version="1.1"
   width="135.38521"
   height="135.38521"
   viewBox="0 0 135.38521 135.38521"
   id="svg1214"
   xmlns="http://www.w3.org/2000/svg"
   xmlns:svg="http://www.w3.org/2000/svg">
  <defs
     id="defs1218" />
  <g
     id="g7478"
     transform="translate(-707.44147,-1129.7841)">
    <rect
       style="display:inline;opacity:0.5;fill:none;fill-opacity:1;stroke:none;stroke-width:2.66644;stroke-dasharray:none;stroke-opacity:1"
       id="rect5427"
       width="135.38521"
       height="135.38521"
       x="707.44147"
       y="1129.7841" />
    <g
       id="g4158"
       transform="matrix(1.1509655,0,0,1.1509655,1254.5633,158.2219)">
      <g
         style="fill:#000000;fill-opacity:1;stroke-linejoin:miter"
         id="g219"
         transform="rotate(90,259.41968,748.93978)">
        <path
           d="m 391.38254,1470.0146 c -0.14504,-0.036 -0.54767,-0.1185 -1.12354,-0.2791 -0.57586,-0.1607 -1.3278,-0.3874 -2.25732,-0.6787 -0.92954,-0.2914 -2.03784,-0.6447 -2.76865,-0.8766 -0.73077,-0.2318 -0.96405,-0.3264 -1.22946,-0.4541 -0.26541,-0.1276 -0.56253,-0.2858 -0.88852,-0.4782 -0.32595,-0.1924 -0.67755,-0.4231 -1.18732,-0.9597 -0.50979,-0.5366 -1.26699,-1.4744 -1.88311,-2.3505 -0.61612,-0.8762 -1.09792,-1.6818 -1.44178,-2.4144 -0.34381,-0.7325 -0.55349,-1.3857 -0.62444,-2.1105 -0.071,-0.7248 -0.13727,-1.685 -0.096,-2.6028 0.0413,-0.9175 0.16861,-1.7968 0.39585,-2.6393 0.22722,-0.8427 0.54445,-1.6558 0.78225,-2.1405 0.23779,-0.4848 0.33419,-0.6539 0.4433,-0.8338 0.1091,-0.1799 0.23913,-0.364 0.38255,-0.5577 0.14345,-0.1936 0.30025,-0.3967 0.0566,-0.9054 -0.24368,-0.5087 -0.24368,-0.5087 -0.34048,-0.4035 0,0 -0.97138,-0.4909 -1.17786,-0.2791 -0.20645,0.2118 -0.39276,0.4279 -0.56885,0.641 -0.17607,0.2128 -0.3403,0.4241 -0.49301,0.6472 -0.15271,0.2231 -0.68869,1.0993 -1.13034,2.0666 -0.44168,0.9672 -0.76889,1.9912 -0.9841,3.0663 -0.21522,1.0751 -0.31869,2.1979 -0.26742,3.3948 0.0513,1.1969 0.32516,2.154 0.73675,3.031 0.41159,0.8769 0.96109,1.7589 1.64752,2.6515 0.68647,0.8927 1.50833,1.8011 2.48273,2.7517 0.97437,0.9504 1.57233,1.2916 1.98364,1.487 0.41129,0.1954 0.79926,0.3595 1.1637,0.4959 0.36446,0.1362 0.71094,0.2344 1.02736,0.3032 0.31645,0.069 1.60023,0.2825 2.70695,0.4295 1.10675,0.1469 2.03308,0.2299 2.77625,0.2573 0.74313,0.027 1.30203,-4e-4 1.52118,-0.053 0.36832,-0.066 0.20636,-0.1929 0.35556,-0.2065 z"
           id="path217" />
      </g>
      <g
         style="fill:#000000;fill-opacity:1;stroke-linejoin:miter"
         id="g223"
         transform="rotate(90,259.41968,748.93978)">
        <path
           d="m 387.73416,1407.6097 c -0.31143,-0.5854 -1.01436,-1.514 -1.60976,-2.3116 -0.59538,-0.7977 -1.0608,-1.4831 -1.39295,-2.0501 -0.33213,-0.5667 -0.52625,-1.0043 -0.92565,-2.0366 -0.39946,-1.0322 -0.96226,-2.4846 -1.4018,-3.7043 -0.43958,-1.2197 -0.7404,-2.206 -0.90525,-2.9359 -0.16485,-0.73 -0.20029,-1.1585 -0.19095,-1.4958 0.009,-0.3371 0.0944,-0.804 0.2797,-1.3762 0.18524,-0.572 0.47094,-1.2413 0.86047,-1.999 0.38953,-0.7577 0.88553,-1.5974 1.24118,-2.1602 0.35562,-0.5626 0.51155,-0.7977 0.68658,-1.0466 0.17505,-0.2488 0.3693,-0.5112 0.58252,-0.7869 0.21325,-0.2755 0.44357,-0.5656 0.99658,-1.1905 0.55304,-0.6249 1.33744,-1.5288 1.96897,-2.299 0.63153,-0.77 1.10797,-1.4072 1.44168,-1.8969 0.33374,-0.4897 0.55972,-0.8 0.66675,-0.9544 0.10702,-0.1544 0.10702,-0.1544 0.0357,-0.052 0,0 -0.1427,0.2059 -0.47995,0.5045 -0.33728,0.2986 -0.85873,0.6938 -1.54255,1.2072 -0.68377,0.5134 -1.5159,1.1612 -2.50606,1.9437 -0.99018,0.7825 -1.31201,1.0751 -1.58872,1.3403 -0.2767,0.2653 -0.53402,0.5236 -0.77325,0.7746 -0.23927,0.2508 -0.4603,0.4947 -0.66333,0.7337 -0.20304,0.2391 -0.89392,1.1032 -1.48424,1.9284 -0.59038,0.8253 -1.07414,1.6068 -1.45168,2.3503 -0.37752,0.7434 -0.64865,1.4557 -0.80192,2.1387 -0.15324,0.6829 -0.1987,1.3404 -0.0219,2.1428 0.17679,0.8023 0.51291,1.7335 0.99753,2.8369 0.48462,1.1035 1.11896,2.3924 1.91602,3.857 0.79706,1.4646 1.00314,1.8943 1.38432,2.4536 0.38118,0.5592 0.90428,1.1579 1.56917,1.8105 0.66488,0.6526 1.48208,1.3555 2.02073,1.6447 0.99386,0.7299 0.63686,0.1879 1.09206,0.6286 z"
           id="path221" />
      </g>
      <g
         style="fill:#000000;fill-opacity:1;stroke-linejoin:miter"
         id="g227"
         transform="rotate(90,259.41968,748.93978)">
        <path
           d="m 408.08707,1461.7146 c -0.58905,-0.2299 -1.67704,-0.4961 -2.60941,-0.7751 -0.93234,-0.279 -1.70468,-0.5981 -2.3179,-0.9475 -0.61322,-0.3494 -1.0701,-0.725 -1.40671,-1.0997 -0.33661,-0.3747 -0.58777,-0.6983 -0.81095,-1.0376 -0.22317,-0.3393 -0.41427,-0.6983 -0.58376,-1.073 -0.16947,-0.3747 -0.31137,-0.7701 -0.41784,-1.1124 -0.10645,-0.3423 -0.15162,-0.5578 -0.17903,-0.8238 -0.0274,-0.266 -0.033,-0.5818 -0.0133,-0.9454 0.0197,-0.3635 0.0663,-0.7734 0.1232,-1.0129 0.0568,-0.2394 0.18832,-0.4969 0.38711,-0.8057 0.19879,-0.3087 0.46891,-0.663 0.81645,-1.0528 0.3475,-0.3898 0.7671,-0.8162 1.2843,-1.1802 0.51717,-0.364 1.34368,-0.8845 2.16305,-1.4623 0.81935,-0.5776 1.60285,-1.2453 2.37619,-1.9651 0.77331,-0.7198 1.53986,-1.4875 1.86023,-1.8397 0.32033,-0.3522 0.21286,-0.2844 0.0524,-0.2242 -0.16054,0.06 -0.36494,0.087 -0.56884,0.062 -0.20396,-0.025 -0.36943,-0.09 -0.58107,-0.2596 -0.21167,-0.1695 -0.3374,-0.3647 -0.37183,-0.462 -0.0345,-0.097 -0.0332,-0.1128 -0.0242,-0.071 0.009,0.042 0.0174,0.1299 0.0251,0.2646 0.008,0.1347 0.008,0.02 -1.6e-4,0.143 -0.009,0.1234 -0.032,0.3595 -0.0648,0.6902 -0.0329,0.3308 -0.0768,0.7524 -0.0934,1.6118 -0.0166,0.8594 0.0219,1.9383 0.5885,7.6077 0.56663,5.6693 0.60126,5.8929 0.62803,6.1516 0.0268,0.2588 0.05,0.5542 0.0656,0.8857 0.0156,0.3316 0.0292,0.6991 0.0189,1.0992 -0.0103,0.4001 -0.01,0.4455 -0.005,0.4734 0.005,0.028 0.0134,0.038 0.0265,0.03 0.0131,-0.01 0.0303,-0.033 0.0454,-0.06 0.0151,-0.028 0.0151,-0.028 0.005,-0.01 0,0 -0.0201,0.037 -0.036,0.056 -0.0159,0.019 -0.0275,0.021 -0.0349,0 -0.007,-0.016 -0.0107,-0.05 0.0375,-0.2719 0.0481,-0.2223 0.16608,-0.5971 0.26361,-0.9445 0.0975,-0.3474 0.17508,-0.6674 0.23297,-0.9606 0.0579,-0.2933 0.0966,-0.5604 0.27707,-3.5301 0.18048,-2.9698 0.33481,-8.6496 0.38913,-9.642 0.0543,-0.9923 0.13287,-1.3406 0.21332,-1.738 0.0804,-0.3976 0.13898,-0.7133 0.17723,-0.9538 0.0383,-0.2404 0.0603,-0.4293 0.06,-0.5492 -3e-4,-0.1197 0.009,-0.2276 0.008,-0.4211 -8.5e-4,-0.1934 -0.0176,-0.3895 -0.0652,-0.6071 -0.0476,-0.2175 -0.1554,-0.4776 -0.39564,-0.7667 -0.2402,-0.289 -0.5286,-0.4632 -0.78893,-0.5401 -0.26032,-0.077 -0.55115,-0.088 -0.82153,-0.03 -0.27039,0.058 -0.49412,0.1642 -0.67896,0.3003 -0.18488,0.1362 -0.97571,0.8457 -1.7413,1.498 -0.7656,0.6522 -1.52582,1.2564 -2.26111,1.8387 -0.73529,0.5822 -1.4512,1.1405 -2.23233,1.7045 -0.7811,0.5639 -1.40207,1.2258 -1.83734,1.7501 -0.43527,0.5242 -0.8,1.0361 -1.10272,1.5332 -0.30278,0.4971 -0.54233,0.986 -0.71564,1.5203 -0.17328,0.5343 -0.21597,1.1635 -0.21311,1.6611 0.003,0.4974 0.0354,0.9629 0.10035,1.3983 0.0649,0.4354 0.16525,0.8421 0.2947,1.1907 0.12946,0.3486 0.32608,0.8171 0.5683,1.2921 0.24225,0.4751 0.51807,0.9225 0.83307,1.3366 0.31497,0.414 0.65625,0.802 1.0282,1.1544 0.37198,0.3524 0.94348,0.8131 1.67163,1.2011 0.72812,0.388 1.57419,0.6584 2.53312,0.825 0.9589,0.1665 2.0339,0.2241 2.61947,0.1098 1.19173,-0.08 0.59363,-0.255 1.1998,-0.2204 z"
           id="path225" />
      </g>
      <g
         style="fill:#000000;fill-opacity:1;stroke-linejoin:miter"
         id="g231"
         transform="rotate(90,259.41968,748.93978)">
        <path
           d="m 408.8713,1401.5334 c -0.29336,-0.1264 -0.85998,-0.3193 -1.38384,-0.5654 -0.52386,-0.2461 -1.01322,-0.5426 -1.47052,-0.9018 -0.45731,-0.3594 -0.88404,-0.7854 -1.37992,-1.4378 -0.49588,-0.6523 -1.04727,-1.4332 -1.48404,-2.062 -0.43676,-0.6287 -0.7572,-1.1024 -0.94772,-1.4121 -0.19056,-0.3097 -0.22632,-0.3877 -0.32256,-0.594 -0.0962,-0.2063 -0.24198,-0.4888 -0.4286,-0.8629 -0.18658,-0.3742 -0.4128,-0.838 -0.67792,-1.3903 -0.26513,-0.5522 -0.56888,-1.1925 -0.75198,-1.5927 -0.1831,-0.4003 -0.2273,-0.5235 -0.25247,-0.6238 -0.0251,-0.1002 -0.0339,-0.1743 -0.0336,-0.219 3e-4,-0.045 0.005,-0.061 0.0259,-0.2239 0.021,-0.1631 0.0598,-0.2721 0.14407,-0.4172 0.0843,-0.1452 0.23206,-0.3313 0.45734,-0.5518 0.22532,-0.2203 0.53672,-0.4626 1.18014,-0.8246 0.64344,-0.3619 1.66196,-0.8847 2.63028,-1.3778 0.96836,-0.4929 1.88703,-0.9548 2.73047,-1.4363 0.84343,-0.4815 1.64533,-0.919 2.29401,-1.3086 0.64865,-0.3896 0.90268,-0.5864 1.12048,-0.7502 0.21784,-0.1638 0.39749,-0.2938 0.53254,-0.3904 0.13506,-0.096 0.21856,-0.1508 0.34625,-0.2258 0.12771,-0.075 0.1615,-0.098 0.1445,-0.095 -0.017,0 -0.1182,0.029 -0.40381,0.026 -0.28562,0 -0.79901,-0.2422 -1.44804,0.9941 -0.64904,1.236 -1.39892,5.1951 -1.4826,5.716 -0.0836,0.5209 -0.1494,0.9824 -0.20605,1.392 -0.0566,0.4095 -0.0979,0.7691 -0.12769,1.0794 -0.0298,0.3104 -0.0515,0.6055 -0.0458,2.4177 0.006,1.8121 0.0727,2.5177 0.1307,3.0854 0.0581,0.5678 0.10816,1.0326 0.14182,1.3944 0.0337,0.3617 0.0486,0.6188 0.0414,0.783 -0.007,0.1643 0.0279,0.3555 0.0712,0.5183 0.0433,0.1629 0.0943,0.3141 0.1479,0.4546 0.0536,0.1404 0.0971,0.2755 0.13435,0.3723 0.0372,0.097 0.0372,0.097 0.0124,0.032 0,0 -0.0496,-0.1291 -0.0832,-0.2689 -0.0336,-0.1398 -0.0405,-0.2906 -0.0367,-0.4475 0.004,-0.157 0.0181,-0.3201 0.0541,-0.4482 0.036,-0.1282 0.0961,-0.331 0.16345,-0.6319 0.0674,-0.301 0.1381,-0.7038 0.21122,-1.2097 0.0732,-0.5057 0.13812,-1.1147 0.31406,-2.3201 0.17593,-1.2054 0.44344,-2.9819 0.49322,-3.2043 0.0498,-0.2224 0.12024,-0.5171 0.20843,-0.866 0.0882,-0.3488 0.19145,-0.7517 0.31491,-1.2065 0.12344,-0.4547 0.2605,-0.945 1.37488,-4.8172 1.11438,-3.8721 0.54946,-5.389 0.04,-5.541 -0.50946,-0.1521 -0.8139,-0.1095 -1.01303,-0.043 -0.19913,0.066 -0.35501,0.1383 -0.46378,0.1967 -0.10873,0.058 -0.21277,0.1053 -0.40927,0.2115 -0.1965,0.1063 -0.41083,0.2311 -0.6498,0.3828 -0.23896,0.1517 -0.50706,0.3288 -0.7219,0.478 -0.21485,0.1491 -0.96524,0.4818 -1.83768,0.8909 -0.87247,0.4092 -1.79322,0.845 -2.71972,1.3867 -0.92652,0.5416 -1.89783,1.1146 -2.9288,1.7509 -1.03098,0.6362 -1.58558,1.0792 -1.99662,1.483 -0.41108,0.4038 -0.75592,0.8306 -1.02142,1.2937 -0.26554,0.4632 -0.44419,0.963 -0.50326,1.4276 -0.0591,0.4646 -0.0705,0.6251 -0.0575,0.884 0.013,0.2589 0.0589,0.5085 0.13025,0.7489 0.0713,0.2405 0.16182,0.4759 0.27838,0.7207 0.11654,0.2449 0.52249,0.9245 0.87616,1.5102 0.35368,0.5857 0.66128,1.0892 0.92328,1.5114 0.26202,0.4223 0.4791,0.7643 0.63195,0.9913 0.15287,0.2269 0.17285,0.297 0.3819,0.5992 0.20905,0.3022 0.52285,0.6774 0.95883,1.1758 0.43598,0.4984 1.00507,1.1207 1.72037,1.8816 0.71533,0.761 1.29892,1.2395 1.88465,1.6069 0.58572,0.3673 1.19372,0.6398 1.81585,0.819 0.6221,0.1792 1.25522,0.2589 1.58142,0.2134 0.63516,-0.02 0.33765,-0.1862 0.64663,-0.1611 z"
           id="path229" />
      </g>
      <g
         style="fill:#000000;fill-opacity:1;stroke-linejoin:miter"
         id="g235"
         transform="rotate(90,259.41968,748.93978)">
        <path
           d="m 446.4663,1445.442 c 0.97862,-1.7032 2.25532,-5.2945 2.3362,-5.5516 0.0808,-0.2572 0.1511,-0.5253 0.2236,-0.8096 0.0725,-0.2842 0.143,-0.5858 0.214,-0.9043 0.071,-0.3185 0.14317,-0.6483 0.1918,-0.8868 0.0486,-0.2386 0.094,-0.5047 0.13774,-0.7932 0.0438,-0.2886 0.0859,-0.5996 0.12671,-0.9338 0.0408,-0.3341 0.0813,-0.716 0.11047,-1.1491 0.0292,-0.433 0.0639,-0.8861 0.10434,-1.3731 0.0405,-0.487 0.0867,-1.0078 0.13419,-1.5625 0.0475,-0.5547 0.0997,-1.1593 0.11291,-1.4353 0.0132,-0.2759 0.0219,-0.5522 0.0319,-0.8441 0.01,-0.2919 0.0139,-0.5991 0.0157,-0.922 0.002,-0.3229 0.001,-0.6621 -0.026,-1.8859 -0.0275,-1.2237 -0.10727,-2.2147 -0.17315,-2.9764 -0.0659,-0.7616 -0.11036,-1.2972 -0.1455,-1.6321 -0.0351,-0.3349 -0.0549,-0.4194 -0.16438,-1.0888 -0.10952,-0.6695 -0.22502,-1.3864 -0.33857,-2.148 -0.11352,-0.7617 -0.23263,-1.5671 -0.35583,-2.4162 -0.12317,-0.849 -0.25312,-1.7468 -0.28322,-1.9249 -0.0301,-0.1779 -0.0582,-0.3416 -0.0877,-0.4987 -0.0295,-0.157 -0.0613,-0.3072 -0.0937,-0.451 -0.0324,-0.1438 -0.0629,-0.2662 -0.13312,-0.5436 -0.0703,-0.2773 -0.19552,-0.683 -0.3774,-1.2178 -0.1819,-0.5347 -0.4269,-1.2008 -0.7335,-2.0012 -0.30658,-0.8005 -0.6836,-1.7311 -0.7484,-1.8733 -0.0648,-0.1423 -0.20182,-0.3777 -0.41722,-0.7125 -0.21538,-0.3348 -0.51205,-0.7722 -0.8302,-1.1246 -0.31814,-0.3524 -0.31814,-0.3524 -0.1824,-0.08 0,0 0.0424,0.6587 0.19144,1.1145 0.14901,0.4557 0.25244,0.7827 0.30584,0.9706 0.0534,0.1879 0.059,0.2478 0.23572,1.1843 0.17672,0.9365 0.33868,1.7197 0.46085,2.3566 0.12217,0.6367 0.21322,1.1224 0.26413,1.4497 0.0509,0.3274 0.066,0.514 0.0795,0.6453 0.0135,0.1312 0.0247,0.2626 0.0353,0.4018 0.0105,0.1392 0.022,0.2855 0.0319,0.4397 0.01,0.1541 0.0149,0.2999 0.0466,1.1909 0.0317,0.891 0.0632,1.7422 0.10346,2.5502 0.0403,0.808 0.0912,1.5727 0.14111,2.2954 0.0499,0.7227 0.0997,1.411 0.10477,1.5118 0.005,0.1009 0.0139,0.4548 0.0183,1.052 0.004,0.5975 0.004,1.4305 0.0173,2.4959 0.0135,1.0653 0.1116,2.3599 0.13238,2.6792 0.0208,0.3195 0.0384,0.6224 0.0543,0.9087 0.0159,0.2864 0.0318,0.5557 0.0404,0.808 0.009,0.2523 0.0186,0.458 0.0162,1.0372 -0.002,0.5793 -0.006,1.1333 1.5e-4,1.6544 0.006,0.5211 0.0152,1.0091 0.0266,1.464 0.0113,0.455 0.026,0.8491 0.0217,1.1709 -0.004,0.3217 -0.0125,0.6305 -0.024,0.9138 -0.0115,0.2834 -0.0262,0.5407 -0.0436,0.7718 -0.0174,0.2312 -0.0361,0.4476 -0.0642,0.7705 -0.0281,0.3227 -0.0626,0.6239 -0.0963,0.9067 -0.0337,0.283 -0.0711,0.547 -0.10765,0.7928 -0.0365,0.2459 -0.067,0.4587 -0.17523,2.3957 -0.6026,3.7709 0.028,1.974 -0.46632,3.8077 z"
           id="path233" />
      </g>
    </g>
  </g>
</svg>
