<?xml version="1.0" encoding="UTF-8" standalone="no"?>
<!-- Created with Inkscape (http://www.inkscape.org/) -->

<svg
   width="268.67789em"
   height="268.67789em"
   viewBox="0 0 268.67789 268.67789"
   version="1.1"
   id="svg5"
   xml:space="preserve"
   xmlns="http://www.w3.org/2000/svg"
   xmlns:svg="http://www.w3.org/2000/svg"><defs
     id="defs2" /><g
     id="layer1"
     transform="translate(1620.2488,-387.59927)"><g
       id="g53697"><rect
         style="display:inline;fill:none;fill-opacity:1;stroke:none;stroke-width:5.29167;stroke-dasharray:none;stroke-opacity:1"
         id="rect53395"
         width="268.67789"
         height="268.67789"
         x="-1620.2488"
         y="387.59927" /><g
         id="g52739"
         transform="matrix(2.8763753,0,0,2.8763753,-4043.38,-1788.1327)"><g
           style="fill:#000000;fill-opacity:1;stroke-linejoin:miter"
           id="g50656"
           transform="matrix(0.0212301,0.88760364,-0.82571352,0.02282136,2056.9295,403.92004)"><path
             d="m 391.36923,1469.8683 c -0.13446,-0.037 -0.52383,-0.1189 -1.09128,-0.2907 -0.56741,-0.1718 -1.30825,-0.4344 -2.22405,-0.7719 -0.91578,-0.3376 -2.00785,-0.7449 -2.71805,-1.0207 -0.71021,-0.2757 -0.91815,-0.371 -1.16147,-0.5011 -0.24332,-0.1299 -0.51905,-0.2951 -0.82135,-0.5018 -0.30233,-0.2067 -0.6319,-0.4501 -1.04438,-0.9629 -0.41245,-0.5128 -1.12115,-1.4582 -1.67615,-2.3363 -0.55502,-0.8779 -0.97555,-1.6656 -1.25585,-2.3579 -0.28028,-0.6923 -0.42835,-1.2769 -0.44959,-1.8794 -0.0213,-0.6024 -0.28846,-1.5019 -0.28628,-2.3696 0.002,-0.8677 0.079,-1.7036 0.2388,-2.517 0.15972,-0.8133 0.41507,-1.6077 0.61542,-2.0859 0.2003,-0.4783 0.2797,-0.6419 0.37506,-0.8168 0.0954,-0.1748 0.20666,-0.36 0.33354,-0.5554 0.1269,-0.1955 0.26732,-0.4026 -0.11852,-1.0394 -0.3858,-0.6369 -0.3858,-0.6369 -0.4826,-0.5317 0,0 -1.25565,-0.7473 -1.47718,-0.5376 -0.22152,0.2096 -0.42718,0.4225 -0.61932,0.6372 -0.19214,0.2146 -0.37045,0.4316 -0.54242,0.6648 -0.172,0.2332 -0.76138,1.1076 -1.26776,2.0967 -0.50635,0.9893 -0.90103,2.0466 -1.16678,3.1673 -0.26574,1.1206 -0.39688,2.2956 -0.42692,3.5738 -0.0301,1.2782 0.305,2.378 0.77934,3.3136 0.47433,0.9357 1.08704,1.8495 1.83353,2.7542 0.74646,0.9047 1.63177,1.8033 2.67257,2.746 1.0408,0.9428 1.74906,1.3394 2.18384,1.5197 0.43478,0.1803 0.84512,0.3334 1.23166,0.4628 0.38654,0.1292 0.75442,0.2296 1.0936,0.2927 0.33916,0.063 1.64398,0.1997 2.76651,0.2932 1.12255,0.093 2.061,0.1371 2.8139,0.1375 0.75287,3e-4 1.32025,-0.032 1.5513,-0.084 0.38025,-0.066 0.19168,-0.4859 0.34088,-0.4994 z"
             id="path50654" /></g><g
           style="fill:#000000;fill-opacity:1;stroke-linejoin:miter"
           id="g50660"
           transform="matrix(0.0212301,0.88760364,-0.82571352,0.02282136,2056.9295,403.92004)"><path
             d="m 387.83643,1407.504 c -0.30673,-0.588 -0.98029,-1.5403 -1.53101,-2.3685 -0.55075,-0.8282 -0.97907,-1.5267 -1.26562,-2.0963 -0.2866,-0.5696 -0.4282,-0.9871 -0.7851,-2.0388 -0.3569,-1.0518 -0.8468,-2.5255 -1.23004,-3.7492 -0.38321,-1.2235 -0.62549,-2.199 -0.74579,-2.8833 -0.1203,-0.6844 -0.11542,-1.0071 -0.21353,-1.2571 -0.0981,-0.25 -0.0587,-0.6638 0.0758,-1.2088 0.13453,-0.5451 0.37203,-1.2053 0.71521,-1.9665 0.34314,-0.7611 0.78479,-1.6204 1.10099,-2.2031 0.31619,-0.5825 0.45331,-0.8255 0.6094,-1.0844 0.1561,-0.259 0.3313,-0.5334 0.52527,-0.823 0.194,-0.2896 0.40659,-0.5938 0.91583,-1.2588 0.50928,-0.6652 1.25275,-1.6122 1.85056,-2.4158 0.59781,-0.8036 1.06122,-1.4508 1.44125,-1.8941 0.38004,-0.4431 0.62552,-0.7362 0.73255,-0.8906 0.10702,-0.1544 0.10702,-0.1544 0.0357,-0.052 0,0 -0.1427,0.2059 -0.43954,0.5426 -0.29688,0.3367 -0.78702,0.7659 -1.48938,1.2628 -0.70238,0.4971 -1.57782,1.1007 -2.62152,1.8275 -1.04366,0.7269 -1.38694,1.0072 -1.68216,1.2582 -0.29523,0.251 -0.57175,0.4957 -0.83,0.7354 -0.25826,0.2395 -0.4982,0.474 -0.72118,0.7055 -0.22299,0.2317 -0.97168,1.0629 -1.61132,1.8753 -0.63966,0.8122 -1.1719,1.5931 -1.5998,2.3507 -0.42786,0.7576 -0.7479,1.5048 -0.94458,2.2455 -0.19669,0.7406 -0.4159,1.5102 -0.19538,2.3945 0.22049,0.8843 0.59864,1.8486 1.13941,2.9581 0.54075,1.1095 1.23401,2.3893 2.1022,3.8252 0.8682,1.4359 1.08997,1.8626 1.52228,2.4325 0.43231,0.5701 0.9968,1.162 1.70361,1.7935 0.70682,0.6313 1.56656,1.3024 2.12226,1.5784 1.0109,0.7169 0.85843,-0.037 1.31363,0.4041 z"
             id="path50658" /></g><g
           style="fill:#000000;fill-opacity:1;stroke-linejoin:miter"
           id="g50664"
           transform="matrix(0.0212301,0.88760364,-0.82571352,0.02282136,2056.9295,403.92004)"><path
             d="m 408.09543,1461.5677 c -0.58543,-0.2338 -1.66143,-0.5327 -2.56851,-0.8615 -0.90705,-0.3289 -1.64402,-0.6768 -2.20322,-1.049 -0.5592,-0.372 -0.94608,-0.7478 -1.24692,-1.1147 -0.30081,-0.3668 -0.51748,-0.6834 -0.70126,-1.0142 -0.18378,-0.3308 -0.341,-0.6731 -0.47452,-1.029 -0.1335,-0.3559 -0.24286,-0.7283 -0.33087,-1.0574 -0.088,-0.329 -0.108,-0.4943 -0.11223,-0.7166 -0.004,-0.2224 0.0121,-0.4997 0.0508,-0.8291 0.0387,-0.3293 0.0988,-0.7088 0.14897,-0.8339 0.0502,-0.125 0.1651,-0.309 0.35115,-0.5562 0.186,-0.2471 0.44882,-0.5474 0.78925,-0.8911 0.3404,-0.3436 0.75302,-0.7307 1.19885,-1.0051 0.4458,-0.2746 1.30929,-0.7928 2.17703,-1.354 0.86774,-0.5613 1.57162,-1.3688 2.3331,-2.1355 0.76152,-0.7666 1.508,-1.5835 1.7785,-1.9187 0.27052,-0.3352 0.0824,-0.2154 -0.18795,-0.1128 -0.27039,0.1024 -0.60898,0.1471 -0.94669,0.1047 -0.33768,-0.042 -0.61542,-0.1514 -0.96374,-0.4304 -0.34836,-0.2789 -0.55994,-0.6093 -0.6258,-0.8001 -0.0659,-0.1908 -0.0737,-0.2668 -0.0666,-0.2661 0.007,8e-4 0.0176,0.059 0.0303,0.2197 0.0127,0.1606 0.0172,-0.058 0.0189,0.044 0.002,0.1024 -0.008,0.3323 -0.0278,0.6605 -0.0194,0.3283 -0.0417,0.7506 -0.0198,1.6605 0.0219,0.9098 0.11804,2.0054 1.01501,7.6668 0.89698,5.6615 0.93943,5.8888 0.97493,6.1517 0.0354,0.263 0.0636,0.5623 0.0818,0.8969 0.0182,0.3347 -0.0281,0.6966 -0.0869,1.0901 -0.0588,0.3935 -0.0584,0.4389 -0.0538,0.4668 0.005,0.028 0.0134,0.038 0.0265,0.03 0.0131,-0.01 0.0303,-0.033 0.0454,-0.06 0.0151,-0.028 0.0151,-0.028 0.005,-0.01 0,0 -0.0201,0.037 -0.036,0.056 -0.0159,0.019 -0.0275,0.021 -0.0349,0 -0.007,-0.016 -0.0107,-0.05 0.0206,-0.2745 0.0313,-0.2247 0.0859,-0.6077 0.15358,-0.9564 0.0677,-0.3489 0.1502,-0.6654 0.2151,-0.9546 0.0649,-0.2893 0.112,-0.5521 0.46805,-3.5249 0.35602,-2.9727 0.82775,-8.6587 0.9372,-9.6271 0.1094,-0.9684 0.21245,-1.2469 0.31049,-1.6449 0.098,-0.3979 0.1698,-0.717 0.22039,-0.967 0.0506,-0.2499 0.0819,-0.4681 0.0847,-0.627 0.003,-0.159 0.0195,-0.241 0.0195,-0.4672 2e-5,-0.2261 -0.0202,-0.4688 -0.0823,-0.7569 -0.0621,-0.2881 -0.21284,-0.6547 -0.56466,-1.0789 -0.35184,-0.424 -0.77622,-0.6821 -1.15744,-0.7954 -0.38126,-0.1133 -0.81006,-0.1302 -1.20706,-0.045 -0.39701,0.085 -0.72144,0.2395 -0.98548,0.4343 -0.26404,0.1947 -1.0768,0.8731 -1.86157,1.4746 -0.78476,0.6017 -1.55038,1.1642 -2.29831,1.6883 -0.74795,0.5239 -1.42142,1.0918 -2.20856,1.6933 -0.78711,0.6016 -1.5018,1.3697 -1.9425,1.9366 -0.44066,0.567 -0.81576,1.125 -1.12964,1.6772 -0.31384,0.5521 -0.56402,1.108 -0.75577,1.7488 -0.19175,0.6407 -0.22748,1.3595 -0.20941,1.8887 0.0181,0.529 0.0718,1.03 0.15942,1.5053 0.0877,0.4755 0.21082,0.9279 0.36142,1.3114 0.15064,0.3836 0.36702,0.859 0.64338,1.3556 0.27636,0.4965 0.58841,0.9614 0.93872,1.3899 0.35034,0.4286 0.73362,0.8213 1.13867,1.1776 0.40505,0.3563 1.01642,0.8319 1.81035,1.2095 0.79393,0.3776 1.68644,0.6233 2.6781,0.7504 0.99165,0.1272 2.08714,0.1351 2.6805,0 1.19955,-0.098 0.61816,-0.5671 1.22433,-0.5326 z"
             id="path50662" /></g><g
           style="fill:#000000;fill-opacity:1;stroke-linejoin:miter"
           id="g50668"
           transform="matrix(0.0212301,0.88760364,-0.82571352,0.02282136,2056.9295,403.92004)"><path
             d="m 408.8832,1401.3868 c -0.2871,-0.1257 -0.84008,-0.321 -1.3437,-0.5811 -0.5036,-0.26 -0.9617,-0.5806 -1.38356,-0.9558 -0.42187,-0.3754 -0.81387,-0.8071 -1.25464,-1.4707 -0.4408,-0.6639 -0.95074,-1.4752 -1.3606,-2.1194 -0.4098,-0.6444 -0.6981,-1.1321 -0.86174,-1.435 -0.16361,-0.3028 -0.15403,-0.3218 -0.25466,-0.5554 -0.10066,-0.2336 -0.2282,-0.5174 -0.39848,-0.8949 -0.17026,-0.3775 -0.37976,-0.8467 -0.61905,-1.4099 -0.23929,-0.5632 -0.51349,-1.217 -0.668,-1.5976 -0.15447,-0.3805 -0.17511,-0.4719 -0.17923,-0.5303 -0.004,-0.059 0.005,-0.08 0.0187,-0.059 0.0141,0.02 0.0247,0.082 0.0506,-0.042 0.0258,-0.1245 0.0482,-0.1008 0.0974,-0.1335 0.0492,-0.033 0.15548,-0.1288 0.33911,-0.2796 0.18365,-0.1507 0.45499,-0.3417 1.04516,-0.636 0.59021,-0.2943 1.61792,-0.787 2.60154,-1.2358 0.98361,-0.4489 1.90553,-0.8851 2.69467,-1.4503 0.78912,-0.5652 1.56863,-1.0259 2.26904,-1.4796 0.70042,-0.4538 0.93845,-0.6595 1.13972,-0.8293 0.20125,-0.1698 0.3628,-0.3021 0.47713,-0.3936 0.11432,-0.092 0.16599,-0.1359 0.30277,-0.2229 0.1368,-0.087 0.13873,-0.097 0.0717,-0.074 -0.067,0.023 -0.25618,0.075 -0.7229,0.072 -0.46666,0 -1.2781,-0.38 -1.9926,0.4642 -0.7145,0.8441 -1.26596,4.852 -1.32288,5.3841 -0.0569,0.5321 -0.0994,1.0007 -0.12896,1.4182 -0.0295,0.4175 -0.0485,0.784 -0.0595,1.1011 -0.0111,0.317 -0.0181,0.6263 0.10131,2.4475 0.11948,1.8211 0.22159,2.5255 0.31052,3.0943 0.0889,0.5689 0.15442,1.0359 0.19644,1.4013 0.0421,0.3654 0.0607,0.6294 0.0476,0.7907 -0.0131,0.1615 -0.006,0.3324 0.0102,0.4944 0.0162,0.1619 0.0416,0.315 0.0761,0.459 0.0344,0.1441 0.0779,0.2792 0.11518,0.376 0.0372,0.097 0.0372,0.097 0.0124,0.032 0,0 -0.0496,-0.1291 -0.0901,-0.2672 -0.0405,-0.1382 -0.0719,-0.2851 -0.0942,-0.4411 -0.0223,-0.156 -0.0355,-0.321 -0.0201,-0.4684 0.0154,-0.1475 0.0768,-0.3375 0.14862,-0.633 0.0719,-0.2953 0.15408,-0.6951 0.24677,-1.1992 0.0926,-0.504 0.1957,-1.1121 0.44618,-2.3142 0.2505,-1.2019 0.63164,-2.9684 0.6975,-3.1804 0.0658,-0.2119 0.15624,-0.4999 0.26913,-0.8413 0.11287,-0.3414 0.24327,-0.7363 0.39322,-1.1834 0.14993,-0.447 0.31075,-0.9232 1.60858,-4.7534 1.29782,-3.8302 0.4335,-6.1662 -0.33631,-6.397 -0.76982,-0.2305 -1.21372,-0.1684 -1.48608,-0.078 -0.2724,0.09 -0.46979,0.1803 -0.58759,0.2378 -0.11782,0.058 -0.2174,0.095 -0.44135,0.2094 -0.22393,0.1147 -0.4567,0.2427 -0.71316,0.3909 -0.25647,0.1481 -0.54077,0.3181 -0.72194,0.4255 -0.1812,0.1075 -0.91142,0.3864 -1.80647,0.7718 -0.89503,0.3855 -1.90161,0.6781 -2.82168,1.2502 -0.92008,0.572 -1.87045,1.1981 -2.90575,1.8773 -1.03526,0.6792 -1.67854,1.2017 -2.1305,1.6626 -0.45197,0.461 -0.8384,0.9641 -1.1456,1.5241 -0.30726,0.5598 -0.5142,1.1811 -0.5793,1.7417 -0.0651,0.5605 -0.0711,0.7391 -0.0488,1.0715 0.0222,0.3325 0.0832,0.6428 0.17292,0.9325 0.0897,0.2897 0.20306,0.5632 0.34643,0.8454 0.14334,0.2822 0.57644,0.9584 0.95959,1.5308 0.38312,0.5724 0.71301,1.0671 0.99106,1.4849 0.27805,0.4178 0.51242,0.7567 0.67087,0.9628 0.15841,0.206 0.17665,0.2618 0.42181,0.6014 0.24518,0.3396 0.58594,0.7128 1.05304,1.1958 0.46713,0.483 1.05994,1.0909 1.82584,1.8236 0.7659,0.7328 1.39996,1.2145 2.02322,1.5694 0.62329,0.3547 1.26181,0.6147 1.9108,0.7741 0.64899,0.1596 1.30011,0.2267 1.63626,0.1803 0.64511,-0.021 0.3714,-0.4802 0.68038,-0.4551 z"
             id="path50666" /></g><g
           style="fill:#000000;fill-opacity:1;stroke-linejoin:miter"
           id="g50672"
           transform="matrix(0.0212301,0.88760364,-0.82571352,0.02282136,2056.9295,403.92004)"><path
             d="m 446.60828,1445.4802 c 1.08566,-1.6743 2.55999,-5.2131 2.64764,-5.4797 0.0877,-0.2667 0.17206,-0.5377 0.25738,-0.8251 0.0853,-0.2873 0.17447,-0.5907 0.26404,-0.9109 0.0896,-0.3202 0.17832,-0.6489 0.23756,-0.8924 0.0592,-0.2437 0.1182,-0.5166 0.1764,-0.8111 0.0582,-0.2944 0.11513,-0.6104 0.16704,-0.9494 0.0519,-0.339 0.10498,-0.7399 0.15201,-1.1769 0.047,-0.437 0.1043,-0.886 0.16561,-1.3691 0.0613,-0.4832 0.12488,-1.0004 0.19532,-1.5514 0.0704,-0.5509 0.14895,-1.1623 0.1727,-1.454 0.0237,-0.2918 0.0453,-0.5741 0.0655,-0.8715 0.0201,-0.2973 0.0388,-0.6098 0.0518,-0.9375 0.0129,-0.3277 0.0234,-0.6719 -0.0713,-1.8943 -0.0947,-1.2225 -0.21517,-2.2133 -0.29904,-2.977 -0.0839,-0.7636 -0.15466,-1.3031 -0.20447,-1.6582 -0.0498,-0.3552 -0.073,-0.4506 -0.21796,-1.1101 -0.14492,-0.6596 -0.2962,-1.3695 -0.45147,-2.1244 -0.15527,-0.7549 -0.31445,-1.5545 -0.47863,-2.3982 -0.16416,-0.8438 -0.34653,-1.7376 -0.38615,-1.9194 -0.0396,-0.1819 -0.0794,-0.3465 -0.12088,-0.5043 -0.0415,-0.1579 -0.0831,-0.3091 -0.12493,-0.4539 -0.0418,-0.1449 -0.0806,-0.2644 -0.16892,-0.5456 -0.0884,-0.2812 -0.24062,-0.685 -0.45612,-1.2127 -0.21548,-0.5277 -0.50607,-1.1819 -0.86373,-1.9677 -0.35767,-0.7859 -0.78992,-1.7004 -0.85967,-1.835 -0.0697,-0.1348 -0.21733,-0.3624 -0.44417,-0.6901 -0.22683,-0.3276 -0.5343,-0.7588 -0.78415,-1.1449 -0.24984,-0.3862 -0.24984,-0.3862 -0.1141,-0.1135 0,0 0.17902,0.5912 0.31647,1.0537 0.13742,0.4627 0.23031,0.7965 0.27545,0.9927 0.0451,0.1963 0.0468,0.2623 0.1737,1.2134 0.1269,0.951 0.23114,1.7505 0.31333,2.3972 0.0822,0.6467 0.14041,1.1385 0.16702,1.4648 0.0266,0.3262 0.0271,0.5093 0.0319,0.6415 0.005,0.1322 0.006,0.2626 0.007,0.4008 9e-5,0.1382 -0.001,0.2838 -0.002,0.437 -9.4e-4,0.153 -0.005,0.2923 -0.0228,1.1881 -0.0178,0.8957 -0.0218,1.7519 -0.0208,2.5659 9.8e-4,0.814 0.007,1.5862 0.018,2.3165 0.0111,0.7304 0.0319,1.4301 0.0301,1.5098 -0.002,0.08 -0.012,0.4244 -0.0288,1.0186 -0.0168,0.5941 -0.0373,1.4257 -0.12885,2.4936 -0.0915,1.068 0.0416,2.3601 0.073,2.6747 0.0314,0.3146 0.0608,0.6127 0.0897,0.8937 0.029,0.281 0.054,0.5446 0.0752,0.7909 0.0212,0.2462 0.0399,0.4265 0.0609,1.0042 0.021,0.5777 0.0428,1.1355 0.0668,1.6602 0.0239,0.5248 0.0565,1.0167 0.09,1.4758 0.0335,0.459 0.0622,0.8412 0.0699,1.1511 0.008,0.3099 0.0104,0.6137 0.0137,0.8916 0.003,0.2781 0.003,0.5293 -0.002,0.7532 -0.004,0.2238 -0.0142,0.4379 -0.0258,0.7603 -0.0116,0.3224 -0.0255,0.622 -0.0436,0.9026 -0.0181,0.2804 -0.0423,0.5413 -0.0688,0.7832 -0.0266,0.2417 -0.0493,0.4406 -0.005,2.4184 -0.45025,3.8116 0.46433,2.0911 -0.03,3.9248 z"
             id="path50670" /></g></g></g></g></svg>
