<?xml version="1.0" encoding="UTF-8" standalone="no"?>
<!-- Created with Inkscape (http://www.inkscape.org/) -->

<svg
   width="268.67789em"
   height="268.67789em"
   viewBox="0 0 268.67789 268.67789"
   version="1.1"
   id="svg5"
   xml:space="preserve"
   xmlns="http://www.w3.org/2000/svg"
   xmlns:svg="http://www.w3.org/2000/svg"><defs
     id="defs2" /><g
     id="layer1"
     transform="translate(1015.6173,-705.91498)"><g
       id="g53575"><rect
         style="display:inline;fill:none;fill-opacity:1;stroke:none;stroke-width:5.29167;stroke-dasharray:none;stroke-opacity:1"
         id="rect53379"
         width="268.67789"
         height="268.67789"
         x="-1015.6173"
         y="705.91498" /><g
         id="g52841"
         transform="matrix(2.0641124,0,0,2.0641124,-3649.604,-1428.5526)"><g
           style="fill:#000000;fill-opacity:1;stroke-linejoin:miter"
           id="g50912"
           transform="matrix(0.0212301,0.88760364,-0.82571352,0.02282136,2056.9295,403.92004)"><path
             d="m 717.9232,928.8751 c -0.8004,-0.49687 -2.32896,-1.1787 -3.64354,-1.8044 -1.31451,-0.6257 -2.40766,-1.2097 -3.27156,-1.7489 -0.8639,-0.5393 -1.4836,-1.0345 -1.8,-1.36575 -0.31625,-0.33129 -0.51584,-0.60115 -0.72617,-0.945 -0.21026,-0.34385 -0.42333,-0.76305 -0.64393,-1.2511 -0.22057,-0.48805 -0.4466,-1.04455 -0.734,-1.80908 -0.28735,-0.76453 -0.5752,-1.58457 -0.8024,-2.28707 -0.22726,-0.7025 -0.3867,-1.2829 -0.65097,-1.68535 -0.26433,-0.40245 -0.35278,-0.69781 -0.41577,-1.00495 -0.0631,-0.3072 -0.0996,-0.48955 -0.11242,-0.6809 -0.0129,-0.1914 -0.004,-0.40027 0.0384,-0.63293 0.0423,-0.23267 0.12326,-0.49091 0.18124,-0.64343 0.058,-0.15244 0.12421,-0.27084 0.20076,-0.39904 0.0765,-0.12825 0.1634,-0.266 0.26006,-0.41255 0.0966,-0.14655 0.20344,-0.30195 1.15698,-1.60135 0.95356,-1.2994 2.69206,-3.78995 3.27806,-4.49234 0.586,-0.70236 1.2053,-1.34556 1.84303,-1.92056 0.63777,-0.575 1.30042,-1.0778 1.82387,-1.39487 0.5234,-0.31713 0.5234,-0.31713 0.15227,-0.15143 0,0 -0.80877,0.1942 -1.62887,0.4964 -0.82005,0.30225 -1.6507,0.70374 -2.48966,1.2005 -0.83899,0.49677 -1.71179,1.1196 -4.02164,3.13294 -2.3099,2.01336 -2.49045,2.18683 -2.64896,2.34236 -0.15854,0.15544 -0.30859,0.3082 -0.45014,0.4586 -0.1415,0.15033 -0.275,0.299 -0.4302,0.4924 -0.1552,0.19333 -0.45315,0.63193 -0.7056,1.1082 -0.2525,0.47625 -0.44805,0.9791 -0.5776,1.5055 -0.12955,0.5264 -0.1874,1.0695 -0.18265,1.56236 0.005,0.49284 0.028,0.98244 0.13905,1.63034 0.1111,0.6479 0.0901,1.41147 0.41894,2.14883 0.32891,0.73743 0.73742,1.53657 1.22336,2.39907 0.48605,0.8624 0.8579,1.5019 1.24124,2.1035 0.38336,0.60156 0.77846,1.1408 1.17896,1.6238 0.40056,0.4829 0.8059,0.91373 1.24895,1.30357 0.44305,0.38989 1.2649,0.91009 2.28369,1.35753 1.0188,0.4475 2.20156,0.8392 3.57599,1.14674 1.37452,0.30749 2.94031,0.54416 3.82737,0.48822 1.7626,0.1535 0.9884,-0.47931 1.8639,-0.26986 z"
             id="path50910" /></g><g
           style="fill:#000000;fill-opacity:1;stroke-linejoin:miter"
           id="g50916"
           transform="matrix(0.0212301,0.88760364,-0.82571352,0.02282136,2056.9295,403.92004)"><path
             d="m 714.69934,879.17523 c -0.38611,-0.43143 -1.21069,-1.20633 -1.98364,-2.07336 -0.773,-0.86701 -1.50665,-1.82343 -2.2067,-2.87667 -0.7001,-1.05314 -1.3588,-2.2156 -1.86886,-3.2972 -0.51007,-1.0816 -0.8313,-2.0196 -1.0138,-2.8449 -0.18249,-0.8252 -0.24344,-1.5282 -0.19659,-2.1085 0.0468,-0.5803 0.18085,-1.048 0.33125,-1.371 0.1504,-0.323 0.3046,-0.5939 0.4543,-0.81905 0.1496,-0.22515 0.2912,-0.4043 0.4202,-0.53895 0.129,-0.1347 0.2416,-0.22735 2.2057,-1.9913 1.9641,-1.764 5.5308,-5.41867 10.73985,-10.41116 5.20911,-4.99254 5.57471,-5.39661 5.86515,-5.85828 0.2905,-0.46161 0.50924,-0.96956 0.6614,-1.52106 0.15217,-0.5515 0.2704,-1.13854 0.383,-1.59277 0.11255,-0.45423 0.11255,-0.45423 0.0375,-0.15143 0,0 -0.1501,0.60566 -0.42056,1.1155 -0.2705,0.50975 -0.58644,0.9341 -0.92858,1.2775 -0.34211,0.3434 -0.70596,0.60957 -4.04486,2.5254 -3.33893,1.91583 -9.527,5.7805 -13.60847,9.05585 -4.08153,3.27535 -4.43188,3.63785 -4.73203,4.02112 -0.30013,0.38317 -0.5636,0.79213 -0.7953,1.22436 -0.23176,0.43227 -0.4354,0.88727 -0.6381,1.43007 -0.2027,0.5428 -0.4342,1.54594 -0.46195,2.63457 -0.0277,1.08863 0.14135,2.17563 0.48249,3.25493 0.34116,1.07923 0.85412,2.1501 1.51686,3.25087 0.66264,1.10083 1.653,2.31953 2.6511,3.37053 0.9982,1.05104 2.04084,1.9477 3.1028,2.702 1.0619,0.75425 2.1476,1.3519 2.7456,1.5233 1.088,0.44854 0.8122,-0.2075 1.30224,0.0696 z"
             id="path50914" /></g><g
           style="fill:#000000;fill-opacity:1;stroke-linejoin:miter"
           id="g50920"
           transform="matrix(0.0212301,0.88760364,-0.82571352,0.02282136,2056.9295,403.92004)"><path
             d="m 744.2618,930.0098 c -0.8959,-0.8353 -2.69564,-2.0829 -4.2663,-3.2079 -1.57063,-1.12496 -2.89034,-2.16494 -3.96254,-3.10354 -1.07226,-0.93866 -1.8667,-1.80016 -2.35413,-2.70581 -0.48736,-0.9057 -0.98547,-2.23639 -1.34997,-3.47915 -0.3645,-1.2427 -0.58176,-2.4049 -0.65363,-3.48654 -0.0718,-1.08161 -0.0299,-2.08406 -0.0643,-2.61826 -0.0344,-0.53415 -0.0253,-0.6751 0.002,-0.8394 0.0275,-0.1643 0.0767,-0.35234 0.1507,-0.5632 0.074,-0.21096 0.1749,-0.44374 0.2776,-0.65145 0.10264,-0.2077 0.2663,-0.48805 0.5637,-0.96399 0.2974,-0.47596 0.7129,-1.12826 1.248,-1.94426 0.5351,-0.81605 1.1959,-1.78724 1.6164,-2.4461 0.42045,-0.6589 0.3801,-0.6451 0.6023,-0.90047 0.2222,-0.25533 0.6347,-0.66443 1.2114,-1.19763 0.5768,-0.53326 1.31073,-1.184 2.1614,-1.8422 0.85057,-0.6582 1.86924,-1.22177 2.9658,-1.61807 1.09656,-0.3963 2.2849,-0.62663 3.5778,-0.67563 1.2929,-0.049 2.69185,0.0963 3.72115,0.4774 1.02935,0.3811 1.02935,0.3811 0.34315,0.127 0,0 -1.37245,-0.5081 -2.68073,-1.0335 -1.30827,-0.5254 -2.65131,-0.8194 -4.02192,-0.879 -1.37055,-0.0595 -2.75685,0.1293 -4.14925,0.57645 -1.3924,0.44705 -2.47263,1.07025 -3.2964,1.55735 -0.8239,0.48714 -1.4908,0.90346 -2.0134,1.2615 -0.5226,0.358 -0.93035,0.69323 -1.15057,0.9462 -0.22027,0.253 -1.09137,1.1806 -1.84583,2.0151 -0.75445,0.8345 -1.38354,1.52514 -1.8801,2.0837 -0.49654,0.5585 -0.85994,0.9979 -1.1128,1.33555 -0.25294,0.33765 -0.5061,0.711 -0.7427,1.1134 -0.23656,0.40241 -0.44347,0.81675 -0.6178,1.24408 -0.17436,0.42737 -0.31334,0.86792 -0.4183,1.37587 -0.10506,0.5079 -0.3028,1.89226 -0.1244,3.37413 0.17834,1.48181 0.56286,2.95471 1.10436,4.42247 0.54144,1.4678 1.25194,2.92854 2.19334,4.45754 0.9414,1.52906 2.11135,2.61696 3.35305,3.46533 1.24175,0.84833 2.71065,1.65493 4.41589,2.42358 1.7052,0.76875 3.6582,1.48718 4.8053,1.64745 2.21016,0.64766 1.32843,-0.2354 2.39156,0.252 z"
             id="path50918" /></g><g
           style="fill:#000000;fill-opacity:1;stroke-linejoin:miter"
           id="g50924"
           transform="matrix(0.0212301,0.88760364,-0.82571352,0.02282136,2056.9295,403.92004)"><path
             d="m 746.9048,927.9709 c 0.089,-0.0701 0.2406,-0.2399 0.39586,-0.4256 0.15524,-0.1857 0.31409,-0.38716 0.47654,-0.6044 0.1625,-0.2172 0.32845,-0.4502 0.78976,-1.16563 0.4613,-0.71537 1.14148,-1.81177 1.73761,-2.78637 0.59606,-0.9747 1.0957,-1.83296 1.52953,-2.56007 0.4339,-0.72717 0.79743,-1.32363 1.0632,-1.83413 0.2657,-0.5105 0.40464,-0.86734 0.5186,-1.2331 0.11395,-0.3659 0.20654,-0.7386 0.2787,-1.11746 0.0721,-0.37891 0.1262,-0.76349 0.16087,-1.11407 0.0346,-0.35057 0.0596,-0.68997 0.0726,-1.04194 0.013,-0.35198 0.0179,-0.71673 0.0156,-1.09448 -0.002,-0.37781 -0.0118,-0.76892 -0.0686,-1.63605 -0.0567,-0.8671 -0.5147,-1.9857 -0.77,-3.0165 -0.25525,-1.03074 -0.47516,-1.94785 -0.65954,-2.75046 -0.18439,-0.80264 -0.33319,-1.48984 -0.4325,-1.94474 -0.0993,-0.455 -0.17516,-0.80606 -0.27319,-1.2742 -0.098,-0.4682 -0.21827,-1.0502 -0.35717,-1.7446 -0.13886,-0.6945 -0.3038,-1.5002 -0.4219,-2.058 -0.118,-0.55775 -0.16673,-0.7653 -0.21263,-0.949 -0.0458,-0.1836 -0.0889,-0.34416 -0.12952,-0.48265 -0.0407,-0.13845 -0.0797,-0.2572 -0.17275,-0.50995 -0.093,-0.25274 -0.32475,-0.68066 -0.64945,-1.0501 -0.32471,-0.3695 -0.73485,-0.6847 -1.2193,-0.9662 -0.48435,-0.28155 -1.01265,-0.5991 -1.45679,-0.8279 -0.44406,-0.2288 -0.44406,-0.2288 -0.14801,-0.0763 0,0 0.59215,0.30507 1.06895,0.65407 0.4768,0.34904 0.813,0.7507 1.04073,1.1404 0.22772,0.38974 0.35077,0.76126 0.38532,1.133 0.0345,0.37185 0.0426,0.4645 0.043,0.56435 4e-4,0.0998 -0.002,0.22895 -0.008,0.38575 -0.006,0.1568 -0.0164,0.34014 -0.0311,0.54516 -0.0146,0.20494 -0.094,1.09979 -0.15146,1.88709 -0.0574,0.78725 -0.10024,1.46415 -0.13208,2.0321 -0.0319,0.56799 -0.0458,1.02805 -0.0501,1.37645 -0.004,0.3484 -0.008,0.99586 0.007,1.7681 0.0157,0.7722 0.0439,1.6585 0.0847,2.66 0.0407,1.0015 0.094,2.1186 0.18731,3.33534 0.0934,1.2168 0.15594,1.50416 0.21698,1.8324 0.0611,0.32816 0.11326,0.64081 0.15686,0.93756 0.0435,0.29675 0.0797,0.5775 0.1112,0.8414 0.0315,0.2639 0.0574,0.5236 0.068,0.764 0.0106,0.2405 0.003,0.48115 -0.0184,0.7229 -0.0218,0.2418 -0.0582,0.48506 -0.0875,0.687 -0.0293,0.20205 -0.21305,0.72414 -0.45715,1.45254 -0.2441,0.72833 -0.53284,1.58916 -0.84583,2.5932 -0.31307,1.00402 -0.64947,2.15226 -0.99917,3.44736 -0.3497,1.2951 -0.42155,1.5538 -0.5001,1.80843 -0.0786,0.25467 -0.15857,0.49387 -0.2402,0.71767 -0.0816,0.2238 -0.1647,0.4322 -0.1916,0.53966 -0.0855,0.1944 0.3338,0.35107 0.2752,0.43794 z"
             id="path50922" /></g><g
           style="fill:#000000;fill-opacity:1;stroke-linejoin:miter"
           id="g50928"
           transform="matrix(0.0212301,0.88760364,-0.82571352,0.02282136,2056.9295,403.92004)"><path
             d="m 756.4436,884.4708 c -0.88916,-0.5823 -2.6539,-1.3763 -4.2721,-2.0831 -1.6182,-0.70673 -3.0918,-1.3214 -4.4032,-1.89985 -1.3113,-0.57845 -2.469,-1.08945 -3.2267,-1.45795 -0.7576,-0.3684 -1.18937,-0.60906 -1.6134,-0.8855 -0.4239,-0.2764 -0.84104,-0.58947 -1.2518,-0.9402 -0.4107,-0.3507 -0.8186,-0.73637 -1.2076,-1.1457 -0.38897,-0.4093 -0.72136,-0.8349 -1.01366,-1.2965 -0.2923,-0.4615 -0.54484,-0.96335 -0.75324,-1.5121 -0.20843,-0.54885 -0.4004,-1.1357 -0.5985,-1.9958 -0.1982,-0.8601 -0.3862,-1.86274 -0.4684,-2.7269 -0.0822,-0.86405 -0.0788,-1.5748 -0.0209,-2.11875 0.058,-0.54389 0.15863,-0.91485 0.36606,-1.92075 0.2075,-1.00595 0.58224,-2.1405 1.1187,-3.0447 0.53635,-0.9043 1.24595,-1.64606 2.2097,-2.2577 0.96374,-0.6117 2.2326,-1.08246 3.28076,-1.3688 1.04814,-0.28635 1.48354,-0.3999 2.49894,-0.52475 1.01546,-0.12485 2.5126,-0.27245 4.4624,-0.43015 1.94985,-0.1578 4.3449,-0.33694 5.9019,-0.44143 1.5569,-0.10457 2.18314,0.006 2.881,0.2171 0.69783,0.21103 1.4659,0.51883 2.30043,0.92468 0.83457,0.40585 1.68757,0.96411 2.29627,1.49535 0.60864,0.53126 0.60864,0.53126 0.2029,0.1771 0,0 -0.8116,-0.70834 -1.51406,-1.4208 -0.70244,-0.7124 -1.37799,-1.3479 -2.0564,-1.8734 -0.67844,-0.52547 -1.35974,-0.9454 -2.10681,-1.2642 -0.74707,-0.3188 -3.46103,-0.7844 -5.72369,-1.0859 -2.26264,-0.3015 -4.11184,-0.5054 -5.56144,-0.6023 -1.4496,-0.0969 -2.53286,-0.088 -3.1743,-0.01 -0.6414,0.0781 -2.5117,0.22516 -4.4027,0.7793 -1.891,0.55414 -3.5878,1.48993 -5.0176,2.8063 -1.42984,1.3163 -2.52914,2.9749 -3.32425,4.78464 -0.7951,1.80982 -0.99749,2.64006 -1.09435,3.71866 -0.0969,1.0786 -0.0413,2.18186 0.14965,3.3193 0.19095,1.1374 0.4914,2.3213 0.89485,3.5638 0.4034,1.2425 0.7458,2.12426 1.15386,2.95183 0.40804,0.82767 0.88974,1.59394 1.42199,2.30667 0.53225,0.71274 1.12268,1.3637 1.75975,1.93973 0.63704,0.57607 1.2511,1.04431 1.87014,1.45124 0.61902,0.40698 1.2489,0.76563 1.88756,1.07673 0.6387,0.3111 1.2856,0.57384 1.926,0.7803 0.64036,0.20644 1.82,0.50936 3.1553,0.82937 1.3353,0.32003 2.8325,0.61328 4.4857,0.90258 1.6533,0.28931 3.4717,0.54578 4.48196,0.49415 1.98704,0.20886 1.12244,-0.4721 2.09924,-0.2117 z"
             id="path50926" /></g><g
           style="fill:#000000;fill-opacity:1;stroke-linejoin:miter"
           id="g50932"
           transform="matrix(0.0212301,0.88760364,-0.82571352,0.02282136,2056.9295,403.92004)"><path
             d="m 754.773,887.42365 c 0.0892,-0.0822 0.3124,-0.34455 0.65437,-0.72135 0.34198,-0.3768 0.80183,-0.8663 1.37243,-1.4726 0.57056,-0.60635 1.245,-1.334 1.7877,-1.9613 0.54275,-0.62735 0.8411,-1.0271 1.1234,-1.449 0.28226,-0.4219 0.55045,-0.864 0.8145,-1.3215 0.26397,-0.4574 0.5227,-0.9306 0.8943,-1.6623 0.3716,-0.7318 0.85795,-1.8632 1.3346,-3.143 0.4766,-1.2798 0.9264,-2.7147 1.2273,-4.32566 0.30093,-1.6109 0.4382,-3.39114 0.4046,-5.69348 -0.0335,-2.30236 -0.21835,-4.85556 -0.2761,-5.21726 -0.0577,-0.3617 -0.1319,-0.67184 -0.22106,-0.97176 -0.0892,-0.29994 -0.1933,-0.58894 -0.31238,-0.86664 -0.11902,-0.27765 -0.24386,-0.51996 -0.36276,-0.74646 -0.11887,-0.2265 -0.2548,-0.45794 -0.4064,-0.68234 -0.1517,-0.22434 -0.3165,-0.44236 -0.4934,-0.6547 -0.1769,-0.2124 -0.4105,-0.4758 -1.23036,-1.1362 -0.81984,-0.6605 -1.50444,-1.2144 -2.05249,-1.6792 -0.5481,-0.4648 -0.90149,-0.8866 -1.09695,-1.1558 -0.19547,-0.2692 -0.19547,-0.2692 -0.0652,-0.0898 0,0 0.26062,0.359 0.59316,0.8685 0.3325,0.5095 0.7388,1.17346 1.25016,1.9656 0.51134,0.79215 1.12034,1.68845 1.19599,1.8747 0.0757,0.1863 0.16009,0.3968 0.23125,0.60306 0.0712,0.20624 0.13056,0.40754 0.17976,0.60364 0.0492,0.1961 0.0937,0.4095 0.13544,0.63146 0.0417,0.22194 0.0665,0.43714 0.079,0.65808 0.0126,0.22089 0.0128,0.4477 7.3e-4,0.68126 -0.0121,0.23354 -0.0332,0.39125 -0.37717,2.8673 -0.3441,2.4761 -0.7681,4.14285 -1.1829,5.74405 -0.4147,1.60119 -0.58513,3.08485 -0.78185,4.40945 -0.19672,1.32456 -0.42085,2.48874 -0.68115,3.5085 -0.2604,1.0198 -0.3878,1.50276 -0.5193,1.9612 -0.1315,0.4584 -0.2798,0.9002 -0.43957,1.32776 -0.15979,0.42749 -0.3186,0.84744 -0.47423,1.23744 -0.1557,0.38994 -0.6526,1.3489 -1.0758,2.19585 -0.4233,0.84692 -0.75703,1.56105 -1.01436,2.13375 -0.25734,0.57267 -0.44031,1.00364 -0.49134,1.18515 -0.10827,0.28915 0.33326,0.38605 0.276,0.4936 z"
             id="path50930" /></g><g
           style="fill:#000000;fill-opacity:1;stroke-linejoin:miter"
           id="g50936"
           transform="matrix(0.0212301,0.88760364,-0.82571352,0.02282136,2056.9295,403.92004)"><path
             d="m 806.48206,919.7067 c -0.29596,-0.15073 -0.93073,-0.4031 -1.60456,-0.7401 -0.6738,-0.33696 -1.3932,-0.74645 -2.1609,-1.2311 -0.7677,-0.48477 -1.5835,-1.0489 -2.51525,-1.7085 -0.93175,-0.6597 -2.11779,-1.5445 -3.61309,-2.6471 -1.4953,-1.10256 -3.28961,-2.4369 -5.39209,-3.98665 -2.10257,-1.54975 -4.50197,-3.33221 -5.71973,-4.25175 -1.21784,-0.91964 -1.42454,-1.2251 -1.71084,-1.7808 -0.2863,-0.5556 -0.6196,-1.3397 -0.99314,-2.32994 -0.3736,-0.99029 -0.77106,-2.18316 -0.98246,-2.91836 -0.21145,-0.7352 -0.2325,-0.9436 -0.23104,-1.1584 0.001,-0.2149 0.0262,-0.4444 0.0778,-0.69625 0.0516,-0.25185 0.1341,-0.5307 0.1607,-0.48765 0.0267,0.043 0.3137,-0.3205 0.6048,-0.6298 0.29106,-0.30925 0.58574,-0.5691 0.8849,-0.7857 0.2991,-0.21654 0.6052,-0.39507 2.56436,-1.25523 1.95924,-0.86011 5.76551,-2.55037 5.77844,-2.54761 0.013,0.003 0.3137,-0.068 0.86023,-0.29636 0.54657,-0.22854 1.33357,-0.4695 2.33033,-0.75284 0.99674,-0.28336 2.09604,-0.58001 3.01284,-0.76426 0.91666,-0.1843 1.8267,-0.29915 2.7031,-0.3591 0.87634,-0.0599 1.72107,-0.0667 2.5373,-0.0154 0.8162,0.0513 1.7049,0.18076 1.902,0.2008 0.19723,0.02 0.40396,0.0747 0.71036,0.19846 0.30634,0.12378 0.69944,0.32174 1.1532,0.61389 0.45364,0.29225 0.90934,0.61645 1.61414,1.21509 0.70476,0.59866 1.3517,1.25526 1.9432,1.97962 0.59164,0.72434 1.1404,1.51287 1.6389,2.37584 0.49846,0.863 0.9689,1.87074 1.2637,2.537 0.29476,0.6662 0.53084,1.3651 0.73427,2.1393 0.20343,0.7741 0.36023,1.62705 0.45273,2.5583 0.0926,0.93136 0.13943,2.0862 0.20303,2.1367 0.0636,0.0505 0.0236,0.3306 -0.19617,0.96074 -0.21972,0.63013 -0.61066,1.52771 -1.16096,2.66211 -0.5503,1.13445 -1.2485,2.53375 -1.7853,3.70785 -0.53677,1.17405 -1.05166,2.2498 -1.5684,3.2347 -0.5167,0.98494 -1.0307,1.88515 -1.4316,2.50746 -0.401,0.62234 -0.401,0.62234 -0.0784,0.25414 0,0 0.81135,-0.59606 1.609,-1.33245 0.7976,-0.73638 1.61256,-1.58032 2.4459,-2.52758 0.8333,-0.94727 1.66416,-1.96894 2.6005,-3.11497 0.9364,-1.14614 1.6816,-2.1486 2.2504,-3.0017 0.5689,-0.85306 0.9701,-1.59244 1.19327,-2.39957 0.22313,-0.80707 0.18597,-1.05603 0.28839,-2.13223 0.10234,-1.0762 0.12624,-2.1882 0.0831,-3.2651 -0.0431,-1.07685 -0.1712,-2.1179 -0.3954,-3.1189 -0.22424,-1.00104 -0.5028,-1.87793 -0.9246,-3.0901 -0.42183,-1.2121 -0.951,-2.4046 -1.5846,-3.5344 -0.6336,-1.1299 -1.3586,-2.20107 -2.1837,-3.20094 -0.825,-0.99996 -1.7265,-1.93226 -2.40195,-2.49652 -0.67541,-0.56427 -1.31495,-1.04764 -1.96265,-1.47174 -0.64764,-0.4241 -1.3237,-0.7724 -2.04284,-1.04053 -0.71912,-0.26817 -1.28066,-0.40064 -2.36902,-0.63764 -1.08834,-0.237 -2.2572,-0.40289 -3.4541,-0.4881 -1.1969,-0.0852 -2.41937,-0.0788 -3.66604,-9.7e-4 -1.2467,0.0778 -2.57053,0.2359 -3.82633,0.47168 -1.25577,0.23586 -2.27817,0.42906 -3.12557,0.60766 -0.8474,0.1786 -1.56736,0.25934 -2.1869,0.49726 -0.6195,0.23794 -1.0166,0.44018 -4.6888,2.44 -3.6723,1.99974 -4.555,2.56144 -5.22194,3.10034 -0.66686,0.5388 -1.27866,1.13825 -1.83313,1.7917 -0.55453,0.65343 -1.05127,1.356 -1.57458,2.26555 -0.52335,0.90949 -0.85705,2.08775 -0.95555,2.81175 -0.0985,0.7241 -0.12734,1.45125 -0.0817,2.1748 0.0457,0.72366 0.168,1.43655 0.3745,2.1521 0.2066,0.71554 0.8083,2.1511 1.38986,3.4047 0.58154,1.2536 1.16168,2.3462 1.75394,3.28813 0.5924,0.94197 1.2072,1.75347 2.01114,2.53553 0.80396,0.78204 3.7135,2.41559 6.2489,3.78474 2.53536,1.36907 4.76532,2.5199 6.67746,3.4731 1.91226,0.95316 3.5062,1.71164 4.78384,2.27164 1.27771,0.55999 2.30609,0.97052 3.28126,1.30151 0.9751,0.33095 1.8881,0.57892 2.7359,0.74365 0.8478,0.1647 1.6261,0.2505 2.00384,0.2168 0.69996,0.0125 0.43946,-0.4644 0.76172,-0.4183 z"
             id="path50934" /></g></g></g></g></svg>
