<?xml version="1.0" encoding="UTF-8" standalone="no"?>
<svg
   version="1.1"
   width="135.38521"
   height="135.38521"
   viewBox="0 0 135.38521 135.38521"
   id="svg1214"
   xmlns="http://www.w3.org/2000/svg"
   xmlns:svg="http://www.w3.org/2000/svg">
  <defs
     id="defs1218" />
  <g
     id="g6379"
     transform="translate(-97.640701,-989.19946)">
    <rect
       style="display:inline;opacity:0.5;fill:none;fill-opacity:1;stroke:none;stroke-width:2.66644;stroke-dasharray:none;stroke-opacity:1"
       id="rect5347"
       width="135.38521"
       height="135.38521"
       x="97.640701"
       y="989.19946" />
    <g
       id="g4242"
       transform="translate(49.631735,-189.66164)">
      <g
         style="fill:#000000;fill-opacity:1;stroke-linejoin:miter"
         id="g475"
         transform="rotate(90,259.41968,748.93978)">
        <path
           d="m 717.889,929.0181 c -0.807,-0.4777 -2.36,-1.089 -3.708,-1.64554 -1.348,-0.55656 -2.4843,-1.08156 -3.39865,-1.58926 -0.91445,-0.5077 -1.59979,-0.99326 -1.98045,-1.342 -0.38064,-0.34883 -0.6211,-0.6407 -0.8697,-1.0021 -0.2486,-0.3613 -0.50227,-0.7921 -0.75825,-1.2919 -0.25605,-0.49984 -0.51695,-1.06606 -0.84021,-1.82674 -0.32318,-0.76062 -0.65264,-1.58216 -0.91604,-2.29736 -0.2633,-0.71516 -0.4519,-1.3227 -0.6267,-1.7977 -0.17485,-0.47495 -0.2606,-0.831 -0.3132,-1.166 -0.0526,-0.33495 -0.0734,-0.58135 -0.0664,-0.8322 0.007,-0.25086 0.0464,-0.5115 0.1272,-0.78455 0.0808,-0.27315 0.199,-0.56265 0.2928,-0.74121 0.0938,-0.17854 0.1744,-0.29814 0.2629,-0.42768 0.0885,-0.12951 0.1869,-0.26716 0.2951,-0.41241 0.10816,-0.14535 0.22626,-0.29822 1.2451,-1.54625 1.0188,-1.24806 2.9062,-3.60744 3.5407,-4.2659 0.63443,-0.6585 1.2828,-1.2633 1.94254,-1.79643 0.65973,-0.53317 1.32796,-1.00777 1.81921,-1.39111 0.49125,-0.38336 0.49125,-0.38336 0.12012,-0.21766 0,0 -0.87311,0.0617 -1.68107,0.39887 -0.80807,0.33723 -1.6133,0.78063 -2.41396,1.32263 -0.80074,0.54193 -1.62409,1.20056 -3.80188,3.33154 -2.17786,2.13106 -2.34306,2.3031 -2.49026,2.46066 -0.1471,0.1575 -0.28556,0.3112 -0.4154,0.4612 -0.12987,0.15004 -0.25127,0.29695 -0.38237,0.4736 -0.13113,0.1766 -0.39123,0.59527 -0.60626,1.03716 -0.21503,0.44184 -0.37117,0.90134 -0.47473,1.37304 -0.10358,0.4717 -0.14334,0.9535 -0.12268,1.4015 0.0205,0.44793 0.0487,0.90765 0.1607,1.5018 0.112,0.5942 0.27084,1.2595 0.56984,1.97415 0.299,0.7146 0.6659,1.50671 1.1104,2.3728 0.4445,0.86609 0.786,1.50455 1.13635,2.09461 0.35035,0.59008 0.70569,1.11914 1.06629,1.58884 0.36056,0.46975 0.72866,0.88046 1.12091,1.24184 0.39225,0.36139 1.14611,0.88146 2.10225,1.35176 0.95604,0.47027 2.0976,0.8891 3.4324,1.2591 1.33485,0.3699 2.8699,0.67906 3.7415,0.66795 1.74704,0.19831 0.9044,-0.1485 1.7799,0.061 z"
           id="path473" />
      </g>
      <g
         style="fill:#000000;fill-opacity:1;stroke-linejoin:miter"
         id="g479"
         transform="rotate(90,259.41968,748.93978)">
        <path
           d="m 714.62695,879.3032 c -0.39215,-0.4317 -1.24465,-1.18546 -2.06811,-2.0154 -0.82344,-0.83 -1.61364,-1.7569 -2.37744,-2.7851 -0.7638,-1.0283 -1.4964,-2.16743 -2.0785,-3.26015 -0.5821,-1.09271 -0.9633,-2.05315 -1.2037,-2.92325 -0.2405,-0.87014 -0.35306,-1.64407 -0.3443,-2.3231 0.009,-0.679 0.12644,-1.27025 0.2903,-1.6903 0.16383,-0.42 0.3245,-0.7306 0.48445,-1.00133 0.15995,-0.27067 0.31965,-0.50027 0.47931,-0.68714 0.15964,-0.18683 0.31074,-0.33713 2.33094,-2.09943 2.0202,-1.76226 5.7441,-5.2855 11.2047,-9.9666 5.46064,-4.6811 5.8447,-5.0693 6.1626,-5.51783 0.31793,-0.44847 0.55945,-0.9552 0.7293,-1.51157 0.1699,-0.5564 0.26954,-1.1604 0.31807,-1.63284 0.0486,-0.47236 0.0486,-0.47236 -0.0265,-0.16956 0,0 -0.27816,0.56934 -0.55087,1.067 -0.27273,0.49776 -0.56733,0.9196 -0.88409,1.26845 -0.31677,0.34895 -0.65364,0.63155 -3.84614,2.73535 -3.1925,2.10377 -9.15185,6.23127 -13.1242,9.6052 -3.9723,3.37393 -4.27166,3.6741 -4.5359,4.00156 -0.2642,0.32744 -0.49974,0.68584 -0.71605,1.06927 -0.21635,0.38347 -0.41199,0.79457 -0.59949,1.27367 -0.18746,0.4792 -0.41606,1.37587 -0.46802,2.34877 -0.0519,0.97293 0.073,1.9704 0.36346,2.98657 0.2905,1.01611 0.7373,2.05256 1.3376,3.12891 0.6002,1.07635 1.5114,2.29925 2.4465,3.36775 0.93515,1.06846 1.9025,2.00346 2.90884,2.79075 1.00641,0.7873 2.04566,1.42249 2.62671,1.60431 1.07105,0.45899 0.65045,0.0589 1.1405,0.33604 z"
           id="path477" />
      </g>
      <g
         style="fill:#000000;fill-opacity:1;stroke-linejoin:miter"
         id="g483"
         transform="rotate(90,259.41968,748.93978)">
        <path
           d="m 744.2005,930.1435 c -0.9137,-0.8017 -2.7693,-1.94916 -4.3963,-2.99756 -1.62695,-1.04841 -3.01227,-2.02354 -4.1484,-2.93299 -1.1361,-0.90945 -2.0129,-1.75702 -2.62785,-2.7417 -0.61485,-0.98465 -1.19165,-2.33255 -1.62025,-3.61675 -0.4286,-1.2842 -0.7006,-2.5078 -0.83696,-3.6676 -0.13634,-1.15986 -0.13141,-2.2613 -0.0898,-2.88 0.0416,-0.6188 0.073,-0.81874 0.1265,-1.03456 0.0536,-0.21588 0.13125,-0.44794 0.235,-0.69574 0.1037,-0.2478 0.2346,-0.51074 0.36427,-0.74176 0.12963,-0.23094 0.32003,-0.5268 0.64459,-0.99829 0.32458,-0.47145 0.77508,-1.10525 1.34284,-1.90088 0.56774,-0.79557 1.2549,-1.74937 1.69103,-2.37543 0.43622,-0.62604 0.47254,-0.68334 0.73927,-0.9444 0.26665,-0.26104 0.71154,-0.65564 1.32177,-1.1593 0.61023,-0.50374 1.37707,-1.11764 2.29419,-1.7417 0.91717,-0.62408 1.99634,-1.11754 3.12744,-1.43844 1.1311,-0.32083 2.3275,-0.46274 3.60595,-0.44675 1.27845,0.016 2.65645,0.18745 3.7107,0.49125 1.05425,0.3038 1.05425,0.3038 0.36805,0.0497 0,0 -1.3226,-0.6627 -2.65174,-1.1437 -1.3291,-0.48087 -2.6803,-0.7077 -4.03406,-0.685 -1.35376,0.0225 -2.69653,0.28635 -4.0225,0.7899 -1.326,0.50347 -2.34554,1.15215 -3.13717,1.67284 -0.79163,0.52066 -1.42309,0.96582 -1.91058,1.33301 -0.48749,0.36725 -0.84405,0.68719 -1.02825,0.91415 -0.1843,0.2269 -1.0193,1.2012 -1.7456,2.054 -0.7264,0.8527 -1.3201,1.56505 -1.7836,2.1384 -0.4634,0.57344 -0.80364,1.0106 -1.02904,1.3267 -0.22536,0.3161 -0.45286,0.67045 -0.65942,1.0405 -0.20661,0.3701 -0.38404,0.7452 -0.53064,1.126 -0.1466,0.3808 -0.26056,0.7673 -0.3421,1.19285 -0.0815,0.42555 -0.1519,1.74655 -0.0173,3.13525 0.13467,1.3888 0.44064,2.7925 0.9231,4.2058 0.48256,1.4133 1.1281,2.83864 1.97,4.32606 0.84185,1.48744 1.8771,2.48328 3.0473,3.3454 1.17016,0.86214 2.572,1.7135 4.2166,2.54804 1.64466,0.8345 3.5406,1.6393 4.6508,1.86645 2.17336,0.71455 1.1691,0.0988 2.2322,0.58625 z"
           id="path481" />
      </g>
      <g
         style="fill:#000000;fill-opacity:1;stroke-linejoin:miter"
         id="g487"
         transform="rotate(90,259.41968,748.93978)">
        <path
           d="m 746.78296,927.8886 c 0.0879,-0.0686 0.23774,-0.2355 0.39148,-0.4186 0.15366,-0.18313 0.30856,-0.38376 0.46429,-0.60165 0.15577,-0.2179 0.31257,-0.4527 0.73747,-1.1803 0.425,-0.7276 1.0457,-1.85071 1.5835,-2.85235 0.53786,-1.00165 1.0091,-1.87446 1.4041,-2.6222 0.39487,-0.7478 0.7315,-1.3614 0.9613,-1.84314 0.2297,-0.48181 0.34757,-0.81936 0.4455,-1.1626 0.098,-0.34326 0.1758,-0.69176 0.2333,-1.04516 0.0574,-0.3534 0.0944,-0.7113 0.11365,-1.0447 0.0193,-0.33335 0.0293,-0.65946 0.0317,-0.9989 0.002,-0.33946 -0.003,-0.69224 -0.0199,-1.0582 -0.0168,-0.3659 -0.0373,-0.74586 -0.126,-1.5892 -0.0888,-0.8433 -0.3344,-1.99687 -0.53095,-3.0391 -0.19655,-1.04224 -0.36875,-1.96906 -0.51385,-2.7804 -0.14515,-0.81134 -0.25855,-1.50696 -0.33246,-1.96606 -0.0739,-0.45904 -0.13004,-0.81611 -0.19584,-1.28904 -0.0659,-0.473 -0.1471,-1.059 -0.2396,-1.7571 -0.0925,-0.6981 -0.2082,-1.5072 -0.2857,-2.06727 -0.0775,-0.56 -0.11504,-0.76843 -0.15203,-0.95306 -0.037,-0.18463 -0.0725,-0.34637 -0.10687,-0.48647 -0.0344,-0.14006 -0.0685,-0.2611 -0.1481,-0.519 -0.0796,-0.25796 -0.2905,-0.7068 -0.6081,-1.0989 -0.3176,-0.3921 -0.72684,-0.72974 -1.22555,-1.0134 -0.49875,-0.2837 -1.08442,-0.51724 -1.5362,-0.73227 -0.45175,-0.21503 -0.45175,-0.21503 -0.1557,-0.0625 0,0 0.57685,0.33257 1.01335,0.72957 0.4365,0.39696 0.7672,0.78246 0.9967,1.1501 0.2296,0.3676 0.36416,0.7156 0.4203,1.0721 0.0562,0.35646 0.0686,0.44844 0.0744,0.5463 0.006,0.0978 0.0101,0.22544 0.0118,0.38114 0.002,0.1557 8e-4,0.33806 -0.001,0.5423 -0.002,0.20426 -0.0146,1.09521 -0.0231,1.87896 -0.008,0.78376 -0.007,1.457 -4.8e-4,2.0206 0.007,0.56364 0.019,1.01884 0.0344,1.3625 0.0154,0.3438 0.0425,0.98635 0.094,1.75015 0.0516,0.76379 0.12207,1.64105 0.21467,2.6322 0.0926,0.99109 0.2072,2.09631 0.3817,3.30265 0.1745,1.2064 0.22315,1.5272 0.2711,1.8669 0.0481,0.33967 0.0865,0.6642 0.1198,0.97315 0.0332,0.3089 0.0581,0.60235 0.0749,0.87988 0.0167,0.27753 0.0265,0.55762 0.0208,0.82437 -0.006,0.26664 -0.0269,0.53244 -0.0638,0.7978 -0.0369,0.26547 -0.0897,0.5308 -0.1474,0.7677 -0.0577,0.2369 -0.2778,0.76595 -0.5563,1.4745 -0.2784,0.7085 -0.6032,1.5506 -0.962,2.5326 -0.35884,0.98206 -0.74855,2.1058 -1.15876,3.3745 -0.41024,1.26875 -0.49324,1.52907 -0.58064,1.782 -0.0873,0.2529 -0.1723,0.4924 -0.25664,0.7179 -0.0844,0.22546 -0.16906,0.4365 -0.19746,0.5462 -0.0869,0.19653 0.0888,0.18866 0.0302,0.2755 z"
           id="path485" />
      </g>
      <g
         style="fill:#000000;fill-opacity:1;stroke-linejoin:miter"
         id="g491"
         transform="rotate(90,259.41968,748.93978)">
        <path
           d="m 756.4057,884.6129 c -0.8967,-0.5559 -2.68756,-1.26103 -4.335,-1.877 -1.6474,-0.61597 -3.1424,-1.17676 -4.48275,-1.68915 -1.34035,-0.51245 -2.52225,-0.98585 -3.31075,-1.32225 -0.78837,-0.33644 -1.2624,-0.5742 -1.7315,-0.84565 -0.46904,-0.27149 -0.9315,-0.58245 -1.38774,-0.93315 -0.4563,-0.3507 -0.91006,-0.7377 -1.34741,-1.16585 -0.43738,-0.42815 -0.83222,-0.88678 -1.18091,-1.38995 -0.3487,-0.5032 -0.66254,-1.0459 -0.92934,-1.6394 -0.2668,-0.5936 -0.5017,-1.23256 -0.7472,-2.1342 -0.2455,-0.9017 -0.46476,-1.9517 -0.59836,-2.8772 -0.13367,-0.92556 -0.17504,-1.7234 -0.13774,-2.3858 0.0373,-0.6625 0.1481,-1.1848 0.4371,-2.24576 0.289,-1.06094 0.7902,-2.32974 1.47285,-3.35594 0.68268,-1.02626 1.56575,-1.84334 2.69098,-2.4789 1.12527,-0.6356 2.52607,-1.08465 3.59052,-1.3208 1.06439,-0.23614 1.58758,-0.3333 2.63598,-0.42443 1.04847,-0.0912 2.55977,-0.16367 4.51467,-0.22007 1.9548,-0.0565 4.34886,-0.10873 5.915,-0.10086 1.5662,0.008 2.18166,0.16906 2.86117,0.42026 0.67953,0.2511 1.41949,0.5994 2.22967,1.0303 0.81012,0.43085 1.69266,0.9449 2.33336,1.4382 0.64064,0.49326 0.64064,0.49326 0.2349,0.1391 0,0 -0.74764,-0.78427 -1.4457,-1.5099 -0.69806,-0.7256 -1.4016,-1.3289 -2.1035,-1.817 -0.702,-0.4881 -1.401,-0.8621 -2.144,-1.1343 -0.743,-0.27216 -3.45746,-0.5556 -5.7192,-0.74195 -2.26175,-0.1864 -4.1037,-0.29102 -5.53415,-0.32725 -1.43045,-0.0363 -2.47185,-0.006 -3.07455,0.0893 -0.60264,0.0955 -2.4301,0.32453 -4.17875,0.88477 -1.74872,0.5602 -3.27521,1.4577 -4.53821,2.6815 -1.263,1.22384 -2.22994,2.74825 -2.87864,4.4746 -0.6487,1.72647 -0.8544,2.4791 -0.95424,3.41726 -0.0999,0.93814 -0.0695,1.9339 0.0733,2.99344 0.1429,1.0595 0.3919,2.18924 0.7506,3.3934 0.3587,1.20417 0.6646,2.0321 1.02567,2.8091 0.36103,0.777 0.77703,1.5029 1.25083,2.1737 0.4739,0.6707 1.00704,1.2815 1.58724,1.82775 0.5802,0.54635 1.14876,1.00345 1.72286,1.40835 0.574,0.40495 1.1569,0.76634 1.75083,1.0794 0.59394,0.31303 1.19483,0.58385 1.79787,0.7979 0.603,0.214 1.7535,0.5687 3.0625,0.93725 1.309,0.36855 2.77666,0.73445 4.4033,1.09882 1.6266,0.36438 3.41834,0.70618 4.41175,0.71223 1.97025,0.26647 1.02985,-0.1303 2.00665,0.1301 z"
           id="path489" />
      </g>
      <g
         style="fill:#000000;fill-opacity:1;stroke-linejoin:miter"
         id="g495"
         transform="rotate(90,259.41968,748.93978)">
        <path
           d="m 754.6432,887.35455 c 0.0912,-0.0859 0.31694,-0.35245 0.6544,-0.73515 0.33753,-0.3827 0.78,-0.88576 1.3168,-1.51674 0.53685,-0.63106 1.17204,-1.38756 1.6725,-2.02466 0.5005,-0.63714 0.7675,-1.04406 1.02774,-1.46655 0.26026,-0.42249 0.50806,-0.86345 0.74466,-1.3219 0.23666,-0.4585 0.46615,-0.93235 0.7991,-1.66745 0.33295,-0.7351 0.77014,-1.854 1.1874,-3.1249 0.4173,-1.271 0.80814,-2.69697 1.1418,-4.28345 0.3337,-1.58655 0.54226,-3.34165 0.6211,-5.60005 0.0788,-2.25835 0.0245,-4.8042 -0.0121,-5.1464 -0.0365,-0.3422 -0.0917,-0.64455 -0.16186,-0.9381 -0.0702,-0.29354 -0.15547,-0.5778 -0.25587,-0.85244 -0.10046,-0.2746 -0.20855,-0.51959 -0.3119,-0.74811 -0.1034,-0.22852 -0.2262,-0.46069 -0.36265,-0.68842 -0.13645,-0.22773 -0.28575,-0.45117 -0.44445,-0.67273 -0.15864,-0.22155 -0.3759,-0.4918 -1.1529,-1.19055 -0.777,-0.69875 -1.4318,-1.27722 -1.9653,-1.75075 -0.5334,-0.47355 -0.94083,-0.84794 -1.17185,-1.0901 -0.23102,-0.2422 -0.23102,-0.2422 -0.10071,-0.0628 0,0 0.18951,0.413 0.50031,0.94406 0.31079,0.53114 0.73575,1.18188 1.2835,1.94269 0.54765,0.7608 1.19955,1.61859 1.29248,1.79645 0.093,0.17785 0.19557,0.38 0.28237,0.5814 0.0867,0.20143 0.16075,0.4002 0.2246,0.5956 0.0638,0.1953 0.1232,0.40545 0.1826,0.6273 0.0593,0.2218 0.10285,0.4407 0.1343,0.6669 0.0314,0.2262 0.0506,0.45995 0.0596,0.70165 0.009,0.24169 0.007,0.42985 -0.2067,2.92529 -0.21394,2.49536 -0.54285,4.21886 -0.85456,5.85351 -0.31171,1.63465 -0.55139,3.12531 -0.80844,4.4585 -0.257,1.33315 -0.5382,2.50675 -0.84976,3.53075 -0.31159,1.02406 -0.46304,1.5044 -0.62514,1.96113 -0.1621,0.45673 -0.3331,0.89917 -0.5103,1.32917 -0.1771,0.43 -0.36566,0.84497 -0.55505,1.2341 -0.1894,0.3891 -0.73468,1.323 -1.1941,2.14334 -0.45941,0.82031 -0.82755,1.5094 -1.0982,2.0711 -0.27065,0.56171 -0.45335,0.98932 -0.50215,1.16696 -0.10595,0.28507 0.0759,0.2438 0.0187,0.35135 z"
           id="path493" />
      </g>
      <g
         style="fill:#000000;fill-opacity:1;stroke-linejoin:miter"
         id="g499"
         transform="rotate(90,259.41968,748.93978)">
        <path
           d="m 806.4612,919.85223 c -0.301,-0.15149 -0.9463,-0.39943 -1.6387,-0.70758 -0.69243,-0.30815 -1.43377,-0.68805 -2.23034,-1.13405 -0.79651,-0.44596 -1.64826,-0.9638 -2.61166,-1.5825 -0.96335,-0.6188 -2.19534,-1.43915 -3.73685,-2.47613 -1.5415,-1.03697 -3.38708,-2.29731 -5.54321,-3.76923 -2.15619,-1.47184 -4.61864,-3.16199 -5.98974,-4.13818 -1.37116,-0.97626 -1.6704,-1.37256 -2.03223,-1.98496 -0.36187,-0.61246 -0.76077,-1.43405 -1.18604,-2.4544 -0.42523,-1.02024 -0.87633,-2.2329 -1.14023,-3.0421 -0.2639,-0.8092 -0.3236,-1.1249 -0.34897,-1.4504 -0.0254,-0.3256 -0.0159,-0.6655 0.0279,-1.02444 0.0438,-0.35896 0.1214,-0.74086 0.2329,-0.97339 0.1114,-0.23257 0.4239,-0.69171 0.75504,-1.10053 0.33116,-0.40884 0.68106,-0.76989 1.0503,-1.08624 0.3692,-0.3164 0.7594,-0.59064 2.77551,-1.60486 2.01611,-1.01424 5.74795,-2.85054 5.89305,-2.91467 0.14516,-0.0642 0.52675,-0.18567 1.13856,-0.35317 0.61184,-0.16746 1.43424,-0.37284 2.4585,-0.613 1.02417,-0.2402 2.19644,-0.5037 3.2096,-0.6465 1.01314,-0.14276 2.00464,-0.2226 2.96194,-0.23816 0.95725,-0.0155 1.88077,0.0322 2.7718,0.14236 0.891,0.11014 1.80587,0.2937 2.09884,0.36167 0.29296,0.068 0.60192,0.18799 0.98211,0.37173 0.38015,0.18375 0.82331,0.43906 1.31395,0.7796 0.4907,0.3405 0.9967,0.72806 1.72866,1.4102 0.73199,0.6822 1.39564,1.42547 2.00244,2.22814 0.6068,0.80261 1.15216,1.67169 1.636,2.60966 0.48375,0.938 0.92814,1.9853 1.21104,2.7043 0.2829,0.71894 0.50436,1.4789 0.67216,2.30713 0.1679,0.82827 0.288,1.72457 0.35036,2.69017 0.0624,0.96566 0.0617,2.0962 0.10004,2.2343 0.0383,0.13803 -0.0594,0.48886 -0.33325,1.1346 -0.2738,0.64577 -0.71802,1.5339 -1.3269,2.6437 -0.60889,1.10973 -1.38905,2.4538 -1.99595,3.5843 -0.60696,1.1305 -1.195,2.1589 -1.7616,3.10576 -0.5666,0.9469 -1.111,1.81734 -1.46066,2.48294 -0.34964,0.6657 -0.34964,0.6657 -0.027,0.2975 0,0 0.91395,-0.5094 1.67176,-1.28057 0.75784,-0.77123 1.52224,-1.65143 2.28504,-2.64209 0.7629,-0.9906 1.52123,-2.05999 2.386,-3.24844 0.86466,-1.1885 1.55406,-2.2107 2.0673,-3.0675 0.51325,-0.8568 0.86426,-1.567 1.0386,-2.2522 0.1743,-0.6852 0.1265,-0.9321 0.1895,-2.00455 0.063,-1.07245 0.0578,-2.14758 -0.0236,-3.17731 -0.0814,-1.02978 -0.24072,-2.01354 -0.47662,-2.9508 -0.23591,-0.93734 -0.52948,-1.77514 -0.97335,-2.93114 -0.4438,-1.15596 -0.98436,-2.2712 -1.6108,-3.324 -0.6265,-1.0527 -1.3387,-2.04094 -2.1391,-2.9585 -0.8004,-0.9176 -1.6801,-1.76085 -2.31234,-2.2727 -0.63226,-0.5118 -1.23386,-0.94005 -1.82536,-1.30333 -0.59145,-0.36322 -1.1823,-0.65587 -1.786,-0.86103 -0.6037,-0.20514 -1.10226,-0.30244 -2.1409,-0.48224 -1.03863,-0.17974 -2.13116,-0.28826 -3.2484,-0.3203 -1.11726,-0.0321 -2.25843,0.0113 -3.4229,0.129 -1.1645,0.1178 -2.3784,0.314 -3.5853,0.58767 -1.20696,0.27363 -2.19927,0.51068 -3.0071,0.71793 -0.8079,0.2073 -1.4409,0.38827 -1.94064,0.56234 -0.49976,0.17401 -0.79116,0.3194 -4.53066,2.15961 -3.7394,1.84021 -4.44835,2.26685 -5.0357,2.70845 -0.5873,0.4416 -1.13396,0.9402 -1.6383,1.4928 -0.5043,0.55253 -0.96606,1.15654 -1.4305,1.89756 -0.4644,0.74109 -0.72086,1.6095 -0.8255,2.22904 -0.1046,0.6196 -0.14164,1.23843 -0.1151,1.8512 0.0266,0.6128 0.11806,1.2156 0.2788,1.816 0.1608,0.6004 0.71053,2.01087 1.24074,3.2409 0.53022,1.23005 1.05596,2.2899 1.57966,3.189 0.5237,0.899 1.0591,1.6453 1.7066,2.293 0.6475,0.6478 3.47076,2.3458 5.95026,3.79615 2.47944,1.45031 4.65087,2.68675 6.51397,3.71051 1.8631,1.02374 3.41157,1.84634 4.65217,2.45634 1.2406,0.61006 2.23394,1.0667 3.1765,1.4393 0.94263,0.37254 1.8271,0.6611 2.6527,0.8594 0.8257,0.19826 1.5891,0.30416 1.95906,0.27236 0.6922,0.0143 0.38994,-0.17156 0.71224,-0.12543 z"
           id="path497" />
      </g>
    </g>
  </g>
</svg>
