<?xml version="1.0" encoding="UTF-8" standalone="no"?>
<svg
   version="1.1"
   width="135.38521"
   height="135.38521"
   viewBox="0 0 135.38521 135.38521"
   id="svg1214"
   xmlns="http://www.w3.org/2000/svg"
   xmlns:svg="http://www.w3.org/2000/svg">
  <defs
     id="defs1218" />
  <g
     id="g7574"
     transform="translate(-554.21576,-708.71716)">
    <rect
       style="display:inline;opacity:0.5;fill:none;fill-opacity:1;stroke:none;stroke-width:2.66644;stroke-dasharray:none;stroke-opacity:1"
       id="rect5269"
       width="135.38521"
       height="135.38521"
       x="554.21576"
       y="708.71716" />
    <g
       id="g4544"
       transform="translate(-14.025255,-5.1721654)">
      <g
         style="fill:#000000;fill-opacity:1;stroke-linejoin:miter"
         id="g1015"
         transform="rotate(90,259.41968,748.93978)">
        <path
           d="m 236.9699,384.3117 c -0.37925,0.2305 -1.01665,0.92014 -1.61422,1.8209 -0.59755,0.90076 -1.15043,2.00235 -1.6604,3.29574 -0.50998,1.29343 -0.97815,2.77512 -1.31843,4.37403 -0.34029,1.59891 -0.49233,3.07253 -0.532,4.49176 -0.0397,1.41925 0.0377,2.78335 0.23157,4.09087 0.19383,1.3075 0.50439,2.55693 1.02908,4.10063 0.52467,1.5437 1.42323,3.42617 2.54666,5.25753 1.12341,1.83134 2.44028,3.62256 3.94959,5.37154 1.50932,1.74898 3.21269,3.452 4.32528,4.47438 1.11258,1.02237 1.59111,1.43964 2.125,1.82492 0.53391,0.3853 1.11536,0.748 1.75453,1.0731 0.63918,0.3251 1.32792,0.62423 1.99941,0.80978 0.67148,0.18557 1.16252,0.21179 1.54791,0.16009 0.38539,-0.0517 0.65976,-0.18607 0.80789,-0.39194 0.14813,-0.20587 0.19864,-0.46359 0.19847,-0.69461 -1.6e-4,-0.23105 -1.6e-4,-0.23105 -6e-5,-0.077 0,0 2.3e-4,0.30804 -0.11601,0.51275 -0.11624,0.20471 -0.31241,0.29721 -0.58241,0.29925 -0.27001,0.002 -0.62537,-0.0838 -1.05504,-0.2546 -0.42966,-0.17075 -1.02534,-0.5798 -1.59116,-0.98935 -0.56579,-0.40952 -1.07211,-0.8208 -1.5247,-1.22647 -0.45259,-0.40568 -0.84451,-0.81548 -1.201,-1.2432 -0.3565,-0.4277 -1.94664,-2.26184 -3.34414,-4.05511 -1.39749,-1.7933 -2.61085,-3.57287 -3.64489,-5.33759 -1.03405,-1.76474 -1.8899,-3.51678 -2.6427,-5.25033 -0.75281,-1.73355 -1.16228,-2.73963 -1.47255,-3.80393 -0.31029,-1.06427 -0.53638,-2.21122 -0.67618,-3.44287 -0.13979,-1.23169 -0.19702,-2.54905 -0.16306,-3.93185 0.034,-1.3828 0.26911,-2.9267 0.5488,-4.33182 0.2797,-1.40512 0.58553,-2.63538 0.92316,-3.69443 0.33761,-1.05905 0.70737,-1.95422 0.84808,-2.39175 0.41011,-0.74786 0.0341,-0.5301 0.30352,-0.8404 z"
           id="path1013" />
      </g>
      <g
         style="fill:#000000;fill-opacity:1;stroke-linejoin:miter"
         id="g1019"
         transform="rotate(90,259.41968,748.93978)">
        <path
           d="m 269.41034,382.6194 c 0.12534,0.21 0.40378,0.54964 1.00536,0.799 0.60157,0.24932 1.39027,0.2829 2.6692,0.30825 1.2789,0.0254 2.5996,0.0301 3.96716,-0.0606 1.36756,-0.0908 2.79679,-0.10584 4.72049,0.0138 1.92371,0.11966 3.37253,0.37491 4.81409,0.93158 1.44156,0.5567 2.67041,1.32898 3.66144,2.09088 0.99102,0.76187 2.15252,1.83295 2.9086,2.67432 0.7561,0.84137 1.19885,1.44287 1.7572,2.63205 0.55832,1.18918 0.66252,1.4507 0.93335,2.7527 0.27081,1.30202 0.31152,1.56926 0.3291,2.75514 0.0175,1.18591 0.0337,1.31196 -0.30773,2.17413 -0.3415,0.86219 -0.54658,1.25788 -1.2226,2.19516 -0.67603,0.93729 -1.23612,1.58384 -2.1976,2.54927 -0.9615,0.9654 -1.9291,1.7474 -3.40195,2.65032 -1.47285,0.90292 -2.71018,1.50815 -4.14951,2.01871 -1.43934,0.51052 -2.38141,0.83264 -3.78884,1.06649 -1.40745,0.23386 -2.7939,0.31125 -4.28046,0.35584 -1.48661,0.0446 -2.90067,-0.0908 -3.84809,-0.13883 -0.94738,-0.0481 -1.91745,-0.47659 -3.23785,-1.04351 -1.32044,-0.56692 -2.21634,-1.0224 -2.9677,-1.63178 -0.75142,-0.6094 -1.39656,-1.11209 -1.61598,-1.30746 -0.21939,-0.19538 -0.23182,-0.63668 -0.30829,-1.16404 -0.0764,-0.52734 -0.0476,-1.67871 0.19187,-2.84289 0.23947,-1.16415 0.53237,-2.38422 0.90573,-3.79413 0.37337,-1.40988 1.01267,-3.16312 1.32027,-4.27148 0.30763,-1.10834 1.5753,-4.04544 2.10215,-5.12268 0.52683,-1.07724 0.52683,-1.07724 0.12332,-0.38976 0,0 -0.96383,1.2829 -2.08005,2.84154 -1.11618,1.55866 -1.88937,3.18716 -2.55307,4.61969 -0.66369,1.43255 -1.34732,3.05157 -1.8171,4.33212 -0.46979,1.28055 -0.76313,2.63608 -0.90495,3.75985 -0.1418,1.12382 0.0658,1.9353 0.38352,2.80207 0.31772,0.86673 0.77618,1.48331 1.49631,2.15653 0.72012,0.6732 1.69605,1.559 2.99377,2.3232 1.29773,0.76423 2.67798,1.38883 3.687,1.7517 1.009,0.36284 2.819,0.60863 4.00243,0.7298 1.18344,0.1212 3.67273,0.15816 4.94345,0.0891 1.27072,-0.0691 3.67742,-0.37078 4.77588,-0.72409 1.09844,-0.3533 3.43414,-1.20707 4.76954,-1.85849 1.33538,-0.65142 3.65352,-2.20478 4.79128,-3.12472 1.13772,-0.91996 2.45218,-2.42948 3.11514,-3.20072 0.66298,-0.77121 1.63578,-2.27794 2.07846,-3.12434 0.44266,-0.8464 0.91452,-2.46306 0.9639,-3.38075 0.0494,-0.9177 -0.11648,-2.83245 -0.2952,-3.77285 -0.17874,-0.94038 -0.69125,-2.67 -1.17303,-3.76966 -0.48178,-1.09967 -1.37512,-2.45978 -2.21838,-3.44814 -0.84324,-0.9884 -1.84897,-1.82884 -2.98999,-2.75676 -1.14103,-0.92792 -2.64853,-1.77624 -4.26778,-2.45654 -1.61922,-0.68027 -3.4608,-1.1874 -5.4205,-1.2338 -1.95967,-0.0464 -3.9765,0.0288 -5.49678,0.22336 -1.52032,0.19458 -2.80962,0.54682 -3.99979,0.81528 -1.19015,0.26846 -2.46616,0.32693 -3.25193,0.49086 -0.78573,0.16395 -0.873,-0.0286 -1.10998,-0.134 -0.41247,-0.2574 -0.32934,10e-4 -0.50488,-0.1507 z"
           id="path1017" />
      </g>
      <g
         style="fill:#000000;fill-opacity:1;stroke-linejoin:miter"
         id="g1023"
         transform="rotate(90,259.41968,748.93978)">
        <path
           d="m 269.45633,344.3257 c 0.0974,0.28447 0.37985,0.9852 1.16989,2.18895 0.79008,1.20375 1.06024,1.57211 1.80701,2.4501 0.74677,0.87799 1.43477,2.06207 2.12484,2.81955 0.69007,0.75748 1.47571,1.5021 2.00831,1.92334 0.53259,0.42124 1.5932,1.00976 3.01122,1.26666 1.41804,0.25693 3.28086,0.031 4.96366,-0.41406 1.6828,-0.4451 3.24878,-1.46609 4.43762,-2.56531 1.18888,-1.09921 2.01762,-2.38946 2.68164,-4.48493 0.66403,-2.09542 0.75543,-3.0132 0.35425,-5.14998 -0.40115,-2.13678 -0.65524,-2.8335 -1.43517,-4.37299 -0.77995,-1.53949 -1.13285,-2.23416 -2.05226,-3.69608 -0.91944,-1.46188 -1.2561,-1.98928 -2.03444,-2.98315 -0.77836,-0.9939 -1.18928,-1.3236 -1.76554,-1.67047 -0.57624,-0.34686 -1.14481,-0.66699 -2.00281,-0.87633 -0.858,-0.2094 -1.8385,-0.3326 -3.13483,0.0223 -1.29635,0.35488 -2.28902,0.7528 -3.84729,1.4777 -1.55829,0.72487 -3.08618,1.5212 -4.55878,2.39797 -1.47262,0.87677 -2.39275,1.48843 -3.12493,1.94223 -0.73222,0.45382 -1.16837,0.8956 -1.66452,1.49652 -0.49616,0.60088 -0.38916,1.48238 -0.0767,2.13482 0.3125,0.65241 0.5554,0.95502 0.76,1.15386 0.20464,0.1989 0.20464,0.1989 0.11098,0.041 0,0 -0.059,-0.39191 -0.1825,-0.79547 -0.1235,-0.40357 -0.22616,-1.19455 -0.0269,-1.5541 0.19924,-0.35957 0.66977,-0.6465 1.03077,-0.84764 0.36097,-0.20114 1.52887,-0.69671 2.42535,-1.10672 0.89652,-0.41 3.17004,-1.4154 4.43892,-1.9205 1.2689,-0.50506 3.35243,-1.2056 4.16844,-1.45464 0.81598,-0.24906 2.05683,-0.42323 2.39008,-0.29954 0.33325,0.12369 0.99545,0.36307 1.20691,0.53107 0.21142,0.168 0.82913,0.59597 0.98187,0.72445 0.15277,0.12852 0.78223,1.29752 1.22775,2.10065 0.44553,0.80317 1.49903,2.6947 1.92941,3.68987 0.43039,0.9952 1.14524,2.55485 1.41211,3.4143 0.26685,0.85942 0.62091,2.92168 0.51847,3.76113 -0.10244,0.83944 -0.73902,2.43512 -1.37064,3.32794 -0.63162,0.89283 -1.43268,1.60501 -2.5089,2.28857 -1.07624,0.6836 -2.4433,0.98774 -3.7583,1.15729 -1.315,0.16953 -2.07853,0.0264 -2.65147,-0.30957 -0.57293,-0.33596 -1.09277,-0.59566 -1.69266,-1.12546 -0.59987,-0.52978 -1.47073,-1.1878 -2.37127,-2.15753 -0.90055,-0.96973 -1.75916,-1.66553 -2.4925,-2.3558 -0.7333,-0.69027 -1.56347,-1.5102 -1.83877,-1.76633 -0.45673,-0.49011 -0.38687,-0.16964 -0.5683,-0.40364 z"
           id="path1021" />
      </g>
      <g
         style="fill:#000000;fill-opacity:1;stroke-linejoin:miter"
         id="g1027"
         transform="rotate(90,259.41968,748.93978)">
        <path
           d="m 348.58786,388.36426 c -0.94888,-0.37873 -2.99771,-0.93696 -5.24289,-1.70618 -2.24521,-0.76926 -4.69852,-1.76965 -7.36297,-3.02215 -2.66443,-1.25248 -5.5455,-2.75413 -7.3136,-3.73543 -1.76807,-0.9813 -2.18137,-1.22615 -2.48752,-1.44243 -0.30615,-0.21631 -0.50284,-0.38419 -0.58036,-0.47417 -0.0775,-0.09 -0.0469,-0.0518 -0.1491,-0.32487 -0.10222,-0.27307 -0.2255,-0.63593 -0.34687,-1.08293 -0.12133,-0.447 -0.23515,-0.9761 -0.33315,-1.58507 -0.098,-0.60901 -0.18265,-1.29511 -0.25874,-1.96623 -0.0761,-0.6711 -0.0927,-1.33562 -0.065,-1.95003 0.0277,-0.61441 0.10169,-1.17927 0.21829,-1.69677 0.11665,-0.51753 0.27842,-0.98875 0.50232,-1.41236 0.22388,-0.42359 0.63793,-0.99644 1.14936,-1.5983 0.51137,-0.60187 1.12069,-1.22944 1.82544,-1.88257 0.70473,-0.65314 1.50381,-1.33157 2.50823,-2.11462 1.00446,-0.78305 2.0597,-1.57138 2.97947,-2.22445 0.91977,-0.6531 1.70071,-1.17198 2.33969,-1.5495 0.63901,-0.37757 1.12464,-0.61048 1.48382,-0.77934 0.35917,-0.16886 0.64277,-0.29656 1.31092,-0.5065 0.66815,-0.20996 1.6685,-0.48401 2.984,-0.83801 1.3155,-0.35403 2.93702,-0.8306 4.32108,-1.14655 1.38407,-0.31597 1.38407,-0.31597 0.45026,-0.17962 0,0 -1.90091,0.0498 -3.48774,0.10986 -1.58682,0.0601 -2.85528,0.16686 -3.8156,0.29084 -0.96033,0.12399 -1.63114,0.25686 -1.97513,0.3822 -0.34397,0.12532 -0.80311,0.22717 -1.49073,0.49334 -0.68759,0.26615 -1.49354,0.65043 -2.42926,1.15461 -0.93573,0.50421 -2.00256,1.13379 -3.20572,1.88861 -1.20316,0.75479 -2.18096,1.41638 -3.07473,2.07666 -0.89377,0.66025 -1.69486,1.32846 -2.40893,2.0005 -0.71406,0.67198 -1.34095,1.35048 -1.89918,2.07182 -0.55822,0.72138 -0.92978,1.46354 -1.18359,2.16518 -0.25383,0.7016 -0.44133,1.44353 -0.56275,2.22313 -0.1214,0.7796 -0.18673,1.59525 -0.18338,2.46374 0.003,0.86847 0.0948,1.73823 0.23502,2.48553 0.14023,0.7473 0.2973,1.43333 0.47583,2.06037 0.17853,0.62708 0.37735,1.19925 0.58865,1.66565 0.2113,0.46643 0.3266,0.7504 0.6447,1.18744 0.3181,0.43701 0.69316,0.78494 1.12505,1.0921 0.43188,0.30716 0.92617,0.59554 1.48211,0.8725 0.55591,0.27698 3.74576,1.76798 6.74329,2.98676 2.99755,1.21875 5.78207,2.15435 8.34888,2.8023 2.5668,0.64795 4.91297,0.98456 6.02697,0.89496 2.10215,-0.009 1.12543,-0.23028 2.11356,-0.15002 z"
           id="path1025" />
      </g>
      <g
         style="fill:#000000;fill-opacity:1;stroke-linejoin:miter"
         id="g1031"
         transform="rotate(90,259.41968,748.93978)">
        <path
           d="m 348.12567,355.5342 c -0.0429,0.17628 -0.0744,0.52415 -0.1065,0.87144 -0.0321,0.34732 -0.061,0.69406 -0.0925,1.04068 -0.0314,0.34662 -0.0562,0.6929 -0.0865,0.98984 -0.0303,0.2969 -0.056,0.53729 -0.0801,0.75692 -0.024,0.21964 -0.0475,0.41828 -0.0746,0.59542 -0.0272,0.17717 -0.0534,0.33223 -0.1708,1.0166 -0.11736,0.6844 -0.30376,1.8798 -0.49566,2.68324 -0.19186,0.80341 -0.35751,1.55701 -0.49859,2.23876 -0.14109,0.68174 -0.25479,1.29274 -0.34575,1.83363 -0.0909,0.54092 -0.15746,0.99697 -0.2502,1.60431 -0.0927,0.6073 -0.18604,1.24256 -0.2757,1.90276 -0.0897,0.66023 -0.17572,1.34538 -0.19854,2.06025 -0.0229,0.71485 -0.0421,1.42487 -0.0797,1.82185 -0.0377,0.39693 -0.0673,0.75115 -0.09,1.03963 -0.0227,0.28847 -0.0386,0.51307 -0.0484,0.68161 -0.01,0.16856 -0.0109,0.25486 -0.0164,0.47686 -0.005,0.22206 -0.004,0.4684 7.6e-4,0.7308 0.005,0.26244 0.009,0.5414 0.0257,0.8375 0.0166,0.29612 0.0343,0.6111 0.0704,1.0224 0.0362,0.41135 0.0881,0.836 0.1624,1.26826 0.0743,0.43224 0.16607,0.87262 0.27514,1.32134 0.1091,0.4487 0.24756,0.93266 1.4516,4.01478 1.20404,3.08209 1.23243,3.14734 1.26523,3.21356 0.0328,0.0663 0.0585,0.13678 0.0879,0.20871 0.0294,0.0719 0.0629,0.14515 0.0901,0.20071 0.0271,0.0556 0.0271,0.0556 0.009,0.0185 0,0 -0.0362,-0.0741 -0.0683,-0.1469 -0.0322,-0.0728 -0.0602,-0.14428 -0.0782,-0.21633 -0.018,-0.072 -0.0263,-0.14365 -0.22705,-1.82577 -0.20078,-1.68217 -0.75768,-4.9276 -0.8071,-5.34748 -0.0494,-0.41986 -0.0896,-0.83838 -0.11458,-1.24197 -0.025,-0.4036 -0.0351,-0.79203 -0.0342,-1.16501 7.9e-4,-0.37299 0.018,-0.74109 0.0336,-1.03168 0.0156,-0.29056 0.0349,-0.56168 0.0507,-0.81238 0.0158,-0.2507 0.0408,-0.48041 0.0652,-0.68866 0.0243,-0.20828 0.051,-0.41172 0.0628,-0.49774 0.0117,-0.086 0.0372,-0.24051 0.077,-0.46826 0.0398,-0.22778 0.0937,-0.52515 0.16107,-0.89044 0.0674,-0.36528 0.14765,-0.84546 0.2387,-1.57868 0.0911,-0.73318 0.19453,-1.42544 0.22663,-2.0989 0.0321,-0.67347 0.0642,-1.32224 0.0946,-1.94645 0.0304,-0.62417 0.0636,-1.23007 0.0888,-1.70129 0.0253,-0.47119 0.0656,-1.0155 0.12183,-1.63928 0.0563,-0.62375 0.11917,-1.32746 0.20007,-2.10868 0.0809,-0.7812 0.1731,-1.6851 0.1916,-2.93936 0.0185,-1.25421 0.0197,-1.41491 0.0146,-1.5982 -0.005,-0.18332 -0.0155,-0.38376 -0.0271,-0.60194 -0.0116,-0.21816 -0.0302,-0.45452 -0.056,-0.71136 -0.0258,-0.2568 -0.0722,-0.61138 -0.12292,-0.9616 -0.0507,-0.35024 -0.1117,-0.69834 -0.17969,-1.04429 -0.068,-0.34595 -0.14644,-0.68935 -0.21606,-0.85818 -0.0836,-0.34097 -0.21033,-0.15744 -0.22431,-0.32957 z"
           id="path1029" />
      </g>
      <g
         style="fill:#000000;fill-opacity:1;stroke-linejoin:miter"
         id="g1211"
         transform="rotate(90,259.41968,748.93978)">
        <path
           d="m 231.86275,351.30942 c 0.0563,-0.37418 0.0489,-1.01992 0.0371,-1.5408 -0.0118,-0.52092 -0.0272,-0.91602 -0.025,-1.18252 0.002,-0.26652 0.0136,-0.37956 0.0631,-0.64952 0.0495,-0.26998 0.14248,-0.75608 0.24561,-1.24642 0.10311,-0.49036 0.2193,-0.98493 0.34147,-1.4852 0.12218,-0.50028 0.26039,-1.0048 0.38759,-1.39063 0.12718,-0.3858 0.25731,-0.70543 0.38591,-1.01001 0.1286,-0.30456 0.26291,-0.59137 0.39738,-0.86224 0.13446,-0.27088 0.26755,-0.52658 0.65714,-1.12454 0.38959,-0.59797 1.0612,-1.64301 1.69867,-2.7024 0.63746,-1.05938 1.24049,-2.13302 1.76048,-3.24244 0.51999,-1.1094 0.96414,-2.2469 1.23534,-2.91903 0.27119,-0.67207 0.52789,-1.08291 0.88559,-1.57443 0.35771,-0.49151 0.80961,-1.06119 1.36117,-1.69764 0.55158,-0.63643 1.19476,-1.3441 1.83658,-1.96227 0.64182,-0.61816 1.33136,-1.17551 2.06259,-1.7399 0.73125,-0.56439 1.49947,-1.14395 2.29938,-1.74983 0.7999,-0.60588 1.63066,-1.24242 2.3111,-1.65666 0.68043,-0.41422 0.68043,-0.41422 0.21157,-0.16642 0,0 -0.98344,0.41056 -1.95494,0.78022 -0.97149,0.36966 -1.88864,0.77666 -2.7577,1.20733 -0.86905,0.43067 -1.68747,0.88706 -2.48822,1.37027 -0.80077,0.48319 -1.65299,1.19321 -2.36743,1.82831 -0.71444,0.6351 -1.32894,1.22937 -1.85582,1.77575 -0.52689,0.54636 -0.96184,1.0549 -1.32909,1.57716 -0.36725,0.52224 -0.89821,1.64148 -1.43386,2.68597 -0.53564,1.04453 -1.0035,2.12592 -1.50297,3.20147 -0.49946,1.07557 -1.02421,2.14896 -1.58887,3.2292 -0.56463,1.08026 -0.7247,1.44107 -0.84555,1.75482 -0.12083,0.31375 -0.23134,0.64203 -0.33679,0.98263 -0.10547,0.34061 -0.20882,0.69285 -0.30926,1.07999 -0.10047,0.38714 -0.18589,0.96414 -0.2522,1.50754 -0.0663,0.54339 -0.11893,1.07946 -0.14942,1.60916 -0.0305,0.52969 -0.0444,1.05186 -0.0419,1.56158 0.002,0.50974 -0.002,0.62775 0.0355,0.86045 0.0372,0.23269 0.11322,0.5563 0.22821,0.9888 0.11497,0.43246 0.27786,0.97533 0.43771,1.27343 0.22063,0.65268 0.29903,0.27426 0.35979,0.62882 z"
           id="path1209" />
      </g>
    </g>
  </g>
</svg>
