<?xml version="1.0" encoding="UTF-8" standalone="no"?>
<svg
   version="1.1"
   width="135.38521"
   height="135.38521"
   viewBox="0 0 135.38521 135.38521"
   id="svg1214"
   xmlns="http://www.w3.org/2000/svg"
   xmlns:svg="http://www.w3.org/2000/svg">
  <defs
     id="defs1218" />
  <g
     id="g7038"
     transform="translate(-97.594231,-1129.4353)">
    <rect
       style="display:inline;opacity:0.5;fill:none;fill-opacity:1;stroke:none;stroke-width:2.66644;stroke-dasharray:none;stroke-opacity:1"
       id="rect5443"
       width="135.38521"
       height="135.38521"
       x="97.594231"
       y="1129.4353" />
    <g
       id="g7023">
      <g
         id="g4048"
         transform="translate(564.44224,761.62891)">
        <g
           style="fill:#000000;fill-opacity:1;stroke-linejoin:miter"
           id="g143"
           transform="rotate(90,259.41968,748.93978)">
          <path
             d="m -86.27912,1456.1511 c -0.30373,-0.7398 -1.03836,-1.9026 -1.63953,-2.8571 -0.60116,-0.9546 -1.05036,-1.7111 -1.338415,-2.259 -0.288065,-0.5478 -0.390985,-0.8534 -0.521255,-1.3424 -0.13027,-0.489 -0.2891,-1.1283 -0.38492,-1.7746 -0.09582,-0.6465 -0.13974,-1.2997 -0.12529,-1.9632 0.01445,-0.6634 0.0873,-1.3387 0.17275,-1.8464 0.08545,-0.5077 0.18392,-0.9438 0.34422,-1.5901 0.16031,-0.6461 0.38693,-1.4905 0.584815,-2.5511 0.197885,-1.0607 0.447365,-2.318 0.608105,-3.1335 0.16074,-0.8153 0.21556,-1.0527 0.280056,-1.2966 0.06449,-0.244 0.144279,-0.4928 0.237044,-0.7469 0.09276,-0.2542 0.1948,-0.5154 0.31276,-0.7802 0.11797,-0.2648 0.24194,-0.5234 0.35515,-0.7417 0.113204,-0.2183 0.210105,-0.3978 0.29038,-0.534 0.08028,-0.1363 0.13891,-0.2255 0.37497,-0.4833 0.23606,-0.2578 0.74208,-0.8317 1.29205,-1.5246 0.54996,-0.6928 1.13768,-1.5128 1.76245,-2.4615 0.62476,-0.9489 1.266874,-2.0425 1.83169,-2.8762 0.564815,-0.8338 0.564815,-0.8338 0.15107,-0.3075 0,0 -0.93906,0.964 -1.82711,1.7954 -0.88805,0.8314 -1.66192,1.5807 -2.34574,2.2274 -0.68381,0.6467 -1.28529,1.182 -1.80712,1.6205 -0.521835,0.4385 -0.68091,0.5968 -0.8183,0.7574 -0.13738,0.1607 -0.27944,0.3459 -0.43025,0.5601 -0.15082,0.2141 -0.310036,0.4604 -0.48773,0.7422 -0.1777,0.2817 -0.343485,0.5804 -0.49583,0.8706 -0.15234,0.2903 -0.28357,0.5838 -0.407874,0.875 -0.124316,0.2911 -0.233656,0.5832 -0.327426,0.8724 -0.09376,0.2892 -0.50538,1.6544 -0.84445,2.8341 -0.33906,1.1798 -0.62259,2.1712 -0.7664,2.995 -0.14381,0.8239 -0.24502,1.4625 -0.29367,1.9257 -0.04865,0.4631 -0.097,1.2616 -0.08049,2.0692 0.0165,0.8076 0.10145,1.5962 0.256,2.3639 0.15455,0.7676 0.38695,1.5101 0.66748,2.1997 0.280535,0.6897 0.37468,0.9912 0.68438,1.5143 0.30971,0.523 0.782075,1.1489 1.44202,1.9021 0.65993,0.7532 1.513265,1.638 2.1047,2.0433 1.08134,0.9922 0.69982,0.3148 1.18971,0.9016 z"
             id="path141" />
        </g>
        <g
           style="fill:#000000;fill-opacity:1;stroke-linejoin:miter"
           id="g147"
           transform="rotate(90,259.41968,748.93978)">
          <path
             d="m -82.55821,1392.432 c -0.01345,-0.058 -0.11355,-0.2693 -0.305766,-0.6415 -0.192214,-0.3723 -0.486764,-0.8994 -0.890614,-1.5764 -0.40385,-0.6769 -0.92625,-1.4963 -1.27121,-2.0703 -0.34496,-0.574 -0.47658,-0.8719 -0.603205,-1.1899 -0.126625,-0.318 -0.244815,-0.6585 -0.350475,-1.0227 -0.10566,-0.3642 -0.20831,-0.7491 -0.29076,-1.1212 -0.08245,-0.3719 -0.14647,-0.7441 -0.194695,-1.1602 -0.04823,-0.4162 -0.09127,-0.8738 -0.12201,-1.3738 -0.03074,-0.5 -0.04891,-1.0419 -0.05199,-1.3707 -0.0031,-0.3288 0,-0.4409 0.0044,-0.5501 0.0044,-0.1092 0.01,-0.2152 0.01684,-0.3182 0.0069,-0.103 0.01495,-0.2028 0.137174,-1.5675 0.122225,-1.3649 0.33999,-3.9628 0.47085,-4.5435 0.13085,-0.5805 0.56504,-1.6823 1.29933,-3.2097 0.734285,-1.5272 1.748384,-3.4661 3.01848,-5.8208 1.27009,-2.3547 2.72216,-5.1787 2.81585,-5.5005 0.09369,-0.3218 0.1368,-0.6365 0.1408,-0.955 0.004,-0.3187 -0.03315,-0.6407 -0.08225,-0.8821 -0.0491,-0.2414 -0.0491,-0.2414 -0.04509,-0.081 0,0 -0.07815,0.3204 -0.151215,0.6136 -0.07307,0.2931 -0.17114,0.5613 -0.2953,0.8059 -0.12417,0.2445 -0.25518,0.4405 -2.11525,2.8142 -1.860064,2.3737 -3.32657,4.4537 -4.45743,6.2037 -1.13087,1.7501 -1.940224,3.1733 -2.44932,4.3071 -0.50909,1.1339 -0.72361,2.076 -0.73128,4.7433 -0.0077,2.6672 -0.0067,2.794 -0.0038,2.918 0.003,0.124 0.0077,0.2497 0.01426,0.3775 0.0065,0.1278 0.01485,0.2573 0.02561,0.4032 0.01077,0.1459 0.08087,0.7467 0.16125,1.3112 0.08037,0.5643 0.1711,1.0902 0.27571,1.5776 0.1046,0.4875 0.224235,0.9365 0.35102,1.3483 0.126786,0.4117 0.285546,0.8429 0.45614,1.2478 0.17059,0.4049 0.34922,0.7872 0.53726,1.1466 0.18805,0.3595 0.38736,0.6949 0.61345,1.0254 0.22608,0.3304 0.98336,1.1467 1.60626,1.8074 0.62291,0.6608 1.13211,1.1757 1.51546,1.5543 0.383354,0.3785 0.63416,0.6254 0.71867,0.6999 0.11016,0.1196 0.20722,0 0.23287,0.05 z"
             id="path145" />
        </g>
        <g
           style="fill:#000000;fill-opacity:1;stroke-linejoin:miter"
           id="g151"
           transform="rotate(90,259.41968,748.93978)">
          <path
             d="m -71.92996,1388.2452 c 0.60807,-0.1452 1.734106,-0.6612 2.87439,-1.2679 1.14028,-0.6068 2.30544,-1.2841 3.49409,-2.0313 1.18866,-0.747 2.40749,-1.553 3.16991,-2.1108 0.762423,-0.5579 0.963626,-0.7607 1.14383,-0.977 0.180197,-0.2165 0.337824,-0.4476 0.469908,-0.6934 0.13208,-0.2457 0.236065,-0.5055 0.332482,-1.2684 0.09642,-0.763 0.154853,-1.7033 0.180686,-2.5258 0.02584,-0.8224 0.02327,-1.5304 -0.0071,-2.1336 -0.03033,-0.6031 -0.09896,-1.1165 -0.151901,-1.3942 -0.05293,-0.2776 -0.08565,-0.4735 -0.120193,-0.6562 -0.03454,-0.1826 -0.07031,-0.3529 -0.106408,-0.5113 -0.03611,-0.1583 -0.07308,-0.3064 -0.216402,-0.8081 -0.143313,-0.5017 -0.362825,-1.2648 -0.553923,-1.9304 -0.191101,-0.6656 -0.342064,-1.2366 -0.467987,-1.7057 -0.125923,-0.4691 -0.213768,-0.8367 -0.277107,-1.0851 -0.06333,-0.2484 -0.104683,-0.445 -0.173657,-0.8584 -0.06897,-0.4135 -0.159133,-1.0129 -0.275006,-1.7881 -0.115874,-0.7753 -0.251254,-1.7247 -0.35343,-2.4167 -0.102173,-0.6921 -0.155648,-0.955 -0.224206,-1.2051 -0.06856,-0.2503 -0.154247,-0.4949 -0.281776,-0.7395 -0.127533,-0.2448 -0.303818,-0.5066 -0.532728,-0.7428 -0.228914,-0.2362 -0.50973,-0.444 -0.86045,-0.6072 -0.35073,-0.1632 -0.763446,-0.2471 -1.18344,-0.2215 -0.41999,0.025 -0.79571,0.1466 -1.13703,0.3704 -0.341314,0.2239 -0.42114,0.2841 -0.82381,0.5495 -0.402674,0.2654 -1.05594,0.6612 -1.93781,1.1804 -0.881864,0.5192 -1.98508,1.1656 -2.74247,1.6046 -0.75738,0.439 -1.07076,0.6571 -1.34735,0.9216 -0.27658,0.2646 -0.50748,0.5683 -0.68756,0.8998 -0.18008,0.3314 -0.30964,0.6819 -0.36452,0.855 -0.05488,0.1732 -0.14247,0.5476 -0.17856,0.9164 -0.0361,0.3688 -0.0544,0.8166 -0.05708,1.3694 -0.0027,0.5527 0.0093,1.2169 0.09728,2.4859 0.08799,1.2689 0.231336,2.8122 0.346486,4.1156 0.11516,1.3035 0.20648,2.3662 0.26688,3.1857 0.0604,0.8195 0.08572,1.3894 0.25774,2.8218 0.17202,1.4325 0.54482,3.782 0.764606,4.5605 0.219784,0.7787 0.410339,1.4267 0.564629,1.9694 0.154295,0.5427 0.269735,0.9818 0.321731,1.2618 0.05199,0.2802 0.05199,0.2802 0.04146,0.092 0,0 0.05135,-0.3826 0.07531,-0.8799 0.02396,-0.4972 0.02688,-1.1078 -4.7e-4,-1.8291 -0.02736,-0.7214 -0.0859,-1.5054 -0.07171,-3.8508 0.01419,-2.3456 0.06397,-2.7063 0.101875,-3.4023 0.03791,-0.6959 0.06578,-1.6225 0.08391,-2.7855 0.01813,-1.1631 0.01783,-2.5638 0.0059,-4.1875 -0.01197,-1.6235 0.03142,-2.278 0.07517,-2.871 0.04374,-0.5929 0.08912,-1.0568 0.12846,-1.3807 0.03934,-0.3238 0.07019,-0.4773 0.08725,-0.4927 0.01706,-0.015 0.09815,-0.2583 0.13879,-0.3319 0.04063,-0.074 0.07905,-0.1207 0.11655,-0.1528 0.03751,-0.032 0.07995,-0.058 0.17447,-0.1023 0.09451,-0.044 1.40044,-0.6912 2.4819,-1.2408 1.08146,-0.5497 1.93855,-1.0024 2.5825,-1.356 0.64395,-0.3536 1.09577,-0.6262 1.304566,-0.7892 0.208794,-0.163 -0.114286,0.034 -0.292321,0.076 -0.178039,0.042 -0.39302,0.038 -0.576215,-0.013 -0.18319,-0.05 -0.30225,-0.1155 -0.35532,-0.1526 -0.05308,-0.037 -0.15017,-0.147 -0.186995,-0.199 -0.03682,-0.052 -0.0446,-0.03 -0.01793,0.043 0.02666,0.073 0.06235,0.195 0.10236,0.3438 0.04,0.1488 0.239855,1.2013 0.4157,2.0998 0.17583,0.8986 0.32282,1.6309 0.45,2.2001 0.127184,0.5692 0.229746,0.9871 0.30294,1.2395 0.07321,0.2524 0.16098,0.5596 0.29932,0.9973 0.13833,0.4378 0.30824,0.9606 0.52461,1.5682 0.21637,0.6077 0.45948,1.3078 0.750005,2.0904 0.290525,0.7824 0.312847,0.8454 0.347153,0.9546 0.03431,0.109 0.07154,0.236 0.111297,0.3806 0.03976,0.1446 0.08401,0.3055 0.134485,0.499 0.05048,0.1935 0.133246,0.4825 0.198332,0.8654 0.06509,0.3828 0.129433,0.9223 0.176038,1.6042 0.0466,0.6819 0.08147,1.5001 0.108897,2.4316 0.02742,0.9316 0.04216,0.8204 0.01352,0.9152 -0.02864,0.095 -0.07367,0.1987 -0.138298,0.3118 -0.06463,0.1131 -0.151112,0.2353 -0.226662,0.3354 -0.07555,0.1 -1.189293,1.0485 -2.273883,1.9644 -1.08459,0.9159 -2.13881,1.7809 -3.15278,2.6109 -1.01397,0.8301 -1.98965,1.6252 -2.40965,2.1005 -0.926596,0.7833 -0.34666,0.596 -0.85326,0.9039 z"
             id="path149" />
        </g>
        <g
           style="fill:#000000;fill-opacity:1;stroke-linejoin:miter"
           id="g155"
           transform="rotate(90,259.41968,748.93978)">
          <path
             d="m -70.12296,1453.9877 c -0.6061,-0.8103 -1.89344,-1.9814 -2.987636,-2.8976 -1.094184,-0.9161 -1.981044,-1.6011 -2.657254,-2.0803 -0.67623,-0.4793 -1.181796,-0.765 -1.276576,-0.8111 -0.09478,-0.046 -0.177984,-0.1206 -0.226024,-0.1701 -0.04803,-0.05 -0.05367,-0.061 2.7e-4,0.016 0.05394,0.077 0.1453,0.3818 0.2599,-0.3108 0.114604,-0.6928 0.31347,-2.0897 0.47734,-3.2193 0.16385,-1.1293 0.29175,-1.9892 0.3872,-2.5708 0.09546,-0.5814 0.15557,-0.849 0.98136,-3.8612 0.825795,-3.0122 2.39049,-8.9259 1.91351,-8.3314 -0.476974,0.5945 -0.56632,0.6272 -0.63138,0.6427 -0.06505,0.015 -0.102705,0.021 -0.11168,0.025 -0.009,0 -0.12162,-0.011 0.68183,0.1236 0.80343,0.1343 1.69134,0.2282 2.63394,0.2889 0.9426,0.061 1.941435,0.081 2.996916,0.07 1.055474,-0.011 2.058974,-0.06 2.765194,0.01 0.70621,0.068 0.54243,0.034 0.39389,-0.03 -0.14855,-0.064 -0.300914,-0.1702 -0.430034,-0.31 -0.12912,-0.1397 -0.215622,-0.2874 -0.260916,-0.4116 -0.0453,-0.124 -0.06436,-0.3064 -0.06568,-0.3083 -0.0013,0 -0.0333,0.203 -0.10442,0.5317 -0.07112,0.3288 -0.17512,0.7666 -0.31935,1.3159 -0.14424,0.5495 -0.152375,0.6106 -0.20712,0.7747 -0.05475,0.1642 -0.18634,0.5311 -0.39186,1.0605 -0.20551,0.5293 -0.47007,1.222 -0.813176,2.0878 -0.343109,0.8659 -0.485364,1.3466 -0.585774,1.7343 -0.10041,0.3878 -0.18762,0.7573 -0.261546,1.109 -0.07393,0.3517 -0.132844,0.6862 -0.178104,1.0003 -0.04525,0.3142 -0.10807,0.8227 -0.155606,1.2975 -0.04753,0.4749 -0.08304,0.9146 -0.106979,1.3197 -0.02393,0.4051 -0.03422,0.7761 -0.03328,1.1294 9.35e-4,0.3533 0.378605,4.6121 0.659365,7.8037 0.28077,3.1918 0.28077,3.1918 0.26808,1.0629 0,0 0.49809,-4.2609 0.67777,-6.5137 0.17968,-2.2528 0.222796,-2.5584 0.28146,-2.9027 0.05866,-0.3441 0.12816,-0.7264 0.21504,-1.1457 0.08688,-0.4194 0.18885,-0.8754 0.2729,-1.2471 0.08404,-0.3716 0.15973,-0.6388 0.246525,-0.9282 0.08679,-0.2893 0.188005,-0.5999 0.30452,-0.9309 0.116515,-0.3311 0.248425,-0.6824 0.514775,-1.2466 0.26635,-0.5642 0.64756,-1.3379 0.95385,-1.9622 0.30629,-0.6242 0.53024,-1.1046 0.686457,-1.4466 0.156213,-0.3421 0.253393,-0.601 0.364327,-0.9179 0.110939,-0.3169 0.291576,-0.8442 0.433546,-1.2917 0.141977,-0.4474 0.243967,-0.8241 0.309366,-1.1615 0.06539,-0.3374 0.07822,-0.7379 0.01929,-1.018 -0.05893,-0.28 -0.15134,-0.4977 -0.297913,-0.7101 -0.146575,-0.2124 -0.345405,-0.3979 -0.56726,-0.5299 -0.221855,-0.1319 -0.44504,-0.2099 -0.95915,-0.3 -0.51412,-0.09 -1.41491,-0.2273 -2.50071,-0.2612 -1.08581,-0.034 -2.04787,-0.087 -2.939745,-0.1692 -0.891875,-0.083 -1.713335,-0.188 -2.460635,-0.3288 -0.7473,-0.1407 -1.4883,-0.2715 -1.75377,-0.2901 -0.26546,-0.019 -0.475414,-0.011 -0.69714,0.019 -0.22172,0.03 -0.45475,0.09 -0.69136,0.1879 -0.23662,0.098 -1.213814,1.3132 -2.428635,7.332 -1.214815,6.019 -1.263185,6.2382 -1.314605,6.7195 -0.05143,0.4812 -0.10238,1.1963 -0.160355,2.171 -0.05796,0.9748 -0.114701,2.2141 -0.17659,3.7183 -0.06189,1.5041 -0.06142,1.7565 0.06336,2.0526 0.12478,0.2963 0.247474,0.4367 0.36715,0.541 0.11967,0.1043 0.24885,0.1983 0.478575,0.3413 0.229729,0.143 0.518285,0.2177 0.985615,0.4411 0.46732,0.2234 1.23304,0.6434 2.26815,1.2462 1.03509,0.6027 2.34576,1.3691 3.186764,1.677 1.620491,0.8802 0.924556,0.1942 1.704036,0.7665 z"
             id="path153" />
        </g>
        <g
           style="fill:#000000;fill-opacity:1;stroke-linejoin:miter"
           id="g159"
           transform="rotate(90,259.41968,748.93978)">
          <path
             d="m -20.254234,1442.8402 c -0.06621,-0.1512 -0.243466,-0.4208 -0.43264,-0.6903 -0.189175,-0.2695 -0.392249,-0.5371 -0.606993,-0.8044 -0.214745,-0.2673 -0.444548,-0.5302 -2.265391,-2.3454 -1.820842,-1.8152 -5.293094,-5.0755 -5.337558,-5.1327 -0.04447,-0.057 -0.08975,-0.1231 -0.124741,-0.187 -0.03499,-0.064 -0.06098,-0.1261 -0.0798,-0.1884 -0.01882,-0.062 -0.04001,-0.1563 -0.02502,-0.094 0.01499,0.062 0.01962,0.074 0.02529,0.036 0.0057,-0.038 0.01678,-0.1128 0.03501,-0.2167 0.01824,-0.104 0.02641,-0.1395 0.226007,-0.8398 0.199601,-0.7004 0.379912,-1.3855 0.534845,-2.0421 0.154937,-0.6566 0.28876,-1.2842 0.393746,-1.8847 0.104988,-0.6004 0.199344,-1.2277 0.598912,-5.7275 0.399568,-4.4996 0.571834,-5.3832 0.725422,-6.2734 0.153587,-0.8904 0.274028,-1.6415 0.34365,-2.2616 0.06962,-0.6202 0.10165,-1.1193 0.09885,-1.475 -0.0028,-0.3556 -0.05433,-2.4037 -0.157724,-4.5296 -0.103396,-2.1259 -0.266413,-4.3094 -0.484171,-6.55 -0.21776,-2.2407 -0.490408,-4.5385 -0.825973,-6.8791 -0.335566,-2.3407 -0.344576,-2.1563 -0.369801,-2.127 -0.02522,0.029 -0.05448,0.048 -0.04811,0.038 0.0064,-0.01 0.06749,-0.047 0.218384,-0.098 0.150896,-0.052 0.646581,-0.1897 1.195148,-0.362 0.548567,-0.1722 1.143484,-0.3784 1.7868,-0.6146 0.643315,-0.2362 1.332594,-0.512 2.023844,-0.8076 0.69125,-0.2958 1.357573,-0.3731 2.065983,-0.4943 0.70841,-0.1212 1.345983,-0.2887 1.910368,-0.4906 0.564383,-0.2019 1.052151,-0.4388 1.386318,-0.6086 0.33417,-0.17 0.33417,-0.17 0.102822,-0.082 0,0 -0.488404,0.1002 -1.026757,0.1564 -0.538353,0.056 -1.12801,0.076 -1.771961,0.065 -0.643949,-0.011 -1.34465,-0.048 -2.209991,0.029 -0.865342,0.077 -1.611536,0.2576 -2.300818,0.4146 -0.689281,0.1571 -1.320293,0.2945 -1.892994,0.4101 -0.5727,0.1155 -1.086887,0.2068 -1.467588,0.2697 -0.380703,0.063 -0.702122,0.1479 -1.006378,0.2987 -0.304255,0.1509 -0.579665,0.3775 -0.795828,0.6755 -0.216164,0.2979 -0.343563,0.6443 -0.310273,2.1096 0.03329,1.4653 0.140526,3.7897 0.216631,6.0469 0.07611,2.2571 0.123181,4.4472 0.131096,6.5711 0.0079,2.1239 -0.01537,4.1817 -0.04157,5.3093 -0.0262,1.1274 -0.04359,1.3757 -0.09445,1.8171 -0.05086,0.4413 -0.114354,1.0514 -0.201512,1.8186 -0.08716,0.7671 -0.203308,1.6867 -0.347061,4.5507 -0.143751,2.864 -0.245315,7.3844 -0.284921,7.8827 -0.03961,0.4983 -0.105515,1.0614 -0.18741,1.6623 -0.0819,0.601 -0.182057,1.239 -0.303742,1.9129 -0.121688,0.6739 -0.264635,1.4134 -0.288071,1.6278 -0.02343,0.2143 -0.03269,0.3691 -0.03581,0.5167 -0.0031,0.1476 0.0018,0.2957 0.02399,0.4658 0.02218,0.1703 0.0657,0.3272 0.142775,0.5232 0.07708,0.1959 0.178894,0.3971 0.299526,0.586 0.120632,0.1889 0.25877,0.3648 0.41239,0.5268 0.153622,0.1619 0.34811,0.333 4.210796,3.1315 3.862688,2.7984 4.129922,2.991 4.402251,3.1896 0.272329,0.1984 0.538585,0.396 0.799034,0.5925 0.260448,0.1964 0.517141,0.3904 0.661548,0.4707 0.248392,0.1964 0.249639,-0.014 0.353625,0.1024 z"
             id="path157" />
        </g>
      </g>
    </g>
  </g>
</svg>
