<?xml version="1.0" encoding="UTF-8" standalone="no"?>
<svg
   version="1.1"
   width="135.38521"
   height="135.38521"
   viewBox="0 0 135.38521 135.38521"
   id="svg1214"
   xmlns="http://www.w3.org/2000/svg"
   xmlns:svg="http://www.w3.org/2000/svg">
  <defs
     id="defs1218" />
  <g
     id="g7448"
     transform="translate(-706.9707,-428.23495)">
    <rect
       style="display:inline;opacity:0.5;fill:none;fill-opacity:1;stroke:none;stroke-width:2.66644;stroke-dasharray:none;stroke-opacity:1"
       id="rect5229"
       width="135.38521"
       height="135.38521"
       x="706.9707"
       y="428.23495" />
    <g
       id="g4378">
      <g
         style="fill:#000000;fill-opacity:1;stroke-linejoin:miter"
         id="g727"
         transform="rotate(90,259.41968,748.93978)">
        <path
           d="m -27.242628,283.4554 c -0.258604,-0.28996 -0.81793,-0.86748 -1.36067,-1.59834 -0.542738,-0.73086 -1.079422,-1.62466 -1.609089,-2.69366 -0.529669,-1.06898 -1.053003,-2.31666 -1.429474,-3.32285 -0.376469,-1.0062 -0.594069,-1.66398 -0.790419,-2.36715 -0.196348,-0.70317 -0.37119,-1.4518 -0.524263,-2.2459 -0.153072,-0.7941 -0.29187,-1.63213 -0.372299,-2.2257 -0.08042,-0.59357 -0.103764,-0.89706 -0.105324,-1.22006 -0.0016,-0.323 0.01321,-0.66554 0.04904,-1.02811 0.03582,-0.36258 0.09849,-0.74443 0.295004,-1.58621 0.196516,-0.8418 0.573833,-2.25586 1.093075,-3.84632 0.519243,-1.59048 1.224138,-3.3419 2.110811,-5.25207 0.886673,-1.91017 1.942917,-3.9843 2.74122,-5.48883 0.798304,-1.50453 1.258679,-2.2047 1.79115,-2.7988 0.532472,-0.59411 1.155632,-1.08108 1.87799,-1.48034 0.722357,-0.39926 1.56097,-0.70276 2.256754,-0.79744 0.695784,-0.0947 0.695784,-0.0947 0.228544,-0.0568 0,0 -0.944633,2.6e-4 -1.855182,0.0929 -0.910549,0.0926 -1.775173,0.36664 -2.574028,0.82526 -0.798853,0.45861 -1.52533,1.08665 -2.154431,1.86261 -0.6291,0.77597 -2.082452,2.82753 -3.32481,4.78775 -1.242355,1.96021 -2.270244,3.82053 -3.103207,5.57345 -0.83296,1.75294 -1.465697,3.40467 -1.822498,4.9546 -0.356796,1.54995 -0.417999,2.0851 -0.446792,2.56268 -0.0288,0.4776 -0.03497,0.94122 -0.01262,1.39108 0.02235,0.44986 0.07152,0.88564 0.1475,1.29758 0.07598,0.41189 0.281822,1.31521 0.513153,2.18103 0.231335,0.86583 0.486752,1.68536 0.762665,2.45943 0.275912,0.7741 0.572548,1.5026 0.893558,2.18174 0.321011,0.67914 1.030914,2.02814 1.758919,3.1969 0.728006,1.16876 1.471073,2.14226 2.221623,2.91843 0.750547,0.77618 1.51107,1.34155 1.926815,1.50006 0.747892,0.34601 0.485139,0.0356 0.817289,0.22307 z"
           id="path725" />
      </g>
      <g
         style="fill:#000000;fill-opacity:1;stroke-linejoin:miter"
         id="g731"
         transform="rotate(90,259.41968,748.93978)">
        <path
           d="m -23.772135,219.91313 c -0.423545,-0.35106 -1.341457,-1.02186 -2.284643,-1.88826 -0.943186,-0.86639 -1.917728,-1.94894 -2.932455,-3.25436 -1.014727,-1.30541 -2.064976,-2.84383 -2.76718,-4.04618 -0.702201,-1.20233 -0.966117,-1.96679 -1.1021,-2.74472 -0.135987,-0.77791 -0.140545,-1.58326 -0.01583,-2.42955 0.124718,-0.84628 0.383217,-1.74186 0.678432,-2.58027 0.295218,-0.83841 0.649523,-1.50417 1.340352,-2.46912 0.690826,-0.96497 1.676193,-2.22021 2.995927,-3.70946 1.319735,-1.48924 2.963576,-3.20846 4.260035,-4.41824 1.296459,-1.20977 2.310785,-1.88704 3.563301,-2.62392 1.252518,-0.73689 2.735109,-1.54023 4.439959,-2.42346 1.704849,-0.88324 3.615037,-1.89123 5.185319,-2.6192 1.570282,-0.72797 1.570282,-0.72797 0.489863,-0.33219 0,0 -2.261534,0.52299 -4.282799,1.08468 -2.021265,0.56169 -3.796127,1.17358 -5.340089,1.79728 -1.543961,0.62369 -2.864058,1.24954 -4.006316,1.90697 -1.142258,0.65743 -3.229677,2.42322 -4.944224,3.99785 -1.714547,1.57465 -3.099513,2.98843 -4.152915,4.26178 -1.053402,1.27333 -1.749543,2.44728 -2.107052,3.43512 -0.357513,0.98784 -0.681217,2.08398 -0.875243,3.24673 -0.194024,1.16275 -0.218816,2.29454 -0.05924,3.38474 0.159586,1.09019 0.496128,2.12723 1.018876,3.10911 0.52275,0.98189 1.82706,2.64765 3.085925,4.04699 1.258865,1.39933 2.49078,2.54504 3.690045,3.43234 1.199264,0.8873 2.360864,1.50626 2.965473,1.6398 1.105673,0.32723 0.65551,0.002 1.156572,0.19554 z"
           id="path729" />
      </g>
      <g
         style="fill:#000000;fill-opacity:1;stroke-linejoin:miter"
         id="g735"
         transform="rotate(90,259.41968,748.93978)">
        <path
           d="m -5.0239577,248.8412 c -0.1122913,0.18276 -0.262456,0.57253 -0.3909107,0.97771 -0.1284542,0.40517 -0.2358593,0.82474 -0.3198176,1.25784 -0.083958,0.43309 -0.153469,0.87848 -0.188155,1.18705 -0.034686,0.30854 -0.046839,0.62228 -0.05706,1.13397 -0.010222,0.5117 -0.010669,1.23082 0.00656,2.15911 0.017232,0.92829 0.050458,2.06642 0.071421,2.83826 0.020962,0.77182 0.015703,1.09372 -0.00279,1.47943 -0.018494,0.38568 -0.050685,0.8331 -0.096836,1.34076 -0.046151,0.50767 -0.10636,1.07477 -0.144927,1.46937 -0.038567,0.39458 -0.039163,0.53057 -0.034487,0.67214 0.00468,0.14156 0.013934,0.29266 0.027473,0.45609 0.013539,0.16345 0.031277,0.34054 0.088332,0.80761 0.057055,0.46708 0.1587156,1.16031 0.276936,1.76156 0.1182203,0.60127 0.252846,1.12077 0.432961,1.57582 0.180115,0.45504 0.4430155,0.87698 0.5916022,1.07055 0.1485873,0.19358 0.4603438,0.53266 0.830947,0.78846 0.3706031,0.25579 0.7758979,0.4309 1.2012305,0.54257 0.4253323,0.11166 0.8703279,0.17227 1.6903918,0.2272 0.82006388,0.0549 2.0175065,0.0807 3.1611335,0.0296 1.143627,-0.0511 2.2333994,-0.18124 3.2701006,-0.38724 1.0367014,-0.20602 2.0179481,-0.49664 2.7794919,-0.77459 0.7615445,-0.27797 1.3711225,-0.51139 1.9369205,-0.74823 0.565797,-0.23682 1.09207,-0.46979 1.56977,-0.72 0.477699,-0.25022 0.911664,-0.50894 1.238149,-0.71506 0.326486,-0.20612 0.682559,-0.50501 0.953105,-0.83148 0.270545,-0.32645 0.488529,-0.67877 0.683909,-1.0608 0.195378,-0.38204 0.372715,-0.80288 0.536813,-1.20733 0.1641,-0.40447 0.298584,-1.11615 0.271544,-1.80112 -0.02704,-0.68495 -0.15471,-1.42132 -0.370845,-2.25497 -0.216135,-0.83365 -0.521609,-1.77988 -0.80864,-2.5806 -0.287033,-0.80072 -0.523849,-1.36642 -0.789006,-1.8854 -0.265156,-0.51897 -0.561949,-0.991 -0.895166,-1.41411 -0.333217,-0.42311 -0.706474,-0.79351 -1.182236,-1.13753 -0.475761,-0.34403 -1.006609,-0.65534 -1.563766,-0.9285 -0.557159,-0.27316 -1.137321,-0.51303 -1.741871,-0.71522 -0.6045496,-0.2022 -1.2318666,-0.36942 -2.0397885,-0.51229 -0.8079225,-0.14286 -1.7243195,-0.2494 -2.6455078,-0.32373 -0.9211884,-0.0743 -1.8463025,-0.12248 -2.7759952,-0.13437 -0.92969268,-0.0119 -1.8633117,0.0125 -1.8298135,0.72197 0.033498,0.70949 0.89427453,0.38553 1.27266556,0.0697 0.37839104,-0.3158 0.65325204,-0.54647 0.91103394,-0.73555 0.2577819,-0.18911 0.497678,-0.33718 0.7183461,-0.44651 0.2206681,-0.10931 0.4617067,-0.1922 0.6482001,-0.27252 0.1864933,-0.0803 0.4399939,-0.15399 0.7771043,-0.22566 0.3371104,-0.0717 0.7541186,-0.14026 1.107591,-0.22426 0.3534725,-0.084 0.3534725,-0.084 0.1178143,-0.0868 0,0 -0.4713468,-0.18199 -0.8808989,-0.22971 -0.4095521,-0.0477 -0.7570124,-0.0616 -1.0489854,-0.0447 -0.291973,0.017 -0.4841715,0.0556 -0.7635944,0.10066 -0.2794229,0.0451 -0.59388063,0.13872 -0.92474834,0.27161 -0.33086771,0.13288 -0.67902025,0.30423 -1.04380456,0.51564 -0.36478427,0.21141 -0.5785898,0.36774 -1.5998465,1.12337 -1.0212566,0.75563 0.6238482,1.29208 1.51181947,1.39151 0.88797123,0.0994 1.76567653,0.22096 2.63381433,0.36261 0.8681378,0.14165 1.7265189,0.30809 2.5626474,0.49383 0.8361282,0.18573 1.3340916,0.34694 1.8338589,0.5405 0.4997673,0.19357 0.9704407,0.40378 1.409327,0.63956 0.4388867,0.23576 0.8472967,0.49462 1.2164877,0.76741 0.369191,0.27278 0.521102,0.42277 0.689426,0.63495 0.168322,0.21217 0.337161,0.48252 0.501783,0.81483 0.164622,0.33231 0.321307,0.72757 0.468679,1.19339 0.147371,0.46582 0.422631,1.44938 0.618067,2.26373 0.195436,0.81435 0.30792,1.45932 0.349099,1.90653 0.04118,0.4472 0.02461,0.64987 -0.0104,0.67812 -0.03501,0.0282 -0.209964,0.434 -0.345105,0.6961 -0.13514,0.26213 -0.246985,0.44887 -0.325732,0.54884 -0.07875,0.1 -0.09454,0.11249 -0.08538,0.0942 0.0092,-0.0183 -0.339195,0.18044 -0.712292,0.3668 -0.373098,0.18638 -0.787451,0.40263 -1.251455,0.63124 -0.464002,0.2286 -0.979515,0.46283 -1.5458686,0.71029 -0.5663538,0.2475 -1.3270324,0.56885 -2.1109084,0.81732 -0.7838765,0.24851 -1.6433483,0.45099 -2.5818041,0.59299 -0.938456,0.142 -1.95480536,0.22456 -3.05996631,0.25043 -1.10516089,0.0259 -1.40478399,0.0319 -1.60779829,0.0136 -0.2030143,-0.0184 -0.3373211,-0.0468 -0.4069065,-0.069 -0.069585,-0.0222 -0.091976,-0.0241 -0.1616935,-0.10805 -0.069717,-0.084 -0.1993957,-0.20302 -0.2569406,-0.2978 -0.057545,-0.0948 -0.1710735,-0.36176 -0.3050864,-0.7689 -0.1340127,-0.40713 -0.2774503,-0.942 -0.4215317,-1.6023 -0.1440816,-0.66027 -0.1777256,-0.81872 -0.205296,-0.95864 -0.027571,-0.13996 -0.048924,-0.25936 -0.064209,-0.35626 -0.015286,-0.0969 -0.024835,-0.16852 -0.030673,-0.19238 -0.00584,-0.0239 0.00302,-0.64106 0.00422,-1.21479 0.0012,-0.57376 -0.00614,-1.09153 -0.022173,-1.55441 -0.016037,-0.46289 -0.041043,-0.87232 -0.078143,-1.23402 -0.0371,-0.36168 -0.2335501,-1.62844 -0.3999704,-2.67922 -0.166421,-1.05081 -0.29942,-1.89226 -0.402586,-2.52301 -0.1031667,-0.63077 -0.171034,-1.0484 -0.192328,-1.24716 -0.021294,-0.19875 -0.056738,-0.63559 -0.079673,-1.05789 -0.022936,-0.42232 -0.035801,-0.83945 -0.036696,-1.25215 -8.953e-4,-0.41271 0.00822,-0.8221 -0.016106,-1.03272 0.022723,-0.40695 -0.1616159,-0.24351 -0.1145673,-0.43985 z"
           id="path733" />
      </g>
      <g
         style="fill:#000000;fill-opacity:1;stroke-linejoin:miter"
         id="g739"
         transform="rotate(90,259.41968,748.93978)">
        <path
           d="M -0.83023745,219.13826 C -1.2318656,218.8219 -2.065398,218.26627 -2.867962,217.59479 c -0.8025638,-0.67148 -1.5774335,-1.47768 -2.334647,-2.42296 -0.757213,-0.94528 -1.49985,-2.03539 -1.9838687,-2.93245 -0.4840193,-0.89706 -0.7323899,-1.62979 -0.9193283,-2.45204 -0.186939,-0.82225 -0.310591,-1.73522 -0.376656,-2.73884 -0.066065,-1.00364 -0.11355,-2.09806 -0.119336,-2.93983 -0.00579,-0.84178 0.070447,-1.44003 0.177005,-1.94595 0.106557,-0.50592 0.234432,-0.91882 0.377901,-1.23761 0.1434677,-0.31879 0.2899974,-0.55063 0.432198,-0.71603 0.1422004,-0.16539 0.110069,-0.13425 0.2407993,-0.25406 0.1307307,-0.1198 0.3656127,-0.32021 0.6926332,-0.58969 0.3270205,-0.26949 0.7452815,-0.60357 1.1786799,-0.94477 0.4333976,-0.34118 0.8428383,-0.64613 1.2361503,-0.93817 0.3933117,-0.29202 0.7697956,-0.57239 1.1341266,-0.83354 0.3643307,-0.26115 0.7099796,-0.51395 1.1066718,-0.8596 0.3966921,-0.34565 0.7748741,-0.7201 1.165441,-1.09516 0.39056687,-0.37506 0.79710994,-0.74749 1.21935346,-1.11941 0.42224347,-0.37192 0.86227304,-0.74137 1.23337684,-0.95908 0.3711036,-0.21773 0.3711036,-0.21773 0.1209988,-0.0773 0,0 -0.5083165,0.26687 -1.04118226,0.48415 -0.53286578,0.21727 -1.04987741,0.45772 -1.54940158,0.7223 -0.49952416,0.26459 -0.97906286,0.55527 -1.41948596,0.85138 -0.4404234,0.29613 -0.7743078,0.44029 -1.1732864,0.63588 -0.3989788,0.19559 -0.8104335,0.41096 -1.241013,0.63519 -0.43058,0.22423 -0.8735825,0.46802 -1.339488,0.72991 -0.465906,0.26187 -1.0031554,0.59248 -1.4337727,0.86575 -0.4306169,0.27327 -0.7689883,0.49632 -1.0234883,0.66881 -0.254499,0.17248 -0.435765,0.31422 -0.519522,0.40137 -0.083758,0.0871 -0.398903,0.37657 -0.732122,0.82331 -0.333218,0.44674 -0.606891,0.96659 -0.833369,1.55524 -0.226479,0.58864 -0.405857,1.24854 -0.555288,2.02463 -0.149433,0.77609 -0.199725,2.08102 -0.09888,3.25873 0.10084,1.17769 0.293257,2.26867 0.562761,3.27168 0.269506,1.00301 0.61009,1.91829 1.0383455,2.76854 0.4282545,0.85026 1.3717805,2.05557 2.3180609,3.06814 0.9462809,1.01259 1.9173879,1.84987 2.9087143,2.5047 0.9913261,0.65482 1.9964153,1.11972 2.5348511,1.20795 1.00633086,0.25523 0.5858994,-0.0447 1.05379475,0.12227 z"
           id="path737" />
      </g>
      <g
         style="fill:#000000;fill-opacity:1;stroke-linejoin:miter"
         id="g743"
         transform="rotate(90,259.41968,748.93978)">
        <path
           d="m 2.408345,217.5005 c 0.5163681,-0.29454 1.402576,-1.09416 2.2678964,-2.0244 0.8653206,-0.93025 1.7219543,-1.97538 2.5668376,-3.13296 0.844884,-1.15756 1.687989,-2.4191 2.3689415,-3.68619 0.6809515,-1.26709 1.0897155,-2.33702 1.3884315,-3.38165 0.298718,-1.04465 0.484506,-2.06465 0.490507,-3.05669 0.006,-0.99203 -0.114253,-1.93994 -0.244879,-2.56724 -0.130625,-0.62731 -0.284299,-1.0838 -0.521319,-1.49893 -0.23702,-0.41512 -0.546665,-0.77994 -0.917106,-1.0911 -0.37044,-0.31117 -0.790167,-0.57846 -1.551312,-0.88608 -0.7611448,-0.30761 -1.7854105,-0.66936 -2.9058295,-1.07179 -1.1204191,-0.40244 -2.3361197,-0.84712 -3.659678,-1.30724 -1.32355835,-0.46011 -2.7640573,-0.91827 -3.858335,-1.35322 -1.0942777,-0.43495 -1.0942777,-0.43495 -0.3905697,-0.0917 0,0 1.3299845,0.8464 2.57469925,1.64468 1.24471475,0.79827 2.42975775,1.49488 3.54874095,2.10181 1.1189833,0.60693 2.1629544,1.1436 3.1078525,1.60248 0.9448975,0.45889 1.1805272,0.62509 1.4033805,0.81926 0.222854,0.19416 0.3797835,0.37834 0.480372,0.5504 0.100588,0.17207 0.156327,0.33548 0.183951,0.54495 0.027625,0.20947 0.12509,0.9774 0.1175315,1.73498 -0.00756,0.75757 -0.091157,1.56441 -0.2058055,2.43981 -0.114647,0.87539 -0.317498,1.81851 -0.605912,2.79601 -0.2884145,0.97749 -0.9375396,2.29928 -1.6003027,3.58279 -0.6627633,1.28352 -1.3283083,2.47227 -1.9799433,3.5802 -0.651635,1.10794 -1.2945063,2.13595 -1.539127,2.6893 -0.6231948,0.96724 -0.1404491,0.64862 -0.519023,1.06251 z"
           id="path741" />
      </g>
      <g
         style="fill:#000000;fill-opacity:1;stroke-linejoin:miter"
         id="g747"
         transform="rotate(90,259.41968,748.93978)">
        <path
           d="m 25.360645,240.22688 c 0.418045,0.4274 1.656653,1.24788 2.234204,1.65334 0.577549,0.40544 1.731098,0.87765 2.199096,1.10065 0.467999,0.22299 1.303935,0.51986 2.100098,0.80426 0.796167,0.2844 1.594487,0.56126 2.392447,0.83926 0.79796,0.278 1.597925,0.549 2.42163,0.76582 0.823702,0.21683 1.7922,0.32453 2.629687,0.35897 0.83749,0.0344 1.617953,0.14364 2.318878,0.10086 0.700925,-0.0428 1.170575,-0.07 1.725922,-0.0302 0.555343,0.0397 1.45642,-0.183 2.171093,-0.22576 0.71467,-0.0428 1.424915,-0.0895 1.968543,-0.1317 0.543629,-0.0422 1.091183,-0.0768 1.63831,-0.11664 0.547127,-0.0399 2.035992,-0.43292 2.775223,-1.35592 0.739231,-0.92301 1.417289,-1.92198 1.91238,-2.76433 0.49509,-0.84235 1.144432,-2.24845 1.481781,-3.18527 0.337349,-0.93683 0.464853,-1.89374 0.649273,-2.80138 0.184425,-0.90765 0.26399,-2.05946 0.25293,-3.0051 -0.01106,-0.94564 0.03227,-1.98703 0.131004,-3.46219 0.09874,-1.47514 -0.04698,-2.88392 -0.04867,-4.43389 -0.0017,-1.54998 -0.3228,-3.15129 -0.452023,-4.38581 -0.129223,-1.23452 -0.258647,-2.43387 -0.438335,-3.38608 -0.179688,-0.9522 -0.535568,-1.95872 -0.918831,-2.58929 -0.383257,-0.63055 -0.857982,-1.50761 -1.454994,-2.44626 -0.597008,-0.93864 -1.108898,-1.65272 -1.709099,-2.48718 -0.600197,-0.83447 -1.163662,-1.62344 -1.719864,-2.25165 -0.556205,-0.62822 -1.187477,-1.14842 -1.764778,-1.61346 -0.577302,-0.46505 -1.507632,-1.01946 -2.228004,-1.33127 -0.720372,-0.31183 -1.605641,-0.46271 -2.202195,-0.57276 -0.596553,-0.11006 -1.388969,-0.0415 -2.166568,0.0532 -0.7776,0.0948 -1.244235,0.15095 -2.054379,0.34826 -0.810142,0.19732 -1.675354,0.48732 -2.409664,0.87003 -0.734312,0.38269 -1.300452,0.84362 -1.971935,1.34247 -0.671477,0.49882 -0.997864,0.91128 -1.708634,1.55343 -0.710765,0.64214 -1.218595,0.9778 -1.795618,1.60254 -0.577022,0.62476 -1.056654,1.09917 -1.575935,1.59024 -0.519281,0.49109 -0.922537,1.02231 -1.283747,1.33957 -0.361212,0.31728 -0.918848,0.81737 -1.515037,1.60524 -0.596188,0.78787 -1.111126,1.66501 -1.478566,2.35952 -0.367437,0.6945 -0.76425,1.44505 -0.982723,2.21699 -0.218475,0.77194 -0.412248,1.3747 -0.669433,2.05321 -0.257185,0.67851 -0.31744,1.32597 -0.473948,1.9454 -0.156507,0.61941 -0.210482,1.25986 -0.265926,1.91434 -0.05544,0.65448 -0.176304,1.50923 -0.332325,2.02511 -0.156021,0.51587 -0.320399,1.33979 -0.500855,2.09702 -0.180456,0.75725 -0.214721,1.43326 -0.280225,2.25598 -0.0655,0.82273 -0.201733,1.43833 -0.298899,2.06259 -0.09717,0.62429 -0.123318,1.11785 -0.177838,1.59986 -0.05452,0.48199 -0.05452,0.48199 -0.0089,0.16229 0,0 0.118874,-0.63451 0.272338,-1.13519 0.153462,-0.50069 0.549465,-1.00278 0.813962,-1.74499 0.264498,-0.7422 0.573891,-1.52113 0.796397,-2.12245 0.222503,-0.6013 0.520408,-1.42089 0.75,-2.05946 0.229589,-0.63856 0.496656,-1.09524 0.712177,-2.03963 0.215523,-0.94436 0.348416,-1.39523 0.459715,-1.88159 0.111299,-0.48637 0.411165,-1.18028 0.58082,-1.72854 0.169653,-0.54828 0.458391,-1.03673 0.75676,-1.74067 0.298368,-0.70391 0.520609,-1.39448 0.840335,-1.97506 0.319726,-0.58057 0.686081,-0.96627 1.238381,-1.67002 0.552299,-0.70373 1.059843,-1.28233 1.439655,-1.56528 0.37981,-0.28292 0.950917,-0.74304 1.348732,-1.12522 0.397818,-0.38219 1.018181,-0.92063 1.570553,-1.4659 0.552372,-0.54527 0.950965,-0.89094 1.723365,-1.52305 0.772397,-0.63212 1.32242,-0.94616 1.875817,-1.35647 0.553393,-0.41029 1.189976,-0.91036 1.450646,-1.04612 0.260673,-0.13576 0.874961,-0.44684 1.394149,-0.60677 0.519185,-0.15994 0.914588,-0.16841 1.538918,-0.22275 0.624332,-0.0543 1.404976,-0.12002 1.56385,-0.0982 0.158875,0.0218 0.72488,0.15903 1.064602,0.26623 0.339722,0.10723 0.923758,0.32094 1.326888,0.60996 0.40313,0.28902 0.919034,0.70799 1.323987,1.09065 0.404957,0.38266 0.667538,0.69847 1.107857,1.26251 0.440323,0.56404 1.208836,1.73383 1.79673,2.61348 0.587898,0.87965 0.96899,1.47524 1.365386,2.16428 0.396394,0.68902 0.72084,1.21928 0.794854,1.75532 0.07401,0.53605 0.282349,1.28521 0.393936,2.38567 0.111584,1.10048 0.266053,2.50703 0.409485,3.87836 0.143435,1.37133 0.135281,2.8885 0.196129,4.10192 0.06085,1.21343 -0.103734,2.62678 -0.147224,3.7639 -0.04349,1.13714 0.0877,2.22742 0.05434,2.89426 -0.03336,0.66684 -0.247669,1.48136 -0.428764,2.17366 -0.181096,0.69229 -0.36941,1.65709 -0.805603,2.51894 -0.436192,0.86184 -0.802803,1.7005 -1.27372,2.39719 -0.470921,0.69668 -0.659733,1.20887 -0.771775,1.10572 -0.112045,-0.10313 -0.732765,-0.0142 -1.276352,0.0593 -0.54359,0.0735 -1.080955,0.14551 -1.743644,0.24039 -0.662689,0.0949 -1.729036,0.24281 -2.188038,0.32031 -0.459003,0.0775 -1.268814,0.16707 -1.811838,0.24576 -0.54302,0.0787 -1.013334,0.16397 -1.807818,0.19967 -0.794479,0.0357 -1.489182,0.004 -2.205072,-0.0195 -0.71589,-0.0233 -1.471838,-0.19709 -2.294737,-0.38745 -0.822899,-0.19037 -1.649533,-0.36766 -2.474449,-0.55096 -0.824914,-0.18329 -1.652823,-0.35611 -2.302052,-0.52573 -0.649231,-0.16963 -1.168212,-0.29019 -2.042118,-0.54571 -0.873903,-0.25553 -1.438799,-0.50198 -2.187677,-0.65943 -1.248625,-0.42058 -0.814655,-0.0325 -1.314402,-0.29567 z"
           id="path745" />
      </g>
    </g>
  </g>
</svg>
