<?xml version="1.0" encoding="UTF-8" standalone="no"?>
<svg
   version="1.1"
   width="135.38521"
   height="135.38521"
   viewBox="0 0 135.38521 135.38521"
   id="svg1214"
   xmlns="http://www.w3.org/2000/svg"
   xmlns:svg="http://www.w3.org/2000/svg">
  <defs
     id="defs1218" />
  <g
     id="g7122"
     transform="translate(-250.48431,-708.71716)">
    <rect
       style="display:inline;opacity:0.5;fill:none;fill-opacity:1;stroke:none;stroke-width:2.66644;stroke-dasharray:none;stroke-opacity:1"
       id="rect5341"
       width="135.38521"
       height="135.38521"
       x="250.48431"
       y="708.71716" />
    <g
       id="g5409"
       transform="translate(206.4638,7.5008388)">
      <g
         style="fill:#000000;fill-opacity:1;stroke-linejoin:miter"
         id="g567"
         transform="rotate(90,259.41968,748.93978)">
        <path
           d="m 257.62848,935.9191 c -0.71423,0.0316 -1.97338,0.2457 -3.10248,0.34274 -1.1291,0.097 -2.13515,0.0634 -3.02304,-0.0968 -0.88791,-0.1601 -1.66687,-0.43944 -2.6228,-1.01084 -0.95592,-0.5715 -2.06389,-1.4111 -3.02118,-2.3434 -0.95731,-0.9323 -1.77782,-1.9507 -2.46205,-3.0672 -0.68424,-1.1165 -1.23656,-2.3358 -1.59745,-3.4426 -0.36088,-1.1067 -0.53979,-2.0196 -0.63078,-2.8895 -0.091,-0.8698 -0.0745,-1.7032 0.0335,-2.5046 0.10803,-0.8014 0.30856,-1.5774 0.48981,-2.236 0.18125,-0.6586 0.25475,-0.8233 0.50874,-1.34937 0.254,-0.52603 0.70384,-1.30533 1.33916,-2.29998 0.63531,-0.99465 1.45184,-2.19379 2.61493,-4.55925 1.16308,-2.36556 2.34352,-5.4277 2.40552,-5.6232 0.062,-0.1955 0.10462,-0.3902 0.12298,-0.615 0.0183,-0.2247 -0.007,-0.49095 -0.11557,-0.7899 -0.10876,-0.2989 -0.90643,-0.95623 -3.32371,-1.51434 -2.41729,-0.5581 -4.70267,-0.80371 -6.83211,-0.72552 -2.12943,0.0783 -4.08637,0.48976 -5.38105,1.14416 -1.29466,0.65436 -1.29466,0.65436 -0.39158,0.4305 0,0 1.92607,0.1895 3.80034,0.1883 1.87426,-10e-4 3.85908,0.26114 5.97183,0.79685 2.11273,0.53571 4.3848,1.36151 3.9715,0.97675 -0.41329,-0.3848 -0.45897,-0.5582 -0.46546,-0.6665 -0.006,-0.10835 -0.003,-0.1542 -0.008,-0.15284 -0.005,10e-4 -0.0124,0.007 -1.38934,2.91044 -1.37695,2.9032 -2.27698,3.9851 -3.13205,5.12826 -0.85506,1.14314 -1.53869,2.11767 -2.04825,2.94909 -0.50956,0.83145 -0.85701,1.56045 -0.97323,2.07599 -0.11621,0.51556 -0.37208,1.40266 -0.54795,2.48296 -0.17585,1.08034 -0.21305,2.1769 -0.12155,3.28193 0.0915,1.10507 0.30684,2.21597 0.65723,3.33942 0.35037,1.12345 1.00781,2.59351 1.81647,3.94305 0.80864,1.34955 1.77464,2.5587 2.88549,3.62525 1.11087,1.06659 2.36437,1.9837 3.75263,2.75452 1.38826,0.77087 2.38104,1.13977 3.43326,1.30873 1.0522,0.1689 2.15654,0.1522 3.30632,-0.059 1.14978,-0.21126 2.3403,-0.61296 2.91212,-0.98636 1.21726,-0.61435 0.52246,-0.5058 1.16788,-0.7467 z"
           id="path565" />
      </g>
      <g
         style="fill:#000000;fill-opacity:1;stroke-linejoin:miter"
         id="g555"
         transform="rotate(90,259.41968,748.93978)">
        <path
           d="m 298.35767,922.161 c 0.33917,-0.0605 0.99008,-0.1566 1.68597,-0.0903 0.69586,0.0663 1.46072,0.3024 2.31244,0.7052 0.85168,0.4028 1.79629,0.97886 2.5051,1.47447 0.7088,0.49553 1.06972,0.76183 1.37039,0.99707 0.30069,0.23516 0.53683,0.43982 0.70801,0.6029 0.1712,0.16306 0.26959,0.27661 0.48559,0.55246 0.216,0.2758 0.52823,0.7085 0.83197,1.1884 0.30374,0.47984 0.59851,1.00707 0.88386,1.582 0.2853,0.57497 0.56777,1.1942 0.8483,1.7384 0.2805,0.54433 0.42623,0.72286 0.5882,0.88753 0.16197,0.16467 0.34065,0.31387 0.53514,0.44587 0.19449,0.1321 0.4036,0.24456 1.36188,0.51654 0.95828,0.27196 2.31576,0.59556 3.43133,0.79663 1.11557,0.20103 2.02173,0.27233 2.86747,0.15368 0.84573,-0.11865 1.81665,-0.95295 2.02441,-1.77545 0.20773,-0.82257 0.29587,-1.791 0.28837,-2.87744 -0.008,-1.08636 -0.1159,-2.30116 -0.31297,-3.65381 -0.19708,-1.35265 -0.4881,-2.84662 -0.72015,-3.82471 -0.23203,-0.97808 -0.31906,-1.23104 -0.41678,-1.48994 -0.0977,-0.2589 -0.20627,-0.5251 -0.32535,-0.7986 -0.11908,-0.2736 -0.2489,-0.55545 -0.59002,-1.1491 -0.34116,-0.5936 -0.73655,-1.2515 -1.06989,-1.8197 -0.33334,-0.5682 -0.59436,-1.04844 -0.78052,-1.4309 -0.18619,-0.38243 -0.29526,-0.6514 -0.58148,-1.7688 -0.28624,-1.11736 -0.84414,-3.3363 -1.67261,-5.6974 -0.82846,-2.36106 -1.47577,-4.24155 -1.95453,-5.67936 -0.47873,-1.4378 -0.7861,-2.42244 -0.90564,-2.85834 -0.1195,-0.43597 -0.0948,-0.1206 -0.0183,-0.7906 0.0765,-0.66997 0.1904,-1.2979 0.34314,-1.9056 0.15274,-0.60775 0.34424,-1.1965 0.57464,-1.76754 0.23042,-0.57096 0.56056,-1.25366 0.55576,-1.28956 -0.005,-0.0359 0.13181,-0.22246 0.47304,-0.6206 0.3412,-0.39807 0.8598,-0.9577 1.5439,-1.66174 0.6841,-0.70396 1.6091,-1.63046 2.08783,-2.27806 0.47873,-0.64766 0.8707,-1.2229 1.2291,-1.79066 0.3584,-0.56784 0.68304,-1.12879 0.97357,-1.68348 0.29056,-0.55476 0.5742,-1.16876 0.7265,-1.69556 0.1523,-0.52685 0.2475,-1.0398 0.3062,-1.5792 0.0588,-0.5394 0.0843,-1.1077 0.0795,-1.7076 -0.005,-0.5999 -0.041,-1.26556 -0.21209,-1.8161 -0.17109,-0.55054 -0.47015,-0.9812 -0.81299,-1.2882 -0.34286,-0.30695 -0.69873,-0.5236 -1.0647,-0.6874 -0.36594,-0.16374 -0.75919,-0.29564 -1.66931,-0.5261 -0.9101,-0.2304 -1.87052,-0.3796 -2.85758,-0.44227 -0.98707,-0.0627 -1.99881,-0.0406 -3.03377,0.0641 -1.03498,0.1048 -2.36695,0.3656 -6.78187,2.0928 -4.41495,1.72717 -4.67981,1.74535 -5.43417,2.3415 -0.75436,0.5961 -1.28171,1.31834 -1.82981,2.25273 -0.54812,0.93447 -1.15365,2.11414 -1.80695,3.56531 -0.6533,1.45126 -0.84866,1.93746 -1.00774,2.52296 -0.15909,0.58556 -0.28086,1.24675 -0.38166,1.9989 -0.1008,0.7522 -0.18094,1.60314 -0.2348,2.51696 -0.0539,0.91388 -0.0938,1.10144 -0.1883,1.50674 -0.0945,0.4052 -0.2388,0.8937 -0.42217,1.46225 -0.18335,0.56855 -0.40781,1.21375 -0.68763,1.96771 -0.2798,0.75397 -0.40066,1.24154 -0.46063,1.59284 -0.0599,0.35126 -0.10553,0.7122 -0.13727,1.0831 -0.0317,0.3709 -0.0499,0.7517 -0.0552,1.1548 -0.005,0.40315 0.0118,0.70515 0.0367,0.9614 0.0249,0.2562 0.0578,0.5177 0.0988,0.7846 0.041,0.26695 0.0897,0.5396 0.15747,0.8622 0.0678,0.32266 0.44241,1.5271 0.74402,2.56955 0.30164,1.04242 0.54664,1.94715 0.72944,2.71255 0.1828,0.76535 0.30824,1.38614 0.37435,1.88 0.0661,0.49375 0.0935,0.6816 0.11447,0.8719 0.021,0.1903 0.0439,0.44863 0.0567,0.769 0.0128,0.3204 0.031,0.7007 0.045,1.10523 0.014,0.40457 -0.0618,1.33837 -0.11038,2.14157 -0.0486,0.80313 -0.0695,1.43955 -0.0633,1.9176 0.006,0.47806 0.0351,0.8263 0.0983,0.98844 0.0632,0.16211 0.14572,0.49682 0.32978,0.99072 0.18408,0.4939 0.44348,1.05234 0.79223,1.67639 0.34877,0.62405 0.79105,1.3133 1.17457,1.85965 0.38354,0.5463 0.38354,0.5463 0.19308,0.1514 0,0 -0.18518,-0.88184 -0.39728,-1.6201 -0.2121,-0.7383 -0.38187,-1.36653 -0.49557,-1.88735 -0.11368,-0.52085 -0.16501,-0.92985 -0.22229,-1.21465 -0.0573,-0.2848 -0.0263,-0.24573 0.002,-0.5228 0.0286,-0.277 0.10787,-0.75327 0.22785,-1.4067 0.11996,-0.6535 0.28537,-1.4793 0.40747,-2.2368 0.12207,-0.75753 0.15603,-1.1911 0.18121,-1.57235 0.0252,-0.38125 0.0397,-0.71161 0.0475,-0.99495 0.008,-0.28325 0.002,-0.5254 -0.003,-0.8535 -0.005,-0.3282 -0.0439,-0.9654 -0.13544,-1.7207 -0.0916,-0.7553 -0.2296,-1.6371 -0.42178,-2.64796 -0.19217,-1.01094 -0.43457,-2.15374 -0.57254,-2.83264 -0.13798,-0.6789 -0.1677,-0.91327 -0.19074,-1.1376 -0.023,-0.2243 -0.0395,-0.43826 -0.0495,-0.6417 -0.01,-0.20336 -0.0138,-0.39605 -0.002,-0.61395 0.0114,-0.21789 0.0401,-0.53225 0.078,-0.82959 0.0379,-0.29736 0.0847,-0.57751 0.13989,-0.84051 0.0552,-0.26295 0.11844,-0.50855 0.28674,-0.89735 0.16834,-0.38885 0.4763,-1.1085 0.7425,-1.76696 0.26623,-0.65844 0.48916,-1.2586 0.66924,-1.80444 0.18012,-0.5459 0.32146,-1.0426 0.435,-1.8463 0.11356,-0.8037 0.21543,-1.6519 0.32282,-2.3748 0.10742,-0.72293 0.21841,-1.3161 0.33468,-1.7668 0.11628,-0.45076 0.21863,-0.7448 0.62236,-1.5835 0.40374,-0.83876 1.0331,-2.1068 1.55233,-3.0818 0.51922,-0.97504 0.92709,-1.63214 1.14221,-1.9126 0.21512,-0.2804 -0.0835,-0.11584 2.25033,-0.98645 2.33381,-0.87055 6.66767,-2.56775 7.39185,-2.66065 0.72415,-0.0928 1.54394,-0.1548 2.32315,-0.1504 0.77921,0.004 1.51917,0.0734 2.22263,0.20516 0.7035,0.13174 1.41433,0.33834 1.5614,0.39204 0.14706,0.0537 0.22027,0.0893 0.20804,0.0777 -0.0122,-0.0116 -0.10124,-0.10384 -0.21097,-0.30745 -0.10974,-0.20355 -0.16785,-0.50015 -0.14923,-0.0114 0.0186,0.4887 0.0148,0.94004 -0.0106,1.3354 -0.0255,0.3955 -0.0701,0.7327 -0.12892,1.0088 -0.0589,0.27613 -0.0976,0.4135 -0.29675,0.81935 -0.19916,0.40575 -0.44675,0.86215 -0.7294,1.33595 -0.28269,0.4737 -0.60077,0.96434 -0.95429,1.47105 -0.35354,0.50675 -0.63617,0.90055 -1.41674,1.6847 -0.7806,0.78405 -1.45063,1.48309 -1.97706,2.06405 -0.5264,0.5809 -0.92184,1.0631 -1.23974,1.57706 -0.31794,0.51398 -0.32926,0.62574 -0.6325,1.28924 -0.30323,0.6635 -0.5856,1.4128 -0.81666,2.1823 -0.23102,0.7695 -0.41052,1.5581 -0.53876,2.3646 -0.12826,0.80644 -0.20212,1.5884 -0.13293,2.2282 0.0692,0.6398 0.2969,1.44176 0.6795,2.6349 0.38263,1.19303 0.92719,2.8071 1.63623,4.8511 0.70908,2.044 1.55564,4.43623 2.07472,6.5162 0.5191,2.08 0.68483,2.59185 0.89672,3.0807 0.21185,0.48875 0.48144,1.0206 0.81152,1.6112 0.33006,0.59056 0.72238,1.2459 1.17139,1.93547 0.449,0.68957 0.5014,0.79903 0.61267,1.0246 0.11127,0.22558 0.21026,0.43773 0.2968,0.63553 0.0866,0.19784 0.16093,0.381 0.2061,0.48947 0.0452,0.10839 0.44186,1.59943 0.7441,2.92823 0.30228,1.3287 0.51374,2.49303 0.63035,3.4872 0.11661,0.9941 0.15045,1.80966 0.0933,2.48184 -0.0571,0.67216 0.13098,0.32599 0.42296,0.0786 0.29198,-0.24744 -0.0628,-0.2049 -0.82393,-0.25245 -0.76111,-0.0476 -1.85635,-0.18389 -3.25087,-0.42595 -1.39455,-0.2421 -1.256,-0.19593 -1.28682,-0.20576 -0.0308,-0.01 -0.0684,-0.0304 -0.11456,-0.0639 -0.0462,-0.0334 -0.10187,-0.0803 -0.10632,-0.0512 -0.004,0.0291 -0.33097,-0.5967 -0.7036,-1.24045 -0.3726,-0.64365 -0.75954,-1.23975 -1.1578,-1.78961 -0.39828,-0.54984 -0.8083,-1.05341 -1.2202,-1.49848 -0.4119,-0.445 -0.56404,-0.60866 -0.80073,-0.81346 -0.23667,-0.2049 -0.51761,-0.4082 -0.84955,-0.61903 -0.33194,-0.21077 -0.71302,-0.43957 -1.15259,-0.68457 -0.43957,-0.245 -1.60525,-0.833 -2.69413,-1.2449 -1.08886,-0.4119 -2.0839,-0.6287 -2.9759,-0.6429 -0.892,-0.0142 -1.6636,0.1783 -1.98094,0.39616 -0.61764,0.38554 -0.24846,0.34114 -0.54879,0.50884 z"
           id="path553" />
      </g>
      <g
         style="fill:#000000;fill-opacity:1;stroke-linejoin:miter"
         id="g559"
         transform="rotate(90,259.41968,748.93978)">
        <path
           d="m 257.62457,916.4913 c -0.15704,0.31235 -0.28087,1.0606 -0.25451,1.9638 0.0264,0.9031 0.2001,1.94975 0.51501,3.1345 0.31493,1.1847 0.77448,2.50336 1.37781,3.78235 0.60336,1.27905 1.22299,2.26251 1.85669,3.1466 0.6337,0.88405 1.28393,1.66905 1.95723,2.35181 0.67332,0.68274 1.3726,1.26104 1.82075,1.63428 0.44815,0.37323 1.04325,0.79786 1.74301,1.12866 0.69974,0.3308 1.50699,0.5917 2.43052,0.7993 0.92352,0.2076 1.97076,0.3567 2.98184,0.4416 1.01111,0.0849 1.86584,0.0648 2.6951,-0.0495 0.82925,-0.11425 1.6304,-0.31945 2.39453,-0.62457 0.76413,-0.30513 1.48405,-0.70813 2.00277,-1.09923 0.51874,-0.3911 0.71758,-0.6175 0.90241,-0.9101 0.18481,-0.2926 0.32855,-0.6896 0.34327,-1.1969 0.0147,-0.5073 -0.16078,-1.0219 -0.74815,-1.6028 -0.58737,-0.5809 -1.0112,-0.90276 -1.31525,-1.1684 -0.30404,-0.2656 -0.48324,-0.4507 -0.52206,-0.50035 -0.0388,-0.0497 0.0421,0.1474 -0.076,-0.27495 -0.11801,-0.42244 -0.29354,-1.0213 -0.4331,-1.5696 -0.13956,-0.5482 -0.25022,-1.043 -0.32642,-1.483 -0.0762,-0.44 -0.12131,-0.82217 -0.15478,-1.1923 -0.0335,-0.3701 -0.0478,-0.6368 -0.0496,-0.9048 -0.002,-0.26785 0.0168,-0.53745 0.047,-0.81064 0.0301,-0.27326 0.0783,-0.55006 0.15729,-0.85303 0.0789,-0.30298 0.20596,-0.71443 0.36243,-1.1709 0.15646,-0.45653 0.3422,-0.95673 0.55713,-1.49926 0.21497,-0.54261 0.45892,-1.12683 0.65759,-1.61884 0.19868,-0.49203 0.27138,-0.72703 0.33536,-0.95423 0.064,-0.22716 0.11912,-0.447 0.16352,-0.6608 0.0444,-0.21376 0.0785,-0.42196 0.115,-0.66097 0.0366,-0.23903 0.0603,-0.65393 0.009,-1.06427 -0.0514,-0.41026 -0.16955,-0.80322 -0.35034,-1.16663 -0.18082,-0.3634 -0.41025,-0.69693 -0.76331,-1.04687 -0.35307,-0.34991 -0.71765,-0.56842 -1.11567,-0.72961 -0.39803,-0.16125 -0.83122,-0.28515 -1.30687,-0.38145 -0.47568,-0.0963 -0.9989,-0.16573 -1.78383,-0.24856 -0.78493,-0.0829 -1.78737,-0.16528 -2.7125,-0.20274 -0.92515,-0.0374 -1.77333,-0.0305 -2.54518,0.0203 -0.77182,0.0507 -1.46807,0.14765 -1.78432,0.20495 -0.31626,0.0574 -0.55592,0.0979 -0.78837,0.17896 -0.23248,0.081 -0.50763,0.19924 -0.84203,0.35339 -0.3344,0.15411 -0.72975,0.3515 -1.16496,0.65741 -0.43521,0.30591 -0.72294,0.58234 -1.04007,0.86004 -0.31714,0.2778 -0.65997,0.5627 -1.03045,0.8529 -0.37049,0.29023 -0.76859,0.5863 -1.03,0.784 -0.26142,0.1977 -0.35182,0.2903 -0.43862,0.3895 -0.0868,0.0992 -0.1702,0.2048 -0.2618,0.3061 -0.0916,0.10134 -0.1865,0.20516 -0.25704,0.2867 -0.0705,0.0815 -0.0705,0.0815 -0.0235,0.0272 0,0 0.094,-0.10871 0.18936,-0.21007 0.0953,-0.10133 0.2012,-0.18556 0.31256,-0.25514 0.11132,-0.0697 0.22184,-0.13106 0.32672,-0.18146 0.10492,-0.0504 0.59617,-0.2089 1.06437,-0.3863 0.4682,-0.17736 0.90976,-0.37053 1.32283,-0.5817 0.4131,-0.2112 0.79805,-0.4388 1.1119,-0.6441 0.3138,-0.20534 0.69915,-0.30843 1.07946,-0.4268 0.38028,-0.11826 0.68354,-0.2024 0.90194,-0.2518 0.21842,-0.0494 0.33387,-0.0632 0.39704,-0.0562 0.0632,0.007 0.66562,-0.0325 1.30536,-0.0207 0.63974,0.0119 1.36136,0.0626 2.16406,0.15985 0.8027,0.0972 1.68561,0.2423 2.65658,0.43097 0.97096,0.18863 1.47101,0.27943 1.87232,0.38153 0.40127,0.1022 0.7276,0.20373 0.97027,0.3081 0.24271,0.10444 0.39704,0.1977 0.4383,0.22846 0.0413,0.0307 0.0899,0.11904 0.15283,0.24834 0.0629,0.12934 0.0926,0.2312 0.10107,0.3112 0.008,0.08 -9.1e-4,0.1491 -0.0309,0.2707 -0.03,0.1216 -0.0642,0.2774 -0.1014,0.4069 -0.0372,0.1294 -0.0816,0.2747 -0.13524,0.4348 -0.0537,0.1601 -0.11728,0.33404 -0.17249,0.4757 -0.0552,0.1417 -0.35412,0.72254 -0.64212,1.31006 -0.28799,0.58754 -0.54651,1.14179 -0.77563,1.6637 -0.22912,0.52194 -0.42902,1.01274 -0.60306,1.48718 -0.17401,0.47443 -0.28964,0.90381 -0.37866,1.30876 -0.089,0.405 -0.1535,0.81307 -0.1897,1.2238 -0.0362,0.4107 -0.0492,0.8228 -0.0378,1.2027 0.0113,0.3798 0.0171,0.8248 0.0639,1.36765 0.0468,0.5429 0.12722,1.11945 0.2396,1.73291 0.11238,0.61344 0.2575,1.26534 0.42357,1.91814 0.16608,0.65284 0.1875,0.88776 0.47163,1.4299 0.2841,0.54203 0.6331,0.9438 1.0439,1.3103 0.4108,0.3664 0.8931,0.73234 1.41352,1.0826 0.52041,0.35036 0.0271,-0.2344 -0.0473,-0.5908 -0.0744,-0.3563 -0.0288,-0.6532 0.0413,-0.8124 0.0701,-0.15916 0.10938,-0.208 0.1712,-0.25425 0.0619,-0.0464 -0.37176,0.28131 -0.82775,0.53919 -0.45595,0.25786 -0.94513,0.46472 -1.47833,0.61646 -0.53318,0.1518 -1.11579,0.24053 -1.74729,0.2708 -0.6315,0.0303 -1.64349,-0.009 -2.51919,-0.0977 -0.87574,-0.0893 -1.59524,-0.21815 -2.15168,-0.3721 -0.55639,-0.1539 -0.94056,-0.32396 -1.26536,-0.5654 -0.3248,-0.24147 -1.02004,-0.66475 -1.6178,-1.1143 -0.5978,-0.44943 -1.2225,-1.00424 -1.8649,-1.67185 -0.64244,-0.66765 -1.2997,-1.44805 -1.9603,-2.31045 -0.66062,-0.8624 -1.33308,-2.10086 -1.89915,-3.2458 -0.56607,-1.145 -1.00421,-2.1578 -1.31042,-3.0442 -0.30623,-0.88636 -0.49033,-1.65125 -0.59385,-1.9995 -0.0524,-0.66415 -0.24285,-0.3709 -0.19171,-0.6867 z"
           id="path557" />
      </g>
      <g
         style="fill:#000000;fill-opacity:1;stroke-linejoin:miter"
         id="g563"
         transform="rotate(90,259.41968,748.93978)">
        <path
           d="m 262.27286,889.6085 c 0.3699,0.12746 1.24384,0.2339 2.3139,0.2808 1.07007,0.0468 2.33277,0.0329 3.78638,-0.0379 1.45361,-0.0708 3.09662,-0.20345 4.51321,-0.4233 1.41657,-0.21985 2.24332,-0.46637 2.95275,-0.72095 0.70948,-0.25455 1.30897,-0.52425 1.81215,-0.83205 0.5032,-0.3077 0.92135,-0.69773 1.09857,-0.929 0.17724,-0.23126 0.30488,-0.44586 0.39678,-0.68096 0.0919,-0.23504 0.14408,-0.48154 0.15864,-0.72669 0.0146,-0.24512 -0.005,-0.48291 -0.15271,-1.02551 -0.14798,-0.54254 -0.33286,-1.18314 -0.47413,-1.71364 -0.1413,-0.5305 -0.23098,-0.9468 -0.27783,-1.228 -0.0468,-0.28126 -0.05,-0.38734 -0.0432,-0.40907 0.007,-0.0218 0.0103,-0.0191 0.0241,-0.0588 0.0138,-0.0397 0.0393,-0.1127 0.0753,-0.2124 0.036,-0.0998 0.083,-0.2233 0.18417,-0.39625 0.10114,-0.17305 0.32105,-0.58265 0.51857,-0.95765 0.19746,-0.37505 0.36485,-0.72314 0.4978,-1.05285 0.1329,-0.32971 0.23497,-0.64862 0.3181,-1.08045 0.0831,-0.43175 0.13623,-0.86516 0.17465,-1.3039 0.0384,-0.4387 0.0663,-0.88255 0.0808,-1.3317 0.0145,-0.4491 0.0124,-0.9034 -0.0432,-1.5463 -0.0556,-0.6428 -0.18515,-1.353 -0.38083,-2.0404 -0.19567,-0.68736 -0.45422,-1.35014 -0.77917,-1.9825 -0.32495,-0.6325 -0.70776,-1.2357 -1.77738,-2.0003 -1.06964,-0.7646 -2.16796,-1.0767 -3.3484,-1.21054 -1.18046,-0.13391 -2.4331,-0.0888 -3.75505,0.10559 -1.32195,0.19435 -2.71652,0.53145 -3.96385,0.93225 -1.2473,0.40076 -2.14708,0.7372 -2.89375,1.0312 -0.74668,0.294 -1.34473,0.55846 -1.82485,0.80205 -0.48015,0.24365 -0.91203,0.54375 -1.12688,0.73045 -0.21482,0.1867 -0.63292,0.56356 -1.02285,0.9983 -0.38993,0.4347 -0.758,0.9258 -1.11027,1.47365 -0.3523,0.54791 -0.69228,1.15332 -0.95294,1.83195 -0.26068,0.67867 -0.30001,0.9135 -0.37359,1.2376 -0.0735,0.3242 -0.18442,0.72726 -0.33289,1.2025 -0.14848,0.4752 -0.33706,1.01853 -0.50033,1.6442 -0.16325,0.6257 -0.17841,0.9242 -0.18138,1.1959 -0.003,0.2717 0.0103,0.52755 0.059,0.7968 0.0488,0.26927 0.1802,0.59666 0.21863,0.6589 0.0384,0.0623 0.14395,0.2559 0.26707,0.44154 0.1231,0.18561 0.2636,0.37736 0.42714,0.57986 0.16356,0.2025 0.35233,0.4181 1.03449,1.1346 0.68217,0.7166 1.69983,1.76784 2.52517,2.6193 0.82535,0.8515 1.45652,1.50365 1.89078,1.95415 0.43427,0.4505 0.65445,0.69415 0.79929,0.86405 0.14483,0.16994 0.34347,0.4034 0.6138,0.75295 0.27033,0.34955 0.60275,0.81175 1.00616,1.37715 0.40345,0.56536 0.88401,1.2295 1.17679,1.6256 0.29278,0.3961 0.3519,0.4621 0.42511,0.53656 0.0732,0.0744 0.16074,0.15764 0.25269,0.25844 0.0919,0.1007 0.1893,0.2189 0.26878,0.31346 0.0795,0.0946 0.0795,0.0946 0.0265,0.0315 0,0 -0.10596,-0.1261 -0.19904,-0.2404 -0.093,-0.11426 -0.15826,-0.22834 -0.21014,-0.3296 -0.0519,-0.1013 -0.0922,-0.18786 -0.12027,-0.2579 -0.028,-0.07 -0.31696,-0.9278 -0.59201,-1.663 -0.27502,-0.7351 -0.53612,-1.34716 -0.76862,-1.84624 -0.23254,-0.49906 -0.43512,-0.891 -0.60333,-1.15886 -0.16819,-0.26796 -0.25137,-0.41884 -0.51801,-0.81203 -0.2666,-0.39313 -0.69702,-0.99133 -1.30078,-1.80103 -0.60378,-0.80974 -1.38763,-1.82764 -2.34686,-3.05444 -0.9592,-1.22687 -1.10684,-1.42883 -1.23957,-1.61804 -0.13272,-0.18916 -0.2391,-0.34662 -0.31323,-0.47106 -0.0742,-0.12446 -0.11422,-0.2084 -0.15466,-0.31214 -0.0404,-0.10376 -0.0758,-0.15836 -0.037,-0.0669 0.0388,0.0915 0.0417,0.0541 0.0485,-0.0665 0.007,-0.12055 0.0297,-0.30605 0.0443,-0.43115 0.0145,-0.12506 0.24316,-0.6136 0.47525,-1.1595 0.23207,-0.5459 0.42581,-1.0387 0.58233,-1.48247 0.15654,-0.44373 0.27884,-0.84423 0.29974,-1.00373 0.0209,-0.1595 0.28886,-0.579 0.60367,-1.0425 0.31483,-0.4636 0.61676,-0.8522 0.90101,-1.1651 0.28424,-0.31284 0.54544,-0.5502 0.84402,-0.7652 0.29855,-0.21506 0.4074,-0.3255 0.53345,-0.37796 0.12605,-0.0523 0.50683,-0.21354 1.08515,-0.41949 0.57827,-0.20595 1.33712,-0.45395 2.24822,-0.73072 0.91113,-0.27679 2.20828,-0.5968 3.37678,-0.79423 1.1685,-0.1974 2.20653,-0.27095 3.11025,-0.2438 0.90372,0.0272 1.67978,0.1323 2.21073,0.2544 0.53092,0.1221 0.41238,0.1158 0.67095,0.50586 0.25861,0.39008 0.47611,0.80329 0.65821,1.24189 0.1821,0.43859 0.32216,0.90765 0.4259,1.39898 0.10376,0.49134 0.12454,0.79303 0.14362,1.17523 0.0191,0.38221 0.0282,0.75904 0.0257,1.13044 -0.002,0.3714 -0.0225,0.7371 -0.0453,1.0731 -0.0228,0.33595 -0.0272,0.36824 -0.08,0.54054 -0.0528,0.17231 -0.13704,0.40931 -0.25255,0.70206 -0.11551,0.29263 -0.26889,0.6333 -0.47659,1.0517 -0.20766,0.4185 -0.33206,0.75735 -0.38396,0.9332 -0.0519,0.17584 -0.0946,0.3439 -0.12886,0.50866 -0.0343,0.16474 -0.0602,0.33228 -0.0744,0.50424 -0.0142,0.1719 -0.0138,0.49375 0.0525,0.9029 0.0663,0.40915 0.18241,0.8546 0.34967,1.37234 0.16727,0.51776 0.37906,1.12056 0.6388,1.79556 0.25973,0.67496 0.23602,0.5699 0.24108,0.5541 0.005,-0.0158 0.0126,-0.0496 0.0269,-0.0914 0.0143,-0.0418 0.0353,-0.0812 0.0296,-0.0707 -0.006,0.0104 -0.0781,0.15494 -0.22927,0.29511 -0.15119,0.1402 -0.47742,0.36279 -0.9646,0.62396 -0.48719,0.26111 -1.12516,0.5484 -1.85626,0.84227 -0.73112,0.2939 -2.3994,0.64626 -3.93354,0.9543 -1.53418,0.30805 -2.87851,0.57605 -4.03519,0.79755 -1.15667,0.22155 -2.12732,0.40065 -2.55075,0.5365 -0.79098,0.12975 -0.42582,0.27695 -0.79336,0.27085 z"
           id="path561" />
      </g>
      <g
         style="fill:#000000;fill-opacity:1;stroke-linejoin:miter"
         id="g571"
         transform="rotate(90,259.41968,748.93978)">
        <path
           d="m 236.42862,890.3141 c 1.2981,0.4255 3.63422,0.684 5.56171,0.7484 1.92749,0.0644 3.45768,-0.0248 4.63459,-0.28625 1.17691,-0.26142 2.07619,-0.8039 2.48836,-1.42859 0.41216,-0.6247 0.63646,-1.17823 0.77826,-1.76696 0.1418,-0.5888 0.19827,-1.20625 0.17566,-1.8456 -0.0226,-0.6393 -0.11671,-1.29906 -0.1872,-1.70074 -0.0705,-0.40166 -0.21978,-0.90736 -0.47607,-1.52986 -0.2563,-0.6224 -0.62747,-1.4515 -1.13132,-2.50285 -0.50384,-1.05135 -1.14549,-2.32745 -1.50995,-3.05951 -0.36445,-0.73214 -0.42135,-0.88804 -0.46844,-1.02564 -0.0471,-0.13757 -0.10754,-0.2484 -0.14018,-0.34466 -0.0326,-0.0962 -0.0542,-0.17044 -0.15065,-0.83478 -0.0964,-0.66431 -0.25301,-1.88566 -0.36206,-2.91321 -0.10907,-1.02759 -0.17887,-1.85665 -0.20221,-2.47535 -0.0233,-0.6187 -0.006,-1.00084 0.0624,-1.30346 0.0688,-0.30261 0.18984,-0.71289 0.32002,-1.06974 0.13017,-0.3569 0.26037,-0.66256 0.39289,-0.91353 0.13253,-0.25092 0.26178,-0.44782 0.49575,-0.74817 0.23398,-0.3003 0.57653,-0.71985 0.97193,-1.18396 0.3954,-0.46404 0.8509,-0.96369 1.35287,-1.51134 0.50199,-0.5477 1.05593,-1.13716 2.09659,-2.44264 1.04065,-1.30546 2.41809,-3.25486 2.62434,-3.50562 0.20626,-0.25074 0.45205,-0.5346 0.72591,-0.83944 0.27388,-0.3048 0.57619,-0.6298 0.80086,-0.9057 0.22467,-0.2758 0.22467,-0.2758 0.0418,-0.134 0,0 -0.46507,0.1572 -0.84326,0.381 -0.3782,0.2238 -0.72198,0.4456 -1.03403,0.66263 -0.31205,0.21707 -0.61331,0.45537 -2.31233,2.12117 -1.69902,1.6658 -2.31912,2.15776 -2.93558,2.67705 -0.61645,0.51929 -1.17666,1.01015 -1.68034,1.47375 -0.50369,0.4636 -0.95326,0.8985 -1.34632,1.30054 -0.39304,0.40206 -0.63479,0.6604 -0.88206,0.99696 -0.24727,0.33654 -0.47812,0.7095 -0.69154,1.1226 -0.21344,0.41316 -0.41303,0.86634 -0.60877,1.3812 -0.19572,0.5148 -0.31712,1.0453 -0.38043,1.6928 -0.0633,0.6475 -0.088,1.4433 -0.0724,2.4112 0.0156,0.9679 0.0704,2.11485 0.16032,3.4468 0.0899,1.332 0.13284,1.6115 0.17764,1.8149 0.0448,0.20337 0.10055,0.40814 0.16272,0.6181 0.0622,0.2099 0.14877,0.4198 0.27432,0.6913 0.12553,0.2715 0.94249,1.65807 1.60365,2.79405 0.66117,1.13595 1.16908,2.04285 1.52559,2.70925 0.35651,0.6664 0.54648,1.0712 0.58864,1.2146 0.0422,0.1433 0.21118,0.7257 0.30139,1.1764 0.0902,0.45066 0.12398,0.8627 0.10838,1.23996 -0.0156,0.3772 -0.0785,0.72544 -0.18431,1.042 -0.10583,0.31658 -0.1519,0.48774 -0.61842,0.72528 -0.46652,0.23756 -1.50539,0.51216 -3.03876,0.74389 -1.53338,0.23177 -3.53699,0.42127 -4.69724,0.70747 -2.4674,0.2372 -1.1655,0.4273 -2.47268,0.3783 z"
           id="path569" />
      </g>
    </g>
  </g>
</svg>
