<?xml version="1.0" encoding="UTF-8" standalone="no"?>
<!-- Created with Inkscape (http://www.inkscape.org/) -->

<svg
   width="268.67789em"
   height="268.67789em"
   viewBox="0 0 268.67789 268.67789"
   version="1.1"
   id="svg5"
   xml:space="preserve"
   xmlns="http://www.w3.org/2000/svg"
   xmlns:svg="http://www.w3.org/2000/svg"><defs
     id="defs2" /><g
     id="layer1"
     transform="translate(700.66998,-678.96759)"><g
       id="g53445"><rect
         style="display:inline;fill:none;fill-opacity:1;stroke:none;stroke-width:5.29167;stroke-dasharray:none;stroke-opacity:1"
         id="rect53365"
         width="268.67789"
         height="268.67789"
         x="-700.66998"
         y="678.96759" /><g
         id="g52869"
         transform="matrix(2.6472855,0,0,2.6472855,-4066.2585,-962.59503)"><g
           style="fill:#000000;fill-opacity:1;stroke-linejoin:miter"
           id="g50992"
           transform="matrix(0.0212301,0.88760364,-0.82571352,0.02282136,2056.9295,403.92004)"><path
             d="m 298.42938,922.28937 c 0.32596,-0.054 0.95114,-0.13437 1.6178,-0.0341 0.66669,0.10022 1.3952,0.36625 2.20264,0.80675 0.8074,0.4405 1.69583,1.066 2.37468,1.5857 0.6789,0.51966 1.01976,0.801 1.29725,1.048 0.2775,0.24687 0.48957,0.45365 0.63138,0.60874 0.14182,0.15506 0.20105,0.24526 0.39383,0.52126 0.19281,0.2759 0.47211,0.6985 0.74048,1.17033 0.2684,0.47187 0.5224,0.99433 0.77368,1.56047 0.25128,0.5661 0.49518,1.1788 0.81494,1.8184 0.31977,0.63957 0.4924,0.85667 0.68769,1.0622 0.19531,0.2055 0.41491,0.3964 0.65945,0.5677 0.24454,0.17135 0.51205,0.31814 1.5591,0.65273 1.0471,0.33457 2.4236,0.69987 3.5812,0.93977 1.15758,0.2398 2.1523,0.3591 3.24016,0.20604 1.08786,-0.15304 2.58591,-1.44174 2.88407,-2.49794 0.29815,-1.0562 0.42871,-2.1218 0.44197,-3.2833 0.0133,-1.1615 -0.0536,-2.4381 -0.21267,-3.8438 -0.15905,-1.4057 -0.41823,-2.94515 -0.64767,-4.0073 -0.2294,-1.06205 -0.32026,-1.34764 -0.42096,-1.63584 -0.10074,-0.28821 -0.21158,-0.5813 -0.33203,-0.87946 -0.12047,-0.29816 -0.25095,-0.60297 -0.61713,-1.28076 -0.36614,-0.6778 -0.72494,-1.33124 -1.01269,-1.88974 -0.28775,-0.55844 -0.50195,-1.01444 -0.63782,-1.3492 -0.13589,-0.3347 -0.18903,-0.51796 -0.38577,-1.5571 -0.19676,-1.0391 -0.67758,-3.38475 -1.42539,-5.81395 -0.74777,-2.4292 -1.31152,-4.32599 -1.72393,-5.76285 -0.41239,-1.4369 -0.67264,-2.3887 -0.73214,-2.6437 -0.0595,-0.25495 -0.0165,0.64435 0.0783,0.0588 0.0948,-0.5856 0.22375,-1.0953 0.37213,-1.5819 0.14837,-0.4865 0.32434,-0.95163 0.52966,-1.39817 0.20534,-0.44659 0.58444,-1.18193 0.47342,-1.00373 -0.11102,0.17823 -0.0926,0.1911 0.20206,-0.1082 0.29466,-0.2994 0.79396,-0.7991 1.47549,-1.45374 0.68152,-0.65472 1.71927,-1.67116 2.28879,-2.479 0.56955,-0.80793 0.98004,-1.44861 1.35828,-2.08646 0.37826,-0.6377 0.72384,-1.2741 1.0359,-1.9104 0.3121,-0.6363 0.6554,-1.42844 0.86565,-2.1858 0.21023,-0.7574 0.31948,-1.4201 0.37719,-2.0847 0.0577,-0.6646 0.0718,-1.3369 0.0481,-2.0235 -0.0237,-0.68656 -0.0955,-1.4656 -0.43762,-2.54667 -0.34214,-1.08113 -0.91605,-1.89473 -1.52765,-2.43313 -0.61157,-0.5383 -1.18907,-0.8819 -1.72815,-1.11484 -0.53906,-0.23296 -1.07912,-0.40376 -2.12854,-0.62936 -1.04944,-0.22556 -2.16455,-0.3668 -3.29395,-0.40244 -1.12943,-0.0357 -2.26837,0.0281 -3.41533,0.17524 -1.14695,0.147 -2.87883,0.5455 -7.23945,2.47594 -4.3606,1.93036 -4.63227,1.96446 -5.74481,2.84596 -1.11258,0.88146 -1.70804,1.75493 -2.25638,2.78454 -0.54834,1.02966 -1.1189,2.27862 -1.72922,3.78066 -0.61029,1.50205 -0.8389,2.08634 -1.0134,2.7595 -0.1745,0.67315 -0.28384,1.3955 -0.36494,2.1913 -0.0811,0.7957 -0.13924,1.6781 -0.15856,2.5881 -0.0193,0.9101 -0.0226,0.96205 -0.0961,1.3316 -0.0734,0.3696 -0.18454,0.8386 -0.33746,1.39504 -0.15292,0.55646 -0.34718,1.19576 -0.60418,1.97016 -0.25706,0.77435 -0.4049,1.3867 -0.46085,1.7695 -0.0559,0.38284 -0.0954,0.77267 -0.11917,1.1699 -0.0238,0.3972 -0.0325,0.8018 -0.0264,1.2337 0.006,0.43193 0.0351,0.7836 0.0723,1.057 0.0373,0.2733 0.0834,0.55 0.13818,0.8302 0.0547,0.2803 0.11786,0.5646 0.20425,0.92224 0.0864,0.3576 0.50147,1.55946 0.84018,2.58266 0.33872,1.0231 0.63045,1.9054 0.85523,2.6478 0.22476,0.74244 0.38049,1.33936 0.47142,1.8146 0.0909,0.4752 0.12733,0.67125 0.15816,0.848 0.0308,0.1767 0.0628,0.42694 0.0945,0.7421 0.0317,0.3152 0.0673,0.6923 0.10821,1.0837 0.0409,0.39137 0.0323,1.3242 0.0352,2.1365 0.003,0.8122 0.0189,1.4553 0.055,1.9389 0.0361,0.48357 0.0881,0.8368 0.15986,1.00054 0.0718,0.16382 0.17727,0.49212 0.38432,0.97876 0.2071,0.4867 0.49907,1.0311 0.87495,1.6406 0.37585,0.60946 0.83267,1.28854 1.14527,1.8682 0.31262,0.5797 0.31262,0.5797 0.12216,0.1848 0,0 -0.32703,-0.8151 -0.52112,-1.56494 -0.19409,-0.74976 -0.33112,-1.39426 -0.41641,-1.92666 -0.0853,-0.53226 -0.11485,-0.9468 -0.15903,-1.2376 -0.0442,-0.29076 7.3e-4,-0.2428 0.0548,-0.5147 0.0541,-0.27197 0.16528,-0.7424 0.32758,-1.38836 0.16226,-0.64594 0.38296,-1.46198 0.55172,-2.23214 0.16877,-0.77006 0.23026,-1.2057 0.27506,-1.59074 0.0448,-0.38501 0.0753,-0.72146 0.093,-1.01436 0.0177,-0.29295 0.021,-0.551 0.0324,-0.88 0.0114,-0.32897 -0.002,-0.9935 -0.0568,-1.7726 -0.0552,-0.7791 -0.15172,-1.6831 -0.29898,-2.7157 -0.14724,-1.0327 -0.35858,-2.19296 -0.46506,-2.8434 -0.10648,-0.65046 -0.12152,-0.87434 -0.13038,-1.0865 -0.009,-0.2121 -0.0117,-0.4122 -0.009,-0.59973 0.003,-0.18762 0.0113,-0.36247 0.0349,-0.5379 0.0236,-0.17542 0.0626,-0.46747 0.1095,-0.74017 0.0469,-0.2727 0.10105,-0.5257 0.16173,-0.7589 0.0607,-0.23323 0.12715,-0.4464 0.28816,-0.7516 0.16098,-0.3052 0.50214,-1.0265 0.79889,-1.69263 0.29675,-0.6662 0.54971,-1.28101 0.75842,-1.85167 0.20871,-0.5707 0.36813,-1.10866 0.51763,-1.99733 0.14955,-0.88873 0.28517,-1.71007 0.4109,-2.39844 0.1257,-0.68829 0.26148,-1.23203 0.38074,-1.61407 0.11929,-0.38202 0.19723,-0.57716 0.60821,-1.34356 0.41098,-0.76637 1.07859,-1.9793 1.62262,-2.8781 0.54407,-0.8988 0.9368,-1.44863 1.02405,-1.53744 0.0872,-0.0888 -0.74012,0.41444 1.64191,-0.35571 2.38202,-0.7702 6.72127,-2.24585 7.19207,-2.24732 0.4708,-0.001 1.17347,-0.0239 1.82007,0.0208 0.64663,0.0447 1.23987,0.12895 1.78421,0.2678 0.54435,0.1388 1.14014,0.3488 1.13465,0.3558 -0.005,0.007 -0.12023,-0.0413 -0.3718,-0.2102 -0.25155,-0.16897 -0.621,-0.53615 -0.97873,-1.17525 -0.35772,-0.6391 -0.53677,-1.50865 -0.54666,-1.11735 -0.01,0.3913 -0.0301,0.75065 -0.0638,1.0353 -0.0338,0.2846 -0.0753,0.489 -0.11285,0.606 -0.0376,0.117 0.011,-0.0382 -0.14747,0.2366 -0.15848,0.27485 -0.38468,0.65186 -0.64672,1.052 -0.26203,0.40015 -0.56073,0.8226 -0.91858,1.24897 -0.35785,0.42639 -0.4317,0.59497 -1.15515,1.35753 -0.72348,0.7625 -1.40018,1.5133 -1.95233,2.1648 -0.55213,0.65156 -1.0085,1.25 -1.50324,2.0991 -0.49476,0.8491 -0.48306,0.9183 -0.77594,1.61777 -0.29288,0.69943 -0.59717,1.57303 -0.84058,2.46539 -0.24337,0.89227 -0.42242,1.80124 -0.53427,2.72354 -0.11185,0.92215 -0.16684,1.7597 -0.0531,2.8311 0.11377,1.0714 0.39066,1.956 0.82535,3.1701 0.43469,1.2141 1.0549,2.8208 1.8497,4.84575 0.7948,2.02495 1.71478,4.30275 2.32709,6.31489 0.61226,2.01216 0.84766,2.68946 1.1134,3.24981 0.26578,0.56035 0.58411,1.13025 0.96046,1.73985 0.37633,0.60964 0.8141,1.2706 1.28472,1.94063 0.47061,0.67011 0.46634,0.65467 0.57672,0.85681 0.11041,0.20216 0.20773,0.38906 0.29176,0.55921 0.084,0.17015 0.15514,0.32312 0.18322,0.35215 0.0281,0.0291 0.46038,1.4782 0.79602,2.7592 0.3356,1.2809 0.58822,2.38926 0.73474,3.3182 0.14648,0.92897 0.20358,1.66286 0.17842,2.26137 -0.0251,0.59843 0.32222,-0.16477 1.03813,-0.67957 0.71594,-0.5147 0.52463,-0.4608 -0.16633,-0.4636 -0.69097,-0.003 -1.7539,-0.10305 -3.13424,-0.29287 -1.38034,-0.18973 -1.07356,-0.0812 -1.04861,-0.0552 0.025,0.0261 0.0343,0.0465 0.0263,0.0548 -0.008,0.008 -0.0324,10e-4 0.0251,0.12743 0.0575,0.1261 -0.2875,-0.46453 -0.69518,-1.1166 -0.40769,-0.65195 -0.83115,-1.2556 -1.26902,-1.81076 -0.43786,-0.55514 -0.88018,-1.06884 -1.32183,-1.51489 -0.44167,-0.44599 -0.61362,-0.61755 -0.88607,-0.83965 -0.27247,-0.2221 -0.57975,-0.4303 -0.93492,-0.6363 -0.35516,-0.206 -0.76022,-0.4188 -1.22033,-0.6494 -0.46009,-0.2307 -1.66465,-0.78414 -2.80457,-1.1531 -1.13992,-0.3689 -2.17761,-0.5468 -3.10382,-0.5255 -0.92624,0.0213 -1.72416,0.2406 -2.06094,0.4696 -0.63712,0.39666 -0.12452,0.60894 -0.42484,0.77667 z"
             id="path50990" /></g><g
           style="fill:#000000;fill-opacity:1;stroke-linejoin:miter"
           id="g50996"
           transform="matrix(0.0212301,0.88760364,-0.82571352,0.02282136,2056.9295,403.92004)"><path
             d="m 257.47943,916.4678 c -0.15843,0.3236 -0.28937,1.091 -0.29669,2.016 -0.007,0.9251 0.12056,2.0004 0.38434,3.22006 0.26376,1.2196 0.66626,2.5794 1.2373,3.92844 0.57105,1.349 1.15808,2.3827 1.77924,3.31405 0.62118,0.93135 1.26181,1.77582 1.94748,2.51495 0.68567,0.7392 1.41083,1.38105 1.82602,1.76 0.41522,0.379 1.10882,0.9008 1.8919,1.2892 0.78308,0.3885 1.65415,0.69 2.62732,0.93225 0.97316,0.24219 2.05826,0.44015 3.13181,0.56215 1.07355,0.12205 2.01135,0.1118 2.93575,0.009 0.9244,-0.103 1.82603,-0.3228 2.69474,-0.65225 0.86871,-0.32941 1.69779,-0.76141 2.35516,-1.24609 0.65738,-0.48462 0.93464,-0.792 1.2085,-1.22321 0.27387,-0.43121 0.49942,-1.05075 0.52475,-1.86945 0.0253,-0.8186 -0.25729,-1.6578 -1.06018,-2.50714 -0.80292,-0.84936 -1.17797,-1.15946 -1.42142,-1.39056 -0.24345,-0.23114 -0.33767,-0.3505 -0.25921,-0.2551 0.0785,0.0954 0.29316,0.60324 0.10436,0.20114 -0.18878,-0.40214 -0.37386,-0.97131 -0.52828,-1.48498 -0.15439,-0.51376 -0.27939,-0.97009 -0.36554,-1.36656 -0.0861,-0.39644 -0.13828,-0.7278 -0.18118,-1.0891 -0.0429,-0.3613 -0.0724,-0.579 -0.0885,-0.7997 -0.0161,-0.2208 -0.0184,-0.4458 -0.006,-0.6765 0.012,-0.23074 0.039,-0.468 0.0882,-0.7261 0.0491,-0.2581 0.15403,-0.6528 0.288,-1.0978 0.13397,-0.445 0.29681,-0.93784 0.48837,-1.47666 0.19156,-0.53888 0.40916,-1.12348 0.60364,-1.66498 0.19446,-0.5415 0.2615,-0.7937 0.32042,-1.03926 0.0589,-0.2455 0.1096,-0.48515 0.15175,-0.7202 0.0421,-0.23505 0.0753,-0.46686 0.10589,-0.72736 0.0306,-0.26049 0.0539,-0.76989 -0.0113,-1.27304 -0.0652,-0.5032 -0.21507,-0.9793 -0.43357,-1.4121 -0.21851,-0.4327 -0.49453,-0.8165 -0.94363,-1.2439 -0.44907,-0.4273 -0.88868,-0.6786 -1.3443,-0.85263 -0.45567,-0.17397 -0.9342,-0.29137 -1.44447,-0.37147 -0.51028,-0.0801 -1.05923,-0.12945 -1.85546,-0.1713 -0.79624,-0.0419 -1.8162,-0.0778 -2.75699,-0.073 -0.9408,0.005 -1.8031,0.058 -2.58612,0.159 -0.78302,0.10093 -1.48682,0.2419 -1.79709,0.3214 -0.31031,0.0795 -0.56964,0.13054 -0.80647,0.22405 -0.23684,0.0935 -0.50902,0.22995 -0.83507,0.40985 -0.32603,0.17993 -0.71085,0.4044 -1.13385,0.7291 -0.42304,0.3247 -0.69913,0.6181 -1.00298,0.91885 -0.30388,0.30075 -0.63887,0.60385 -1.00526,0.90808 -0.36637,0.30427 -0.76386,0.60937 -1.03334,0.77647 -0.2695,0.16713 -0.3696,0.24135 -0.46837,0.323 -0.0988,0.0817 -0.19633,0.1707 -0.29253,0.2671 -0.0962,0.0964 -0.1911,0.20026 -0.26164,0.2818 -0.0705,0.0815 -0.0705,0.0815 -0.0235,0.0272 0,0 0.094,-0.10871 0.18936,-0.21007 0.0953,-0.10133 0.19198,-0.1953 0.28992,-0.2819 0.0979,-0.0865 0.19716,-0.16575 0.29773,-0.2375 0.10053,-0.0718 0.57463,-0.2671 1.04477,-0.43343 0.47012,-0.16633 0.91666,-0.34447 1.33981,-0.53507 0.42315,-0.19064 0.82235,-0.39523 1.14885,-0.5846 0.32646,-0.1895 0.72252,-0.2698 1.11336,-0.35977 0.39081,-0.09 0.70024,-0.1521 0.91952,-0.1853 0.21927,-0.0331 0.32724,-0.0363 0.3848,-0.0218 0.0576,0.0145 0.66348,0.0149 1.29446,0.0723 0.63099,0.0573 1.34021,0.1615 2.12809,0.30468 0.7879,0.14327 1.65499,0.32727 2.61137,0.56421 0.9564,0.23686 1.44548,0.35956 1.81856,0.47962 0.37304,0.12004 0.66089,0.23828 0.85431,0.34314 0.19343,0.1049 0.2857,0.17816 0.23309,0.1515 -0.0526,-0.0266 -0.0833,-0.0112 -0.0631,0.0607 0.0202,0.0719 0.0134,0.0996 -0.004,0.0926 -0.0174,-0.007 -0.0344,-0.0327 -0.0675,0.0213 -0.0332,0.0539 -0.0735,0.20755 -0.11162,0.31435 -0.0381,0.1067 -0.0861,0.23124 -0.14441,0.37205 -0.0583,0.14081 -0.12717,0.29681 -0.17755,0.39515 -0.0503,0.0984 -0.37302,0.6497 -0.68597,1.2384 -0.31295,0.5886 -0.5947,1.1477 -0.84655,1.6783 -0.2519,0.53056 -0.47416,1.0344 -0.6731,1.53556 -0.19895,0.5011 -0.34647,0.98358 -0.45545,1.42914 -0.10895,0.44556 -0.19095,0.89703 -0.2453,1.35333 -0.0543,0.45627 -0.0806,0.91614 -0.0827,1.32327 -0.002,0.4071 -0.003,0.86423 0.0366,1.4551 0.04,0.5909 0.10706,1.2093 0.20264,1.86036 0.0956,0.65104 0.23026,1.33524 0.37149,1.99084 0.14127,0.6556 0.0612,0.9553 0.47665,1.74384 0.41542,0.78852 0.87022,1.29826 1.35622,1.71946 0.486,0.4213 1.02406,0.8124 1.55504,1.14846 0.53096,0.336 -0.36579,-0.74542 -0.50577,-1.43086 -0.13997,-0.6854 -0.0491,-1.27135 0.10751,-1.6226 0.15665,-0.3513 0.28278,-0.51575 0.47379,-0.678 0.19103,-0.1622 -0.14527,0.1292 -0.49305,0.36086 -0.34777,0.23169 -0.73502,0.41334 -1.16876,0.56034 -0.43374,0.14706 -0.92446,0.25326 -1.47436,0.3005 -0.54987,0.0472 -1.51712,0.0587 -2.35074,0.009 -0.83362,-0.0499 -1.50018,-0.1395 -1.98609,-0.2493 -0.4859,-0.1098 -0.7806,-0.21214 -1.06927,-0.4049 -0.28867,-0.1928 -1.02356,-0.6048 -1.60117,-0.9921 -0.5776,-0.38734 -1.19203,-0.8901 -1.84533,-1.50245 -0.6533,-0.61235 -1.3235,-1.34931 -2.01136,-2.14875 -0.68789,-0.7995 -1.40301,-1.97357 -2.02606,-3.0788 -0.62301,-1.1052 -1.10658,-2.08654 -1.45738,-2.9462 -0.3508,-0.85976 -0.55897,-1.60555 -0.66673,-1.9386 -0.0566,-0.64895 -0.53739,-0.4027 -0.48624,-0.7185 z"
             id="path50994" /></g><g
           style="fill:#000000;fill-opacity:1;stroke-linejoin:miter"
           id="g51000"
           transform="matrix(0.0212301,0.88760364,-0.82571352,0.02282136,2056.9295,403.92004)"><path
             d="m 262.27042,889.75555 c 0.37326,0.12745 1.25305,0.24725 2.33123,0.34005 1.07819,0.0927 2.35212,0.1417 3.8198,0.14445 1.46771,0.003 3.12625,-0.0551 4.60945,-0.22785 1.48323,-0.17284 2.3383,-0.4004 3.08873,-0.63635 0.7504,-0.23595 1.4028,-0.50585 1.98041,-0.84395 0.57763,-0.33805 1.10346,-0.8114 1.31994,-1.0839 0.21652,-0.2726 0.39382,-0.5631 0.52352,-0.8843 0.1297,-0.3212 0.2051,-0.65824 0.22722,-0.99034 0.0221,-0.33206 -0.002,-0.64849 -0.1507,-1.27316 -0.14908,-0.6247 -0.30188,-1.2625 -0.4198,-1.7802 -0.11795,-0.51774 -0.19046,-0.90855 -0.21567,-1.1417 -0.0252,-0.23316 -0.0104,-0.2394 -10e-4,-0.1865 0.009,0.0528 0.007,0.1152 0.014,0.1174 0.007,0.002 0.0268,-0.0408 0.0597,-0.11694 0.0329,-0.0762 0.0791,-0.1806 0.15802,-0.27476 0.0789,-0.0941 0.33113,-0.50765 0.55408,-0.8971 0.22295,-0.3895 0.41598,-0.7612 0.5715,-1.1297 0.15552,-0.36854 0.28277,-0.7456 0.38833,-1.2691 0.1056,-0.52346 0.17532,-0.9811 0.23169,-1.44435 0.0564,-0.46335 0.0969,-0.93235 0.11833,-1.40665 0.0214,-0.4743 0.0287,-0.9536 -0.0153,-1.6859 -0.044,-0.73234 -0.167,-1.5252 -0.3635,-2.3016 -0.1965,-0.7765 -0.47357,-1.52913 -0.82662,-2.2513 -0.35303,-0.72217 -0.7768,-1.40985 -2.20288,-2.4626 -1.4261,-1.0527 -2.677,-1.43346 -3.99952,-1.5494 -1.32248,-0.11605 -2.6867,-0.0374 -4.09188,0.2095 -1.4052,0.2469 -2.86026,0.6354 -4.14438,1.0914 -1.28412,0.45603 -2.18888,0.82334 -2.94455,1.1544 -0.75567,0.3311 -1.37699,0.6265 -1.90747,0.91565 -0.5305,0.28915 -1.08857,0.68605 -1.29572,0.87878 -0.20715,0.19281 -0.67648,0.63227 -1.09903,1.12402 -0.42251,0.49185 -0.80865,1.0337 -1.16723,1.62702 -0.35856,0.59333 -0.68839,1.24313 -0.97912,2.06988 -0.29075,0.82679 -0.30616,1.02271 -0.3576,1.32335 -0.0514,0.30074 -0.14493,0.6889 -0.27669,1.1548 -0.13176,0.4659 -0.29146,1.009 -0.45981,1.7342 -0.16833,0.7252 -0.17239,1.0441 -0.16375,1.3435 0.009,0.2994 0.0347,0.59516 0.10208,0.93085 0.0673,0.33569 0.24876,0.7782 0.28656,0.82825 0.0378,0.0501 0.16803,0.2778 0.31222,0.4822 0.14419,0.2044 0.30589,0.4038 0.48819,0.6085 0.1823,0.2047 0.38733,0.4196 1.1115,1.112 0.7242,0.6924 1.7949,1.69634 2.67772,2.49694 0.88281,0.8006 1.55908,1.4129 2.02286,1.83692 0.46374,0.42401 0.70364,0.64854 0.862,0.80889 0.15832,0.16035 0.37408,0.3805 0.66375,0.71835 0.28971,0.3378 0.65055,0.7847 1.08337,1.33524 0.4328,0.5506 0.9317,1.20646 1.19263,1.61586 0.26093,0.40935 0.30677,0.4805 0.36547,0.56346 0.0587,0.083 0.13032,0.17768 0.2148,0.28418 0.0845,0.10646 0.18182,0.22466 0.2613,0.31922 0.0795,0.0946 0.0795,0.0946 0.0265,0.0315 0,0 -0.10596,-0.1261 -0.19904,-0.2404 -0.093,-0.11426 -0.17322,-0.21686 -0.24054,-0.3076 -0.0673,-0.0908 -0.1217,-0.1699 -0.16327,-0.23714 -0.0415,-0.0673 -0.38043,-0.89893 -0.634,-1.64411 -0.25357,-0.74525 -0.48047,-1.375 -0.68813,-1.88785 -0.20765,-0.5129 -0.39283,-0.916 -0.54493,-1.196 -0.1521,-0.28 -0.22337,-0.43916 -0.46687,-0.8539 -0.2435,-0.41466 -0.64144,-1.04186 -1.19503,-1.896 -0.55359,-0.85405 -1.27777,-1.9248 -2.17929,-3.2013 -0.90148,-1.27653 -1.02748,-1.4748 -1.14343,-1.66356 -0.116,-0.18878 -0.20209,-0.34324 -0.25559,-0.45648 -0.0535,-0.11322 -0.0715,-0.1745 -0.1033,-0.2752 -0.0318,-0.10071 -0.0609,-0.15162 0.0143,0.0366 0.0753,0.18815 0.0924,0.2053 0.11206,0.1201 0.0196,-0.0853 0.053,-0.2461 0.0637,-0.29236 0.0108,-0.0463 0.24788,-0.47294 0.5022,-1.02308 0.25436,-0.55006 0.46591,-1.0534 0.64346,-1.51391 0.17755,-0.46051 0.31942,-0.88928 0.3306,-0.97405 0.0112,-0.0848 0.26236,-0.39644 0.5813,-0.8157 0.31892,-0.41924 0.61022,-0.76116 0.87189,-1.02117 0.26163,-0.25993 0.48473,-0.43817 0.76733,-0.62097 0.28262,-0.18286 0.38754,-0.28296 0.41766,-0.26233 0.0301,0.0206 0.37586,-0.0988 0.93664,-0.27087 0.56077,-0.172 1.3134,-0.38266 2.2055,-0.62561 0.89217,-0.24298 2.1487,-0.48932 3.2507,-0.62635 1.10198,-0.1371 2.04607,-0.1749 2.8246,-0.0853 0.77854,0.0897 1.40927,0.1391 1.6871,0.12676 0.27787,-0.0124 -0.2,-0.39464 0.0228,-0.0916 0.22281,0.30304 0.41477,0.62634 0.58441,0.975 0.16965,0.3486 0.31446,0.7296 0.42786,1.1338 0.1134,0.4042 0.14459,0.61855 0.17176,0.97573 0.0271,0.35712 0.0433,0.70877 0.0545,1.05507 0.0112,0.3463 0.0124,0.68785 0.005,0.9819 -0.007,0.294 0.0187,0.2026 -0.009,0.3241 -0.0277,0.1216 -0.0917,0.3243 -0.18285,0.5961 -0.0911,0.27183 -0.21678,0.6017 -0.40907,1.0377 -0.19226,0.436 -0.35965,0.8936 -0.4129,1.09 -0.0532,0.1963 -0.10013,0.3897 -0.14056,0.58804 -0.0404,0.19836 -0.0732,0.41242 -0.0912,0.64496 -0.018,0.23255 -0.0113,0.6421 0.0746,1.1307 0.0859,0.48856 0.22397,0.9711 0.41027,1.5098 0.18634,0.5387 0.4239,1.15064 0.71332,1.8161 0.28946,0.6655 0.23621,0.4181 0.24042,0.3206 0.004,-0.0975 0.0241,-0.2204 0.0667,-0.3519 0.0426,-0.1315 0.10587,-0.2543 0.13443,-0.2925 0.0286,-0.0382 0.0159,0.0451 -0.0392,0.12306 -0.0551,0.0779 -0.31699,0.28114 -0.7551,0.55004 -0.43811,0.269 -1.0394,0.57765 -1.71414,0.8893 -0.67475,0.3117 -2.29416,0.7415 -3.81299,1.1257 -1.51886,0.3843 -2.85014,0.7218 -3.99664,1.0011 -1.14652,0.27926 -2.11002,0.4976 -2.52884,0.64016 -0.78638,0.13644 -0.42609,0.5777 -0.79364,0.57159 z"
             id="path50998" /></g><g
           style="fill:#000000;fill-opacity:1;stroke-linejoin:miter"
           id="g51004"
           transform="matrix(0.0212301,0.88760364,-0.82571352,0.02282136,2056.9295,403.92004)"><path
             d="m 257.5771,935.78143 c -0.71235,0.0234 -1.97506,0.18477 -3.09376,0.22177 -1.1187,0.037 -2.09438,-0.0514 -2.93053,-0.2545 -0.83615,-0.2031 -1.54475,-0.5067 -2.41807,-1.1076 -0.87331,-0.6009 -1.90732,-1.4544 -2.77684,-2.39025 -0.86953,-0.93579 -1.59644,-1.93908 -2.19155,-3.01975 -0.59509,-1.0808 -1.07208,-2.24557 -1.35994,-3.2919 -0.28786,-1.0463 -0.41487,-1.89245 -0.46387,-2.67986 -0.049,-0.78744 -0.004,-1.52494 0.12014,-2.22144 0.12405,-0.69647 0.33889,-1.35907 0.55426,-2.0411 0.21538,-0.6819 0.23007,-0.6283 0.37022,-1.10154 0.14015,-0.47326 0.54294,-1.22522 1.12612,-2.21991 0.58316,-0.99469 1.343,-2.21209 2.48483,-4.7182 1.14183,-2.50615 2.21124,-5.61755 2.28876,-5.8634 0.0775,-0.24585 0.12904,-0.49775 0.15051,-0.80182 0.0215,-0.30408 -0.0164,-0.67763 -0.17518,-1.10699 -0.15878,-0.42944 -1.36858,-1.4151 -3.85308,-1.86404 -2.48448,-0.4489 -4.82265,-0.5951 -6.97968,-0.3872 -2.15701,0.20784 -4.10418,0.7484 -5.39868,1.4038 -1.29448,0.65536 -1.29448,0.65536 -0.3914,0.4315 0,0 1.92644,0.19145 3.79747,0.31926 1.87105,0.1278 3.81691,0.5205 5.86896,1.16104 2.05204,0.6406 4.2583,1.5745 3.60617,0.95785 -0.65212,-0.61655 -0.73235,-0.91559 -0.74518,-1.12145 -0.0128,-0.2059 -0.003,-0.3226 0.002,-0.37275 0.005,-0.0502 0.0171,-0.0992 -1.45484,2.71905 -1.47197,2.81824 -2.33549,3.73963 -3.24885,4.86787 -0.91336,1.12823 -1.64139,2.11419 -2.20661,2.98263 -0.56521,0.86844 -1.07609,1.65634 -1.20952,2.26364 -0.13342,0.60736 -0.34542,1.48256 -0.50381,2.67371 -0.1584,1.1911 -0.1842,2.38928 -0.0555,3.58545 0.12868,1.1961 0.38223,2.3855 0.79788,3.5751 0.41565,1.1896 1.1405,2.715 2.02983,4.1131 0.88933,1.3981 1.94757,2.63626 3.14818,3.7142 1.20061,1.07794 2.54376,1.98035 4.00793,2.72504 1.46419,0.74466 2.54431,1.09306 3.6603,1.23856 1.11598,0.14553 2.26663,0.0655 3.4398,-0.20304 1.17319,-0.26856 2.36809,-0.73046 2.93909,-1.1344 1.2164,-0.64471 0.41882,-0.81156 1.06425,-1.05243 z"
             id="path51002" /></g><g
           style="fill:#000000;fill-opacity:1;stroke-linejoin:miter"
           id="g51008"
           transform="matrix(0.0212301,0.88760364,-0.82571352,0.02282136,2056.9295,403.92004)"><path
             d="m 236.4231,890.461 c 1.29832,0.4806 3.64004,0.85345 5.58851,1.0085 1.94847,0.155 3.52492,0.1398 4.79834,-0.1034 1.27342,-0.2432 2.3618,-0.8853 2.8792,-1.62153 0.51741,-0.73621 0.78943,-1.35333 0.96335,-2.01237 0.17392,-0.6591 0.25479,-1.347 0.25015,-2.05416 -0.005,-0.70714 -0.0888,-1.43018 -0.14578,-1.84774 -0.057,-0.41746 -0.22814,-1.0382 -0.47885,-1.70634 -0.25074,-0.66816 -0.61113,-1.52326 -1.0902,-2.60046 -0.47906,-1.0772 -1.06491,-2.39246 -1.38267,-3.08264 -0.31777,-0.69016 -0.36091,-0.82636 -0.39072,-0.94086 -0.0298,-0.11444 -0.22582,-0.14813 -0.25424,-0.2103 -0.0284,-0.0622 -0.0457,-0.0958 -0.15902,-0.70553 -0.11332,-0.60977 -0.30986,-1.81527 -0.46927,-2.82343 -0.1594,-1.00824 -0.26354,-1.81454 -0.30407,-2.39914 -0.0405,-0.5846 -0.0487,-0.9072 -0.0145,-1.14895 0.0341,-0.24175 0.1291,-0.63642 0.22563,-0.97852 0.0965,-0.34216 0.19575,-0.62933 0.29285,-0.86059 0.0971,-0.23121 0.18685,-0.40664 0.39595,-0.70914 0.20908,-0.3024 0.52433,-0.7334 0.89468,-1.2112 0.37033,-0.47786 0.79475,-1.00075 1.26382,-1.57674 0.46908,-0.57592 0.98139,-1.20581 1.94962,-2.59236 0.96823,-1.3865 2.24376,-3.425 2.44353,-3.69096 0.19977,-0.26599 0.43918,-0.56094 0.70878,-0.87464 0.26961,-0.31365 0.57055,-0.64404 0.84487,-0.8567 0.27432,-0.2127 0.27432,-0.2127 0.0914,-0.0709 0,0 -0.36576,0.28356 -0.74591,0.5012 -0.38015,0.21767 -0.72993,0.4286 -1.04895,0.6342 -0.31901,0.2055 -0.62568,0.4253 -2.43442,1.9919 -1.80873,1.56666 -2.45618,2.00575 -3.10983,2.49025 -0.65365,0.48455 -1.2469,0.94795 -1.77751,1.39349 -0.53061,0.44556 -1.00754,0.86576 -1.42607,1.25596 -0.41852,0.3902 -0.68639,0.6566 -0.97266,1.01345 -0.28627,0.35685 -0.54947,0.75015 -0.79559,1.17999 -0.24612,0.42996 -0.47859,0.89752 -0.70382,1.43846 -0.22524,0.54103 -0.38308,1.1566 -0.46745,1.85366 -0.0844,0.69714 -0.12632,1.52144 -0.152,2.5108 -0.0257,0.98938 -0.0234,2.15484 0.0246,3.50317 0.048,1.34833 0.10105,1.72022 0.15018,1.96187 0.0491,0.2417 0.10896,0.47856 0.11249,0.7393 0.004,0.26075 0.10642,0.4924 0.26385,0.8222 0.15744,0.3298 1.01775,1.7033 1.71906,2.8076 0.70132,1.10434 1.2343,1.9837 1.60065,2.6193 0.36634,0.63555 0.55854,0.9846 0.5894,1.05565 0.0308,0.0711 0.22766,0.65131 0.3311,1.03705 0.10342,0.38575 0.15661,0.72876 0.16671,1.0351 0.0101,0.3063 -0.0155,0.5853 -0.0671,0.83484 -0.0516,0.24951 0.0521,0.26812 -0.26027,0.45356 -0.31234,0.1854 -1.27745,0.5011 -2.7744,0.8037 -1.49697,0.3026 -3.4852,0.60565 -4.64252,0.97656 -2.46451,0.3219 -1.17366,0.80584 -2.48083,0.75684 z"
             id="path51006" /></g></g></g></g></svg>
