<?xml version="1.0" encoding="UTF-8" standalone="no"?>
<svg
   version="1.1"
   width="135.38521"
   height="135.38521"
   viewBox="0 0 135.38521 135.38521"
   id="svg1214"
   xmlns="http://www.w3.org/2000/svg"
   xmlns:svg="http://www.w3.org/2000/svg">
  <defs
     id="defs1218" />
  <g
     id="g7432"
     transform="translate(-859.81427,-428.23495)">
    <rect
       style="display:inline;opacity:0.5;fill:none;fill-opacity:1;stroke:none;stroke-width:2.66644;stroke-dasharray:none;stroke-opacity:1"
       id="rect5243"
       width="135.38521"
       height="135.38521"
       x="859.81427"
       y="428.23495" />
    <g
       id="g4398"
       transform="translate(7.1489957,-0.71312845)">
      <g
         style="fill:#000000;fill-opacity:1;stroke-linejoin:miter"
         id="g751"
         transform="rotate(90,259.41968,748.93978)">
        <path
           d="m -5.263392,148.51018 c -0.5305404,-0.30223 -1.6780925,-0.86488 -2.91282,-1.64885 -1.234728,-0.78395 -2.569624,-1.80613 -4.006838,-3.08298 -1.437215,-1.27684 -2.982988,-2.80728 -4.119158,-4.10681 -1.136169,-1.29952 -1.756491,-2.23787 -2.232002,-3.14414 -0.475512,-0.90626 -0.812723,-1.77876 -1.013108,-2.62156 -0.200384,-0.84281 -0.269807,-1.65952 -0.245662,-2.6191 0.02415,-0.95956 0.139293,-1.95174 0.365661,-2.89253 0.226369,-0.94079 0.556954,-1.83774 0.998837,-2.69722 0.441882,-0.85949 0.998165,-1.68619 1.475204,-2.27747 0.477038,-0.59126 0.998957,-1.02957 1.850316,-1.55748 0.85136,-0.5279 2.021298,-1.10398 3.491624,-1.71731 1.470327,-0.61333 3.235799,-1.25271 4.562915,-1.78169 1.3271157,-0.52899 1.5629713,-0.73792 1.7812783,-1.00383 0.218307,-0.26592 0.3999543,-0.61883 0.4774862,-1.0634 0.077532,-0.44457 -4.305e-4,-0.90799 -0.2739101,-1.37772 -0.2734794,-0.46972 -0.7269878,-0.9229 -1.3581214,-1.42949 -0.631134,-0.50659 -1.472942,-1.11192 -2.537635,-1.83241 -1.064693,-0.72048 -2.357502,-1.5586 -3.273646,-2.14629 -0.916145,-0.5877 -1.571974,-0.93274 -2.501181,-1.32386 -0.929208,-0.39113 -2.161913,-0.8406 -3.712652,-1.34353 -1.550739,-0.50292 -3.433838,-1.03024 -4.57861,-1.31059 -1.144771,-0.28036 -1.314971,-0.35936 -1.468299,-0.47317 -0.15333,-0.11381 -0.28987,-0.26667 -0.405888,-0.46213 -0.116016,-0.19546 -0.175234,-0.439 -0.199114,-0.6387 -0.02388,-0.19969 -0.02388,-0.19969 -0.008,-0.0666 0,0 0.03184,0.26626 0.07277,0.50955 0.04093,0.2433 0.103731,0.4695 0.2085,0.67513 0.104769,0.20562 0.255241,0.38572 0.452622,0.53919 0.197377,0.15347 2.12379,1.1655 3.766601,1.97651 1.642813,0.811 2.985409,1.47204 4.012409,2.007 1.027002,0.53497 1.727642,0.93677 2.104712,1.22043 0.377068,0.28367 1.730262,1.32699 2.849422,2.20942 1.119162,0.88242 2.013759,1.6112 2.671221,2.18664 0.657463,0.57543 1.066445,0.97634 1.193984,1.1399 0.1275393,0.16358 -0.00579,-0.12237 -0.020118,-0.37328 -0.014326,-0.25091 0.042419,-0.45316 0.095319,-0.55132 0.0529,-0.0982 0.058984,-0.11277 0.1993273,-0.17513 0.1403433,-0.0624 -1.869602,0.46821 -3.6726163,1.03441 -1.803015,0.5662 -3.346279,1.14603 -4.638149,1.7558 -1.29187,0.60977 -2.349517,1.26129 -3.165754,1.99843 -0.816238,0.73713 -1.588474,1.80674 -2.207052,2.92305 -0.618579,1.11632 -1.092756,2.28122 -1.419121,3.48836 -0.326365,1.20715 -0.494284,2.45191 -0.520311,3.70733 -0.02603,1.25542 0.03387,2.34007 0.266517,3.46102 0.232646,1.12094 0.637873,2.21627 1.194662,3.28568 0.55679,1.06942 1.26355,2.11251 2.138634,3.15171 0.875084,1.03918 2.72885,2.66211 4.455006,3.99515 1.726157,1.33302 3.353018,2.38616 4.874743,3.15577 1.5217263,0.76961 2.9330869,1.24391 3.6252227,1.28171 1.2770486,0.15478 0.7198239,-0.10063 1.3047366,0.0164 z"
           id="path749" />
      </g>
      <g
         style="fill:#000000;fill-opacity:1;stroke-linejoin:miter"
         id="g755"
         transform="rotate(90,259.41968,748.93978)">
        <path
           d="m -18.960728,82.80713 c 1.098206,-0.436685 2.807628,-1.53693 4.180041,-2.48121 1.37241,-0.94428 2.428602,-1.70918 3.182407,-2.28968 0.753805,-0.58049 1.225317,-0.993615 1.574162,-1.31117 0.348845,-0.31755 0.809528,-0.76789 1.167621,-1.233294 0.358094,-0.465401 0.603954,-0.982676 0.665687,-1.591336 0.061733,-0.60866 -0.148626,-1.23056 -0.48466,-1.6478 -0.336034,-0.417244 -0.745585,-0.734925 -1.215702,-0.992935 -0.470118,-0.258019 -1.004003,-0.470551 -1.60574,-0.655665 -0.601736,-0.18511 -1.277239,-0.34281 -1.632736,-0.43256 -0.355499,-0.08975 -0.920007,-0.190546 -1.74964,-0.26767 -0.829632,-0.07712 -2.038702,-0.16265 -3.647222,-0.24137 -1.60852,-0.07872 -3.62,-0.15871 -4.820055,-0.2097 -1.200055,-0.05098 -1.458201,-0.09269 -1.760529,-0.157086 -0.302326,-0.06439 -0.64674,-0.149634 -1.029709,-0.261334 -0.382969,-0.111705 -0.804747,-0.24351 -1.464695,-0.50617 -0.659946,-0.26265 -1.427152,-0.67112 -1.959839,-1.06767 -0.532683,-0.39656 -0.846252,-0.76043 -1.00461,-1.084564 -0.158357,-0.324136 -0.219785,-0.66037 -0.155275,-1.220536 0.06451,-0.56017 0.239826,-1.346058 0.469614,-2.080696 0.229788,-0.734642 0.513163,-1.420174 0.849842,-2.059884 0.33668,-0.639712 0.727261,-1.236457 1.005102,-1.595084 0.277844,-0.358624 0.449324,-0.548844 0.641049,-0.748546 0.191726,-0.199704 0.403618,-0.40833 0.63553,-0.62528 0.231913,-0.21695 0.483721,-0.44182 2.64641,-2.294955 2.162688,-1.853135 6.290192,-5.408745 7.204437,-6.518361 0.914246,-1.109614 1.624901,-2.032154 2.217644,-2.84748 0.592744,-0.815331 1.069836,-1.528179 1.435789,-2.152069 0.365955,-0.62389 0.576298,-1.09618 0.773142,-1.573975 0.196845,-0.477795 0.351034,-1.105408 0.458651,-1.8472 0.107617,-0.741793 0.173366,-1.615466 0.211723,-2.630392 0.03836,-1.014928 0.04124,-2.152568 0.04639,-2.640978 0.0051,-0.4884 -0.03541,-1.225882 -0.117709,-2.195746 -0.0823,-0.969864 -0.213553,-2.179186 -0.405421,-3.630565 -0.191868,-1.451382 -0.45455,-3.117753 -0.73403,-4.940449 -0.279482,-1.822697 -0.279482,-1.822697 -0.28811,-0.60289 0,0 -0.602104,2.453636 -0.626817,4.090172 -0.02471,1.636538 -0.03715,3.004892 -0.05413,4.118053 -0.01698,1.113159 -0.03838,1.967739 -0.07788,2.549599 -0.03951,0.581859 -0.09434,0.953178 -0.207112,2.024204 -0.112772,1.071022 -0.233074,1.963772 -0.36389,2.682999 -0.130817,0.71923 -0.270637,1.253533 -0.392931,1.575493 -0.122295,0.32196 -0.269254,0.552577 -0.517563,0.962646 -0.248309,0.410074 -0.617134,0.925824 -1.125753,1.566788 -0.508619,0.640968 -1.153806,1.399303 -1.931879,2.271343 -0.77807,0.87204 -1.525092,1.697783 -5.746549,5.001011 -4.221457,3.303222 -4.563383,3.588238 -4.853611,3.851375 -0.290228,0.263137 -0.563971,0.52351 -0.82139,0.781651 -0.257422,0.258146 -0.498618,0.514566 -0.747595,0.799583 -0.248977,0.285023 -0.811428,1.036278 -1.31613,1.863629 -0.504703,0.82735 -0.93232,1.70499 -1.282459,2.629402 -0.350136,0.924412 -0.623272,1.893104 -0.826241,2.950397 -0.202965,1.057295 -0.207517,2.173785 0.09912,3.233415 0.30663,1.05962 0.90917,1.988105 1.72845,2.74876 0.81928,0.76065 1.815793,1.37159 2.965541,1.85732 1.149749,0.48573 1.739829,0.6587 2.222424,0.7857 0.482593,0.12701 0.939338,0.228954 1.371099,0.30962 0.431761,0.08066 0.840443,0.14147 1.274485,0.17641 0.434041,0.03494 2.72468,-0.0082 4.586721,-0.04049 1.862042,-0.03229 3.313404,-0.04326 4.346914,-0.04263 1.03351,6.35e-4 1.624517,0.01849 1.789173,0.05265 0.164656,0.03417 0.901417,0.13052 1.44525,0.22396 0.543833,0.09345 0.987943,0.19957 1.325272,0.314624 0.337329,0.115052 0.56339,0.225526 0.687873,0.309676 0.124484,0.08415 0.143788,0.07101 0.134581,-0.02426 -0.0092,-0.09526 -0.0023,-0.06477 -0.08881,0.12741 -0.08647,0.192185 -0.302908,0.50262 -0.678988,0.91669 -0.376081,0.414076 -0.584167,0.678366 -1.031408,1.13855 -0.447242,0.46017 -1.194376,1.17644 -2.220656,2.141004 -1.02628,0.964556 -2.311906,2.196136 -2.932965,3.036716 -1.509202,1.542035 -0.53356,0.95136 -1.4217,1.65283 z"
           id="path753" />
      </g>
      <g
         style="fill:#000000;fill-opacity:1;stroke-linejoin:miter"
         id="g759"
         transform="rotate(90,259.41968,748.93978)">
        <path
           d="m 5.672295,143.28143 c -0.06235,-0.0442 -0.214121,-0.12875 -0.39542,-0.24312 -0.181299,-0.11436 -0.392491,-0.25762 -0.6355653,-0.42607 -0.2430737,-0.16842 -0.5179181,-0.3627 -1.4181919,-0.99559 -0.9002738,-0.63289 -2.23414406,-1.54275 -3.29709157,-2.25071 -1.06294753,-0.70797 -1.84565423,-1.22658 -2.32878723,-1.56556 -0.483133,-0.33895 -0.6063173,-0.43981 -0.8688326,-0.66169 -0.2625154,-0.22188 -0.6531403,-0.57296 -1.0484829,-0.9959 -0.3953425,-0.42293 -0.7940402,-0.91876 -1.236341,-1.45779 -0.4423012,-0.53903 -0.9113155,-1.1407 -1.2938345,-1.6701 -0.382519,-0.5294 -0.627255,-0.94422 -0.8371736,-1.45385 -0.209918,-0.50963 -0.3868304,-1.11272 -0.5236134,-1.80952 -0.136782,-0.69681 -0.236956,-1.48578 -0.243198,-2.29798 -0.00624,-0.81221 0.070944,-1.62466 0.173932,-2.35856 0.102988,-0.73391 0.228394,-1.39316 0.383006,-1.98108 0.1546127,-0.58792 0.347344,-1.10562 0.56368,-1.42173 0.2163357,-0.3161 0.2163357,-0.3161 0.070458,-0.1064 0,0 -0.2967153,0.41626 -0.6453199,0.88422 -0.3486054,0.46796 -0.6775814,1.03571 -0.9781144,1.70089 -0.300532,0.66518 -0.562647,1.42634 -0.801292,2.30076 -0.238646,0.87442 -0.304,1.83054 -0.3014395,2.68016 0.00256,0.84962 0.074806,1.63808 0.2204345,2.36636 0.145629,0.72829 0.3687255,1.39601 0.659605,1.98063 0.290879,0.5846 0.725103,1.33737 1.1687023,2.038 0.4435993,0.70066 0.9659362,1.28101 1.4926591,1.79183 0.5267229,0.51082 1.0591731,0.95143 1.5637341,1.29537 0.5045615,0.34393 0.5065751,0.37219 0.9118149,0.61384 0.4052398,0.24165 1.0628014,0.58359 2.0180051,1.05596 0.9552037,0.47236 2.2155315,1.07212 3.7992348,1.77085 1.5837032,0.69873 1.9343225,0.83278 2.2464424,0.94435 0.3121193,0.11157 0.5895129,0.19979 0.8316063,0.26522 0.2420937,0.0654 0.447297,0.11128 0.542373,0.11633 0.167053,0.0263 0.1350325,-0.13035 0.2070103,-0.10912 z"
           id="path757" />
      </g>
      <g
         style="fill:#000000;fill-opacity:1;stroke-linejoin:miter"
         id="g763"
         transform="rotate(90,259.41968,748.93978)">
        <path
           d="m 4.0921216,143.22864 c 0.1355367,-0.12297 0.3589077,-0.39498 0.5825109,-0.66519 0.2236035,-0.27024 0.4443717,-0.54073 0.6672865,-0.80867 0.2229146,-0.26795 0.440599,-0.53829 0.7918243,-0.90987 0.3512254,-0.3716 0.8242017,-0.87451 1.2590117,-1.35426 0.43481,-0.47975 0.829059,-0.93843 1.182887,-1.37612 0.353827,-0.4377 0.677888,-0.84764 0.940176,-1.1979 0.262288,-0.35028 0.503936,-0.68155 0.731128,-1.00998 0.227193,-0.32842 0.439725,-0.65451 0.631071,-0.98191 0.191348,-0.32737 0.365772,-0.65367 0.581378,-1.07338 0.215607,-0.4197 0.451386,-1.04719 0.569637,-1.70739 0.11825,-0.66021 0.116134,-1.34101 -0.0022,-2.02889 -0.118379,-0.68788 -0.353448,-1.37376 -1.134041,-2.46346 -0.780592,-1.0897 -1.903316,-2.18779 -3.077904,-3.13808 -1.1745885,-0.95029 -2.3598455,-1.79201 -3.5585946,-2.51794 -1.1987486,-0.72591 -2.4025871,-1.34571 -3.1784261,-1.68392 -0.77583902,-0.33822 -1.12515795,-0.47123 -1.4683675,-0.58525 -0.3432096,-0.11403 -0.6803171,-0.20888 -1.0117893,-0.28257 -0.3314722,-0.0737 -0.6572285,-0.12467 -1.0049789,-0.17012 -0.3477502,-0.0454 -0.7987492,-0.0944 -1.2979832,-0.11557 -0.4992344,-0.0212 -1.0466699,-0.0216 -1.6434831,4.3e-4 -0.5968137,0.022 -1.243928,0.0787 -1.6409933,0.11925 -0.397065,0.0406 -0.554856,0.0402 -0.7451886,0.0349 -0.1903328,-0.005 -0.4129144,-0.0141 -0.6668814,-0.0282 -0.253968,-0.0141 -0.532418,-0.0615 -0.752652,-0.1151 -0.220234,-0.0536 -0.220234,-0.0536 -0.073411,-0.0179 0,0 0.293645,0.0715 0.55175,0.16281 0.258104,0.0913 0.486305,0.18183 0.6884154,0.25705 0.2021106,0.0752 0.3788281,0.13358 0.5386343,0.17846 0.1598063,0.0449 0.8326123,0.15939 1.4418833,0.26656 0.609271,0.10717 1.1609657,0.20594 1.6535185,0.31079 0.492553,0.10484 0.9254901,0.21094 1.3090079,0.31776 0.3835177,0.10683 0.6610803,0.18526 0.9203986,0.27619 0.2593183,0.0909 0.5259467,0.19565 0.7990316,0.31858 0.2730848,0.12292 0.5526214,0.26426 0.83675175,0.42328 0.28413037,0.15902 1.35590715,0.79415 2.39843025,1.51142 1.0425232,0.71728 2.0728021,1.53052 3.0946949,2.43793 1.0218925,0.90741 2.0365391,1.91029 3.0744765,2.91559 1.037938,1.00529 1.156944,1.26065 1.323473,1.69157 0.16653,0.43093 0.2577345,0.83315 0.277455,1.21799 0.019721,0.38484 -0.030572,0.76419 -0.17217,1.1828 -0.141598,0.4186 -0.261696,0.72865 -0.387456,1.0228 -0.125761,0.29416 -0.267186,0.59674 -0.420877,0.90976 -0.15369,0.31301 -0.327296,0.63199 -0.522055,0.96719 -0.19476,0.33521 -0.432734,0.75072 -0.687958,1.19025 -0.2552237,0.43954 -0.547567,0.91097 -0.867493,1.42053 -0.3199264,0.50957 -0.6690546,1.05594 -1.052501,1.6456 -0.383446,0.58966 -0.562871,0.92877 -0.721534,1.24676 -0.158664,0.31798 -0.30676,0.64101 -0.447318,0.96694 -0.140558,0.32593 -0.2703683,0.65646 -0.308041,0.83687 -0.1234117,0.33218 0.085247,0.24983 -4.914e-4,0.40161 z"
           id="path761" />
      </g>
      <g
         style="fill:#000000;fill-opacity:1;stroke-linejoin:miter"
         id="g767"
         transform="rotate(90,259.41968,748.93978)">
        <path
           d="M -3.2989674,73.21701 C -3.5290618,73.15704 -3.954179,73.07715 -4.3314886,72.95514 -4.708798,72.83312 -5.0412626,72.66668 -5.337268,72.46112 -5.6332736,72.25556 -5.893542,72.00135 -6.2976108,71.53328 -6.7016797,71.06521 -7.2421713,70.39281 -7.7796965,69.66556 -8.317222,68.93832 -8.846107,68.1497 -9.371601,67.30243 c -0.525494,-0.847276 -1.051153,-1.75215 -1.564713,-2.85374 -0.51356,-1.101583 -0.95061,-2.37868 -1.238519,-3.57513 -0.287911,-1.196447 -0.423812,-2.31517 -0.412804,-3.358927 0.01101,-1.043763 0.168452,-2.016968 0.500891,-3.396957 0.332438,-1.37999 0.753326,-2.994103 1.196145,-4.355376 0.442818,-1.36128 0.916273,-2.461713 1.401463,-3.30073 0.485191,-0.83901 0.9669765,-1.41889 1.485125,-1.84226 0.5181493,-0.423368 1.056927,-0.803968 1.6178445,-1.146463 0.5609169,-0.342491 1.1419749,-0.651741 1.7436865,-0.930017 0.6017115,-0.27827 1.22656,-0.521582 1.6094677,-0.66879 0.3829076,-0.14721 0.5658789,-0.20198 1.0815184,-0.283796 0.5156394,-0.08181 1.3078711,-0.195754 2.36565877,-0.341314 1.05778783,-0.14555 2.37837053,-0.35531 3.50092153,-0.450586 1.1225509,-0.09528 1.1225509,-0.09528 0.3734776,-0.08762 0,0 -1.5002667,-0.152253 -2.7442381,-0.293248 -1.24397133,-0.14099 -2.2317934,-0.20721 -2.9684865,-0.232013 -0.7366932,-0.0248 -1.2362754,-0.009 -1.5007851,0.04048 -0.2645095,0.04943 -0.9575113,0.179925 -1.6742487,0.370758 -0.7167373,0.190834 -1.4192319,0.428297 -2.1049109,0.715417 -0.6856787,0.28711 -1.3542257,0.62185 -2.0145857,1.005797 -0.66036,0.383943 -1.44376,0.949119 -2.197457,1.797001 -0.753697,0.847882 -1.440342,1.925796 -2.078548,3.233102 -0.638204,1.307303 -1.236627,2.847087 -1.779939,4.626628 -0.543313,1.779542 -0.778987,3.002815 -0.822317,4.304428 -0.04333,1.301614 0.104636,2.627514 0.432043,3.973022 0.327408,1.345509 0.830701,2.710064 1.519466,4.100352 0.688767,1.39029 1.36019,2.37846 2.013043,3.24467 0.652854,0.866206 1.309985,1.66656 1.978519,2.39467 0.668535,0.728104 1.3466425,1.38359 2.0295124,1.963136 0.6828706,0.579544 1.0498746,0.861064 1.4577742,1.081544 0.4078994,0.22048 0.837491,0.364615 1.2830074,0.429076 0.4455173,0.06447 0.9017882,0.05096 1.1327898,-0.02011 0.4619274,-0.08762 0.220906,-0.21187 0.4518318,-0.22843 z"
           id="path765" />
      </g>
      <g
         style="fill:#000000;fill-opacity:1;stroke-linejoin:miter"
         id="g771"
         transform="rotate(90,259.41968,748.93978)">
        <path
           d="M -1.4877732,72.517456 C -1.9563347,72.31824 -2.900267,72.10336 -2.8720787,72.09651 c 0.028188,-0.0069 0.043938,-0.0041 0.061804,0.01045 0.017866,0.01459 0.02876,0.02012 0.0399,-0.0012 0.01114,-0.02135 0.039914,-0.08764 0.056158,-0.115792 0.016244,-0.02814 0.049875,-0.08125 0.1039009,-0.157214 0.054026,-0.07596 0.1264983,-0.171994 0.2155893,-0.28701 0.089091,-0.11501 0.1654165,-0.20757 0.5720402,-0.62481 0.4066237,-0.41724 0.7828858,-0.83013 1.12535084,-1.2294 0.34246506,-0.39926 0.6475909,-0.78777 0.92187293,-1.161725 C 0.498819,68.15584 0.74096656,67.80165 1.1230943,67.19624 1.505222,66.590836 1.8580728,66.019966 2.1680799,65.476166 2.4780872,64.93236 2.751415,64.41831 2.9899335,63.93371 3.2284517,63.449104 3.4440272,62.95974 3.8837137,61.72557 4.3234,60.491405 4.68621,59.236824 4.935194,57.959366 5.1841784,56.681908 5.3001175,55.386333 5.342902,54.086838 5.3856864,52.787342 5.3481684,51.504387 5.2993784,50.371887 5.250589,49.239388 5.177434,48.252296 5.0805855,47.411713 4.983737,46.57113 4.86374,45.873535 4.713754,45.31009 4.5637684,44.74664 4.399096,44.367287 4.147331,43.799713 3.8955665,43.23214 3.538194,42.645687 3.0923128,42.05636 2.6464314,41.467026 2.0989387,40.88293 1.582624,40.498314 1.0663091,40.1137 1.0663091,40.1137 1.3226318,40.43681 c 0,0 0.2489839,0.846305 0.5889379,1.49959 0.339954,0.653284 0.6043613,1.252073 0.7850013,1.80056 0.1806403,0.548486 0.3035752,1.084283 0.3755032,1.46037 0.071928,0.376088 0.1151608,0.897656 0.1276777,1.583027 0.012517,0.685373 -0.00407,1.528643 -0.050909,2.526589 -0.046843,0.997947 -0.1313364,2.155524 -0.2349988,3.372871 -0.103662,1.217346 -0.2691466,2.408718 -0.491753,3.586197 -0.2226067,1.177479 -0.413484,2.362953 -0.6719732,3.545738 -0.258489,1.182788 -0.5784643,2.368148 -0.721211,2.780094 -0.1427466,0.411944 -0.32543204,0.88379 -0.54204682,1.397594 -0.21661478,0.5138 -0.46358284,1.07049 -0.74142424,1.66919 -0.27784134,0.598694 -0.59134081,1.23717 -0.76956274,1.593796 -0.178222,0.356629 -0.3903511,0.735224 -0.6329897,1.140424 -0.2426384,0.4052 -0.5126655,0.83888 -0.8115513,1.299685 -0.298886,0.460815 -0.6430402,0.960115 -0.7357602,1.136565 -0.09272,0.17646 -0.1568456,0.315996 -0.2095876,0.43872 -0.052742,0.12274 -0.094867,0.230425 -0.1284175,0.32857 -0.033551,0.09814 -0.052522,0.17966 -0.070388,0.31398 -0.017866,0.13432 -0.0104,0.28147 0.03992,0.42652 0.05032,0.14505 0.1452057,0.269204 0.2667317,0.35157 0.121526,0.08236 0.3277171,0.14098 0.8262029,0.0351 0.9803788,-0.06542 0.5103004,-0.24657 0.9921934,-0.206104 z"
           id="path769" />
      </g>
      <g
         style="fill:#000000;fill-opacity:1;stroke-linejoin:miter"
         id="g775"
         transform="rotate(90,259.41968,748.93978)">
        <path
           d="m 41.579136,129.9641 c -1.916981,-1.41193 -5.808096,-3.6781 -9.360252,-6.16017 -3.552161,-2.48209 -6.755902,-5.2358 -9.626467,-8.27292 -2.870566,-3.03711 -5.414524,-6.3723 -6.6371,-8.26847 -1.222576,-1.89617 -1.340063,-2.17052 -1.377877,-2.2997 -0.03781,-0.12918 -0.03824,-0.0738 -0.114774,0.14574 -0.07654,0.21951 -0.265078,0.44421 2.343674,-0.024 2.608752,-0.46825 8.570146,-1.73306 9.425071,-2.16784 0.854927,-0.43479 1.476334,-0.98035 1.948891,-1.6571 0.472555,-0.67676 0.774604,-1.443835 0.915844,-2.25673 0.141237,-0.8129 0.143744,-1.64893 0.03771,-2.49359 -0.106037,-0.844676 -0.316591,-1.707 -0.623874,-2.587374 -0.307286,-0.880372 -0.707417,-1.782296 -1.197638,-2.710166 -0.490222,-0.92787 -1.050003,-1.85318 -1.233362,-2.14697 -0.183358,-0.29378 -0.416733,-0.63636 -0.691384,-1.01576 -0.274652,-0.37939 -0.592459,-0.79944 -0.954868,-1.26274 -0.36241,-0.4633 -0.85062,-1.06452 -2.128487,-2.41257 -1.277864,-1.34805 -2.43454,-2.60967 -3.488128,-3.8038 -1.053589,-1.19413 -2.003777,-2.32008 -2.85011,-3.37672 -0.846331,-1.05664 -1.58109,-2.032696 -1.757202,-2.32027 -0.176112,-0.28758 -0.328503,-0.58972 -0.448087,-0.89157 -0.119585,-0.30186 -0.20818,-0.605455 -0.267342,-0.91405 -0.05916,-0.30859 -0.115365,-0.20034 0.299788,-1.56505 0.415153,-1.3647 1.339216,-2.42663 2.95748,-3.33296 1.618264,-0.906325 3.99974,-1.58617 7.13366,-1.982406 3.133923,-0.396224 7.036535,-0.490994 7.307278,-0.48381 0.27074,0.0072 0.562235,0.08547 0.915005,0.242306 0.352767,0.15684 0.75893,0.406894 1.211007,0.7533 0.45207,0.346404 0.98436,0.84571 1.134146,0.96702 0.149794,0.121305 0.595424,0.6229 1.328507,1.49752 0.733082,0.87461 1.759655,2.09961 2.880684,3.04812 1.121033,0.948506 1.121033,0.948506 0.572653,0.17448 0,0 -0.49982,-1.97309 -1.267874,-3.214515 C 37.197655,67.92987 36.63564,67.07968 36.260735,66.572586 35.885834,66.06549 35.77446,65.98809 35.286694,65.46516 34.798927,64.94222 34.28111,64.48222 33.749672,64.110275 33.21824,63.73832 32.664825,63.461098 32.08383,63.29418 c -0.58099,-0.166914 -1.11221,-0.21215 -4.924116,-0.297915 -3.811907,-0.08577 -7.046202,0.256493 -9.708332,1.066955 -2.662133,0.81045 -4.745278,2.15129 -6.11992,4.06492 -1.374642,1.91364 -1.893248,4.145565 -1.834733,4.92005 0.058515,0.77447 0.182634,1.32698 0.358423,1.86634 0.175789,0.53936 0.401776,1.063116 0.675551,1.56904 0.273774,0.505924 0.616593,1.02591 1.44757,2.10638 0.830978,1.08047 1.756305,2.21474 2.780142,3.409226 1.023836,1.194494 2.146523,2.450034 3.368427,3.76738 1.221903,1.317344 2.506428,2.657844 2.838388,3.078394 0.331962,0.420545 0.654199,0.836675 0.925418,1.19985 0.271219,0.36318 0.490059,0.67086 0.65373,0.91705 0.163672,0.2462 0.293824,0.46438 0.777602,1.29634 0.48378,0.83195 0.864639,1.59167 1.154064,2.29088 0.289425,0.69921 0.490095,1.33434 0.607769,1.90125 0.117672,0.56691 0.159502,1.06918 0.139629,1.47936 -0.01987,0.41018 -0.08726,0.69558 -0.178261,0.887596 -0.09099,0.192014 -0.206306,0.331674 -0.383367,0.461994 -0.177061,0.13032 -0.188484,0.17551 -6.111037,1.43168 -5.922553,1.25617 -7.034772,1.87382 -7.453935,2.53487 -0.419162,0.66104 -0.549074,1.38164 -0.480772,2.02585 0.0683,0.64421 0.255746,1.22985 0.569876,1.8735 0.314131,0.64366 2.911483,4.2933 5.900594,7.59592 2.989113,3.30261 6.334648,6.21171 10.03251,8.70471 3.697858,2.49299 7.736175,4.55821 9.9932,5.1613 4.413305,1.48761 2.31061,0.47247 4.466886,1.357 z"
           id="path773" />
      </g>
      <g
         style="fill:#000000;fill-opacity:1;stroke-linejoin:miter"
         id="g779"
         transform="rotate(90,259.41968,748.93978)">
        <path
           d="m 36.63403,127.44016 c 0.13198,-0.0177 0.417545,-0.11827 0.76112,-0.26377 0.343574,-0.14549 0.74125,-0.34097 1.191665,-0.58708 0.45042,-0.24611 0.954243,-0.54136 1.309525,-0.7639 0.355285,-0.22255 0.526676,-0.3391 0.68862,-0.45427 0.16195,-0.11517 0.311868,-0.2326 0.449716,-0.35271 0.137844,-0.12012 0.264674,-0.24237 0.624384,-0.66024 0.359712,-0.41789 0.898237,-1.07699 1.39333,-1.69166 0.495095,-0.61465 0.880586,-1.23056 1.216676,-1.80474 0.336086,-0.57418 0.629009,-1.10227 1.331524,-2.28585 0.702514,-1.18359 1.81195,-3.14071 1.922348,-3.39977 0.110397,-0.25906 0.196026,-0.5067 0.258182,-0.74868 0.06216,-0.24199 0.103974,-0.47626 0.13702,-0.64434 0.03305,-0.16808 0.03305,-0.16808 9.9e-4,-0.0593 0,0 -0.09419,0.2079 -0.212846,0.41079 -0.118654,0.20289 -0.255944,0.40268 -0.408452,0.60184 -0.152507,0.19917 -0.315872,0.38596 -1.832477,2.04384 -1.516609,1.65788 -1.873805,2.12538 -2.24836,2.60822 -0.37455,0.48282 -0.790481,1.01352 -1.206115,1.6213 -0.41563,0.60777 -0.828553,1.29544 -1.278225,2.03189 -0.449675,0.73647 -0.497368,0.81009 -0.578091,0.91553 -0.08072,0.10544 -0.175316,0.21713 -0.282254,0.3361 -0.106937,0.11897 -0.227172,0.24389 -0.364253,0.37236 -0.137087,0.12847 -0.592511,0.55165 -0.9954,0.92373 -0.402889,0.37208 -0.754433,0.69574 -1.058655,0.96625 -0.304222,0.27052 -0.561072,0.48909 -0.6651,0.59648 -0.215542,0.16047 -0.04335,0.23487 -0.154872,0.28795 z"
           id="path777" />
      </g>
      <g
         style="fill:#000000;fill-opacity:1;stroke-linejoin:miter"
         id="g783"
         transform="rotate(90,259.41968,748.93978)">
        <path
           d="m 47.950172,111.17641 c -0.199508,-0.006 -0.569182,-0.0605 -0.93663,-0.25909 -0.367442,-0.19859 -0.752162,-0.55092 -1.168255,-1.05975 -0.416092,-0.50883 -0.862677,-1.18167 -1.332943,-2.01008 -0.470268,-0.82841 -0.900829,-1.71069 -1.260326,-2.62872 -0.359498,-0.91803 -0.645648,-1.8746 -0.87244,-2.86789 C 42.15279,101.3576 41.9974,100.32166 41.494713,94.760635 40.992023,89.199615 39.344162,79.23406 39.229343,78.594696 39.114525,77.95533 38.975624,77.23903 38.8144,76.444046 38.65318,75.64907 38.474537,74.77435 38.26638,73.821556 38.058228,72.86876 37.821854,71.84599 37.7777,71.611755 c -0.04416,-0.23423 -0.08271,-0.455085 -0.114263,-0.648849 -0.03156,-0.193771 -0.05827,-0.359626 -0.07732,-0.49633 -0.01906,-0.136706 -0.03086,-0.255666 -0.07605,-1.066566 -0.04519,-0.81089 0.02065,-1.52709 0.203354,-2.17996 0.182713,-0.65287 0.486073,-1.25725 0.74852,-1.74056 0.262443,-0.48331 0.262443,-0.48331 0.01537,-0.219526 0,0 -0.710507,0.35231 -1.184258,0.968746 -0.473747,0.61643 -0.807503,1.36401 -1.007295,2.221844 -0.199786,0.857836 -0.252402,1.782466 -0.25984,1.930846 -0.0074,0.148385 -0.01094,0.324174 -0.0096,0.52273 0.0013,0.19855 0.0084,0.42072 0.01948,0.66739 0.01105,0.24666 0.02965,0.54443 0.130174,1.569715 0.100521,1.025295 0.193026,1.963165 0.279106,2.817415 0.08608,0.85425 0.160996,1.62541 0.226402,2.312865 0.0654,0.687455 0.11615,1.289405 1.397671,11.302815 1.281521,10.013416 1.517704,11.17814 1.828602,12.28929 0.310895,1.11115 0.696449,2.1682 1.166465,3.16514 0.470014,0.99695 1.017827,1.93324 1.63914,2.80433 0.621313,0.87109 1.256098,1.61897 1.862516,2.19943 0.606419,0.58046 1.179904,0.99382 1.726212,1.22341 0.546307,0.22958 1.049162,0.27249 1.276742,0.19541 0.424666,-0.14054 0.184302,-0.21146 0.381392,-0.27493 z"
           id="path781" />
      </g>
    </g>
  </g>
</svg>
