<?xml version="1.0" encoding="UTF-8" standalone="no"?>
<!-- Created with Inkscape (http://www.inkscape.org/) -->

<svg
   width="268.67789em"
   height="268.67789em"
   viewBox="0 0 268.67789 268.67789"
   version="1.1"
   id="svg5"
   xml:space="preserve"
   xmlns="http://www.w3.org/2000/svg"
   xmlns:svg="http://www.w3.org/2000/svg"><defs
     id="defs2" /><g
     id="layer1"
     transform="translate(-486.28292,239.78208)"><g
       id="g3530"
       transform="matrix(1.125229,0,0,1.125229,825.78419,-90.610501)"
       style="stroke-width:4.70275;stroke-dasharray:none"><path
         style="fill:none;stroke:#000000;stroke-width:4.70275;stroke-linecap:butt;stroke-linejoin:miter;stroke-dasharray:none;stroke-opacity:1"
         d="m -263.38247,-15.541202 c 0,0 35.17219,17.9950759 32.71832,-13.087328"
         id="path358" /><path
         style="fill:none;stroke:#000000;stroke-width:4.70275;stroke-linecap:butt;stroke-linejoin:miter;stroke-dasharray:none;stroke-opacity:1"
         d="m -272.38002,-22.902823 c 4.0898,-2.453874 18.81305,-22.084865 35.99016,-13.087328"
         id="path360" /><path
         style="fill:none;stroke:#000000;stroke-width:4.70275;stroke-linecap:butt;stroke-linejoin:miter;stroke-dasharray:none;stroke-opacity:1"
         d="m -142.32469,-39.261983 c 0,0 31.90036,-30.264444 58.075018,12.269369"
         id="path362" /><path
         style="fill:none;stroke:#000000;stroke-width:4.70275;stroke-linecap:butt;stroke-linejoin:miter;stroke-dasharray:none;stroke-opacity:1"
         d="m -133.32715,-33.536278 c 0,0 16.35916,26.9926142 49.077478,7.361623"
         id="path364" /><path
         style="fill:none;stroke:#000000;stroke-width:4.70275;stroke-linecap:butt;stroke-linejoin:miter;stroke-dasharray:none;stroke-opacity:1"
         d="m -155.41202,-62.164806 c 0,0 6.54367,9.815497 13.08733,2.453873 6.54367,-7.361621 7.36162,-7.361621 7.36162,-7.361621 0,0 20.44895,-8.997537 31.90036,3.271832 11.451417,12.269369 28.628535,15.541202 28.628535,15.541202"
         id="path366" /><path
         style="fill:none;stroke:#000000;stroke-width:4.70275;stroke-linecap:butt;stroke-linejoin:miter;stroke-dasharray:none;stroke-opacity:1"
         d="m -287.92122,-35.172192 c 0,0 21.26692,-33.536278 52.34932,-14.723245 31.08241,18.813034 17.17712,-4.089788 24.53874,-8.997537"
         id="path368" /><path
         style="fill:none;stroke:#000000;stroke-width:4.70275;stroke-linecap:butt;stroke-linejoin:miter;stroke-dasharray:none;stroke-opacity:1"
         d="m -251.1131,42.533816 c 0,0 32.68286,-76.967836 49.04202,-35.2519782 16.35916,41.7158572 43.38723,-40.0001568 71.1978,17.2569012"
         id="path370" /><path
         style="fill:none;stroke:#000000;stroke-width:4.70275;stroke-linecap:butt;stroke-linejoin:miter;stroke-dasharray:none;stroke-opacity:1"
         d="m -248.71242,43.360639 27.86376,11.442546"
         id="path372" /><path
         style="fill:none;stroke:#000000;stroke-width:4.70275;stroke-linecap:butt;stroke-linejoin:miter;stroke-dasharray:none;stroke-opacity:1"
         d="m -211.85112,49.07748 c 61.34685,-5.725708 35.1722,-14.723245 61.34685,-5.725708"
         id="path374" /><path
         style="fill:none;stroke:#000000;stroke-width:4.70275;stroke-linecap:butt;stroke-linejoin:miter;stroke-dasharray:none;stroke-opacity:1"
         d="m -140.68877,41.715856 9.81549,-17.177117"
         id="path376" /><rect
         style="display:inline;fill:none;stroke:none;stroke-width:5.29167;stroke-dasharray:none;stroke-opacity:1"
         id="rect5030"
         width="268.67789"
         height="268.67789"
         x="916.3299"
         y="-175.80026"
         transform="matrix(0.888708,0,0,0.888708,-1116.0672,23.665127)" /></g></g></svg>
