<?xml version="1.0" encoding="UTF-8" standalone="no"?>
<svg
   version="1.1"
   width="135.38521"
   height="135.38521"
   viewBox="0 0 135.38521 135.38521"
   id="svg1214"
   xmlns="http://www.w3.org/2000/svg"
   xmlns:svg="http://www.w3.org/2000/svg">
  <defs
     id="defs1218" />
  <g
     id="g7360"
     transform="translate(-859.81427,-989.19946)">
    <rect
       style="display:inline;opacity:0.5;fill:none;fill-opacity:1;stroke:none;stroke-width:2.66644;stroke-dasharray:none;stroke-opacity:1"
       id="rect5235"
       width="135.38521"
       height="135.38521"
       x="859.81427"
       y="989.19946" />
    <g
       id="g4460"
       transform="translate(6.3440393,0.84865956)">
      <g
         style="fill:#000000;fill-opacity:1;stroke-linejoin:miter"
         id="g863"
         transform="rotate(90,259.41968,748.93978)">
        <path
           d="m 514.68713,131.38435 c 0.0265,-0.0402 0.0636,-0.13041 0.0975,-0.22963 0.034,-0.0992 0.0649,-0.20736 0.0929,-0.32438 0.0279,-0.11702 0.0527,-0.24282 0.17374,-1.2285 0.12094,-0.98569 0.26877,-2.60723 0.3655,-3.90612 0.0968,-1.2989 0.1677,-2.27457 0.2115,-2.92274 0.0438,-0.64818 0.0735,-0.94629 0.109,-1.22673 0.0355,-0.28045 0.0837,-0.69572 0.13697,-1.11945 0.0532,-0.42373 0.11563,-0.85555 0.18723,-1.29564 0.0716,-0.44007 0.1523,-0.88833 0.26705,-1.49694 0.11475,-0.6086 0.29565,-1.34945 0.53585,-2.12519 0.2402,-0.77575 0.5483,-1.58486 0.9216,-2.42849 0.37324,-0.84362 0.81697,-1.71965 1.16835,-2.42905 0.35135,-0.7094 0.63495,-1.22034 0.99218,-1.7558 0.3573,-0.53545 0.79217,-1.0907 1.29901,-1.66878 0.50686,-0.57807 1.0868,-1.1771 1.48493,-1.57786 0.39813,-0.40077 0.59613,-0.5908 1.10193,-0.99965 0.50586,-0.40885 1.27746,-0.99957 2.30224,-1.76705 1.02472,-0.76749 2.29556,-1.7172 3.9187,-3.141345 1.62326,-1.424141 3.31396,-3.228305 3.39186,-3.337059 0.0778,-0.108756 0.1429,-0.224876 0.19774,-0.349916 0.0548,-0.12503 0.10386,-0.257 0.14942,-0.35499 0.0454,-0.09798 0.0454,-0.09798 0.0151,-0.03266 0,0 -0.0607,0.13065 -0.14515,0.23853 -0.0844,0.10788 -0.17435,0.20026 -0.26721,0.278226 -0.0928,0.07795 -0.18384,0.138144 -2.25659,1.443164 -2.07269,1.30501 -3.61511,2.134656 -4.91638,2.87172 -1.30121,0.73706 -2.33081,1.34786 -3.09931,1.82672 -0.76846,0.47886 -1.28966,0.83416 -1.54461,1.05234 -0.25501,0.21817 -0.95722,0.78504 -1.63185,1.38513 -0.6746,0.6001 -1.27947,1.2054 -1.8137,1.81802 -0.53425,0.61263 -1.00276,1.23013 -1.3944,1.85403 -0.39174,0.6239 -0.87996,1.62263 -1.26955,2.60865 -0.38965,0.98602 -0.70755,1.94372 -0.95595,2.87217 -0.24833,0.92845 -0.42717,1.82756 -0.5254,2.68116 -0.0982,0.85359 -0.1408,1.33015 -0.176,1.80754 -0.0352,0.47739 -0.0617,0.94607 -0.0793,1.40605 -0.0177,0.45999 -0.0265,0.91122 -0.0203,1.34018 0.006,0.42896 -0.002,0.55278 0.0123,1.02391 0.0143,0.47112 0.0543,1.24331 0.1344,2.33242 0.0801,1.08911 0.2102,2.497 0.4231,4.22376 0.21297,1.72678 0.23195,1.84668 0.24587,1.96192 0.0138,0.11522 0.0224,0.22338 0.0257,0.32449 0.003,0.1011 10e-4,0.19525 0.006,0.24106 -0.008,0.0881 0.1402,0.0845 0.12817,0.12678 z"
           id="path861" />
      </g>
      <g
         style="fill:#000000;fill-opacity:1;stroke-linejoin:miter"
         id="g867"
         transform="rotate(90,259.41968,748.93978)">
        <path
           d="m 538.974,70.34157 c -0.2911,0.01877 -0.8457,0.07959 -1.4093,0.05639 -0.5636,-0.02321 -1.146,-0.120525 -1.7563,-0.30609 -0.6103,-0.18555 -1.2518,-0.46044 -2.1596,-1.12843 -0.9077,-0.667984 -2.115,-1.70332 -3.19775,-2.661125 -1.0827,-0.957805 -2.0351,-1.844175 -2.85168,-2.662541 -0.81657,-0.818364 -1.50157,-1.560374 -2.16663,-2.276638 -0.66498,-0.716259 -1.37704,-1.5251 -2.09434,-2.430679 -0.7173,-0.905577 -1.445,-1.904301 -2.1732,-3.002319 -0.7281,-1.098015 -1.4699,-2.287533 -2.02323,-3.266343 -0.55341,-0.978805 -0.89343,-1.702865 -1.17077,-2.408745 -0.27735,-0.705875 -0.5058,-1.393253 -0.67725,-2.06972 -0.17151,-0.67647 -0.28625,-1.346444 -0.2699,-1.841405 0.0163,-0.49496 0.0163,-0.49496 -0.005,-0.165283 0,0 -0.0728,0.658458 -0.1543,1.356058 -0.0816,0.697592 -0.0848,1.438265 -0.004,2.215327 0.0811,0.777063 0.2437,1.586553 0.4907,2.435783 0.247,0.84923 0.8251,2.244522 1.43255,3.52988 0.60745,1.285363 1.24845,2.473775 1.90615,3.575543 0.65757,1.101767 1.3444,2.108852 2.04026,3.03233 0.69584,0.923481 1.41904,1.642167 2.27634,2.399577 0.8573,0.757405 1.84725,1.54939 2.96755,2.38298 1.12035,0.833585 2.3816,1.69782 3.80555,2.61072 1.4239,0.9129 2.3171,1.205745 3.0726,1.348086 0.7556,0.142344 1.46707,0.175854 2.12625,0.106004 0.65925,-0.06986 1.25879,-0.24841 1.52175,-0.41895 0.5271,-0.27998 0.20884,-0.30097 0.473,-0.41041 z"
           id="path865" />
      </g>
      <g
         style="fill:#000000;fill-opacity:1;stroke-linejoin:miter"
         id="g871"
         transform="rotate(90,259.41968,748.93978)">
        <path
           d="m 547.0605,67.07413 c -3.2782,-1.476146 -10.05366,-3.322677 -10.81087,-3.621623 -0.75713,-0.29895 -0.23183,0.07754 -0.224,0.08353 0.008,0.006 0.0153,0.01051 0.0206,0.0088 0.005,-0.0017 0.009,-0.01391 0.0113,-0.02267 0.002,-0.0088 0.162,-1.986886 0.25805,-4.01847 0.0961,-2.03159 -0.0185,-3.794214 -0.11875,-5.211115 -0.10036,-1.4169 -0.19064,-2.491348 -0.2759,-3.23928 -0.0852,-0.747933 -0.1831,-1.251305 -0.2022,-1.225937 -0.0191,0.02536 -0.0219,0.01347 -0.0261,0.02396 -0.004,0.0105 -0.0143,0.04285 -0.0384,0.09454 -0.0241,0.0517 -0.0656,0.116169 -0.0384,0.05757 0.0271,-0.05859 -0.3328,0.293403 -0.4127,0.325777 -0.0799,0.03238 -0.002,0.0096 0.1674,-0.0205 0.1689,-0.03012 0.41167,-0.06128 1.04027,-0.12409 0.62853,-0.06281 1.59793,-0.147236 2.56598,-0.23123 0.96801,-0.08399 1.93499,-0.16756 2.901,-0.250685 0.966,-0.08313 1.93125,-0.158978 2.65728,-0.488975 0.72607,-0.33 0.72607,-0.33 0.24201,-0.331215 0,0 -0.96839,-0.666089 -1.94314,-0.736595 -0.9747,-0.07051 -1.9524,-0.120633 -2.933,-0.15871 -0.98055,-0.03808 -1.9638,-0.06411 -2.9496,-0.07678 -0.98585,-0.01268 -1.31525,-0.01056 -1.6001,0.0013 -0.2849,0.01186 -0.5338,0.03605 -0.7781,0.08709 -0.24424,0.05104 -0.56083,0.192733 -0.8262,0.493503 -0.2654,0.300767 -0.22065,0.200481 -0.31416,0.374821 -0.0935,0.174339 -0.15534,0.349576 -0.19114,0.520221 -0.0358,0.170647 -0.0517,0.335221 -0.0308,0.624025 0.0209,0.288802 0.0589,0.362265 0.0748,0.743644 0.016,0.381376 0.029,1.182456 0.0263,2.345321 -0.003,1.162869 -0.0287,2.680315 0.005,4.527705 0.0338,1.847394 0.0296,3.793416 0.0346,4.911928 0.005,1.118512 0.0279,1.327082 0.0758,1.535106 0.0478,0.208026 0.12079,0.411656 0.21863,0.606016 0.0978,0.19435 0.21887,0.37532 1.0213,0.78339 0.8024,0.408064 1.79767,0.68446 5.36236,0.85058 7.00141,0.8971 3.59418,0.02802 7.03084,0.75901 z"
           id="path869" />
      </g>
      <g
         style="fill:#000000;fill-opacity:1;stroke-linejoin:miter"
         id="g875"
         transform="rotate(90,259.41968,748.93978)">
        <path
           d="m 552.32074,69.05005 c 0.0757,-0.52384 -0.15601,-1.894685 -0.4032,-4.01129 -0.24719,-2.116618 -0.61424,-4.12145 -1.4079,-6.9781 -0.7937,-2.856646 -1.08564,-3.59589 -2.14804,-5.97563 -1.0624,-2.379746 -1.3508,-2.928234 -1.96237,-4.00056 -0.61157,-1.072328 -1.26758,-2.276616 -1.50223,-2.715245 -0.23477,-0.43863 -0.5422,-0.75037 -0.72134,-1.140905 -0.1792,-0.390532 -0.1792,-0.390532 -0.1322,-0.10296 0,0 -0.12336,0.656786 0.0199,1.14987 0.14319,0.493084 0.28525,0.876618 0.64395,1.93546 0.3586,1.05884 0.86954,2.56411 1.2609,3.680065 0.39136,1.115955 1.31274,4.319629 1.8881,5.98204 0.57546,1.662411 1.6461,4.556185 2.26736,6.721001 0.62124,2.164814 1.23514,3.793774 1.6073,4.396744 0.4505,1.08226 0.51147,0.58022 0.58978,1.05951 z"
           id="path873" />
      </g>
      <g
         style="fill:#000000;fill-opacity:1;stroke-linejoin:miter"
         id="g879"
         transform="rotate(90,259.41968,748.93978)">
        <path
           d="m 548.5115,126.62066 c -0.9075,-0.90614 -2.94577,-2.2915 -3.6779,-2.82273 -0.7321,-0.53122 -1.4845,-1.07931 -2.2474,-1.64196 -0.76296,-0.56264 -1.53176,-1.14731 -2.3162,-1.73982 -0.78434,-0.5925 -1.6578,-1.25689 -3.07914,-2.08175 -1.42133,-0.82488 -0.98871,-0.47292 -0.96476,-1.27069 0.024,-0.79776 0.10746,-1.88683 0.24436,-3.25351 0.1369,-1.3667 0.20704,-3.01743 0.3175,-4.94316 0.11044,-1.92575 0.11944,-1.95107 0.11404,-2.18781 -0.006,-0.23673 -0.0346,-0.44838 -0.0813,-0.7141 -0.0467,-0.26571 -0.11047,-0.59577 -0.18314,-0.9596 -0.0727,-0.36383 -0.1034,0.0601 -0.1236,0.10415 -0.0202,0.0441 -0.0693,0.12875 -0.17794,0.24974 -0.10856,0.12098 -0.30116,0.2483 -0.63026,0.30971 -0.329,0.0614 -0.1532,0.0793 0.2026,0.0494 0.35576,-0.0299 0.7992,-0.10554 1.3803,-0.2239 0.5812,-0.11836 1.3083,-0.27884 2.23016,-0.49635 0.92187,-0.21753 2.13434,-0.72414 3.27604,-1.1828 1.1417,-0.45865 2.2937,-0.89399 3.4544,-1.31785 1.16073,-0.42387 2.32907,-0.85044 3.20865,-1.19101 0.87955,-0.34056 0.87955,-0.34056 0.27115,-0.2153 0,0 -1.28293,-0.0549 -2.5323,0.0975 -1.2495,0.15237 -2.4911,0.36944 -3.7229,0.64845 -1.2318,0.279 -2.4572,0.60399 -3.4478,0.82129 -0.9905,0.21729 -1.81864,0.31763 -2.4853,0.3938 -0.66665,0.0762 -1.16867,0.12365 -1.489,0.14494 -0.3203,0.0213 -0.3935,0.0161 -0.6529,0.0267 -0.2593,0.0106 -0.562,0.12764 -0.7806,0.30295 -0.2187,0.1753 -0.3523,0.35611 -0.4335,0.51775 -0.0811,0.16164 -0.1316,0.30647 -0.1359,0.82632 -0.004,0.51984 0.038,0.88505 0.0631,1.17279 0.0252,0.28775 0.0388,0.49265 0.0419,0.59194 0.003,0.0993 0.007,-0.0175 -0.14243,1.01146 -0.1492,1.02895 -0.3903,2.8764 -0.51834,4.46716 -0.12811,1.59076 -0.15899,2.9241 -0.14426,4.0026 0.0146,1.0785 0.0749,1.91697 1.2785,3.1544 1.20353,1.23742 2.76396,1.96485 3.5832,2.47223 0.8191,0.50738 1.6689,1.02167 2.5146,1.50747 0.8457,0.48581 1.68276,0.94963 2.51186,1.39 0.82914,0.44038 1.67024,0.86141 2.89834,1.18801 2.30845,0.91553 1.2957,0.20263 2.3761,0.79157 z"
           id="path877" />
      </g>
      <g
         style="fill:#000000;fill-opacity:1;stroke-linejoin:miter"
         id="g883"
         transform="rotate(90,259.41968,748.93978)">
        <path
           d="m 553.9626,124.87888 c 0.05,-0.28245 0.2359,-1.26001 0.37254,-2.45504 0.13666,-1.19502 0.18296,-3.16956 0.19172,-4.12166 0.009,-0.9521 0.19734,-2.89355 0.14648,-3.6125 -0.0509,-0.71895 -0.12469,-1.86898 -0.16949,-2.41249 -0.0448,-0.54352 0.104,-1.57282 0.13861,-2.60252 0.0346,-1.02969 -0.12232,-1.64445 -0.10706,-2.25118 0.0153,-0.60672 -0.1766,-1.24534 -0.4508,-1.4781 -0.2742,-0.23277 -0.2742,-0.23277 -0.1469,-0.0567 0,0 0.0878,0.41473 -0.003,0.94642 -0.091,0.53169 -0.27355,1.19238 -0.42155,1.95264 -0.14803,0.76026 -0.27553,1.73813 -0.4626,2.68049 -0.187,0.94236 -0.21503,1.34694 -0.24537,2.22104 -0.0304,0.87408 -0.0976,1.64785 0.0112,3.31861 0.10884,1.67077 0.19989,2.34008 0.41164,3.96256 0.2117,1.62248 0.3358,2.63631 0.4421,3.13998 0.1534,0.79124 0.2457,0.48091 0.2927,0.76847 z"
           id="path881" />
      </g>
      <g
         style="fill:#000000;fill-opacity:1;stroke-linejoin:miter"
         id="g887"
         transform="rotate(90,259.41968,748.93978)">
        <path
           d="m 607.1419,113.98179 c -0.28466,-0.12148 -0.9019,-0.32414 -1.58386,-0.5976 -0.68194,-0.27346 -1.43224,-0.62504 -2.25671,-1.05066 -0.82446,-0.42562 -1.72323,-0.93058 -5.10393,-3.38781 -3.38075,-2.45723 -9.29603,-6.74824 -10.38655,-7.88374 -1.09051,-1.13549 -2.02745,-2.181365 -2.7243,-3.069815 -0.69685,-0.888451 -1.15385,-1.594185 -1.36719,-2.060465 -0.21332,-0.466284 -0.23956,-0.73146 -0.29616,-0.367605 -0.0566,0.363855 -0.10875,0.454275 0.001,0.371055 0.1097,-0.08323 0.37603,-0.25985 0.78247,-0.48595 0.40637,-0.22609 0.98993,-0.50343 1.47813,-0.73321 0.4882,-0.229784 1.0688,-0.43867 1.7792,-0.64065 0.7104,-0.20198 1.5431,-0.40628 2.49816,-0.596954 0.95504,-0.190676 2.14644,-0.387322 2.68091,-0.618431 0.53443,-0.231105 0.88523,-0.459115 1.20713,-0.742265 0.3219,-0.28315 0.60164,-0.62362 0.81966,-1.012206 0.21804,-0.388584 0.3573,-0.789184 0.44348,-1.238724 0.0862,-0.44954 0.098,-0.93001 0.021,-1.40959 -0.0771,-0.479585 -0.242,-0.93644 -0.4801,-1.34816 -0.2381,-0.411714 -0.7078,-0.9421 -2.12185,-2.10393 -1.41405,-1.16183 -2.53915,-2.07958 -3.36815,-2.78889 -0.8291,-0.70932 -1.3474,-1.19348 -1.46706,-1.281376 -0.11954,-0.08789 -0.10314,-0.16896 -0.2019,-0.305744 -0.0987,-0.13679 -0.0565,0.03086 -0.0614,0.169125 -0.005,0.138265 -0.0223,0.190535 -0.005,0.146555 0.0171,-0.04399 -0.2368,0.16511 2.6492,-2.07326 2.8859,-2.238365 7.3395,-7.150184 9.5531,-9.69109 2.2136,-2.54091 2.38176,-2.69824 2.9741,-3.09862 0.5924,-0.40038 1.538,-0.97113 2.8109,-1.71289 1.2729,-0.741765 2.85786,-1.677217 3.79787,-2.27553 0.93993,-0.59831 1.04233,-0.687556 1.13633,-0.79096 0.0941,-0.103406 0.1803,-0.220678 0.26894,-0.344453 0.0886,-0.12378 0.18376,-0.254395 0.25372,-0.360267 0.0699,-0.10587 0.0699,-0.10587 0.0233,-0.03529 0,0 -0.0933,0.141162 -0.19,0.26598 -0.0967,0.124812 -0.21316,0.21741 -0.328,0.29213 -0.1149,0.07472 -0.22757,0.1317 -0.3363,0.171034 -0.10886,0.03933 -2.1213,0.621552 -3.75186,1.202616 -1.63049,0.581057 -2.91058,1.09305 -3.85584,1.52369 -0.94525,0.43063 -1.5832,0.786954 -1.8921,1.063886 -0.3089,0.276924 -5.0856,4.729304 -8.8289,7.907074 -3.7433,3.17777 -6.7337,5.23822 -7.1526,5.78421 -0.4189,0.546 -0.61266,0.982704 -0.7112,1.4892 -0.0985,0.50649 -0.0591,1.06161 0.14016,1.579236 0.19928,0.517624 0.19624,0.44751 0.42908,0.873199 0.23286,0.42569 0.70256,0.962075 1.39156,1.633455 0.689,0.671385 1.63395,1.52778 2.84654,2.584655 1.21256,1.056875 2.67466,2.260965 2.61749,2.214795 -0.0572,-0.04617 -0.0533,-0.03905 -0.0563,-0.05031 -0.003,-0.01125 -0.004,-0.02041 -0.007,-0.0014 -0.003,0.01903 -0.0245,0.101534 -0.0154,0.08316 0.009,-0.01838 0.0247,-0.04278 0.0275,-0.04692 0.003,-0.0041 -0.0235,0.01628 -0.0923,0.05593 -0.0688,0.03965 0.14167,-0.0087 -0.92553,0.177156 -1.06727,0.18581 -2.09131,0.404776 -3.01551,0.65511 -0.92416,0.25034 -1.75116,0.53484 -2.48866,0.85301 -0.7375,0.31817 -1.303,0.63165 -1.88744,0.95931 -0.58436,0.32766 -1.10662,0.66092 -1.55529,1.01896 -0.44873,0.35804 -0.84302,0.78087 -1.14783,1.40237 -0.30487,0.6215 -0.32819,1.44248 -0.0468,2.31484 0.2814,0.87236 0.80056,1.758755 1.52475,2.68992 0.72415,0.931184 1.66351,1.937054 2.81565,3.044974 1.15224,1.10792 2.672,2.44804 9.0118,6.2542 6.3398,3.80616 7.4692,4.28856 8.4497,4.63465 0.98054,0.34609 1.8823,0.6055 2.7058,0.76903 0.8235,0.16352 1.5639,0.23219 1.9119,0.18489 0.6473,-0.0239 0.3589,-0.18804 0.6583,-0.16466 z"
           id="path885" />
      </g>
      <g
         style="fill:#000000;fill-opacity:1;stroke-linejoin:miter"
         id="g891"
         transform="rotate(90,259.41968,748.93978)">
        <path
           d="m 605.08417,105.86856 c 1.35589,0.56005 3.86603,1.04704 5.99283,1.30763 2.12686,0.26059 3.87277,0.34703 5.2642,0.25583 1.39134,-0.0912 2.48424,-0.38849 3.1859,-1.15311 0.7016,-0.76461 0.72327,-1.0267 0.71655,-1.28903 -0.007,-0.26233 -0.0318,-0.53226 -0.0742,-0.81645 -0.0424,-0.28419 -0.10449,-0.58536 -0.43737,-1.48761 -0.33283,-0.90225 -0.80556,-2.11761 -1.19456,-3.2554 -0.389,-1.13779 -0.7123,-2.189934 -0.9519,-3.16086 -0.2396,-0.97093 -0.40463,-1.85555 -0.49014,-2.579115 -0.0855,-0.723555 -0.13606,-1.377861 -0.21596,-2.036591 -0.0799,-0.658734 -0.14506,-1.327014 -0.20036,-2.004394 -0.0553,-0.67738 -0.10004,-1.3641 -0.12604,-2.59345 -0.026,-1.22936 -0.0351,-2.910655 -0.047,-4.377696 -0.0118,-1.467034 -0.0165,-2.719094 -0.008,-3.75457 0.008,-1.035474 0.0208,-1.852794 0.0264,-2.452444 0.006,-0.59966 -0.0114,-1.024355 -0.0325,-1.41147 -0.0211,-0.38711 -0.0464,-0.73718 -0.0779,-1.0513 -0.0314,-0.31412 -0.067,-0.593766 -0.21275,-1.348404 -0.14569,-0.754631 -0.43115,-1.969466 -0.771,-3.143236 -0.3399,-1.17377 -0.74835,-2.300986 -1.22005,-3.37883 -0.47166,-1.07785 -1.0199,-2.09791 -1.3797,-2.867125 -0.35984,-0.769218 -0.35984,-0.769218 -0.1536,-0.243809 0,0 0.3114,1.08862 0.52166,2.216709 0.21021,1.12809 0.41169,2.264015 0.58429,3.418995 0.17261,1.15497 0.31159,2.33253 0.41889,3.53834 0.10726,1.20582 0.11036,1.3927 0.1123,1.64223 0.002,0.249526 -0.007,0.54295 -0.0168,0.878394 -0.01,0.335442 -0.0357,0.712306 -0.0626,1.109871 -0.0269,0.39756 -0.11575,1.064465 -0.2113,1.977355 -0.0956,0.91289 -0.1953,2.035165 -0.3,3.36877 -0.10475,1.3336 -0.2194,2.87925 -0.32356,4.64689 -0.10414,1.76763 -0.11404,2.542546 -0.11014,3.269924 0.004,0.727386 0.0251,1.447831 0.0602,2.161271 0.035,0.713445 0.0811,1.420341 0.18658,2.132431 0.10553,0.712089 0.2995,1.685188 0.57813,2.718014 0.27854,1.032825 0.65114,2.11633 1.09874,3.25841 0.4477,1.14208 0.9812,2.34067 1.585,3.57448 0.60373,1.23382 0.62375,1.31104 0.6807,1.5237 0.0569,0.21266 0.0984,0.3889 0.1207,0.52473 0.0223,0.13582 0.0299,0.22463 0.2609,-0.11879 0.231,-0.34341 -0.034,-0.14407 -0.8475,0.0847 -0.81346,0.22879 -2.1393,0.38996 -3.925,0.4691 -1.7856,0.0791 -4.01737,0.0824 -5.30313,0.27697 -2.6839,0.0287 -1.30243,0.3348 -2.7005,0.16891 z"
           id="path889" />
      </g>
    </g>
  </g>
</svg>
