<?xml version="1.0" encoding="UTF-8" standalone="no"?>
<svg
   version="1.1"
   width="135.38521"
   height="135.38521"
   viewBox="0 0 135.38521 135.38521"
   id="svg1214"
   xmlns="http://www.w3.org/2000/svg"
   xmlns:svg="http://www.w3.org/2000/svg">
  <defs
     id="defs1218" />
  <g
     id="g7340"
     transform="translate(-860.2851,-1129.7841)">
    <rect
       style="display:inline;opacity:0.5;fill:none;fill-opacity:1;stroke:none;stroke-width:2.66644;stroke-dasharray:none;stroke-opacity:1"
       id="rect5425"
       width="135.38521"
       height="135.38521"
       x="860.2851"
       y="1129.7841" />
    <g
       id="g4210"
       transform="translate(1130.5968,-17.277513)">
      <g
         style="fill:#000000;fill-opacity:1;stroke-linejoin:miter"
         id="g439"
         transform="rotate(90,259.41968,748.93978)">
        <path
           d="m 690.08563,1259.9736 c -0.31817,-0.7707 -1.15373,-2.0848 -1.96443,-3.3277 -0.81065,-1.2429 -1.58775,-2.4235 -2.3086,-3.5599 -0.7208,-1.1363 -1.3929,-2.2232 -1.9403,-3.1922 -0.54735,-0.9689 -1.00383,-1.8846 -1.42827,-2.8002 -0.42443,-0.9155 -0.81333,-1.8335 -1.16766,-2.7534 -0.35427,-0.9199 -0.75127,-1.8137 -1.14517,-2.9427 -0.3938,-1.1291 -0.7553,-2.6866 -1.0146,-4.4683 -0.2594,-1.7816 -0.4166,-3.7862 -0.4923,-6.0149 -0.0756,-2.2285 -0.12033,-4.6888 -0.0428,-6.6426 0.0776,-1.9538 0.0776,-1.9538 -0.0827,-0.6632 0,0 -0.64624,2.5457 -1.06764,4.9293 -0.4214,2.3837 -0.62145,4.5993 -0.64556,6.6407 -0.024,2.0415 0.11591,3.9096 0.42056,5.6032 0.3046,1.6935 0.63663,2.7458 1.02244,3.7229 0.3858,0.9771 0.8537,1.9264 1.35886,2.8645 0.5053,0.9383 1.0521,1.8627 1.64517,2.7824 0.59303,0.9197 1.36169,1.9562 2.18843,3.0004 0.8267,1.044 1.72575,2.1088 2.69706,3.1933 0.97138,1.0846 2.02884,2.1776 2.68848,2.6423 1.17059,1.0767 0.76806,0.3741 1.27899,0.9861 z"
           id="path437" />
      </g>
      <g
         style="fill:#000000;fill-opacity:1;stroke-linejoin:miter"
         id="g443"
         transform="rotate(90,259.41968,748.93978)">
        <path
           d="m 678.2207,1193.1124 c -0.0944,-0.3299 -0.33294,-0.9283 -0.51935,-1.5201 -0.1864,-0.5919 -0.31845,-1.1831 -0.39665,-1.7787 -0.0782,-0.5956 -0.0985,-1.1995 -0.069,-1.632 0.0294,-0.4323 0.10394,-0.7907 0.23844,-1.2609 0.1346,-0.4701 0.3351,-1.0439 0.58645,-1.721 0.25125,-0.6771 0.56825,-1.4517 0.8153,-2.0598 0.24701,-0.6082 0.39535,-0.9525 0.5575,-1.2965 0.16211,-0.344 0.33805,-0.6874 0.52785,-1.0302 0.1898,-0.3429 0.3936,-0.6853 0.63755,-1.0899 0.24395,-0.4047 0.50195,-0.8131 0.78995,-1.2121 0.288,-0.3989 0.60263,-0.7907 0.9454,-1.1748 0.3428,-0.384 0.7111,-0.7635 1.3898,-1.5033 0.67857,-0.7397 1.6327,-1.7866 2.6584,-2.7359 1.0258,-0.9495 1.99825,-1.8777 2.8935,-2.7649 0.8953,-0.8873 1.7147,-1.7315 2.4552,-2.5354 0.74056,-0.804 1.40847,-1.5639 2.115,-2.4485 0.70655,-0.8848 1.25556,-1.6454 1.6583,-2.2703 0.40274,-0.6249 0.6623,-1.1081 0.8053,-1.383 0.14285,-0.2748 0.14285,-0.2748 0.03,-0.1043 0,0 -0.27856,0.303 -0.7242,0.7066 -0.4456,0.4035 -1.05,0.9183 -1.80266,1.5573 -0.75264,0.639 -1.65474,1.3993 -2.43579,2.0489 -0.78105,0.6496 -1.63391,1.3454 -2.55895,2.0861 -0.9251,0.7406 -1.92243,1.5264 -2.9912,2.3586 -1.0688,0.8321 -2.2579,1.7495 -3.36464,2.7701 -1.10669,1.0205 -1.55622,1.4586 -1.94861,1.937 -0.39245,0.4785 -0.74875,0.971 -1.0752,1.4711 -0.32641,0.5001 -0.61889,1.0109 -0.87121,1.5138 -0.25224,0.5029 -0.44,0.8869 -0.62554,1.2944 -0.18556,0.4075 -0.3557,0.815 -0.5106,1.2222 -0.1548,0.4073 -0.2942,0.8146 -0.41513,1.2126 -0.12091,0.398 -0.38647,1.2905 -0.59827,2.0968 -0.2118,0.8063 -0.3766,1.5152 -0.4868,2.1308 -0.1103,0.6157 -0.17555,1.1401 -0.1874,1.5935 -0.0119,0.4532 0.0861,1.1554 0.2528,1.822 0.1667,0.6666 0.4041,1.2998 0.71205,1.895 0.30795,0.5952 0.68685,1.1484 0.94765,1.3801 0.4485,0.5048 0.3772,0.1518 0.5648,0.4247 z"
           id="path441" />
      </g>
      <g
         style="fill:#000000;fill-opacity:1;stroke-linejoin:miter"
         id="g447"
         transform="rotate(90,259.41968,748.93978)">
        <path
           d="m 722.0743,1248.0831 c -0.1243,-0.032 -0.5219,-0.1302 -1.14364,-0.3336 -0.6217,-0.2034 -1.47082,-0.494 -2.54846,-0.8719 -1.07763,-0.378 -2.3861,-0.8352 -3.4898,-1.2768 -1.1037,-0.4415 -1.8706,-0.8208 -2.5241,-1.1622 -0.6536,-0.3414 -1.1922,-0.6421 -1.6089,-0.9017 -0.4167,-0.2596 -0.70343,-0.4696 -1.0139,-0.7541 -0.31056,-0.2844 -0.65285,-0.7208 -0.9596,-1.2894 -0.3068,-0.5685 -0.5664,-1.2832 -0.774,-2.147 -0.2076,-0.8636 -0.34936,-1.8776 -0.4671,-2.6342 -0.1177,-0.7568 -0.14044,-1.1747 -0.1393,-1.5285 0.001,-0.3537 0.0299,-0.6393 0.0705,-0.8536 0.0405,-0.2145 0.0856,-0.3572 0.23545,-0.5833 0.1499,-0.226 0.45864,-0.6351 0.7826,-1.0174 0.32393,-0.3824 0.65737,-0.7436 1.00356,-1.0814 0.34619,-0.338 0.70424,-0.6542 1.26124,-1.0191 0.55706,-0.3647 1.34703,-0.8149 2.00975,-1.1789 0.66265,-0.3642 1.19665,-0.6388 1.59345,-0.824 0.3968,-0.1853 0.6375,-0.2779 1.0629,-0.3975 0.4254,-0.1197 1.0455,-0.3047 1.70877,-0.4737 0.66333,-0.1691 1.36889,-0.3312 2.11779,-0.4906 0.74894,-0.1593 1.5423,-0.3158 2.16041,-0.3531 0.61813,-0.037 0.61813,-0.037 0.20563,-0.032 0,0 -0.82655,-0.047 -1.62446,-0.1319 -0.79784,-0.085 -1.56579,-0.1226 -2.30234,-0.1119 -0.73654,0.011 -1.4422,0.058 -2.1001,0.1431 -0.6579,0.085 -0.89785,0.098 -1.32266,0.1959 -0.42474,0.098 -0.95239,0.2686 -1.60194,0.5092 -0.6495,0.2406 -1.4237,0.5559 -2.3477,0.9609 -0.924,0.4049 -1.4704,0.7599 -1.92224,1.0938 -0.45186,0.3338 -0.89032,0.6968 -1.31482,1.0881 -0.4245,0.3915 -0.8327,0.8134 -1.24158,1.2776 -0.40886,0.4641 -0.66556,0.876 -0.8352,1.2891 -0.16962,0.4132 -0.28266,0.8579 -0.35041,1.3356 -0.0678,0.4777 -0.10505,0.9914 -0.10305,1.5706 0.002,0.5792 0.1202,1.8367 0.402,2.9597 0.28174,1.1231 0.64734,2.1197 1.1014,2.9898 0.454,0.8702 1.0026,1.6103 1.63127,2.1787 0.62873,0.5683 0.99713,0.8229 1.45447,1.0749 0.45739,0.2522 1.00836,0.5116 1.66086,0.7859 0.6526,0.2743 1.41366,0.5584 2.3114,0.8733 0.8978,0.315 2.4667,0.631 3.7666,0.8555 1.2999,0.2245 2.3678,0.3666 3.2011,0.4348 0.83317,0.068 1.4301,0.065 1.6526,0.024 0.3543,-0.053 0.20987,-0.1814 0.3416,-0.1933 z"
           id="path445" />
      </g>
      <g
         style="fill:#000000;fill-opacity:1;stroke-linejoin:miter"
         id="g451"
         transform="rotate(90,259.41968,748.93978)">
        <path
           d="m 722.9257,1245.114 c 0.2781,-0.041 0.8252,-0.2408 1.4106,-0.5128 0.58545,-0.272 1.2021,-0.6211 1.85584,-1.0343 0.65381,-0.4132 1.34226,-0.8926 1.89221,-1.3621 0.54995,-0.4696 0.84745,-0.8517 1.11121,-1.2785 0.26364,-0.4268 0.48594,-0.8998 0.67194,-1.4146 0.18597,-0.5149 0.33984,-1.0699 0.4117,-1.8435 0.0719,-0.7737 -0.0438,-1.5095 -0.17446,-2.1846 -0.13068,-0.6751 -0.29654,-1.2883 -0.49488,-1.8403 -0.19836,-0.5521 -0.43182,-1.0434 -0.79492,-1.6576 -0.36314,-0.6141 -0.87194,-1.3819 -1.40491,-2.0633 -0.53303,-0.6814 -1.09593,-1.2681 -1.67877,-1.7598 -0.58282,-0.4918 -1.1817,-0.8854 -1.591,-1.1902 -0.40936,-0.3047 -0.40936,-0.3047 -0.1438,-0.093 0,0 0.50928,0.4488 0.93274,1.0221 0.42346,0.5732 0.8181,1.203 1.1937,1.8898 0.37564,0.6866 0.73,1.4372 1.07253,2.26 0.34247,0.8227 0.49762,1.2158 0.61687,1.641 0.1193,0.4251 0.21065,0.9183 0.2744,1.4786 0.0636,0.5604 0.0956,1.188 0.1295,1.8414 0.034,0.6535 -0.003,1.0481 -0.0833,1.5033 -0.0802,0.4551 -0.18786,0.8676 -0.31963,1.2395 -0.1318,0.372 -0.2919,0.7035 -0.4587,0.9766 -0.16673,0.2732 -0.73863,0.8596 -1.30406,1.4092 -0.56537,0.5497 -1.09394,1.0448 -1.59054,1.4819 -0.49656,0.4371 -0.96006,0.8212 -1.16044,1.0345 -0.43646,0.3302 -0.13782,0.3399 -0.37386,0.4567 z"
           id="path449" />
      </g>
      <g
         style="fill:#000000;fill-opacity:1;stroke-linejoin:miter"
         id="g455"
         transform="rotate(90,259.41968,748.93978)">
        <path
           d="m 718.2609,1196.9503 c -1.5204,-2.0908 -5.1241,-5.5983 -5.4953,-6.0157 -0.3712,-0.4174 -0.6931,-0.8184 -0.9488,-1.1889 -0.2557,-0.3705 -0.44595,-0.707 -0.57333,-1.0036 -0.12737,-0.2967 -0.22587,-0.6351 -0.41997,-1.0617 -0.1941,-0.4265 -0.3765,-0.8635 -0.55617,-1.3269 -0.17963,-0.4634 -0.35963,-0.952 -0.53263,-1.4679 -0.17305,-0.5158 -0.3482,-1.0586 -0.38595,-1.1903 -0.0376,-0.1317 -0.0702,-0.2717 -0.10015,-0.4194 -0.03,-0.1479 -0.0553,-0.3039 -0.0753,-0.468 -0.02,-0.1643 -0.0345,-0.3418 -0.0411,-0.4731 -0.007,-0.1312 -0.005,-0.3518 0.005,-0.6571 0.0102,-0.3054 0.0246,-0.6917 0.0466,-1.1572 0.0221,-0.4655 0.0448,-0.9625 0.1318,-1.4605 0.0871,-0.4979 0.16406,-0.9637 0.22375,-1.3735 0.0597,-0.4098 0.0985,-0.7647 0.12109,-1.0637 0.0227,-0.2991 0.0175,-0.486 0.19706,-1.1913 0.17965,-0.7053 0.1873,-0.784 0.1857,-0.865 -0.002,-0.081 -0.009,-0.1738 -0.0144,-0.2791 -0.005,-0.1053 -0.004,-0.2238 -0.005,-0.3196 -8.5e-4,-0.096 -8.5e-4,-0.096 -3e-4,-0.032 0,0 10e-4,0.1277 -0.002,0.2416 -0.003,0.1138 -0.0253,0.2125 -0.0481,0.296 -0.0227,0.083 -0.0461,0.1513 -0.25268,0.486 -0.20656,0.3348 -0.5979,0.9769 -0.68116,1.2375 -0.0832,0.2608 -0.18707,0.5478 -0.3135,0.8897 -0.12643,0.342 -0.2727,0.7396 -0.44504,1.1909 -0.17242,0.4513 -0.38061,1.0057 -0.49136,1.5425 -0.1106,0.5366 -0.20175,0.9767 -0.26975,1.3452 -0.068,0.3684 -0.1156,0.6669 -0.1452,0.9029 -0.0296,0.2361 -0.0398,0.4049 -0.0478,0.6164 -0.008,0.2114 -0.008,0.4215 3e-4,0.6279 0.008,0.2065 0.0257,0.4092 0.0539,0.6077 0.0282,0.1986 0.0641,0.3934 0.1803,0.9692 0.11614,0.5758 0.2478,1.1283 0.38244,1.6599 0.13465,0.5316 0.28003,1.0405 0.4337,1.5276 0.1537,0.4872 0.29836,0.9198 0.4886,1.3329 0.19025,0.4131 0.4598,0.8562 0.7892,1.2926 0.3294,0.4365 0.7172,0.8704 1.163,1.3059 0.44575,0.4355 0.9831,0.8962 3.2096,2.1604 4.1419,2.8893 2.31776,1.1564 4.2332,2.7816 z"
           id="path453" />
      </g>
      <g
         style="fill:#000000;fill-opacity:1;stroke-linejoin:miter"
         id="g459"
         transform="rotate(90,259.41968,748.93978)">
        <path
           d="m 710.82056,1175.0598 c 0.0591,0.02 0.18579,0.039 0.32519,0.053 0.13941,0.015 0.29151,0.027 0.45612,0.035 0.16463,0.01 0.34153,0.011 1.07343,-0.045 0.73187,-0.055 1.9868,-0.1916 2.1234,-0.2129 0.1366,-0.021 0.30726,-0.055 0.5083,-0.099 0.201,-0.043 0.4329,-0.1 0.6963,-0.17 0.26336,-0.071 0.51464,-0.1382 0.786,-0.1782 0.27137,-0.04 0.53596,-0.088 0.77204,-0.1334 0.23606,-0.046 0.4447,-0.089 0.6142,-0.1724 0.16956,-0.083 0.30916,-0.1416 0.51826,-0.2331 0.2091,-0.091 0.4513,-0.207 0.7194,-0.3505 0.2682,-0.1436 0.5625,-0.3179 0.88526,-0.521 0.32284,-0.2033 0.6452,-0.4187 0.94534,-0.5689 0.30015,-0.15 0.6146,-0.3181 0.9243,-0.4967 0.30974,-0.1786 0.6157,-0.365 0.91735,-0.5602 0.30165,-0.195 0.6084,-0.4051 0.93735,-0.7068 0.32907,-0.3015 0.32907,-0.3015 0.0898,-0.133 0,0 -0.53855,0.2391 -0.87531,0.3366 -0.33674,0.098 -0.67694,0.193 -1.01489,0.2862 -0.33795,0.093 -0.67499,0.1806 -1.00925,0.2683 -0.3343,0.088 -0.7041,0.1882 -1.0876,0.3411 -0.38356,0.1527 -0.71315,0.2758 -1.0021,0.3798 -0.2889,0.1042 -0.5352,0.19 -0.7394,0.2508 -0.20425,0.061 -0.3804,0.1014 -0.52017,0.1327 -0.13977,0.031 -0.31813,0.032 -0.51143,0.099 -0.1932,0.067 -0.41813,0.1409 -0.67344,0.2234 -0.25526,0.082 -0.58556,0.1873 -0.86683,0.3146 -0.28119,0.1273 -0.50753,0.2289 -0.69973,0.3143 -0.1922,0.085 -0.3502,0.152 -0.4718,0.197 -0.12156,0.045 -0.22043,0.075 -1.41623,0.4822 -1.19587,0.4074 -1.35177,0.4567 -1.51147,0.5028 -0.15974,0.046 -0.3086,0.087 -0.4469,0.1207 -0.13825,0.034 -0.266,0.061 -0.32575,0.082 -0.11775,0.02 -0.0617,0.1619 -0.11969,0.161 z"
           id="path457" />
      </g>
      <g
         style="fill:#000000;fill-opacity:1;stroke-linejoin:miter"
         id="g463"
         transform="rotate(90,259.41968,748.93978)">
        <path
           d="m 726.5488,1170.2244 c 0.8654,0.5072 2.6829,1.1589 2.7271,1.179 0.0442,0.02 0.1154,0.065 0.22264,0.1454 0.10726,0.08 0.24353,0.1935 0.40746,0.336 0.164,0.1425 0.32044,0.2882 0.8768,0.9123 0.5563,0.6242 0.9884,1.2064 1.30656,1.7354 0.31817,0.5289 0.51664,1.0056 0.61059,1.4215 0.094,0.4159 0.10205,0.8332 0.093,0.8211 -0.009,-0.012 -0.0228,0.043 -0.0435,0.1109 -0.0206,0.068 -0.0491,0.1496 -0.0862,0.2433 -0.037,0.094 -0.058,0.138 -0.2768,0.5533 -0.2189,0.4152 -0.4138,0.7941 -0.58,1.1267 -0.16624,0.3328 -0.30424,0.6205 -0.41526,0.8675 -0.11109,0.247 -0.20289,0.4797 -0.55064,1.5399 -0.3478,1.0602 -0.61373,1.9883 -0.8499,2.7723 -0.23606,0.7841 -0.44144,1.4223 -0.61594,1.9075 -0.17456,0.4853 -0.32176,0.8413 -0.37916,0.9655 -0.0574,0.1243 -0.1152,0.2375 -0.17346,0.3509 -0.0582,0.1134 -0.12114,0.2241 -0.19114,0.3315 -0.0701,0.1076 -0.0928,0.1543 -0.6549,0.7969 -0.56204,0.6425 -1.05636,1.2385 -1.4755,1.7807 -0.4191,0.5421 -0.7627,1.0314 -1.0372,1.4661 -0.2746,0.4347 -0.45547,0.7973 -0.62404,1.1399 -0.16866,0.3428 -0.33336,0.7909 -0.48096,1.3362 -0.1475,0.5452 -0.27796,1.191 -0.2997,1.7454 -0.0218,0.5544 -0.0218,0.5544 0.0853,0.2152 0,0 0.49174,-0.5874 0.7681,-1.1253 0.2763,-0.5378 0.51637,-0.9697 0.7251,-1.2872 0.2087,-0.3176 0.40784,-0.5519 0.6642,-0.8666 0.2564,-0.3147 0.58153,-0.6784 0.9951,-1.0924 0.4135,-0.4138 0.90424,-0.8847 1.4772,-1.4072 0.5729,-0.5223 1.2399,-1.1155 1.38707,-1.2859 0.14723,-0.1703 0.26226,-0.3162 0.37353,-0.4661 0.1113,-0.15 0.21643,-0.3048 0.3109,-0.467 0.0946,-0.1622 0.1748,-0.3127 0.407,-0.7478 0.2322,-0.4351 0.49615,-1.0072 0.7931,-1.7092 0.29686,-0.7021 0.62554,-1.5385 0.97997,-2.5135 0.35443,-0.9751 0.65967,-2.101 0.70788,-2.258 0.0483,-0.1571 0.12835,-0.3888 0.2356,-0.6787 0.10725,-0.2901 0.24091,-0.6359 0.40025,-1.0359 0.1594,-0.3999 0.35463,-0.876 0.41603,-1.0667 0.0615,-0.1906 0.10287,-0.3476 0.13623,-0.5029 0.0334,-0.1551 0.0579,-0.3087 0.0727,-0.4624 0.0149,-0.1537 0.0165,-0.4095 -0.1152,-1.0487 -0.1318,-0.6392 -0.4101,-1.2826 -0.80714,-1.9043 -0.3971,-0.6217 -0.90729,-1.2285 -1.53443,-1.8219 -0.62707,-0.5935 -1.3689,-1.1747 -1.61218,-1.3326 -0.24329,-0.158 -0.448,-0.2781 -0.63325,-0.3744 -0.18523,-0.096 -0.3524,-0.1731 -0.51446,-0.2298 -0.16211,-0.057 -0.27954,-0.077 -1.27104,-0.054 -1.92476,-0.1995 -1.02424,0.1603 -1.9575,-0.062 z"
           id="path461" />
      </g>
      <g
         style="fill:#000000;fill-opacity:1;stroke-linejoin:miter"
         id="g467"
         transform="rotate(90,259.41968,748.93978)">
        <path
           d="m 780.44006,1232.6823 c -0.1986,-0.1519 -0.64129,-0.4208 -1.11871,-0.7385 -0.47742,-0.3175 -0.99451,-0.6801 -1.54915,-1.0974 -0.5547,-0.4173 -1.1468,-0.8902 -2.0096,-1.6474 -0.8629,-0.7571 -2.04544,-1.8046 -3.2946,-2.8648 -1.2491,-1.0602 -2.5599,-2.1395 -3.9315,-3.2382 -1.3715,-1.0989 -2.8048,-2.2155 -3.53076,-2.7986 -0.72589,-0.583 -0.87024,-0.7963 -1.0072,-1.083 -0.13691,-0.2869 -0.26684,-0.6484 -0.38221,-1.087 -0.11543,-0.4386 -0.19848,-0.9565 -0.2605,-1.5844 -0.0619,-0.628 -0.0995,-1.3179 -0.12158,-1.9328 -0.0221,-0.6148 -0.0335,-1.1544 -0.0163,-1.6163 0.0172,-0.462 0.0606,-0.8428 0.2702,-1.4839 0.20954,-0.6411 0.59944,-1.677 0.92724,-2.5297 0.3278,-0.8526 0.59394,-1.5186 0.79584,-1.9876 0.20191,-0.4691 0.32563,-0.7144 1.8526,-3.3169 1.52706,-2.6024 4.39056,-7.6884 4.72266,-8.2285 0.3321,-0.5401 0.72955,-1.0602 1.20654,-1.564 0.47699,-0.5039 1.02881,-1.002 1.45386,-1.4337 0.425,-0.4318 0.425,-0.4318 0.0864,-0.2307 0,0 -0.8429,0.1417 -1.5221,0.5248 -0.67917,0.3831 -1.2842,0.8372 -1.8205,1.351 -0.5363,0.5138 -0.9808,1.0807 -4.422,5.7937 -3.44125,4.7129 -3.6044,4.9378 -3.8512,5.3645 -0.24685,0.4269 -0.54134,0.9995 -0.90303,1.7364 -0.36167,0.7368 -0.78272,1.6474 -1.2829,2.7634 -0.50017,1.1161 -0.67761,1.792 -0.76907,2.3756 -0.0914,0.5836 -0.1441,1.2155 -0.161,1.9 -0.0169,0.6845 0.0436,1.4212 0.13783,2.2266 0.0942,0.8053 0.229,1.5285 0.40757,2.1745 0.1787,0.6459 0.38784,1.2426 0.65237,1.7847 0.26446,0.5421 0.58728,1.027 1.02613,1.5039 0.4389,0.477 2.0248,1.5192 3.5106,2.503 1.4859,0.9836 2.9235,1.9334 4.30323,2.8632 1.37977,0.9298 2.71253,1.8251 4.0022,2.6981 1.28973,0.8731 2.02911,1.2996 2.70767,1.652 0.67856,0.3526 1.31864,0.6399 1.91477,0.8682 0.59613,0.2284 1.14973,0.3911 1.42603,0.4133 0.5045,0.1 0.322,-0.1114 0.55016,-0.034 z"
           id="path465" />
      </g>
      <g
         style="fill:#000000;fill-opacity:1;stroke-linejoin:miter"
         id="g471"
         transform="rotate(90,259.41968,748.93978)">
        <path
           d="m 768.5956,1230.6696 c 0.12584,-0.092 0.3461,-0.3378 0.5747,-0.6359 0.2286,-0.2982 0.46,-0.6504 0.69475,-1.0549 0.23475,-0.4045 0.47165,-0.861 0.60858,-1.1248 0.1369,-0.2637 0.24337,-0.5071 0.42054,-0.9469 0.17713,-0.4398 0.42693,-1.1001 0.74403,-1.9862 0.317,-0.8862 0.70354,-1.9983 1.0673,-3.1419 0.3638,-1.1436 0.6253,-2.1357 0.8522,-3.1185 0.22685,-0.9828 0.41886,-1.9565 0.5704,-2.9215 0.15156,-0.9651 0.2659,-1.9209 0.2851,-2.799 0.0192,-0.8782 0.0266,-1.7153 0.004,-2.527 -0.0225,-0.8118 -0.0763,-1.5982 -0.16071,-2.3586 -0.0845,-0.7602 -0.18935,-1.4952 -0.29195,-2.0529 -0.10264,-0.5579 -0.22166,-1.1064 -0.4116,-1.8123 -0.18994,-0.706 -0.44727,-1.578 -0.78455,-2.6171 -0.33725,-1.039 -0.76925,-2.2425 -1.19825,-3.4401 -0.42894,-1.1977 -0.8145,-2.305 -0.8357,-2.3743 -0.0212,-0.069 -0.0296,-0.1395 -0.0356,-0.2089 -0.006,-0.069 -0.0101,-0.1379 -0.0123,-0.1887 -0.002,-0.051 -0.002,-0.051 -7e-4,-0.017 0,0 0.003,0.068 0.008,0.1364 0.005,0.069 0.0113,0.1385 0.0134,0.21 0.002,0.072 4.3e-4,0.1459 0.034,1.3238 0.0336,1.178 0.2293,2.5778 0.41507,3.7709 0.18579,1.1931 0.33943,2.1989 0.46163,3.0149 0.1222,0.8161 0.2004,1.4413 0.2364,1.8798 0.036,0.4385 0.0843,1.123 0.10635,1.8121 0.0221,0.689 0.018,1.4018 -0.012,2.1384 -0.0299,0.7366 -0.0852,1.4975 -0.16945,2.2948 -0.0842,0.7974 -0.16605,1.7065 -0.20935,2.6101 -0.0432,0.9037 -0.1144,1.8252 -0.21496,2.7651 -0.10059,0.9398 -0.23389,1.8974 -0.3949,2.8678 -0.16094,0.9703 -0.43014,2.2581 -0.65164,3.3296 -0.22147,1.0714 -0.38956,1.9111 -0.50925,2.5164 -0.11965,0.6055 -0.19845,0.9693 -0.2356,1.095 -0.0371,0.1256 -0.17138,0.6515 -0.29931,1.1128 -0.12799,0.4612 -0.24994,0.8762 -0.37224,1.2435 -0.1223,0.3673 -0.2422,0.6896 -0.28377,0.8471 -0.12673,0.2747 0.0727,0.2406 -0.0124,0.3578 z"
           id="path469" />
      </g>
    </g>
  </g>
</svg>
