<?xml version="1.0" encoding="UTF-8" standalone="no"?>
<svg
   version="1.1"
   width="135.38521"
   height="135.38521"
   viewBox="0 0 135.38521 135.38521"
   id="svg1214"
   xmlns="http://www.w3.org/2000/svg"
   xmlns:svg="http://www.w3.org/2000/svg">
  <defs
     id="defs1218" />
  <g
     id="g7464"
     transform="translate(-554.21576,-428.23495)">
    <rect
       style="display:inline;opacity:0.5;fill:none;fill-opacity:1;stroke:none;stroke-width:2.66644;stroke-dasharray:none;stroke-opacity:1"
       id="rect5273"
       width="135.38521"
       height="135.38521"
       x="554.21576"
       y="428.23495" />
    <g
       id="g4364"
       transform="translate(-11.716348,-2.7744645)">
      <g
         style="fill:#000000;fill-opacity:1;stroke-linejoin:miter"
         id="g703"
         transform="rotate(90,259.41968,748.93978)">
        <path
           d="m -8.596642,432.0281 c -0.497697,-0.48513 -1.681227,-1.40273 -3.002853,-2.55178 -1.321626,-1.14902 -2.790358,-2.53692 -4.40308,-4.17872 -1.61272,-1.64175 -3.363062,-3.54726 -4.736133,-5.13454 -1.373074,-1.58728 -2.182972,-2.66663 -2.837902,-3.65506 -0.654933,-0.9884 -1.143056,-1.8878 -1.487618,-2.67627 -0.344562,-0.78846 -0.55884,-1.45865 -0.722111,-2.11509 -0.163271,-0.65644 -0.244356,-1.29226 -0.227348,-2.11901 0.01701,-0.82676 0.145733,-1.83237 0.386183,-3.00647 0.24045,-1.17411 0.602694,-2.5083 1.303926,-4.40689 0.701233,-1.89863 1.650076,-4.14652 2.513928,-6.09833 0.863853,-1.95178 1.641834,-3.61069 2.326725,-4.98926 0.68489,-1.3786 1.289865,-2.48298 1.787735,-3.11026 0.497867,-0.62729 0.497867,-0.62729 0.140796,-0.22986 0,0 -0.789617,0.73251 -1.742066,1.73258 -0.952447,1.00009 -1.969909,2.3334 -3.0508,3.98636 -1.080888,1.65295 -2.228918,3.61877 -3.454078,5.91046 -1.225159,2.29168 -1.837864,3.8233 -2.293921,5.1838 -0.456056,1.36051 -0.781583,2.60962 -0.967619,3.7576 -0.186035,1.14798 -0.231119,2.20426 -0.127834,3.12348 0.103287,0.91922 0.261572,1.79968 0.643578,2.7904 0.382004,0.99072 0.931705,1.9989 1.639954,3.03488 0.708245,1.03601 1.572906,2.10623 2.593684,3.23413 1.020781,1.12793 3.08647,3.08719 5.0084,4.76368 1.921931,1.67647 3.708584,3.07677 5.357822,4.1972 1.649237,1.12039 3.162205,1.94849 3.923531,2.16742 1.364706,0.5162 0.823722,0.0922 1.427101,0.38955 z"
           id="path701" />
      </g>
      <g
         style="fill:#000000;fill-opacity:1;stroke-linejoin:miter"
         id="g707"
         transform="rotate(90,259.41968,748.93978)">
        <path
           d="m -27.645285,356.01752 c -0.312187,-0.29715 -0.972402,-0.81672 -1.602585,-1.40862 -0.630182,-0.59193 -1.237937,-1.26152 -1.818534,-2.0246 -0.580597,-0.76313 -1.145536,-1.61482 -1.579476,-2.46858 -0.433943,-0.85376 -0.76852,-1.80197 -1.080637,-2.87592 -0.312123,-1.0739 -0.587013,-2.27938 -0.830391,-3.61443 -0.243372,-1.33507 -0.450004,-2.80077 -0.619636,-4.27131 -0.169632,-1.47052 -0.279572,-2.88961 -0.343163,-4.16366 -0.06359,-1.27405 -0.08138,-2.4024 -0.04698,-3.38303 0.0344,-0.98062 0.11222,-1.81213 0.203966,-2.44367 0.09175,-0.63152 0.232078,-1.2257 0.509784,-2.04388 0.277707,-0.81814 0.689206,-1.84436 1.207623,-3.08435 0.518413,-1.23997 1.11565,-2.70857 1.693399,-3.87085 0.57775,-1.16226 0.57775,-1.16226 0.134718,-0.42147 0,0 -1.059658,1.37933 -1.96379,2.59899 -0.904133,1.21966 -1.61341,2.30386 -2.145726,3.24596 -0.532314,0.9421 -0.905247,1.74187 -1.11829,2.3883 -0.213044,0.6464 -0.433819,1.4455 -0.611492,2.41515 -0.177672,0.96967 -0.306522,2.07553 -0.388405,3.31983 -0.08188,1.24432 -0.117597,2.62832 -0.106957,4.18597 0.01064,1.55768 0.332654,3.21552 0.689236,4.68527 0.356587,1.46976 0.755707,2.80933 1.18673,4.02128 0.431026,1.2119 0.89505,2.29666 1.414436,3.2672 0.51939,0.97056 1.256628,1.9118 1.996193,2.70533 0.739565,0.79352 1.50799,1.46591 2.296305,2.01787 0.788315,0.55195 1.599085,0.97053 2.042505,1.07277 0.821535,0.27843 0.503058,-0.0258 0.88117,0.15045 z"
           id="path705" />
      </g>
      <g
         style="fill:#000000;fill-opacity:1;stroke-linejoin:miter"
         id="g711"
         transform="rotate(90,259.41968,748.93978)">
        <path
           d="m 12.327683,344.65076 c -0.06451,0.11996 -0.26745,0.69714 -0.40156,1.10074 -0.13411,0.4036 -0.234748,0.6139 -0.47299,1.1559 -0.238242,0.542 -0.328657,0.74342 -0.525772,1.0873 -0.197115,0.3439 -0.485069,0.84575 -0.597231,1.01464 -0.112164,0.16891 -0.447602,0.62723 -0.670086,0.93582 -0.222486,0.30859 -0.353702,0.44507 -0.733403,0.85599 -0.379701,0.41089 -0.502633,0.54568 -0.7812505,0.78277 -0.2786185,0.23712 -0.6941171,0.60111 -0.8338795,0.70048 -0.1397624,0.0994 -0.5968246,0.40124 -0.89151,0.60006 -0.2946853,0.19884 -0.442227,0.26642 -0.9285598,0.51077 -0.4863328,0.24437 -0.6255342,0.31287 -0.9566692,0.42374 -0.3311354,0.11087 -0.8449286,0.28821 -0.9881783,0.32251 -0.14325,0.0343 -0.6786394,0.14014 -1.0145667,0.20904 -0.3359272,0.0689 -0.4802864,0.0706 -1.0312427,0.10448 -0.5509564,0.0339 -0.68659683,0.0408 -1.0384099,0.009 -0.35181306,-0.0322 -0.91371186,-0.0749 -1.04829634,-0.098 -0.13458446,-0.0231 -0.68459446,-0.1458 -1.02453966,-0.22388 -0.3399452,-0.0781 -0.4560989,-0.13 -0.9715214,-0.32732 -0.5154227,-0.19733 -0.6330808,-0.24406 -0.9241503,-0.408 -0.2910695,-0.16394 -0.7727754,-0.41934 -0.8736417,-0.4882 -0.100867,-0.0688 -0.532433,-0.3991 -0.800961,-0.5949 -0.268528,-0.1958 -0.352453,-0.2848 -0.74357,-0.66272 -0.3911165,-0.3779 -0.4809875,-0.46008 -0.6863417,-0.72552 -0.2053543,-0.26544 -0.5446913,-0.69443 -0.6118207,-0.79796 -0.067129,-0.10356 -0.3581476,-0.5723 -0.5344162,-0.86006 -0.176269,-0.28772 -0.2241684,-0.40576 -0.4538574,-0.91454 -0.22969,-0.50877 -0.279694,-0.6221 -0.380252,-0.95485 -0.100558,-0.33275 -0.270215,-0.87295 -0.299406,-0.99715 -0.029192,-0.1242 -0.12731,-0.69202 -0.192692,-1.03696 -0.065382,-0.34498 -0.067807,-0.47919 -0.099054,-1.06674 -0.031248,-0.58756 -0.040807,-0.71546 -0.013556,-1.08543 0.027252,-0.36997 0.066949,-0.97241 0.074278,-1.10769 0.00733,-0.13528 0.102373,-0.73148 0.158043,-1.09873 0.055669,-0.36728 0.092316,-0.49127 0.253901,-1.05703 0.161585,-0.56577 0.194055,-0.69699 0.331314,-1.02076 0.137257,-0.32376 0.365512,-0.85263 0.421497,-0.96846 0.055986,-0.11583 0.337983,-0.60688 0.5093037,-0.91023 0.1713209,-0.30334 0.2491693,-0.4014 0.5843883,-0.84777 0.3352184,-0.44642 0.4091043,-0.55204 0.645388,-0.794 0.236284,-0.24202 0.6241013,-0.63447 0.7136723,-0.72145 0.089571,-0.087 0.5173757,-0.42775 0.7784237,-0.63922 0.261048,-0.21149 0.3659845,-0.2756 0.8302687,-0.55903 0.4642841,-0.28338 0.5663657,-0.35415 0.871299,-0.48842 0.3049335,-0.13428 0.8020005,-0.35312 0.9171815,-0.39848 0.1151808,-0.0454 0.6396693,-0.19488 0.9610198,-0.29034 0.3213505,-0.0955 0.44878554,-0.11279 0.99514973,-0.19049 0.54636422,-0.0777 0.67321813,-0.10562 1.02312333,-0.10627 0.34990514,-6.6e-4 0.91340844,0.002 1.05270214,0.006 0.139294,0.004 0.6963416,0.0885 1.0479713,0.13511 0.3516297,0.0466 0.48525,0.0835 1.0149295,0.2388 0.52968,0.15536 0.673337,0.18853 0.986731,0.33108 0.3133937,0.14255 0.8114014,0.36578 0.9458066,0.43237 0.1344054,0.0666 0.5959544,0.35355 0.8952634,0.53595 0.2993086,0.18241 0.423048,0.28043 0.843759,0.62583 0.420711,0.3454 0.55426,0.44345 0.800456,0.7022 0.246196,0.2588 0.622024,0.65696 0.737444,0.78776 0.115419,0.1308 0.446045,0.57379 0.668219,0.86709 0.222176,0.29331 0.315667,0.45438 0.596751,0.93833 0.281083,0.48395 0.384078,0.64842 0.53335,1.00072 0.149271,0.3523 0.381012,0.87147 0.458085,1.06492 0.07707,0.19342 0.248051,0.74631 0.371085,1.12714 0.123033,0.38084 0.171286,0.60318 0.296835,1.18354 0.125547,0.58037 0.181522,0.81612 0.228985,1.24395 0.04746,0.42779 0.08149,1.03387 0.07512,1.16308 -0.0064,0.12917 -0.0064,0.12917 -0.0064,0.12917 0,0 0,0 0,0 0,0 0,0 0,0 0,0 0.01275,-0.25838 0.123803,-0.85732 0.111054,-0.5989 0.162403,-0.86788 0.190758,-1.29785 0.02836,-0.42999 0.06094,-1.02243 0.05285,-1.29986 -0.0081,-0.27744 -0.06491,-0.85361 -0.111496,-1.2829 -0.04659,-0.42927 -0.11239,-0.70291 -0.247937,-1.25457 -0.135547,-0.5517 -0.21369,-0.82945 -0.36686,-1.22376 -0.15317,-0.39434 -0.360663,-0.91384 -0.489689,-1.17517 -0.129026,-0.26137 -0.398559,-0.74399 -0.608431,-1.11371 -0.209872,-0.36972 -0.388702,-0.60576 -0.718153,-1.04312 C 9.915054,333.54996 9.727051,333.3132 9.429499,333.01254 9.1319475,332.71188 8.750224,332.32367 8.517155,332.12225 8.284084,331.9208 7.853132,331.58966 7.510273,331.33063 7.1674137,331.07156 6.891596,330.9158 6.4156313,330.64902 5.9396667,330.38223 5.6540685,330.22833 5.244856,330.06885 4.835644,329.90933 4.3209014,329.71008 3.999492,329.614 3.6780825,329.5179 3.1283891,329.39365 2.6852787,329.2976 2.2421682,329.2015 1.8998836,329.17227 1.338058,329.12732 c -0.5618256,-0.045 -0.90795598,-0.063 -1.35507998,-0.0354 -0.44712404,0.0276 -0.99760302,0.0666 -1.33656122,0.11841 -0.3389583,0.0517 -0.8721628,0.16632 -1.3054415,0.26317 -0.4332791,0.0969 -0.7547269,0.21363 -1.2651625,0.3993 -0.5104358,0.18564 -0.8293361,0.30936 -1.2220168,0.5148 -0.3926806,0.20545 -0.8745623,0.45758 -1.1656275,0.63907 -0.2910655,0.18149 -0.7358855,0.49967 -1.0980882,0.75986 -0.3622023,0.26019 -0.6181873,0.49357 -1.0231933,0.86827 -0.405007,0.37465 -0.654848,0.6172 -0.948453,0.96352 -0.293605,0.34631 -0.653465,0.77301 -0.861186,1.05923 -0.20772,0.28625 -0.514904,0.7619 -0.764011,1.15189 -0.249109,0.38998 -0.405155,0.71621 -0.654902,1.23536 -0.249748,0.51912 -0.401169,0.85286 -0.551077,1.30764 -0.149908,0.45474 -0.339275,1.0119 -0.432283,1.3764 -0.09301,0.36446 -0.207667,0.95721 -0.306127,1.44049 -0.09846,0.48327 -0.116915,0.86524 -0.136716,1.46867 -0.0198,0.6034 -0.0305,0.98272 0.01282,1.4629 0.04332,0.48017 0.102402,1.06562 0.157258,1.42988 0.05485,0.36429 0.179276,0.92667 0.285302,1.38394 0.106026,0.45728 0.221574,0.79853 0.41522,1.3306 0.193646,0.53204 0.315101,0.8671 0.521223,1.2742 0.206122,0.4071 0.463486,0.9025 0.638834,1.20544 0.175348,0.30294 0.489643,0.75654 0.743508,1.12772 0.253865,0.37122 0.480896,0.63315 0.84777,1.03888 0.366874,0.4057 0.598208,0.66168 0.931095,0.95534 0.332888,0.29368 0.7468046,0.64653 1.0183605,0.8567 0.2715565,0.21018 0.7269139,0.50608 1.1018982,0.74314 0.3749847,0.23703 0.6836128,0.38903 1.1763703,0.62258 0.492757,0.23356 0.8057207,0.37891 1.2355545,0.50918 0.4298339,0.13032 0.9578479,0.2906 1.2954009,0.3706 0.337553,0.08 0.8957961,0.1584 1.3454684,0.2259 0.4496723,0.0675 0.79529023,0.0771 1.35891056,0.0771 0.56362039,0 0.90394849,0.002 1.34427274,-0.059 0.4403242,-0.061 0.9864309,-0.14181 1.3075104,-0.20727 0.3210795,-0.0654 0.8439638,-0.22136 1.2582581,-0.34619 0.4142944,-0.12482 0.7066726,-0.25147 1.2003734,-0.47864 0.4937007,-0.2272 0.776941,-0.35617 1.140034,-0.58228 0.3630924,-0.22607 0.8229327,-0.51727 1.071121,-0.69365 0.248189,-0.17643 0.6688825,-0.52665 0.991418,-0.80104 0.322536,-0.27436 0.528216,-0.49343 0.901229,-0.901 0.373012,-0.40756 0.574492,-0.62246 0.819294,-0.97363 0.2448,-0.35113 0.564258,-0.81015 0.71809,-1.05728 0.153833,-0.24713 0.413099,-0.75208 0.606433,-1.1329 0.193334,-0.38083 0.295132,-0.65192 0.484666,-1.19835 0.189534,-0.5464 0.28197,-0.8124 0.368084,-1.24282 0.08611,-0.43042 0.191813,-1.01345 0.223823,-1.28973 0.03201,-0.27628 0.04779,-0.88647 0.03016,-1.19608 0.0048,-0.43697 -0.15667,-0.33413 -0.134202,-0.46151 z"
           id="path709" />
      </g>
      <g
         style="fill:#000000;fill-opacity:1;stroke-linejoin:miter"
         id="g715"
         transform="rotate(90,259.41968,748.93978)">
        <path
           d="m 6.7187104,392.6555 c 0.1187356,0.0157 0.6565236,0.003 1.0294976,-0.0101 0.3729735,-0.0129 0.575407,0.006 1.096375,0.0407 0.520967,0.0343 0.712053,0.0475 1.055678,0.11438 0.343624,0.0669 0.848407,0.15072 1.019224,0.19696 0.170818,0.0462 0.654924,0.19357 0.977434,0.29205 0.322511,0.0985 0.472553,0.17197 0.93365,0.37048 0.461098,0.19852 0.608151,0.26365 0.889689,0.43702 0.281538,0.17335 0.715577,0.4215 0.840775,0.51117 0.1252,0.0897 0.524423,0.39068 0.780169,0.5903 0.255745,0.19961 0.356676,0.31021 0.715778,0.66031 0.359102,0.35007 0.460945,0.45083 0.660599,0.70739 0.199654,0.25658 0.513224,0.65226 0.589711,0.76972 0.07648,0.11749 0.338689,0.55551 0.503892,0.83276 0.165203,0.27725 0.214502,0.40888 0.420412,0.88532 0.205912,0.47641 0.260445,0.59728 0.349518,0.92108 0.08907,0.32376 0.237715,0.8337 0.261778,0.96603 0.02406,0.13233 0.102487,0.65772 0.151247,0.98563 0.04876,0.32791 0.04469,0.45242 0.05247,0.97114 0.0078,0.5187 0.0076,0.64238 -0.03102,0.95433 -0.03866,0.31192 -0.09604,0.81882 -0.122265,0.93171 -0.02623,0.11286 -0.15053,0.60189 -0.224167,0.90186 -0.07364,0.29992 -0.117149,0.40246 -0.301244,0.86864 -0.184096,0.46622 -0.225623,0.56763 -0.371914,0.8342 -0.146293,0.26656 -0.384049,0.70584 -0.443838,0.79376 -0.05979,0.0879 -0.348277,0.49564 -0.524506,0.74027 -0.176229,0.24466 -0.253267,0.31607 -0.596733,0.68097 -0.343466,0.3649 -0.410566,0.43893 -0.645683,0.63066 -0.235117,0.19173 -0.620998,0.5165 -0.703235,0.5713 -0.08224,0.0548 -0.51202,0.3293 -0.7679,0.49076 -0.25588,0.16146 -0.349667,0.19894 -0.820608,0.4161 -0.470941,0.21717 -0.55554,0.25944 -0.859972,0.348 -0.304433,0.0886 -0.810726,0.2481 -0.905053,0.28074 -0.09433,0.0326 -0.612749,0.1474 -0.922961,0.2149 -0.310212,0.0675 -0.405629,0.072 -0.922659,0.1126 -0.517029,0.0406 -0.618488,0.0573 -0.921131,0.0392 -0.302643,-0.0181 -0.8121855,-0.0419 -0.912217,-0.0499 -0.1000357,-0.008 -0.5953074,-0.10344 -0.89477,-0.15641 -0.2994635,-0.053 -0.3957154,-0.0854 -0.8731005,-0.23773 C 5.804245,412.1115 5.702397,412.08298 5.4287586,411.95508 5.1551204,411.8272 4.7018433,411.617 4.605507,411.56863 4.50917,411.52026 4.0863047,411.25424 3.8261445,411.09457 3.5659842,410.9349 3.4798625,410.8641 3.0930994,410.5454 2.7063363,410.22675 2.6146607,410.15982 2.402852,409.93372 2.1910436,409.7076 1.8461636,409.33936 1.7692149,409.25067 1.6922662,409.16196 1.3929191,408.7488 1.2043945,408.49585 1.0158699,408.24292 0.954481,408.13315 0.706607,407.6773 c -0.2478741,-0.45583 -0.3165021,-0.56338 -0.4321209,-0.87536 -0.11561879,-0.31198 -0.30525664,-0.80826 -0.35055038,-0.93768 -0.04529374,-0.12946 -0.16407532,-0.64719 -0.24574138,-0.97443 -0.0816661,-0.32723 -0.0968758,-0.462 -0.14606377,-0.97858 -0.049188,-0.51655 -0.0703417,-0.65808 -0.0611827,-0.98199 0.009159,-0.32391 0.0246077,-0.83414 0.0344933,-0.97656 0.009886,-0.1424 0.0836187,-0.6423 0.13462511,-0.96472 0.0510064,-0.32245 0.0885026,-0.46388 0.22820849,-0.94568 0.13970594,-0.48178 0.17845196,-0.6294 0.30627492,-0.92923 0.12782295,-0.29984 0.32327562,-0.76047 0.39053496,-0.9029 0.0672594,-0.14242 0.31960426,-0.57455 0.48307705,-0.86397 0.1634729,-0.2894 0.2598987,-0.42323 0.5629226,-0.8238 0.303024,-0.40054 0.4013771,-0.54117 0.6337525,-0.7892 0.2323754,-0.24806 0.578651,-0.61794 0.7095566,-0.7453 0.1309056,-0.12733 0.5261246,-0.45357 0.7932834,-0.6864 0.2671586,-0.23277 0.4316288,-0.34523 0.8645807,-0.63976 0.4329519,-0.29449 0.6073279,-0.41724 0.9421515,-0.59381 0.334824,-0.17653 0.8236003,-0.38867 0.9315014,-0.42463 0.1079006,-0.036 0.1079006,-0.036 0.1079006,-0.036 0,0 0,0 0,0 0,0 0,0 0,0 0,0 -0.2158017,0.0719 -0.740567,0.17609 -0.524766,0.10415 -0.762566,0.14584 -1.124507,0.26193 -0.361941,0.11612 -0.8583778,0.28128 -1.0852672,0.3783 -0.2268894,0.097 -0.6845882,0.32975 -1.0221468,0.51177 -0.3375584,0.18208 -0.541765,0.33103 -0.9538633,0.62586 -0.4120983,0.2948 -0.618648,0.45346 -0.88973569,0.72082 -0.2710876,0.2674 -0.63261838,0.6164 -0.80839402,0.8148 -0.17577563,0.1984 -0.48361835,0.59298 -0.71799068,0.89925 -0.23437236,0.30628 -0.37049821,0.54078 -0.62480401,0.97175 -0.2543058,0.431 -0.3868589,0.67413 -0.5374459,1.0335 -0.1505871,0.35938 -0.341341,0.8232 -0.4318384,1.09223 -0.090498,0.26907 -0.213974,0.75833 -0.3168935,1.14294 -0.1029193,0.38463 -0.1394047,0.6752 -0.2051661,1.1814 -0.065761,0.50623 -0.097696,0.8042 -0.095264,1.21481 0.00243,0.41062 0.011499,0.92932 0.037843,1.2385 0.026344,0.30917 0.1012047,0.83522 0.1662636,1.2547 0.065059,0.41949 0.1519797,0.72542 0.300622,1.23538 0.1486425,0.50994 0.2457371,0.81561 0.4139676,1.19864 0.1682307,0.38305 0.3765273,0.8583 0.5272906,1.1375 0.1507631,0.27918 0.4156259,0.71543 0.63567081,1.06596 0.2200448,0.35052 0.42067647,0.59524 0.74049494,0.98538 0.31981848,0.39014 0.52593774,0.6312 0.82361829,0.91136 0.29768047,0.28014 0.66261456,0.62364 0.90920166,0.82332 0.2465869,0.19965 0.6509945,0.49295 0.9847466,0.73074 0.3337522,0.2378 0.6147063,0.39121 1.0530622,0.6308 0.438356,0.2396 0.7264352,0.38678 1.1117178,0.53404 0.3852827,0.14724 0.8520441,0.32958 1.1662344,0.42266 0.3141903,0.0931 0.8042743,0.21246 1.2125573,0.30591 0.4082833,0.0934 0.7408343,0.13098 1.248034,0.18487 0.5072,0.0539 0.846493,0.0833 1.276703,0.0711 0.4302088,-0.0122 0.9487658,-0.0233 1.2960758,-0.0617 0.347311,-0.0384 0.870532,-0.1282 1.308946,-0.19543 0.438415,-0.0672 0.77606,-0.1792 1.275586,-0.35907 0.499525,-0.17987 0.831058,-0.29871 1.218861,-0.49381 0.387803,-0.19506 0.846306,-0.43744 1.140964,-0.61169 0.294656,-0.17427 0.710052,-0.47022 1.055771,-0.71405 0.345718,-0.24382 0.596372,-0.46602 0.96747,-0.80756 0.371099,-0.34152 0.614553,-0.56448 0.882244,-0.8819 0.26769,-0.31744 0.586382,-0.70426 0.779175,-0.96502 0.192791,-0.26078 0.46047,-0.68256 0.681533,-1.02844 0.221064,-0.34586 0.362605,-0.63453 0.576272,-1.086 0.213668,-0.45145 0.348255,-0.7414 0.471654,-1.13306 0.1234,-0.39166 0.276961,-0.86864 0.359015,-1.17596 0.08205,-0.30735 0.171141,-0.80393 0.240698,-1.20938 0.06956,-0.40546 0.08951,-0.72413 0.113348,-1.23368 0.02383,-0.50958 0.03869,-0.82825 0.0019,-1.24652 -0.03674,-0.41824 -0.0813,-0.93503 -0.127344,-1.253 -0.04605,-0.31798 -0.166597,-0.83535 -0.262011,-1.25045 -0.09541,-0.4151 -0.204442,-0.71643 -0.393493,-1.21292 -0.189053,-0.49646 -0.299416,-0.79175 -0.495114,-1.15813 -0.195695,-0.36637 -0.447086,-0.8205 -0.607563,-1.0776 -0.160478,-0.2571 -0.464639,-0.667 -0.704223,-0.991 -0.239586,-0.32402 -0.439207,-0.5394 -0.790333,-0.90218 -0.351128,-0.36272 -0.550251,-0.57022 -0.856506,-0.81792 -0.306258,-0.24775 -0.69919,-0.55946 -0.929133,-0.71946 -0.229942,-0.16 -0.661657,-0.41287 -0.993773,-0.61214 -0.332116,-0.19932 -0.582258,-0.31215 -1.042983,-0.50746 -0.460727,-0.19534 -0.707496,-0.30204 -1.078024,-0.40874 -0.370529,-0.10676 -0.854173,-0.2413 -1.112587,-0.29576 -0.258414,-0.0544 -0.76016,-0.11908 -1.139468,-0.16654 -0.379306,-0.0475 -0.639393,-0.0485 -1.151426,-0.0415 -0.5120328,0.007 -0.7644508,0.0133 -1.1481528,0.0731 -0.3837015,0.0597 -0.897758,0.15554 -1.137302,0.21564 -0.239543,0.0601 -0.7457496,0.2395 -0.9948407,0.3504 -0.360837,0.13205 -0.222784,0.2496 -0.3345299,0.2708 z"
           id="path713" />
      </g>
      <g
         style="fill:#000000;fill-opacity:1;stroke-linejoin:miter"
         id="g719"
         transform="rotate(90,259.41968,748.93978)">
        <path
           d="m 35.4234,389.5547 c -0.2516,-0.4405 -0.814406,-1.3982 -1.324927,-2.66096 -0.510523,-1.26279 -0.973366,-2.85211 -1.387711,-4.77984 -0.414342,-1.9277 -0.786255,-4.19642 -0.973278,-5.6429 -0.187024,-1.44646 -0.228584,-1.8415 -0.265121,-2.24593 -0.03654,-0.40442 -0.06449,-0.81867 -0.08791,-1.24219 -0.02342,-0.42352 -0.0446,-0.85623 -0.05314,-1.60458 -0.0085,-0.7484 -0.117187,-1.87323 -0.22188,-3.0452 -0.104692,-1.17197 -0.223136,-2.39026 -0.355329,-3.65494 -0.132191,-1.26466 -0.282434,-2.57538 -0.370302,-3.3136 -0.08787,-0.73819 -0.118345,-1.05551 -0.163927,-1.68166 -0.04558,-0.62617 -0.111054,-1.54667 -0.200825,-2.75846 -0.08977,-1.21176 -0.229912,-2.71417 -0.331181,-3.62299 -0.10127,-0.90878 -0.119844,-1.0506 -0.141426,-1.23485 -0.02158,-0.1843 -0.04811,-0.4102 -0.07739,-0.6772 -0.02928,-0.267 -0.06496,-0.57504 -0.0855,-0.7531 -0.02054,-0.1781 -0.02711,-0.21888 -0.04088,-0.28663 -0.01378,-0.0677 -0.03472,-0.1637 -0.05088,-0.28903 -0.01616,-0.12534 -0.02591,-0.28028 -0.03441,-0.41104 -0.0085,-0.1308 -0.0085,-0.1308 -0.0028,-0.0436 0,0 0.01133,0.17436 0.02029,0.3196 0.009,0.14523 -0.002,0.26227 -0.01221,0.34964 -0.01016,0.0874 -0.0179,0.14456 -0.02316,0.17106 -0.0053,0.0265 -0.07581,0.35714 -0.133591,0.6488 -0.05778,0.29165 -0.104639,0.54433 -0.141615,0.75832 -0.03698,0.21398 -0.06276,0.38981 -0.08005,0.52448 -0.01729,0.13467 -0.210964,1.83023 -0.333042,3.2377 -0.122076,1.40744 -0.196525,2.5265 -0.243793,3.35843 -0.04727,0.83194 -0.06935,1.38055 -0.07026,1.65189 -9.1e-4,0.2713 0.01462,1.61608 0.02643,2.91384 0.01181,1.29776 0.02843,2.54676 0.04229,3.74741 0.01386,1.20063 0.02321,2.35297 0.06479,3.46338 0.04158,1.11045 0.0921,1.60083 0.150612,2.05682 0.05851,0.45603 0.120529,0.90287 0.191582,1.33997 0.07105,0.43706 0.147999,0.86478 0.231191,1.28912 0.08319,0.42432 0.668391,2.93878 1.308894,5.12018 0.640502,2.18143 1.342453,4.01062 2.109863,5.47983 0.767415,1.46921 1.598045,2.56673 2.094501,2.92935 0.872714,0.6947 0.589886,0.25674 0.966144,0.58888 z"
           id="path717" />
      </g>
      <g
         style="fill:#000000;fill-opacity:1;stroke-linejoin:miter"
         id="g723"
         transform="rotate(90,259.41968,748.93978)">
        <path
           d="m 30.686224,352.2376 c 0.550537,0.39778 1.756613,0.96406 8.795092,3.15235 7.038474,2.18827 7.411308,2.32038 7.790878,2.46241 0.379574,0.14204 0.71756,0.27754 1.011346,0.40894 0.29378,0.13137 0.54108,0.25884 0.765692,0.39278 0.224614,0.13394 0.686131,0.3978 1.069448,0.68759 0.383315,0.28977 0.756972,0.63379 1.12189,1.03699 0.364918,0.40324 0.711094,0.87624 1.070602,1.4372 0.359505,0.56097 0.570096,0.86884 0.726754,1.16699 0.156654,0.29819 0.320664,0.68185 0.489694,1.14538 0.169024,0.46357 0.337157,1.00583 0.488108,1.54029 0.150952,0.53445 0.409695,2.05932 0.491682,3.48703 0.08199,1.4277 0.0035,2.73901 -0.238077,3.94122 -0.241593,1.20221 -0.642313,2.30487 -1.213483,3.33966 -0.57117,1.03479 -2.241923,3.50187 -3.808932,5.5297 -1.567013,2.02787 -3.035658,3.63244 -4.408051,4.8319 -1.372391,1.19944 -2.666603,2.01395 -3.632622,2.46381 -0.966022,0.44989 -0.966022,0.44989 -0.281269,0.25756 0,0 1.491734,-0.0618 3.09882,-0.7625 1.607086,-0.70063 3.311802,-1.8885 5.105888,-3.533 1.794086,-1.6445 3.672364,-3.7399 5.064614,-5.5057 1.392252,-1.7658 2.142122,-3.03732 2.681114,-4.4406 0.538998,-1.40327 0.87466,-2.9227 1.007595,-4.5484 0.132933,-1.62568 0.06774,-3.35243 -0.156231,-4.6993 -0.223972,-1.3469 -0.450279,-2.0195 -0.688881,-2.6308 -0.238601,-0.6113 -0.491691,-1.16292 -0.760299,-1.65935 -0.268606,-0.49643 -0.555394,-0.94287 -0.887146,-1.40565 -0.331753,-0.4628 -0.80711,-1.09304 -1.321267,-1.6533 -0.514153,-0.56026 -1.052257,-1.06196 -1.628523,-1.48744 -0.576265,-0.42551 -1.180273,-0.78236 -1.59113,-0.987 -0.41086,-0.20462 -0.743233,-0.35516 -1.1022,-0.49948 -0.358967,-0.14432 -0.747734,-0.28192 -1.169304,-0.4111 -0.421566,-0.12918 -0.8759,-0.2536 -4.756776,-1.01498 -3.880874,-0.7614 -11.15878,-1.94016 -11.81762,-1.95866 -1.273693,-0.21874 -0.702547,0.1157 -1.317406,-0.0845 z"
           id="path721" />
      </g>
    </g>
  </g>
</svg>
