<?xml version="1.0" encoding="UTF-8" standalone="no"?>
<!-- Created with Inkscape (http://www.inkscape.org/) -->

<svg
   width="225.95694mm"
   height="186.00447mm"
   viewBox="0 0 225.95694 186.00447"
   version="1.1"
   id="svg5"
   xml:space="preserve"
   xmlns="http://www.w3.org/2000/svg"
   xmlns:svg="http://www.w3.org/2000/svg"><defs
     id="defs2" /><g
     id="layer1"
     transform="translate(-69.038539,-1014.4707)"><g
       id="g3593"
       style="display:inline;stroke:#000000;stroke-width:5.12544;stroke-dasharray:none;stroke-opacity:1"
       transform="matrix(1.0324314,0,0,1.0324314,-185.10751,430.4529)"><path
         style="font-variation-settings:normal;opacity:1;fill:none;fill-opacity:1;stroke:#000000;stroke-width:5.12544;stroke-linecap:butt;stroke-linejoin:miter;stroke-miterlimit:4;stroke-dasharray:none;stroke-dashoffset:0;stroke-opacity:1;stop-color:#000000;stop-opacity:1"
         d="m 248.47713,617.97726 c 0,0 16.9549,-35.66377 54.9573,-29.2326 38.00239,6.43115 29.23259,-14.61632 30.40192,-12.2777"
         id="path3441" /><path
         style="font-variation-settings:normal;opacity:1;fill:none;fill-opacity:1;stroke:#000000;stroke-width:5.12544;stroke-linecap:butt;stroke-linejoin:miter;stroke-miterlimit:4;stroke-dasharray:none;stroke-dashoffset:0;stroke-opacity:1;stop-color:#000000;stop-opacity:1"
         d="m 381.77782,566.52786 c 0,0 9.93907,28.0633 54.37264,18.12423 0,0 25.72469,-0.58465 26.30934,22.21678"
         id="path3443" /><path
         style="font-variation-settings:normal;opacity:1;fill:none;fill-opacity:1;stroke:#000000;stroke-width:5.12544;stroke-linecap:butt;stroke-linejoin:miter;stroke-miterlimit:4;stroke-dasharray:none;stroke-dashoffset:0;stroke-opacity:1;stop-color:#000000;stop-opacity:1"
         d="m 407.50251,632.0089 c 0,0 14.6163,2.3386 16.37025,4.67723 0,0 10e-6,25.72469 -15.20095,30.40191 -15.20095,4.67721 -26.30934,-27.47865 -26.30934,-27.47865"
         id="path3445" /><path
         style="font-variation-settings:normal;opacity:1;fill:none;fill-opacity:1;stroke:#000000;stroke-width:5.12544;stroke-linecap:butt;stroke-linejoin:miter;stroke-miterlimit:4;stroke-dasharray:none;stroke-dashoffset:0;stroke-opacity:1;stop-color:#000000;stop-opacity:1"
         d="m 318.63538,624.99308 c 0,0 11.10839,-1.1693 7.6005,16.37025 -3.50793,17.53957 -4.09258,26.30934 -11.1084,29.23262 -7.01583,2.92325 -20.46282,4.09255 -23.97075,-0.58465 -3.5079,-4.67723 -10.52372,-7.6005 -9.93907,-16.37027 0.58465,-8.76978 0,-10.52373 3.5079,-13.447 3.50792,-2.92325 20.46282,-7.60048 20.46282,-7.60048"
         id="path3447" /><path
         style="font-variation-settings:normal;opacity:1;fill:none;fill-opacity:1;stroke:#000000;stroke-width:5.12544;stroke-linecap:butt;stroke-linejoin:miter;stroke-miterlimit:4;stroke-dasharray:none;stroke-dashoffset:0;stroke-opacity:1;stop-color:#000000;stop-opacity:1"
         d="m 307.527,733.15371 c 0,0 30.98655,-65.48104 88.28247,-15.20094 0,0 -2.33861,35.07912 -36.83309,18.12421 0,0 -19.29351,-4.09256 -22.21678,7.01583 0,0 -22.80143,2.33858 -29.2326,-9.9391 z"
         id="path3449" /></g></g></svg>
