<?xml version="1.0" encoding="UTF-8" standalone="no"?>
<!-- Created with Inkscape (http://www.inkscape.org/) -->

<svg
   width="249.59604mm"
   height="165.28131mm"
   viewBox="0 0 249.59604 165.28131"
   version="1.1"
   id="svg5"
   xml:space="preserve"
   xmlns="http://www.w3.org/2000/svg"
   xmlns:svg="http://www.w3.org/2000/svg"><defs
     id="defs2" /><g
     id="layer1"
     transform="translate(-60.667047,-743.17058)"><g
       id="g3562"
       style="display:inline;stroke:#000000;stroke-width:5.74016;stroke-dasharray:none;stroke-opacity:1"
       transform="matrix(0.92186807,0,0,0.92186807,297.36698,169.82441)"><path
         style="font-variation-settings:normal;opacity:1;fill:none;fill-opacity:1;stroke:#000000;stroke-width:5.74016;stroke-linecap:butt;stroke-linejoin:miter;stroke-miterlimit:4;stroke-dasharray:none;stroke-dashoffset:0;stroke-opacity:1;stop-color:#000000;stop-opacity:1"
         d="m -256.66227,681.11967 c 0,0 16.95492,-0.58465 29.23261,-17.53955 12.27769,-16.95492 33.90982,-42.09497 69.5736,-25.72469 0,0 9.35443,-2.92326 9.93908,-15.7856"
         id="path3429" /><path
         style="font-variation-settings:normal;opacity:1;fill:none;fill-opacity:1;stroke:#000000;stroke-width:5.74016;stroke-linecap:butt;stroke-linejoin:miter;stroke-miterlimit:4;stroke-dasharray:none;stroke-dashoffset:0;stroke-opacity:1;stop-color:#000000;stop-opacity:1"
         d="m -95.298291,627.33168 c 0,0 18.124215,-7.01582 32.740518,8.7698 14.616303,15.7856 23.970736,25.72467 37.417733,28.64794 13.446998,2.92325 35.0791255,7.01583 36.833082,4.67723"
         id="path3431" /><path
         style="font-variation-settings:normal;opacity:1;fill:none;fill-opacity:1;stroke:#000000;stroke-width:5.74016;stroke-linecap:butt;stroke-linejoin:miter;stroke-miterlimit:4;stroke-dasharray:none;stroke-dashoffset:0;stroke-opacity:1;stop-color:#000000;stop-opacity:1"
         d="m -84.774552,679.95037 c 0,0 39.171689,27.47865 55.541949,16.37027"
         id="path3433" /><path
         style="font-variation-settings:normal;opacity:1;fill:none;fill-opacity:1;stroke:#000000;stroke-width:5.74016;stroke-linecap:butt;stroke-linejoin:miter;stroke-miterlimit:4;stroke-dasharray:none;stroke-dashoffset:0;stroke-opacity:1;stop-color:#000000;stop-opacity:1"
         d="m -163.11793,662.99547 c 0,0 -24.55539,30.4019 -54.9573,30.98655"
         id="path3435" /><path
         style="font-variation-settings:normal;opacity:1;fill:none;fill-opacity:1;stroke:#000000;stroke-width:5.74016;stroke-linecap:butt;stroke-linejoin:miter;stroke-miterlimit:4;stroke-dasharray:none;stroke-dashoffset:0;stroke-opacity:1;stop-color:#000000;stop-opacity:1"
         d="m -199.95101,785.18776 c 0,0 10.52373,-94.12899 74.83546,-52.03405 0,0 12.86235,6.43119 19.29352,-1.75394 6.431174,-8.18513 40.340996,0.58465 40.340996,0.58465 0,0 31.571213,24.55539 32.740517,38.00238"
         id="path3437" /><path
         style="font-variation-settings:normal;opacity:1;fill:none;fill-opacity:1;stroke:#000000;stroke-width:5.74016;stroke-linecap:butt;stroke-linejoin:miter;stroke-miterlimit:4;stroke-dasharray:none;stroke-dashoffset:0;stroke-opacity:1;stop-color:#000000;stop-opacity:1"
         d="m -25.724692,779.34123 c 0,0 -114.007158,-10.52375 -143.824408,19.87817"
         id="path3439" /></g></g></svg>
