<?xml version="1.0" encoding="UTF-8" standalone="no"?>
<!-- Created with Inkscape (http://www.inkscape.org/) -->

<svg
   width="217.2774mm"
   height="221.3676mm"
   viewBox="0 0 217.2774 221.3676"
   version="1.1"
   id="svg5"
   xml:space="preserve"
   xmlns="http://www.w3.org/2000/svg"
   xmlns:svg="http://www.w3.org/2000/svg"><defs
     id="defs2" /><g
     id="layer1"
     transform="translate(-935.4831,-425.35168)"><g
       id="g3514"
       transform="translate(1232.8489,778.92768)"
       style="stroke:#000000;stroke-width:5.29167;stroke-dasharray:none;stroke-opacity:1"><path
         style="fill:none;stroke:#000000;stroke-width:5.29167;stroke-linecap:butt;stroke-linejoin:miter;stroke-dasharray:none;stroke-opacity:1"
         d="m -296.91875,-318.18566 c 0,0 85.88559,14.72324 94.06517,71.16235"
         id="path188" /><path
         style="fill:none;stroke:#000000;stroke-width:5.29167;stroke-linecap:butt;stroke-linejoin:miter;stroke-dasharray:none;stroke-opacity:1"
         d="m -162.77364,-277.28775 c 0,0 22.08487,-75.25213 82.613757,-73.61624"
         id="path190" /><path
         style="fill:none;stroke:#000000;stroke-width:5.29167;stroke-linecap:butt;stroke-linejoin:miter;stroke-dasharray:none;stroke-opacity:1"
         d="m -247.02331,-278.92367 c 0,0 45.80565,29.44649 18.81303,53.16727 -42.57809,23.20305 -29.95748,-42.73931 -25.35669,-62.98278 z"
         id="path192" /><path
         style="fill:none;stroke:#000000;stroke-width:5.29167;stroke-linecap:butt;stroke-linejoin:miter;stroke-dasharray:none;stroke-opacity:1"
         d="m -137.4524,-258.36834 c 0,0 5.13212,-65.00808 31.11786,-45.09408 23.632136,18.11033 23.711918,24.58307 22.076002,38.48835 -1.635916,13.90529 -53.193862,6.60573 -53.193862,6.60573 z"
         id="path194" /><path
         style="fill:none;stroke:#000000;stroke-width:5.29167;stroke-linecap:butt;stroke-linejoin:miter;stroke-dasharray:none;stroke-opacity:1"
         d="m -244.56943,-198.76379 c 0,0 18.82404,2.19378 37.65863,0.87516 18.83459,-1.31862 54.79721,-10.69065 54.79721,-10.69065 0,0 5.20164,18.15009 10.24128,25.92069 5.03964,7.7706 19.99657,20.70291 19.99657,20.70291 0,0 -52.33276,25.42719 -77.70601,26.99261 -25.37325,1.56542 -68.70847,-14.72324 -68.70847,-14.72324 0,0 11.66335,-15.57773 15.61682,-23.75731 3.95346,-8.17958 8.10397,-25.32017 8.10397,-25.32017 z"
         id="path196" /></g></g></svg>
