<?xml version="1.0" encoding="UTF-8" standalone="no"?>
<!-- Created with Inkscape (http://www.inkscape.org/) -->

<svg
   width="268.67789mm"
   height="268.67789mm"
   viewBox="0 0 268.67789 268.67789"
   version="1.1"
   id="svg5"
   xml:space="preserve"
   xmlns="http://www.w3.org/2000/svg"
   xmlns:svg="http://www.w3.org/2000/svg"><defs
     id="defs2" /><g
     id="layer1"
     transform="translate(1328.8804,-699.17822)"><g
       id="g53595"><rect
         style="display:inline;fill:none;fill-opacity:1;stroke:none;stroke-width:5.29167;stroke-dasharray:none;stroke-opacity:1"
         id="rect53385"
         width="268.67789"
         height="268.67789"
         x="-1328.8804"
         y="699.17822" /><g
         id="g52757"
         transform="matrix(2.5201307,0,0,2.5201307,-3858.7617,-1169.3749)"><g
           style="fill:#000000;fill-opacity:1;stroke-linejoin:miter"
           id="g50816"
           transform="matrix(0.0212301,0.88760364,-0.82571352,0.02282136,2056.9295,403.92004)"><path
             d="m 385.68744,1259.7737 c -2.13774,-2.0036 -6.88751,-5.0348 -7.05652,-5.1572 -0.16898,-0.1224 -0.35016,-0.2537 -0.52492,-0.3893 -0.1748,-0.1356 -0.34367,-0.2758 -0.50548,-0.4204 -0.16177,-0.1447 -0.36222,-0.3326 -0.58309,-0.5529 -0.22089,-0.2205 -0.42293,-0.4689 -0.64426,-0.7738 -0.22131,-0.3049 -0.45467,-0.6709 -0.69647,-1.0975 -0.24182,-0.4267 -0.50406,-0.9364 -0.59024,-1.1306 -0.0862,-0.1944 -0.16946,-0.4214 -0.26249,-0.698 -0.093,-0.2765 -0.19027,-0.6021 -0.28823,-0.9749 -0.098,-0.3728 -0.16034,-0.6637 -0.28854,-0.2876 -0.12824,0.376 -0.17606,0.417 -0.0503,0.198 0.12579,-0.219 0.43157,-0.6015 0.89731,-1.1028 0.46573,-0.5012 1.08306,-1.1078 1.38931,-1.3828 0.30625,-0.275 0.60297,-0.5312 0.87109,-0.7546 0.26813,-0.2234 0.50654,-0.4136 0.7125,-0.5696 0.20599,-0.1559 0.43526,-0.309 0.60348,-0.4336 0.16822,-0.1245 0.42774,-0.2886 0.80173,-0.5048 0.37399,-0.2162 0.85235,-0.4843 1.43109,-0.8023 0.57871,-0.3179 1.28662,-0.6988 1.50998,-0.8495 0.22336,-0.1508 0.38238,-0.2792 0.52828,-0.4113 0.14592,-0.1322 0.2784,-0.2698 0.39717,-0.4165 0.11873,-0.1467 0.24365,-0.3382 0.40069,-0.7352 0.15704,-0.397 0.27394,-0.8374 0.35314,-1.3151 0.0792,-0.4778 0.12404,-0.9945 0.13325,-1.553 0.009,-0.5585 -0.0178,-1.1644 -0.07,-1.4735 -0.0522,-0.309 -0.14948,-0.6313 -0.28946,-0.9715 -0.13999,-0.3404 -0.306,-0.7058 -0.41449,-1.0059 -0.10849,-0.3 -0.10849,-0.3 -0.0362,-0.1 0,0 0.14466,0.4001 0.19791,0.7812 0.0532,0.381 0.0647,0.721 0.0434,1.0151 -0.0212,0.294 -0.0728,0.5358 -0.23664,1.0703 -0.16385,0.5344 -0.33063,1.0089 -0.50677,1.4184 -0.17616,0.4094 -0.35932,0.7519 -0.54483,1.0253 -0.18553,0.2735 -0.37491,0.493 -0.39987,0.4959 -0.0249,0 -0.0816,0.035 -0.16053,0.075 -0.079,0.04 -0.18013,0.087 -0.30368,0.137 -0.12353,0.05 -0.16855,0.055 -0.8826,0.2276 -0.71405,0.1723 -1.33929,0.3445 -1.86627,0.5027 -0.52695,0.1582 -0.95895,0.3075 -1.31293,0.4512 -0.35395,0.1437 -0.55605,0.2422 -0.81535,0.3566 -0.2593,0.1145 -0.56926,0.2668 -0.90355,0.4417 -0.33429,0.175 -0.69501,0.3732 -1.08313,0.5954 -0.38812,0.222 -0.84092,0.4957 -1.62185,1.0326 -0.78095,0.5368 -1.43351,1.0638 -1.96797,1.6091 -0.53445,0.5453 -0.96725,1.1569 -1.2439,1.986 -0.2766,0.8289 -0.38265,1.7994 -0.17815,2.3443 0.20447,0.5449 0.39493,0.9931 0.59082,1.4103 0.19593,0.4174 0.40167,0.8045 0.62158,1.1636 0.21988,0.3591 0.4285,0.6512 0.82559,1.1689 0.3971,0.5177 0.80236,0.9984 1.21183,1.4314 0.40948,0.433 0.82626,0.8182 1.25893,1.1497 0.4327,0.3313 0.8017,0.5538 1.03056,0.6975 0.22884,0.1437 0.48431,0.2988 0.74441,0.4455 0.2601,0.1466 0.52523,0.2849 0.79599,0.4129 0.27078,0.1278 0.58039,0.2621 3.42597,0.8215 5.36132,1.7901 3.03687,0.1685 5.55261,1.3992 z"
             id="path50814" /></g><g
           style="fill:#000000;fill-opacity:1;stroke-linejoin:miter"
           id="g50820"
           transform="matrix(0.0212301,0.88760364,-0.82571352,0.02282136,2056.9295,403.92004)"><path
             d="m 381.99738,1214.657 c -0.34763,-0.9188 -1.18973,-2.4408 -1.90138,-3.7666 -0.71166,-1.3257 -1.28237,-2.46 -1.6919,-3.4052 -0.4095,-0.9452 -0.65407,-1.6848 -0.79662,-2.159 -0.14254,-0.4744 -0.16601,-0.5913 -0.24682,-0.9497 -0.0808,-0.3585 -0.18512,-0.9085 -0.31232,-1.6317 -0.1272,-0.7233 -0.28491,-1.6133 -0.52286,-3.1642 -0.23794,-1.5508 -1.0354,-3.5872 -1.07416,-3.7121 -0.0387,-0.1248 -0.0814,-0.274 -0.12048,-0.4283 -0.0391,-0.1542 -0.0745,-0.3134 -0.10604,-0.4776 -0.0316,-0.164 -0.0586,-0.3143 -0.0943,-0.6121 -0.0357,-0.2979 -0.0305,-0.6109 0.0235,-0.9778 0.054,-0.367 0.16247,-0.7852 0.32998,-1.2506 0.16752,-0.4655 0.28436,-0.8213 2.98569,-5.1401 2.70133,-4.3187 2.79397,-4.435 2.8858,-4.5589 0.0918,-0.1238 0.18048,-0.2571 0.26599,-0.3999 0.0855,-0.143 0.16784,-0.2953 0.22804,-0.4143 0.0602,-0.1192 0.0602,-0.1192 0.02,-0.04 0,0 -0.0802,0.1588 -0.16364,0.308 -0.0834,0.1491 -0.16995,0.2889 -0.25967,0.419 -0.0897,0.1303 -0.18259,0.2509 -2.16907,1.9783 -1.98648,1.7273 -5.77226,5.1814 -6.21033,5.8197 -0.43805,0.6383 -0.76013,1.2029 -1.01893,1.775 -0.2588,0.5721 -0.45006,1.1547 -0.56572,1.7498 -0.11563,0.5952 -0.15113,1.1256 -0.15845,1.3734 -0.007,0.2478 -0.008,0.4849 -0.003,0.7207 0.006,0.2359 0.0182,0.4708 0.0392,0.704 0.021,0.233 0.0593,0.5049 0.48023,2.6462 0.42089,2.1415 0.77023,3.1552 1.06741,3.9793 0.29714,0.8242 0.55731,1.4939 0.76734,2.021 0.21005,0.5271 0.3819,0.9294 0.49075,1.1269 0.10885,0.1976 0.45288,0.9191 1.02695,1.8221 0.57406,0.9029 1.31625,1.8884 2.2581,2.956 0.94184,1.0675 2.08433,2.2223 2.85105,2.7288 1.35727,1.2341 1.10468,0.2321 1.69523,0.9597 z"
             id="path50818" /></g><g
           style="fill:#000000;fill-opacity:1;stroke-linejoin:miter"
           id="g50824"
           transform="matrix(0.0212301,0.88760364,-0.82571352,0.02282136,2056.9295,403.92004)"><path
             d="m 402.23157,1259.6588 c -0.085,-0.1431 -0.30329,-0.4465 -0.53894,-0.8392 -0.23569,-0.3928 -0.48798,-0.8753 -0.76038,-1.4444 -0.27237,-0.5692 -0.56685,-1.2243 -0.86658,-1.9067 -0.29971,-0.6822 -0.57415,-1.3302 -0.84039,-1.9624 -0.26623,-0.6322 -0.5296,-1.2458 -0.76988,-1.8525 -0.24025,-0.6068 -0.46623,-1.2015 -0.6193,-1.5823 -0.1531,-0.3807 -0.2308,-0.5398 -0.32493,-0.7258 -0.0941,-0.1861 -0.21274,-0.4065 -0.35559,-0.667 -0.14282,-0.2605 -0.31073,-0.5627 -0.35614,-0.6729 -0.0454,-0.1103 -0.0664,-0.2008 -0.079,-0.2833 -0.0126,-0.082 -0.28189,-0.087 -0.31418,-0.1627 -0.0323,-0.075 -0.0586,-0.1493 -0.10138,-0.3679 -0.0428,-0.2188 -0.095,-0.5452 -0.1318,-0.8206 -0.0368,-0.2753 -0.059,-0.4961 -0.0731,-0.6548 -0.0141,-0.1588 -0.0218,-0.2439 0.0122,-0.676 0.034,-0.4323 0.0734,-1.0698 0.12439,-1.6405 0.051,-0.5707 0.11325,-1.0738 0.18283,-1.5094 0.0696,-0.4356 0.1449,-0.803 0.20754,-1.073 0.0626,-0.2702 0.0942,-0.4184 0.20473,-0.6924 0.11044,-0.2742 0.29397,-0.6492 0.54144,-1.119 0.24747,-0.4699 0.55917,-1.0307 0.79633,-1.5202 0.23712,-0.4896 0.23712,-0.4896 0.0136,-0.216 0,0 -0.6432,0.3889 -1.09674,0.8066 -0.45349,0.4177 -0.81881,0.7827 -1.10104,1.0977 -0.28222,0.3148 -0.48802,0.5887 -0.6008,0.7951 -0.11282,0.2066 -0.30667,0.5115 -0.52136,0.9257 -0.21472,0.4142 -0.42446,0.8918 -0.6366,1.4322 -0.21209,0.5403 -0.42718,1.1441 -0.63781,1.8003 -0.21067,0.6564 -0.26328,0.7947 -0.32221,1.0705 -0.0589,0.2757 -0.10254,0.5704 -0.13208,0.8954 -0.0295,0.325 -0.0503,0.6855 -0.0631,1.0857 -0.0129,0.4001 -0.006,0.6275 0.0177,0.8608 0.0237,0.2333 0.0635,0.4656 0.0204,0.7316 -0.0431,0.266 0.0604,0.4892 0.21374,0.7708 0.15335,0.2817 0.43092,0.642 0.62576,0.8877 0.19486,0.2459 0.3548,0.4502 0.48002,0.6101 0.12521,0.1598 0.21264,0.2708 0.25076,0.3133 0.0381,0.042 0.38202,0.5869 0.75732,1.1469 0.37531,0.5602 0.76406,1.1263 1.16593,1.6988 0.40188,0.5724 0.83679,1.1397 1.28833,1.7125 0.45156,0.5728 0.9626,1.1952 1.4435,1.7339 0.4809,0.5387 0.92875,0.9921 1.33497,1.3658 0.40623,0.3739 0.77121,0.6681 0.96243,0.771 0.32068,0.2108 0.46994,-0.2313 0.59937,-0.1234 z"
             id="path50822" /></g><g
           style="fill:#000000;fill-opacity:1;stroke-linejoin:miter"
           id="g50828"
           transform="matrix(0.0212301,0.88760364,-0.82571352,0.02282136,2056.9295,403.92004)"><path
             d="m 399.27756,1256.6077 q 4.87958,-41.2513 0,0"
             id="path50826" /></g><g
           style="fill:#000000;fill-opacity:1;stroke-linejoin:miter"
           id="g50832"
           transform="matrix(0.0212301,0.88760364,-0.82571352,0.02282136,2056.9295,403.92004)"><path
             d="m 404.2454,1214.0269 c 0.0193,-0.035 0.0451,-0.1123 0.0664,-0.1971 0.0213,-0.085 0.0386,-0.1771 0.0521,-0.2773 0.0136,-0.1004 0.0236,-0.2087 0.0269,-0.523 0.003,-0.3142 0.0102,-0.7867 0.0243,-1.231 0.0141,-0.4444 0.0342,-0.8599 0.0563,-1.2463 0.0221,-0.3862 0.0517,-0.7431 0.0949,-1.1613 0.0432,-0.4181 0.0951,-0.9577 0.14465,-1.5296 0.0495,-0.5719 0.0968,-1.176 0.12182,-1.811 0.025,-0.6351 0.0526,-1.3025 0.0759,-1.6856 0.0233,-0.3829 0.0453,-0.5421 0.0755,-0.7692 0.0303,-0.2271 0.0723,-0.516 0.1261,-0.8633 0.0538,-0.3473 0.11331,-0.7517 0.15665,-1.1231 0.0433,-0.3713 0.0568,-0.5385 0.0683,-0.6843 0.0114,-0.1456 0.0215,-0.2705 0.0283,-0.3787 0.007,-0.1081 0.01,-0.2058 0.0205,-0.3872 0.0107,-0.1814 -0.25232,-0.5272 -0.31698,-0.9069 -0.0647,-0.3797 -0.14188,-0.7847 -0.23157,-1.2161 -0.0897,-0.4313 -0.19174,-0.8895 -0.32887,-1.4158 -0.13713,-0.5261 -0.28884,-1.0477 -0.44542,-1.5277 -0.15662,-0.48 -0.31021,-0.9198 -0.46103,-1.3199 -0.15082,-0.4001 -0.29922,-0.7611 -0.48117,-1.1619 -0.18192,-0.4006 -0.42645,-0.9064 -0.70044,-1.4292 -0.27402,-0.5228 -0.57744,-1.0635 -0.91916,-1.619 -0.3417,-0.5556 -0.71408,-1.1289 -0.9595,-1.5145 -0.24542,-0.3858 -0.33774,-0.5795 -0.3938,-0.7817 -0.0561,-0.2021 -0.10508,-0.4032 -0.147,-0.6034 -0.0419,-0.2002 -0.0768,-0.3993 -0.0994,-0.5481 -0.0226,-0.1489 -0.0226,-0.1489 -0.008,-0.05 0,0 0.0301,0.1984 0.0673,0.3979 0.0372,0.1995 0.0815,0.4 0.13287,0.6015 0.0513,0.2014 0.10977,0.4039 0.14483,0.6203 0.0351,0.2163 0.21833,0.8959 0.37726,1.5414 0.15894,0.6455 0.29608,1.2577 0.4173,1.834 0.12119,0.5763 0.21864,1.1194 0.29414,1.635 0.0755,0.5156 0.12706,0.8442 0.16872,1.2015 0.0417,0.3572 0.0773,0.7578 0.1066,1.2017 0.0292,0.4437 0.0519,0.93 0.0755,1.4515 0.0236,0.5215 0.0286,0.9727 0.0361,1.4055 0.007,0.4329 0.008,0.832 0.003,1.1961 -0.006,0.3641 -0.0178,0.6924 -0.11065,0.9977 -0.0928,0.3051 -0.0842,0.3681 -0.0753,0.4189 0.009,0.051 0.0202,0.136 0.0327,0.25 0.0125,0.1139 0.0248,0.2544 0.0396,0.3792 0.0148,0.1247 0.0235,0.5512 0.035,0.9616 0.0115,0.4106 0.0281,0.769 0.046,1.0774 0.0179,0.3084 0.0379,0.5702 0.0636,0.8036 0.0257,0.2334 0.15228,0.9127 0.26054,1.5477 0.10823,0.6351 0.2052,1.2391 0.31038,1.8113 0.1052,0.5722 0.19982,1.1137 0.28418,1.6311 0.0844,0.5176 0.15427,0.889 0.24091,1.2738 0.0866,0.3849 0.18811,0.7898 0.31061,1.2143 0.12246,0.4244 0.26072,0.8692 0.41345,1.3318 0.15274,0.4626 0.17597,0.5402 0.19571,0.6267 0.0197,0.087 0.034,0.1646 0.0431,0.2338 0.009,0.069 0.0131,0.1297 0.0195,0.1543 -0.001,0.055 0.42822,0.132 0.42057,0.1622 z"
             id="path50830" /></g><g
           style="fill:#000000;fill-opacity:1;stroke-linejoin:miter"
           id="g50836"
           transform="matrix(0.0212301,0.88760364,-0.82571352,0.02282136,2056.9295,403.92004)"><path
             d="m 403.6138,1215.576 c -0.26605,-0.4371 -0.84222,-1.1507 -1.32782,-1.8006 -0.4856,-0.6499 -0.88104,-1.2322 -1.18634,-1.7417 -0.3053,-0.5094 -0.51218,-0.9451 -1.38721,-3.1066 -0.87503,-2.1615 -2.5354,-6.035 -2.60678,-6.2767 -0.0714,-0.2418 -0.13977,-0.5055 -0.18741,-0.7537 -0.0476,-0.2481 -0.32129,-0.4269 -0.39126,-0.6482 -0.07,-0.2212 -0.12113,-0.4215 -0.22888,-1.1982 -0.10773,-0.7766 -0.16263,-1.5548 -0.16523,-2.3455 -0.003,-0.7906 0.0356,-1.5969 0.11948,-2.4211 0.0839,-0.8243 0.20245,-1.6168 0.44672,-2.34 0.24426,-0.7231 0.56783,-1.4846 0.96493,-2.2594 0.3971,-0.7749 0.86456,-1.5663 1.25427,-2.1682 0.38971,-0.602 0.38971,-0.602 0.0698,-0.2536 0,0 -0.82032,0.5382 -1.51508,1.1679 -0.69479,0.6298 -1.31666,1.2992 -1.87346,2.0017 -0.55687,0.7025 -1.0548,1.4923 -1.43153,2.3811 -0.37677,0.8887 -0.67801,1.7715 -0.90723,2.6714 -0.22924,0.8999 -0.38962,1.8144 -0.48784,2.7407 -0.0982,0.9263 -0.13493,1.8444 -0.11604,2.2607 0.0189,0.4162 0.0664,0.8286 0.0797,1.2625 0.0134,0.4341 0.17683,0.8354 0.36609,1.2303 0.18927,0.395 0.44138,0.8588 2.82379,4.3606 2.38242,3.5017 2.7218,3.9619 3.16375,4.4416 0.44197,0.4799 0.97416,0.9627 1.60493,1.4495 0.63074,0.4868 1.36203,0.979 1.8128,1.17 0.82457,0.5076 0.73209,-0.141 1.10587,0.1755 z"
             id="path50834" /></g><g
           style="fill:#000000;fill-opacity:1;stroke-linejoin:miter"
           id="g50840"
           transform="matrix(0.0212301,0.88760364,-0.82571352,0.02282136,2056.9295,403.92004)"><path
             d="m 437.94525,1251.816 c 0.0286,-0.064 0.0615,-0.1916 0.09,-0.3153 0.0285,-0.1236 0.0525,-0.2434 0.072,-0.3595 0.0195,-0.1161 0.0343,-0.2286 0.12939,-1.1773 0.095,-0.9489 0.24369,-2.7294 0.2591,-2.8689 0.0154,-0.1397 0.0308,-0.2746 0.0466,-0.3958 0.0158,-0.1212 0.0319,-0.2279 0.0483,-0.3197 0.0163,-0.092 0.0328,-0.1725 0.10577,-0.5294 0.0729,-0.3571 0.17358,-0.7966 0.29077,-1.323 0.11718,-0.5264 0.25333,-1.1386 0.42558,-1.8333 0.17223,-0.6948 0.36434,-1.4956 0.42232,-1.8078 0.058,-0.3121 0.10794,-0.5868 0.14918,-0.8474 0.0412,-0.2606 0.0776,-0.5074 0.10924,-0.7401 0.0316,-0.2328 0.0577,-0.4383 0.0768,-0.5805 0.0191,-0.1421 0.0405,-0.3172 0.0635,-0.5176 0.023,-0.2004 0.0478,-0.4278 0.0744,-0.6824 0.0266,-0.2547 0.0501,-0.5827 0.13098,-1.9484 0.0809,-1.3656 0.15564,-2.5303 0.20971,-3.4978 0.0541,-0.9677 0.10309,-1.7356 0.14835,-2.2942 0.0453,-0.5587 0.087,-0.9331 0.11899,-1.2189 0.032,-0.2857 0.0635,-0.5328 0.0922,-0.7451 0.0287,-0.2123 0.0546,-0.3886 0.0761,-0.5254 0.0216,-0.1368 0.0324,-0.1946 0.11771,-0.7549 0.0853,-0.5603 0.003,-1.2097 0.0147,-1.9107 0.0115,-0.7011 0.0176,-1.4642 0.0142,-2.29 -0.003,-0.8258 -0.0226,-1.7122 -0.0267,-1.9049 -0.004,-0.1927 -0.0118,-0.3946 -0.0237,-0.6008 -0.0119,-0.2063 -0.0277,-0.417 -0.0474,-0.6323 -0.0197,-0.2155 -0.0416,-0.4361 -0.0936,-0.9009 -0.052,-0.465 -0.12644,-0.9727 -0.23017,-1.5122 -0.1037,-0.5397 -0.23047,-1.1129 -0.38779,-1.7201 -0.15731,-0.6072 -0.33494,-1.24 -0.38516,-1.4191 -0.0503,-0.179 -0.10788,-0.3785 -0.1723,-0.5954 -0.0644,-0.2171 -0.13578,-0.4518 -0.21396,-0.7046 -0.0782,-0.2527 -0.17372,-0.5697 -0.54318,-1.6062 -0.36944,-1.0364 -0.68207,-1.8861 -0.93262,-2.5565 -0.25058,-0.6704 -0.42922,-1.1609 -0.53142,-1.4567 -0.1022,-0.2958 -0.13533,-0.439 -0.23735,-0.8025 -0.10202,-0.3636 -0.20715,-0.7432 -0.31317,-1.1496 -0.10602,-0.4064 -0.21286,-0.8396 -0.32052,-1.2992 -0.10764,-0.4596 -0.22416,-0.9454 -0.23414,-0.9924 -0.01,-0.047 -0.0368,-0.132 -0.0806,-0.2602 -0.0437,-0.128 -0.10466,-0.3013 -0.18292,-0.5208 -0.0782,-0.2193 -0.17356,-0.4831 -0.21018,-0.5864 -0.0366,-0.1033 -0.0958,-0.2259 -0.17602,-0.3638 -0.0802,-0.1376 -0.18146,-0.2918 -0.29447,-0.4683 -0.11297,-0.1766 -0.22281,-0.3847 -0.23557,-0.5221 -0.0127,-0.1375 -0.005,-0.2635 0.0224,-0.378 0.0277,-0.1145 0.0757,-0.2175 0.12176,-0.289 0.0461,-0.072 0.0461,-0.072 0.0154,-0.024 0,0 -0.0614,0.095 -0.10266,0.2022 -0.0412,0.1069 -0.0622,0.2251 -0.0629,0.355 -7.4e-4,0.1298 0.0188,0.271 0.11605,0.4751 0.0973,0.2041 0.15295,0.3966 0.1933,0.5628 0.0403,0.1661 0.0652,0.3048 0.0747,0.4138 0.009,0.109 0.007,0.2012 0.0113,0.4675 0.005,0.2662 0.008,0.4815 0.009,0.646 10e-4,0.1647 10e-4,0.2778 -0.002,0.3311 -0.003,0.053 -0.007,0.061 -0.0466,0.5553 -0.0399,0.4946 -0.0687,0.9659 -0.0906,1.4141 -0.0219,0.4484 -0.0367,0.8738 -0.0439,1.2769 -0.007,0.4031 -0.005,0.7612 0.002,1.0144 0.006,0.2533 0.0383,0.6862 0.0942,1.2947 0.0558,0.6086 0.14184,1.3985 0.2699,2.3691 0.12804,0.9706 0.29336,2.1095 0.31654,2.354 0.0231,0.2444 0.0481,0.4911 0.0697,0.7166 0.0216,0.2254 0.0397,0.4296 0.0544,0.6118 0.0147,0.1824 0.0272,0.3497 0.07,0.9631 0.0428,0.6136 0.0702,1.1732 0.0918,1.6818 0.0216,0.5085 0.03,0.9659 0.0304,1.3697 4.7e-4,0.4037 -0.0125,0.7786 -0.0234,0.9559 -0.0109,0.1771 -0.0247,0.3454 -0.0404,0.5048 -0.0157,0.1593 -0.0333,0.3092 -0.0527,0.4497 -0.0194,0.1404 -0.0411,0.2818 -0.16138,1.1246 -0.1203,0.8427 -0.2255,1.6176 -0.32697,2.325 -0.1015,0.7074 -0.19909,1.3465 -0.3092,1.9145 -0.11011,0.5678 -0.14108,1.1012 -0.1477,1.2939 -0.007,0.1929 -0.005,0.3892 7.9e-4,0.6102 0.005,0.2211 0.0136,0.4701 0.0248,0.7477 0.0111,0.2776 0.0208,0.5747 0.0378,1.0774 0.0171,0.5028 0.057,1.1895 0.11946,2.0562 0.0624,0.8665 0.1507,1.9184 0.27788,3.158 0.1272,1.2397 0.27942,2.6569 0.30218,2.8964 0.0228,0.2394 0.0441,0.4708 0.0616,0.6709 0.0175,0.2 0.0313,0.3678 0.0414,0.501 0.0102,0.1332 0.0151,0.2513 0.0224,0.4524 0.007,0.2009 0.0129,0.4136 0.0163,0.6445 0.003,0.231 0.005,0.4801 0.008,0.7472 0.003,0.2671 0.0101,0.5062 -0.009,1.2841 -0.0192,0.7779 -0.0295,1.4823 -0.0406,2.1015 -0.0111,0.6193 -8.6e-4,1.157 0.0193,1.6135 0.0202,0.4565 0.0468,0.8221 0.0555,0.9377 0.009,0.1156 0.0213,0.2412 0.0378,0.3757 0.0165,0.1345 0.0367,0.2781 0.0606,0.4316 0.0238,0.1536 0.0522,0.3348 0.44144,2.0835 0.38922,1.7488 0.40966,1.8366 0.428,1.9342 0.0183,0.098 0.0342,0.2027 0.0478,0.3147 0.0135,0.1122 0.0245,0.2314 0.0399,0.2935 0.008,0.1268 0.4481,0.1092 0.44105,0.1739 z"
             id="path50838" /></g><g
           style="fill:#000000;fill-opacity:1;stroke-linejoin:miter"
           id="g50844"
           transform="matrix(0.0212301,0.88760364,-0.82571352,0.02282136,2056.9295,403.92004)"><path
             d="m 435.04343,1197.6735 c 0.33877,0.1528 1.02457,0.4813 1.71035,1.0252 0.68576,0.5439 1.38959,1.3013 2.12098,2.2801 0.73138,0.9788 1.51382,2.1672 1.92529,2.9006 0.41145,0.7333 0.47705,0.8887 0.52995,1.0376 0.0529,0.1489 0.0935,0.2908 0.1233,0.426 0.0299,0.1354 0.0519,0.2632 0.11872,1.0042 0.0668,0.7408 0.17748,2.0339 0.27701,3.084 0.0995,1.05 0.1712,1.8581 0.21381,2.4157 0.0426,0.5576 0.0581,0.833 0.0833,1.2461 0.0253,0.4131 0.0419,1.0409 0.0304,1.7827 -0.0114,0.742 -0.0527,1.5939 -0.13277,2.552 -0.0801,0.9582 -0.16904,2.0212 -0.24595,2.6886 -0.0769,0.6675 0.063,0.9445 0.0577,1.261 -0.005,0.3165 -0.0154,0.6806 -0.0304,1.0902 -0.015,0.4098 -0.0349,0.8649 -0.11256,1.8521 -0.0777,0.9872 -0.18605,2.4573 -0.27223,3.7231 -0.0862,1.266 -0.15082,2.33 -0.17481,3.1997 -0.024,0.8698 -0.0173,1.5546 -0.005,1.9014 0.0123,0.3468 0.0367,0.6949 0.0979,1.1687 0.0612,0.4739 0.15735,1.1146 0.2884,1.9331 0.13103,0.8185 0.30394,1.8171 0.41863,2.4182 0.11472,0.6011 0.13385,0.6944 0.15082,0.7962 0.017,0.1018 0.0316,0.212 0.0437,0.3305 0.012,0.1185 0.0215,0.245 0.0286,0.3928 0.007,0.1479 0.0118,0.2974 0.0124,0.434 6.8e-4,0.1366 -0.002,0.2597 -0.008,0.3692 -0.006,0.1095 -0.0149,0.2045 -0.11212,0.5494 -0.0972,0.345 -0.3027,1.0581 -0.47083,1.7446 -0.16813,0.6864 -0.29577,1.3468 -0.37918,1.981 -0.0834,0.6341 -0.12973,1.2389 -0.15475,1.675 -0.025,0.4361 -0.0751,0.6959 -0.10425,0.9217 -0.0292,0.2255 -0.0305,0.4188 -0.004,0.5795 0.0264,0.1608 0.0806,0.2892 0.13507,0.3692 0.0545,0.08 0.0545,0.08 0.0182,0.027 0,0 -0.0727,-0.1067 -0.11759,-0.2458 -0.0449,-0.1392 -0.062,-0.3108 -0.0514,-0.5148 0.0106,-0.2041 0.049,-0.4406 0.14191,-0.7035 0.0929,-0.2629 0.29889,-0.8042 0.54468,-1.3514 0.24576,-0.5471 0.53161,-1.1032 0.84876,-1.6723 0.3171,-0.5691 0.6724,-1.1498 1.0717,-1.7574 0.39936,-0.6076 0.4985,-0.8471 0.55537,-0.999 0.0568,-0.1519 0.10963,-0.3121 0.15899,-0.4815 0.0494,-0.1693 0.0957,-0.3479 0.1391,-0.5342 0.0434,-0.1862 0.0774,-0.346 0.10681,-0.5044 0.0294,-0.1583 0.0541,-0.3138 0.0737,-0.4666 0.0197,-0.1529 0.0342,-0.3031 0.0433,-0.4516 0.009,-0.1485 0.0624,-1.282 0.0981,-2.2224 0.0357,-0.9404 0.0667,-1.6903 0.0965,-2.2451 0.0297,-0.5547 0.0582,-0.9013 0.0829,-1.0344 0.0247,-0.1333 0.0942,-0.5985 0.22236,-1.2386 0.1282,-0.64 0.30664,-1.4993 0.53338,-2.569 0.22672,-1.0697 0.52552,-2.3431 0.87201,-3.8377 0.34647,-1.4945 0.44705,-2.0712 0.5268,-2.5269 0.0798,-0.4556 0.14953,-0.8725 0.20929,-1.2512 0.0598,-0.3788 0.10962,-0.7212 0.20422,-1.0426 0.0946,-0.3214 0.0684,-1.5256 0.0303,-2.6405 -0.0381,-1.1148 -0.12066,-2.1361 -0.20863,-3.0657 -0.088,-0.9296 -0.1986,-1.7713 -0.32915,-2.4921 -0.13058,-0.7207 -0.15705,-0.8875 -0.25845,-1.3489 -0.1014,-0.4614 -0.2671,-1.1204 -0.49716,-2.0015 -0.23011,-0.881 -0.52527,-1.988 -0.89911,-3.3286 -0.37381,-1.3404 -0.47788,-1.6841 -0.58295,-1.9426 -0.10508,-0.2587 -0.22833,-0.5098 -0.36676,-0.7536 -0.13846,-0.2437 -0.29132,-0.4803 -0.48108,-0.743 -0.18976,-0.2628 -1.33914,-1.4919 -2.44519,-2.5072 -1.10602,-1.0153 -2.16852,-1.7882 -3.18182,-2.3112 -1.01328,-0.5228 -1.96313,-0.7934 -2.43183,-0.7855 -0.85067,-0.023 -0.5041,0.4418 -0.88607,0.4107 z"
             id="path50842" /></g></g></g></g></svg>
