<?xml version="1.0" encoding="UTF-8" standalone="no"?>
<!-- Created with Inkscape (http://www.inkscape.org/) -->

<svg
   width="268.67789mm"
   height="268.67789mm"
   viewBox="0 0 268.67789 268.67789"
   version="1.1"
   id="svg5"
   xml:space="preserve"
   xmlns="http://www.w3.org/2000/svg"
   xmlns:svg="http://www.w3.org/2000/svg"><defs
     id="defs2" /><g
     id="layer1"
     transform="translate(1005.5121,208.61136)"><g
       id="g53499"><rect
         style="display:inline;fill:none;fill-opacity:1;stroke:none;stroke-width:5.29167;stroke-dasharray:none;stroke-opacity:1"
         id="rect53369"
         width="268.67789"
         height="268.67789"
         x="-1005.5121"
         y="-208.61136" /><g
         id="g52709"
         transform="matrix(2.4167261,0,0,2.4167261,-3407.7537,-1712.1287)"><g
           style="fill:#000000;fill-opacity:1;stroke-linejoin:miter"
           id="g50792"
           transform="matrix(0.0212301,0.88760364,-0.82571352,0.02282136,2056.9295,403.92004)"><path
             d="m 248.768,1277.3712 c -0.47247,-0.6505 -1.4479,-1.6669 -2.25953,-2.5389 -0.81163,-0.8721 -1.44298,-1.6126 -1.88626,-2.2088 -0.44329,-0.5962 -0.68982,-1.0222 -0.70345,-1.0965 -0.0136,-0.074 -0.0171,-0.1428 -0.0165,-0.2062 6.1e-4,-0.063 0.005,-0.1217 0.0126,-0.1753 0.008,-0.053 0.0181,-0.1024 0.12702,-0.5952 0.10888,-0.4929 0.2853,-1.4474 0.42008,-2.2312 0.13477,-0.7838 0.23719,-1.4009 0.29445,-1.8734 0.0573,-0.4726 0.0661,-0.8822 0.10655,-1.3864 0.0404,-0.5041 0.10962,-1.531 0.14988,-2.5127 0.0402,-0.9816 0.0429,-1.9182 -0.13584,-2.7938 -0.17875,-0.8756 -0.33182,-1.7047 -0.57409,-2.6594 -0.24228,-0.9547 -0.58085,-1.9965 -0.96604,-3.0748 -0.38521,-1.0785 -0.81054,-2.1957 -1.28094,-3.3509 -0.4704,-1.155 -1.00298,-2.3429 -1.40091,-3.1416 -0.39795,-0.7988 -0.56194,-1.0528 -0.72257,-1.3117 -0.16064,-0.259 -0.32144,-0.5214 -0.47827,-0.7894 -0.15684,-0.2678 -0.30968,-0.541 -1.1246,-1.6793 -0.81491,-1.1383 -2.194,-3.0767 -2.23786,-3.1727 -0.0438,-0.096 -0.0827,-0.1928 -0.11665,-0.2904 -0.0339,-0.098 -0.0629,-0.1962 -0.0821,-0.2704 -0.0192,-0.074 -0.0192,-0.074 -0.006,-0.025 0,0 0.0257,0.099 0.0563,0.1973 0.0306,0.098 0.0662,0.1955 0.10673,0.2921 0.0405,0.096 0.0861,0.1922 0.90157,2.4255 0.81551,2.2336 0.84645,2.4761 0.91928,2.7996 0.0728,0.3234 0.15183,0.6447 0.23882,0.9631 0.087,0.3184 0.18328,0.6332 0.26142,0.8875 0.0781,0.2544 0.30639,1.5267 0.53223,2.7588 0.22585,1.2322 0.43805,2.4042 0.61798,3.5216 0.17995,1.1174 0.32773,2.1796 0.45102,3.1627 0.12328,0.9832 0.16452,1.6343 0.0918,2.4031 -0.0727,0.7688 0.0471,1.5715 0.15579,2.4343 0.10875,0.8627 0.21301,1.7847 0.30194,2.792 0.0889,1.0072 0.12535,1.2446 0.14572,1.4229 0.0204,0.1783 0.0412,0.6191 0.0568,1.26 0.0156,0.641 0.0125,1.4705 0.0135,2.4948 0.001,1.0243 0.008,1.3041 0.0295,1.4694 0.0219,0.1653 0.0529,0.3281 0.0925,0.4886 0.0396,0.1606 0.0875,0.3183 0.1954,0.6016 0.10794,0.2832 0.50183,0.845 1.0758,1.4246 0.57395,0.5794 1.33178,1.1572 2.26852,1.7719 0.93672,0.6149 2.06909,1.2615 2.78045,1.4903 1.33487,0.6759 0.96503,-0.1251 1.58853,0.3221 z"
             id="path50790" /></g><g
           style="fill:#000000;fill-opacity:1;stroke-linejoin:miter"
           id="g50796"
           transform="matrix(0.0212301,0.88760364,-0.82571352,0.02282136,2056.9295,403.92004)"><path
             d="m 232.75026,1225.8862 c 0.38258,0.072 1.08406,0.06 1.72099,-0.016 0.63692,-0.076 1.2117,-0.2226 1.72368,-0.4543 0.51198,-0.2317 0.95705,-0.5557 1.42345,-1.0998 0.46642,-0.544 1.00468,-1.2901 1.53832,-2.1571 0.53362,-0.8668 1.07589,-1.8474 1.62125,-2.9443 0.54538,-1.0968 1.07697,-2.3153 1.49413,-3.3015 0.41716,-0.9862 0.67425,-1.708 0.8925,-2.4415 0.21825,-0.7336 0.39717,-1.4787 0.53368,-2.2348 0.1365,-0.7561 0.22403,-1.5223 0.26672,-2.0325 0.0427,-0.5101 0.0644,-0.8486 0.0798,-1.2067 0.0153,-0.3582 0.0246,-0.7371 0.028,-1.1377 0.003,-0.4007 0.001,-0.8236 -0.0576,-1.8103 -0.0586,-0.9866 -0.1679,-2.2005 -0.35813,-3.2036 -0.19024,-1.0033 -0.33789,-1.8097 -0.43339,-2.407 -0.0955,-0.5974 -0.14076,-0.9557 -0.17479,-1.4319 -0.034,-0.4762 -0.0795,-1.0271 -0.10593,-1.5944 -0.0264,-0.5672 -0.0312,-1.1506 -0.008,-1.7494 0.0234,-0.5988 0.0738,-1.2126 0.2174,-2.3215 0.14358,-1.1088 0.36846,-2.6344 0.56942,-3.8972 0.20098,-1.2628 0.37454,-2.261 0.50849,-2.9895 0.13395,-0.7284 0.22747,-1.1646 0.33215,-1.5611 0.10466,-0.3964 0.2484,-0.8928 0.52563,-1.6117 0.27724,-0.7188 0.68015,-1.6419 1.20125,-2.7626 0.52111,-1.1208 1.15795,-2.4371 1.84731,-3.4089 0.68934,-0.9718 0.68934,-0.9718 0.22426,-0.3278 0,0 -0.9467,1.276 -1.9186,2.2764 -0.97189,1.0005 -1.75973,1.8801 -2.38247,2.6323 -0.62276,0.7523 -1.07509,1.3923 -1.35413,1.885 -0.27905,0.4926 -0.46771,0.7727 -0.76032,1.3708 -0.2926,0.5983 -0.64483,1.4204 -1.05458,2.4866 -0.40974,1.066 -0.88969,2.3771 -1.43893,3.9529 -0.54924,1.5758 -0.74422,2.3493 -0.88782,3.0472 -0.1436,0.6979 -0.26988,1.3904 -0.37053,2.079 -0.10064,0.6886 -0.17392,1.3735 -0.21391,2.0163 -0.04,0.6429 -0.0714,1.0136 -0.0715,1.6517 -1.4e-4,0.638 0.0266,1.4202 0.0161,2.3823 -0.0105,0.9619 0.213,2.0757 0.48017,3.3413 0.26718,1.2656 0.31671,1.5184 0.36525,1.8796 0.0485,0.3614 0.0885,0.6948 0.11995,0.9998 0.0315,0.3049 0.0547,0.5803 0.0698,0.8404 0.0151,0.2602 0.0479,0.9056 0.0524,1.5046 0.004,0.5991 -0.0153,1.2006 -0.0678,1.8049 -0.0525,0.6044 -0.13841,1.2121 -0.2605,1.8335 -0.1221,0.6214 -0.40668,1.9378 -0.70851,3.124 -0.30183,1.1862 -0.58933,2.2632 -0.88988,3.2202 -0.30055,0.957 -0.58973,1.8054 -0.87948,2.53 -0.28975,0.7247 -0.40088,0.9436 -0.61072,1.1897 -0.20984,0.246 -0.53067,0.4983 -0.96393,0.7494 -0.43326,0.2511 -0.9794,0.4879 -1.2775,0.6581 -0.65752,0.2153 -0.24374,0.6021 -0.60316,0.6472 z"
             id="path50794" /></g><g
           style="fill:#000000;fill-opacity:1;stroke-linejoin:miter"
           id="g50800"
           transform="matrix(0.0212301,0.88760364,-0.82571352,0.02282136,2056.9295,403.92004)"><path
             d="m 270.83813,1219.1222 c -0.77981,-0.3821 -2.27943,-0.897 -3.63256,-1.4169 -1.35312,-0.5198 -2.55664,-1.0623 -3.61427,-1.6185 -1.0576,-0.5562 -1.96487,-1.1387 -2.54522,-1.5553 -0.58038,-0.4165 -0.92628,-0.7165 -1.42948,-1.2075 -0.5032,-0.4909 -1.15313,-1.1499 -1.93322,-1.9789 -0.78008,-0.829 -1.69331,-1.8192 -2.07693,-2.2431 -0.38363,-0.4237 -0.3339,-0.3773 -0.32319,-0.4504 0.0107,-0.073 0.0208,-0.2773 0.0679,-0.6023 0.0471,-0.3251 0.1454,-0.7573 0.32378,-1.3398 0.17836,-0.5824 0.44814,-1.3194 0.68997,-1.8949 0.24185,-0.5756 0.44174,-0.976 0.57367,-1.1627 0.1319,-0.1868 0.10968,-0.1226 1.057,-1.0101 0.94736,-0.8875 2.4536,-2.3565 3.09122,-2.7314 0.63764,-0.375 1.44733,-0.9222 2.22228,-1.4739 0.77498,-0.5515 1.42595,-1.214 2.07057,-1.8395 0.64463,-0.6254 0.60086,-0.7749 1.03397,-0.9036 0.43306,-0.1288 1.08801,-0.3422 1.69104,-0.4828 0.60302,-0.1406 1.15045,-0.2306 1.6441,-0.2668 0.49365,-0.036 0.73544,-0.055 -0.27888,-0.8814 -1.0143,-0.8262 -1.0742,-1.0281 -1.0801,-1.1085 -0.006,-0.08 0.007,-0.063 0.0212,0.027 0.0138,0.09 0.0331,0.1178 -0.026,1.2243 -0.0591,1.1066 -0.10845,2.2998 -0.14505,3.5539 -0.0366,1.254 -0.0439,2.5706 -0.0395,3.9487 0.004,1.378 0.0159,2.8551 0.0663,3.4005 0.0504,0.5454 0.1128,1.0222 0.18061,1.4919 0.0678,0.4699 0.14093,0.9325 0.21943,1.388 0.0785,0.4554 0.16664,0.9447 0.56304,2.6579 0.39639,1.7134 0.75016,3.1216 1.03091,4.2349 0.28075,1.1132 0.48923,1.9302 0.60915,2.4452 0.11998,0.515 0.15318,0.7591 0.24415,1.1937 0.091,0.4346 0.16395,0.9038 0.21545,1.4209 0.0515,0.517 0.0812,1.0807 0.0513,1.5205 -0.0299,0.44 -0.0299,0.44 0.0106,0.1493 0,0 0.143,-0.5735 0.28643,-1.1134 0.14344,-0.54 0.25287,-1.0522 0.32757,-1.5386 0.0748,-0.4864 0.10893,-0.9182 0.14717,-1.2727 0.0382,-0.3546 0.0765,-1.0153 0.10973,-1.9747 0.0333,-0.9593 0.0526,-2.2193 0.0451,-3.7797 -0.008,-1.5603 -0.0558,-3.4056 -0.0462,-3.8098 0.01,-0.404 0.0233,-0.8343 0.0431,-1.2702 0.0198,-0.436 0.0458,-0.8775 0.076,-1.3247 0.0302,-0.4473 0.0589,-0.7776 0.25494,-2.138 0.19605,-1.3602 0.40747,-2.6709 0.60846,-3.9149 0.20102,-1.244 0.39685,-2.4208 0.5957,-3.5292 0.19889,-1.1083 0.40692,-2.2 0.43982,-2.5987 0.0329,-0.3987 0.0381,-0.7387 0.0107,-1.1003 -0.0274,-0.3615 -0.10656,-0.7655 -0.29393,-1.2402 -0.18742,-0.4747 -2.19627,-1.9996 -3.17454,-2.1243 -0.97826,-0.1247 -1.88223,-0.1538 -2.80979,-0.095 -0.92757,0.059 -1.8786,0.1942 -2.85461,0.4009 -0.97598,0.2065 -2.53253,0.7581 -3.44128,1.4597 -0.90878,0.7014 -1.52485,1.1747 -2.1698,1.6643 -0.64493,0.4897 -1.28604,1.0404 -1.96784,1.5982 -0.68179,0.5579 -1.81796,1.4595 -3.35971,3.3073 -1.54173,1.8477 -1.79758,2.116 -2.22076,2.7752 -0.42321,0.6591 -0.72513,1.342 -0.9836,2.0925 -0.25847,0.7506 -0.47812,1.5969 -0.69871,2.587 -0.2206,0.9901 -0.32294,1.8493 -0.33799,2.5712 -0.0151,0.7219 0.0274,1.4145 0.15776,2.094 0.13036,0.6793 0.38021,1.3502 0.84352,2.0311 0.46334,0.6809 1.68545,1.7028 2.73063,2.5245 1.04516,0.8218 1.95342,1.5037 2.73012,2.0495 0.77674,0.5457 1.4338,0.9588 1.95832,1.245 0.52451,0.286 1.59842,0.795 2.84082,1.2192 1.2424,0.4241 2.58161,0.764 4.03346,0.9766 1.4518,0.2125 3.0093,0.3143 3.8464,0.187 1.6617,-0.016 0.89532,-0.5586 1.71993,-0.4474 z"
             id="path50798" /></g><g
           style="fill:#000000;fill-opacity:1;stroke-linejoin:miter"
           id="g50804"
           transform="matrix(0.0212301,0.88760364,-0.82571352,0.02282136,2056.9295,403.92004)"><path
             d="m 265.18268,1269.0704 c -0.0855,-0.034 -0.3584,-0.081 -0.79535,-0.1361 -0.43698,-0.055 -1.04355,-0.1176 -1.82111,-0.185 -0.77752,-0.067 -1.7258,-0.1313 -2.25976,-0.1587 -0.53394,-0.028 -0.58426,-0.044 -0.77136,-0.082 -0.18708,-0.038 -0.47712,-0.1001 -0.86173,-0.1853 -0.38461,-0.085 -0.86301,-0.1862 -1.2894,-0.3074 -0.42637,-0.1213 -0.80917,-0.2996 -1.11731,-0.4997 -0.30816,-0.2 -0.55166,-0.409 -0.74032,-0.6313 -0.18865,-0.2222 -0.33724,-0.4587 -0.43119,-0.713 -0.0939,-0.2542 -0.19247,-0.7398 -0.27328,-1.4504 -0.0808,-0.7107 -0.13262,-1.6289 -0.14007,-2.7439 -0.007,-1.1149 0.014,-2.4198 0.0319,-3.2439 0.0179,-0.8241 0.0653,-1.0369 0.22539,-1.7166 0.1601,-0.6795 0.44187,-1.711 0.57833,-3.1196 0.13647,-1.4084 0.37631,-3.1367 0.5383,-4.2595 0.16195,-1.1228 0.15109,-1.1918 0.20605,-1.3219 0.055,-0.1301 0.22612,-0.3367 0.55505,-0.5888 0.32889,-0.2519 0.82099,-0.5222 1.29917,-0.7304 0.47818,-0.2083 0.98813,-0.3723 1.77176,-0.5676 0.78364,-0.1955 1.81771,-0.4318 3.09234,-0.7118 1.27463,-0.2801 2.78653,-0.6059 3.88645,-0.8156 1.09991,-0.2098 1.668,-0.2599 2.21505,-0.2815 0.5471,-0.022 1.07364,-0.014 1.5686,0.063 0.495,0.078 0.95377,0.2182 1.28364,0.3355 0.32989,0.1172 0.32989,0.1172 0.10998,0.039 0,0 -0.43985,-0.1564 -0.90808,-0.289 -0.46824,-0.1325 -0.94931,-0.3196 -1.46604,-0.4922 -0.51672,-0.1726 -1.06966,-0.3261 -1.6769,-0.4577 -0.60724,-0.1316 -2.33097,-0.2748 -3.81323,-0.364 -1.48224,-0.089 -2.73954,-0.1311 -3.77634,-0.1193 -1.03681,0.012 -1.86513,0.064 -2.50571,0.1572 -0.64052,0.093 -1.47986,0.281 -2.26565,0.5603 -0.78579,0.2792 -1.49656,0.6632 -2.11402,1.1892 -0.61747,0.5262 -1.10254,1.2082 -1.36642,1.8956 -0.2639,0.6872 -0.85135,2.5734 -1.33321,4.1787 -0.48186,1.6051 -0.95978,2.9007 -1.0717,3.9714 -0.11194,1.0705 -0.17036,1.8896 -0.14911,2.4575 0.0213,0.5679 0.16947,2.0319 0.35813,3.3777 0.18867,1.3457 0.41145,2.522 0.66475,3.5381 0.25329,1.016 0.55656,1.881 0.92028,2.6255 0.36373,0.7443 0.79721,1.317 1.26908,1.7551 0.47186,0.438 1.00441,0.7922 1.58418,1.0582 0.57976,0.266 1.19672,0.4466 1.86167,0.5604 0.66494,0.1139 1.3086,0.1227 1.77612,0.1077 0.46748,-0.015 0.84405,-0.033 1.13256,-0.049 0.28855,-0.016 0.49857,-0.031 0.64622,-0.048 0.14764,-0.017 1.17828,-0.2432 2.04128,-0.444 0.86298,-0.2009 1.55882,-0.3657 2.08772,-0.4829 0.52886,-0.1172 0.88885,-0.1869 1.00378,-0.2187 0.18756,-0.023 0.1669,-0.4641 0.2395,-0.4555 z"
             id="path50802" /></g><g
           style="fill:#000000;fill-opacity:1;stroke-linejoin:miter"
           id="g50808"
           transform="matrix(0.0212301,0.88760364,-0.82571352,0.02282136,2056.9295,403.92004)"><path
             d="m 268.0106,1271.09 c 0.47664,-0.2939 1.244,-1.0169 1.92482,-1.7873 0.68085,-0.7705 1.26612,-1.5917 1.76081,-2.4572 0.49469,-0.8656 0.8894,-1.7762 1.08731,-2.4092 0.19791,-0.633 0.27063,-0.9267 0.34518,-1.2539 0.0746,-0.3272 0.15134,-0.6895 0.22534,-1.0879 0.074,-0.3986 0.14878,-0.8335 0.23829,-1.4724 0.0895,-0.6388 0.18325,-1.3457 0.0315,-1.9466 -0.15178,-0.6007 -0.17455,-1.0769 -0.19552,-1.4333 -0.0209,-0.3563 -0.0342,-0.5889 -0.069,-1.0368 -0.0348,-0.4478 -0.0995,-1.0432 -0.15157,-1.5308 -0.052,-0.4876 -0.0914,-0.8667 -0.11813,-1.1358 -0.0267,-0.269 -0.0413,-0.4217 -0.1245,-1.4997 -0.0833,-1.0779 -0.263,-3.151 -0.30644,-3.4057 -0.0434,-0.2546 -0.11126,-0.5188 -0.20266,-0.7971 -0.0914,-0.2783 -0.20606,-0.5714 -0.29706,-0.8937 -0.091,-0.3224 -0.19574,-0.6675 -0.20294,-0.7256 -0.007,-0.058 -0.01,-0.1157 -0.008,-0.1726 0.002,-0.057 0.008,-0.113 0.0146,-0.1548 0.007,-0.042 0.007,-0.042 0.002,-0.014 0,0 -0.009,0.056 -0.0137,0.1121 -0.005,0.056 -0.005,0.1135 -5.7e-4,0.1712 0.004,0.058 0.0129,0.1161 0.11092,0.4542 0.098,0.338 0.16315,0.6576 0.17175,0.9603 0.009,0.3026 2.8e-4,0.5775 -0.0246,0.8232 -0.0248,0.2459 -0.0651,0.4552 -0.5241,2.4807 -0.45896,2.0254 -0.48047,2.1305 -0.5164,2.3431 -0.0359,0.2125 -0.087,0.5251 -0.1536,0.9428 -0.0666,0.4179 -0.14864,0.9416 -0.2424,1.5645 -0.0937,0.6228 -0.12267,0.737 -0.17272,1.0254 -0.05,0.2884 -0.11618,0.6892 -0.19354,1.2053 -0.0774,0.516 -0.41494,1.1365 -0.38727,1.8845 0.0276,0.748 0.0428,1.1738 0.0525,1.5789 0.01,0.405 0.0169,0.7702 0.0225,1.0953 0.006,0.3251 0.006,0.6089 0.007,0.8115 0.001,0.2027 -0.10498,1.0273 -0.26932,1.8471 -0.16433,0.8197 -0.41129,1.6546 -0.74075,2.5084 -0.3295,0.8538 -0.73808,1.7319 -0.90522,2.2286 -0.50619,0.8949 0.16431,0.7789 -0.17476,1.1772 z"
             id="path50806" /></g><g
           style="fill:#000000;fill-opacity:1;stroke-linejoin:miter"
           id="g50812"
           transform="matrix(0.0212301,0.88760364,-0.82571352,0.02282136,2056.9295,403.92004)"><path
             d="m 315.20294,1252.2302 c -1.25091,-0.1815 -3.49139,-0.2064 -5.43454,-0.3069 -1.94314,-0.1004 -3.58944,-0.3219 -4.93124,-0.6335 -1.34183,-0.3118 -2.36506,-0.7379 -3.27991,-1.4008 -0.91482,-0.6628 -1.9599,-1.6532 -2.83685,-2.6781 -0.87696,-1.025 -1.57547,-2.1068 -2.12296,-3.2393 -0.54748,-1.1326 -0.9487,-2.3296 -1.09952,-2.9692 -0.15082,-0.6396 -0.15892,-0.7401 -0.16278,-0.8404 -0.004,-0.1004 -0.003,-0.2008 10e-4,-0.3021 0.005,-0.1012 0.0133,-0.2035 0.0386,-0.6514 0.0254,-0.448 0.0642,-1.178 0.11642,-1.9158 0.0523,-0.7378 0.11807,-1.4835 0.19739,-2.2369 0.0793,-0.7534 0.17214,-1.5148 0.24347,-2.0418 0.0713,-0.527 0.14191,-0.8668 0.27757,-1.4317 0.13564,-0.565 0.33553,-1.3229 0.59825,-2.2577 0.26273,-0.9348 0.58759,-2.0412 0.8834,-3.7672 0.29577,-1.726 0.40359,-3.0319 0.52595,-4.2288 0.12233,-1.1969 0.24602,-2.2842 0.39397,-3.2565 0.14795,-0.9722 0.29593,-1.8283 0.41708,-2.8564 0.12115,-1.0281 0.13123,-1.4605 0.1463,-1.8915 0.0151,-0.431 0.0355,-0.8613 0.0611,-1.2903 0.0256,-0.4289 0.0566,-0.8568 0.0743,-1.0827 0.0176,-0.226 -0.006,0.014 -0.0247,0.1262 -0.0188,0.1126 -0.0117,0.1266 0.0271,0.068 0.0388,-0.058 0.11142,-0.1754 0.36435,-0.7774 0.25293,-0.6021 0.26025,-0.5485 0.59262,-0.8682 0.3324,-0.3196 1.02652,-0.8667 2.02081,-1.6135 0.99429,-0.747 2.2999,-1.6333 3.27228,-2.2002 0.97238,-0.567 1.93616,-0.9464 2.90039,-1.2566 0.96427,-0.3102 1.92709,-0.5672 2.8963,-0.7424 0.96917,-0.1752 1.94254,-0.2929 2.14147,-0.3062 0.199,-0.013 1.0057,0.2698 0.2127,-0.4691 -0.793,-0.7389 -0.79503,-0.7661 -0.72285,-0.6127 0.0722,0.1536 0.18213,0.4462 0.31421,0.8523 0.13208,0.4061 0.18584,0.1444 0.26452,3.0747 0.0787,2.9302 0.45005,5.375 0.73232,7.1927 0.28227,1.8176 0.51567,3.2747 0.6642,4.3637 0.1485,1.0891 0.232,1.7813 0.2517,1.9707 0.0197,0.1893 -0.0706,1.2954 -0.15047,2.218 -0.0799,0.9228 -0.15391,1.6369 -0.2157,2.1214 -0.0618,0.4846 -0.0898,0.6838 -0.084,0.6652 0.006,-0.019 -1.20242,2.9609 -1.8562,4.5189 -0.65381,1.5578 -1.02713,2.1375 -1.37017,2.7331 -0.3431,0.5955 -0.65952,1.2034 -0.95167,1.8219 -0.29217,0.6185 -0.56015,1.2474 -0.75633,1.7496 -0.19624,0.5021 -0.32732,0.912 -0.41917,1.3316 -0.0919,0.4194 -0.1453,0.8463 -0.15683,1.2792 -0.0116,0.4328 0.0133,0.8697 0.2822,1.9813 0.26888,1.1117 0.80117,2.5921 1.42617,3.7964 0.62497,1.2043 1.32987,2.1234 2.091,2.7477 0.76117,0.6242 1.51078,1.0463 2.10566,1.2602 0.59484,0.2139 0.59484,0.2139 0.19827,0.071 0,0 -0.79315,-0.2852 -1.41556,-0.8837 -0.6224,-0.5986 -1.05978,-1.4503 -1.36587,-2.5112 -0.3061,-1.061 -0.48594,-2.3444 -0.56022,-3.8562 -0.0743,-1.512 -0.0238,-1.6968 0.0364,-1.981 0.0602,-0.284 0.13727,-0.5423 0.2273,-0.7774 0.09,-0.2351 0.19583,-0.448 0.32337,-0.6543 0.12755,-0.2063 0.4576,-0.7169 0.7998,-1.2025 0.3422,-0.4855 0.70022,-0.9539 1.0739,-1.4056 0.37373,-0.4515 0.7587,-0.89 1.2726,-1.4924 0.51385,-0.6024 2.1705,-3.4276 3.0163,-4.855 0.8458,-1.4272 1.1033,-2.0341 1.2714,-2.5881 0.16813,-0.5538 0.34193,-1.2284 0.53834,-2.0708 0.19638,-0.8424 0.41846,-1.864 0.57181,-2.7542 0.15335,-0.8901 0.17831,-1.6352 0.17685,-2.6184 -0.001,-0.983 -0.0474,-2.2835 -0.12506,-3.9259 -0.0777,-1.6423 -0.17346,-3.6341 -0.13159,-5.9613 0.0419,-2.3271 0.21518,-5.3944 0.0469,-6.3958 -0.16827,-1.0015 -0.29571,-1.5581 -0.43887,-2.0724 -0.14316,-0.5142 -0.3186,-1.0111 -0.59506,-1.5603 -0.27646,-0.5491 -1.9617,-2.0952 -3.53182,-2.755 -1.5701,-0.6598 -3.6892,-0.7422 -5.03425,-0.6556 -1.34505,0.087 -2.68937,0.2621 -4.03278,0.5159 -1.34345,0.2538 -2.68341,0.592 -4.18213,1.0944 -1.49872,0.5023 -3.52798,1.5744 -5.13452,2.5229 -1.60657,0.9485 -2.90414,2.0259 -4.01129,3.1375 -1.10718,1.1114 -2.02163,2.3661 -2.52777,3.5426 -0.50611,1.1765 -0.41202,0.9386 -0.5817,1.336 -0.16968,0.3974 -0.32116,0.8122 -0.45206,1.2649 -0.13085,0.4527 -0.23162,0.9665 -0.26867,1.4148 -0.037,0.4484 -0.0423,0.9108 -0.0432,1.4146 -8.6e-4,0.5038 0.005,1.0075 0.0163,1.5114 0.0117,0.5041 0.0296,1.0082 0.0671,1.2476 0.0375,0.2395 -0.0331,0.922 -0.12872,2.002 -0.0957,1.0799 -0.15283,2.2439 -0.19428,3.4936 -0.0414,1.2499 -0.0595,2.5887 -0.0289,3.811 0.0306,1.2222 -0.13852,2.0752 -0.34836,3.2085 -0.20984,1.1332 -0.37759,2.1103 -0.50424,2.94 -0.12665,0.8296 -0.21344,1.5285 -0.25497,2.0912 -0.0416,0.5626 -0.0681,1.3934 -0.0821,2.2335 -0.0141,0.84 -0.0142,1.6713 -3e-4,2.4939 0.0139,0.8226 0.0418,1.6365 0.0885,2.4311 0.0467,0.7948 0.0617,1.0243 0.088,1.2991 0.0264,0.2747 0.064,0.5481 0.11287,0.8189 0.0488,0.2706 0.10893,0.5387 0.20348,0.8867 0.0946,0.3481 0.69525,1.9298 1.52042,3.4858 0.82516,1.5562 1.85674,2.9672 3.05966,4.2356 1.20294,1.2686 2.56909,2.3926 4.1463,3.3762 1.57724,0.9836 3.07238,1.5229 4.65292,1.755 1.58054,0.2322 3.32199,0.23 5.23639,0 1.9144,-0.2345 4.00601,-0.7127 5.08078,-1.2364 2.26617,-0.7372 0.99802,-0.9522 2.18939,-1.1657 z"
             id="path50810" /></g></g></g></g></svg>
