<?xml version="1.0" encoding="UTF-8" standalone="no"?>
<!-- Created with Inkscape (http://www.inkscape.org/) -->

<svg
   width="268.67789mm"
   height="268.67789mm"
   viewBox="0 0 268.67789 268.67789"
   version="1.1"
   id="svg5"
   xml:space="preserve"
   xmlns="http://www.w3.org/2000/svg"
   xmlns:svg="http://www.w3.org/2000/svg"><defs
     id="defs2" /><g
     id="layer1"
     transform="translate(1323.8278,-403.66946)"><g
       id="g53615"
       transform="translate(0,34.596527)"><rect
         style="display:inline;fill:none;fill-opacity:1;stroke:none;stroke-width:5.29167;stroke-dasharray:none;stroke-opacity:1"
         id="rect53387"
         width="268.67789"
         height="268.67789"
         x="-1323.8278"
         y="369.07294" /><g
         id="g52695"
         transform="matrix(2.2692001,0,0,2.2692001,-3555.0092,-740.76502)"><g
           style="fill:#000000;fill-opacity:1;stroke-linejoin:miter"
           id="g50760"
           transform="matrix(0.0212301,0.88760364,-0.82571352,0.02282136,2056.9295,403.92004)"><path
             d="m 91.83424,1277.6873 c 0.09846,-0.3427 0.2058,-1.0796 0.34652,-1.9007 0.14073,-0.8209 0.30224,-1.7268 0.48354,-2.7185 0.1813,-0.9918 0.391166,-2.0696 0.543296,-2.9433 0.152134,-0.8738 0.265194,-1.4131 0.377094,-1.8719 0.11188,-0.4588 0.217556,-0.8335 0.31854,-1.1148 0.10098,-0.2814 0.18407,-0.4595 0.326636,-0.7716 0.142564,-0.3121 0.298409,-0.6213 0.291794,-1.022 -0.0066,-0.4009 0.13448,-0.7589 0.298775,-1.1262 0.164285,-0.3675 0.356425,-0.7421 0.521935,-1.0533 0.16551,-0.311 0.23283,-0.4588 0.401084,-0.7265 0.168256,-0.2678 0.424496,-0.6309 0.762086,-1.0801 0.337584,-0.4492 0.74685,-0.9889 1.0816,-1.4392 0.334766,-0.4504 0.48897,-0.7028 0.63398,-0.9506 0.145015,-0.2478 0.28083,-0.4914 0.40423,-0.7328 0.12341,-0.2413 0.237176,-0.4784 0.38916,-0.8374 0.15198,-0.359 0.31782,-0.8106 0.44424,-1.2234 0.12642,-0.4128 0.24788,-0.7723 0.34978,-1.0922 0.10191,-0.3198 0.161136,-0.6103 0.18421,-0.8135 0.02307,-0.2031 0.02307,-0.2031 0.0077,-0.068 0,0 -0.03076,0.2708 -0.10422,0.571 -0.07345,0.3003 -0.18958,0.63 -0.38987,0.9685 -0.20029,0.3386 -0.4637,0.6896 -0.77299,1.0607 -0.309285,0.3711 -0.47446,0.5434 -0.652936,0.7228 -0.178464,0.1794 -0.365464,0.3604 -0.558944,0.5444 -0.19349,0.1838 -0.39636,0.369 -0.59235,0.5378 -0.19597,0.1687 -0.80347,0.5954 -1.33276,0.9894 -0.52929,0.3941 -0.9657,0.7409 -1.31726,1.0415 -0.351564,0.3007 -0.6249,0.5654 -0.7905,0.7588 -0.165594,0.1934 -0.48635,0.5278 -0.81316,0.9255 -0.326815,0.3977 -0.624125,0.8096 -0.889155,1.2361 -0.265035,0.4265 -0.742005,0.7671 -0.865705,1.213 -0.1237,0.446 -0.20713,0.7162 -0.29646,1.1465 -0.08932,0.4304 -0.143544,0.898 -0.17132,1.4141 -0.02778,0.5162 -0.02729,1.0872 -0.0097,1.7101 0.01757,0.6229 0.05916,1.7926 0.14057,2.8788 0.0814,1.0863 0.1779,2.0813 0.29724,2.9841 0.11933,0.9029 0.25336,1.7129 0.37873,2.086 0.13976,0.7148 0.560235,0.3549 0.57462,0.6965 z"
             id="path50758" /></g><g
           style="fill:#000000;fill-opacity:1;stroke-linejoin:miter"
           id="g50764"
           transform="matrix(0.0212301,0.88760364,-0.82571352,0.02282136,2056.9295,403.92004)"><path
             d="m 101.08033,1213.9596 c -0.0707,-0.2512 -0.26248,-0.6741 -0.42771,-1.046 -0.16524,-0.372 -0.30369,-0.6929 -0.41486,-0.9615 -0.11117,-0.2686 -0.19426,-0.4835 -0.29022,-0.7763 -0.09596,-0.2928 -0.24142,-0.7352 -0.39394,-1.1731 -0.15253,-0.438 -0.3105,-0.8722 -0.47131,-1.304 -0.16082,-0.4317 -0.32453,-0.8612 -0.44925,-1.2229 -0.124724,-0.3617 -0.2311,-0.7132 -0.31688,-1.0538 -0.08577,-0.3406 -0.14579,-0.6718 -0.18646,-0.9908 -0.04067,-0.3193 -0.06332,-0.6262 -0.06574,-0.8504 -0.0024,-0.2242 -0.302145,-0.4204 -0.342115,-0.6682 -0.03997,-0.2479 -0.07334,-0.5238 -0.10297,-0.8272 -0.02962,-0.3033 -0.05102,-0.633 -0.06244,-0.9233 -0.01142,-0.2901 -0.01761,-0.5113 -0.02236,-0.7161 -0.0047,-0.2045 -0.0081,-0.3927 -0.01005,-0.5639 -0.002,-0.1713 -0.0037,-0.3256 -0.0022,-0.8221 0.0015,-0.4965 0.0056,-1.2729 0.0044,-1.9213 -0.0012,-0.6486 -0.01336,-1.1702 -0.02736,-1.564 -0.014,-0.3937 -0.02978,-0.6609 -0.04333,-0.8301 -0.01355,-0.1693 -0.0056,-0.3579 0.0304,-0.5893 0.036,-0.2315 0.1124,-0.498 0.25115,-0.784 0.13876,-0.286 0.30979,-0.6032 0.4542,-0.8567 0.144406,-0.2535 0.144406,-0.2535 0.04813,-0.085 0,0 -0.19254,0.3381 -0.35281,0.645 -0.160274,0.3067 -0.28827,0.5823 -0.41881,0.8151 -0.13055,0.2327 -0.23089,0.4412 -0.29396,0.6292 -0.06307,0.1879 -0.10287,0.3603 -0.18529,0.6489 -0.08241,0.2887 -0.2081,0.7002 -0.373596,1.234 -0.165494,0.5338 -0.366494,1.1903 -0.608854,1.9702 -0.24236,0.7799 -0.2868,0.9385 -0.330644,1.1037 -0.04385,0.1653 -0.08976,0.3458 -0.138306,0.5417 -0.04855,0.1959 -0.09978,0.4074 -0.15394,0.6367 -0.05415,0.2294 -0.13713,0.6014 -0.20623,0.9639 -0.06911,0.3624 -0.123526,0.7103 -0.15831,1.0449 -0.03478,0.3345 -0.05367,0.6563 -0.15288,0.9951 -0.0992,0.3389 0.0088,0.7587 0.143894,1.1604 0.135046,0.4019 0.293466,0.8001 0.471376,1.1958 0.17791,0.3958 0.37447,0.79 0.60008,1.1932 0.22562,0.4033 0.51002,0.8031 0.77195,1.1667 0.26193,0.3637 0.52233,0.7311 0.7812,1.1024 0.258855,0.3714 0.521245,0.7439 0.78733,1.1266 0.26608,0.3827 0.410986,0.5765 0.58547,0.7816 0.17449,0.2051 0.38772,0.4457 0.640526,0.7235 0.252804,0.2778 0.545469,0.5932 0.739279,0.7409 0.33271,0.3535 0.55454,-0.096 0.69344,0.1101 z"
             id="path50762" /></g><g
           style="fill:#000000;fill-opacity:1;stroke-linejoin:miter"
           id="g50768"
           transform="matrix(0.0212301,0.88760364,-0.82571352,0.02282136,2056.9295,403.92004)"><path
             d="m 115.63889,1210.6196 c -0.30033,-0.2459 -0.91515,-0.6408 -1.48196,-1.0614 -0.56681,-0.4205 -1.09221,-0.8557 -1.57529,-1.3111 -0.4831,-0.4554 -0.92618,-0.9303 -1.24065,-1.44 -0.31446,-0.5097 -0.64195,-1.1456 -0.88764,-1.7107 -0.24567,-0.5652 -0.40609,-1.0543 -0.49556,-1.4499 -0.0895,-0.3958 -0.11123,-0.6876 -0.1194,-1.2024 -0.008,-0.5148 0.0104,-1.2089 0.0817,-1.9248 0.0713,-0.7161 -0.11324,-1.476 -0.11158,-2.2715 0.002,-0.7957 0.0477,-1.6311 0.097,-2.1697 0.0493,-0.5384 0.0784,-0.7773 0.11379,-1.0172 0.0354,-0.2399 0.077,-0.4808 0.12297,-0.7237 0.046,-0.243 0.0962,-0.488 0.28769,-1.2254 0.19145,-0.7373 0.48683,-1.8573 0.71031,-2.7661 0.22347,-0.9088 0.38808,-1.6016 0.48774,-2.0825 0.0997,-0.4811 0.14611,-0.7552 0.17044,-1.0012 0.0243,-0.2463 0.0549,-0.6224 0.0631,-0.9876 0.008,-0.3652 0.0115,-0.7178 0.0327,-1.0604 0.0212,-0.3427 0.0203,-0.6812 0.009,-0.933 -0.0117,-0.2518 -0.0117,-0.2518 -0.004,-0.084 0,0 0.0156,0.3358 0.009,0.6758 -0.006,0.3398 -0.035,0.6838 -0.13431,1.0228 -0.0993,0.339 -0.22909,0.6742 -0.38199,1.0119 -0.15291,0.3377 -0.18981,0.4338 -0.34769,0.7141 -0.15788,0.2804 -0.43974,0.7578 -0.83467,1.4299 -0.39492,0.6721 -0.90973,1.5353 -1.52968,2.6 -0.61995,1.0647 -0.76394,1.3459 -0.89156,1.6051 -0.12762,0.259 -0.24469,0.522 -0.35519,0.7875 -0.11048,0.2655 -0.21434,0.5335 -0.31392,0.82 -0.0996,0.2865 -0.36882,1.1986 -0.5875,2.1083 -0.21868,0.9098 -0.38382,1.8078 -0.48854,2.6942 -0.10473,0.8865 -0.003,1.7539 0.13743,2.5734 0.14029,0.8196 0.24441,1.3307 0.45842,1.9226 0.21401,0.5919 0.51798,1.1764 0.90412,1.7674 0.38613,0.5911 0.84109,1.2044 1.41897,1.8754 0.57788,0.6712 1.27757,1.1828 1.92312,1.5623 0.64555,0.3794 1.32265,0.7015 2.02578,0.9702 0.70314,0.2688 1.43091,0.4846 1.82704,0.5203 0.74685,0.1684 0.55022,-0.3714 0.90093,-0.2386 z"
             id="path50766" /></g><g
           style="fill:#000000;fill-opacity:1;stroke-linejoin:miter"
           id="g50772"
           transform="matrix(0.0212301,0.88760364,-0.82571352,0.02282136,2056.9295,403.92004)"><path
             d="m 113.939,1211.9873 -0.59148,-18.5898 -0.20757,-6.5229 0.79905,25.1127"
             id="path50770" /></g><g
           style="fill:#000000;fill-opacity:1;stroke-linejoin:miter"
           id="g50776"
           transform="matrix(0.0212301,0.88760364,-0.82571352,0.02282136,2056.9295,403.92004)"><path
             d="m 112.03865,1276.751 c -0.0326,-0.147 -0.13667,-0.4511 -0.23553,-0.8081 -0.0989,-0.3571 -0.19236,-0.7671 -0.28035,-1.2303 -0.088,-0.4631 -0.17617,-0.9775 -0.23457,-1.3721 -0.0584,-0.3947 -0.077,-0.66 -0.0879,-0.98 -0.0108,-0.3201 -0.008,-0.6939 0.009,-1.1199 0.017,-0.426 0.0489,-0.9034 0.0933,-1.4899 0.0445,-0.5865 0.0978,-1.2252 0.1655,-1.7971 0.0677,-0.5718 -0.23095,-1.0853 -0.27249,-1.5322 -0.0416,-0.4469 -0.0653,-0.8287 -0.0748,-1.1831 -0.009,-0.3545 -0.0161,-0.6959 -0.0225,-1.0209 -0.006,-0.3249 -0.0119,-0.6335 -0.0141,-0.9252 -0.002,-0.2917 -0.001,-0.5667 0.003,-0.811 0.004,-0.2444 0.0112,-0.4823 0.0237,-0.7434 0.0124,-0.2611 0.0277,-0.5457 0.0453,-0.8535 0.0176,-0.3078 0.0399,-0.6381 0.0555,-0.8643 0.0156,-0.2263 0.0185,-0.3221 0.0205,-0.4156 0.002,-0.093 0.003,-0.1846 0.003,-0.2735 9e-5,-0.089 -7.7e-4,-0.1755 -0.007,-0.3556 -0.006,-0.1799 -0.021,-0.446 -0.0153,-0.6984 0.006,-0.2524 0.0185,-0.4935 0.0237,-0.7249 0.005,-0.2314 0.003,-0.453 -0.003,-0.6144 -0.006,-0.1614 -0.006,-0.1614 -0.002,-0.054 0,0 0.007,0.2152 0.007,0.4401 -1.7e-4,0.2248 -0.008,0.4595 -0.0233,0.7039 -0.0153,0.2444 -0.0678,0.4956 -0.1417,0.7534 -0.0739,0.2579 -0.0991,0.3356 -0.12595,0.4166 -0.0269,0.081 -0.0554,0.1634 -0.0854,0.2478 -0.03,0.084 -0.0616,0.1705 -0.094,0.2548 -0.0324,0.085 -0.16796,0.4035 -0.29304,0.7068 -0.12507,0.3032 -0.23905,0.5882 -0.33852,0.8558 -0.0995,0.2676 -0.18713,0.5176 -0.2639,0.7491 -0.0768,0.2314 -0.16022,0.4936 -0.24526,0.7733 -0.085,0.2798 -0.1715,0.5763 -0.25944,0.8896 -0.0879,0.3133 -0.17219,0.644 -0.25722,0.9903 -0.085,0.3463 -0.17449,0.7235 -0.26131,1.1738 -0.0868,0.4503 -0.16975,0.9586 -0.29815,1.5266 -0.1284,0.568 -0.0535,1.1957 0.0286,1.8847 0.0821,0.6889 0.17776,1.242 0.28027,1.7357 0.1025,0.4935 0.2086,0.9393 0.31894,1.3384 0.11035,0.3989 0.22591,0.7528 0.3511,1.0566 0.12519,0.3037 0.37929,0.8254 0.62867,1.2939 0.24936,0.4686 0.49067,0.8838 0.72117,1.2469 0.23049,0.363 0.45028,0.6737 0.57952,0.8017 0.20755,0.2554 0.50001,-0.1 0.57832,0.027 z"
             id="path50774" /></g><g
           style="fill:#000000;fill-opacity:1;stroke-linejoin:miter"
           id="g50780"
           transform="matrix(0.0212301,0.88760364,-0.82571352,0.02282136,2056.9295,403.92004)"><path
             d="m 108.33859,1278.8065 c -0.13899,-0.367 -0.46947,-0.9834 -0.73184,-1.537 -0.26236,-0.5534 -0.46034,-1.0381 -0.59167,-1.4492 -0.13133,-0.4113 -0.19722,-0.7408 -0.23565,-1.1318 -0.0384,-0.3909 -0.0516,-0.8797 -0.0239,-1.3965 0.0277,-0.5167 0.081,-1.0623 0.17353,-1.64 0.0926,-0.5778 0.23544,-1.1868 0.41272,-1.8473 0.17729,-0.6607 0.3679,-1.3262 0.56394,-1.9657 0.19604,-0.6395 0.0814,-1.3341 0.18708,-1.961 0.10566,-0.6268 0.22142,-1.2357 0.29449,-1.6295 0.0731,-0.3939 0.10619,-0.5706 0.27634,-1.0488 0.17015,-0.4781 0.45987,-1.1901 0.85411,-2.1238 0.39424,-0.9336 0.88925,-2.0863 1.20712,-2.8547 0.31787,-0.7684 0.38253,-1.0272 0.4419,-1.3551 0.0594,-0.3279 0.11545,-0.728 0.19508,-1.1951 0.0796,-0.467 0.21846,-0.994 0.32788,-1.4265 0.10941,-0.4325 0.10941,-0.4325 0.0365,-0.1442 0,0 -0.14588,0.5767 -0.29461,1.075 -0.14874,0.4984 -0.34367,0.9044 -0.51477,1.2349 -0.1711,0.3305 -0.31741,0.5836 -0.43145,0.7474 -0.11406,0.1638 -1.04396,1.2309 -1.80535,2.1412 -0.76138,0.9103 -1.3513,1.662 -1.78907,2.2526 -0.43776,0.5906 -0.73191,1.0398 -0.8695,1.3434 -0.13758,0.3034 -0.40676,0.865 -0.67135,1.5039 -0.2646,0.6389 -0.51047,1.3039 -0.78023,1.9856 -0.26975,0.6816 -0.35963,1.4221 -0.41981,2.1833 -0.0602,0.7613 -0.0882,1.5131 -0.0767,2.2388 0.0115,0.7258 0.0566,1.4155 0.15587,2.0686 0.0992,0.653 0.24827,1.2671 0.43779,1.834 0.18952,0.5669 0.35467,0.9723 0.60702,1.404 0.25236,0.4317 0.57849,0.8724 0.98177,1.3279 0.40326,0.4555 0.88144,0.9315 1.19449,1.1401 0.55099,0.5007 0.65035,-0.066 0.8883,0.2255 z"
             id="path50778" /></g><g
           style="fill:#000000;fill-opacity:1;stroke-linejoin:miter"
           id="g50784"
           transform="matrix(0.0212301,0.88760364,-0.82571352,0.02282136,2056.9295,403.92004)"><path
             d="m 146.29597,1247.845 c 0.0778,-0.4524 0.0996,-1.2542 0.13431,-1.9307 0.0347,-0.6765 0.0746,-1.2237 0.1281,-1.634 0.0535,-0.4102 0.11194,-0.6659 0.17834,-0.8819 0.0664,-0.216 0.16578,-0.4757 0.33251,-0.8584 0.16673,-0.3825 0.40033,-0.876 0.68166,-1.4809 0.28134,-0.605 0.62995,-1.3125 0.97827,-2.2622 0.34831,-0.9499 0.54745,-1.6867 0.71133,-2.3075 0.16386,-0.6209 0.3105,-1.1201 0.43031,-1.4916 0.11982,-0.3716 0.20449,-0.6013 0.28829,-0.8365 0.0838,-0.2353 0.16771,-0.4521 0.26761,-0.6883 0.0999,-0.2362 0.21592,-0.491 0.34832,-0.7634 0.13242,-0.2725 0.2813,-0.5621 0.68058,-1.2108 0.39926,-0.6488 0.79467,-1.8006 1.1755,-2.7313 0.38085,-0.9308 0.66597,-1.6855 0.8692,-2.2697 0.20322,-0.5841 0.34092,-1.0278 0.37253,-1.1636 0.0316,-0.1358 0.14215,-0.488 0.24811,-0.941 0.10594,-0.453 0.22701,-1.0493 0.36823,-1.8014 0.1412,-0.7522 0.29519,-1.6661 0.40143,-2.467 0.10623,-0.8008 0.11656,-1.3428 0.0925,-1.9445 -0.024,-0.6017 -0.0805,-1.2672 -0.1788,-1.9999 -0.0983,-0.7328 -0.22981,-1.534 -0.35536,-2.2093 -0.12555,-0.6753 -0.23041,-1.1787 -0.34426,-1.6714 -0.11384,-0.4927 -0.23663,-0.9746 -0.32601,-1.4509 -0.0894,-0.4764 -0.15213,-0.9487 -0.20432,-1.2992 -0.0522,-0.3507 -0.0522,-0.3507 -0.0174,-0.117 0,0 0.0696,0.4675 0.1289,0.9424 0.0593,0.4749 0.0347,0.964 -0.007,1.4578 -0.0421,0.4939 -0.0957,0.9915 -0.16066,1.4956 -0.0649,0.504 -0.16333,1.3482 -0.2704,2.1037 -0.10706,0.7555 -0.21998,1.4246 -0.33266,2.005 -0.11269,0.5805 -0.23294,1.069 -0.35277,1.4389 -0.11984,0.3697 -0.4996,1.2899 -0.8186,2.0849 -0.319,0.795 -0.57805,1.4306 -0.77916,1.8992 -0.20111,0.4686 -0.33837,0.7559 -0.43209,0.9189 -0.0937,0.1633 -0.19668,0.409 -0.37951,0.7273 -0.18282,0.3183 -0.49889,0.8455 -0.92932,1.5597 -0.43044,0.7143 -0.96353,1.6149 -1.57213,2.7367 -0.6086,1.1217 -0.78757,1.6158 -0.90257,1.9861 -0.11503,0.3702 -0.21691,0.7279 -0.30545,1.0735 -0.0886,0.3456 -0.16372,0.6797 -0.21764,0.9739 -0.0539,0.2943 -0.10085,0.5276 -0.157,0.9199 -0.0562,0.3923 -0.10713,0.8778 -0.1638,1.469 -0.0567,0.5911 -0.11992,1.2921 -0.15657,2.0291 -0.0367,0.7368 -0.20253,1.4531 -0.38727,2.2102 -0.18474,0.7569 -0.32848,1.4078 -0.42273,1.9586 -0.0943,0.5508 -0.15405,1.0029 -0.17523,1.3467 -0.0212,0.3437 -0.0331,0.6479 0.008,1.0806 0.0408,0.4328 0.13793,0.945 0.28865,1.5528 0.1507,0.6079 0.35745,1.3161 0.5492,1.695 0.25712,0.8118 0.62212,0.314 0.68747,0.7469 z"
             id="path50782" /></g><g
           style="fill:#000000;fill-opacity:1;stroke-linejoin:miter"
           id="g50788"
           transform="matrix(0.0212301,0.88760364,-0.82571352,0.02282136,2056.9295,403.92004)"><path
             d="m 163.91473,1244.655 c -0.12516,-1.0523 -0.60554,-2.9203 -0.99052,-4.6333 -0.38498,-1.7131 -0.68008,-3.2729 -0.83958,-4.6936 -0.1595,-1.4205 -0.20823,-2.6943 -0.38651,-3.0422 -0.1783,-0.348 -0.20494,-0.3021 -0.23465,-0.265 -0.0297,0.037 -0.0575,0.06 -0.0779,0.069 -0.0205,0.01 -0.0289,0 0.25614,-0.2195 0.28504,-0.2214 1.0348,-0.8049 1.79716,-1.4599 0.76236,-0.6551 1.54074,-1.3763 2.33583,-2.1632 0.79507,-0.7871 1.60663,-1.6407 2.14798,-2.2349 0.54137,-0.5944 0.80888,-0.9034 1.07266,-1.2333 0.26377,-0.3298 0.52411,-0.6804 0.81319,-1.0221 0.28908,-0.3418 0.60165,-0.6842 0.83723,-0.952 0.23557,-0.2678 0.23557,-0.2678 0.0785,-0.089 0,0 -0.3141,0.357 -0.62591,0.6921 -0.31183,0.335 -0.66382,0.6051 -1.01688,0.8433 -0.35304,0.238 -0.69801,0.4527 -1.0375,0.6462 -0.3395,0.1935 -1.38703,0.7969 -2.38027,1.3506 -0.99324,0.5537 -1.92914,1.067 -2.81758,1.5264 -0.88846,0.4592 -1.7216,0.8748 -2.52093,1.2568 -0.79934,0.382 -1.10166,0.597 -1.2648,0.7444 -0.16315,0.1472 -0.31394,0.3176 -0.44642,0.5105 -0.13246,0.1927 -0.24214,0.4064 -0.34326,0.8572 -0.1011,0.4509 -0.22235,1.8767 0.1543,3.3691 0.37666,1.4924 0.94038,3.0339 1.66675,4.6314 0.72636,1.5972 1.63984,3.243 2.31873,4.0111 1.11037,1.6856 1.07276,0.5827 1.50423,1.5003 z"
             id="path50786" /></g></g></g></g></svg>
