<?xml version="1.0" encoding="UTF-8" standalone="no"?>
<!-- Created with Inkscape (http://www.inkscape.org/) -->

<svg
   width="268.67789mm"
   height="268.67789mm"
   viewBox="0 0 268.67789 268.67789"
   version="1.1"
   id="svg5"
   xml:space="preserve"
   xmlns="http://www.w3.org/2000/svg"
   xmlns:svg="http://www.w3.org/2000/svg"><defs
     id="defs2" /><g
     id="layer1"
     transform="translate(682.14368,249.03241)"><g
       id="g53741"><rect
         style="display:inline;fill:none;stroke:none;stroke-width:5.29167;stroke-dasharray:none;stroke-opacity:1"
         id="rect5042"
         width="268.67789"
         height="268.67789"
         x="-682.14368"
         y="-249.03241" /><path
         style="font-variation-settings:normal;fill:none;fill-opacity:1;stroke:#000000;stroke-width:5.29167;stroke-linecap:butt;stroke-linejoin:miter;stroke-miterlimit:4;stroke-dasharray:none;stroke-dashoffset:0;stroke-opacity:1;stop-color:#000000"
         d="m -654.61626,-167.43827 c 0,0 18.03163,-11.38842 27.52199,-4.74517 9.49035,6.64324 27.52203,-11.38842 27.52203,-11.38842 0,0 30.36909,-22.77684 37.01235,-20.87877"
         id="path3451" /><path
         style="font-variation-settings:normal;fill:none;fill-opacity:1;stroke:#000000;stroke-width:5.29167;stroke-linecap:butt;stroke-linejoin:miter;stroke-miterlimit:4;stroke-dasharray:none;stroke-dashoffset:0;stroke-opacity:1;stop-color:#000000"
         d="m -526.49658,-215.83905 c 0,0 -4.74516,19.92974 45.55367,10.43939 0,0 3.79616,-7.59228 39.85949,42.70657"
         id="path3453" /><path
         style="font-variation-settings:normal;fill:none;fill-opacity:1;stroke:#000000;stroke-width:5.29167;stroke-linecap:butt;stroke-linejoin:miter;stroke-miterlimit:4;stroke-dasharray:none;stroke-dashoffset:0;stroke-opacity:1;stop-color:#000000"
         d="m -479.04481,-137.06915 c 8.54128,-49.34982 -43.6556,-22.77684 -43.6556,-22.77684 0,0 40.80849,6.64324 43.6556,22.77684 z"
         id="path3455" /><path
         style="font-variation-settings:normal;fill:none;fill-opacity:1;stroke:#000000;stroke-width:5.29167;stroke-linecap:butt;stroke-linejoin:miter;stroke-miterlimit:4;stroke-dasharray:none;stroke-dashoffset:0;stroke-opacity:1;stop-color:#000000"
         d="m -585.33673,-135.17109 c 0,0 -16.13362,-19.92972 -39.85947,6.64326 0,0 17.08261,-72.12668 39.85947,-6.64326 z"
         id="path3457" /><path
         style="font-variation-settings:normal;fill:none;fill-opacity:1;fill-rule:nonzero;stroke:#000000;stroke-width:5.292;stroke-linecap:butt;stroke-linejoin:miter;stroke-miterlimit:4;stroke-dasharray:none;stroke-dashoffset:0;stroke-opacity:1;stop-color:#000000"
         d="m -514.15912,-63.993462 c -48.40077,-23.72587 -116.73127,14.235521 -116.73127,14.235521 0,0 38.91042,76.871831 123.37454,-0.949031"
         id="path3459" /></g></g></svg>
