<?xml version="1.0" encoding="UTF-8" standalone="no"?>
<!-- Created with Inkscape (http://www.inkscape.org/) -->

<svg
   width="268.67789mm"
   height="268.67789mm"
   viewBox="0 0 268.67789 268.67789"
   version="1.1"
   id="svg5"
   xml:space="preserve"
   xmlns="http://www.w3.org/2000/svg"
   xmlns:svg="http://www.w3.org/2000/svg"><defs
     id="defs2" /><g
     id="layer1"
     transform="translate(1620.2488,-84.44136)"><g
       id="g53683"><rect
         style="display:inline;fill:none;fill-opacity:1;stroke:none;stroke-width:5.29167;stroke-dasharray:none;stroke-opacity:1"
         id="rect53393"
         width="268.67789"
         height="268.67789"
         x="-1620.2488"
         y="84.44136" /><g
         id="g52727"
         transform="matrix(2.7334105,0,0,2.7334105,-3922.8167,-1604.123)"><g
           style="fill:#000000;fill-opacity:1;stroke-linejoin:miter"
           id="g50624"
           transform="matrix(0.0212301,0.88760364,-0.82571352,0.02282136,2056.9295,403.92004)"><path
             d="m 230.5592,1467.3896 c -0.42186,-0.199 -1.20141,-0.4655 -1.84993,-0.7493 -0.64851,-0.2839 -1.16412,-0.5738 -1.54301,-0.8625 -0.37888,-0.2887 -0.6234,-0.5637 -0.98349,-0.9633 -0.36009,-0.3996 -0.66708,-0.7177 -0.91786,-0.9938 -0.25078,-0.2761 -0.44176,-0.5081 -0.56541,-0.6908 -0.12366,-0.1829 -0.17496,-0.303 -0.2444,-0.4671 -0.0694,-0.164 -0.0995,-0.279 -0.13761,-0.4553 -0.0381,-0.1763 -0.0804,-0.4085 -0.12016,-0.6937 -0.0398,-0.2852 -0.0734,-0.621 -0.0961,-0.9459 -0.0227,-0.3249 -0.0159,-0.6159 0.0214,-0.9569 0.0373,-0.3411 0.10913,-0.73 0.21043,-1.165 0.10128,-0.435 0.2319,-0.9152 0.45826,-1.6207 0.22636,-0.7054 0.56422,-1.6842 0.94156,-2.7525 0.37735,-1.0684 0.79979,-2.2247 1.05481,-3.5353 0.255,-1.3107 0.59292,-2.7017 0.82498,-3.7145 0.23204,-1.0127 0.28799,-1.4504 0.33023,-1.8986 0.0422,-0.4481 0.071,-0.9066 0.0866,-1.3756 0.0157,-0.4691 0.0185,-0.9492 0.0144,-1.266 -0.004,-0.3167 -0.008,-0.4575 -0.0155,-0.5963 -0.007,-0.1388 -0.0166,-0.2755 -0.029,-0.4101 -0.0124,-0.1347 -0.0275,-0.2675 -0.0838,-0.5745 -0.0564,-0.3069 -0.14536,-0.7285 -0.24449,-1.2318 -0.0991,-0.5033 -0.20941,-1.0861 -0.33435,-1.7467 -0.12495,-0.6608 -0.26033,-1.3989 -0.38549,-2.1576 -0.12515,-0.7587 -0.23042,-1.4337 -0.31804,-1.9757 -0.0876,-0.542 -0.1576,-0.9517 -0.21157,-1.2327 -0.054,-0.281 -0.0949,-0.4536 -0.12967,-0.5735 -0.0348,-0.1197 -0.11908,-0.4079 -0.25133,-0.7607 -0.13226,-0.3527 -0.31239,-0.7754 -0.52845,-1.2748 -0.21603,-0.4994 -0.39385,-1.0995 -0.54488,-1.5904 -0.15105,-0.4911 -0.15105,-0.4911 -0.0504,-0.1637 0,0 0.20139,0.6546 0.33464,1.2364 0.13326,0.5819 0.18247,1.0925 0.20903,1.5115 0.0266,0.4191 0.0303,0.7434 0.0133,0.9836 -0.017,0.2404 -0.007,0.312 -0.0263,0.4723 -0.0188,0.1603 -0.0551,0.4713 -0.11328,0.9189 -0.0581,0.4473 -0.13823,1.0295 -0.23703,1.7559 -0.0988,0.7265 -0.16839,1.5512 -0.226,2.2875 -0.0576,0.7362 -0.0967,1.4001 -0.11906,1.9929 -0.0223,0.5928 -0.0248,1.1155 -0.0184,1.552 0.006,0.4365 -0.006,0.4386 -0.0151,0.522 -0.009,0.083 -0.0193,0.1703 -0.0322,0.2605 -0.0129,0.09 -0.0281,0.184 -0.0452,0.275 -0.0171,0.091 -0.0975,0.5219 -0.18484,0.9257 -0.0874,0.4037 -0.18219,0.7885 -0.28408,1.1542 -0.10189,0.3656 -0.21057,0.7115 -0.30868,0.9883 -0.0981,0.2768 -0.67224,1.6498 -1.20508,2.9825 -0.53284,1.3327 -1.07786,2.5681 -1.34274,3.7907 -0.26488,1.2227 -0.47966,2.3621 -0.65135,3.4207 -0.1717,1.0586 -0.25696,1.7168 -0.30751,2.33 -0.0506,0.6131 -0.0609,1.1955 -0.0377,1.7474 0.0232,0.552 0.0758,1.0758 0.16655,1.5576 0.0907,0.4817 0.21165,0.9241 0.34091,1.3233 0.12926,0.399 0.26597,0.7645 0.41649,1.0988 0.15051,0.3345 0.31808,0.6419 0.48327,0.8827 0.16518,0.2409 0.32352,0.4616 0.58094,0.7479 0.25741,0.2863 0.55514,0.5544 0.89787,0.8186 0.34273,0.2645 0.74135,0.5217 1.15114,0.7508 0.40979,0.2292 0.76124,0.5105 1.33038,0.8191 0.56915,0.3084 1.21895,0.516 1.9465,0.6411 0.72756,0.1252 1.53715,0.1716 1.9825,0.099 0.89238,-0.02 0.49623,-0.5046 0.94325,-0.452 z"
             id="path50622" /></g><g
           style="fill:#000000;fill-opacity:1;stroke-linejoin:miter"
           id="g50628"
           transform="matrix(0.0212301,0.88760364,-0.82571352,0.02282136,2056.9295,403.92004)"><path
             d="m 224.68146,1408.768 c 0.7014,-0.3935 1.77389,-1.2449 2.61414,-1.9556 0.84025,-0.7107 1.4642,-1.2711 1.89266,-1.6883 0.42847,-0.4171 0.70748,-0.7752 0.85971,-1.0308 0.15223,-0.2558 0.38324,-0.6453 0.58393,-1.0283 0.20068,-0.383 0.37347,-0.7608 0.51199,-1.139 0.13853,-0.3783 0.24023,-0.7597 0.33423,-1.2966 0.094,-0.5367 0.19874,-1.2383 0.27771,-1.9431 0.079,-0.7047 0.15166,-1.4123 0.20212,-2.1225 0.0505,-0.7102 0.0773,-1.4229 0.0776,-2.2197 2.5e-4,-0.7967 -0.0158,-1.582 -0.0447,-2.3085 -0.029,-0.7265 -0.0729,-1.395 -0.12523,-2.0079 -0.0523,-0.6129 -0.11382,-1.1726 -0.14252,-1.6019 -0.0287,-0.4293 -0.0483,-0.938 -0.0543,-1.374 -0.006,-0.4362 -0.006,-0.7967 -0.11764,-1.0686 -0.11139,-0.272 -0.13713,-0.4626 -0.1413,-0.5118 -0.004,-0.049 0.0182,-0.551 0.004,-1.1203 -0.0144,-0.5692 -0.0587,-1.2267 -0.12865,-1.9841 -0.0699,-0.7576 -0.15342,-1.6202 -0.20703,-3.088 -0.0536,-1.4677 -0.0775,-3.7485 -0.0798,-3.7978 -0.002,-0.049 -2.6e-4,-0.1197 0.001,-0.1738 0.002,-0.054 0.002,-0.09 -0.001,-0.1033 -0.003,-0.013 -0.0851,0.1693 0.28149,-0.7029 0.36663,-0.872 0.92275,-1.879 1.68222,-3.0422 0.75946,-1.1633 1.71807,-2.4788 2.4486,-3.6426 0.73053,-1.1637 0.73053,-1.1637 0.0832,-0.552 0,0 -1.77568,0.7312 -3.04264,1.7465 -1.26697,1.0152 -2.31565,2.0066 -3.13518,2.995 -0.81955,0.9885 -1.38913,1.9085 -1.46794,2.1115 -0.0788,0.203 -0.1148,0.3163 -0.14715,0.4295 -0.0323,0.1133 -0.0625,0.2291 -0.0917,0.3501 -0.0292,0.121 -0.0657,0.3193 -0.48268,2.6064 -0.41699,2.2872 -0.44678,3.3946 -0.48833,4.1768 -0.0415,0.7822 -0.0943,1.4388 -0.15155,1.9624 -0.0573,0.5237 -0.11214,0.9023 -0.17584,1.2363 -0.0637,0.334 -0.0784,0.8453 -0.16992,1.1643 -0.0915,0.3188 -0.0405,0.6812 0.0319,1.1013 0.0724,0.4201 0.16081,0.9016 0.2622,1.492 0.10142,0.5903 0.23586,1.1383 0.35123,1.6242 0.11539,0.4859 0.23435,1.0433 0.3573,1.6692 0.12296,0.6259 0.25888,1.3183 0.3967,2.0628 0.1378,0.7445 0.22832,1.3567 0.30576,1.9974 0.0774,0.6408 0.1497,1.2844 0.20091,1.9314 0.0512,0.647 0.0808,1.297 0.10472,1.9487 0.0239,0.6518 0.0324,0.8361 0.0236,1.0488 -0.009,0.2127 -0.0436,0.4663 -0.10898,0.7565 -0.0653,0.2903 -0.16479,0.6131 -0.31093,0.9986 -0.14613,0.3856 -0.12988,0.4309 -0.2487,0.6693 -0.1188,0.2384 -0.44354,0.7628 -0.93748,1.5157 -0.49395,0.7531 -1.14113,1.7375 -1.41732,2.3948 -0.79126,1.2201 0.0448,0.9514 -0.47024,1.5141 z"
             id="path50626" /></g><g
           style="fill:#000000;fill-opacity:1;stroke-linejoin:miter"
           id="g50632"
           transform="matrix(0.0212301,0.88760364,-0.82571352,0.02282136,2056.9295,403.92004)"><path
             d="m 249.18098,1402.2677 -0.51155,-0.021 -9.147,-0.3747 9.65855,0.3956"
             id="path50630" /></g><g
           style="fill:#000000;fill-opacity:1;stroke-linejoin:miter"
           id="g50636"
           transform="matrix(0.0212301,0.88760364,-0.82571352,0.02282136,2056.9295,403.92004)"><path
             d="m 240.05115,1400.0828 c 0.0178,-0.4233 -0.0414,-1.2162 -0.0502,-1.9805 -0.009,-0.7643 0.0231,-1.4988 0.0962,-2.2057 0.0731,-0.7069 0.19127,-1.3879 0.29168,-1.8079 0.1004,-0.4199 0.1508,-0.6005 0.19067,-0.753 0.0399,-0.1524 0.0749,-0.2738 0.1038,-0.3604 0.029,-0.086 0.0491,-0.1307 0.18538,-0.4533 0.13629,-0.3228 0.37807,-0.8903 0.57874,-1.3755 0.20068,-0.4852 0.35826,-0.8904 0.47971,-1.218 0.12142,-0.3275 0.20684,-0.5882 0.49416,-1.6743 0.28733,-1.0864 0.48597,-3.024 0.5149,-3.2354 0.0289,-0.2114 0.0777,-0.4701 0.13409,-0.7208 0.0564,-0.2508 0.12044,-0.4933 0.1922,-0.7283 0.0718,-0.235 0.15129,-0.4628 0.48927,-1.3312 0.33798,-0.8685 0.65633,-1.6255 0.96315,-2.2737 0.30684,-0.6481 0.60732,-1.1832 0.89298,-1.6095 0.28566,-0.4262 0.61429,-0.7907 0.73942,-0.9554 0.12514,-0.1648 0.43409,-0.3159 0.97823,-0.4478 0.54413,-0.1318 1.2998,-0.2277 1.97066,-0.2944 0.67085,-0.066 0.67085,-0.066 0.22943,-0.1072 0,0 -0.86537,-0.3364 -1.60408,-0.4604 -0.73871,-0.124 -1.35283,-0.1292 -1.87689,0.015 -0.52405,0.1444 -0.81006,0.3722 -1.26929,0.6875 -0.45921,0.3155 -0.95784,0.7623 -1.47211,1.3136 -0.51426,0.5513 -1.04962,1.205 -1.59781,1.9672 -0.5482,0.7623 -1.09654,1.625 -1.26039,1.9082 -0.16385,0.2833 -0.31863,0.5769 -0.46428,0.8806 -0.14566,0.3037 -0.28206,0.6171 -0.40942,0.9402 -0.12737,0.323 -0.26962,0.7666 -0.58148,2.714 -0.31188,1.9474 -0.31497,2.0257 -0.34836,2.2599 -0.0334,0.2341 -0.0897,0.5749 -0.16648,1.0136 -0.0767,0.4386 -0.16798,0.9743 -0.28399,1.6043 -0.116,0.6301 -0.14386,0.7582 -0.16525,0.9014 -0.0214,0.1431 -0.037,0.2972 -0.0492,0.4692 -0.0122,0.172 -0.0217,0.3646 -0.0248,0.6011 -0.003,0.2363 0.0322,1.0162 0.125,1.8088 0.0928,0.7925 0.25105,1.5789 0.47513,2.3569 0.22409,0.7782 0.51199,1.547 0.73979,1.9134 0.34148,0.7588 0.64586,0.2452 0.75954,0.6377 z"
             id="path50634" /></g><g
           style="fill:#000000;fill-opacity:1;stroke-linejoin:miter"
           id="g50640"
           transform="matrix(0.0212301,0.88760364,-0.82571352,0.02282136,2056.9295,403.92004)"><path
             d="m 253.14641,1398.1898 c 0.009,-0.176 -0.0136,-0.5444 -0.0147,-0.9604 -0.001,-0.416 0.0195,-0.8797 0.0604,-1.3913 0.041,-0.5116 0.0956,-1.071 0.13049,-1.4104 0.0349,-0.3394 0.0524,-0.4039 0.0892,-0.5901 0.0368,-0.1861 0.0961,-0.4675 0.17776,-0.8366 0.0817,-0.369 0.18582,-0.8242 0.27635,-1.2139 0.0905,-0.3896 0.14678,-0.6446 0.19797,-0.8872 0.0512,-0.2427 0.1015,-0.4725 0.15083,-0.6891 0.0493,-0.2165 0.0992,-0.4198 0.0292,-0.9933 -0.07,-0.5735 -0.0696,-1.4166 -0.0623,-2.1709 0.007,-0.7541 0.0172,-1.4199 0.0387,-1.9959 0.0214,-0.5761 0.0541,-1.0617 0.10555,-1.5893 0.0514,-0.5277 0.12883,-1.1106 0.22314,-1.6261 0.0943,-0.5155 0.2108,-0.9629 0.39734,-1.3128 0.18652,-0.3501 0.37772,-0.6295 0.52342,-0.8037 0.14571,-0.1741 0.14571,-0.1741 0.0486,-0.058 0,0 -0.19427,0.2322 -0.38391,0.5351 -0.18963,0.303 -0.37462,0.6765 -0.62704,1.0949 -0.25242,0.4183 -0.51519,0.9106 -0.78529,1.4763 -0.27009,0.5658 -0.44668,0.9863 -0.6331,1.4951 -0.18641,0.5089 -0.38659,1.105 -0.59819,1.7892 -0.21157,0.6842 -0.42704,1.4575 -0.74882,2.3033 -0.32178,0.8457 -0.32518,1.0469 -0.33189,1.2773 -0.007,0.2303 -0.0124,0.4716 -0.0163,0.7242 -0.004,0.2524 -0.006,0.5162 1.8e-4,0.791 0.006,0.2749 0.0246,0.8067 0.0425,1.255 0.0178,0.4484 0.0352,0.8124 0.0522,1.0954 0.017,0.2828 0.0336,0.4935 0.0524,0.6176 0.0188,0.1243 0.1299,0.7239 0.25149,1.2862 0.12158,0.5621 0.2552,1.0709 0.39494,1.5266 0.13976,0.4555 0.28569,0.8578 0.38917,1.0364 0.15131,0.3453 0.52189,0.059 0.56971,0.2254 z"
             id="path50638" /></g><g
           style="fill:#000000;fill-opacity:1;stroke-linejoin:miter"
           id="g50644"
           transform="matrix(0.0212301,0.88760364,-0.82571352,0.02282136,2056.9295,403.92004)"><path
             d="m 251.17949,1456.5891 c -0.0415,-0.063 -0.16956,-0.2401 -0.33051,-0.5276 -0.16095,-0.2876 -0.34892,-0.6835 -0.56148,-1.186 -0.21256,-0.5027 -0.4546,-1.1082 -0.61334,-1.528 -0.15873,-0.4198 -0.2007,-0.5804 -0.23296,-0.7513 -0.0323,-0.171 -0.0528,-0.3539 -0.0612,-0.5498 -0.008,-0.1961 -0.004,-0.4052 -0.006,-0.5637 -0.002,-0.1586 0.0172,-0.013 0.0365,-0.087 0.0193,-0.075 0.0554,-0.2349 0.10823,-0.4628 0.0528,-0.2279 0.11942,-0.5208 0.30414,-1.0282 0.18474,-0.5073 0.56737,-1.5203 1.23517,-4.1306 0.66781,-2.6104 1.1759,-4.693 1.38086,-6.1209 0.20495,-1.4279 0.19726,-1.7973 0.16497,-2.1572 -0.0323,-0.3597 -0.0905,-0.7098 -0.17632,-1.0486 -0.0858,-0.3388 -0.20032,-0.6648 -0.30637,-0.9356 -0.10607,-0.2709 -0.58321,-0.8763 -1.03168,-1.1074 -0.44849,-0.231 -0.8882,-0.3367 -1.38451,-0.3945 -0.4963,-0.058 -1.07174,-0.084 -2.3556,-0.044 -1.28388,0.04 -2.97962,0.1433 -4.36673,0.2535 -1.38711,0.1101 -2.46433,0.2207 -3.22803,0.2559 -0.76372,0.035 -1.22012,0.044 -1.41049,0.069 -0.19035,0.025 -0.19035,0.025 -0.0635,0.01 0,0 0.25382,-0.033 0.8115,-0.03 0.55769,0 1.41229,0.1707 2.56228,0.4385 1.14998,0.2679 2.5987,0.5997 4.34244,0.9944 1.74373,0.3945 2.27687,0.5422 2.70508,0.6743 0.42819,0.132 0.71562,0.2486 0.82385,0.3166 0.10821,0.068 -0.0274,-0.01 -0.21432,-0.2504 -0.18689,-0.2435 -0.12067,0.026 -0.11014,0.1738 0.0105,0.1478 0.009,0.3106 -0.006,0.4902 -0.015,0.1797 -0.0449,0.3767 -0.0724,0.4877 -0.0275,0.111 -0.80803,2.206 -1.22157,4.7519 -0.41353,2.5459 -0.55986,5.2182 -0.70482,6.1288 -0.14496,0.9108 -0.17256,1.4191 -0.16472,1.7088 0.008,0.2895 0.0164,0.5183 0.0242,0.6928 0.008,0.1745 0.0148,0.3169 0.0278,0.4226 0.013,0.1056 0.0726,0.3566 0.15289,0.6435 0.0803,0.2868 0.17647,0.5595 0.28908,0.8173 0.11261,0.2578 0.24185,0.4997 0.3874,0.7186 0.14557,0.2188 0.60564,0.8036 1.01976,1.294 0.41413,0.4904 0.77724,0.8881 1.08783,1.1958 0.31059,0.3076 0.57135,0.5268 0.70525,0.602 0.21098,0.127 0.37668,-0.2862 0.45378,-0.2343 z"
             id="path50642" /></g><g
           style="fill:#000000;fill-opacity:1;stroke-linejoin:miter"
           id="g50648"
           transform="matrix(0.0212301,0.88760364,-0.82571352,0.02282136,2056.9295,403.92004)"><path
             d="m 246.64835,1457.7819 c -0.32355,-0.046 -0.91764,-0.075 -1.45444,-0.1629 -0.53679,-0.088 -1.01561,-0.2315 -1.44066,-0.4176 -0.42505,-0.1861 -0.8,-0.4184 -1.1873,-0.7002 -0.38732,-0.2817 -0.78659,-0.5881 -1.20357,-0.9284 -0.41698,-0.3404 -0.85958,-0.7023 -1.32246,-1.0958 -0.46291,-0.3933 -0.93912,-0.8276 -1.17438,-1.0634 -0.23526,-0.236 -0.2916,-0.3239 -0.36147,-0.4467 -0.0699,-0.1228 -0.14941,-0.2814 -0.23704,-0.4737 -0.0876,-0.1925 -0.18086,-0.4192 -0.25452,-0.7034 -0.0737,-0.2842 -0.15336,-0.7456 -0.20004,-1.2127 -0.0467,-0.4671 -0.0657,-0.941 -0.21951,-1.4218 -0.15387,-0.481 -0.21212,-0.9954 -0.22396,-1.3365 -0.0118,-0.341 0.0386,-0.7272 0.0914,-1.081 0.0527,-0.3539 0.10739,-0.6749 0.16342,-0.9624 0.056,-0.2875 0.10995,-0.5415 0.18869,-0.8419 0.0788,-0.3005 0.21646,-0.7349 0.37347,-1.2124 0.15702,-0.4776 0.33924,-0.995 0.54697,-1.5511 0.20773,-0.556 0.43472,-1.1535 0.59929,-1.5914 0.16457,-0.438 0.21905,-0.6378 0.25954,-0.8319 0.0405,-0.1941 0.0664,-0.3829 0.0772,-0.566 0.0108,-0.1833 0.006,-0.3609 -0.0188,-0.5411 -0.0245,-0.1802 -0.0606,-0.3442 -0.10386,-0.4943 -0.0432,-0.1502 -0.0936,-0.287 -0.15152,-0.4112 -0.0579,-0.1241 -0.12493,-0.2357 -0.3303,-0.2077 -0.20536,0.028 -0.20536,0.028 -0.18367,0.067 0,0 -0.30224,0.2499 -0.29249,0.3196 0.01,0.07 0.015,0.1566 0.014,0.261 -0.001,0.1042 -0.007,0.2251 -0.021,0.3569 -0.0136,0.1317 -0.036,0.2256 -0.0698,0.3289 -0.0338,0.1031 -0.0796,0.2129 -0.13834,0.3291 -0.0587,0.1163 -0.13087,0.2394 -0.20854,0.3524 -0.0777,0.113 -0.4897,0.6372 -0.87196,1.1542 -0.38226,0.5171 -0.72996,1.0102 -1.04636,1.4785 -0.31642,0.4682 -0.60059,0.9132 -0.85053,1.3437 -0.24995,0.4307 -0.39791,0.7354 -0.53292,1.0415 -0.135,0.3061 -0.26905,0.6388 -0.40429,0.9985 -0.13523,0.3596 -0.27208,0.7469 -0.42512,1.2467 -0.15306,0.4998 -0.25285,1.2695 -0.41274,1.956 -0.15988,0.6864 -0.0499,1.361 0.10894,2.0159 0.15884,0.655 0.37077,1.2873 0.63018,1.9128 0.2594,0.6256 0.49538,1.0528 0.68985,1.3513 0.19449,0.2987 0.39901,0.573 0.61399,0.8252 0.21499,0.2524 0.44296,0.4826 0.71121,0.7071 0.26826,0.2246 0.90079,0.5942 1.48973,0.9214 0.58894,0.3272 1.15062,0.6312 1.69585,0.8958 0.54524,0.2647 1.07046,0.4943 1.56993,0.6938 0.49946,0.1994 1.03908,0.4013 1.63322,0.5285 0.59413,0.1273 1.19927,0.168 1.81151,0.1182 0.61224,-0.05 1.22911,-0.1779 1.53467,-0.3195 0.61964,-0.2011 0.22438,-0.5691 0.53847,-0.6286 z"
             id="path50646" /></g><g
           style="fill:#000000;fill-opacity:1;stroke-linejoin:miter"
           id="g50652"
           transform="matrix(0.0212301,0.88760364,-0.82571352,0.02282136,2056.9295,403.92004)"><path
             d="m 294.02155,1442.39 c -1.0203,-1.9625 -3.64029,-5.3002 -3.61775,-5.2934 0.0226,0.01 0.0408,0.015 0.0638,0.038 0.0231,0.022 0.0447,0.054 0.0614,0.087 0.0167,0.033 0.0282,0.072 0.15255,-0.446 0.12433,-0.5181 0.35321,-1.3866 0.68161,-2.593 0.32844,-1.2063 0.76324,-2.7427 1.28918,-4.609 0.52596,-1.8664 1.11982,-4.047 1.24816,-4.3979 0.12834,-0.3509 0.2993,-0.8038 0.5106,-1.3103 0.2113,-0.5063 0.45197,-1.068 0.71005,-1.6882 0.25805,-0.6202 0.52283,-1.1989 0.84571,-2.2036 0.3229,-1.0048 0.63656,-1.8922 0.89288,-2.6442 0.25629,-0.7519 0.45688,-1.3738 0.5994,-1.8857 0.14251,-0.512 0.20466,-0.8161 0.32028,-1.3014 0.11566,-0.4852 0.22681,-1.0182 0.32922,-1.565 0.10242,-0.5468 0.19284,-1.109 0.26216,-1.6889 0.0693,-0.5799 0.1256,-1.1915 0.14946,-1.8317 0.0238,-0.6401 0.0299,-1.2379 0.0189,-1.8009 -0.011,-0.563 -0.0394,-1.092 -0.0861,-1.5882 -0.0466,-0.4963 -0.11239,-0.9629 -0.2113,-1.4496 -0.0989,-0.4867 -0.25496,-1.1002 -0.47596,-1.8529 -0.221,-0.7527 -0.51147,-1.6485 -0.86523,-2.6908 -0.35373,-1.0423 -0.78265,-2.2239 -0.82177,-2.3484 -0.0392,-0.1245 -0.07,-0.2356 -0.0902,-0.3131 -0.0202,-0.078 -0.031,-0.1133 -0.0517,-0.064 -0.0208,0.049 -0.002,0.01 -0.01,-0.014 -0.008,-0.022 -0.007,-0.045 0.0312,-0.1054 0.0383,-0.06 0.11207,-0.1465 0.21933,-0.25 0.10724,-0.1036 0.2374,-0.217 1.37623,-1.0237 1.13884,-0.8069 1.13884,-0.8069 0.32214,-0.3771 0,0 -1.80588,0.5352 -1.9937,0.6141 -0.18785,0.079 -0.34788,0.159 -0.48643,0.2471 -0.13855,0.088 -0.25791,0.1924 -0.35685,0.3308 -0.099,0.1383 -0.12942,0.2109 -0.15887,0.2905 -0.0295,0.08 -0.0481,0.1964 -0.0575,0.3082 -0.009,0.1115 -0.015,0.2375 -0.0178,0.3857 -0.003,0.1483 0.002,0.3525 0.0691,1.5545 0.0668,1.2021 0.12708,2.2344 0.172,3.1003 0.0449,0.8657 0.0769,1.5619 0.093,2.0809 0.0161,0.5191 0.009,0.8491 -0.02,1.216 -0.0285,0.3667 -0.0779,0.7758 -0.14908,1.225 -0.0712,0.4494 -0.16473,0.9378 -0.28104,1.4646 -0.1163,0.5268 -0.25351,1.0776 -0.38906,1.5752 -0.13559,0.4976 -0.27677,0.9792 -0.4195,1.4378 -0.1427,0.4586 -0.29657,0.8917 -0.4606,1.2988 -0.16403,0.4071 -0.35547,0.8538 -0.47864,1.1448 -0.12317,0.291 -0.32159,0.7037 -0.59701,1.2729 -0.27539,0.5693 -0.63292,1.2826 -1.07074,2.1348 -0.43784,0.8521 -1.05378,1.8832 -1.29056,2.6545 -0.23679,0.7713 -0.43782,1.4457 -0.59775,2.0777 -0.15994,0.6318 -0.29727,1.2157 -0.41767,1.7524 -0.1204,0.5369 -0.23742,1.117 -0.51382,3.291 -0.27638,2.174 -0.47898,4.0079 -0.62051,5.5108 -0.14151,1.5028 -0.24289,2.6737 -0.28375,3.5298 -0.0409,0.856 -0.0326,1.3955 -0.0135,1.6516 0.0191,0.256 0.0738,0.5023 0.16307,0.7366 0.0892,0.2342 0.20897,0.4489 0.3514,0.6403 0.14242,0.1913 0.33376,0.389 2.25158,1.4495 3.41302,2.5446 2.22449,0.7516 3.71967,2.2357 z"
             id="path50650" /></g></g></g></g></svg>
