<?xml version="1.0" encoding="UTF-8" standalone="no"?>
<!-- Created with Inkscape (http://www.inkscape.org/) -->

<svg
   width="268.67789mm"
   height="268.67789mm"
   viewBox="0 0 268.67789 268.67789"
   version="1.1"
   id="svg5"
   xml:space="preserve"
   xmlns="http://www.w3.org/2000/svg"
   xmlns:svg="http://www.w3.org/2000/svg"><defs
     id="defs2" /><g
     id="layer1"
     transform="translate(90.184082,-915.4905)"><g
       id="g3875"
       transform="matrix(1.4186776,0,0,1.4186776,-409.52361,1204.7959)"
       style="stroke-width:3.73;stroke-dasharray:none"><rect
         style="display:inline;fill:none;stroke:none;stroke-width:5.29167;stroke-dasharray:none;stroke-opacity:1"
         id="rect4663"
         width="268.67789"
         height="268.67789"
         x="339.86292"
         y="979.47229"
         transform="matrix(0.70488179,0,0,0.70488179,-14.466563,-894.33829)" /><path
         style="font-variation-settings:normal;opacity:1;fill:none;fill-opacity:1;stroke:#000000;stroke-width:3.73;stroke-linecap:butt;stroke-linejoin:miter;stroke-miterlimit:4;stroke-dasharray:none;stroke-dashoffset:0;stroke-opacity:1;stop-color:#000000;stop-opacity:1"
         d="m 248.18481,-148.50163 c 0,0 24.84772,-16.66258 49.11078,-13.73932 0,0 26.30934,24.26306 27.47865,26.89399"
         id="path3820" /><path
         style="font-variation-settings:normal;opacity:1;fill:none;fill-opacity:1;stroke:#000000;stroke-width:3.73;stroke-linecap:butt;stroke-linejoin:miter;stroke-miterlimit:4;stroke-dasharray:none;stroke-dashoffset:0;stroke-opacity:1;stop-color:#000000;stop-opacity:1"
         d="m 342.02147,-143.23976 c 0,0 3.21559,-26.30934 36.83307,-31.27889"
         id="path3822" /><path
         style="font-variation-settings:normal;opacity:1;fill:none;fill-opacity:1;stroke:#000000;stroke-width:3.73;stroke-linecap:butt;stroke-linejoin:miter;stroke-miterlimit:4;stroke-dasharray:none;stroke-dashoffset:0;stroke-opacity:1;stop-color:#000000;stop-opacity:1"
         d="m 377.68524,-174.81097 c 0,0 18.41654,7.01582 19.00119,8.18513"
         id="path3824" /><path
         style="font-variation-settings:normal;opacity:1;fill:none;fill-opacity:1;stroke:#000000;stroke-width:3.73;stroke-linecap:butt;stroke-linejoin:miter;stroke-miterlimit:4;stroke-dasharray:none;stroke-dashoffset:0;stroke-opacity:1;stop-color:#000000;stop-opacity:1"
         d="m 358.68406,-137.97789 c 0,0 7.30813,-21.04748 33.90982,3.80024"
         id="path3826" /><path
         style="font-variation-settings:normal;opacity:1;fill:none;fill-opacity:1;stroke:#000000;stroke-width:3.73;stroke-linecap:butt;stroke-linejoin:miter;stroke-miterlimit:4;stroke-dasharray:none;stroke-dashoffset:0;stroke-opacity:1;stop-color:#000000;stop-opacity:1"
         d="m 296.12629,-133.30067 c 0,0 -26.01703,-13.15468 -36.83309,5.84651"
         id="path3828" /><path
         style="font-variation-settings:normal;opacity:1;fill:none;fill-opacity:1;stroke:#000000;stroke-width:3.73;stroke-linecap:butt;stroke-linejoin:miter;stroke-miterlimit:4;stroke-dasharray:none;stroke-dashoffset:0;stroke-opacity:1;stop-color:#000000;stop-opacity:1"
         d="m 261.04716,-69.865924 c 0,0 17.83187,-22.21678 54.95728,-7.308152 0,0 17.53958,4.384891 33.90984,-1.753956 16.37026,-6.138847 23.67841,7.015825 23.67841,7.015825"
         id="path3830" /><path
         style="font-variation-settings:normal;opacity:1;fill:none;fill-opacity:1;stroke:#000000;stroke-width:3.73;stroke-linecap:butt;stroke-linejoin:miter;stroke-miterlimit:4;stroke-dasharray:none;stroke-dashoffset:0;stroke-opacity:1;stop-color:#000000;stop-opacity:1"
         d="m 275.37113,-69.865924 c 0,0 32.74052,22.509106 58.17288,10.816063 0,0 38.87937,-3.507913 43.84892,-6.723499"
         id="path3832" /></g></g></svg>
