<?xml version="1.0" encoding="UTF-8" standalone="no"?>
<!-- Created with Inkscape (http://www.inkscape.org/) -->

<svg
   width="268.67789mm"
   height="268.67789mm"
   viewBox="0 0 268.67789 268.67789"
   version="1.1"
   id="svg5"
   xml:space="preserve"
   xmlns="http://www.w3.org/2000/svg"
   xmlns:svg="http://www.w3.org/2000/svg"><defs
     id="defs2" /><g
     id="layer1"
     transform="translate(90.18408,-621.99511)"><g
       id="g4116"
       transform="rotate(18.864892,-471.9986,-2018.6955)"
       style="stroke-width:5.29167;stroke-dasharray:none"><path
         style="font-variation-settings:normal;opacity:1;fill:none;fill-opacity:1;stroke:#000000;stroke-width:5.29167;stroke-linecap:butt;stroke-linejoin:miter;stroke-miterlimit:4;stroke-dasharray:none;stroke-dashoffset:0;stroke-opacity:1;stop-color:#000000;stop-opacity:1"
         d="m 801.558,418.61089 c 0,0 9.35445,-35.37146 50.57241,-26.30935 0,0 11.69306,6.43119 14.90864,-11.10838"
         id="path4014" /><path
         style="font-variation-settings:normal;opacity:1;fill:none;fill-opacity:1;stroke:#000000;stroke-width:5.29167;stroke-linecap:butt;stroke-linejoin:miter;stroke-miterlimit:4;stroke-dasharray:none;stroke-dashoffset:0;stroke-opacity:1;stop-color:#000000;stop-opacity:1"
         d="m 818.80524,425.3344 c 0,0 21.04747,-26.60169 46.18752,-1.1693 0,0 4.96955,4.67721 -2.3386,5.55419 0,0 -27.47865,4.67721 -33.61749,11.40071 l 2.04628,-13.73932"
         id="path4016" /><path
         style="font-variation-settings:normal;opacity:1;fill:none;fill-opacity:1;stroke:#000000;stroke-width:5.29167;stroke-linecap:butt;stroke-linejoin:miter;stroke-miterlimit:4;stroke-dasharray:none;stroke-dashoffset:0;stroke-opacity:1;stop-color:#000000;stop-opacity:1"
         d="m 910.59562,359.85336 c 0,0 13.15466,24.26306 12.86235,-4.96954 -0.29234,-29.23262 49.11077,-16.66258 49.11077,-16.66258 0,0 13.73934,4.38488 15.20095,0.29231"
         id="path4018" /><path
         style="font-variation-settings:normal;opacity:1;fill:none;fill-opacity:1;stroke:#000000;stroke-width:5.29167;stroke-linecap:butt;stroke-linejoin:miter;stroke-miterlimit:4;stroke-dasharray:none;stroke-dashoffset:0;stroke-opacity:1;stop-color:#000000;stop-opacity:1"
         d="m 953.27522,401.07134 c 0,0 -9.35443,-24.84774 39.46403,-25.43239 l 3.80024,-11.69302 c 0,0 -19.58584,-10.81607 -30.40191,8.47745 0,0 -23.97073,-6.43117 -25.72469,13.73933 z"
         id="path4020" /><path
         style="font-variation-settings:normal;opacity:1;fill:none;fill-opacity:1;stroke:#000000;stroke-width:5.29167;stroke-linecap:butt;stroke-linejoin:miter;stroke-miterlimit:4;stroke-dasharray:none;stroke-dashoffset:0;stroke-opacity:1;stop-color:#000000;stop-opacity:1"
         d="m 903.5798,535.54132 c 1.1693,-36.24845 90.32875,-38.87938 90.32875,-38.87938 0,0 -13.73934,-33.03284 -15.49329,-34.49447 -1.75395,-1.46161 -28.94028,-19.00119 -34.49447,-9.93908 -5.55418,9.06212 9.35443,22.50911 -23.09375,18.70888 -32.44819,-3.80027 -43.55659,28.06329 -43.55659,28.06329 0,0 -2.33859,21.63213 8.76979,38.87936"
         id="path4022" /><rect
         style="display:inline;fill:none;stroke:none;stroke-width:5.29167;stroke-dasharray:none;stroke-opacity:1"
         id="rect4650"
         width="268.67789"
         height="268.67789"
         x="339.86292"
         y="685.97693"
         transform="rotate(-18.864892,-449.53971,-692.40209)" /></g></g></svg>
