<?xml version="1.0" encoding="UTF-8" standalone="no"?>
<!-- Created with Inkscape (http://www.inkscape.org/) -->

<svg
   width="268.67789mm"
   height="268.67789mm"
   viewBox="0 0 268.67789 268.67789"
   version="1.1"
   id="svg5"
   xml:space="preserve"
   xmlns="http://www.w3.org/2000/svg"
   xmlns:svg="http://www.w3.org/2000/svg"><defs
     id="defs2" /><g
     id="layer1"
     transform="translate(1296.8806,183.41841)"><g
       id="g53647"
       transform="translate(13.473685,36.982424)"><rect
         style="display:inline;fill:none;fill-opacity:1;stroke:none;stroke-width:5.29167;stroke-dasharray:none;stroke-opacity:1"
         id="rect53371"
         width="268.67789"
         height="268.67789"
         x="-1310.3542"
         y="-220.40083" /><g
         id="g52663"
         transform="matrix(2.8188459,0,0,2.8188459,-4088.237,-1207.6659)"><g
           style="fill:#000000;fill-opacity:1;stroke-linejoin:miter"
           id="g50732"
           transform="matrix(0.0212301,0.88760364,-0.82571352,0.02282136,2056.9295,403.92004)"><path
             d="m -77.35789,1275.4808 c 0.01805,-0.3048 -0.01553,-0.9015 -0.01221,-1.5147 0.0033,-0.6134 0.04033,-1.2437 0.10452,-1.8919 0.06419,-0.6481 0.15246,-1.3158 0.22058,-1.7561 0.06812,-0.4402 0.13884,-0.6415 0.29767,-1.0359 0.15882,-0.3944 0.38952,-0.9522 0.71215,-1.6538 0.32263,-0.7014 0.73402,-1.5427 1.128014,-2.2832 0.394006,-0.7405 0.783706,-1.4416 1.033176,-2.2401 0.249455,-0.7985 0.50888,-1.626 0.76513,-2.4884 0.25626,-0.8624 0.50096,-1.7632 0.64269,-2.3227 0.14173,-0.5595 0.233626,-0.8342 0.34284,-1.1294 0.109216,-0.2955 0.23567,-0.6109 0.37782,-0.9466 0.142155,-0.3357 0.29725,-0.6932 0.509045,-1.1584 0.211795,-0.4651 0.503805,-1.0041 0.863105,-1.5418 0.3593,-0.5377 0.788216,-1.0732 1.291634,-1.6007 0.50341,-0.5275 1.138946,-0.9496 1.652856,-1.2442 0.51391,-0.2946 0.51391,-0.2946 0.1713,-0.098 0,0 -0.68521,0.3928 -1.3489,0.7571 -0.66369,0.3644 -1.3059,0.7234 -1.897566,1.1274 -0.591664,0.404 -1.123764,0.8617 -1.594954,1.357 -0.47119,0.4952 -0.75085,0.8162 -1.00936,1.1269 -0.25851,0.3107 -0.494166,0.6143 -0.71114,0.9083 -0.21697,0.2941 -0.4154,0.5794 -0.605574,0.8803 -0.190166,0.3008 -0.651451,1.1479 -1.079262,1.9425 -0.427814,0.7946 -0.837534,1.5566 -1.322029,2.2455 -0.484495,0.6889 -0.731905,1.4411 -1.007195,2.1953 -0.27529,0.7543 -0.567634,1.845 -0.77542,2.7462 -0.20779,0.9013 -0.37349,1.6568 -0.47898,2.2802 -0.105486,0.6234 -0.15291,1.1287 -0.14353,1.5022 0.0094,0.3735 0.08606,1.095 0.19765,1.8109 0.111604,0.7158 0.2591,1.3968 0.445215,2.0411 0.186111,0.6442 0.40216,1.2512 0.567525,1.5327 0.24331,0.567 0.58527,0.1669 0.6632,0.4525 z"
             id="path50730" /></g><g
           style="fill:#000000;fill-opacity:1;stroke-linejoin:miter"
           id="g50736"
           transform="matrix(0.0212301,0.88760364,-0.82571352,0.02282136,2056.9295,403.92004)"><path
             d="m -65.613,1224.0984 c -0.85512,-1.9812 -3.16347,-5.4127 -3.30063,-5.6607 -0.13716,-0.2479 -0.277105,-0.5379 -0.408765,-0.8503 -0.131661,-0.3125 -0.258185,-0.6457 -0.378785,-1.0009 -0.1206,-0.3551 -0.204536,-0.6574 -1.95988,-4.472 -1.75534,-3.8147 -1.83792,-3.9779 -1.914456,-4.1293 -0.07653,-0.1513 -0.145344,-0.2945 -0.206504,-0.4297 -0.06116,-0.1351 -0.1147,-0.2619 -0.15731,-0.3575 -0.04261,-0.096 -0.232644,-0.8212 -0.380555,-1.5194 -0.147919,-0.6983 -0.255525,-1.3732 -0.314945,-2.0265 -0.05942,-0.6532 -0.02611,-1.2782 0.06397,-1.7241 0.09007,-0.4458 0.09007,-0.4458 0.03002,-0.1486 0,0 -0.1201,0.5945 -0.27968,1.2178 -0.159575,0.6233 -0.30419,1.2919 -0.409964,2.0082 -0.105776,0.7163 -0.162286,1.4784 -0.169436,1.9743 -0.0072,0.4959 0.0062,0.6579 0.02512,0.8274 0.01886,0.1696 0.04316,0.3472 0.0728,0.5327 0.02965,0.1857 0.0646,0.3796 0.51797,2.5411 0.45337,2.1616 1.54128,6.2242 1.7859,6.6843 0.24462,0.4601 0.48466,0.8591 0.738364,1.2324 0.253716,0.3734 0.518706,0.7223 0.791901,1.0477 0.273195,0.3255 0.582649,0.6641 2.379165,1.8277 3.14782,2.7115 2.1244,0.8774 3.4757,2.4254 z"
             id="path50734" /></g><g
           style="fill:#000000;fill-opacity:1;stroke-linejoin:miter"
           id="g50740"
           transform="matrix(0.0212301,0.88760364,-0.82571352,0.02282136,2056.9295,403.92004)"><path
             d="m -55.24901,1221.2283 c -0.242033,-0.349 -0.741766,-0.9533 -1.140707,-1.5725 -0.398937,-0.6193 -0.707943,-1.247 -0.933167,-1.8871 -0.225219,-0.6402 -0.367566,-1.2989 -0.431946,-1.7377 -0.06438,-0.4387 -0.08422,-0.6362 -0.12561,-0.9956 -0.04139,-0.3595 -0.09285,-0.8655 -0.43373,-1.4584 -0.34089,-0.5929 -0.59201,-1.346 -0.774102,-1.8758 -0.182088,-0.5298 -0.250874,-0.7309 -0.310745,-0.9151 -0.05987,-0.1842 -0.110855,-0.3513 -0.153013,-0.5012 -0.04216,-0.1498 -0.07554,-0.2816 -0.102595,-0.3961 -0.02706,-0.1145 -0.05577,-0.2485 -0.09222,-0.4764 -0.03645,-0.2278 -0.07813,-0.5413 -0.124896,-0.9374 -0.04676,-0.3961 -0.09865,-0.8742 -0.131324,-1.2184 -0.03268,-0.3441 -0.03171,-0.5111 0.0021,-0.6881 0.03386,-0.177 0.07851,-0.3666 0.133963,-0.5687 0.05546,-0.2023 0.121717,-0.4172 0.176813,-0.5845 0.0551,-0.1674 0.0551,-0.1674 0.01836,-0.056 0,0 -0.07346,0.2231 -0.136117,0.4337 -0.06266,0.2107 -0.114513,0.4087 -0.155567,0.594 -0.04105,0.1854 -0.07131,0.3583 -0.114757,0.5168 -0.04345,0.1585 -0.162243,0.6812 -0.26004,1.1265 -0.0978,0.4452 -0.174636,0.814 -0.230486,1.1077 -0.05584,0.2937 -0.09053,0.5157 -0.101767,0.6638 -0.01123,0.148 -0.02285,0.2821 -0.02934,0.4473 -0.0065,0.1653 -0.009,0.3467 -0.0076,0.5447 0.0014,0.1981 0.0066,0.4132 0.01519,0.6424 0.0086,0.2292 0.03992,1.1198 0.0814,1.874 0.04149,0.7543 -0.182505,1.4269 -0.03658,1.8939 0.14592,0.4671 0.260733,0.8138 0.348254,1.0284 0.08752,0.2146 0.409736,0.9664 0.834274,1.7048 0.424538,0.7384 0.938852,1.3995 1.537142,1.978 0.598295,0.5786 1.27418,1.0739 1.680315,1.2449 0.739677,0.4177 0.664951,-0.1788 0.998495,0.068 z"
             id="path50738" /></g><g
           style="fill:#000000;fill-opacity:1;stroke-linejoin:miter"
           id="g50744"
           transform="matrix(0.0212301,0.88760364,-0.82571352,0.02282136,2056.9295,403.92004)"><path
             d="m -53.585045,1223.7174 c 0.581845,-0.2864 1.509911,-0.9846 2.291745,-1.671 0.781833,-0.6863 1.41414,-1.3683 1.911113,-2.0474 0.496977,-0.6792 0.854183,-1.3728 1.057547,-1.8559 0.20337,-0.4832 0.42098,-0.9547 0.606394,-1.3846 0.185413,-0.4299 0.332889,-0.8256 0.437656,-1.2005 0.104767,-0.3749 0.16578,-0.747 0.243706,-1.2094 0.07793,-0.4622 0.181194,-1.2069 0.248546,-1.8923 0.06736,-0.6853 0.0939,-1.3185 0.06205,-1.9108 -0.03185,-0.5923 -0.129696,-1.1575 -0.532822,-1.796 -0.40312,-0.6383 -0.956264,-1.4335 -1.649658,-2.188 -0.693397,-0.7545 -1.522722,-1.4829 -2.501648,-2.1816 -0.97892,-0.6987 -2.105844,-1.3737 -3.05632,-1.8667 -0.950481,-0.4932 -1.549038,-0.7623 -2.060928,-0.9799 -0.511896,-0.2175 -0.939411,-0.3811 -1.2845,-0.4913 -0.345093,-0.1102 -0.611276,-0.1719 -0.800034,-0.199 -0.188755,-0.027 -0.435158,-0.036 -0.726345,0 -0.291187,0.038 -0.634007,0.1183 -1.038947,0.2029 -0.404943,0.084 -0.87835,0.1698 -1.266236,0.2491 -0.387886,0.079 -0.387886,0.079 -0.129294,0.026 0,0 0.51718,-0.1058 0.968703,-0.1808 0.451522,-0.075 0.843013,-0.059 1.158287,-0.019 0.315273,0.04 0.549503,0.098 0.710598,0.1726 0.161094,0.075 0.317832,0.1472 0.530235,0.29 0.212402,0.1429 0.500887,0.3644 0.863773,0.6587 0.362884,0.2942 0.797402,0.6635 1.291348,1.1016 0.49395,0.4381 1.447571,1.3592 2.250016,2.217 0.802443,0.8578 1.45698,1.6411 1.96007,2.3476 0.50309,0.7064 0.84616,1.3344 0.943287,1.9325 0.09713,0.5979 0.154416,0.6848 0.235603,0.9345 0.08119,0.2499 0.160455,0.6259 0.22698,1.1133 0.06652,0.4874 0.102565,1.078 0.11456,1.7883 0.01199,0.7104 0.02974,0.9388 0.03417,1.0911 0.0044,0.1522 -0.01627,0.405 -0.06423,0.7398 -0.04796,0.3345 -0.126304,0.7425 -0.256272,1.2578 -0.129966,0.5152 -0.206153,1.0656 -0.349216,1.592 -0.143058,0.5265 -0.425084,1.1752 -0.843319,1.9319 -0.418235,0.7567 -0.965137,1.6195 -1.209495,2.1538 -0.680973,0.9601 0.05949,0.8458 -0.377125,1.2716 z"
             id="path50742" /></g><g
           style="fill:#000000;fill-opacity:1;stroke-linejoin:miter"
           id="g50748"
           transform="matrix(0.0212301,0.88760364,-0.82571352,0.02282136,2056.9295,403.92004)"><path
             d="m -60.18237,1274.5417 c -0.06483,-0.2152 -0.269683,-0.7185 -0.495418,-1.3933 -0.225738,-0.6746 -0.477242,-1.5177 -0.766037,-2.5239 -0.288791,-1.0062 -0.610378,-2.1781 -0.828155,-3.0046 -0.217774,-0.8267 -0.268544,-1.2176 -0.26949,-1.606 -9.46e-4,-0.3884 0.03798,-0.7765 0.11503,-1.17 0.07705,-0.3936 0.19311,-0.7973 0.3631,-1.2465 0.16999,-0.4493 0.40341,-0.9398 0.52568,-1.4914 0.12227,-0.5516 0.317758,-1.0992 0.553773,-1.6551 0.236019,-0.5559 0.513417,-1.1199 0.705765,-1.4858 0.192352,-0.366 0.323635,-0.5838 0.484757,-0.8433 0.161125,-0.2595 0.349605,-0.5611 0.567382,-0.9016 0.217778,-0.3406 0.464569,-0.7197 0.861496,-1.2783 0.396923,-0.5585 0.948849,-1.323 1.47271,-2.0776 0.523865,-0.7547 1.010517,-1.5075 1.469797,-2.2483 0.45928,-0.741 0.972834,-1.4025 1.362955,-1.8803 0.390122,-0.4778 0.390122,-0.4778 0.130039,-0.1593 0,0 -0.52016,0.6371 -1.131794,1.2229 -0.611633,0.586 -1.28984,1.1371 -1.98933,1.6919 -0.699486,0.5547 -1.418644,1.1152 -2.170265,1.6897 -0.751621,0.5743 -1.148277,0.9334 -1.480122,1.2327 -0.331843,0.2992 -0.628227,0.5711 -0.888933,0.817 -0.260713,0.2458 -0.483877,0.4686 -0.687105,0.6844 -0.203232,0.2159 -0.681957,0.7801 -1.117155,1.3675 -0.435194,0.5875 -0.83093,1.1899 -1.276705,1.7699 -0.445785,0.5799 -0.646005,1.2629 -0.806705,1.9498 -0.1607,0.687 -0.26673,1.3389 -0.302914,1.9803 -0.03618,0.6415 -0.0051,1.2698 0.09803,1.8795 0.10316,0.6097 0.272884,1.1963 0.49966,1.76 0.22678,0.5635 0.88464,1.7595 1.49113,2.7784 0.606496,1.0188 1.16104,1.8754 1.65614,2.572 0.495102,0.6968 0.922116,1.238 1.145485,1.4407 0.354512,0.3838 0.576058,-0.053 0.707195,0.1286 z"
             id="path50746" /></g><g
           style="fill:#000000;fill-opacity:1;stroke-linejoin:miter"
           id="g50752"
           transform="matrix(0.0212301,0.88760364,-0.82571352,0.02282136,2056.9295,403.92004)"><path
             d="m -61.283726,1272.6654 c 0.475386,0.1149 1.368226,0.1349 2.200581,0.055 0.832359,-0.079 1.603075,-0.2699 2.307083,-0.5785 0.704006,-0.3087 1.334252,-0.7368 1.677702,-1.0315 0.34345,-0.2946 0.5493,-0.4968 0.77079,-0.7409 0.221487,-0.244 0.462797,-0.538 0.73238,-0.8824 0.269587,-0.3442 0.575056,-0.7368 0.9028,-1.205 0.32774,-0.4683 0.610252,-0.8961 0.915916,-1.347 0.30566,-0.4506 0.62867,-0.9276 0.979561,-1.4245 0.350893,-0.497 0.731235,-1.0127 0.914257,-1.5188 0.183021,-0.506 0.281646,-0.7593 0.369296,-1.0005 0.08765,-0.2413 0.16444,-0.4719 0.230325,-0.6936 0.06589,-0.2216 0.120819,-0.4368 0.182861,-0.7749 0.06204,-0.3382 0.111974,-0.8209 0.117661,-1.3106 0.0057,-0.4896 -0.03227,-0.9852 -0.115717,-1.4856 -0.08344,-0.5004 -0.20526,-1.0062 -0.328596,-1.392 -0.123334,-0.3859 -0.187624,-0.5218 -0.256802,-0.6568 -0.06918,-0.1349 -0.143166,-0.2689 -0.221822,-0.4022 -0.07865,-0.1333 -0.161994,-0.2659 -0.51782,-0.7627 -0.35583,-0.4968 -0.89955,-1.2269 -1.334306,-1.8131 -0.434757,-0.5861 -0.755804,-1.0298 -0.964561,-1.3257 -0.208756,-0.2959 -0.295633,-0.4256 -0.476313,-0.7473 -0.18068,-0.3217 -0.470682,-0.8263 -0.702322,-1.2673 -0.23164,-0.4409 -0.347271,-0.8339 -0.408138,-1.1558 -0.06087,-0.3218 -0.07464,-0.5701 -0.06143,-0.7195 0.01321,-0.1495 0.01321,-0.1495 0.0044,-0.05 0,0 -0.01762,0.1993 0.01186,0.4722 0.02947,0.2728 0.106037,0.6191 0.189415,1.0522 0.08338,0.4331 0.173815,0.9578 0.297798,1.5596 0.123977,0.6018 0.119163,0.6689 0.193277,0.9411 0.07411,0.2722 0.21136,0.6938 0.415804,1.2788 0.204446,0.5851 0.475396,1.3364 0.821148,2.2463 0.345758,0.9098 0.369866,1.0006 0.402688,1.1131 0.03282,0.1126 0.06126,0.2217 0.0852,0.3268 0.02395,0.1052 0.04358,0.2065 0.04385,0.2452 2.67e-4,0.039 0.01153,0.4571 0.0035,0.851 -0.008,0.3939 -0.04268,0.7545 -0.09579,1.0818 -0.05311,0.3272 -0.128262,0.6222 -0.228012,0.9021 -0.09975,0.28 -0.134844,0.3432 -0.190949,0.4504 -0.0561,0.1073 -0.128865,0.2378 -0.218262,0.3888 -0.08939,0.151 -0.195483,0.3212 -0.394969,0.4205 -0.199486,0.099 -0.478829,0.6795 -0.756691,1.2769 -0.277863,0.5973 -0.544453,1.1654 -0.788563,1.7109 -0.244107,0.5455 -0.463394,1.0697 -0.644325,1.5425 -0.180928,0.4728 -0.366625,0.8965 -0.557655,1.2957 -0.191037,0.3993 -0.361165,0.7315 -0.50398,0.9968 -0.142814,0.2653 -0.24904,0.4636 -0.333225,0.6006 -0.08419,0.1368 -0.390825,0.5952 -0.748741,0.9675 -0.357922,0.3725 -0.827969,0.721 -1.419098,1.0398 -0.591129,0.3189 -1.305576,0.6028 -1.693266,0.8025 -0.84103,0.2335 -0.355493,0.6339 -0.808836,0.6676 z"
             id="path50750" /></g><g
           style="fill:#000000;fill-opacity:1;stroke-linejoin:miter"
           id="g50756"
           transform="matrix(0.0212301,0.88760364,-0.82571352,0.02282136,2056.9295,403.92004)"><path
             d="m -5.448509,1265.5432 c -0.7089693,-0.5626 -2.055486,-1.3382 -3.150112,-1.97 -1.094626,-0.6317 -1.922212,-1.1414 -2.464994,-1.5094 -0.542782,-0.3679 -0.739957,-0.5549 -1.035596,-0.8206 -0.29564,-0.2658 -0.582759,-0.5562 -1.092618,-1.1165 -0.509859,-0.5603 -1.212259,-1.3613 -2.078282,-2.4104 -0.866022,-1.0492 -1.907009,-2.3285 -2.222263,-2.5952 -0.315253,-0.2666 -0.253148,0.1293 -0.224266,0.1355 0.02888,0.01 0.133518,-0.2212 0.331169,-0.596 0.197651,-0.3747 0.487045,-0.8697 0.846561,-1.4357 0.359514,-0.5661 0.803412,-1.1604 1.353022,-1.8643 0.54961,-0.704 1.22875,-1.4941 2.019716,-2.3774 0.790967,-0.8832 1.711509,-1.8415 2.493969,-2.7887 0.782459,-0.9473 0.963897,-1.3302 1.103403,-1.7206 0.139506,-0.3905 0.240539,-0.7842 0.307854,-1.1778 0.067315,-0.3934 0.1047685,-0.7856 0.104036,-1.3015 -7.33e-4,-0.5158 -0.100198,-1.1806 -0.268688,-1.7789 -0.168491,-0.5983 -0.38847,-1.1747 -0.655318,-1.7616 -0.266849,-0.587 -0.581295,-1.1997 -1.335058,-2.3894 -0.753761,-1.1896 -1.871206,-2.8467 -2.701021,-3.813 -0.829815,-0.9663 -1.422454,-1.6872 -1.870926,-2.2651 -0.448473,-0.578 -0.740686,-0.9936 -0.845693,-1.1714 -0.105009,-0.1779 -0.201044,-0.4006 -0.206309,-0.3994 -0.0053,0 0.03329,0.072 0.03651,0 0.0032,-0.075 -0.0024,-0.2736 -0.0041,-0.5766 -0.0018,-0.303 0.0091,-0.8087 0.03728,-1.1332 0.02813,-0.3244 0.09522,-0.5053 0.215355,-0.7317 0.120135,-0.2263 0.331471,-0.5098 0.647879,-0.8619 0.316408,-0.3521 0.663095,-0.6703 1.413036,-1.3122 0.749942,-0.642 1.620966,-1.345 2.574995,-2.0301 0.954029,-0.6849 1.971363,-1.3812 3.061681,-2.0722 1.0903184,-0.6912 2.1780856,-1.3372 1.5287807,-1.1755 -0.6493047,0.1618 -1.0409112,0.1303 -1.3788037,0.028 -0.337893,-0.1026 -0.575699,-0.2349 -0.704314,-0.3416 -0.128617,-0.1068 0.077964,0.078 0.213034,0.178 0.135071,0.1003 0.390069,0.3731 0.807618,0.8684 0.417548,0.4953 0.9635573,1.1873 1.6212535,2.0621 0.6576967,0.8749 1.3612875,1.8295 1.325778,1.7511 -0.035509,-0.079 0.046843,0.1594 0.1455925,0.5513 0.09875,0.392 0.1994827,0.9202 0.268699,1.5713 0.069216,0.6512 0.1485433,1.4316 0.169583,1.6671 0.02104,0.2355 0.036881,0.4833 0.04705,0.7284 0.010168,0.2451 0.017028,0.4874 0.020773,0.7269 0.00375,0.2395 0.019864,0.3361 -0.024467,1.1544 -0.044331,0.8183 -0.087202,1.5706 -0.1076047,2.2332 -0.020402,0.6625 -0.025793,1.2388 -0.017498,1.7402 0.0083,0.5015 0.032366,0.8253 0.08863,1.9688 0.056264,1.1434 0.132509,2.333 0.238842,3.5517 0.1063327,1.2187 0.2431816,2.4665 0.3885383,3.7442 0.1453571,1.2778 0.3279743,2.5477 0.3793573,3.0193 0.051383,0.4715 0.097535,0.9522 0.1376841,1.4085 0.040149,0.4563 0.074314,0.8882 0.1025433,1.2957 0.028229,0.4075 0.052413,0.7584 0.068424,1.9104 0.016012,1.152 -0.016161,2.328 -0.113147,3.5397 -0.096986,1.2116 -0.2524138,2.4619 -0.4747083,3.7507 -0.2222946,1.2888 -0.513152,2.6186 -0.5306657,2.8774 -0.017514,0.2587 -0.033844,0.4826 -0.028237,0.679 0.00561,0.1965 0.03315,0.3655 0.064776,0.4785 0.031626,0.113 0.031626,0.113 0.010542,0.038 0,0 -0.042168,-0.1507 -0.062399,-0.329 -0.020231,-0.1781 -0.018526,-0.3836 0.00535,-0.6165 0.023878,-0.2329 0.1104917,-0.4787 0.791572,-1.6545 0.6810806,-1.1757 1.266926,-2.3711 1.769082,-3.5792 0.5021564,-1.2081 0.9137727,-2.4295 1.2316471,-3.6627 0.3178744,-1.2332 0.52918115,-2.4551 0.58648416,-2.8845 0.057303,-0.4293 0.11217334,-0.8661 0.16557228,-1.3264 0.0533989,-0.4604 0.10534925,-0.9443 0.15588574,-1.4519 0.0505365,-0.5077 0.09811669,-1.1056 0.13713903,-2.3963 0.03902234,-1.2905 0.08403667,-2.5255 0.15604375,-3.7239 0.0720071,-1.1982 0.13915727,-2.3588 0.22138134,-3.4825 0.0822241,-1.1237 0.18012064,-2.2434 0.20762115,-2.5712 0.0275005,-0.3276 0.0789012,-0.7282 0.15616322,-1.2436 0.077262,-0.5154 0.17640829,-1.1392 0.29637013,-1.8667 0.1199619,-0.7277 0.2824991,-1.6126 0.3184396,-1.9773 0.035941,-0.3646 0.05996,-0.6618 0.080154,-0.9614 0.020194,-0.2996 0.036577,-0.6016 0.052636,-0.9062 0.016059,-0.3045 0.028718,-0.6419 0.029241,-1.5049 5.237e-4,-0.8629 -0.037465,-1.6602 -0.090477,-2.3975 -0.053012,-0.7375 -0.1552969,-1.4258 -0.3238377,-2.0928 -0.1685409,-0.667 -0.57850672,-1.596 -1.27278764,-2.7669 -0.69428096,-1.171 -1.28515126,-2.1296 -1.81123496,-2.934 -0.5260839,-0.8045 -1.0073041,-1.4672 -1.5039091,-2.0401 -0.496605,-0.5729 -0.808826,-0.8568 -1.122816,-1.1459 -0.31399,-0.289 -0.851904,-0.6602 -1.5044056,-0.9508 -0.6525011,-0.2906 -1.4010148,-0.4538 -2.1739204,-0.4504 -0.772906,0 -2.0819164,0.3945 -3.4614454,1.075 -1.379529,0.6805 -2.667752,1.3546 -3.88969,2.0639 -1.221938,0.7095 -2.380154,1.4502 -3.511385,2.1743 -1.13123,0.724 -2.237141,1.6774 -3.079441,2.6333 -0.842302,0.9558 -1.510152,1.9432 -2.029206,3.0126 -0.519056,1.0695 -0.874275,2.2105 -1.01798,3.3981 -0.143706,1.1876 -0.09086,2.0939 -0.05601,2.6799 0.03485,0.5861 0.105857,1.2022 0.222617,1.8091 0.11676,0.6071 0.294102,1.223 0.57496,1.8739 0.280857,0.6509 0.433912,0.879 0.728317,1.3501 0.294405,0.4711 0.746017,1.043 1.290753,1.6488 0.544734,0.606 1.201705,1.2834 1.98302,2.0513 0.781313,0.7677 1.491144,1.4069 2.550201,2.6954 1.059056,1.2885 1.259239,1.5748 1.500111,1.9559 0.240871,0.3811 0.410215,0.6785 0.508358,0.8695 0.09814,0.1911 0.131339,0.2445 0.135281,0.1727 0.0039,-0.072 0.01382,-0.019 0.01961,0.047 0.0058,0.066 0.0107,0.102 0.01957,0.11 0.0089,0.01 0.02545,-0.01 0.200663,-0.255 0.175214,-0.2467 -0.67593,0.8729 -1.489978,1.9911 -0.814044,1.1183 -1.534968,2.1502 -2.153512,3.1089 -0.618544,0.9586 -1.132496,1.8509 -1.534922,2.6662 -0.402424,0.8153 -0.723449,1.5344 -0.982248,2.1817 -0.258798,0.6472 -0.457358,1.2383 -0.594328,1.8196 -0.136972,0.5812 -0.186115,1.2443 0.177559,2.25 0.363672,1.0056 1.799419,2.3009 3.005335,3.3472 1.205916,1.0462 2.224004,1.8884 3.054125,2.5381 0.830122,0.6496 1.495364,1.1076 1.921493,1.3286 0.426129,0.221 0.604483,0.3724 1.222706,0.6889 0.618223,0.3166 1.444602,0.6073 2.525368,0.9129 1.0807644,0.3055 2.4301694,0.6239 3.24855,0.6485 1.6275459,0.3212 0.9681604,-0.384 1.7773254,-0.087 z"
             id="path50754" /></g></g></g></g></svg>
