<?xml version="1.0" encoding="UTF-8" standalone="no"?>
<!-- Created with Inkscape (http://www.inkscape.org/) -->

<svg
   width="268.67789mm"
   height="268.67789mm"
   viewBox="0 0 268.67789 268.67789"
   version="1.1"
   id="svg5"
   xml:space="preserve"
   xmlns="http://www.w3.org/2000/svg"
   xmlns:svg="http://www.w3.org/2000/svg"><defs
     id="defs2" /><g
     id="layer1"
     transform="translate(688.88049,-385.91498)"><g
       id="g53463"><rect
         style="display:inline;fill:none;fill-opacity:1;stroke:none;stroke-width:5.29167;stroke-dasharray:none;stroke-opacity:1"
         id="rect53363"
         width="268.67789"
         height="268.67789"
         x="-688.88049"
         y="385.91498" /><g
         id="g52899"
         transform="matrix(2.2966516,0,0,2.2966516,-3579.3646,-693.15813)"><g
           style="fill:#000000;fill-opacity:1;stroke-linejoin:miter"
           id="g51012"
           transform="matrix(0.0212301,0.88760364,-0.82571352,0.02282136,2056.9295,403.92004)"><path
             d="m 96.74587,952.5671 c -0.5511,-0.1205 -1.62726,-0.2923 -2.68988,-0.6129 -1.06261,-0.3205 -2.12618,-0.7774 -3.20415,-1.37815 -1.07797,-0.60085 -2.17465,-1.35535 -5.571475,-4.39745 -3.396835,-3.0422 -9.283755,-8.2251 -9.588775,-8.5375 -0.30503,-0.31236 -0.52565,-0.558 -0.60518,-0.673 -0.07954,-0.1151 0.0063,-0.008 0.14543,0.6444 0.13911,0.6524 0.1627,0.7669 0.19121,0.5408 0.02852,-0.2261 0.03224,-0.1814 0.01791,-0.0903 -0.01434,0.091 -0.0572,0.22466 -0.140416,0.38805 -0.08323,0.16345 -0.12315,0.23425 0.18212,-0.0874 0.305266,-0.3216 0.57657,-0.59339 0.82346,-0.81958 0.24689,-0.22627 0.4662,-0.40637 0.65201,-0.53967 0.185806,-0.1333 0.47892,-0.32825 0.846756,-0.56775 0.367844,-0.23945 0.917764,-0.53145 1.69928,-0.90088 0.781524,-0.36937 1.666564,-1.03211 2.817344,-1.6427 1.15078,-0.61054 2.578606,-1.33067 3.05305,-1.63577 0.47443,-0.305 0.81563,-0.55076 1.1447,-0.7977 0.32906,-0.2469 0.646725,-0.49537 0.95089,-0.7483 0.30418,-0.25286 0.67385,-0.58307 1.63416,-1.6038 0.96032,-1.02077 1.84695,-2.0272 2.661056,-3.0209 0.814094,-0.9937 1.550414,-1.97936 2.203934,-2.95977 0.65351,-0.98047 1.2623,-1.96997 1.575835,-2.63743 0.31353,-0.66756 0.554235,-1.356 0.743925,-2.0922 0.1897,-0.73625 0.33428,-1.52 0.4406,-2.35203 0.10632,-0.83204 0.17879,-1.72992 0.17811,-2.04787 -6.8e-4,-0.3179 -0.01171,-0.5581 -0.0262,-0.78453 -0.0145,-0.22637 -0.03263,-0.43982 -0.05476,-0.64111 -0.02213,-0.20136 -0.05919,-0.49136 -0.24959,-1.19686 -0.1904,-0.7055 -0.35667,-1.32176 -0.4922,-1.86516 -0.135534,-0.54339 -0.238745,-1.01314 -0.311094,-1.40664 -0.07236,-0.39347 -0.119896,-0.68924 -0.200586,-1.8319 -0.08069,-1.1427 -0.16858,-2.1298 -0.25166,-2.9536 -0.08309,-0.8237 -0.1348,-1.4824 -0.11947,-1.893 0.01532,-0.4106 0.01532,-0.4106 0.0051,-0.13684 0,0 -0.02043,0.54744 -0.164204,1.24814 -0.143766,0.7008 -0.344016,1.5569 -0.578552,2.57016 -0.234524,1.0133 -0.505638,2.19684 -0.559024,2.62044 -0.05337,0.42356 -0.08747,0.905 -0.10763,1.45695 -0.02017,0.55195 -0.02672,1.17609 -0.01322,1.87255 0.01352,0.69654 0.04283,1.4342 0.02756,1.5116 -0.01526,0.0775 -0.03043,0.2257 -0.05125,0.3938 -0.02083,0.16803 -0.04753,0.355 -0.08031,0.5603 -0.03278,0.2053 -0.05768,0.3016 -0.276826,1.02576 -0.219139,0.72414 -0.453324,1.3794 -0.698574,1.95569 -0.24525,0.5763 -0.491634,1.07485 -0.73783,1.49405 -0.24619,0.4192 -0.45015,0.70676 -1.09207,1.44125 -0.64191,0.73445 -1.37239,1.49045 -2.16557,2.26735 -0.79319,0.7769 -1.65891,1.56725 -2.59993,2.3683 -0.94102,0.80106 -1.954805,1.61014 -2.12816,1.72306 -0.17336,0.11294 -0.402664,0.26349 -0.64885,0.41498 -0.24619,0.15146 -0.512275,0.29906 -0.794715,0.44656 -0.282441,0.14755 -0.341955,0.17 -1.719845,0.69797 -1.37787,0.52793 -2.60481,1.06493 -3.68006,1.53137 -1.07525,0.46646 -1.937925,1.00296 -2.67022,1.52036 -0.73228,0.5175 -1.19254,0.91946 -1.50672,1.1852 -0.31418,0.26575 -0.68313,0.61426 -1.04031,0.99146 -0.35719,0.37714 -0.706835,0.78369 -1.05081,1.22194 -0.343975,0.4383 -0.666355,0.8921 -0.87675,1.21446 -0.2104,0.32239 -0.39415,0.70944 -0.51575,1.09034 -0.1216,0.3809 -0.191145,0.74743 -0.22128,1.09747 -0.03013,0.35003 0.0067,0.23358 0.04758,1.04153 0.04093,0.8079 0.38497,1.61075 0.76867,2.12436 0.383715,0.51364 0.79671,0.93014 1.267886,1.33244 0.471174,0.4023 1.081314,0.8612 7.670284,5.1796 6.588985,4.31834 8.118206,5.0709 9.51012,5.58006 1.391915,0.50924 2.744355,0.81474 4.03696,0.93549 1.29259,0.12075 2.51721,0.043 3.101994,-0.14855 1.135486,-0.25465 0.535271,-0.624 1.085966,-0.687 z"
             id="path51010" /></g><g
           style="fill:#000000;fill-opacity:1;stroke-linejoin:miter"
           id="g51016"
           transform="matrix(0.0212301,0.88760364,-0.82571352,0.02282136,2056.9295,403.92004)"><path
             d="m 94.97199,889.0269 c -0.39132,-0.9587 -1.32914,-2.5248 -2.1354,-3.87065 -0.80625,-1.34589 -1.47643,-2.4726 -1.9732,-3.39805 -0.496775,-0.92556 -0.82327,-1.628 -1.10008,-2.32546 -0.27681,-0.69739 -0.5466,-1.51194 -0.77902,-2.37084 -0.23242,-0.85896 -0.42952,-1.76313 -0.58501,-2.71583 -0.1555,-0.95277 -0.28381,-1.95177 -0.34998,-2.94257 -0.06616,-0.9908 -0.11475,-2.02075 -0.15717,-2.9832 -0.04242,-0.9625 -0.11509,-1.85347 -0.352656,-2.6527 -0.237574,-0.7993 -0.401544,-1.5398 -0.479314,-1.83474 -0.07778,-0.29486 -0.102015,-0.45726 -0.12608,-0.65606 -0.02406,-0.1988 -0.04753,-0.4317 -0.07011,-0.6967 -0.02258,-0.26504 -0.04415,-0.5611 -0.06867,-1.3123 -0.0245,-0.7512 -0.04463,-1.8611 -0.08037,-2.7485 -0.03572,-0.8874 -0.07487,-1.55476 -0.107755,-2.01857 -0.03288,-0.46373 -0.06935,-0.83526 -0.0857,-0.89153 -0.01634,-0.0563 -0.05933,-0.4139 -0.134764,-0.8348 -0.07542,-0.42095 -0.18218,-0.92375 -0.32031,-1.5173 -0.138134,-0.5935 -0.30899,-1.28066 -0.63312,-2.789 -0.32414,-1.5084 -0.81363,-3.8896 -0.81918,-3.94845 -0.0055,-0.0587 6.4e-4,-0.15835 0.01467,-0.24155 0.01402,-0.0832 0.03496,-0.15304 0.06383,-0.21414 0.02888,-0.0611 0.02054,-0.0866 0.61485,-0.54246 0.594304,-0.45595 1.109204,-0.875 1.53749,-1.2495 0.42828,-0.3746 0.80861,-0.6488 1.053175,-0.83413 0.244565,-0.18531 0.244565,-0.18531 0.08152,-0.0618 0,0 -0.326085,0.2471 -0.766905,0.4819 -0.44082,0.2347 -0.992594,0.45413 -1.636545,0.68656 -0.643955,0.23248 -1.393515,0.49244 -1.57148,0.62048 -0.177971,0.12806 -0.313595,0.26739 -0.428101,0.42856 -0.114504,0.16116 -0.207784,0.3406 -0.281374,0.5352 -0.07359,0.1946 -0.13293,0.5212 -0.30468,2.973 -0.17174,2.45185 -0.13382,3.30726 -0.10798,3.9579 0.02584,0.6506 0.03968,1.1923 0.04076,1.6201 0.0011,0.42774 -0.01051,0.7323 -0.03068,0.97987 -0.02017,0.24753 -9.8e-4,0.37713 -0.03067,0.53953 -0.02968,0.16243 -0.09242,0.63546 -0.19155,1.3446 -0.09913,0.7092 -0.22304,1.6478 -0.369994,2.8224 -0.14695,1.1747 -0.18293,1.5726 -0.211196,1.891 -0.02826,0.31836 -0.05066,0.6134 -0.06699,0.8865 -0.01633,0.2731 -0.02632,0.5261 -0.01977,0.8497 0.0065,0.32356 0.08014,1.046 0.13977,1.77686 0.05963,0.73078 -0.02312,1.55514 0.14485,2.41994 0.16797,0.8648 0.35412,1.8028 0.540084,2.8593 0.185966,1.0565 0.465296,2.25165 0.790786,3.35126 0.3255,1.09954 0.70007,2.14324 1.1167,3.13174 0.41663,0.9884 0.887535,1.91586 1.386826,2.7757 0.499298,0.8599 0.919194,1.52255 1.548364,2.3223 0.629164,0.7998 1.44081,1.71343 2.454535,2.74566 1.013725,1.03224 2.241565,2.17964 3.058885,2.68184 1.457816,1.25163 1.148215,0.2194 1.7887,0.9689 z"
             id="path51014" /></g><g
           style="fill:#000000;fill-opacity:1;stroke-linejoin:miter"
           id="g51020"
           transform="matrix(0.0212301,0.88760364,-0.82571352,0.02282136,2056.9295,403.92004)"><path
             d="m 102.33039,881.35016 c -0.17691,-0.25986 -0.63747,-0.84473 -1.16439,-1.6474 -0.52692,-0.80266 -1.13151,-1.81456 -1.8197,-3.03376 -0.68819,-1.2192 -1.48669,-2.62817 -2.48946,-3.7845 -1.00276,-1.1563 -1.795645,-2.1201 -2.526,-3.0429 -0.73035,-0.9228 -1.38876,-1.81236 -1.977416,-2.6706 -0.588664,-0.8582 -1.013644,-1.72404 -1.247424,-2.37144 -0.23377,-0.6474 -0.23377,-0.6474 -0.07792,-0.21582 0,0 0.3117,0.86322 0.59211,1.82046 0.28042,0.95725 0.589985,1.9942 0.98377,3.0853 0.39378,1.0911 0.86358,2.23865 1.422804,3.4362 0.559236,1.1976 1.415642,2.80336 2.490726,3.98116 1.075085,1.1778 2.0508,2.14868 2.92355,2.91248 0.87274,0.76386 1.62989,1.32843 2.00392,1.51076 0.62582,0.3694 0.63365,-0.1671 0.88543,0.0201 z"
             id="path51018" /></g><g
           style="fill:#000000;fill-opacity:1;stroke-linejoin:miter"
           id="g51024"
           transform="matrix(0.0212301,0.88760364,-0.82571352,0.02282136,2056.9295,403.92004)"><path
             d="m 101.20293,931.1856 0.44822,-8.552 0.56868,-10.85143 -1.0169,19.40343"
             id="path51022" /></g><g
           style="fill:#000000;fill-opacity:1;stroke-linejoin:miter"
           id="g51028"
           transform="matrix(0.0212301,0.88760364,-0.82571352,0.02282136,2056.9295,403.92004)"><path
             d="m 144.18231,928.8769 c -0.0416,-0.0247 -0.17751,-0.0955 -0.37936,-0.23914 -0.20188,-0.14366 -0.46091,-0.36126 -0.77309,-0.65241 -0.31218,-0.2912 -0.67619,-0.65555 -3.37071,-3.24825 -2.69452,-2.5926 -7.78444,-7.1509 -7.8906,-7.4433 -0.10617,-0.29234 -0.29946,-0.85526 -0.46582,-1.62797 -0.16635,-0.77273 -0.27453,-1.75623 -0.29763,-2.94193 -0.0231,-1.1858 -0.11383,-1.7005 1.97285,-6.20803 2.08669,-4.50747 2.72879,-4.96987 3.69231,-6.03447 0.96351,-1.06465 1.76495,-1.99385 2.41467,-2.8062 0.6497,-0.81235 1.16486,-1.5449 1.51022,-2.16867 0.34537,-0.62378 1.08561,-2.03663 1.69152,-3.24219 0.60591,-1.20554 1.08828,-2.1723 1.43487,-2.93014 0.34659,-0.75785 0.59964,-1.3662 0.73863,-1.9011 0.139,-0.53497 0.32033,-1.2872 0.48769,-2.1304 0.16736,-0.8432 0.30855,-1.6487 0.4048,-2.42294 0.0963,-0.77429 0.15224,-1.52081 0.14234,-2.48541 -0.01,-0.9646 -0.81415,-7.21259 -1.1135,-10.28949 -0.29936,-3.07691 -0.13307,-4.17511 0.0147,-4.98639 0.14774,-0.81127 0.24793,-1.30182 0.221,-1.22467 -0.0269,0.0772 -2.38265,2.7081 -1.51593,2.025 0.8667,-0.683 0.3304,-0.15336 -0.0911,0.10366 -0.4215,0.25704 -0.6463,0.34509 -0.68082,0.36734 -0.0345,0.0221 0.0939,0.0256 1.22248,0.11215 1.12855,0.0865 3.1915,0.2829 4.84698,0.48059 1.65547,0.1977 2.88021,0.36996 3.58155,0.52266 0.70135,0.1527 0.68786,0.0572 1.20953,0.2945 0.52165,0.2372 1.21124,0.57725 1.64604,0.81645 0.4348,0.2392 0.57848,0.32305 0.4091,0.0689 -0.16938,-0.25421 -0.51818,-1.10026 -0.77531,-1.49686 -0.25713,-0.39664 -1.01678,1.9534 -1.19144,3.09976 -0.17465,1.14634 -0.27896,1.84614 -0.39146,2.4668 -0.11252,0.62061 -0.23071,1.15918 -0.34992,1.61094 -0.1192,0.45187 -0.15075,0.6165 -0.68457,1.8411 -0.53381,1.2246 -1.00426,2.33574 -1.38537,3.2804 -0.38112,0.9447 -0.67894,1.7421 -0.91104,2.4708 -0.23209,0.72865 -0.41425,1.6347 -0.51721,2.7739 -0.10299,1.13913 -0.26186,2.2218 -0.46454,3.33695 -0.20267,1.11525 -0.46045,2.26111 -0.78383,3.43425 -0.32338,1.1732 -0.69708,2.3608 -0.87969,3.123 -0.18258,0.76214 -0.21296,1.57306 -0.17144,2.46814 0.0415,0.89516 0.11999,1.98176 0.26199,3.29756 0.14198,1.3158 0.31229,2.54546 0.25153,3.49705 -0.0607,0.9516 -0.10696,1.92705 -0.13254,2.72985 -0.0256,0.8028 -0.0302,1.454 -7.7e-4,2.0622 0.0294,0.6082 0.0758,0.8129 0.24122,1.8649 0.16537,1.05204 0.36265,2.01566 0.56234,2.87144 0.19969,0.85576 0.44033,1.62496 0.78522,2.36436 0.34491,0.7395 0.70027,1.23445 1.75797,2.5516 1.0577,1.3171 2.13285,2.50396 3.23315,3.5164 1.10028,1.01246 2.21637,1.8602 3.35619,2.5356 1.13981,0.6754 2.07856,1.0569 1.66047,0.6564 -0.41809,-0.40036 -0.47411,-0.5396 -0.50703,-0.68644 -0.0329,-0.14686 -0.0399,-0.28306 -0.0272,-0.38922 0.0126,-0.10614 0.29095,-0.86114 0.003,-0.3584 -0.28827,0.50276 -0.90765,1.06486 -1.91067,1.70786 -1.00303,0.6431 -2.38938,1.3177 -4.14579,1.9879 -1.75641,0.67015 -3.79242,1.3643 -4.92134,1.4642 -1.12893,0.0999 -2.20787,0.12544 -3.17248,0.0718 -0.96463,-0.0537 -1.81879,-0.1953 -2.39264,-0.3828 -0.57387,-0.1875 -0.57387,-0.1875 -0.20708,-0.0224 0,0 0.68626,0.45036 1.53194,0.85875 0.84569,0.40835 1.85032,0.75695 3.00711,1.04699 1.1568,0.2901 2.60264,0.5 4.8462,0.27406 2.24357,-0.2259 4.16269,-0.5964 5.81528,-1.09895 1.65259,-0.50255 3.04395,-1.18275 4.17833,-2.09115 1.13437,-0.90836 1.89247,-1.959 2.07214,-2.64664 0.17969,-0.68762 0.18203,-1.05566 0.12415,-1.43436 -0.0579,-0.3787 -0.17863,-0.74997 -0.35519,-1.09286 -0.17658,-0.3429 -1.1012,-1.21864 -1.87789,-1.71564 -0.77668,-0.497 -1.47328,-1.0993 -2.19786,-1.87366 -0.72459,-0.77434 -1.47062,-1.72544 -2.24054,-2.84864 -0.76993,-1.1231 -1.59492,-2.4721 -1.59396,-2.50414 9.6e-4,-0.0321 -0.0388,-0.24606 -0.12285,-0.70032 -0.084,-0.45424 -0.16125,-1.11614 -0.21501,-1.96004 -0.0538,-0.84385 -0.10574,-1.93876 -0.10719,-1.9961 -0.001,-0.0573 0.0246,-0.32505 0.0887,-0.86374 0.0641,-0.5387 0.16919,-1.30086 0.31552,-2.26716 0.14633,-0.96636 0.34618,-2.5442 0.30342,-4.12475 -0.0427,-1.5805 -0.0546,-2.71991 -0.0445,-3.56255 0.0102,-0.84266 0.0489,-1.34535 0.0327,-1.2457 -0.0161,0.0996 -0.0327,0.26785 0.49514,-1.1018 0.5278,-1.3697 0.99697,-2.7224 1.40166,-4.0691 0.40471,-1.34665 0.75588,-2.68485 1.03113,-4.0195 0.27524,-1.3346 0.4621,-2.4941 0.47061,-2.4219 0.008,0.0723 0.17333,-0.3133 0.47185,-0.9553 0.29852,-0.6421 0.72034,-1.50165 1.25941,-2.5603 0.53907,-1.0586 1.25251,-2.4374 1.57309,-3.2668 0.32058,-0.8294 0.57035,-1.5989 0.797,-2.41186 0.22667,-0.81294 0.43345,-1.67274 0.62317,-2.58294 0.1897,-0.91016 0.20244,-1.1317 1.01013,-3.18476 0.8077,-2.05304 0.7702,-5.31444 0.008,-6.71684 -0.7623,-1.4024 -1.64887,-2.3234 -2.58246,-3.04054 -0.93361,-0.71722 -1.94821,-1.33801 -2.99756,-1.88892 -1.04934,-0.5509 -1.8168,-0.94754 -3.11122,-1.32484 -1.29442,-0.3772 -2.68225,-0.56 -4.34107,-0.6964 -1.65881,-0.1365 -3.63829,-0.2232 -5.98475,-0.28906 -2.34648,-0.0658 -3.3071,-0.0288 -4.0387,0.0724 -0.73161,0.1012 -1.50366,0.293 -2.34714,0.6481 -0.84346,0.35516 -1.74537,0.97003 -1.77096,1.0564 -0.0256,0.0863 0.51445,-0.33204 -0.87088,1.5717 -1.38535,1.90376 -1.51604,2.62776 -1.61335,3.4616 -0.0973,0.8339 -0.1782,1.87166 -0.2817,3.6887 -0.1035,1.817 1.17117,8.1735 1.78172,11.14506 0.61055,2.97164 0.6236,3.37689 0.61269,3.86454 -0.0109,0.4877 -0.0433,1.05325 -0.10019,1.69174 -0.0569,0.63846 -0.15285,1.3446 -0.19846,1.74902 -0.0456,0.40434 0.0246,0.18518 -0.11528,0.59961 -0.13992,0.41449 -0.42969,1.16113 -0.83549,2.19203 -0.40583,1.03087 -0.93488,2.3301 -1.27707,3.20714 -0.34218,0.87696 -0.43485,1.09416 -0.75022,1.62402 -0.31535,0.52984 -0.82385,1.2898 -1.5086,2.24561 -0.68476,0.95583 -1.53929,2.09653 -3.15033,5.70117 -1.61104,3.60461 -3.30622,8.8288 -3.18267,10.79822 0.12356,1.96944 0.38887,3.34894 0.73987,4.58044 0.35102,1.2315 0.80657,2.32184 1.40757,3.26404 0.60101,0.94226 1.54089,1.86999 7.49406,5.3783 5.95319,3.50826 6.47736,3.78289 6.93831,4.00451 0.46095,0.22168 0.8535,0.39135 1.17981,0.5094 0.32631,0.1181 0.59076,0.18485 0.72069,0.19055 0.20132,0.0103 0.15834,-0.42865 0.22973,-0.424 z"
             id="path51026" /></g><g
           style="fill:#000000;fill-opacity:1;stroke-linejoin:miter"
           id="g51064"
           transform="matrix(0.0212301,0.88760364,-0.82571352,0.02282136,2056.9295,403.92004)"><path
             d="m 97.12055,927.5598 q 10.48319,-35.9358 0,0"
             id="path51062" /></g><g
           style="fill:#000000;fill-opacity:1;stroke-linejoin:miter"
           id="g51068"
           transform="matrix(0.0212301,0.88760364,-0.82571352,0.02282136,2056.9295,403.92004)"><path
             d="m 98.757996,928.9702 c 0.01093,-0.0738 -0.0042,-0.29405 -0.04983,-0.65245 -0.04558,-0.3584 -0.12264,-0.86275 -0.23245,-1.51475 -0.1098,-0.652 -0.26317,-1.4483 -0.3475,-1.9223 -0.08432,-0.474 -0.08907,-0.6076 -0.08643,-0.7363 0.0026,-0.1286 0.01239,-0.2523 0.02892,-0.37145 0.01652,-0.11915 0.03958,-0.23395 0.05835,-0.31531 0.01878,-0.0814 0.02914,-0.1112 0.0431,-0.15344 0.01395,-0.0422 0.03168,-0.0956 0.05327,-0.15863 0.0216,-0.0631 0.04709,-0.13527 0.140384,-0.35834 0.0933,-0.22303 0.269852,-0.69853 0.451406,-1.20053 0.18156,-0.5021 0.368464,-1.0309 0.300135,-1.641 -0.06833,-0.61007 -0.02457,-1.2195 -0.01354,-1.5057 0.01103,-0.2862 0.01547,-0.3218 0.02341,-0.3671 0.0079,-0.0454 0.01925,-0.0997 0.0338,-0.16213 0.01454,-0.0625 0.03126,-0.13297 0.196504,-0.73777 0.165236,-0.60476 0.483145,-1.7521 0.52316,-1.91684 0.04001,-0.16473 0.07076,-0.31451 0.09535,-0.45282 0.02461,-0.13834 0.04301,-0.26564 0.05523,-0.38204 0.0122,-0.11637 0.0156,-0.2104 0.0261,-0.39444 0.0105,-0.18403 0.0127,-0.38586 0.006,-0.60181 -0.007,-0.216 -0.0223,-0.44641 -0.0465,-0.69165 -0.02414,-0.24524 -0.02199,-0.50446 -0.0416,-0.6925 -0.01955,-0.188 -0.03987,-0.3483 -0.06098,-0.4807 -0.02112,-0.1325 -0.04302,-0.23726 -0.05984,-0.30196 -0.01682,-0.0647 -0.01682,-0.0647 -0.0056,-0.0215 0,0 0.02242,0.0862 0.04406,0.2002 0.02164,0.114 0.0425,0.2557 0.06256,0.4253 0.02007,0.1695 0.03935,0.36674 0.0031,0.61827 -0.03622,0.25159 -0.09258,0.4834 -0.151576,0.69568 -0.05899,0.21235 -0.120454,0.40478 -0.184089,0.5769 -0.06363,0.17218 -0.131165,0.33209 -0.166925,0.41885 -0.03576,0.0866 -0.07995,0.17856 -0.13393,0.2812 -0.05398,0.10275 -0.1178,0.21597 -0.19126,0.3394 -0.07345,0.12345 -0.151066,0.25 -0.7875,1.254 -0.63643,1.004 -0.687014,1.09223 -0.72826,1.16566 -0.04124,0.0733 -0.07822,0.143 -0.11169,0.20947 -0.03348,0.0665 -0.06346,0.13043 -0.09917,0.22962 -0.03571,0.0992 -0.234405,0.69065 -0.428665,1.24255 -0.19426,0.55194 -0.621675,1.0204 -0.681549,1.5413 -0.05989,0.52095 -0.132326,1.0116 -0.209702,1.48494 -0.07737,0.47336 -0.101318,0.64386 -0.107979,0.74206 -0.0067,0.0982 -0.01169,0.1912 -0.01505,0.27973 -0.0033,0.0886 -0.0049,0.17401 -0.0041,0.25263 8.62e-4,0.0786 0.01088,0.25724 0.03102,0.45364 0.02013,0.1964 0.05153,0.39096 0.09391,0.58335 0.04236,0.19232 0.09541,0.38235 0.16838,0.60241 0.07297,0.2201 0.49694,1.03804 0.85108,1.70368 0.35414,0.66566 0.63692,1.19751 0.84103,1.5971 0.2041,0.39966 0.32909,0.6648 0.37185,0.73756 0.04599,0.1234 0.44032,0.0474 0.443546,0.098 z"
             id="path51066" /></g></g></g></g></svg>
