<?xml version="1.0" encoding="UTF-8" standalone="no"?>
<!-- Created with Inkscape (http://www.inkscape.org/) -->

<svg
   width="268.67789mm"
   height="268.67789mm"
   viewBox="0 0 268.67789 268.67789"
   version="1.1"
   id="svg5"
   xml:space="preserve"
   xmlns="http://www.w3.org/2000/svg"
   xmlns:svg="http://www.w3.org/2000/svg"><defs
     id="defs2" /><g
     id="layer1"
     transform="translate(1330.5646,-134.99105)"><g
       id="g53629"
       transform="translate(0,60.654958)"><rect
         style="display:inline;fill:none;fill-opacity:1;stroke:none;stroke-width:5.29167;stroke-dasharray:none;stroke-opacity:1"
         id="rect53389"
         width="268.67789"
         height="268.67789"
         x="-1330.5646"
         y="74.33609" /><g
         id="g52647"
         transform="matrix(2.3482357,0,0,2.3482357,-3295.933,-699.25403)"><g
           style="fill:#000000;fill-opacity:1;stroke-linejoin:miter"
           id="g50580"
           transform="matrix(0.0212301,0.88760364,-0.82571352,0.02282136,2056.9295,403.92004)"><path
             d="m -85.656,1455.6309 c -0.29204,-0.7433 -0.97134,-1.9359 -1.498045,-2.9229 -0.526705,-0.9868 -0.895215,-1.7582 -1.090175,-2.2776 -0.19496,-0.5193 -0.19226,-0.6819 -0.27087,-1.1821 -0.07861,-0.5004 -0.13644,-1.0805 -0.1389,-1.6511 -0.0025,-0.5707 0.04815,-1.1349 0.13939,-1.6973 0.09124,-0.5624 0.23219,-1.1284 0.364576,-1.562 0.132374,-0.4337 0.267574,-0.7968 0.493664,-1.3936 0.22609,-0.5966 0.540256,-1.3993 -0.19296,-2.6694 -0.733215,-1.2701 -0.63607,-2.5632 -0.5704,-3.4011 0.06565,-0.8378 0.08947,-1.0827 0.125645,-1.336 0.03618,-0.2534 0.08499,-0.5152 0.146675,-0.7851 0.06168,-0.2698 0.13642,-0.5476 0.226135,-0.833 0.08973,-0.2854 0.188305,-0.5623 0.279085,-0.8003 0.09078,-0.2381 0.173186,-0.4367 0.245566,-0.5945 0.07238,-0.1578 0.132174,-0.2729 0.354244,-0.5725 0.222065,-0.2996 0.665844,-0.9134 1.157925,-1.641 0.492075,-0.7275 1.145145,-1.476 1.863609,-2.3385 0.718466,-0.8625 1.502346,-1.8391 2.122946,-2.6285 0.620615,-0.7895 0.620615,-0.7895 0.20687,-0.2632 0,0 -0.82747,1.0526 -1.58954,1.9911 -0.76208,0.9386 -1.45874,1.7631 -2.13816,2.4289 -0.6794,0.6659 -1.340115,1.1652 -1.91627,1.5611 -0.57615,0.396 -0.716806,0.5158 -0.85631,0.6522 -0.13951,0.1363 -0.29196,0.301 -0.45986,0.4959 -0.1679,0.195 -0.352296,0.4212 -0.556146,0.6836 -0.20385,0.2625 -0.399208,0.5403 -0.578689,0.8147 -0.17949,0.2746 -0.345885,0.5517 -0.498935,0.8316 -0.153035,0.2798 -0.29253,0.5626 -0.41722,0.845 -0.12468,0.2824 -0.69562,1.6088 -1.179755,2.7558 -0.48413,1.1469 -2.492055,1.7492 -2.556355,2.6162 -0.0643,0.8672 -0.105426,1.56 -0.12307,2.0983 -0.01765,0.5383 0.0026,1.4076 0.08968,2.3219 0.08711,0.9144 0.25256,1.8009 0.5024,2.6528 0.24984,0.8521 0.572895,1.6664 0.93861,2.3664 0.36571,0.6999 0.49382,1.0174 0.90445,1.6373 0.41064,0.62 0.97297,1.252 1.71196,1.9833 0.73899,0.7312 1.663826,1.5805 2.28877,1.9692 1.11485,0.9755 1.97957,-0.7424 2.46946,-0.1556 z"
             id="path50578" /></g><g
           style="fill:#000000;fill-opacity:1;stroke-linejoin:miter"
           id="g50584"
           transform="matrix(0.0212301,0.88760364,-0.82571352,0.02282136,2056.9295,403.92004)"><path
             d="m -81.85259,1392.0306 c -0.03833,-0.099 -0.157755,-0.3385 -0.354914,-0.7203 -0.197151,-0.3818 -0.482456,-0.9219 -0.858366,-1.6239 -0.37591,-0.702 -0.84309,-1.5669 -1.103464,-2.1136 -0.260376,-0.5467 -0.347066,-0.8234 -0.424906,-1.1222 -0.07784,-0.2989 -0.1465,-0.6204 -0.20535,-0.9645 -0.05885,-0.3443 -0.107576,-0.7114 -0.13672,-1.0545 -0.02915,-0.3431 -0.03825,-0.6788 -0.03462,-1.0616 0.0036,-0.3828 0.0214,-0.8114 0.05306,-1.2842 0.03166,-0.4728 0.07153,-0.9884 0.105835,-1.2771 0.0343,-0.2887 0.04979,-0.3863 0.06615,-0.48 0.01636,-0.094 0.03354,-0.1831 0.05149,-0.2687 0.01795,-0.085 0.03661,-0.1666 0.30069,-1.5115 0.26408,-1.345 0.73899,-3.8635 -0.07335,-4.411 -0.81234,-0.5477 -0.52568,-1.6741 0.02041,-3.2894 0.5461,-1.6153 1.347855,-3.6809 2.398575,-6.1805 1.05072,-2.4996 2.781045,-5.1406 2.893645,-5.4098 0.11261,-0.269 0.192315,-0.5525 0.23912,-0.8501 0.04682,-0.2975 0.06072,-0.6092 0.05471,-0.8502 -0.006,-0.241 -0.006,-0.241 -0.002,-0.08 0,0 0.008,0.3213 -0.01686,0.6283 -0.02487,0.3071 -0.08265,0.5998 -0.173324,0.8784 -0.09067,0.2787 -0.21424,0.5431 -2.043526,2.9348 -1.829284,2.3918 -3.517844,4.3289 -4.853279,5.9639 -1.335445,1.6351 -2.324379,2.9856 -2.971215,4.1274 -0.646835,1.142 -2.61979,2.1094 -2.36199,4.8228 0.257796,2.7133 0.268645,2.867 0.282355,3.0092 0.01371,0.1423 0.02971,0.2851 0.04797,0.429 0.01826,0.144 0.0387,0.2888 0.06315,0.4712 0.02443,0.1825 0.15436,0.8049 0.29477,1.3958 0.14041,0.5908 0.29392,1.1445 0.45538,1.6625 0.16145,0.5181 0.33191,1.0016 0.51247,1.4496 0.180546,0.448 0.39329,0.901 0.61282,1.3253 0.219536,0.4244 0.44783,0.8256 0.68544,1.2039 0.23761,0.3784 0.48489,0.7333 0.77698,1.1152 0.29208,0.3821 1.13146,1.1711 1.80026,1.7935 0.6688,0.6224 1.19731,1.1184 1.58439,1.4866 0.387076,0.368 0.6298,0.6037 0.692206,0.6435 0.08805,0.085 1.596354,-0.8326 1.622004,-0.7875 z"
             id="path50582" /></g><g
           style="fill:#000000;fill-opacity:1;stroke-linejoin:miter"
           id="g50588"
           transform="matrix(0.0212301,0.88760364,-0.82571352,0.02282136,2056.9295,403.92004)"><path
             d="m -71.50833,1388.939 c 0.61592,-0.1457 1.773215,-0.6371 2.97255,-1.1797 1.19934,-0.5427 2.44029,-1.1364 3.72263,-1.7809 1.282346,-0.6445 2.605726,-1.3397 3.52624,-1.9096 0.920512,-0.5697 1.20213,-0.8275 1.46452,-1.1164 0.26239,-0.2888 0.501524,-0.6117 0.709773,-0.9689 0.208251,-0.3572 0.379001,-0.7469 0.579162,-1.7767 0.200165,-1.0298 0.352045,-1.9964 0.463501,-2.8594 0.111462,-0.8629 0.176944,-1.6323 0.188168,-2.3328 0.01122,-0.7004 -0.04121,-1.3753 -0.07274,-1.6765 -0.03153,-0.301 -0.05288,-0.5178 -0.07647,-0.7246 -0.02359,-0.2068 -0.05011,-0.4057 -0.08017,-0.5978 -0.03006,-0.192 -0.0651,-0.3808 -0.179352,-0.9442 -0.114248,-0.5632 -0.257122,-1.3398 -0.375305,-2.0133 -0.118187,-0.6734 -0.210968,-1.2409 -0.276733,-1.6958 -0.06577,-0.4548 -0.102303,-0.7865 -0.142,-1.0524 -0.0397,-0.2657 -0.01623,-0.3282 -0.0298,-0.6938 -0.01358,-0.3656 -0.03791,-0.9475 -0.07615,-1.7173 -0.03824,-0.7696 -0.100698,-1.7184 -0.172154,-2.5052 -0.07146,-0.7869 -0.136387,-1.1615 -0.231537,-1.5585 -0.09515,-0.397 -0.237027,-0.835 -1.11483,-0.9744 -0.877807,-0.1395 -1.204639,-0.6101 -1.621467,-1.0302 -0.416832,-0.4202 -0.924446,-0.7813 -1.583595,-1.0741 -0.65915,-0.2929 -1.449829,-0.4425 -2.250435,-0.3859 -0.800606,0.057 -1.49826,0.2898 -2.12985,0.7007 -0.631594,0.411 -0.51053,0.3628 -0.82958,0.64 -0.31905,0.2772 -0.90648,0.7351 -1.71409,1.3588 -0.80762,0.6235 -1.83288,1.3972 -2.57044,1.9362 -0.73756,0.5392 -1.14944,0.8538 -1.50987,1.2293 -0.36043,0.3755 -0.65374,0.7984 -0.87157,1.2478 -0.21782,0.4492 -0.36148,0.9088 -0.399594,1.0947 -0.03811,0.1861 -0.143662,0.7123 -0.153486,1.1394 -0.0098,0.4273 0.01752,0.9031 0.07152,1.4722 0.05399,0.5692 0.132924,1.2433 0.356338,2.5349 0.223406,1.2915 0.553696,2.824 0.82431,4.12 0.270606,1.296 0.481526,2.3551 0.632836,3.1754 0.151306,0.8203 0.2433,1.3986 0.548546,2.8059 0.305244,1.4074 0.664398,3.7423 0.798574,4.5171 0.13418,0.7748 0.23751,1.4412 0.30999,1.999 0.07248,0.5578 0.114115,1.007 0.12991,1.2898 0.01579,0.2829 0.01579,0.2829 0.0053,0.094 0,0 -0.02106,-0.3771 -0.07297,-0.8626 -0.05191,-0.4853 -0.13468,-1.0793 -0.248294,-1.7818 -0.113606,-0.7025 -0.258072,-1.5135 -0.13887,-3.8776 0.119209,-2.3641 0.211769,-2.7523 0.322864,-3.4427 0.11108,-0.6905 0.24106,-1.6181 0.39017,-2.7861 0.14911,-1.1679 0.31738,-2.5773 0.49518,-4.2041 0.1778,-1.6267 0.29942,-2.2406 0.40812,-2.8215 0.1087,-0.581 0.204474,-1.0261 0.283736,-1.3144 0.07927,-0.2884 0.128464,-0.3681 0.138394,-0.2945 0.0099,0.073 0.12085,-0.1698 0.13967,-0.1308 0.01882,0.039 0.01128,0.1114 -0.02124,0.1964 -0.03252,0.085 -0.08013,0.1661 -0.05626,0.1971 0.02385,0.031 1.41224,-0.4697 2.57067,-0.8987 1.15843,-0.4288 2.08804,-0.787 2.79961,-1.0946 0.71157,-0.3076 1.26123,-0.5865 1.539454,-0.7704 0.278226,-0.1839 -0.563374,0.3208 -1.086864,0.4505 -0.52349,0.1297 -1.13073,0.1247 -1.67074,-0.017 -0.54002,-0.1413 -0.94024,-0.3499 -1.19271,-0.5347 -0.252475,-0.1849 -0.5534,-0.5205 -0.717815,-0.7618 -0.164425,-0.2414 -1.568105,0.1612 -1.586609,0.057 -0.0185,-0.1039 -0.0019,-0.1155 0.02482,-0.102 0.02668,0.014 0.303166,1.0352 0.551596,1.9362 0.24844,0.9009 0.478426,1.6401 0.66733,2.2346 0.18891,0.5946 0.34464,1.0751 0.46108,1.3982 0.11644,0.323 0.22984,0.5881 0.42196,1.054 0.19213,0.4658 0.42608,0.9969 0.704286,1.6046 0.278214,0.6077 0.601654,1.2955 0.967624,2.0563 0.36597,0.7607 0.372174,0.7305 0.40991,0.8015 0.03773,0.071 0.08213,0.1662 0.13211,0.2837 0.04999,0.1174 0.10494,0.2556 0.17395,0.4572 0.06901,0.2017 0.168884,0.4066 0.26117,0.6521 0.09228,0.2456 0.20156,0.7036 0.32312,1.3318 0.12156,0.6281 0.24582,1.4114 0.37163,2.2896 0.1258,0.8783 0.24471,0.3137 0.28628,0.2848 0.04158,-0.029 0.07521,-0.03 0.09261,0 0.01739,0.028 0.01275,0.084 0.06924,0.089 0.05651,0 -0.92473,1.065 -1.90875,2.0885 -0.984024,1.0236 -1.947464,1.9893 -2.89069,2.8974 -0.94323,0.9082 -1.86649,1.7589 -2.26693,2.2463 -0.90705,0.7954 0.51615,1.9955 0.0096,2.3035 z"
             id="path50586" /></g><g
           style="fill:#000000;fill-opacity:1;stroke-linejoin:miter"
           id="g50592"
           transform="matrix(0.0212301,0.88760364,-0.82571352,0.02282136,2056.9295,403.92004)"><path
             d="m -69.64256,1453.3333 c -0.5936,-0.8317 -1.83252,-2.0806 -2.87062,-3.0968 -1.03811,-1.0163 -1.882114,-1.804 -2.55962,-2.3771 -0.677505,-0.5733 -1.285,-0.9691 -1.22459,-0.9508 0.06041,0.018 0.01905,-0.042 0.02846,-0.057 0.0094,-0.015 0.08975,0.045 0.28124,0.3079 0.19148,0.2632 0.439014,1.0794 0.64542,0.5605 0.206406,-0.5188 0.54407,-1.8979 0.8229,-3.0073 0.27883,-1.1093 0.49814,-1.9435 0.65174,-2.48 0.1536,-0.5365 0.22201,-0.6821 1.333534,-3.5794 1.111526,-2.8974 3.251961,-8.6447 1.706016,-6.8047 -1.54595,1.8399 -1.956435,1.9922 -2.312194,2.0758 -0.355766,0.084 -0.647586,0.1189 -0.870911,0.1279 -0.22332,0.01 -0.773155,-0.052 0.206865,-0.6406 0.980025,-0.5883 1.943495,-0.5735 2.94745,-0.6092 1.00395,-0.036 2.05075,-0.1251 3.14224,-0.2569 1.091484,-0.1318 2.025955,-0.3081 2.684234,-0.3344 0.65828,-0.026 0.334606,-0.099 0.04379,-0.2277 -0.29082,-0.1294 -0.582695,-0.3363 -0.827965,-0.6067 -0.245265,-0.2705 -0.409985,-0.5585 -0.496995,-0.8088 -0.087,-0.2502 -0.127555,-0.6394 -0.10066,-0.7762 0.02689,-0.137 0.03649,0.024 0.01407,0.3367 -0.02243,0.3128 -0.07453,0.7492 -0.15991,1.3138 -0.08537,0.5646 -0.08443,0.6234 -0.1021,0.7628 -0.01767,0.1393 -0.10811,0.5135 -0.25266,1.0645 -0.144535,0.5511 -0.32917,1.2767 -0.570416,2.1915 -0.241254,0.9148 -0.345774,1.4309 -0.404678,1.8344 -0.05892,0.4034 -0.106616,0.7863 -0.143016,1.149 -0.0364,0.3627 -0.06145,0.7055 -0.07442,1.0253 -0.01297,0.3197 -0.01826,0.8371 -0.01615,1.3179 0.0021,0.4806 0.01188,0.9233 0.02929,1.3282 0.01741,0.4049 0.04257,0.7721 0.07539,1.1093 0.03282,0.337 0.482894,4.5937 0.50192,7.7871 0.01904,3.1932 0.01904,3.1932 0.0063,1.0643 0,0 -0.02538,-4.2577 0.205894,-6.5243 0.23127,-2.2667 0.307381,-2.5791 0.402642,-2.926 0.09526,-0.347 0.209694,-0.728 0.343374,-1.1433 0.133684,-0.4154 0.28662,-0.8648 0.41705,-1.229 0.13042,-0.3644 0.235456,-0.626 0.35761,-0.9063 0.122154,-0.2801 0.26156,-0.5788 0.41825,-0.8957 0.156686,-0.3169 0.33076,-0.6518 0.66887,-1.1703 0.33812,-0.5186 0.817253,-1.2503 1.195873,-1.8457 0.37862,-0.5955 0.659783,-1.057 0.855007,-1.3982 0.195225,-0.3412 0.329686,-0.6442 0.473877,-0.9503 0.144188,-0.3061 0.385113,-0.8269 0.578663,-1.2798 0.19355,-0.4528 0.34168,-0.8518 0.446087,-1.2541 0.104403,-0.4022 0.137207,-0.9873 0.0527,-1.4284 -0.0845,-0.4412 -0.23067,-0.7957 -0.46861,-1.1468 -0.23794,-0.351 -0.564558,-0.6608 -0.92852,-0.8818 -0.363962,-0.2209 -0.72699,-0.352 -1.31808,-0.506 -0.59109,-0.154 -1.593696,-0.3905 -2.69796,-0.5478 -1.10426,-0.1575 -2.02641,-0.3322 -2.86572,-0.522 -0.83931,-0.1898 -1.59523,-0.383 -2.13125,-1.316 -0.53602,-0.933 -1.27086,-1.0036 -1.85612,-1.0462 -0.585256,-0.043 -1.02151,-0.023 -1.509015,0.048 -0.487505,0.071 -1.024555,0.2146 -1.588105,0.4532 -0.56356,0.2387 -3.34595,3.783 -3.984954,9.9518 -0.639006,6.1688 -0.691796,6.4843 -0.715696,7.0543 -0.02391,0.57 -0.0053,1.3195 0.03691,2.3178 0.0422,0.9982 0.10646,2.2564 0.201674,3.7777 0.09521,1.5212 0.103882,2.1048 0.385666,2.7794 0.281784,0.6746 0.52172,0.9423 0.716385,1.1035 0.194675,0.1613 0.374725,0.2808 0.76757,0.505 0.392845,0.2244 0.707405,0.2797 1.114005,0.4006 0.4066,0.121 1.18927,0.4479 2.27234,0.9488 1.08308,0.5008 2.45282,1.1682 3.32429,1.4265 1.650945,0.8306 1.91581,-1.1643 2.69529,-0.592 z"
             id="path50590" /></g><g
           style="fill:#000000;fill-opacity:1;stroke-linejoin:miter"
           id="g50596"
           transform="matrix(0.0212301,0.88760364,-0.82571352,0.02282136,2056.9295,403.92004)"><path
             d="m -20.144636,1442.7422 c -0.06694,-0.1521 -0.245646,-0.4231 -0.434359,-0.6961 -0.188713,-0.2729 -0.387395,-0.5478 -0.596094,-0.8247 -0.208698,-0.2767 -0.427291,-0.5553 -2.167051,-2.4738 -1.739758,-1.9187 -5.075054,-5.3407 -5.080284,-5.367 -0.0052,-0.026 -0.01957,-0.063 -0.02505,-0.093 -0.0055,-0.03 -0.0027,-0.055 0.0039,-0.076 0.0065,-0.021 0.0015,-0.089 0.03318,0.043 0.03168,0.1314 0.04332,0.1946 0.05312,0.1895 0.0098,0 0.02484,-0.057 0.04779,-0.144 0.02296,-0.087 0.0251,-0.051 0.252041,-0.7462 0.226939,-0.6948 0.435465,-1.3855 0.620035,-2.0499 0.184571,-0.6646 0.345032,-1.3036 0.473801,-1.9192 0.128769,-0.6156 0.238583,-1.2995 0.782454,-5.7819 0.543871,-4.4824 0.746322,-5.2605 0.937223,-6.1557 0.190901,-0.8953 0.330423,-1.6594 0.352636,-2.3088 0.02221,-0.6493 0.03984,-1.1897 0.02643,-1.5872 -0.01341,-0.3976 -0.125836,-2.4505 -0.309712,-4.5905 -0.183878,-2.1399 -0.418888,-4.3336 -0.727896,-6.5798 -0.309007,-2.2461 -0.664711,-4.5462 -1.12306,-6.8763 -0.458349,-2.3302 -0.487092,-1.9997 -0.550655,-1.8981 -0.06356,0.1016 -0.148123,0.1785 -0.202153,0.1987 -0.05403,0.02 -0.04331,-0.01 0.07802,-0.061 0.121324,-0.055 0.614807,-0.2247 1.15958,-0.4331 0.544775,-0.2084 1.132191,-0.4547 1.764998,-0.7342 0.632806,-0.2796 1.310199,-0.5974 1.985293,-0.9446 0.675095,-0.3472 1.340535,-0.4619 2.04328,-0.6218 0.702744,-0.1601 1.331862,-0.3476 1.885804,-0.5594 0.553941,-0.2118 1.057914,-0.3676 1.404937,-0.4996 0.347022,-0.132 0.347022,-0.132 0.115674,-0.044 0,0 -0.462697,0.176 -0.998459,0.2692 -0.535765,0.093 -1.135279,0.1002 -1.78699,0.061 -0.65171,-0.039 -1.356678,-0.1182 -2.230104,-0.083 -0.873425,0.035 -1.636644,0.16 -2.337601,0.2737 -0.700954,0.1138 -1.341521,0.209 -1.921142,0.2832 -0.579623,0.074 -1.095055,0.1358 -1.485424,0.178 -0.39037,0.042 -0.753804,0.1303 -1.112547,0.2973 -0.358744,0.1669 -0.696373,0.4318 -0.962763,0.794 -0.26639,0.3622 -0.425318,0.7832 -0.462124,2.3301 -0.03681,1.5469 -0.05468,3.8752 -0.06529,6.1291 -0.01061,2.254 -0.05566,4.4372 -0.122906,6.5496 -0.06725,2.1126 -0.173161,4.1549 -0.233845,5.2714 -0.06069,1.1164 -0.09123,1.2982 -0.208439,1.6986 -0.117206,0.4005 -0.157219,0.9927 -0.217399,1.75 -0.06018,0.7572 -0.136578,1.6737 -0.202988,4.6059 -0.06641,2.9323 -0.0039,7.4562 -0.02516,7.918 -0.02129,0.4617 -0.06081,1.0111 -0.113836,1.6021 -0.05303,0.591 -0.125016,1.2218 -0.216132,1.8913 -0.09111,0.6697 -0.212314,1.4232 -0.236244,1.6809 -0.02393,0.2576 -0.02878,0.4308 -0.02804,0.604 7.4e-4,0.1732 0.01013,0.3588 0.04292,0.5911 0.03278,0.2324 0.09548,0.4551 0.192666,0.6853 0.09718,0.2301 0.225668,0.4713 0.37526,0.6965 0.149591,0.2251 0.317651,0.4336 0.50238,0.6231 0.184727,0.1894 0.426418,0.3968 4.435062,3.0216 4.008642,2.6247 4.283087,2.7961 4.564022,2.982 0.280938,0.186 0.553282,0.374 0.817109,0.5642 0.263828,0.1902 0.519077,0.3826 0.662395,0.4617 0.247301,0.1953 0.467745,-0.2109 0.57173,-0.095 z"
             id="path50594" /></g></g></g></g></svg>
