<?xml version="1.0" encoding="UTF-8" standalone="no"?>
<!-- Created with Inkscape (http://www.inkscape.org/) -->

<svg
   width="268.67789mm"
   height="268.67789mm"
   viewBox="0 0 268.67789 268.67789"
   version="1.1"
   id="svg5"
   xml:space="preserve"
   xmlns="http://www.w3.org/2000/svg"
   xmlns:svg="http://www.w3.org/2000/svg"><defs
     id="defs2" /><g
     id="layer1"
     transform="translate(-198.63403,240.95137)"><g
       id="g4008"
       transform="translate(6.45948,-725.27394)"
       style="stroke-width:5.29167;stroke-dasharray:none"><path
         style="font-variation-settings:normal;opacity:1;fill:none;fill-opacity:1;stroke:#000000;stroke-width:5.29167;stroke-linecap:butt;stroke-linejoin:miter;stroke-miterlimit:4;stroke-dasharray:none;stroke-dashoffset:0;stroke-opacity:1;stop-color:#000000;stop-opacity:1"
         d="m 223.04477,547.23434 c 0,0 17.83189,-41.8026 71.32755,6.72351"
         id="path3852" /><path
         style="font-variation-settings:normal;opacity:1;fill:none;fill-opacity:1;stroke:#000000;stroke-width:5.29167;stroke-linecap:butt;stroke-linejoin:miter;stroke-miterlimit:4;stroke-dasharray:none;stroke-dashoffset:0;stroke-opacity:1;stop-color:#000000;stop-opacity:1"
         d="m 352.5452,545.18808 c 0,0 29.52493,-40.34099 62.26545,17.53955"
         id="path3854" /><path
         style="font-variation-settings:normal;opacity:1;fill:none;fill-opacity:1;stroke:#000000;stroke-width:5.29167;stroke-linecap:butt;stroke-linejoin:miter;stroke-miterlimit:4;stroke-dasharray:none;stroke-dashoffset:0;stroke-opacity:1;stop-color:#000000;stop-opacity:1"
         d="m 359.56102,602.48397 c 0,0 4.09257,-40.6333 41.21798,2.63094 0,0 -7.01585,57.29589 -41.21798,-2.63094 z"
         id="path3856" /><path
         style="font-variation-settings:normal;opacity:1;fill:none;fill-opacity:1;stroke:#000000;stroke-width:5.29167;stroke-linecap:butt;stroke-linejoin:miter;stroke-miterlimit:4;stroke-dasharray:none;stroke-dashoffset:0;stroke-opacity:1;stop-color:#000000;stop-opacity:1"
         d="m 288.52579,594.00651 c 0,0 -41.51029,-16.9549 -35.37144,7.89281 0,0 28.64792,48.81843 35.37144,-7.89281 z"
         id="path3858" /><path
         style="font-variation-settings:normal;opacity:1;fill:none;fill-opacity:1;stroke:#000000;stroke-width:5.29167;stroke-linecap:butt;stroke-linejoin:miter;stroke-miterlimit:4;stroke-dasharray:none;stroke-dashoffset:0;stroke-opacity:1;stop-color:#000000;stop-opacity:1"
         d="m 311.32724,653.05638 c 0,0 -36.24844,51.15705 13.447,60.5115 49.69542,9.35442 51.7417,-33.03286 51.7417,-33.03286 0,0 -17.83188,-31.57122 -54.37264,-35.37146"
         id="path3860" /><rect
         style="display:inline;fill:none;stroke:none;stroke-width:5.29167;stroke-dasharray:none;stroke-opacity:1"
         id="rect5028"
         width="268.67789"
         height="268.67789"
         x="628.68103"
         y="-176.96956"
         transform="translate(-436.50648,661.29213)" /></g></g></svg>
