<?xml version="1.0" encoding="UTF-8" standalone="no"?>
<!-- Created with Inkscape (http://www.inkscape.org/) -->

<svg
   width="268.67789mm"
   height="268.67789mm"
   viewBox="0 0 268.67789 268.67789"
   version="1.1"
   id="svg5"
   xml:space="preserve"
   xmlns="http://www.w3.org/2000/svg"
   xmlns:svg="http://www.w3.org/2000/svg"><defs
     id="defs2" /><g
     id="layer1"
     transform="translate(1022.3541,-1019.1782)"><g
       id="g53557"><rect
         style="display:inline;fill:none;fill-opacity:1;stroke:none;stroke-width:5.29167;stroke-dasharray:none;stroke-opacity:1"
         id="rect53381"
         width="268.67789"
         height="268.67789"
         x="-1022.3541"
         y="1019.1782" /><g
         id="g52825"
         transform="matrix(2.1425613,0,0,2.1425613,-3184.792,-1155.3965)"><g
           style="fill:#000000;fill-opacity:1;stroke-linejoin:miter"
           id="g50876"
           transform="matrix(0.0212301,0.88760364,-0.82571352,0.02282136,2056.9295,403.92004)"><path
             d="m 690.1985,1259.8795 c -0.3073,-0.7788 -1.0888,-2.1344 -1.8399,-3.4198 -0.7511,-1.2853 -1.4566,-2.5132 -2.124,-3.6792 -0.66734,-1.1661 -1.28404,-2.2798 -1.77977,-3.2512 -0.49573,-0.9714 -0.90197,-1.8956 -1.28106,-2.8129 -0.37907,-0.9172 -0.71997,-1.8344 -1.03067,-2.7481 -0.31064,-0.9136 -0.88565,-1.7151 -1.315,-2.7808 -0.42936,-1.0655 -0.87687,-2.5643 -1.2251,-4.3104 -0.3482,-1.7461 -0.63364,-3.7333 -0.85434,-5.963 -0.22066,-2.2299 -0.3841,-4.7039 -0.23682,-6.6501 0.14726,-1.9461 0.14726,-1.9461 -0.013,-0.6555 0,0 -0.50684,2.5609 -1.06234,4.9342 -0.5554,2.3733 -0.8961,4.5935 -1.02976,6.6582 -0.13364,2.0646 -0.0805,3.975 0.15301,5.7317 0.23355,1.7569 0.55075,2.8682 0.86701,3.8963 0.31634,1.0279 0.83244,1.9803 1.38554,2.9179 0.5531,0.9376 1.1429,1.8605 1.78816,2.7764 0.64524,0.9159 1.46304,1.9465 2.34984,2.959 0.8868,1.0126 1.828,2.0544 2.8644,3.0952 1.0363,1.0406 2.1545,2.0891 2.8466,2.529 1.2031,1.0519 1.02626,0.1611 1.5372,0.7731 z"
             id="path50874" /></g><g
           style="fill:#000000;fill-opacity:1;stroke-linejoin:miter"
           id="g50880"
           transform="matrix(0.0212301,0.88760364,-0.82571352,0.02282136,2056.9295,403.92004)"><path
             d="m 678.34186,1193.0292 c -0.0918,-0.3262 -0.32019,-0.9191 -0.47996,-1.5102 -0.1598,-0.5909 -0.25796,-1.178 -0.29916,-1.7636 -0.0412,-0.5856 -0.0312,-1.1724 0.023,-1.5719 0.0542,-0.3996 0.1524,-0.7288 0.31225,-1.175 0.15991,-0.446 0.37235,-1.0024 0.65745,-1.6579 0.2852,-0.6555 0.63607,-1.4089 0.9115,-2.0036 0.2754,-0.5946 0.43087,-0.9201 0.5996,-1.245 0.1687,-0.3247 0.3559,-0.6462 0.55746,-0.966 0.20154,-0.3197 0.41464,-0.6395 0.67108,-1.033 0.25641,-0.3935 0.52002,-0.7629 0.80906,-1.1238 0.28915,-0.3607 0.60415,-0.7132 0.9456,-1.0578 0.3414,-0.3446 0.7033,-0.6882 1.29075,-1.4954 0.58745,-0.8072 1.47355,-1.881 2.44055,-2.8816 0.967,-1.0006 1.89924,-1.9812 2.7537,-2.9196 0.8545,-0.9385 1.62124,-1.8448 2.3159,-2.7002 0.6946,-0.8555 1.3117,-1.6687 1.97276,-2.597 0.66108,-0.9282 1.18084,-1.7131 1.57254,-2.3419 0.39164,-0.6288 0.71793,-1.0538 0.88724,-1.3097 0.16931,-0.2557 0.16931,-0.2557 0.0565,-0.085 0,0 -0.22577,0.3411 -0.64,0.7755 -0.4143,0.4345 -1.0368,0.9379 -1.8268,1.5436 -0.79004,0.6057 -1.7376,1.3213 -2.5659,1.9202 -0.82826,0.599 -1.7293,1.2397 -2.7029,1.9221 -0.9735,0.6824 -2.0081,1.4202 -3.11975,2.1963 -1.11155,0.7762 -2.37275,1.6507 -3.53271,2.6416 -1.15994,0.9909 -1.75334,1.3266 -2.14884,1.8437 -0.39553,0.517 -0.75485,1.047 -1.0804,1.5862 -0.32563,0.5392 -0.6172,1.0874 -0.8606,1.618 -0.24335,0.5306 -0.41834,0.9207 -0.5935,1.3513 -0.1751,0.4304 -0.3333,0.8606 -0.4793,1.2885 -0.146,0.4279 -0.2787,0.8542 -0.3889,1.2663 -0.1101,0.4121 -0.3333,1.3224 -0.50754,2.151 -0.17426,0.8286 -0.31256,1.5571 -0.40546,2.1926 -0.0929,0.6354 -0.13025,1.1857 -0.1224,1.6752 0.008,0.4895 0.1396,1.2142 0.34133,1.8952 0.20167,0.6811 0.47333,1.3225 0.81372,1.9201 0.34035,0.5976 0.74152,1.1518 1.00875,1.3882 0.4548,0.5094 0.62584,-0.01 0.81346,0.2628 z"
             id="path50878" /></g><g
           style="fill:#000000;fill-opacity:1;stroke-linejoin:miter"
           id="g50884"
           transform="matrix(0.0212301,0.88760364,-0.82571352,0.02282136,2056.9295,403.92004)"><path
             d="m 722.06104,1247.9366 c -0.10964,-0.033 -0.4917,-0.1297 -1.10437,-0.3453 -0.61261,-0.2154 -1.44764,-0.5503 -2.50867,-0.9801 -1.06104,-0.4298 -2.3469,-0.9592 -3.40393,-1.444 -1.05707,-0.4848 -1.79743,-0.9073 -2.42591,-1.2766 -0.62846,-0.3694 -1.14076,-0.6858 -1.52636,-0.9482 -0.3857,-0.2624 -0.6261,-0.4671 -0.8722,-0.7318 -0.246,-0.2648 -0.501,-0.6399 -0.7318,-1.1476 -0.2309,-0.5076 -0.42713,-1.164 -0.5789,-1.9745 -0.1518,-0.8105 -0.25515,-1.7747 -0.472,-2.4684 -0.2168,-0.6936 -0.25465,-1.0781 -0.26954,-1.3921 -0.0149,-0.3139 -0.0119,-0.5527 1.4e-4,-0.7104 0.0119,-0.1577 0.0129,-0.2356 0.10234,-0.4131 0.0894,-0.1775 0.36436,-0.5889 0.65266,-0.978 0.2883,-0.3892 0.59013,-0.7564 0.90587,-1.1021 0.3158,-0.3458 0.64603,-0.6704 1.15033,-1.0487 0.5043,-0.3783 1.2672,-0.874 1.9033,-1.2843 0.6361,-0.4103 1.1493,-0.7207 1.53,-0.9309 0.38066,-0.2102 0.6065,-0.3213 1.02526,-0.4733 0.4187,-0.1519 1.03134,-0.373 1.6903,-0.5805 0.65894,-0.2076 1.36354,-0.4046 2.11451,-0.5832 0.75103,-0.1785 1.55029,-0.2329 2.16913,-0.2412 0.6188,-0.01 0.6188,-0.01 0.2063,0 0,0 -0.82514,0.011 -1.6186,-0.03 -0.7935,-0.041 -1.5602,-0.1031 -2.2992,-0.1316 -0.73907,-0.028 -1.44946,-0.014 -2.1159,0.028 -0.66644,0.043 -0.91003,0.04 -1.3494,0.1181 -0.4395,0.078 -0.98495,0.2194 -1.6569,0.4216 -0.6719,0.202 -1.47527,0.4662 -2.43663,0.8288 -0.96137,0.3628 -1.56561,0.7298 -2.04633,1.0552 -0.48071,0.3256 -0.95004,0.6812 -1.40741,1.0664 -0.45739,0.3853 -0.90277,0.7998 -1.35463,1.2691 -0.4518,0.4692 -0.7773,0.9658 -0.9841,1.4416 -0.20674,0.4757 -0.3467,0.9734 -0.4391,1.4954 -0.0923,0.522 -0.1382,1.0735 -0.14636,1.698 -0.008,0.6244 -0.0829,1.9508 0.24426,3.1246 0.3272,1.1738 0.75196,2.2251 1.2728,3.1552 0.52096,0.9299 1.151,1.7306 1.8603,2.3394 0.7093,0.6089 1.1328,0.883 1.6302,1.1381 0.4975,0.2551 1.07667,0.5083 1.7556,0.7612 0.67904,0.253 1.4637,0.5082 2.4012,0.7881 0.9375,0.2799 2.5468,0.5363 3.8671,0.6961 1.3202,0.1599 2.40323,0.2553 3.2482,0.2912 0.8449,0.036 1.4507,0.029 1.6883,-0.012 0.3693,-0.052 0.1984,-0.4741 0.33014,-0.486 z"
             id="path50882" /></g><g
           style="fill:#000000;fill-opacity:1;stroke-linejoin:miter"
           id="g50888"
           transform="matrix(0.0212301,0.88760364,-0.82571352,0.02282136,2056.9295,403.92004)"><path
             d="m 722.99097,1245.2458 c 0.28133,-0.042 0.83538,-0.2436 1.43553,-0.5037 0.60023,-0.2602 1.2449,-0.5804 1.9269,-0.9678 0.682,-0.3875 1.3996,-0.8423 2.00353,-1.3179 0.60401,-0.4756 0.9433,-0.8696 1.23657,-1.3177 0.2933,-0.4483 0.5443,-0.9431 0.76307,-1.4788 0.21883,-0.5355 0.40588,-1.112 0.51263,-1.9585 0.10675,-0.8463 -0.2741,-1.5777 -0.44714,-2.2602 -0.17306,-0.6825 -0.3794,-1.3003 -0.61496,-1.8543 -0.23557,-0.5539 -0.5024,-1.0439 -0.909,-1.6399 -0.4067,-0.5959 -0.9622,-1.3392 -1.5326,-1.9935 -0.5705,-0.6543 -1.15456,-1.2173 -1.7382,-1.6968 -0.58354,-0.4795 -1.09965,-0.954 -1.498,-1.2715 -0.3984,-0.3175 -0.3984,-0.3175 -0.13284,-0.1058 0,0 0.53119,0.4233 1.00034,0.9586 0.4692,0.5353 0.85366,1.1846 1.1989,1.8988 0.34525,0.7141 0.6643,1.4877 0.9525,2.3377 0.2882,0.8498 0.4182,1.2495 0.50274,1.6749 0.0846,0.4254 0.13756,0.9156 0.15726,1.4708 0.0198,0.5551 0.0143,1.1737 -0.0661,1.7971 -0.0804,0.6234 -0.084,0.937 -0.12897,1.3716 -0.045,0.4347 -0.1243,0.8252 -0.23053,1.1736 -0.10617,0.3485 -0.22957,0.6625 -0.34473,0.9152 -0.11517,0.2526 -0.64044,0.8559 -1.17511,1.4328 -0.53467,0.5769 -1.03913,1.0935 -1.51323,1.5524 -0.4742,0.4589 -0.925,0.8521 -1.1203,1.064 -0.43135,0.3288 -0.002,0.6021 -0.23823,0.7189 z"
             id="path50886" /></g><g
           style="fill:#000000;fill-opacity:1;stroke-linejoin:miter"
           id="g50892"
           transform="matrix(0.0212301,0.88760364,-0.82571352,0.02282136,2056.9295,403.92004)"><path
             d="m 718.3561,1196.8383 c -1.4082,-2.2232 -4.8464,-5.9197 -5.17403,-6.3351 -0.32764,-0.4156 -0.61197,-0.8132 -0.83297,-1.1663 -0.2209,-0.3529 -0.3727,-0.6617 -0.4564,-0.917 -0.0837,-0.2551 -0.1588,-0.5849 -0.46356,-0.9667 -0.30474,-0.3817 -0.50694,-0.8015 -0.70784,-1.2495 -0.2008,-0.448 -0.39995,-0.9235 -0.6019,-1.4255 -0.202,-0.502 -0.4069,-1.033 -0.45314,-1.1525 -0.0463,-0.1194 -0.0913,-0.248 -0.1322,-0.3862 -0.0409,-0.1383 -0.0776,-0.2864 -0.10966,-0.4438 -0.0321,-0.1574 -0.0594,-0.3305 -0.0769,-0.4545 -0.0174,-0.124 -0.032,-0.3417 -0.0427,-0.6471 -0.0107,-0.3053 -0.0175,-0.6931 -0.0284,-1.1621 -0.0109,-0.4691 -0.0275,-0.97 0.0332,-1.4744 0.0608,-0.5043 0.1143,-0.9759 0.15,-1.3909 0.0357,-0.415 0.0599,-0.7716 0.0726,-1.0698 0.0127,-0.2983 0.007,-0.5102 0.22323,-1.2038 0.2165,-0.6938 0.2306,-0.757 0.2414,-0.834 0.0108,-0.077 0.0184,-0.1677 0.0226,-0.2724 0.004,-0.1046 0.005,-0.2231 0.004,-0.3189 -8.5e-4,-0.096 -8.5e-4,-0.096 -3e-4,-0.032 0,0 10e-4,0.1277 -9e-4,0.2416 -0.002,0.1139 -0.007,0.2139 -0.016,0.3 -0.009,0.086 -0.0206,0.1586 -0.1831,0.5191 -0.1625,0.3606 -0.5617,0.99 -0.65004,1.2389 -0.0884,0.2489 -0.2027,0.5359 -0.34666,0.8751 -0.14406,0.3391 -0.3177,0.7304 -0.5138,1.1755 -0.1962,0.4451 -0.43293,0.9932 -0.5817,1.5259 -0.1487,0.5326 -0.26896,0.9697 -0.35886,1.3372 -0.0898,0.3673 -0.15674,0.6665 -0.20069,0.9074 -0.0439,0.2409 -0.0632,0.4174 -0.0838,0.6342 -0.0206,0.2168 -0.0324,0.4342 -0.0353,0.6493 -0.003,0.2149 0.004,0.4275 0.0205,0.6377 0.0169,0.2103 0.0457,0.4176 0.13176,1.0061 0.0861,0.5885 0.1903,1.1551 0.30477,1.7007 0.11443,0.5455 0.23873,1.0704 0.37316,1.5752 0.13453,0.5048 0.0764,1.009 0.30017,1.45 0.2237,0.4411 0.53705,0.9197 0.90345,1.3805 0.36639,0.4607 0.78815,0.9087 1.27135,1.344 0.4833,0.4353 1.0704,0.9037 3.43574,2.0071 4.28082,2.7286 2.64696,0.7716 4.56246,2.3969 z"
             id="path50890" /></g><g
           style="fill:#000000;fill-opacity:1;stroke-linejoin:miter"
           id="g50896"
           transform="matrix(0.0212301,0.88760364,-0.82571352,0.02282136,2056.9295,403.92004)"><path
             d="m 710.81854,1175.2069 c 0.0614,0.02 0.19202,0.038 0.33466,0.053 0.1427,0.015 0.29754,0.026 0.4646,0.035 0.167,0.01 0.3464,0.013 1.089,-0.019 0.74254,-0.032 2.01006,-0.1089 2.155,-0.1237 0.14504,-0.015 0.3253,-0.041 0.53346,-0.079 0.20814,-0.037 0.4466,-0.086 0.71704,-0.1449 0.2705,-0.059 0.5076,-0.1062 0.77356,-0.1289 0.26604,-0.023 0.53748,-0.054 0.78104,-0.086 0.2435,-0.032 0.46066,-0.064 0.5873,-0.3054 0.12666,-0.2413 0.2643,-0.3092 0.47114,-0.4144 0.20676,-0.1053 0.44312,-0.2406 0.70349,-0.4036 0.26047,-0.163 0.54707,-0.3539 0.86137,-0.5734 0.31435,-0.2196 0.6296,-0.4555 0.9234,-0.6263 0.2938,-0.1708 0.6009,-0.3539 0.9048,-0.5426 0.30396,-0.1886 0.60474,-0.3827 0.9023,-0.5824 0.29754,-0.1997 0.6132,-0.3612 0.9722,-0.6139 0.35897,-0.2527 0.35897,-0.2527 0.11965,-0.084 0,0 -0.47865,0.3369 -0.81299,0.4564 -0.33436,0.1195 -0.67856,0.2105 -1.02209,0.2946 -0.34351,0.084 -0.68622,0.1618 -1.0282,0.2326 -0.34207,0.071 -0.71643,0.1487 -1.10797,0.2827 -0.39154,0.1341 -0.7291,0.2415 -1.0258,0.3282 -0.2967,0.086 -0.5507,0.1518 -0.75905,0.1954 -0.20832,0.044 -0.38665,0.071 -0.52785,0.093 -0.14116,0.021 -0.4044,-0.2837 -0.5896,-0.2046 -0.1851,0.079 -0.4028,0.1679 -0.6517,0.2658 -0.249,0.098 -0.59584,0.2227 -0.8806,0.3662 -0.2847,0.1436 -0.504,0.256 -0.68973,0.3479 -0.18577,0.092 -0.33587,0.1654 -0.44702,0.2178 -0.11115,0.052 -0.20455,0.088 -1.38855,0.5481 -1.18396,0.4597 -1.32953,0.5101 -1.4869,0.5576 -0.1573,0.048 -0.3037,0.088 -0.43907,0.1219 -0.13537,0.034 -0.25963,0.06 -0.31628,0.081 -0.11465,0.02 -0.0627,0.4561 -0.12061,0.4552 z"
             id="path50894" /></g><g
           style="fill:#000000;fill-opacity:1;stroke-linejoin:miter"
           id="g50900"
           transform="matrix(0.0212301,0.88760364,-0.82571352,0.02282136,2056.9295,403.92004)"><path
             d="m 726.5147,1170.3674 c 0.85975,0.5307 2.6568,1.2693 2.6782,1.2886 0.0213,0.019 0.0702,0.063 0.16135,0.1438 0.0912,0.08 0.21595,0.1941 0.36775,0.3413 0.1518,0.1471 0.2801,0.2869 0.78654,0.934 0.50646,0.6471 0.89942,1.2239 1.16756,1.7369 0.2681,0.5131 0.41094,0.9539 0.4589,1.305 0.048,0.3511 0.0239,0.7123 0.0125,0.6369 -0.0113,-0.075 -0.0241,-0.05 -0.0431,-0.01 -0.0191,0.043 -0.0459,0.1025 -0.0813,0.177 -0.0355,0.074 -0.0408,0.067 -0.2753,0.4704 -0.2345,0.4037 -0.4501,0.7782 -0.63476,1.1099 -0.1847,0.3318 -0.33557,0.6244 -0.45964,0.8823 -0.1241,0.2578 -0.23433,0.5236 -0.5244,1.5999 -0.2901,1.0763 -0.5006,2.016 -0.6914,2.8076 -0.1908,0.7915 -0.36045,1.4322 -0.5044,1.9141 -0.14383,0.4818 -0.27414,0.8339 -0.31845,0.9555 -0.0442,0.1217 -0.0874,0.2299 -0.13428,0.3372 -0.0468,0.1074 -0.0971,0.2134 -0.15267,0.3186 -0.0555,0.1052 -0.0458,0.1306 -0.56913,0.8115 -0.52347,0.6809 -0.98407,1.314 -1.37437,1.8864 -0.39034,0.5723 -0.7055,1.0887 -0.9533,1.5452 -0.2478,0.4565 -0.4123,0.8296 -0.5651,1.1797 -0.15277,0.3501 -0.2913,0.807 -0.413,1.3584 -0.1218,0.5515 -0.2315,1.2007 -0.32375,1.732 -0.0923,0.5312 -0.0923,0.5312 0.0149,0.192 0,0 0.3508,-0.6337 0.64885,-1.1676 0.29809,-0.5341 0.56701,-0.9579 0.79779,-1.2677 0.23076,-0.3098 0.44366,-0.536 0.71956,-0.8368 0.2759,-0.3007 0.6319,-0.6382 1.0726,-1.0252 0.4408,-0.3868 0.9631,-0.8242 1.5713,-1.3073 0.6082,-0.4832 1.3156,-1.041 1.4863,-1.2231 0.17075,-0.182 0.30026,-0.3304 0.4241,-0.4854 0.1239,-0.1549 0.23926,-0.3166 0.34845,-0.484 0.10919,-0.1675 0.20099,-0.3178 0.45605,-0.7577 0.2551,-0.4401 0.55146,-1.0131 0.8871,-1.7108 0.3356,-0.6978 0.7132,-1.5252 1.17705,-2.4714 0.46385,-0.9461 0.72105,-2.086 0.75345,-2.2198 0.0324,-0.1338 0.0997,-0.3572 0.1918,-0.6445 0.0921,-0.2874 0.20624,-0.6355 0.3446,-1.0405 0.1384,-0.405 0.3237,-0.8984 0.3937,-1.1245 0.07,-0.2259 0.113,-0.4028 0.1481,-0.581 0.0352,-0.1784 0.0612,-0.3582 0.0762,-0.5426 0.0149,-0.1845 0.0126,-0.5346 -0.1574,-1.2384 -0.17006,-0.7039 -0.4959,-1.4036 -0.9481,-2.0532 -0.4522,-0.6496 -1.0079,-1.2682 -1.6825,-1.8533 -0.6746,-0.585 -1.4603,-1.1426 -1.72385,-1.3005 -0.26361,-0.158 -0.48025,-0.2747 -0.67825,-0.3709 -0.198,-0.096 -0.38333,-0.1724 -0.5715,-0.2312 -0.1882,-0.059 -0.3214,-0.077 -1.32593,0 -1.93781,-0.1444 -1.10553,0.5016 -2.03877,0.2789 z"
             id="path50898" /></g><g
           style="fill:#000000;fill-opacity:1;stroke-linejoin:miter"
           id="g50904"
           transform="matrix(0.0212301,0.88760364,-0.82571352,0.02282136,2056.9295,403.92004)"><path
             d="m 780.48755,1232.5431 c -0.19485,-0.1505 -0.63049,-0.4176 -1.09545,-0.7465 -0.4649,-0.3289 -0.9596,-0.7196 -1.49037,-1.1638 -0.5307,-0.4441 -1.099,-0.9411 -1.91103,-1.7446 -0.812,-0.8036 -1.9644,-1.8955 -3.1687,-3.0212 -1.2042,-1.1258 -2.47874,-2.261 -3.8114,-3.421 -1.3327,-1.1599 -2.7256,-2.3409 -3.3392,-2.8652 -0.61366,-0.5244 -0.6832,-0.6618 -0.7661,-0.8751 -0.083,-0.2133 -0.16885,-0.5105 -0.23806,-0.8952 -0.0692,-0.3845 -0.11804,-0.8529 -0.1568,-1.4279 -0.0387,-0.575 -0.0433,-1.2372 -0.13064,-1.8145 -0.0873,-0.5774 -0.12034,-1.0773 -0.1248,-1.4921 -0.004,-0.4147 0.014,-0.7386 0.16865,-1.2918 0.15465,-0.5531 0.49645,-1.6026 0.78245,-2.4642 0.286,-0.8617 0.52596,-1.5265 0.70577,-1.9821 0.17973,-0.4556 0.26433,-0.6683 1.65883,-3.345 1.39445,-2.6766 3.956,-7.9584 4.2498,-8.5239 0.2938,-0.5656 0.6674,-1.1107 1.12304,-1.6486 0.45566,-0.5378 1.00049,-1.0614 1.46442,-1.432 0.46394,-0.3706 0.46394,-0.3706 0.12534,-0.1695 0,0 -0.76505,0.264 -1.4564,0.6175 -0.6914,0.3537 -1.3218,0.7733 -1.88574,1.2626 -0.56396,0.4893 -1.05353,1.0293 -4.76776,5.5646 -3.71423,4.5354 -3.89844,4.7713 -4.17523,5.2241 -0.27673,0.4526 -0.59473,1.033 -0.98731,1.7676 -0.39266,0.7346 -0.86163,1.6328 -1.41316,2.756 -0.5515,1.1231 -0.78416,1.9471 -0.8993,2.5841 -0.1151,0.637 -0.1887,1.3133 -0.29416,2.0383 -0.10547,0.7248 -0.0199,1.4955 0.1007,2.3369 0.12066,0.8414 0.28206,1.6261 0.49903,2.323 0.21698,0.697 0.47603,1.3492 0.78793,1.9585 0.3119,0.6093 0.6919,1.1711 1.25217,1.7568 0.56023,0.5857 2.20283,1.6037 3.7287,2.5237 1.52588,0.9202 3.00153,1.8106 4.42023,2.6814 1.4187,0.871 2.7996,1.697 4.1362,2.5127 1.3367,0.8156 2.11404,1.2197 2.8185,1.5437 0.70453,0.324 1.3644,0.5905 1.9789,0.7974 0.61455,0.2068 1.1787,0.3618 1.46044,0.3855 0.50986,0.1017 0.42236,-0.3881 0.65051,-0.3102 z"
             id="path50902" /></g><g
           style="fill:#000000;fill-opacity:1;stroke-linejoin:miter"
           id="g50908"
           transform="matrix(0.0212301,0.88760364,-0.82571352,0.02282136,2056.9295,403.92004)"><path
             d="m 768.71454,1230.756 c 0.12842,-0.096 0.35276,-0.3478 0.5871,-0.6498 0.23431,-0.3019 0.47866,-0.6534 0.73316,-1.0544 0.25445,-0.401 0.51586,-0.8528 0.6644,-1.1094 0.1486,-0.2565 0.2744,-0.5117 0.47426,-0.9495 0.19994,-0.4376 0.48364,-1.0904 0.85364,-1.9632 0.36993,-0.8728 0.79407,-1.9756 1.2185,-3.1181 0.42444,-1.1423 0.73273,-2.1376 1.0004,-3.1279 0.2676,-0.9902 0.50485,-1.974 0.6949,-2.9531 0.1901,-0.9793 0.3441,-1.9526 0.2559,-2.8406 -0.0882,-0.888 -0.1266,-1.7413 -0.1914,-2.5674 -0.0649,-0.826 -0.1564,-1.6246 -0.27457,-2.3955 -0.11813,-0.7708 -0.26323,-1.5136 -0.39753,-2.0729 -0.13426,-0.5593 -0.28954,-1.1131 -0.5274,-1.8146 -0.2378,-0.7014 -0.5533,-1.5623 -0.961,-2.5852 -0.4077,-1.0228 -0.90154,-2.2105 -1.38006,-3.4014 -0.47854,-1.191 -0.73324,-2.3217 -0.74267,-2.3931 -0.01,-0.071 -0.0172,-0.1417 -0.0232,-0.2111 -0.006,-0.069 -0.0101,-0.1379 -0.0123,-0.1887 -0.002,-0.051 -0.002,-0.051 -7e-4,-0.017 0,0 0.003,0.068 0.008,0.1364 0.005,0.069 0.0113,0.1385 0.0196,0.2091 0.008,0.071 0.0183,0.1425 0.1029,1.3088 0.0845,1.1661 0.21009,2.5794 0.3252,3.79 0.11514,1.2104 0.20734,2.2296 0.27508,3.0546 0.0678,0.8249 0.10096,1.4525 0.10776,1.8864 0.007,0.434 0.014,1.1192 8e-4,1.7992 -0.013,0.6801 -0.0544,1.382 -0.1241,2.1057 -0.0698,0.7238 -0.168,1.4696 -0.29397,2.2566 -0.12597,0.7871 -0.38493,1.6808 -0.38813,2.5683 -0.003,0.8874 -0.0378,1.7956 -0.0923,2.7266 -0.0545,0.9312 -0.15316,1.8813 -0.26576,2.8465 -0.11253,0.9653 -0.3104,2.2626 -0.483,3.3463 -0.1727,1.0837 -0.29506,1.9348 -0.38734,2.5454 -0.0922,0.6106 -0.14643,0.9757 -0.17276,1.0973 -0.0263,0.1215 -0.1396,0.6582 -0.24314,1.1245 -0.10346,0.4662 -0.21032,0.883 -0.32216,1.2495 -0.11174,0.3667 -0.2283,0.6834 -0.2666,0.836 -0.12333,0.2696 0.314,0.4083 0.22884,0.5255 z"
             id="path50906" /></g></g></g></g></svg>
