<?xml version="1.0" encoding="UTF-8" standalone="no"?>
<!-- Created with Inkscape (http://www.inkscape.org/) -->

<svg
   width="231.293mm"
   height="219.88716mm"
   viewBox="0 0 231.293 219.88716"
   version="1.1"
   id="svg5"
   xml:space="preserve"
   xmlns="http://www.w3.org/2000/svg"
   xmlns:svg="http://www.w3.org/2000/svg"><defs
     id="defs2" /><g
     id="layer1"
     transform="translate(-67.562992,153.16574)"><g
       id="g4001"
       transform="matrix(1.5172641,0,0,1.5172641,-377.94715,-516.43696)"
       style="stroke:#000000;stroke-width:3.48764;stroke-dasharray:none;stroke-opacity:1"><path
         style="font-variation-settings:normal;opacity:1;fill:none;fill-opacity:1;stroke:#000000;stroke-width:3.48764;stroke-linecap:butt;stroke-linejoin:miter;stroke-miterlimit:4;stroke-dasharray:none;stroke-dashoffset:0;stroke-opacity:1;stop-color:#000000;stop-opacity:1"
         d="m 295.24931,258.41622 c 0,0 8.76977,-22.21678 40.04865,-10.23141 31.27891,11.98537 21.63215,7.8928 21.63215,7.8928"
         id="path3840" /><path
         style="font-variation-settings:normal;opacity:1;fill:none;fill-opacity:1;stroke:#000000;stroke-width:3.48764;stroke-linecap:butt;stroke-linejoin:miter;stroke-miterlimit:4;stroke-dasharray:none;stroke-dashoffset:0;stroke-opacity:1;stop-color:#000000;stop-opacity:1"
         d="m 378.85454,257.24692 c 0,0 27.47865,-16.07793 32.15587,-16.07793 4.67723,0 30.98657,11.40071 33.32517,31.86354"
         id="path3842" /><path
         style="font-variation-settings:normal;opacity:1;fill:none;fill-opacity:1;stroke:#000000;stroke-width:3.48764;stroke-linecap:butt;stroke-linejoin:miter;stroke-miterlimit:4;stroke-dasharray:none;stroke-dashoffset:0;stroke-opacity:1;stop-color:#000000;stop-opacity:1"
         d="m 419.48787,285.89488 c -20.46282,-35.37146 -37.41774,-0.29234 -37.41774,-0.29234 0,0 22.50911,30.40193 37.41774,0.29234 z"
         id="path3844" /><path
         style="font-variation-settings:normal;opacity:1;fill:none;fill-opacity:1;stroke:#000000;stroke-width:3.48764;stroke-linecap:butt;stroke-linejoin:miter;stroke-miterlimit:4;stroke-dasharray:none;stroke-dashoffset:0;stroke-opacity:1;stop-color:#000000;stop-opacity:1"
         d="m 346.6987,278.58672 c 0,0 -1.46164,35.37146 -33.32517,14.03165"
         id="path3846" /><path
         style="font-variation-settings:normal;opacity:1;fill:none;fill-opacity:1;stroke:#000000;stroke-width:3.48764;stroke-linecap:butt;stroke-linejoin:miter;stroke-miterlimit:4;stroke-dasharray:none;stroke-dashoffset:0;stroke-opacity:1;stop-color:#000000;stop-opacity:1"
         d="m 308.40397,286.18719 c 0,0 2.33862,-22.21678 37.71005,-10.23141"
         id="path3848" /><path
         style="font-variation-settings:normal;opacity:1;fill:none;fill-opacity:1;stroke:#000000;stroke-width:3.48764;stroke-linecap:butt;stroke-linejoin:miter;stroke-miterlimit:4;stroke-dasharray:none;stroke-dashoffset:0;stroke-opacity:1;stop-color:#000000;stop-opacity:1"
         d="m 321.55865,354.00683 58.17288,-9.06211 1.46164,24.84771 c 0,0 -11.40074,23.09376 -50.86475,7.30816 0,0 -8.18512,-3.2156 -8.76977,-23.09376 z"
         id="path3850" /></g></g></svg>
