<?xml version="1.0" encoding="UTF-8" standalone="no"?>
<!-- Created with Inkscape (http://www.inkscape.org/) -->

<svg
   width="240.61156mm"
   height="146.5853mm"
   viewBox="0 0 240.61156 146.5853"
   version="1.1"
   id="svg5"
   xml:space="preserve"
   xmlns="http://www.w3.org/2000/svg"
   xmlns:svg="http://www.w3.org/2000/svg"><defs
     id="defs2" /><g
     id="layer1"
     transform="translate(-648.04518,-1045.6957)"><g
       id="g4060"
       transform="rotate(16.287243,-4562.7822,-456.81147)"
       style="stroke:#000000;stroke-width:5.29167;stroke-dasharray:none;stroke-opacity:1"><path
         style="font-variation-settings:normal;opacity:1;fill:none;fill-opacity:1;stroke:#000000;stroke-width:5.29167;stroke-linecap:butt;stroke-linejoin:miter;stroke-miterlimit:4;stroke-dasharray:none;stroke-dashoffset:0;stroke-opacity:1;stop-color:#000000;stop-opacity:1"
         d="m 864.85676,-466.32812 c 0,0 18.1901,-26.04492 47.12891,-10.33529 0,0 26.04493,2.06706 34.31316,-7.028"
         id="path4042" /><path
         style="font-variation-settings:normal;opacity:1;fill:none;fill-opacity:1;stroke:#000000;stroke-width:5.29167;stroke-linecap:butt;stroke-linejoin:miter;stroke-miterlimit:4;stroke-dasharray:none;stroke-dashoffset:0;stroke-opacity:1;stop-color:#000000;stop-opacity:1"
         d="m 1093.8867,-532.06054 c 0,0 -69.0397,1.65365 -81.8555,21.4974 -12.81572,19.84375 -17.77666,8.68164 -17.77666,8.68164"
         id="path4044" /><path
         style="font-variation-settings:normal;opacity:1;fill:none;fill-opacity:1;stroke:#000000;stroke-width:5.29167;stroke-linecap:butt;stroke-linejoin:miter;stroke-miterlimit:4;stroke-dasharray:none;stroke-dashoffset:0;stroke-opacity:1;stop-color:#000000;stop-opacity:1"
         d="m 1008.3105,-480.38411 c 0,0 20.2572,-27.69857 36.3802,-15.70963 0,0 20.6706,24.80468 -22.7376,19.84374"
         id="path4046" /><path
         style="font-variation-settings:normal;opacity:1;fill:none;fill-opacity:1;stroke:#000000;stroke-width:5.29167;stroke-linecap:butt;stroke-linejoin:miter;stroke-miterlimit:4;stroke-dasharray:none;stroke-dashoffset:0;stroke-opacity:1;stop-color:#000000;stop-opacity:1"
         d="m 932.24283,-462.60742 c 0,0 -24.80469,-14.05599 -40.10091,14.88282"
         id="path4048" /><path
         style="font-variation-settings:normal;opacity:1;fill:none;fill-opacity:1;stroke:#000000;stroke-width:5.29167;stroke-linecap:butt;stroke-linejoin:miter;stroke-miterlimit:4;stroke-dasharray:none;stroke-dashoffset:0;stroke-opacity:1;stop-color:#000000;stop-opacity:1"
         d="m 897.51626,-441.93684 c 0,0 26.45834,16.53645 35.9668,-9.92188"
         id="path4050" /><path
         style="font-variation-settings:normal;opacity:1;fill:none;fill-opacity:1;stroke:#000000;stroke-width:5.29167;stroke-linecap:butt;stroke-linejoin:miter;stroke-miterlimit:4;stroke-dasharray:none;stroke-dashoffset:0;stroke-opacity:1;stop-color:#000000;stop-opacity:1"
         d="m 954.98046,-357.1875 c 0,0 -0.82683,-59.94466 21.08398,-53.33007 21.91081,6.61458 21.08398,-5.78776 21.08398,-5.78776 0,0 12.40238,-14.4694 47.12888,15.29622 0,0 -35.5533,11.57552 -31.0058,24.39127 0,0 -13.64259,4.54753 -26.04494,-0.82682 0,0 -17.36328,26.45833 -28.52539,20.25716"
         id="path4052" /></g></g></svg>
