<?xml version="1.0" encoding="UTF-8" standalone="no"?>
<!-- Created with Inkscape (http://www.inkscape.org/) -->

<svg
   width="148.75894mm"
   height="148.57336mm"
   viewBox="0 0 562.23853 561.53713"
   version="1.1"
   id="SVGRoot"
   xml:space="preserve"
   xmlns:xlink="http://www.w3.org/1999/xlink"
   xmlns="http://www.w3.org/2000/svg"
   xmlns:svg="http://www.w3.org/2000/svg"><defs
     id="defs806"><linearGradient
       id="linearGradient5987"><stop
         style="stop-color:#765849;stop-opacity:1;"
         offset="0"
         id="stop5985" /></linearGradient><linearGradient
       id="linearGradient5981"><stop
         style="stop-color:#ded2c9;stop-opacity:1;"
         offset="0"
         id="stop5979" /></linearGradient><linearGradient
       id="linearGradient5975"><stop
         style="stop-color:#ded2c9;stop-opacity:1;"
         offset="0"
         id="stop5973" /></linearGradient><linearGradient
       id="linearGradient5969"><stop
         style="stop-color:#ded2c9;stop-opacity:1;"
         offset="0"
         id="stop5967" /></linearGradient><linearGradient
       id="linearGradient5963"><stop
         style="stop-color:#ded2c9;stop-opacity:1;"
         offset="0"
         id="stop5961" /></linearGradient><linearGradient
       id="linearGradient5957"><stop
         style="stop-color:#ded2c9;stop-opacity:1;"
         offset="0"
         id="stop5955" /></linearGradient><linearGradient
       id="linearGradient5951"><stop
         style="stop-color:#ded2c9;stop-opacity:1;"
         offset="0"
         id="stop5949" /></linearGradient><linearGradient
       id="backgrey"><stop
         style="stop-color:#e3e3e3;stop-opacity:1;"
         offset="0"
         id="stop5941" /></linearGradient><linearGradient
       id="paper"><stop
         style="stop-color:#ded2c9;stop-opacity:1;"
         offset="0"
         id="stop5935" /></linearGradient><linearGradient
       id="darkbrown"><stop
         style="stop-color:#765849;stop-opacity:1;"
         offset="0"
         id="stop5929" /></linearGradient><linearGradient
       id="linearGradient5911"><stop
         style="stop-color:#000000;stop-opacity:1;"
         offset="0"
         id="stop5909" /></linearGradient><linearGradient
       xlink:href="#backgrey"
       id="linearGradient3008"
       gradientUnits="userSpaceOnUse"
       x1="94.361603"
       y1="-1695.0127"
       x2="1531.7146"
       y2="-1695.0127" /><linearGradient
       xlink:href="#backgrey"
       id="linearGradient4827"
       gradientUnits="userSpaceOnUse"
       gradientTransform="matrix(0.39016775,0,0,0.39016775,-318.59334,665.32106)"
       x1="94.361603"
       y1="-1695.0127"
       x2="1531.7146"
       y2="-1695.0127" /><linearGradient
       xlink:href="#darkbrown"
       id="linearGradient4829"
       gradientUnits="userSpaceOnUse"
       gradientTransform="matrix(0.5455215,0,0,0.49298881,-257.56148,839.90799)"
       x1="-53.051506"
       y1="-1695.629"
       x2="710.50647"
       y2="-1695.629" /><linearGradient
       xlink:href="#paper"
       id="linearGradient4831"
       gradientUnits="userSpaceOnUse"
       gradientTransform="matrix(0.33677312,0,0,0.49298881,-267.37466,839.90799)"
       x1="-53.051506"
       y1="-1695.629"
       x2="710.50647"
       y2="-1695.629" /></defs><g
     id="layer1"
     transform="translate(283.20615,276.7868)"><g
       id="g11343"><rect
         style="fill:url(#linearGradient4827);fill-opacity:1;stroke:none;stroke-width:20.1513;stroke-opacity:1"
         id="rect4711"
         width="560.80878"
         height="560.80878"
         x="-281.77646"
         y="-276.42264"
         ry="0" /><rect
         style="fill:url(#linearGradient4829);fill-opacity:1;stroke:none;stroke-width:6.26678;stroke-dasharray:none;stroke-opacity:1"
         id="rect4713"
         width="409.94507"
         height="561.53711"
         x="-283.20615"
         y="-276.7868"
         ry="0" /><rect
         style="fill:url(#linearGradient4831);fill-opacity:1;stroke:none;stroke-width:4.92388;stroke-dasharray:none;stroke-opacity:1"
         id="rect4823"
         width="253.07616"
         height="561.53711"
         x="-283.20615"
         y="-276.7868"
         ry="0" /><g
         id="g9733"
         transform="translate(-0.38157823,-3.2193105)"><path
           id="path9505"
           style="fill:#fd7bdd;fill-opacity:1;stroke-width:12.407"
           d="m 142.28287,-232.81336 h 87.82206 c 8.39996,0 15.1624,6.76242 15.1624,15.16241 v 116.62951 c 0,8.399946 -6.76244,15.162399 -15.1624,15.162399 h -87.82206 c -8.39994,0 -15.16237,-6.762453 -15.16237,-15.162399 v -116.62951 c 0,-8.39999 6.76243,-15.16241 15.16237,-15.16241 z m -15.16237,0 h 95.43618 V -85.859041 H 127.1205 Z" /><g
           id="g9535"
           transform="matrix(0.87267151,0,0,0.87267151,-489.83268,-606.14023)"><rect
             style="display:inline;opacity:0.5;fill:none;fill-opacity:1;stroke:none;stroke-width:2.66644;stroke-dasharray:none;stroke-opacity:1"
             id="rect9507"
             width="135.38521"
             height="135.38521"
             x="706.9707"
             y="428.23495" /><g
             id="g9533"><g
               style="fill:#000000;fill-opacity:1;stroke-linejoin:miter"
               id="g9511"
               transform="rotate(90,259.41968,748.93978)"><path
                 d="m -27.242628,283.4554 c -0.258604,-0.28996 -0.81793,-0.86748 -1.36067,-1.59834 -0.542738,-0.73086 -1.079422,-1.62466 -1.609089,-2.69366 -0.529669,-1.06898 -1.053003,-2.31666 -1.429474,-3.32285 -0.376469,-1.0062 -0.594069,-1.66398 -0.790419,-2.36715 -0.196348,-0.70317 -0.37119,-1.4518 -0.524263,-2.2459 -0.153072,-0.7941 -0.29187,-1.63213 -0.372299,-2.2257 -0.08042,-0.59357 -0.103764,-0.89706 -0.105324,-1.22006 -0.0016,-0.323 0.01321,-0.66554 0.04904,-1.02811 0.03582,-0.36258 0.09849,-0.74443 0.295004,-1.58621 0.196516,-0.8418 0.573833,-2.25586 1.093075,-3.84632 0.519243,-1.59048 1.224138,-3.3419 2.110811,-5.25207 0.886673,-1.91017 1.942917,-3.9843 2.74122,-5.48883 0.798304,-1.50453 1.258679,-2.2047 1.79115,-2.7988 0.532472,-0.59411 1.155632,-1.08108 1.87799,-1.48034 0.722357,-0.39926 1.56097,-0.70276 2.256754,-0.79744 0.695784,-0.0947 0.695784,-0.0947 0.228544,-0.0568 0,0 -0.944633,2.6e-4 -1.855182,0.0929 -0.910549,0.0926 -1.775173,0.36664 -2.574028,0.82526 -0.798853,0.45861 -1.52533,1.08665 -2.154431,1.86261 -0.6291,0.77597 -2.082452,2.82753 -3.32481,4.78775 -1.242355,1.96021 -2.270244,3.82053 -3.103207,5.57345 -0.83296,1.75294 -1.465697,3.40467 -1.822498,4.9546 -0.356796,1.54995 -0.417999,2.0851 -0.446792,2.56268 -0.0288,0.4776 -0.03497,0.94122 -0.01262,1.39108 0.02235,0.44986 0.07152,0.88564 0.1475,1.29758 0.07598,0.41189 0.281822,1.31521 0.513153,2.18103 0.231335,0.86583 0.486752,1.68536 0.762665,2.45943 0.275912,0.7741 0.572548,1.5026 0.893558,2.18174 0.321011,0.67914 1.030914,2.02814 1.758919,3.1969 0.728006,1.16876 1.471073,2.14226 2.221623,2.91843 0.750547,0.77618 1.51107,1.34155 1.926815,1.50006 0.747892,0.34601 0.485139,0.0356 0.817289,0.22307 z"
                 id="path9509" /></g><g
               style="fill:#000000;fill-opacity:1;stroke-linejoin:miter"
               id="g9515"
               transform="rotate(90,259.41968,748.93978)"><path
                 d="m -23.772135,219.91313 c -0.423545,-0.35106 -1.341457,-1.02186 -2.284643,-1.88826 -0.943186,-0.86639 -1.917728,-1.94894 -2.932455,-3.25436 -1.014727,-1.30541 -2.064976,-2.84383 -2.76718,-4.04618 -0.702201,-1.20233 -0.966117,-1.96679 -1.1021,-2.74472 -0.135987,-0.77791 -0.140545,-1.58326 -0.01583,-2.42955 0.124718,-0.84628 0.383217,-1.74186 0.678432,-2.58027 0.295218,-0.83841 0.649523,-1.50417 1.340352,-2.46912 0.690826,-0.96497 1.676193,-2.22021 2.995927,-3.70946 1.319735,-1.48924 2.963576,-3.20846 4.260035,-4.41824 1.296459,-1.20977 2.310785,-1.88704 3.563301,-2.62392 1.252518,-0.73689 2.735109,-1.54023 4.439959,-2.42346 1.704849,-0.88324 3.615037,-1.89123 5.185319,-2.6192 1.570282,-0.72797 1.570282,-0.72797 0.489863,-0.33219 0,0 -2.261534,0.52299 -4.282799,1.08468 -2.021265,0.56169 -3.796127,1.17358 -5.340089,1.79728 -1.543961,0.62369 -2.864058,1.24954 -4.006316,1.90697 -1.142258,0.65743 -3.229677,2.42322 -4.944224,3.99785 -1.714547,1.57465 -3.099513,2.98843 -4.152915,4.26178 -1.053402,1.27333 -1.749543,2.44728 -2.107052,3.43512 -0.357513,0.98784 -0.681217,2.08398 -0.875243,3.24673 -0.194024,1.16275 -0.218816,2.29454 -0.05924,3.38474 0.159586,1.09019 0.496128,2.12723 1.018876,3.10911 0.52275,0.98189 1.82706,2.64765 3.085925,4.04699 1.258865,1.39933 2.49078,2.54504 3.690045,3.43234 1.199264,0.8873 2.360864,1.50626 2.965473,1.6398 1.105673,0.32723 0.65551,0.002 1.156572,0.19554 z"
                 id="path9513" /></g><g
               style="fill:#000000;fill-opacity:1;stroke-linejoin:miter"
               id="g9519"
               transform="rotate(90,259.41968,748.93978)"><path
                 d="m -5.0239577,248.8412 c -0.1122913,0.18276 -0.262456,0.57253 -0.3909107,0.97771 -0.1284542,0.40517 -0.2358593,0.82474 -0.3198176,1.25784 -0.083958,0.43309 -0.153469,0.87848 -0.188155,1.18705 -0.034686,0.30854 -0.046839,0.62228 -0.05706,1.13397 -0.010222,0.5117 -0.010669,1.23082 0.00656,2.15911 0.017232,0.92829 0.050458,2.06642 0.071421,2.83826 0.020962,0.77182 0.015703,1.09372 -0.00279,1.47943 -0.018494,0.38568 -0.050685,0.8331 -0.096836,1.34076 -0.046151,0.50767 -0.10636,1.07477 -0.144927,1.46937 -0.038567,0.39458 -0.039163,0.53057 -0.034487,0.67214 0.00468,0.14156 0.013934,0.29266 0.027473,0.45609 0.013539,0.16345 0.031277,0.34054 0.088332,0.80761 0.057055,0.46708 0.1587156,1.16031 0.276936,1.76156 0.1182203,0.60127 0.252846,1.12077 0.432961,1.57582 0.180115,0.45504 0.4430155,0.87698 0.5916022,1.07055 0.1485873,0.19358 0.4603438,0.53266 0.830947,0.78846 0.3706031,0.25579 0.7758979,0.4309 1.2012305,0.54257 0.4253323,0.11166 0.8703279,0.17227 1.6903918,0.2272 0.82006388,0.0549 2.0175065,0.0807 3.1611335,0.0296 1.143627,-0.0511 2.2333994,-0.18124 3.2701006,-0.38724 1.0367014,-0.20602 2.0179481,-0.49664 2.7794919,-0.77459 0.7615445,-0.27797 1.3711225,-0.51139 1.9369205,-0.74823 0.565797,-0.23682 1.09207,-0.46979 1.56977,-0.72 0.477699,-0.25022 0.911664,-0.50894 1.238149,-0.71506 0.326486,-0.20612 0.682559,-0.50501 0.953105,-0.83148 0.270545,-0.32645 0.488529,-0.67877 0.683909,-1.0608 0.195378,-0.38204 0.372715,-0.80288 0.536813,-1.20733 0.1641,-0.40447 0.298584,-1.11615 0.271544,-1.80112 -0.02704,-0.68495 -0.15471,-1.42132 -0.370845,-2.25497 -0.216135,-0.83365 -0.521609,-1.77988 -0.80864,-2.5806 -0.287033,-0.80072 -0.523849,-1.36642 -0.789006,-1.8854 -0.265156,-0.51897 -0.561949,-0.991 -0.895166,-1.41411 -0.333217,-0.42311 -0.706474,-0.79351 -1.182236,-1.13753 -0.475761,-0.34403 -1.006609,-0.65534 -1.563766,-0.9285 -0.557159,-0.27316 -1.137321,-0.51303 -1.741871,-0.71522 -0.6045496,-0.2022 -1.2318666,-0.36942 -2.0397885,-0.51229 -0.8079225,-0.14286 -1.7243195,-0.2494 -2.6455078,-0.32373 -0.9211884,-0.0743 -1.8463025,-0.12248 -2.7759952,-0.13437 -0.92969268,-0.0119 -1.8633117,0.0125 -1.8298135,0.72197 0.033498,0.70949 0.89427453,0.38553 1.27266556,0.0697 0.37839104,-0.3158 0.65325204,-0.54647 0.91103394,-0.73555 0.2577819,-0.18911 0.497678,-0.33718 0.7183461,-0.44651 0.2206681,-0.10931 0.4617067,-0.1922 0.6482001,-0.27252 0.1864933,-0.0803 0.4399939,-0.15399 0.7771043,-0.22566 0.3371104,-0.0717 0.7541186,-0.14026 1.107591,-0.22426 0.3534725,-0.084 0.3534725,-0.084 0.1178143,-0.0868 0,0 -0.4713468,-0.18199 -0.8808989,-0.22971 -0.4095521,-0.0477 -0.7570124,-0.0616 -1.0489854,-0.0447 -0.291973,0.017 -0.4841715,0.0556 -0.7635944,0.10066 -0.2794229,0.0451 -0.59388063,0.13872 -0.92474834,0.27161 -0.33086771,0.13288 -0.67902025,0.30423 -1.04380456,0.51564 -0.36478427,0.21141 -0.5785898,0.36774 -1.5998465,1.12337 -1.0212566,0.75563 0.6238482,1.29208 1.51181947,1.39151 0.88797123,0.0994 1.76567653,0.22096 2.63381433,0.36261 0.8681378,0.14165 1.7265189,0.30809 2.5626474,0.49383 0.8361282,0.18573 1.3340916,0.34694 1.8338589,0.5405 0.4997673,0.19357 0.9704407,0.40378 1.409327,0.63956 0.4388867,0.23576 0.8472967,0.49462 1.2164877,0.76741 0.369191,0.27278 0.521102,0.42277 0.689426,0.63495 0.168322,0.21217 0.337161,0.48252 0.501783,0.81483 0.164622,0.33231 0.321307,0.72757 0.468679,1.19339 0.147371,0.46582 0.422631,1.44938 0.618067,2.26373 0.195436,0.81435 0.30792,1.45932 0.349099,1.90653 0.04118,0.4472 0.02461,0.64987 -0.0104,0.67812 -0.03501,0.0282 -0.209964,0.434 -0.345105,0.6961 -0.13514,0.26213 -0.246985,0.44887 -0.325732,0.54884 -0.07875,0.1 -0.09454,0.11249 -0.08538,0.0942 0.0092,-0.0183 -0.339195,0.18044 -0.712292,0.3668 -0.373098,0.18638 -0.787451,0.40263 -1.251455,0.63124 -0.464002,0.2286 -0.979515,0.46283 -1.5458686,0.71029 -0.5663538,0.2475 -1.3270324,0.56885 -2.1109084,0.81732 -0.7838765,0.24851 -1.6433483,0.45099 -2.5818041,0.59299 -0.938456,0.142 -1.95480536,0.22456 -3.05996631,0.25043 -1.10516089,0.0259 -1.40478399,0.0319 -1.60779829,0.0136 -0.2030143,-0.0184 -0.3373211,-0.0468 -0.4069065,-0.069 -0.069585,-0.0222 -0.091976,-0.0241 -0.1616935,-0.10805 -0.069717,-0.084 -0.1993957,-0.20302 -0.2569406,-0.2978 -0.057545,-0.0948 -0.1710735,-0.36176 -0.3050864,-0.7689 -0.1340127,-0.40713 -0.2774503,-0.942 -0.4215317,-1.6023 -0.1440816,-0.66027 -0.1777256,-0.81872 -0.205296,-0.95864 -0.027571,-0.13996 -0.048924,-0.25936 -0.064209,-0.35626 -0.015286,-0.0969 -0.024835,-0.16852 -0.030673,-0.19238 -0.00584,-0.0239 0.00302,-0.64106 0.00422,-1.21479 0.0012,-0.57376 -0.00614,-1.09153 -0.022173,-1.55441 -0.016037,-0.46289 -0.041043,-0.87232 -0.078143,-1.23402 -0.0371,-0.36168 -0.2335501,-1.62844 -0.3999704,-2.67922 -0.166421,-1.05081 -0.29942,-1.89226 -0.402586,-2.52301 -0.1031667,-0.63077 -0.171034,-1.0484 -0.192328,-1.24716 -0.021294,-0.19875 -0.056738,-0.63559 -0.079673,-1.05789 -0.022936,-0.42232 -0.035801,-0.83945 -0.036696,-1.25215 -8.953e-4,-0.41271 0.00822,-0.8221 -0.016106,-1.03272 0.022723,-0.40695 -0.1616159,-0.24351 -0.1145673,-0.43985 z"
                 id="path9517" /></g><g
               style="fill:#000000;fill-opacity:1;stroke-linejoin:miter"
               id="g9523"
               transform="rotate(90,259.41968,748.93978)"><path
                 d="M -0.83023745,219.13826 C -1.2318656,218.8219 -2.065398,218.26627 -2.867962,217.59479 c -0.8025638,-0.67148 -1.5774335,-1.47768 -2.334647,-2.42296 -0.757213,-0.94528 -1.49985,-2.03539 -1.9838687,-2.93245 -0.4840193,-0.89706 -0.7323899,-1.62979 -0.9193283,-2.45204 -0.186939,-0.82225 -0.310591,-1.73522 -0.376656,-2.73884 -0.066065,-1.00364 -0.11355,-2.09806 -0.119336,-2.93983 -0.00579,-0.84178 0.070447,-1.44003 0.177005,-1.94595 0.106557,-0.50592 0.234432,-0.91882 0.377901,-1.23761 0.1434677,-0.31879 0.2899974,-0.55063 0.432198,-0.71603 0.1422004,-0.16539 0.110069,-0.13425 0.2407993,-0.25406 0.1307307,-0.1198 0.3656127,-0.32021 0.6926332,-0.58969 0.3270205,-0.26949 0.7452815,-0.60357 1.1786799,-0.94477 0.4333976,-0.34118 0.8428383,-0.64613 1.2361503,-0.93817 0.3933117,-0.29202 0.7697956,-0.57239 1.1341266,-0.83354 0.3643307,-0.26115 0.7099796,-0.51395 1.1066718,-0.8596 0.3966921,-0.34565 0.7748741,-0.7201 1.165441,-1.09516 0.39056687,-0.37506 0.79710994,-0.74749 1.21935346,-1.11941 0.42224347,-0.37192 0.86227304,-0.74137 1.23337684,-0.95908 0.3711036,-0.21773 0.3711036,-0.21773 0.1209988,-0.0773 0,0 -0.5083165,0.26687 -1.04118226,0.48415 -0.53286578,0.21727 -1.04987741,0.45772 -1.54940158,0.7223 -0.49952416,0.26459 -0.97906286,0.55527 -1.41948596,0.85138 -0.4404234,0.29613 -0.7743078,0.44029 -1.1732864,0.63588 -0.3989788,0.19559 -0.8104335,0.41096 -1.241013,0.63519 -0.43058,0.22423 -0.8735825,0.46802 -1.339488,0.72991 -0.465906,0.26187 -1.0031554,0.59248 -1.4337727,0.86575 -0.4306169,0.27327 -0.7689883,0.49632 -1.0234883,0.66881 -0.254499,0.17248 -0.435765,0.31422 -0.519522,0.40137 -0.083758,0.0871 -0.398903,0.37657 -0.732122,0.82331 -0.333218,0.44674 -0.606891,0.96659 -0.833369,1.55524 -0.226479,0.58864 -0.405857,1.24854 -0.555288,2.02463 -0.149433,0.77609 -0.199725,2.08102 -0.09888,3.25873 0.10084,1.17769 0.293257,2.26867 0.562761,3.27168 0.269506,1.00301 0.61009,1.91829 1.0383455,2.76854 0.4282545,0.85026 1.3717805,2.05557 2.3180609,3.06814 0.9462809,1.01259 1.9173879,1.84987 2.9087143,2.5047 0.9913261,0.65482 1.9964153,1.11972 2.5348511,1.20795 1.00633086,0.25523 0.5858994,-0.0447 1.05379475,0.12227 z"
                 id="path9521" /></g><g
               style="fill:#000000;fill-opacity:1;stroke-linejoin:miter"
               id="g9527"
               transform="rotate(90,259.41968,748.93978)"><path
                 d="m 2.408345,217.5005 c 0.5163681,-0.29454 1.402576,-1.09416 2.2678964,-2.0244 0.8653206,-0.93025 1.7219543,-1.97538 2.5668376,-3.13296 0.844884,-1.15756 1.687989,-2.4191 2.3689415,-3.68619 0.6809515,-1.26709 1.0897155,-2.33702 1.3884315,-3.38165 0.298718,-1.04465 0.484506,-2.06465 0.490507,-3.05669 0.006,-0.99203 -0.114253,-1.93994 -0.244879,-2.56724 -0.130625,-0.62731 -0.284299,-1.0838 -0.521319,-1.49893 -0.23702,-0.41512 -0.546665,-0.77994 -0.917106,-1.0911 -0.37044,-0.31117 -0.790167,-0.57846 -1.551312,-0.88608 -0.7611448,-0.30761 -1.7854105,-0.66936 -2.9058295,-1.07179 -1.1204191,-0.40244 -2.3361197,-0.84712 -3.659678,-1.30724 -1.32355835,-0.46011 -2.7640573,-0.91827 -3.858335,-1.35322 -1.0942777,-0.43495 -1.0942777,-0.43495 -0.3905697,-0.0917 0,0 1.3299845,0.8464 2.57469925,1.64468 1.24471475,0.79827 2.42975775,1.49488 3.54874095,2.10181 1.1189833,0.60693 2.1629544,1.1436 3.1078525,1.60248 0.9448975,0.45889 1.1805272,0.62509 1.4033805,0.81926 0.222854,0.19416 0.3797835,0.37834 0.480372,0.5504 0.100588,0.17207 0.156327,0.33548 0.183951,0.54495 0.027625,0.20947 0.12509,0.9774 0.1175315,1.73498 -0.00756,0.75757 -0.091157,1.56441 -0.2058055,2.43981 -0.114647,0.87539 -0.317498,1.81851 -0.605912,2.79601 -0.2884145,0.97749 -0.9375396,2.29928 -1.6003027,3.58279 -0.6627633,1.28352 -1.3283083,2.47227 -1.9799433,3.5802 -0.651635,1.10794 -1.2945063,2.13595 -1.539127,2.6893 -0.6231948,0.96724 -0.1404491,0.64862 -0.519023,1.06251 z"
                 id="path9525" /></g><g
               style="fill:#000000;fill-opacity:1;stroke-linejoin:miter"
               id="g9531"
               transform="rotate(90,259.41968,748.93978)"><path
                 d="m 25.360645,240.22688 c 0.418045,0.4274 1.656653,1.24788 2.234204,1.65334 0.577549,0.40544 1.731098,0.87765 2.199096,1.10065 0.467999,0.22299 1.303935,0.51986 2.100098,0.80426 0.796167,0.2844 1.594487,0.56126 2.392447,0.83926 0.79796,0.278 1.597925,0.549 2.42163,0.76582 0.823702,0.21683 1.7922,0.32453 2.629687,0.35897 0.83749,0.0344 1.617953,0.14364 2.318878,0.10086 0.700925,-0.0428 1.170575,-0.07 1.725922,-0.0302 0.555343,0.0397 1.45642,-0.183 2.171093,-0.22576 0.71467,-0.0428 1.424915,-0.0895 1.968543,-0.1317 0.543629,-0.0422 1.091183,-0.0768 1.63831,-0.11664 0.547127,-0.0399 2.035992,-0.43292 2.775223,-1.35592 0.739231,-0.92301 1.417289,-1.92198 1.91238,-2.76433 0.49509,-0.84235 1.144432,-2.24845 1.481781,-3.18527 0.337349,-0.93683 0.464853,-1.89374 0.649273,-2.80138 0.184425,-0.90765 0.26399,-2.05946 0.25293,-3.0051 -0.01106,-0.94564 0.03227,-1.98703 0.131004,-3.46219 0.09874,-1.47514 -0.04698,-2.88392 -0.04867,-4.43389 -0.0017,-1.54998 -0.3228,-3.15129 -0.452023,-4.38581 -0.129223,-1.23452 -0.258647,-2.43387 -0.438335,-3.38608 -0.179688,-0.9522 -0.535568,-1.95872 -0.918831,-2.58929 -0.383257,-0.63055 -0.857982,-1.50761 -1.454994,-2.44626 -0.597008,-0.93864 -1.108898,-1.65272 -1.709099,-2.48718 -0.600197,-0.83447 -1.163662,-1.62344 -1.719864,-2.25165 -0.556205,-0.62822 -1.187477,-1.14842 -1.764778,-1.61346 -0.577302,-0.46505 -1.507632,-1.01946 -2.228004,-1.33127 -0.720372,-0.31183 -1.605641,-0.46271 -2.202195,-0.57276 -0.596553,-0.11006 -1.388969,-0.0415 -2.166568,0.0532 -0.7776,0.0948 -1.244235,0.15095 -2.054379,0.34826 -0.810142,0.19732 -1.675354,0.48732 -2.409664,0.87003 -0.734312,0.38269 -1.300452,0.84362 -1.971935,1.34247 -0.671477,0.49882 -0.997864,0.91128 -1.708634,1.55343 -0.710765,0.64214 -1.218595,0.9778 -1.795618,1.60254 -0.577022,0.62476 -1.056654,1.09917 -1.575935,1.59024 -0.519281,0.49109 -0.922537,1.02231 -1.283747,1.33957 -0.361212,0.31728 -0.918848,0.81737 -1.515037,1.60524 -0.596188,0.78787 -1.111126,1.66501 -1.478566,2.35952 -0.367437,0.6945 -0.76425,1.44505 -0.982723,2.21699 -0.218475,0.77194 -0.412248,1.3747 -0.669433,2.05321 -0.257185,0.67851 -0.31744,1.32597 -0.473948,1.9454 -0.156507,0.61941 -0.210482,1.25986 -0.265926,1.91434 -0.05544,0.65448 -0.176304,1.50923 -0.332325,2.02511 -0.156021,0.51587 -0.320399,1.33979 -0.500855,2.09702 -0.180456,0.75725 -0.214721,1.43326 -0.280225,2.25598 -0.0655,0.82273 -0.201733,1.43833 -0.298899,2.06259 -0.09717,0.62429 -0.123318,1.11785 -0.177838,1.59986 -0.05452,0.48199 -0.05452,0.48199 -0.0089,0.16229 0,0 0.118874,-0.63451 0.272338,-1.13519 0.153462,-0.50069 0.549465,-1.00278 0.813962,-1.74499 0.264498,-0.7422 0.573891,-1.52113 0.796397,-2.12245 0.222503,-0.6013 0.520408,-1.42089 0.75,-2.05946 0.229589,-0.63856 0.496656,-1.09524 0.712177,-2.03963 0.215523,-0.94436 0.348416,-1.39523 0.459715,-1.88159 0.111299,-0.48637 0.411165,-1.18028 0.58082,-1.72854 0.169653,-0.54828 0.458391,-1.03673 0.75676,-1.74067 0.298368,-0.70391 0.520609,-1.39448 0.840335,-1.97506 0.319726,-0.58057 0.686081,-0.96627 1.238381,-1.67002 0.552299,-0.70373 1.059843,-1.28233 1.439655,-1.56528 0.37981,-0.28292 0.950917,-0.74304 1.348732,-1.12522 0.397818,-0.38219 1.018181,-0.92063 1.570553,-1.4659 0.552372,-0.54527 0.950965,-0.89094 1.723365,-1.52305 0.772397,-0.63212 1.32242,-0.94616 1.875817,-1.35647 0.553393,-0.41029 1.189976,-0.91036 1.450646,-1.04612 0.260673,-0.13576 0.874961,-0.44684 1.394149,-0.60677 0.519185,-0.15994 0.914588,-0.16841 1.538918,-0.22275 0.624332,-0.0543 1.404976,-0.12002 1.56385,-0.0982 0.158875,0.0218 0.72488,0.15903 1.064602,0.26623 0.339722,0.10723 0.923758,0.32094 1.326888,0.60996 0.40313,0.28902 0.919034,0.70799 1.323987,1.09065 0.404957,0.38266 0.667538,0.69847 1.107857,1.26251 0.440323,0.56404 1.208836,1.73383 1.79673,2.61348 0.587898,0.87965 0.96899,1.47524 1.365386,2.16428 0.396394,0.68902 0.72084,1.21928 0.794854,1.75532 0.07401,0.53605 0.282349,1.28521 0.393936,2.38567 0.111584,1.10048 0.266053,2.50703 0.409485,3.87836 0.143435,1.37133 0.135281,2.8885 0.196129,4.10192 0.06085,1.21343 -0.103734,2.62678 -0.147224,3.7639 -0.04349,1.13714 0.0877,2.22742 0.05434,2.89426 -0.03336,0.66684 -0.247669,1.48136 -0.428764,2.17366 -0.181096,0.69229 -0.36941,1.65709 -0.805603,2.51894 -0.436192,0.86184 -0.802803,1.7005 -1.27372,2.39719 -0.470921,0.69668 -0.659733,1.20887 -0.771775,1.10572 -0.112045,-0.10313 -0.732765,-0.0142 -1.276352,0.0593 -0.54359,0.0735 -1.080955,0.14551 -1.743644,0.24039 -0.662689,0.0949 -1.729036,0.24281 -2.188038,0.32031 -0.459003,0.0775 -1.268814,0.16707 -1.811838,0.24576 -0.54302,0.0787 -1.013334,0.16397 -1.807818,0.19967 -0.794479,0.0357 -1.489182,0.004 -2.205072,-0.0195 -0.71589,-0.0233 -1.471838,-0.19709 -2.294737,-0.38745 -0.822899,-0.19037 -1.649533,-0.36766 -2.474449,-0.55096 -0.824914,-0.18329 -1.652823,-0.35611 -2.302052,-0.52573 -0.649231,-0.16963 -1.168212,-0.29019 -2.042118,-0.54571 -0.873903,-0.25553 -1.438799,-0.50198 -2.187677,-0.65943 -1.248625,-0.42058 -0.814655,-0.0325 -1.314402,-0.29567 z"
                 id="path9529" /></g></g></g></g><g
         id="g9579"
         transform="matrix(0.89044438,0,0,0.89044438,75.051567,-237.51441)"><path
           id="path9539"
           style="fill:#a67bfd;fill-opacity:1;stroke-width:13.9335"
           d="M 75.074567,375.71832 H 173.7018 c 9.43344,0 17.0279,7.59443 17.0279,17.02791 v 130.979 c 0,9.43343 -7.59446,17.0279 -17.0279,17.0279 H 75.074567 c -9.43343,0 -17.02787,-7.59447 -17.02787,-17.0279 v -130.979 c 0,-9.43348 7.59444,-17.02791 17.02787,-17.02791 z m -17.02787,0 H 165.22485 V 540.75313 H 58.046697 Z" /><g
           id="g9577"
           transform="matrix(0.9795589,0,0,0.9795589,-784.12681,-181.13748)"><rect
             style="display:inline;opacity:0.5;fill:none;fill-opacity:1;stroke:none;stroke-width:2.66644;stroke-dasharray:none;stroke-opacity:1"
             id="rect9541"
             width="135.38521"
             height="135.38521"
             x="859.81427"
             y="568.47607" /><g
             id="g9575"
             transform="translate(12.371442,0.32580329)"><g
               style="fill:#000000;fill-opacity:1;stroke-linejoin:miter"
               id="g9545"
               transform="rotate(90,259.41968,748.93978)"><path
                 d="m 134.2776,145.69543 c -0.15309,-1.19151 -0.80684,-3.1491 -1.39317,-4.73121 -0.58633,-1.58211 -1.0788,-2.803 -1.4689,-3.67797 -0.39011,-0.87495 -0.6964,-1.43618 -1.22348,-2.41595 -0.52709,-0.97978 -1.39022,-2.59444 -2.18901,-3.96512 -0.79881,-1.3707 -1.53364,-2.50223 -2.19996,-3.41392 -0.66631,-0.91168 -1.29061,-1.61422 -2.06275,-2.41736 -0.77214,-0.80313 -1.87874,-1.81069 -2.83867,-2.67757 -0.95992,-0.86686 -1.79787,-1.57198 -2.51184,-2.12837 -0.71397,-0.55638 -1.31652,-0.97196 -1.68409,-1.18886 -0.36756,-0.21691 -0.66307,-0.40231 -0.97203,-0.58175 -0.30895,-0.17943 -0.62939,-0.3558 -0.95887,-0.53348 -0.32949,-0.17768 -0.67205,-0.34997 -3.88073,-1.79639 -3.20868,-1.44643 -9.41619,-3.85215 -9.50782,-3.9052 -0.0916,-0.053 -0.15869,-0.12235 -0.19829,-0.20978 -0.0396,-0.0874 -0.0348,-0.19226 -0.0128,-0.27561 0.022,-0.0834 0.022,-0.0834 0.007,-0.0278 0,0 -0.0293,0.11114 -0.0351,0.21541 -0.006,0.10428 0.0173,0.20847 0.0787,0.31062 0.0614,0.10215 0.16647,0.20333 5.78322,3.74553 5.61676,3.54219 5.90771,3.7235 6.20395,3.91219 0.29624,0.18869 0.58169,0.37342 0.85169,0.56169 0.27,0.18826 0.52821,0.37388 0.79215,0.56999 0.26395,0.1961 0.66188,0.47827 1.16062,0.90297 0.49875,0.4247 1.14128,1.03409 1.91906,1.81735 0.77778,0.78326 1.68895,1.73599 2.7755,2.84634 1.08656,1.11035 1.60227,1.53064 2.14417,2.09662 0.54189,0.566 1.22284,1.39799 2.01927,2.48465 0.79642,1.08669 1.70535,2.41997 2.74453,4.00077 1.03919,1.58077 1.2717,1.85626 1.60523,2.3778 0.33353,0.52155 0.85002,1.41623 1.54021,2.65627 0.69017,1.24004 1.57705,2.80943 2.24682,3.63155 1.136,1.87381 0.79885,0.7649 1.26506,1.81658 z"
                 id="path9543" /></g><g
               style="fill:#000000;fill-opacity:1;stroke-linejoin:miter"
               id="g9549"
               transform="rotate(90,259.41968,748.93978)"><path
                 d="m 141.29709,130.32367 c -0.29184,-0.27705 -0.86779,-0.74458 -1.35422,-1.24994 -0.48645,-0.50537 -0.8846,-1.06058 -1.20634,-1.66872 -0.32175,-0.60814 -0.56534,-1.27952 -0.67647,-1.6974 -0.11112,-0.41788 -0.1312,-0.56251 -0.14446,-0.73135 -0.0133,-0.16883 -0.0153,-0.36145 -0.0117,-0.57624 0.004,-0.2148 0.0116,-0.45161 0.043,-0.84729 0.0314,-0.39569 0.078,-0.96634 0.1194,-1.56181 0.0413,-0.59547 0.076,-1.21575 0.1083,-1.86079 0.0323,-0.64503 0.0621,-1.31483 0.0867,-1.79972 0.0246,-0.48488 0.045,-0.78202 0.0642,-1.0512 0.0192,-0.26918 0.0358,-0.5103 0.013,-0.72423 -0.0228,-0.21393 -0.0227,-0.39871 -0.0236,-1.0601 -8.7e-4,-0.66138 0.0285,-1.75829 0.0996,-2.7745 0.0712,-1.01622 0.18559,-1.95198 0.33893,-2.80909 0.15332,-0.85711 0.34361,-1.63789 0.51584,-2.18026 0.17221,-0.54237 0.28659,-0.87416 0.40165,-1.17674 0.11507,-0.30259 0.23252,-0.57506 0.35195,-0.81737 0.11941,-0.24229 0.23825,-0.4561 0.31503,-0.59047 0.0768,-0.13437 0.1249,-0.21336 0.28208,-0.40287 0.15718,-0.18953 0.406,-0.46899 0.73832,-0.83898 0.33232,-0.36999 0.7452,-0.83225 1.1393,-1.16911 0.39412,-0.33686 0.39412,-0.33686 0.12396,-0.12154 0,0 -0.56253,0.40287 -1.06544,0.6933 -0.50292,0.29044 -0.89748,0.53086 -1.18614,0.72196 -0.28866,0.19108 -0.48027,0.33351 -0.57286,0.42852 -0.0926,0.095 -0.26769,0.26813 -0.45723,0.49297 -0.18955,0.22485 -0.37822,0.47918 -0.56757,0.76217 -0.18936,0.28301 -0.3797,0.59476 -0.56842,0.94024 -0.18874,0.34547 -0.54921,1.09717 -0.87181,1.9473 -0.3226,0.85013 -0.59842,1.78515 -0.82491,2.80415 -0.22647,1.01899 -0.40397,2.12088 -0.53766,3.29718 -0.13368,1.17628 -0.14889,1.36245 -0.16212,1.5661 -0.0132,0.20364 -0.0707,0.43256 -0.065,0.68977 0.006,0.25722 0.0139,0.54128 0.0236,0.86241 0.01,0.32114 0.0489,1.01066 0.0833,1.66355 0.0344,0.65288 0.064,1.28106 0.0887,1.88451 0.0248,0.60346 0.0532,1.18231 0.0736,1.74125 0.0203,0.55894 0.0375,0.85545 0.0595,1.13011 0.022,0.27467 0.0601,0.53192 0.10548,0.77279 0.0453,0.24088 0.099,0.46632 0.16887,0.69136 0.0698,0.22505 0.41445,1.00655 0.86039,1.71266 0.44595,0.70611 0.97324,1.31401 1.58346,1.81138 0.61023,0.49737 1.29802,0.87584 1.69597,0.96787 0.7523,0.25625 0.4573,-0.0361 0.81166,0.12817 z"
                 id="path9547" /></g><g
               style="fill:#000000;fill-opacity:1;stroke-linejoin:miter"
               id="g9553"
               transform="rotate(90,259.41968,748.93978)"><path
                 d="m 143.33778,129.3171 c 0.0712,-0.0558 0.1819,-0.17594 0.28045,-0.28548 0.0985,-0.10953 0.18502,-0.20865 0.25943,-0.29779 0.0744,-0.0892 0.13587,-0.16935 0.2807,-0.38355 0.14483,-0.21418 0.36308,-0.54004 0.56292,-0.83501 0.19983,-0.29497 0.3826,-0.55818 0.55179,-0.78691 0.16919,-0.22872 0.32105,-0.42421 0.46839,-0.60988 0.14735,-0.18568 0.33451,-0.39984 0.58032,-0.67256 0.2458,-0.27272 0.55168,-0.60023 0.91299,-0.98465 0.36131,-0.38441 0.77942,-0.82403 1.06151,-1.12141 0.28209,-0.29739 0.36342,-0.39936 0.44762,-0.50949 0.0842,-0.11012 0.17227,-0.22842 0.26342,-0.35625 0.0911,-0.12783 0.18393,-0.2663 0.31046,-0.4454 0.12654,-0.1791 0.30904,-0.48536 0.45029,-0.81568 0.14123,-0.33033 0.23593,-0.68155 0.28891,-1.04741 0.053,-0.36585 0.0659,-0.74385 0.0101,-1.36987 -0.0558,-0.62602 -0.25536,-1.46291 -0.56992,-2.28548 -0.31457,-0.82256 -0.71492,-1.63502 -1.19853,-2.43705 -0.48361,-0.80202 -1.04897,-1.59387 -1.52361,-2.15863 -0.47462,-0.56475 -0.75143,-0.85197 -1.00311,-1.0987 -0.25166,-0.24673 -0.48134,-0.45118 -0.68551,-0.61924 -0.20418,-0.16807 -0.38627,-0.30159 -0.48057,-0.36972 -0.0943,-0.0681 -0.28082,-0.19581 -0.53179,-0.32123 -0.25098,-0.12544 -0.58883,-0.26428 -1.02118,-0.4198 -0.43236,-0.15551 -0.96209,-0.32673 -1.30866,-0.43936 -0.34657,-0.11264 -0.46515,-0.174 -0.58777,-0.24826 -0.12262,-0.0743 -0.24897,-0.16147 -0.37085,-0.26842 -0.12187,-0.10695 -0.23263,-0.23733 -0.3159,-0.34109 -0.0833,-0.10376 -0.0833,-0.10376 -0.0277,-0.0346 0,0 0.11102,0.13834 0.21936,0.26687 0.10833,0.12853 0.20014,0.26164 0.29469,0.38373 0.0945,0.12209 0.19209,0.23319 0.29976,0.33713 0.10766,0.10394 0.62492,0.4527 1.05196,0.7435 0.42703,0.29079 0.7659,0.52742 1.01371,0.70715 0.24783,0.17974 0.39417,0.30144 0.45447,0.37653 0.0603,0.0751 0.19809,0.20384 0.32019,0.34442 0.12212,0.14057 0.27238,0.33056 0.44946,0.56636 0.17708,0.2358 0.38285,0.51417 0.5987,0.82222 0.21586,0.30805 0.68042,1.10984 1.07185,1.89102 0.39143,0.78117 0.70999,1.53835 0.95441,2.27361 0.24441,0.73526 0.40933,1.45112 0.55894,2.14399 0.14961,0.69287 0.17859,0.89883 0.18686,1.11599 0.008,0.21714 -0.006,0.41394 -0.0395,0.59466 -0.0334,0.18073 -0.0856,0.34995 -0.17812,0.53616 -0.0926,0.18622 -0.18039,0.35002 -0.24745,0.47576 -0.0671,0.12575 -0.12865,0.23992 -0.18607,0.34123 -0.0574,0.1013 -0.1114,0.18852 -0.15138,0.25188 -0.04,0.0633 -0.4267,0.5999 -0.77322,1.08006 -0.34652,0.48016 -0.63887,0.90523 -0.88038,1.27342 -0.2415,0.36819 -0.4336,0.67999 -0.57467,0.93212 -0.14107,0.25214 -0.26056,0.46749 -0.38584,0.72435 -0.12526,0.25685 -0.24936,0.54712 -0.38018,0.86743 -0.13085,0.3203 -0.25707,0.67717 -0.38425,1.06614 -0.12718,0.38898 -0.15041,0.45868 -0.18512,0.55042 -0.0347,0.0917 -0.0775,0.19961 -0.12891,0.32269 -0.0514,0.12308 -0.11139,0.26113 -0.13235,0.34281 -0.0685,0.1529 0.0965,0.16 0.0489,0.23125 z"
                 id="path9551" /></g><g
               style="fill:#000000;fill-opacity:1;stroke-linejoin:miter"
               id="g9557"
               transform="rotate(90,259.41968,748.93978)"><path
                 d="m 133.21098,78.28234 c -0.29176,-0.26396 -0.93519,-0.77114 -1.60307,-1.41231 -0.66788,-0.64116 -1.36903,-1.42255 -2.10391,-2.35452 -0.73488,-0.93197 -1.50377,-2.018005 -2.24788,-3.16719 -0.74411,-1.149185 -1.33512,-2.16866 -1.75841,-3.045334 -0.42328,-0.876671 -0.67936,-1.596966 -0.78424,-2.130716 -0.10489,-0.53374 -0.0866,-0.853834 -0.0163,-1.08404 0.0704,-0.230205 0.12544,-0.38479 0.1804,-0.52202 0.0549,-0.13723 0.1085,-0.257204 0.16128,-0.35902 0.0528,-0.10181 0.10364,-0.18547 0.29151,-0.423758 0.18787,-0.238285 0.63143,-0.832972 1.06351,-1.441392 0.43207,-0.608416 0.84806,-1.234103 1.24911,-1.876014 0.40105,-0.64191 0.78604,-1.300659 1.11678,-1.855392 0.33075,-0.55473 0.65359,-1.031094 0.9628,-1.449356 0.30918,-0.418268 0.60137,-0.779843 0.87374,-1.085594 0.27237,-0.305756 0.52414,-0.554444 1.00483,-0.990109 0.48066,-0.435665 1.19258,-0.984915 1.98904,-1.455852 0.79648,-0.47094 1.68221,-0.870285 2.66559,-1.199973 0.98337,-0.329687 2.06923,-0.60288 2.94024,-0.684618 0.87104,-0.08174 0.87104,-0.08174 0.28806,-0.06518 0,0 -1.17284,-0.08072 -2.30222,-0.09302 -1.12936,-0.01231 -2.2064,0.137176 -3.2267,0.425987 -1.02029,0.288806 -1.97833,0.715618 -2.84832,1.263206 -0.87,0.547585 -1.19249,0.764687 -1.55312,1.058447 -0.36061,0.29376 -0.73389,0.634848 -1.117,1.028532 -0.38314,0.393684 -0.77719,0.839828 -1.19849,1.349688 -0.4213,0.509866 -0.86335,1.148706 -1.28488,1.72859 -0.42152,0.579883 -0.85423,1.14089 -1.2959,1.684597 -0.44168,0.543708 -0.8874,1.074213 -1.36562,1.605523 -0.47821,0.531302 -0.68248,0.85878 -0.78012,1.06252 -0.0976,0.20375 -0.18364,0.415662 -0.25907,0.63598 -0.0754,0.220322 -0.1388,0.450013 -0.19864,0.70382 -0.0598,0.2538 -0.17098,0.93628 -0.0664,1.773704 0.10454,0.837426 0.40224,1.692936 0.8745,2.59832 0.47226,0.90538 1.10763,1.882356 1.91121,2.942841 0.80358,1.060475 1.77506,2.19413 2.71608,3.158995 0.941,0.96486 1.85247,1.75916 2.72795,2.382615 0.87545,0.623455 1.71575,1.064485 2.15066,1.166815 0.78691,0.25478 0.49098,-0.02721 0.843,0.12523 z"
                 id="path9555" /></g><g
               style="fill:#000000;fill-opacity:1;stroke-linejoin:miter"
               id="g9561"
               transform="rotate(90,259.41968,748.93978)"><path
                 d="m 135.65044,80.99022 c -0.0145,-0.22741 -0.0978,-0.705285 -0.17528,-1.25397 -0.0775,-0.54868 -0.1523,-1.169745 -0.22252,-1.86549 -0.0702,-0.69576 -0.13319,-1.46748 -0.15405,-1.96904 -0.0209,-0.50157 0.008,-0.734186 0.0595,-0.96314 0.051,-0.22894 0.12706,-0.4559 0.23011,-0.68211 0.10308,-0.22622 0.23629,-0.45123 0.34922,-0.622345 0.11291,-0.17112 0.21074,-0.270045 0.34515,-0.378035 0.13442,-0.10799 0.31192,-0.220095 0.53516,-0.330614 0.22325,-0.110526 0.49012,-0.220786 0.68902,-0.311616 0.19892,-0.09083 0.18087,-0.06747 0.52044,-0.127486 0.33956,-0.06002 0.91511,-0.146574 1.70832,-0.254184 0.7932,-0.107594 1.80068,-0.235425 2.61241,-0.3956 0.81174,-0.16016 0.94892,-0.23805 1.10074,-0.35646 0.15183,-0.118405 0.31613,-0.30672 0.44876,-0.604344 0.13263,-0.297626 0.15907,-0.677156 0.12998,-0.858786 -0.0291,-0.181635 -0.0916,-0.39146 -0.17006,-0.57379 -0.0784,-0.18233 -0.16719,-0.350536 -0.26706,-0.51424 -0.0999,-0.16371 -0.21259,-0.32664 -2.35205,-2.82628 -2.13948,-2.499636 -6.47615,-7.125506 -6.72669,-7.414526 -0.25055,-0.289017 -0.51545,-0.620034 -0.78631,-0.985398 -0.27084,-0.36536 -0.54934,-0.763622 -0.83275,-1.195919 -0.28342,-0.432297 -0.57245,-0.886127 -0.73862,-1.198925 -0.16617,-0.312797 -0.29767,-0.643367 -0.40449,-0.993278 -0.10683,-0.349911 -0.18311,-0.722786 -0.22501,-1.120079 -0.0419,-0.397297 -0.0517,-0.842789 -0.06,-0.941967 -0.008,-0.09918 0.034,-0.305992 0.13564,-0.625584 0.10159,-0.319591 0.25587,-0.743267 0.35973,-1.134426 0.10386,-0.391158 0.10386,-0.391158 -0.0263,-0.164518 0,0 -0.44296,0.350904 -0.69446,0.6999 -0.25148,0.348995 -0.42549,0.63476 -0.52809,0.879382 -0.1026,0.244622 -0.11533,0.38715 -0.18901,0.840565 -0.0737,0.453413 -0.10214,0.914023 -0.0856,1.369613 0.0165,0.45559 0.0839,0.90405 0.20305,1.34186 0.1192,0.437808 0.27974,0.86318 0.51543,1.38389 0.23568,0.52071 0.47461,1.005395 0.71672,1.460446 0.24211,0.455054 0.49214,0.877831 0.74481,1.272289 0.25265,0.394459 0.52403,0.775695 4.50484,5.708439 3.9808,4.932736 4.04164,5.003136 4.1075,5.083866 0.0658,0.08072 0.11054,0.13909 0.13253,0.16878 0.022,0.0297 0.0222,0.02111 0.0169,-0.002 -0.005,-0.02306 -0.0207,-0.167426 0.0352,-0.4618 0.056,-0.29437 0.17323,-0.4913 0.27179,-0.5913 0.0985,-0.1 0.158,-0.1393 0.34079,-0.200836 0.1828,-0.06154 -0.93428,0.182526 -1.8673,0.398621 -0.93301,0.216105 -1.6616,0.392655 -2.19246,0.531385 -0.53087,0.13874 -0.8874,0.247065 -1.07815,0.3396 -0.19076,0.09255 -0.47588,0.2355 -0.80594,0.43335 -0.33005,0.19786 -0.62488,0.41188 -0.88642,0.64216 -0.26151,0.23028 -0.48423,0.48436 -0.65904,0.75544 -0.1748,0.27108 -0.3378,0.608 -0.459,0.952896 -0.1212,0.344904 -0.21063,0.690368 -0.26373,1.036694 -0.0531,0.34633 -0.0694,0.69201 -0.0428,1.05393 0.0266,0.36192 0.2302,1.19991 0.43918,1.941434 0.209,0.741526 0.42949,1.402196 0.65595,1.981896 0.22644,0.5797 0.46222,1.07594 0.61641,1.283714 0.23712,0.411196 0.28492,0.154466 0.36786,0.357896 z"
                 id="path9559" /></g><g
               style="fill:#000000;fill-opacity:1;stroke-linejoin:miter"
               id="g9565"
               transform="rotate(90,259.41968,748.93978)"><path
                 d="m 98.27006,70.044 c 2.10907,-0.674554 5.58545,-2.541086 8.50376,-4.29745 2.91831,-1.756358 5.31602,-3.348685 7.19948,-4.781485 1.88347,-1.4328 3.20196,-2.776039 4.11398,-3.871015 0.91202,-1.094973 1.73434,-2.11434 2.4604,-3.085253 0.72606,-0.970909 1.35505,-1.894284 1.88744,-2.770104 0.53238,-0.875823 0.96881,-1.70412 1.25268,-2.337783 0.28387,-0.63366 0.50512,-1.247235 0.7357,-2.047257 0.23058,-0.800026 0.47234,-1.79517 0.70773,-2.99522 0.23539,-1.200051 0.44028,-2.612889 0.67279,-3.752117 0.23251,-1.139226 0.23251,-1.139226 0.0216,-0.395844 0,0 -0.58965,1.438461 -1.1379,2.673721 -0.54825,1.235257 -0.99837,2.283087 -1.37194,3.135207 -0.37357,0.85212 -0.68246,1.499982 -0.92573,1.939466 -0.24329,0.439484 -0.66994,1.118134 -1.18342,1.83646 -0.51348,0.718331 -1.12174,1.489484 -1.82982,2.309424 -0.70807,0.819944 -1.51026,1.692854 -2.4188,2.62311 -0.90853,0.93026 -1.86851,1.91921 -3.2733,3.145683 -1.4048,1.226467 -3.26777,2.790153 -5.62687,4.629989 -2.3591,1.839833 -5.20211,3.963848 -6.62253,5.375898 -3.23984,2.54473 -1.3458,1.5319 -3.16522,2.66457 z"
                 id="path9563" /></g><g
               style="fill:#000000;fill-opacity:1;stroke-linejoin:miter"
               id="g9569"
               transform="rotate(90,259.41968,748.93978)"><path
                 d="m 195.75366,111.94183 c -0.53103,-1.42686 -1.79701,-3.87326 -2.76158,-6.14976 -0.96457,-2.27651 -1.60252,-4.40883 -1.89915,-6.41019 -0.29665,-2.00136 -0.27231,-3.876524 0.033,-6.20204 0.30531,-2.32551 0.66165,-4.837715 1.01355,-6.984665 0.35191,-2.146945 0.70378,-3.92292 1.0499,-5.31546 0.34614,-1.392535 0.67385,-2.380699 0.95667,-3.124805 0.28283,-0.74411 0.49947,-1.37611 0.81027,-2.250355 0.31081,-0.874245 0.71903,-1.979435 1.22603,-3.309825 0.50702,-1.33039 1.11225,-2.884244 1.57877,-3.99838 0.46652,-1.11414 0.81567,-1.78536 1.22081,-2.50169 0.40513,-0.71634 0.86623,-1.47667 1.38316,-2.279857 0.51695,-0.803189 1.08963,-1.64856 1.55088,-2.407258 0.46122,-0.758701 0.55711,-1.128085 0.54635,-1.634275 -0.0107,-0.506197 -0.24917,-1.10493 -0.69484,-1.537443 -0.44566,-0.432514 -0.90106,-0.622067 -2.13466,-0.510559 -1.23358,0.111507 -2.57448,0.416748 -3.84408,0.742492 -1.26963,0.325745 -2.46837,0.67243 -3.59677,1.040734 -1.12842,0.368306 -2.18702,0.758953 -3.82584,1.187426 -1.63884,0.42848 -4.21783,0.99187 -6.7327,1.557035 -2.51485,0.565165 -4.96557,1.132118 -7.35222,1.700878 -2.38664,0.568767 -4.70923,1.139347 -7.39491,1.852387 -2.6857,0.71305 -5.73502,1.55616 -5.96045,1.62407 -0.22543,0.06792 -0.47561,0.16456 -0.72761,0.29309 -0.252,0.12854 -0.50545,0.30034 -0.75087,0.53203 -0.24544,0.231695 -0.7646,1.46496 -0.88925,5.01442 -0.12464,3.54944 -0.62714,6.29585 -1.02074,8.780866 -0.3936,2.485024 -0.65262,4.545884 -0.79225,6.190834 -0.13962,1.64495 -0.15005,2.89857 -0.0283,3.7423 0.12178,0.843744 0.17871,1.21057 0.28827,1.736574 0.10957,0.525996 0.26642,1.080506 0.46064,1.668366 0.19423,0.58785 0.43192,1.2091 0.69991,1.85303 0.26798,0.643925 0.35095,0.87701 0.59747,1.35882 0.24652,0.48182 0.63179,1.14209 1.15981,2.00963 0.52801,0.86755 1.2088,1.94274 2.04928,3.21401 0.84049,1.27126 1.05536,1.65731 1.28522,2.11867 0.22986,0.46137 0.44959,0.96652 0.66994,1.5122 0.22034,0.54568 0.4408,1.13278 0.66342,1.76241 0.22264,0.62963 0.26474,0.72446 0.32165,0.80228 0.0569,0.0778 0.12768,0.13978 0.2049,0.1968 0.0772,0.057 0.16803,0.10674 0.24439,0.13899 0.0763,0.0323 0.0763,0.0323 0.0254,0.0108 0,0 -0.10181,-0.043 -0.18714,-0.0961 -0.0853,-0.0531 -0.14839,-0.12168 -0.18689,-0.20078 -0.0385,-0.0791 -0.0582,-0.16241 -0.0667,-0.54717 -0.009,-0.38476 -0.0423,-1.04826 -0.10901,-1.67809 -0.0667,-0.62983 -0.16978,-1.22438 -0.30081,-1.78529 -0.13103,-0.5609 -0.28508,-1.09003 -0.72969,-2.09805 -0.44461,-1.00803 -1.06256,-2.30563 -1.56383,-3.36487 -0.50126,-1.05925 -0.88487,-1.87805 -1.13316,-2.45442 -0.24829,-0.57638 -0.35509,-0.87415 -0.4879,-1.31296 -0.13283,-0.43881 -0.32381,-1.05277 -0.47354,-1.616844 -0.14975,-0.564072 -0.26068,-1.075661 -0.33876,-1.530831 -0.0781,-0.455175 -0.12285,-0.851925 -0.18695,-1.344315 -0.0641,-0.49238 -0.058,-1.17746 0.0791,-2.38451 0.13703,-1.20706 0.41826,-2.87971 0.84134,-4.99718 0.4231,-2.11747 0.98801,-4.67367 1.45719,-8.042145 0.46917,-3.368475 0.67408,-6.934855 0.42349,-6.345855 -0.25059,0.589 -0.33167,0.6572 -0.37488,0.68499 -0.0432,0.02779 -0.0442,0.02843 -0.004,0.01466 0.0404,-0.01377 0.17099,-0.0486 3.21125,-0.889264 3.04027,-0.840656 5.27915,-1.401976 7.60491,-1.967526 2.32576,-0.56556 4.71646,-1.12964 7.17211,-1.692226 2.45564,-0.562584 4.97617,-1.123654 7.60944,-1.694618 2.63329,-0.570966 3.79816,-1.02224 4.78241,-1.370712 0.98425,-0.348474 2.04808,-0.681878 3.19089,-0.999384 1.14282,-0.317503 2.36421,-0.6186 3.64326,-0.8989 1.27906,-0.2803 0.44501,-0.312707 0.12462,-0.500825 -0.3204,-0.188122 -0.63784,-0.589669 -0.75274,-1.014085 -0.1149,-0.42442 -0.0904,-0.693523 0.0219,-0.95028 0.11224,-0.256758 -0.49381,0.61008 -1.08206,1.492754 -0.58827,0.882676 -1.12381,1.73064 -1.60677,2.544806 -0.48295,0.814164 -0.91337,1.59551 -1.30788,2.382905 -0.39451,0.787385 -1.08624,2.542005 -1.66549,4.03888 -0.57926,1.496875 -1.06252,2.776585 -1.45066,3.84198 -0.38815,1.065385 -0.67703,1.923325 -0.84582,2.508545 -0.16878,0.58521 -0.52158,1.49378 -0.87354,2.85371 -0.35195,1.359935 -0.65843,3.0319 -0.927,5.03754 -0.26858,2.00563 -0.49469,4.35354 -0.68448,7.04471 -0.1898,2.691176 -0.30581,4.77925 -0.033,6.99228 0.27283,2.21302 0.94819,4.44667 2.00296,6.69679 1.05477,2.25011 2.50612,4.50407 3.54703,5.50515 1.91309,2.1962 1.15497,0.91785 2.02713,2.11298 z"
                 id="path9567" /></g><g
               style="fill:#000000;fill-opacity:1;stroke-linejoin:miter"
               id="g9573"
               transform="rotate(90,259.41968,748.93978)"><path
                 d="m 158.70068,112.32101 c 0.63082,0.58651 2.07054,1.50359 3.5972,2.41349 1.52666,0.9099 3.1295,1.83597 4.8046,2.787 1.67508,0.95103 3.41813,1.93601 4.94984,2.7441 1.53171,0.80809 2.67275,1.33131 3.71306,1.76705 1.04033,0.43574 1.98055,0.79162 2.83809,1.02603 0.85754,0.23443 1.62976,0.36835 2.58711,0.42402 0.95737,0.0557 2.16632,0.0451 3.43775,-0.0273 1.27142,-0.0725 2.60586,-0.20688 4.00402,-0.40181 1.39817,-0.19493 2.85938,-0.45874 3.71543,-0.62855 0.85606,-0.16981 1.23849,-0.28601 1.76871,-0.49565 0.53022,-0.20965 1.24467,-0.51876 2.14846,-0.94197 0.9038,-0.42321 1.9939,-0.97424 2.78727,-1.42841 0.79335,-0.45417 1.10281,-0.69684 1.38558,-0.93521 0.28278,-0.23838 0.53913,-0.47134 0.76964,-0.69688 0.23052,-0.22556 0.45589,-0.41633 0.62007,-0.54732 0.16417,-0.13099 0.16417,-0.13099 0.0547,-0.0437 0,0 -0.2189,0.17465 -0.48144,0.32608 -0.26255,0.15142 -0.55863,0.28958 -0.87656,0.43081 -0.31792,0.14124 -0.65893,0.28433 -1.00349,0.42393 -0.34456,0.13959 -1.65425,0.49139 -2.74844,0.80392 -1.0942,0.31254 -1.97028,0.55696 -2.62269,0.73645 -0.6524,0.17948 -1.07493,0.27718 -1.25691,0.2951 -0.18198,0.0179 -1.68552,0.15249 -3.09502,0.24015 -1.4095,0.0877 -2.73796,0.13625 -3.98608,0.1327 -1.24812,-0.004 -2.41493,-0.0493 -3.49333,-0.14462 -1.07839,-0.0953 -1.55965,-0.1835 -2.1976,-0.36215 -0.63796,-0.17865 -1.42601,-0.3841 -2.34665,-0.66624 -0.92062,-0.28215 -1.96832,-0.64423 -3.12242,-1.07742 -1.1541,-0.43319 -3.00293,-1.26065 -4.81688,-2.05848 -1.81397,-0.79783 -3.56945,-1.54042 -5.26529,-2.22947 -1.69586,-0.68904 -3.33864,-1.31049 -4.20217,-1.474 -1.60557,-0.51898 -0.92453,-0.0362 -1.66658,-0.39167 z"
                 id="path9571" /></g></g></g></g><g
         id="g9643"
         transform="matrix(0.89044438,0,0,0.89044438,-77.514789,-404.22717)"><path
           id="path9619"
           style="fill:#a6fd7b;fill-opacity:1;stroke-width:13.9335"
           d="m 246.41189,375.91541 h 98.62723 c 9.43344,0 17.0279,7.59443 17.0279,17.02791 v 130.979 c 0,9.43343 -7.59446,17.0279 -17.0279,17.0279 h -98.62723 c -9.43343,0 -17.02787,-7.59447 -17.02787,-17.0279 v -130.979 c 0,-9.43348 7.59444,-17.02791 17.02787,-17.02791 z m -17.02787,0 H 336.56217 V 540.95022 H 229.38402 Z" /><g
           id="g9641"
           transform="matrix(0.98004057,0,0,0.98004057,-613.26884,-456.09823)"><rect
             style="display:inline;opacity:0.5;fill:none;fill-opacity:1;stroke:none;stroke-width:2.66644;stroke-dasharray:none;stroke-opacity:1"
             id="rect9621"
             width="135.38521"
             height="135.38521"
             x="859.81427"
             y="848.95837" /><g
             id="g9639"
             transform="translate(4.1131549,1.3186356)"><g
               style="fill:#000000;fill-opacity:1;stroke-linejoin:miter"
               id="g9625"
               transform="rotate(90,259.41968,748.93978)"><path
                 d="m 386.95544,129.9851 c 0.55636,-0.0335 1.54541,-0.37972 2.44089,-0.90368 0.89547,-0.52394 1.69263,-1.20986 2.37917,-2.04945 0.68657,-0.8396 1.26558,-1.81951 1.725,-2.89813 0.4594,-1.07862 0.8263,-2.05073 1.05248,-2.89431 0.22619,-0.84358 0.37845,-1.53851 0.48059,-2.08464 0.10217,-0.54612 0.1521,-0.96181 0.17261,-1.51175 0.0205,-0.54995 0.0396,-1.3022 0.0498,-1.95143 0.0102,-0.64922 0.003,-1.19651 -0.0132,-1.64217 -0.0162,-0.44567 -0.0385,-0.79183 -0.0728,-1.18003 -0.0343,-0.38819 -0.0947,-0.89151 -0.17395,-1.35912 -0.0792,-0.4676 -0.1767,-0.89869 -0.29364,-1.29178 -0.11691,-0.39308 -0.22803,-0.75199 -0.28993,-1.01049 -0.0619,-0.2585 -0.0619,-0.2585 -0.0206,-0.0862 0,0 0.0826,0.34466 0.094,0.72796 0.0114,0.3833 -0.009,0.79399 -0.0477,1.2308 -0.0385,0.43681 -0.0924,0.9008 -0.16352,1.39873 -0.0711,0.49791 -0.0964,0.76217 -0.14756,1.11398 -0.0511,0.35181 -0.12857,0.80898 -0.2232,1.37012 -0.0946,0.56115 -0.21122,1.22532 -0.34598,1.99537 -0.1348,0.77007 -0.16834,0.9819 -0.27008,1.33541 -0.10172,0.35352 -0.27274,0.88496 -0.52054,1.57696 -0.2478,0.69201 -0.52662,1.55476 -0.79572,2.58776 -0.2691,1.03299 -0.58724,2.01382 -0.99215,2.88024 -0.40488,0.86642 -0.90825,1.63659 -1.51929,2.32007 -0.61102,0.68347 -1.33783,1.28784 -1.70462,1.6473 -0.85086,0.54679 -0.31584,0.4911 -0.7999,0.67844 z"
                 id="path9623" /></g><g
               style="fill:#000000;fill-opacity:1;stroke-linejoin:miter"
               id="g9629"
               transform="rotate(90,259.41968,748.93978)"><path
                 d="m 391.91364,69.36641 c 0.47259,-0.13015 1.23168,-0.51096 1.84876,-0.87193 0.6171,-0.36098 1.10238,-0.694126 1.4643,-1.00907 0.36195,-0.31493 0.61592,-0.63768 0.73677,-0.85466 0.12085,-0.216985 0.2579,-0.473195 0.39073,-0.76456 0.1328,-0.29137 0.25817,-0.62077 0.3811,-0.98782 0.1229,-0.36705 0.2446,-0.77236 0.33806,-1.100816 0.0934,-0.328457 0.15201,-0.59702 0.20844,-0.895044 0.0564,-0.298022 0.10367,-0.628154 0.151,-0.99084 0.0473,-0.362686 0.0913,-0.759044 0.1305,-1.529236 0.0392,-0.770191 0.068,-1.761174 0.0755,-2.615204 0.008,-0.854034 -0.0709,-1.569553 -0.16325,-2.155933 -0.0924,-0.58638 -0.2001,-1.059067 -0.48326,-1.844311 -0.28317,-0.785246 -0.7605,-1.995243 -1.28146,-3.266731 -0.52098,-1.271492 -1.09948,-2.599645 -1.74982,-3.97905 -0.6503,-1.379402 -1.40241,-2.798605 -1.91583,-3.91986 -0.51343,-1.121258 -0.51343,-1.121258 -0.23017,-0.352158 0,0 0.38954,1.602989 0.73894,3.138428 0.34938,1.535435 0.71517,2.983095 1.07878,4.350281 0.36362,1.367187 0.71039,2.659252 1.03042,3.876327 0.32002,1.217072 0.36366,1.436137 0.40046,1.827257 0.0368,0.39111 0.0596,0.951 0.10454,1.663817 0.045,0.712823 0.11644,1.576083 0.1817,2.58448 0.0653,1.0084 0.0719,1.375828 0.0768,1.735046 0.005,0.359215 5.2e-4,0.680504 -0.0123,0.962799 -0.0129,0.282292 -0.03,0.524773 -0.0574,0.732483 -0.0274,0.207705 -0.0802,0.628555 -0.1431,0.998485 -0.0629,0.36993 -0.13004,0.6963 -0.19803,0.97899 -0.068,0.282695 -0.13641,0.520694 -0.2175,0.73562 -0.0811,0.21494 -0.12427,0.38501 -0.26059,0.601885 -0.13632,0.216875 -0.42215,0.542065 -0.83698,0.958545 -0.41485,0.41646 -0.95147,0.92312 -1.2152,1.2709 -0.65003,0.604265 -0.1857,0.465394 -0.57196,0.72188 z"
                 id="path9627" /></g><g
               style="fill:#000000;fill-opacity:1;stroke-linejoin:miter"
               id="g9633"
               transform="rotate(90,259.41968,748.93978)"><path
                 d="m 442.32635,108.92926 c -5.92459,-1.96184 -18.00607,-4.25797 -17.31975,-3.56757 0.68633,0.6904 0.69002,0.74417 0.69216,0.7597 0.002,0.0155 0.009,-0.002 0.0236,-0.0464 0.0147,-0.0447 0.0115,-0.0384 0.71412,-1.65566 0.70261,-1.61724 1.33216,-3.15296 1.89591,-4.596896 0.56375,-1.443944 1.06109,-2.797124 1.49037,-4.061174 0.4293,-1.26404 0.7834,-2.41542 1.034,-3.27438 0.2506,-0.858965 0.466,-1.76739 0.64912,-2.70452 0.18311,-0.93714 0.33426,-1.90293 0.45374,-2.89736 0.1195,-0.99443 0.20398,-1.975866 0.26812,-2.614965 0.0642,-0.639095 0.1077,-1.300845 0.12744,-1.958045 0.0198,-0.657204 0.0157,-1.30977 -0.0123,-1.95749 -0.0281,-0.64772 -0.0811,-1.30067 -0.2995,-3.31803 -0.21842,-2.017365 -0.43915,-3.81146 -0.66297,-5.385835 -0.22383,-1.574365 -0.46927,-2.929005 -0.72553,-4.071865 -0.25628,-1.14286 -0.49294,-1.96489 -0.58135,-2.516 -0.0884,-0.55111 -0.15259,-1.088618 -0.17525,-1.575823 -0.0227,-0.487207 -0.0152,-0.922654 0.0241,-1.305523 0.0392,-0.38287 0.11644,-0.756501 -0.016,-0.51175 -0.13244,0.244751 -0.40951,0.500561 -0.64319,0.599713 -0.23368,0.09916 -0.33786,0.10796 -0.32281,0.107979 0.015,1.9e-5 0.15593,0.02022 10.27191,1.553414 10.11594,1.53319 11.36835,1.618316 12.47312,1.6692 1.10476,0.05089 2.11056,0.06588 3.01547,0.05647 0.9049,-0.0094 1.70898,-0.05233 2.41147,-0.12072 0.70248,-0.06839 0.90486,-0.13239 1.03012,-0.18969 0.12524,-0.0573 0.18518,-0.10602 0.18481,-0.150346 -3.7e-4,-0.04432 -0.065,-0.09311 -0.14569,-0.131954 -0.0807,-0.03885 -0.0807,-0.03885 -0.0269,-0.01295 0,0 0.10754,0.05179 0.15078,0.0991 0.0432,0.04731 0.0222,0.09013 -0.0669,0.11481 -0.0892,0.02468 -0.24128,0.03314 -0.65677,-0.03525 -0.4155,-0.0684 -1.12998,-0.22125 -1.94123,-0.39095 -0.81125,-0.16969 -1.72073,-0.35317 -2.72897,-0.55522 -1.00821,-0.20204 -2.11536,-0.424572 -7.64466,-1.75333 -5.52932,-1.32876 -15.49932,-3.603195 -15.8225,-3.652844 -0.3232,-0.04965 -0.69132,-0.05542 -1.1196,0.0302 -0.4283,0.08563 -0.90607,0.341187 -1.28073,0.798325 -0.37467,0.457142 -0.50737,0.852886 -0.63013,1.410902 -0.1228,0.55802 -0.19924,1.166315 -0.22778,1.803583 -0.0285,0.637264 -0.008,1.304087 0.0516,2.002247 0.06,0.69817 0.17837,1.50084 0.38134,2.43555 0.20296,0.93471 0.38931,2.06013 0.59576,3.42148 0.20646,1.36135 0.42212,2.95674 0.63727,4.78447 0.21513,1.82772 0.42905,3.8838 0.46576,4.422865 0.0367,0.539065 0.0537,1.089515 0.0504,1.646485 -0.003,0.55697 -0.027,1.120544 -0.0712,1.69091 -0.0442,0.570366 -0.11499,1.20168 -0.20666,2.1475 -0.0917,0.94582 -0.20933,1.83732 -0.35444,2.695304 -0.14511,0.857986 -0.31738,1.682436 -0.5151,2.473916 -0.19773,0.79148 -0.42093,1.589706 -0.74786,2.75112 -0.32694,1.161416 -0.70625,2.417115 -1.14884,3.77564 -0.44263,1.35854 -0.94452,2.820544 -1.50238,4.386547 -0.55786,1.566 -1.18546,3.24607 -1.2522,3.46353 -0.0668,0.21748 -0.10794,0.40224 -0.13544,0.59664 -0.0275,0.1944 -0.0376,0.40259 -0.0205,0.6317 0.0171,0.2291 1.40736,1.66883 7.60882,1.79484 12.2832,1.02802 6.22211,-0.0136 12.30389,0.88837 z"
                 id="path9631" /></g><g
               style="fill:#000000;fill-opacity:1;stroke-linejoin:miter"
               id="g9637"
               transform="rotate(90,259.41968,748.93978)"><path
                 d="m 431.51828,92.24643 c 0.4567,0.23546 1.33142,0.496215 2.10862,0.694305 0.77718,0.198095 1.4561,0.340599 2.03643,0.445129 0.58035,0.104526 1.06573,0.168606 2.79607,0.09336 1.73036,-0.07524 4.69026,-0.29366 5.8047,-0.48967 1.11447,-0.196024 2.25473,-0.45938 3.43777,-0.80097 1.18305,-0.34158 2.40963,-0.75688 3.67939,-1.24604 1.26974,-0.489156 2.59584,-1.04962 3.42084,-1.47225 0.82498,-0.42264 1.56442,-0.87227 2.22598,-1.35417 0.66156,-0.481896 1.24496,-0.99984 1.74847,-1.5587 0.50355,-0.55887 0.87795,-1.10944 1.56567,-2.182916 0.68768,-1.073479 1.27665,-2.112678 1.75022,-3.118204 0.47356,-1.00552 0.81086,-1.985136 1.04303,-2.92662 0.23218,-0.94148 0.3392,-1.76198 0.34149,-2.33862 0.002,-0.57664 -0.2207,-1.241205 -0.60922,-1.75333 -0.38849,-0.51212 -0.86252,-0.87533 -1.38739,-1.14964 -0.52491,-0.2743 -1.13858,-0.49614 -1.76282,-0.64949 -0.62421,-0.15335 -1.33733,-0.29704 -2.17139,-0.44592 -0.83404,-0.14888 -1.79171,-0.303906 -2.87506,-0.4657 -1.08334,-0.16181 -2.29788,-0.32345 -2.62073,-0.351565 -0.32285,-0.0281 -0.66,-0.04514 -1.01727,-0.04506 -0.3573,9e-5 -0.73558,0.0088 -1.1362,0.03093 -0.4006,0.02211 -0.80438,0.0605 -1.31476,0.114604 -0.51037,0.0541 -1.17872,0.177976 -1.99807,0.360716 -0.8194,0.18274 -1.79635,0.43226 -2.93512,0.74886 -1.1388,0.3166 -2.44678,0.70764 -2.68576,0.80345 -0.23899,0.09582 -0.47257,0.20396 -0.73301,0.33317 -0.2604,0.1292 -0.54916,0.27982 -0.8667,0.45351 -0.3175,0.173684 -0.69348,0.38931 -1.69824,1.063035 -1.00476,0.673735 -1.85086,1.248555 -2.54126,1.735001 -0.6904,0.48645 -1.23523,0.867544 -1.57466,1.097198 -0.33946,0.229656 -0.33946,0.229656 -0.0944,0.115656 0,0 0.54653,-0.11067 1.24075,-0.34224 0.69418,-0.23157 1.548,-0.55293 2.55337,-0.976716 1.00538,-0.423784 2.14725,-0.948214 2.48205,-1.072474 0.33482,-0.12426 0.64698,-0.24168 0.92246,-0.33998 0.27549,-0.09829 0.51324,-0.177184 0.71104,-0.23617 0.19778,-0.05898 0.29452,-0.0813 1.55428,-0.29978 1.25977,-0.218474 2.34512,-0.392096 3.24924,-0.52287 0.90412,-0.13078 1.6225,-0.22075 2.14316,-0.25842 0.52066,-0.03766 0.88449,-0.0285 1.26776,-0.02538 0.38324,0.0031 0.72546,0.01116 1.03574,0.03061 0.31027,0.01945 0.58746,0.04689 0.82998,0.08142 0.2425,0.03454 0.44199,0.07539 1.57569,0.31823 1.13369,0.24284 2.13858,0.46541 3.01092,0.67089 0.87238,0.20548 1.61035,0.39329 2.20999,0.560044 0.59964,0.166746 1.00214,0.292496 1.29624,0.43486 0.2941,0.142376 0.46512,0.257016 0.50006,0.292346 0.0349,0.03531 -0.0249,-0.05168 -0.0656,-0.22276 -0.0407,-0.17108 -0.0781,-0.07439 -0.22535,0.603785 -0.14724,0.678185 -0.38467,1.394665 -0.71582,2.192375 -0.33118,0.79771 -0.73868,1.68482 -1.24676,2.65015 -0.50812,0.96532 -1.13278,2.018605 -1.38266,2.39893 -0.24988,0.38033 -0.56786,0.75353 -0.98331,1.138534 -0.4154,0.385006 -0.92743,0.779706 -1.53439,1.182996 -0.60696,0.403285 -1.30319,0.79255 -2.49323,1.388416 -1.19003,0.595874 -2.3414,1.12088 -3.44663,1.578714 -1.10522,0.45783 -2.16555,0.84624 -3.1801,1.17029 -1.01453,0.324055 -1.94617,0.57009 -4.8234,1.11916 -2.87723,0.549064 -3.1583,0.57111 -3.64157,0.57979 -0.48328,0.0087 -1.08429,0.0062 -1.79956,-0.01043 -0.7153,-0.0166 -1.54532,-0.03539 -2.01142,0.03887 -0.94729,-0.0027 -0.4884,0.21368 -0.96957,0.13675 z"
                 id="path9635" /></g></g></g></g><g
         id="g9782"
         transform="translate(0,0.05971841)"><g
           id="g9617"
           transform="matrix(0.89044438,0,0,0.89044438,227.60468,-404.11139)"><path
             id="path9581"
             style="fill:#fd8c7b;fill-opacity:1;stroke-width:13.9335"
             d="m -272.41712,375.71832 h 98.62723 c 9.43344,0 17.0279,7.59443 17.0279,17.02791 v 130.979 c 0,9.43343 -7.59446,17.0279 -17.0279,17.0279 h -98.62723 c -9.43343,0 -17.02787,-7.59447 -17.02787,-17.0279 v -130.979 c 0,-9.43348 7.59444,-17.02791 17.02787,-17.02791 z m -17.02787,0 h 107.17815 v 165.03481 h -107.17815 z" /><g
             id="g9615"
             transform="matrix(0.98004119,0,0,0.98004119,-1132.0984,-318.85369)"><rect
               style="display:inline;opacity:0.5;fill:none;fill-opacity:1;stroke:none;stroke-width:2.66644;stroke-dasharray:none;stroke-opacity:1"
               id="rect9583"
               width="135.38521"
               height="135.38521"
               x="859.81427"
               y="708.71716" /><g
               id="g9613"
               transform="translate(15.214834,3.5559053)"><g
                 style="fill:#000000;fill-opacity:1;stroke-linejoin:miter"
                 id="g9587"
                 transform="rotate(90,259.41968,748.93978)"><path
                   d="m 257.4167,154.04826 c -0.2068,-0.40583 -0.6171,-1.47712 -0.89845,-3.11883 -0.28131,-1.64171 -0.43985,-3.87688 -0.47865,-6.71437 -0.0387,-2.8375 0.0497,-6.28012 0.17744,-8.95743 0.12776,-2.67729 0.28311,-4.08551 0.5679,-5.40451 0.28479,-1.31899 0.69276,-2.55129 1.2136,-3.70564 0.52086,-1.15434 1.16276,-2.23333 1.94018,-3.44767 0.77748,-1.21434 1.63416,-2.44613 2.75501,-3.71551 1.12081,-1.26938 2.50811,-2.57137 4.16052,-3.90367 1.65237,-1.33231 3.57068,-2.6908 5.07861,-3.66117 1.50797,-0.97036 2.3833,-1.50412 3.17166,-1.96815 0.78836,-0.46404 1.48651,-0.86292 2.09354,-1.19582 0.60699,-0.33289 1.12262,-0.59604 1.93079,-0.93437 0.80815,-0.33833 1.98403,-0.7841 3.09198,-1.19314 1.10797,-0.40903 2.14822,-0.78577 3.12332,-1.13045 0.97509,-0.34469 1.88685,-0.662 2.34768,-0.81256 0.46082,-0.15055 0.4925,-0.1744 0.5022,-0.19736 0.01,-0.023 -0.003,-0.0451 -0.0368,-0.0663 -0.0342,-0.0212 -0.0904,-0.0416 -0.14346,-0.0564 -0.0531,-0.0148 -0.0531,-0.0148 -0.0177,-0.005 0,0 0.0708,0.0198 0.11962,0.0404 0.0489,0.0206 0.0757,0.0421 0.0807,0.0645 0.005,0.0224 -0.0121,0.0456 -0.0511,0.0698 -0.039,0.0241 -0.96048,0.035 -1.95952,0.091 -0.99906,0.056 -2.06712,0.18666 -3.2035,0.37979 -1.13638,0.19313 -2.34158,0.44146 -3.6199,0.75504 -1.27832,0.31358 -1.8497,0.50993 -2.46457,0.75407 -0.61483,0.24414 -1.31888,0.54128 -2.1099,0.90034 -0.79101,0.35906 -1.66903,0.78152 -2.65081,1.26634 -0.98179,0.48483 -3.26042,1.73129 -5.29312,3.01971 -2.03275,1.28842 -3.81605,2.60999 -5.3445,3.97567 -1.5284,1.36568 -2.8048,2.77505 -3.78014,4.18526 -0.97531,1.41023 -1.73665,2.61995 -2.40071,3.99979 -0.66406,1.37985 -1.16702,2.83224 -1.50989,4.35018 -0.34286,1.51792 -0.52258,3.09762 -0.55183,4.71917 -0.0292,1.62155 0.10441,5.52277 0.3724,8.827 0.26799,3.30423 0.67702,6 1.22284,8.08313 0.54584,2.08315 1.22893,3.54352 1.67896,4.01516 0.78814,0.79403 0.54742,0.36948 0.88557,0.69185 z"
                   id="path9585" /></g><g
                 style="fill:#000000;fill-opacity:1;stroke-linejoin:miter"
                 id="g9591"
                 transform="rotate(90,259.41968,748.93978)"><path
                   d="m 281.00192,86.75993 c -0.28079,0.01344 -1.30442,-0.19778 -3.08038,-0.866314 -1.77597,-0.668541 -4.3194,-1.773506 -7.63626,-3.312012 -3.31684,-1.538514 -7.41198,-3.502314 -10.35474,-4.993074 -2.94278,-1.49077 -4.46444,-2.44278 -6.27615,-3.65646 -1.81169,-1.213694 -3.90441,-2.69516 -6.2977,-4.4119 -2.39328,-1.71673 -5.11568,-3.63016 -7.34982,-5.30163 -2.23415,-1.67148 -3.81644,-3.115448 -5.3796,-4.754993 -1.56315,-1.639542 -3.10388,-3.480374 -4.62098,-5.52491 -1.51709,-2.044533 -3.02405,-4.285707 -3.93195,-5.803025 -0.90788,-1.517314 -1.21584,-2.191558 -1.45621,-2.767719 -0.24037,-0.57616 -0.40144,-1.055088 -0.49887,-1.426503 -0.0974,-0.37141 -0.12848,-0.6268 -0.12637,-0.682525 0.002,-0.05573 0.18701,-0.20095 0.49991,-0.338249 0.31291,-0.137302 0.75454,-0.248786 1.31825,-0.326591 0.56371,-0.07781 1.24614,-0.125428 1.80504,-0.07049 0.5589,0.05494 0.5589,0.05494 0.18806,0.0034 0,0 -0.73637,-0.147934 -1.38194,-0.294713 -0.64557,-0.146778 -1.21567,-0.210979 -1.71582,-0.190584 -0.50015,0.02039 -0.93515,0.135344 -1.3266,0.407614 -0.39143,0.272266 -0.53686,0.766466 -0.55174,1.207186 -0.0149,0.440725 0.04,0.956884 0.1624,1.558172 0.12235,0.601284 0.30443,1.294008 0.57101,2.112991 0.26657,0.818981 1.52167,3.417443 2.8599,5.806931 1.33824,2.389492 2.76146,4.57896 4.26352,6.570541 1.50204,1.991577 3.07867,3.7878 4.7478,5.387335 1.66911,1.59954 4.5457,3.85342 7.14615,5.78868 2.60046,1.93527 4.98359,3.537585 7.10034,4.876506 2.11676,1.338924 3.966,2.421534 5.57796,3.259084 1.61195,0.837565 6.41627,2.79118 10.43537,4.28737 4.0191,1.496194 7.2661,2.549234 9.7403,3.154306 2.47424,0.605074 4.16742,0.770054 4.7514,0.661414 0.87235,-0.22964 0.5294,-0.23882 0.81772,-0.35982 z"
                   id="path9589" /></g><g
                 style="fill:#000000;fill-opacity:1;stroke-linejoin:miter"
                 id="g9595"
                 transform="rotate(90,259.41968,748.93978)"><path
                   d="m 282.8982,72.80972 c -0.94758,-0.24271 -2.70957,-0.433545 -4.29383,-0.67549 -1.58423,-0.24194 -2.99313,-0.56534 -4.22772,-0.97598 -1.23455,-0.41065 -2.29709,-0.90651 -2.92722,-1.218225 -0.63013,-0.311715 -0.55395,-0.309055 -0.97555,-0.74015 -0.42158,-0.431085 -1.11325,-1.195245 -2.04486,-2.271165 -0.93162,-1.07592 -2.09822,-2.45912 -2.90879,-3.49121 -0.81057,-1.032085 -1.16143,-1.624104 -1.46373,-2.1746 -0.30232,-0.550494 -0.54625,-1.06451 -0.75142,-1.53233 -0.20518,-0.467817 -0.36968,-0.892576 -0.52331,-1.463797 -0.15363,-0.57122 -0.2236,-1.346866 -0.12955,-2.251541 0.0941,-0.904674 0.36264,-1.94289 0.82834,-3.105587 0.4657,-1.162695 1.12684,-2.445675 1.61404,-3.236919 0.4872,-0.791246 0.75333,-1.112679 1.0345,-1.426251 0.28118,-0.313572 0.57604,-0.620792 0.88787,-0.918388 0.31183,-0.2976 0.63498,-0.592437 0.59247,-1.216927 -0.0425,-0.624492 -0.0425,-0.624492 -0.22831,-0.48378 0,0 -1.01385,-0.545417 -1.40646,-0.25521 -0.39257,0.290206 -0.77367,0.590877 -1.13919,0.906578 -0.36551,0.315696 -0.71643,0.644922 -1.09021,1.034882 -0.37377,0.38996 -1.36719,1.78248 -2.1525,3.12349 -0.78534,1.341006 -1.36557,2.64179 -1.73107,3.911437 -0.36555,1.269645 -0.50196,2.511763 -0.39927,3.678668 0.10269,1.166905 0.26117,1.807625 0.47101,2.427372 0.20984,0.619753 0.51036,1.236653 0.86893,1.862797 0.35855,0.626146 0.77103,1.265456 1.27939,1.962391 0.50836,0.696935 1.98714,2.232375 3.18826,3.447029 1.20111,1.214656 2.15933,2.14534 2.88468,2.800726 0.72534,0.65539 1.25384,1.06548 1.56765,1.19359 0.31378,0.12811 1.40152,0.62254 2.73871,1.022354 1.33716,0.399811 2.8024,0.647141 4.39534,0.737016 1.59297,0.08988 3.3124,0.01358 4.20988,-0.23549 1.83869,-0.29428 0.89075,-0.390075 1.83192,-0.43529 z"
                   id="path9593" /></g><g
                 style="fill:#000000;fill-opacity:1;stroke-linejoin:miter"
                 id="g9599"
                 transform="rotate(90,259.41968,748.93978)"><path
                   d="m 285.82855,71.068596 c -0.23739,-0.04098 -0.63545,-0.06982 -0.92529,-0.124696 -0.28989,-0.05488 -0.46121,-0.12827 -0.51106,-0.18493 -0.0498,-0.05665 -0.0364,-0.08073 -0.0379,-0.252836 -0.001,-0.172114 -0.009,-0.361908 -0.005,-0.580914 0.004,-0.21902 0.0126,-0.46589 0.0271,-0.74069 0.0145,-0.27479 0.0387,-0.57734 0.14374,-1.459295 0.10508,-0.88195 0.2399,-2.188235 0.33826,-3.252535 0.0984,-1.064302 0.16712,-1.88848 0.19448,-2.48142 0.0274,-0.592938 0.0221,-0.989544 -0.008,-1.452034 -0.0297,-0.462486 -0.0906,-1.19394 -0.18424,-1.867006 -0.0936,-0.67306 -0.22205,-1.290023 -0.3939,-1.852793 -0.17183,-0.562771 -0.3891,-1.074475 -0.70586,-1.705304 -0.31677,-0.630823 -0.76566,-1.491451 -1.30899,-2.294059 -0.54337,-0.802614 -1.10053,-1.592844 -1.6803,-2.365326 -0.57975,-0.772484 -1.18385,-1.525635 -2.1134,-2.509578 -0.9296,-0.983945 -2.03247,-2.075944 -3.03803,-3.080056 -1.00552,-1.004114 -1.90649,-1.927544 -2.71832,-2.759831 -0.81186,-0.83229 -1.53577,-1.576191 -1.91824,-1.964889 -0.38248,-0.388704 -0.48841,-0.452832 -0.60944,-0.504594 -0.12102,-0.05176 -0.25732,-0.09235 -0.4061,-0.132777 -0.14874,-0.04042 -0.31039,-0.08829 -0.44104,-0.121193 -0.13064,-0.0329 -0.13064,-0.0329 -0.0436,-0.01097 0,0 0.1742,0.04387 0.32865,0.09611 0.15448,0.05224 0.28085,0.130226 0.38507,0.209705 0.10419,0.07948 0.18588,0.159508 0.24165,0.234045 0.0558,0.07453 0.48412,0.937632 1.0374,1.88421 0.5533,0.94658 1.22547,1.972054 2.02005,3.070104 0.79459,1.098053 1.70125,2.275576 2.70648,3.513246 1.00522,1.237665 1.48539,1.95574 1.98387,2.729788 0.49843,0.774044 0.97228,1.561607 1.42943,2.357719 0.45713,0.796116 0.87531,1.614293 1.3606,2.407219 0.48529,0.792924 0.68722,1.111527 0.84961,1.449479 0.16238,0.337955 0.31816,0.763685 0.46512,1.273353 0.14694,0.509662 0.27794,1.101912 0.39218,1.789368 0.11423,0.68745 0.14789,0.82455 0.17716,1.179222 0.0293,0.354672 0.0568,0.990272 0.0906,1.880527 0.0338,0.890255 0.0718,2.031015 0.12085,3.423685 0.0491,1.39267 0.081,1.748705 0.11455,2.05948 0.0336,0.31078 0.0735,0.59487 0.1205,0.85239 0.0471,0.257505 0.10018,0.48869 0.15194,0.678716 0.0518,0.190024 0.0946,0.416554 0.28836,0.655304 0.1938,0.23875 0.46982,0.34585 0.78644,0.358925 0.31666,0.01308 0.68494,-0.0472 0.88556,-0.138595 0.43024,-0.12673 0.17914,-0.23094 0.40875,-0.266274 z"
                   id="path9597" /></g><g
                 style="fill:#000000;fill-opacity:1;stroke-linejoin:miter"
                 id="g9603"
                 transform="rotate(90,259.41968,748.93978)"><path
                   d="m 272.59113,120.89807 c 0.2897,-0.31415 0.71405,-0.96641 1.77511,-2.15058 1.06106,-1.18417 2.04506,-2.34016 3.18964,-3.48275 1.14459,-1.14259 2.11502,-2.09081 3.35357,-2.94106 1.23855,-0.85023 2.35761,-1.3094 3.88559,-1.50788 1.52799,-0.19849 3.19071,-0.40962 4.73233,-0.0828 1.54163,0.3268 2.34485,0.52978 3.3104,0.97669 0.96551,0.44691 1.76233,0.84564 2.13373,1.21613 0.37136,0.3705 0.50824,0.62174 0.86938,1.16399 0.36118,0.54225 0.62195,1.47694 0.78156,1.90896 0.15963,0.43201 0.36331,1.90289 0.49652,2.77266 0.13318,0.86976 0.58526,2.40076 0.70864,3.19559 0.1234,0.79483 0.341,2.12776 0.43784,2.67942 0.0968,0.55166 0.0566,1.70846 0.10858,2.36838 0.052,0.65991 -0.0794,1.1274 -0.61905,1.76804 -0.53964,0.64066 -1.73739,1.65765 -3.51709,2.72049 -1.77968,1.06285 -3.75762,1.86917 -5.33941,2.16681 -1.58179,0.29765 -3.48621,0.68425 -5.68637,0.57702 -2.20017,-0.10721 -4.39942,-0.2964 -6.3526,-0.85159 -1.95322,-0.55519 -4.09925,-1.58128 -6.2647,-2.64832 -2.1655,-1.06705 -4.21223,-1.87533 -5.0024,-2.21588 -0.79012,-0.34054 -1.2923,-0.55111 -1.26955,-0.873 0.0227,-0.32188 0.0227,-0.32188 -0.0521,-0.0816 0,0 -0.32858,0.5577 0.26938,1.11314 0.59799,0.55543 1.38196,1.08274 3.16318,2.29426 1.78122,1.21151 4.06631,2.6469 6.28223,3.77655 2.21591,1.12966 4.26138,1.8568 6.89065,2.23447 2.62924,0.37769 4.681,0.59685 6.57971,0.46299 1.89871,-0.13384 4.14121,-0.69792 6.46009,-1.63706 2.3189,-0.93917 4.37598,-2.23154 5.76641,-3.48845 1.39042,-1.25691 2.19922,-2.42044 2.48993,-3.84349 0.29068,-1.42304 0.14438,-2.33908 0.0874,-3.42435 -0.057,-1.08528 -0.14341,-1.61462 -0.33674,-2.79858 -0.19333,-1.18397 -0.35791,-2.11387 -0.66198,-3.18282 -0.30408,-1.06894 -0.43735,-1.8084 -0.72205,-2.99967 -0.2847,-1.19128 -0.50732,-1.73304 -0.9859,-2.69212 -0.47858,-0.95909 -0.99713,-1.8017 -1.70172,-2.51579 -0.70462,-0.71409 -1.33418,-1.3028 -2.34968,-1.77321 -1.01552,-0.47042 -2.63784,-1.02521 -4.25747,-1.33254 -1.61963,-0.30733 -3.41893,-0.39116 -5.16611,-0.046 -1.74712,0.34518 -3.59817,0.7789 -5.17626,1.75151 -1.5781,0.9726 -2.77016,2.18135 -3.67194,3.44204 -0.9018,1.26068 -2.00449,2.44278 -2.84546,3.84701 -0.841,1.40424 -1.62946,2.82434 -1.69176,3.26492 -0.2301,0.81009 0.0662,0.49894 -0.10157,0.86845 z"
                   id="path9601" /></g><g
                 style="fill:#000000;fill-opacity:1;stroke-linejoin:miter"
                 id="g9607"
                 transform="rotate(90,259.41968,748.93978)"><path
                   d="m 308.57895,120.11105 c 0.66025,-0.68633 1.55798,-2.38226 2.21677,-4.34661 0.65875,-1.96436 1.0971,-4.17087 1.32354,-6.60486 0.22647,-2.43399 0.24304,-5.08921 0.0831,-7.4737 -0.15994,-2.38449 -0.36709,-4.239576 -0.59366,-5.98717 -0.2266,-1.7476 -0.46338,-3.38964 -0.727,-4.923655 -0.26363,-1.534005 -0.54567,-2.961965 -0.8619,-4.195815 -0.31622,-1.23385 -0.57885,-2.09173 -0.79907,-2.77559 -0.22021,-0.68387 -0.39293,-1.20022 -0.5278,-1.57139 -0.13489,-0.37117 -0.30948,-0.73822 -0.33685,-0.81376 -0.0274,-0.07554 -0.2359,-0.51324 -0.49238,-0.943494 -0.25646,-0.430246 -0.5565,-0.860976 -0.8997,-1.298186 -0.34324,-0.43722 -0.7299,-0.88435 -0.83302,-0.987825 -0.10315,-0.103469 -0.1582,-0.21595 -0.17532,-0.255795 -0.0171,-0.03985 2.4e-4,0.02904 10e-4,0.302304 9.8e-4,0.273262 -0.19268,0.826126 0.0618,1.065886 0.25448,0.239755 1.96562,-0.227194 3.64782,-0.72051 1.68222,-0.49332 3.3355,-1.013024 4.9598,-1.55915 1.6243,-0.54614 3.21962,-1.11874 4.8196,-1.792924 1.59997,-0.674186 3.157,-1.452141 4.7858,-2.331366 1.6288,-0.87923 3.3303,-1.859736 5.10537,-2.94161 1.77505,-1.08187 3.62417,-2.265156 3.81048,-2.71453 0.18631,-0.44936 0.62021,-0.07626 1.23735,0.749896 0.61714,0.826154 1.33376,2.095694 2.10704,3.786044 0.77329,1.69034 1.58988,3.78955 2.22654,6.05134 0.63665,2.2618 1.05444,4.52819 1.35934,6.629794 0.3049,2.101601 0.49765,4.036736 0.57978,5.802742 0.0822,1.766004 0.0659,3.360764 0.0393,5.312859 -0.0267,1.952105 -0.0844,4.160665 -0.24407,6.333855 -0.1597,2.17319 -0.42665,4.31238 -0.79832,6.4202 -0.3717,2.10783 -0.84952,4.18609 -1.68835,6.89611 -0.83887,2.71 -1.87369,5.73436 -2.74273,8.17184 -0.86903,2.43749 -1.5624,4.2959 -2.10597,5.57503 -0.54358,1.27911 -0.98807,1.97366 -1.32233,2.13956 -0.33422,0.16589 -0.33422,0.16589 -0.1106,0.0563 0,0 0.4497,-0.21638 1.193,-0.94702 0.7433,-0.73063 1.69184,-2.06111 2.7952,-3.99603 1.10336,-1.93491 2.35675,-4.46956 3.76932,-7.61169 1.41253,-3.14213 2.16964,-5.28163 2.79088,-7.44309 0.6213,-2.16145 1.12046,-4.37214 1.49,-6.63127 0.36957,-2.25913 0.61115,-4.56437 0.72537,-6.87578 0.11423,-2.3114 0.25153,-3.87966 0.24658,-5.70459 -0.005,-1.82493 -0.13305,-3.79238 -0.37698,-5.905165 -0.24397,-2.112775 -0.60275,-4.372841 -1.0899,-6.839545 -0.48719,-2.46671 -1.39621,-5.03791 -2.25565,-7.13818 -0.85944,-2.100255 -1.70929,-3.84165 -2.57272,-5.241796 -0.86344,-1.400144 -1.78595,-2.478464 -3.53784,-3.214804 -1.75186,-0.73635 -4.07923,0.718245 -5.85516,1.83722 -1.77595,1.11898 -3.47126,2.13405 -5.08515,3.04513 -1.61392,0.9111 -3.14569,1.71815 -4.568,2.40973 -1.4223,0.69159 -2.88455,1.23756 -4.43841,1.78336 -1.55386,0.545805 -3.13751,1.06659 -4.75101,1.5623 -1.61349,0.49571 -3.2568,0.96633 -4.95587,1.418755 -1.69906,0.452425 -2.95294,1.467109 -3.08774,2.081715 -0.13476,0.614604 -0.0812,1.01832 0.0124,1.32275 0.0936,0.30443 0.20808,0.57033 0.43135,0.96676 0.2233,0.39644 0.68125,0.90542 0.97491,1.25511 0.29367,0.3497 0.53344,0.66638 0.71927,0.94535 0.18582,0.27897 0.31827,0.51475 0.43887,0.78118 0.12058,0.26644 0.23417,0.45098 0.2549,0.50898 0.0207,0.058 0.15395,0.40196 0.3498,0.93649 0.19587,0.53452 0.4505,1.24996 0.7531,2.097775 0.30254,0.847815 0.6243,2.077935 0.95678,3.473085 0.33252,1.39514 0.65686,2.904814 0.98575,4.525984 0.32889,1.621166 0.65939,3.354216 0.98404,5.17955 0.32463,1.825336 0.64715,4.484256 0.79193,6.936306 0.14477,2.45205 0.10724,4.69997 -0.10443,6.75333 -0.21167,2.05336 -0.58737,3.92746 -0.69777,4.86952 -0.51802,1.73848 0.0153,1.0064 -0.39235,1.80281 z"
                   id="path9605" /></g><g
                 style="fill:#000000;fill-opacity:1;stroke-linejoin:miter"
                 id="g9611"
                 transform="rotate(90,259.41968,748.93978)"><path
                   d="m 332.9792,132.61243 c -0.5397,-0.18636 -1.6484,-0.44139 -2.80278,-0.78696 -1.15439,-0.34558 -2.36145,-0.80025 -3.629,-1.36473 -1.26752,-0.56448 -2.59466,-1.25177 -3.35362,-1.6619 -0.75896,-0.41012 -0.90306,-0.51503 -1.2673,-0.80965 -0.36424,-0.29463 -0.89842,-0.75547 -1.59227,-1.3722 -0.69388,-0.61674 -1.54556,-1.38615 -2.19879,-1.88514 -0.65326,-0.49899 -0.87264,-0.64516 -1.08844,-0.7788 -0.2158,-0.13364 -0.42624,-0.25758 -0.63062,-0.37322 -0.20434,-0.11564 -0.40318,-0.22306 -0.44971,-0.25938 -0.0465,-0.0363 -0.47232,-0.26994 -1.07894,-0.50755 -0.60663,-0.23762 -1.50653,-0.55176 -2.7164,-0.95433 -1.20987,-0.40256 -2.7396,-0.87789 -4.25135,-1.37461 -1.51178,-0.49671 -2.84543,-0.97127 -2.83026,-0.74342 0.0152,0.22784 -0.0652,0.30151 0.17558,0.19166 0.2407,-0.10983 0.70778,-0.25947 1.1518,-0.45976 0.44405,-0.20029 0.44405,-0.20029 0.13414,-0.15887 0,0 -0.66154,-0.1935 -1.12674,-0.15994 -0.46518,0.0336 -0.79086,0.12133 -0.92578,0.5471 -0.13489,0.42577 0.15218,0.66859 1.39731,1.39893 1.24511,0.73034 2.91491,1.50891 4.26254,2.12639 1.34766,0.61749 2.39078,1.09774 3.11847,1.44893 0.72769,0.35119 1.11776,0.56052 1.15408,0.60811 0.0363,0.0476 0.35193,0.24855 0.50446,0.34672 0.15252,0.0982 0.31158,0.2108 0.47836,0.33488 0.16676,0.12409 0.34116,0.25971 0.50012,0.38411 0.15894,0.1244 1.11582,0.98941 1.98941,1.64941 0.8736,0.65999 1.59013,1.17829 2.15009,1.56456 0.55997,0.38627 0.97821,0.64921 1.25281,0.78043 0.27459,0.13123 1.76248,0.76766 3.2164,1.27069 1.45391,0.50305 2.83803,0.87242 4.15368,1.08783 1.31565,0.21539 2.55481,0.2777 3.1521,0.1612 1.14881,-0.10932 0.59912,-0.25766 1.15065,-0.25049 z"
                   id="path9609" /></g></g></g></g><g
           id="g9665"
           transform="matrix(0.89044438,0,0,0.89044438,373.32137,-568.58329)"><path
             id="path9645"
             style="fill:#fdfd7b;fill-opacity:1;stroke-width:13.9335"
             d="m -436.062,373.39884 h 98.62723 c 9.43344,0 17.0279,7.59443 17.0279,17.02791 v 130.979 c 0,9.43343 -7.59446,17.0279 -17.0279,17.0279 H -436.062 c -9.43343,0 -17.02787,-7.59447 -17.02787,-17.0279 v -130.979 c 0,-9.43348 7.59444,-17.02791 17.02787,-17.02791 z m -17.02787,0 h 107.17815 v 165.03481 h -107.17815 z" /><g
             id="g9663"
             transform="matrix(0.9800406,0,0,0.9800406,-1145.9499,-183.73079)"><rect
               style="display:inline;opacity:0.5;fill:none;fill-opacity:1;stroke:none;stroke-width:2.66644;stroke-dasharray:none;stroke-opacity:1"
               id="rect9647"
               width="135.38521"
               height="135.38521"
               x="706.9707"
               y="568.47607" /><g
               id="g9661"
               transform="translate(-2.1013915,-2.0583183)"><g
                 style="fill:#000000;fill-opacity:1;stroke-linejoin:miter"
                 id="g9651"
                 transform="rotate(90,259.41968,748.93978)"><path
                   d="m 115.05826,276.61987 c 0.65807,-1.24247 2.46651,-7.30899 3.60279,-11.67529 1.13628,-4.3663 1.58112,-7.03641 2.44822,-13.30305 0.86709,-6.26665 1.09553,-8.98278 1.09553,-8.98278 0,0 0,0 0,0 0,0 0,0 -1.38149,4.31418 -1.38149,4.31417 -3.02807,10.4151 -3.61042,13.056 -0.58235,2.64093 -1.57314,8.88127 -1.79237,12.06012 -0.50035,4.50145 -0.0811,3.20825 -0.36226,4.53082 z"
                   id="path9649" /></g><g
                 style="fill:#000000;fill-opacity:1;stroke-linejoin:miter"
                 id="g9655"
                 transform="rotate(90,259.41968,748.93978)"><path
                   d="m 111.76151,224.96179 c 0.54634,-0.42669 1.3445,-1.42023 1.98167,-2.43399 0.63717,-1.01375 1.12785,-2.03555 1.47263,-3.06146 0.34478,-1.02591 0.54032,-2.05299 0.60358,-2.69153 0.0633,-0.63852 0.0796,-1.00629 0.0717,-1.44325 -0.008,-0.43697 -0.0338,-0.94996 -0.0774,-1.54297 -0.0436,-0.59302 -0.10486,-1.26776 -0.41558,-3.04038 -0.31073,-1.77261 -0.79326,-4.30352 -1.34369,-6.5404 -0.55044,-2.23688 -1.02301,-4.21461 -1.40471,-5.93605 -0.3817,-1.72144 -0.6633,-3.1875 -0.79169,-3.93478 -0.12839,-0.74729 -0.1618,-0.95812 -0.19717,-1.26957 -0.0354,-0.31143 -0.0778,-0.71624 -0.11901,-1.21124 -0.0412,-0.49498 -0.0881,-1.07883 -0.12425,-1.4888 -0.0362,-0.40996 -0.0478,-0.57951 -0.056,-0.72874 -0.008,-0.14923 -0.0129,-0.27774 -0.0145,-0.38454 -0.002,-0.10678 -3.9e-4,-0.19061 0.0152,-0.44653 0.0155,-0.25591 0.0518,-0.68424 0.10914,-1.10004 0.0573,-0.4158 0.13533,-0.82018 0.23386,-1.21463 0.0985,-0.39444 0.23371,-0.7717 0.3812,-1.028 0.14747,-0.2563 0.14747,-0.2563 0.0491,-0.0854 0,0 -0.19664,0.34173 -0.42641,0.67889 -0.22976,0.33717 -0.44575,0.69875 -0.63971,1.08762 -0.19396,0.38888 -0.36308,0.80465 -0.50873,1.24191 -0.14565,0.43727 -0.17089,0.53586 -0.19461,0.65027 -0.0237,0.11441 -0.0469,0.24501 -0.07,0.39312 -0.0231,0.14813 -0.0462,0.31444 -0.0694,0.50187 -0.0232,0.1874 -0.0928,0.83593 -0.1358,1.39953 -0.0429,0.56362 -0.0766,1.0437 -0.094,1.4422 -0.0175,0.39849 -0.0199,0.71892 -0.0108,0.95027 0.009,0.23136 0.0599,1.58867 0.20909,3.21634 0.14922,1.62767 0.38968,3.50847 0.7288,5.6418 0.33912,2.13332 0.82331,4.50881 1.5473,7.08707 0.72398,2.57828 0.84957,3.1967 0.96386,3.80969 0.11428,0.61301 0.20225,1.13942 0.26404,1.57666 0.0618,0.43724 0.0978,0.78125 0.11418,1.03662 0.0164,0.25536 0.0325,1.14946 -0.0627,2.04935 -0.0952,0.89989 -0.31131,1.85343 -0.63969,2.86685 -0.32837,1.01344 -0.76867,2.09088 -0.93261,2.71192 -0.53332,1.16061 -0.0474,0.70076 -0.41681,1.24035 z"
                   id="path9653" /></g><g
                 style="fill:#000000;fill-opacity:1;stroke-linejoin:miter"
                 id="g9659"
                 transform="rotate(90,259.41968,748.93978)"><path
                   d="m 153.89148,263.005 c 0.2119,-0.70333 0.001,-3.7176 -0.0543,-6.65945 -0.0556,-2.94186 -0.74992,-11.03023 -0.93643,-13.1736 -0.1865,-2.14337 -0.80161,-8.31929 -1.14237,-11.17979 -0.34077,-2.86052 -1.09589,-6.43901 -1.4797,-8.17076 -0.38382,-1.73175 -1.17414,-5.41796 -1.55892,-8.09722 -0.38478,-2.67928 -0.38582,-4.2847 -0.16527,-5.64858 0.22057,-1.36387 0.5659,-2.01199 0.91507,-2.5724 0.34919,-0.56042 1.07929,-1.07266 1.63626,-1.76812 0.55698,-0.69547 1.10847,-1.25232 1.42266,-2.71649 0.31419,-1.46416 -0.12534,-2.50077 -0.39253,-3.03519 -0.26722,-0.53441 -0.90909,-1.58867 -0.93473,-1.09973 -0.0256,0.48892 0.015,0.4796 0.44182,0.25401 0.42682,-0.22558 3.02797,-1.52661 4.57359,-2.16972 1.54561,-0.64313 4.97826,-1.96347 6.51826,-2.47687 1.54,-0.5134 4.43849,-1.30342 5.83425,-1.68707 1.39575,-0.38364 3.40311,-0.63018 4.48194,-0.76508 1.07881,-0.1349 2.9642,-0.40419 3.46228,-0.30527 0.49809,0.0989 1.97488,0.58953 3.6231,1.53876 1.64824,0.94925 3.44559,2.23047 5.09321,3.75455 1.64759,1.52408 3.05995,2.93251 4.0509,3.99939 0.99095,1.06689 1.68089,2.69142 2.29913,4.91125 0.61824,2.21984 0.85167,4.34838 1.11676,7.12326 0.26508,2.77489 0.55631,4.8855 0.68305,7.97977 0.12674,3.09427 0.12878,5.31473 0.16446,8.15975 0.0357,2.84501 -0.0282,3.54786 -0.42106,5.87655 -0.39289,2.32869 -0.63255,3.28799 -1.48122,6.35536 -0.84869,3.06735 -1.20254,4.13814 -2.31478,6.36725 -1.11224,2.2291 -1.60478,2.96883 -2.75359,4.54419 -1.1488,1.57538 -1.69516,2.30743 -2.89895,3.74785 -1.20378,1.4404 -1.78815,2.1674 -3.12561,3.31264 -1.33747,1.1452 -2.26146,1.89859 -3.70343,2.60913 -1.44199,0.71057 -2.42823,1.11493 -3.57996,1.38995 -1.15175,0.27502 -2.34278,0.31433 -3.57695,0.3887 -1.23418,0.0744 -2.55637,-0.35379 -4.08461,-0.85 -1.52824,-0.49619 -3.13327,-0.65832 -4.60882,-1.22257 -1.47555,-0.56425 -3.05205,-1.00412 -4.26163,-1.43423 -1.20957,-0.43012 -1.37323,-0.82355 -1.54867,-0.79582 -0.17544,0.0278 0.15092,-0.1723 0.78432,-0.5224 0.6334,-0.3501 2.14431,-1.12822 2.64795,-1.4065 0.50367,-0.27827 0.50367,-0.27827 0.16222,-0.10756 0,0 -0.69989,0.29703 -1.87474,0.55503 -1.17485,0.25799 -1.9261,0.40136 -2.52509,1.12496 -0.599,0.72357 0.04,1.26954 0.78122,1.79969 0.74123,0.53012 2.02032,1.42273 3.06802,1.88974 1.04774,0.46701 3.50996,1.70564 4.66807,2.01804 1.15809,0.3124 3.26564,1.20525 4.57693,1.56075 1.31128,0.3555 3.449,0.43387 4.66968,0.45487 1.22066,0.021 3.30124,-0.50042 4.479,-0.91046 1.17775,-0.41004 3.50289,-1.50553 4.70832,-2.36402 1.20543,-0.85849 3.21206,-2.51084 4.10223,-3.5039 0.89017,-0.99304 2.53101,-2.88111 3.36925,-3.99714 0.83824,-1.11602 2.19652,-3.01759 3.07316,-4.34587 0.87666,-1.32827 2.28502,-4.69674 2.98653,-6.80088 0.70151,-2.10413 1.52268,-5.65435 1.93601,-7.31961 0.41332,-1.66529 0.69894,-4.47544 0.83725,-6.05367 0.1383,-1.57823 -0.13085,-5.38673 -0.14533,-8.46941 -0.0145,-3.08266 -0.26442,-5.61285 -0.52928,-7.86213 -0.26488,-2.24929 -0.54888,-5.34091 -0.97325,-7.84233 -0.42438,-2.50144 -1.2804,-5.07332 -2.40868,-7.12804 -1.12828,-2.05472 -2.61299,-3.27225 -4.07336,-4.73343 -1.46038,-1.46118 -3.45179,-3.16749 -5.44397,-4.58549 -1.99219,-1.41799 -4.137,-2.34984 -5.78888,-2.8505 -1.6519,-0.50064 -2.8227,-0.4142 -4.44211,-0.19522 -1.6194,0.21898 -2.35403,0.31081 -4.46564,0.71838 -2.11162,0.40758 -3.2436,0.7163 -5.66281,1.43201 -2.4192,0.7157 -3.89415,1.20847 -6.50555,2.23998 -2.61141,1.03151 -4.22547,1.70617 -5.9617,2.60832 -1.73626,0.90216 -2.82537,1.62108 -3.28522,3.58234 -0.45985,1.96127 0.44922,2.74824 0.5291,3.02276 0.0799,0.27452 0.3471,0.80899 0.39457,0.83368 0.0475,0.0247 0.14139,-0.24863 -0.31164,0.33801 -0.45305,0.58664 -0.55368,0.67212 -1.42041,1.56067 -0.86672,0.88857 -1.49342,1.84899 -2.00453,3.38773 -0.51111,1.53874 -0.79253,3.54104 -0.65132,5.89035 0.14118,2.34929 0.69149,5.65069 1.44516,9.00607 0.75366,3.35538 0.89492,3.92448 1.72461,8.00058 0.82968,4.07608 0.94031,4.79492 1.59117,8.87424 0.65086,4.07933 1.03317,6.3007 2.13569,12.84347 1.10253,6.54276 1.29848,7.27536 1.83356,8.68991 0.53509,2.08258 0.67627,1.41456 0.67627,2.08258 z"
                   id="path9657" /></g></g></g></g><g
           id="g9699"
           transform="matrix(0.89044438,0,0,0.89044438,66.24106,-237.57413)"><path
             id="path9667"
             style="fill:#7b90fd;fill-opacity:1;stroke-width:13.9335"
             d="M -91.200169,375.71832 H 7.4270603 c 9.4334397,0 17.0278997,7.59443 17.0278997,17.02791 v 130.979 c 0,9.43343 -7.59446,17.0279 -17.0278997,17.0279 H -91.200169 c -9.433431,0 -17.027871,-7.59447 -17.027871,-17.0279 v -130.979 c 0,-9.43348 7.59444,-17.02791 17.027871,-17.02791 z m -17.027871,0 H -1.0498901 V 540.75313 H -108.22804 Z" /><g
             id="g9697"
             transform="matrix(0.9800406,0,0,0.9800406,-501.58905,-456.29529)"><rect
               style="display:inline;opacity:0.5;fill:none;fill-opacity:1;stroke:none;stroke-width:2.66644;stroke-dasharray:none;stroke-opacity:1"
               id="rect9669"
               width="135.38521"
               height="135.38521"
               x="401.37216"
               y="848.95831" /><g
               id="g9695"
               transform="translate(-26.440083,3.1752913)"><g
                 style="fill:#000000;fill-opacity:1;stroke-linejoin:miter"
                 id="g9673"
                 transform="rotate(90,259.41968,748.93978)"><path
                   d="m 387.28055,519.7198 c 0.35977,0.3648 1.16849,0.9788 2.00175,1.6369 0.8332,0.65813 1.6865,1.37523 2.56414,2.1511 0.87762,0.7758 1.7749,1.6195 2.44583,2.31715 0.67093,0.69769 1.09417,1.21729 1.43255,1.69165 0.33838,0.4744 0.59158,0.899 0.76118,1.2653 0.16958,0.36635 0.2601,0.6657 0.3661,1.1212 0.10603,0.45554 0.2002,0.94376 0.24794,1.40653 0.0478,0.46277 0.0549,0.90067 0.017,1.31647 -0.0379,0.41583 -0.11335,0.8121 -0.13547,0.8987 -0.0221,0.0866 -0.0635,0.1467 -0.10437,0.20176 -0.0409,0.055 -0.0832,0.10498 -0.12699,0.15014 -0.0438,0.0451 -0.0898,0.0867 -0.5043,0.3435 -0.41446,0.2568 -1.23804,0.80324 -1.90097,1.2582 -0.66297,0.45495 -1.16669,0.8326 -1.55011,1.1592 -0.38339,0.3265 -0.75873,0.8097 -0.89758,1.0445 -0.13888,0.2349 -0.45062,0.75705 -0.70554,1.3035 -0.25491,0.5465 -0.44922,1.11566 -0.57886,1.7031 -0.12963,0.58755 -0.19366,1.189 -0.20144,1.7668 -0.008,0.5778 0.0161,1.1041 0.0694,1.62275 0.0533,0.51865 0.13733,1.02875 0.24537,1.531 0.10806,0.5022 0.24585,0.99465 1.562,3.65955 1.3162,2.66485 3.74918,7.3891 4.9331,8.6923 1.18394,1.30324 2.84373,2.5528 5.01204,3.84786 2.16833,1.29498 4.86679,2.63604 7.31996,3.32944 2.4532,0.6935 2.4532,0.6935 0.98106,-0.0714 0,0 -2.45426,-2.43754 -4.74786,-3.94884 -2.29364,-1.51126 -4.04117,-2.84336 -5.2133,-3.98462 -1.1721,-1.14114 -1.72673,-1.94879 -3.83516,-6.71664 -2.1084,-4.7679 -2.1366,-4.96744 -2.24597,-5.3206 -0.10937,-0.3531 -0.19654,-0.71904 -0.2685,-1.097 -0.0719,-0.3779 -0.12227,-0.7692 -0.15619,-1.1611 -0.0339,-0.3919 -0.041,-0.75885 -0.009,-1.1063 0.0322,-0.3475 0.10364,-0.6868 0.20749,-1.0251 0.10388,-0.3383 0.24775,-0.67756 0.48102,-1.08485 0.23325,-0.40725 0.24365,-0.49555 0.24445,-0.47805 7.8e-4,0.0176 0.28405,-0.2371 0.75671,-0.6262 0.47263,-0.38916 1.12521,-0.88965 1.95389,-1.5166 0.82868,-0.6269 1.10178,-0.8729 1.23108,-1.0189 0.1293,-0.14596 0.24878,-0.3002 0.3577,-0.4613 0.10888,-0.1611 0.207,-0.32876 0.34026,-0.6283 0.13331,-0.2995 0.25251,-0.92354 0.30378,-1.5312 0.0513,-0.6077 0.0323,-1.222 -0.0455,-1.83955 -0.0778,-0.61755 -0.21297,-1.23761 -0.40033,-1.83289 -0.18734,-0.59521 -0.31964,-1.01876 -0.5665,-1.5332 -0.24686,-0.51446 -0.57414,-1.02316 -0.97784,-1.53619 -0.40372,-0.51307 -0.8833,-1.03647 -1.45573,-1.58807 -0.57244,-0.5516 -1.63604,-1.3667 -2.66345,-2.08643 -1.0274,-0.71977 -2.03862,-1.35277 -3.03198,-1.89707 -0.99334,-0.5443 -1.96857,-0.9949 -2.49017,-1.1129 -0.95871,-0.34104 -0.58585,0.008 -1.02292,-0.2153 z"
                   id="path9671" /></g><g
                 style="fill:#000000;fill-opacity:1;stroke-linejoin:miter"
                 id="g9677"
                 transform="rotate(90,259.41968,748.93978)"><path
                   d="m 392.70886,500.227 c -0.0438,-0.4664 -0.25622,-1.2802 -0.44536,-2.00636 -0.1892,-0.72619 -0.34657,-1.36816 -0.46428,-1.92744 -0.1177,-0.55922 -0.1932,-1.03417 -0.24812,-1.55138 -0.0549,-0.51722 -0.0849,-1.08438 -0.0667,-1.60705 0.0183,-0.52267 0.0793,-1.00057 0.18072,-1.43507 0.10138,-0.4345 0.24579,-0.8264 0.59247,-1.51647 0.34671,-0.69007 0.87277,-1.64966 1.37823,-2.49781 0.50547,-0.84814 0.98204,-1.58755 1.43439,-2.21197 0.45233,-0.62442 0.87755,-1.13095 1.36237,-1.57419 0.4848,-0.44324 1.24664,-1.02456 2.16302,-1.6626 0.91638,-0.63803 1.98831,-1.32636 3.20032,-2.08444 1.21201,-0.75812 2.53154,-1.63912 3.41554,-2.23059 0.88396,-0.59146 1.1442,-0.82833 1.37963,-1.09271 0.23537,-0.26442 0.45282,-0.55554 0.6585,-0.87427 0.20567,-0.31875 0.40299,-0.66623 0.97737,-2.04761 0.57433,-1.38137 1.3635,-3.46024 1.98742,-5.2272 0.6239,-1.76697 1.08133,-3.2254 1.37548,-4.38266 0.29413,-1.15726 0.42847,-2.03284 0.46656,-2.54088 0.0381,-0.50807 0.0936,-0.95985 0.12832,-1.3683 0.0348,-0.40842 0.0577,-0.77316 0.0582,-1.09778 4.3e-4,-0.32458 -0.0228,-0.61114 -0.095,-1.16842 -0.0722,-0.5573 -0.18808,-1.3741 -0.32401,-2.06913 -0.13592,-0.69507 -0.27814,-1.26779 -0.42221,-1.71637 -0.14403,-0.44857 -0.24957,-0.78067 -0.31765,-0.97384 -0.0681,-0.19318 -0.0681,-0.19318 -0.0227,-0.0644 0,0 0.0908,0.25756 0.12238,0.6412 0.0316,0.38361 0.0159,0.8848 -0.0206,1.50061 -0.0366,0.61585 -0.0918,1.34762 -0.1528,2.19989 -0.0609,0.8523 -0.0705,1.06891 -0.1022,1.30163 -0.0316,0.23273 -0.0824,0.517 -0.15587,0.85004 -0.0735,0.33301 -0.17435,0.71259 -0.29956,1.17016 -0.12522,0.45756 -0.21311,1.01295 -0.47959,1.82063 -0.26651,0.80764 -0.72512,1.94767 -1.3688,3.40411 -0.64368,1.45648 -1.46458,3.22786 -2.4708,5.30121 -1.00618,2.07335 -1.12808,2.25351 -1.28796,2.48663 -0.15988,0.2331 -0.30676,0.42114 -0.43576,0.56282 -0.129,0.14168 -0.23453,0.2366 -0.28409,0.27193 -0.0495,0.0353 -1.53767,0.86963 -2.8833,1.70465 -1.34561,0.83502 -2.51981,1.66572 -3.54944,2.45065 -1.0296,0.78497 -1.91546,1.5257 -2.68536,2.23465 -0.7699,0.70896 -1.29254,1.35138 -1.75127,2.04148 -0.45872,0.69012 -0.91392,1.47451 -1.3641,2.35916 -0.45018,0.88464 -0.89736,1.87068 -1.3492,2.96356 -0.45184,1.09286 -0.6359,1.65232 -0.74185,2.22762 -0.10593,0.57536 -0.1539,1.17002 -0.13415,1.78434 0.0197,0.61432 0.10644,1.24658 0.24624,1.89231 0.1398,0.64572 0.27231,1.11358 0.46371,1.6437 0.19145,0.53012 0.43965,1.11595 0.75232,1.75739 0.31269,0.64146 0.69818,1.33594 0.98463,1.67126 0.4657,0.744 0.4157,0.27863 0.59496,0.6873 z"
                   id="path9675" /></g><g
                 style="fill:#000000;fill-opacity:1;stroke-linejoin:miter"
                 id="g9681"
                 transform="rotate(90,259.41968,748.93978)"><path
                   d="m 412.3309,491.44617 c 0.5626,-0.13999 1.52207,-0.6481 2.3757,-1.26795 0.85364,-0.61987 1.60907,-1.33264 2.25763,-2.13659 0.64859,-0.80396 1.1976,-1.6883 1.48291,-2.29139 0.28531,-0.60304 0.37519,-0.84434 0.46262,-1.0885 0.0874,-0.2442 0.16874,-0.49244 0.24174,-0.74511 0.073,-0.25269 0.1379,-0.50965 0.19835,-0.771 0.0605,-0.26133 0.12427,-0.5639 0.19085,-0.90991 0.0666,-0.34604 0.13627,-0.73657 0.20927,-1.17249 0.073,-0.43593 0.10633,-0.92227 0.12733,-1.24768 0.021,-0.32545 0.0431,-0.51169 0.064,-0.6734 0.0209,-0.16168 0.038,-0.29855 0.0533,-0.40845 0.0154,-0.10986 0.029,-0.18966 0.0648,-0.35772 0.0357,-0.16803 0.1044,-0.48928 0.22491,-0.97858 0.12051,-0.4893 0.29398,-1.13647 0.50826,-1.9416 0.2143,-0.8051 0.4709,-1.7665 0.64976,-2.4633 0.17884,-0.6968 0.23462,-0.98054 0.27934,-1.23914 0.0447,-0.25864 0.0806,-0.49186 0.10768,-0.70038 0.0271,-0.20853 0.0454,-0.39328 0.0537,-0.7934 0.008,-0.40011 -0.0314,-0.98181 -0.12439,-1.49606 -0.093,-0.51425 -0.23657,-0.95802 -0.42962,-1.32602 -0.19309,-0.36798 -0.40985,-0.66968 -0.57135,-0.8797 -0.16147,-0.21005 -0.16147,-0.21005 -0.0538,-0.07 0,0 0.2153,0.28006 0.32888,0.6355 0.11362,0.35544 0.15619,0.75659 0.1446,1.20124 -0.0116,0.44463 -0.0741,0.9368 -0.18605,1.4842 -0.112,0.54738 -0.14727,0.6668 -0.19854,0.82777 -0.0513,0.16103 -0.11688,0.3491 -0.19676,0.56333 -0.0799,0.21423 -0.1741,0.45407 -0.27568,0.70993 -0.10159,0.25583 -0.54162,1.26334 -0.91062,2.13672 -0.369,0.87335 -0.6688,1.60455 -0.8972,2.19632 -0.2284,0.59176 -0.3936,1.04571 -0.4908,1.35965 -0.0972,0.31393 -0.12087,0.38723 -0.1589,0.5173 -0.038,0.13008 -0.0779,0.2757 -0.11874,0.44028 -0.0409,0.1646 -0.0829,0.34903 -0.13071,0.57696 -0.0478,0.22794 -0.12793,0.75194 -0.17745,1.20746 -0.0495,0.45558 -0.0783,0.86475 -0.1078,1.22478 -0.0295,0.3601 -0.0594,0.67006 -0.0899,0.93156 -0.0306,0.26151 -0.0613,0.49364 -0.0967,0.71756 -0.0355,0.22394 -0.0729,0.44586 -0.11579,0.66522 -0.0428,0.21933 -0.0914,0.43601 -0.14032,0.625 -0.0488,0.18903 -0.36142,1.06043 -0.75518,1.87076 -0.39377,0.81034 -0.88221,1.58646 -1.47277,2.33103 -0.5906,0.74453 -1.28273,1.4653 -1.61046,1.8974 -0.79022,0.71837 -0.25344,0.55212 -0.71594,0.83844 z"
                   id="path9679" /></g><g
                 style="fill:#000000;fill-opacity:1;stroke-linejoin:miter"
                 id="g9685"
                 transform="rotate(90,259.41968,748.93978)"><path
                   d="m 404.3865,529.0377 c 0.5646,1.3051 2.11213,3.6078 2.7225,4.2492 0.6104,0.64144 1.11475,1.1907 1.54884,1.67074 0.43406,0.4801 0.79013,0.89646 1.06439,1.24636 0.27427,0.34983 0.49612,0.659 0.71157,0.94834 0.21546,0.28931 0.44843,0.63172 0.70924,1.04066 0.2608,0.4089 0.54821,0.8832 0.92466,1.3816 0.37645,0.49834 0.79686,1.08885 0.9644,1.3138 0.16755,0.22506 0.46323,0.7122 0.89435,1.4726 0.43109,0.76046 0.99362,1.7833 1.70075,3.05807 0.7071,1.27473 1.5552,2.7251 1.8713,3.93923 0.3161,1.21415 0.3161,1.21415 0.2445,0.3686 0,0 0.27424,-1.7993 -0.2704,-3.40134 -0.54468,-1.60211 -1.01792,-2.88952 -1.4198,-3.90266 -0.40192,-1.0131 -0.7225,-1.7619 -0.97452,-2.27086 -0.25202,-0.50897 -0.39066,-0.70014 -0.7222,-1.28974 -0.33151,-0.58953 -0.63205,-1.1445 -0.97595,-1.596 -0.34391,-0.4515 -0.6608,-0.8466 -0.95261,-1.1871 -0.29182,-0.34037 -0.53485,-0.5972 -0.83075,-0.9181 -0.2959,-0.32095 -0.68243,-0.6915 -1.14175,-1.1068 -0.45935,-0.41526 -0.99512,-0.8759 -1.61482,-1.37693 -0.61965,-0.50107 -1.2638,-0.98107 -2.3714,-1.82547 -1.97298,-1.90354 -1.21685,-0.7549 -2.0823,-1.8142 z"
                   id="path9683" /></g><g
                 style="fill:#000000;fill-opacity:1;stroke-linejoin:miter"
                 id="g9689"
                 transform="rotate(90,259.41968,748.93978)"><path
                   d="m 461.8094,542.9336 c -1.17946,-0.46796 -3.4411,-0.97596 -5.49653,-1.49555 -2.05542,-0.51959 -3.90253,-1.08585 -5.53965,-1.71105 -1.63712,-0.6252 -3.06247,-1.31324 -4.80148,-2.28846 -1.73904,-0.97524 -3.61926,-2.03357 -5.10376,-2.8775 -1.48453,-0.84394 -2.56378,-1.47834 -3.20355,-1.89344 -0.63977,-0.4151 -0.69229,-0.451 -1.13791,-0.8926 -0.44562,-0.4416 -1.06967,-1.0711 -1.58082,-1.69346 -0.51113,-0.62244 -0.91112,-1.23684 -1.2129,-1.83874 -0.30183,-0.60193 -0.50578,-1.1974 -0.571,-1.807 -0.0652,-0.60957 -0.0437,-1.4743 0.0327,-2.2633 0.0763,-0.78896 0.21283,-1.504 0.40888,-2.1481 0.19604,-0.644 0.449,-1.2216 0.71844,-1.72545 0.26944,-0.50385 0.58023,-0.91685 1.17889,-1.52235 0.5987,-0.60546 1.47174,-1.35656 2.60675,-2.2296 1.13502,-0.87305 2.5261,-1.8599 3.67554,-2.7663 1.14944,-0.9064 1.47342,-1.331 1.74731,-1.7709 0.2739,-0.43982 0.49287,-0.90323 0.64365,-1.39914 0.15079,-0.49591 0.21612,-1.02503 0.17716,-1.67508 -0.039,-0.65006 -0.15348,-1.39466 -0.33354,-2.09644 -0.18005,-0.70178 -0.43203,-1.35977 -0.76412,-1.9678 -0.33208,-0.60806 -0.74832,-1.15622 -1.10798,-1.55521 -0.3596,-0.39899 -0.8643,-0.91348 -1.48638,-1.47293 -0.6221,-0.55948 -1.36987,-1.1771 -2.26099,-1.84466 -0.89113,-0.66761 -1.91613,-1.40284 -2.56485,-1.87922 -0.64871,-0.47642 -0.98268,-0.78852 -1.26846,-1.06256 -0.28574,-0.27406 -0.51622,-0.51318 -0.69282,-0.70796 -0.17657,-0.1948 -0.2959,-0.33733 -0.51604,-0.62028 -0.22019,-0.28299 -0.39866,-0.54462 -0.51398,-0.77228 -0.11533,-0.22769 -0.17511,-0.42902 -0.19562,-0.62074 -0.0205,-0.19173 2.8e-4,-0.3944 0.14194,-0.8659 0.14166,-0.4715 0.5163,-1.3488 1.1263,-2.4856 0.61006,-1.13677 1.45243,-2.51125 2.5139,-4.11816 1.06146,-1.6069 2.33798,-3.44396 3.52212,-4.94281 1.18412,-1.49887 2.20673,-2.57455 3.21552,-3.5856 1.00882,-1.01103 1.99686,-1.96731 2.96166,-2.87619 0.96485,-0.90887 1.90076,-1.78404 2.38618,-2.23736 0.48542,-0.45334 0.53305,-0.51715 0.5813,-0.59986 0.0482,-0.0827 0.0985,-0.18506 0.16247,-0.3009 0.064,-0.11584 0.14197,-0.24672 0.20375,-0.35492 0.0617,-0.10818 0.0617,-0.10818 0.0206,-0.0361 0,0 -0.0823,0.14427 -0.15806,0.26849 -0.0757,0.12421 -0.1593,0.21845 -0.23468,0.29108 -0.0754,0.0726 -0.13922,0.1247 -0.18892,0.15503 -0.0498,0.0303 -1.19154,0.57097 -2.3349,1.22314 -1.1434,0.65213 -2.29215,1.4007 -3.44358,2.2425 -1.15142,0.84176 -2.31204,1.7659 -3.51412,2.79797 -1.20213,1.03206 -2.85792,2.94464 -4.24064,4.63586 -1.38272,1.69126 -2.52954,3.20176 -3.4422,4.5389 -0.91266,1.33717 -1.60303,2.50737 -2.06278,3.52385 -0.45971,1.01645 -0.63938,1.63269 -0.69803,2.26875 -0.0587,0.636 0.005,1.27464 0.18103,1.8928 0.1763,0.61814 0.456,1.2038 0.79209,1.71287 0.33606,0.50906 0.45623,0.69235 0.67383,0.97993 0.2176,0.28755 0.47256,0.58516 0.76422,0.90493 0.29162,0.31977 0.62201,0.66517 1.06045,1.08883 0.43845,0.42368 1.55326,1.26901 2.46268,1.98274 0.90939,0.7137 1.67755,1.33818 2.30267,1.86727 0.62513,0.52911 1.09375,0.96551 1.43274,1.33288 0.33896,0.3674 0.61832,0.65958 0.77652,0.89325 0.15822,0.2337 0.30338,0.5329 0.42912,0.90784 0.1257,0.37496 0.22518,0.82906 0.291,1.36368 0.0658,0.5346 0.0666,0.54501 0.0558,0.59411 -0.0108,0.0491 -0.0517,0.16037 -0.14155,0.32944 -0.0899,0.16907 -0.23703,0.38783 -0.30305,0.51423 -0.066,0.12637 -1.58834,1.1581 -2.974,2.1657 -1.3856,1.00763 -2.5413,1.92676 -3.47582,2.771 -0.93454,0.84424 -1.65945,1.6383 -2.14318,2.375 -0.4837,0.7367 -0.89152,1.4952 -1.24116,2.38794 -0.34961,0.8927 -0.60089,1.84066 -0.75756,2.83896 -0.15665,0.99844 -0.2147,2.0456 -0.16932,3.20974 0.0454,1.16406 0.34031,2.24806 0.73944,3.14476 0.39914,0.89675 0.91587,1.7537 1.5512,2.56386 0.6354,0.81014 1.37904,1.57794 2.174,2.26074 0.79495,0.6828 0.8053,0.764 1.43533,1.19294 0.63007,0.42896 1.53991,0.91836 2.83404,1.57232 1.29413,0.65394 2.98767,1.47589 5.09195,2.45314 2.10428,0.9772 3.57761,1.65386 5.27466,2.22826 1.69705,0.57434 3.569,1.03114 5.62092,1.35424 2.0519,0.32307 4.2836,0.5045 5.47982,0.35377 2.41468,-0.0407 1.20892,-0.29147 2.42738,-0.18127 z"
                   id="path9687" /></g><g
                 style="fill:#000000;fill-opacity:1;stroke-linejoin:miter"
                 id="g9693"
                 transform="rotate(90,259.41968,748.93978)"><path
                   d="m 464.13684,529.7263 c -0.31974,-0.5613 -1.04684,-1.52134 -1.69549,-2.4691 -0.64863,-0.9477 -1.20707,-1.901 -1.67555,-2.8658 -0.46844,-0.96476 -0.85174,-1.9433 -1.16058,-2.9705 -0.3088,-1.02716 -0.56342,-2.1136 -0.75092,-3.2722 -0.18752,-1.1586 -0.31545,-2.3889 -0.38067,-3.6929 -0.0652,-1.30407 -0.0649,-2.68273 -0.0428,-3.4516 0.0221,-0.76882 0.0303,-0.88182 0.0425,-1.06646 0.0122,-0.1846 0.0301,-0.43364 0.0518,-0.74389 0.0216,-0.31025 0.0487,-0.68082 0.11183,-1.26953 0.0631,-0.58875 0.14423,-1.40796 0.2327,-2.24738 0.0885,-0.83939 0.18437,-1.699 0.27661,-2.57971 0.0922,-0.88071 0.18796,-1.78186 0.32092,-2.8501 0.13297,-1.06827 0.3158,-2.47503 0.50779,-4.06811 0.19198,-1.59305 0.39325,-3.37278 0.53329,-5.34589 0.14001,-1.97313 0.2886,-4.13313 0.37549,-5.96405 0.0868,-1.8309 0.11607,-3.00328 0.13989,-3.97998 0.0238,-0.9767 0.0424,-1.75678 0.061,-2.33637 0.0186,-0.57955 0.0363,-0.94943 0.10864,-2.10571 0.0723,-1.15628 0.17785,-2.97876 0.2645,-4.46997 0.0866,-1.49125 0.15612,-2.65018 0.21038,-3.47342 0.0543,-0.82323 0.0915,-1.29935 0.26139,-2.69815 0.16983,-1.3988 0.48565,-3.66873 0.80987,-5.53976 0.32419,-1.87104 0.65622,-3.34796 1.00366,-4.44352 0.34748,-1.09558 0.74863,-1.81835 1.13593,-2.1165 0.3873,-0.2982 0.3873,-0.2982 0.12219,-0.10643 0,0 -0.55099,0.36253 -1.19928,1.09195 -0.64824,0.7294 -1.30904,1.89108 -1.9436,3.47534 -0.63452,1.58429 -1.24652,3.58084 -1.83347,5.9798 -0.58694,2.39894 -0.65397,2.71094 -0.75793,3.33756 -0.10398,0.62661 -0.25202,1.56898 -0.43219,2.83748 -0.18018,1.26854 -0.40255,2.86378 -0.65268,4.78602 -0.25015,1.92228 -0.28861,2.19228 -0.34087,2.67615 -0.0523,0.48386 -0.11564,1.14978 -0.18703,2.00586 -0.0714,0.85607 -0.1553,1.90402 -0.24475,3.12091 -0.0895,1.21686 -0.33902,3.46124 -0.56932,5.54309 -0.23036,2.08182 -0.45103,3.9747 -0.5901,5.68542 -0.13907,1.71075 -0.26306,3.23298 -0.38123,4.57985 -0.11813,1.34685 -0.17324,2.30095 -0.22293,3.20202 -0.0497,0.90106 -0.0976,1.78146 -0.13812,2.64172 -0.0405,0.86029 -0.0805,1.69983 -0.11618,2.52516 -0.0356,0.8253 -0.0421,1.2676 -0.0511,1.62712 -0.009,0.35956 -0.0119,0.66205 -0.0127,0.90888 -8.6e-4,0.24682 0.001,0.44165 0.007,0.58206 0.006,0.14041 0.0696,1.63809 0.20536,3.08384 0.13577,1.4457 0.34227,2.8152 0.62271,4.1066 0.28046,1.2915 0.63196,2.50435 1.05016,3.6344 0.41825,1.13014 0.90174,2.18227 1.4877,3.19423 0.58598,1.0119 1.2723,1.96851 2.06693,2.85937 0.79462,0.89094 1.69492,1.71204 2.25501,2.0204 1.01946,0.7262 0.65516,0.2039 1.1145,0.6218 z"
                   id="path9691" /></g></g></g></g></g></g></g></svg>
