<?xml version="1.0" encoding="UTF-8" standalone="no"?>
<!-- Created with Inkscape (http://www.inkscape.org/) -->

<svg
   width="56.410034em"
   height="8.5179367em"
   viewBox="0 0 56.410034 8.5179367"
   version="1.1"
   id="svg5"
   xmlns="http://www.w3.org/2000/svg"
   xmlns:svg="http://www.w3.org/2000/svg">
  <defs
     id="defs2" />
  <path
     d="m 2.01409,0.691441 q 0.0494,-0.0099 0.0593,-0.0099 0.0198,-0.0099 0.079,-0.0099 0.0593,0 0.079,-0.01976 0.0296,-0.01976 0.23707,-0.0099 0.20743,0.0099 0.45438,0.118534 0.24694,0.09878 0.28645,0.108655 0.0395,0 0.16793,-0.07902 0.25682,-0.138289 0.40499,-0.05927 0.41486,0.207434 0.43462,0.661812 v 0.474133 q -0.0198,-0.01976 -0.0296,0.01976 -0.01,0.03951 0,0.118533 0.01,0.07902 0.0197,0.07902 0.0198,0.0889 0.01,0.246945 0,0.148167 0,0.2667 0.0197,0.493889 -0.39511,0.7112 -0.16793,0.0889 -0.0494,0.237067 0.0395,0.05927 0.16792,0.148166 0.30621,0.246945 0.37536,0.385234 0.01,0.02963 0.01,0.02963 0.01,0 0.0889,0.118534 Q 4.5035,4.336269 4.5924,4.612847 4.7702,5.254903 4.47387,5.896958 4.19729,6.46987 3.62438,6.805714 3.17988,7.062536 2.66624,7.09217 q -0.15805,0.01975 -0.15805,0 0,-0.01976 -0.0494,-0.02963 -0.0395,-0.0099 -0.0494,-0.01976 0,-0.0099 -0.0889,-0.02963 -0.079,-0.0099 -0.11853,-0.0099 -0.0395,0 -0.079,-0.0099 -0.0395,-0.0099 -0.13829,-0.0099 -0.0988,0 -0.10866,0.0099 Q 1.83651,7.03286 1.51054,6.864939 1.18457,6.706894 1.1253,6.697017 q -0.0494,0 -0.1778,0.138288 -0.37535,0.37535 -0.73095,0 Q 0.06838,6.677261 0.03875,6.568605 0.01895,6.45995 0.00915,6.252516 -0.02045,4.909138 0.04865,4.721461 0.1573,4.415249 0.424,4.316472 q 0.27658,-0.09878 0.5334,0.158044 0.12841,0.128411 0.1778,0.246945 0.0593,0.118533 0.16792,0.345722 0,0.09878 0.0395,0.167922 0.0494,0.06915 0.0691,0.128411 0.0296,0.05927 0.0593,0.108656 0.0395,0.03951 0.0593,0.06914 0.0198,0.01976 0.0296,0.02963 0.0197,0.0099 0.0395,0.02963 0.0198,0.0099 0.0296,0.0099 0.0198,0 0.0494,0.02963 0.0296,0.01976 0.0593,0.0099 0.0395,-0.0099 0.0593,0.0099 0.0198,0.0099 0.079,0.04939 0.0593,0.03951 0.14817,0.108655 0.0889,0.05927 0.25682,0.108656 Q 2.686,6.045136 3.07124,5.729047 3.6639,5.264791 3.42684,4.919069 3.36754,4.830169 3.28855,4.751147 3.21935,4.672127 3.17001,4.60298 3.13051,4.52396 3.09101,4.5042 3.05151,4.47457 3.02191,4.44493 2.99231,4.4153 2.95271,4.40542 2.91321,4.39552 2.83418,4.36591 2.76498,4.3264 2.69589,4.3264 h -0.01 l 0.01,0.01976 v 0.0099 Q 2.68589,4.34616 2.62679,4.3363 2.57739,4.31654 2.47862,4.28691 2.38972,4.2474 2.26131,4.19801 2.14277,4.14862 2.06375,4.11899 1.98475,4.08936 1.87607,4.04985 1.77727,4.01034 1.69827,3.98071 1.61927,3.9412 1.53035,3.91157 1.44145,3.88194 1.41182,3.8523 1.39202,3.81279 1.34272,3.79303 1.29332,3.7634 1.25382,3.73376 1.22422,3.70413 1.21432,3.70413 q -0.01,0 -0.0296,-0.01976 -0.01,-0.01976 -0.0691,-0.01976 -0.0593,-0.0099 -0.10866,-0.01976 -0.0395,-0.01976 -0.0395,0 0,0.01976 -0.19756,-0.118534 Q 0.46369,3.318883 0.27601,2.923772 0.06858,2.489149 0.15748,1.985383 q 0.01,-0.04939 0.01,-0.04939 0,-0.0099 0.01,-0.0099 0.01,0 0.0197,-0.01976 0.0198,-0.01975 0.0198,-0.02963 0.01,-0.01976 0.0197,-0.02963 0.0198,-0.0099 0.0593,-0.128412 0.0395,-0.128411 0.0691,-0.158044 0.0395,-0.02963 0.0593,-0.06914 0.0296,-0.03951 0.0494,-0.05927 0.0296,-0.02963 0.0198,-0.02963 0,-0.0099 0.01,-0.02963 0.0198,-0.01975 0.01,-0.01975 0,0 0.01,-0.01976 0.0197,-0.01976 0.0296,-0.03951 v -0.0099 q -0.0198,0 0.01,-0.02963 0.0593,-0.05927 0.0198,-0.05927 h -0.01 q 0.31609,-0.335844 0.63218,-0.404989 -0.01,0.02963 0.0395,0.01976 0.0494,-0.0099 0.0494,0 0,0 0.0395,0 0.0494,-0.0099 0.079,-0.0099 0.0691,0 0.14817,-0.0099 0.0889,-0.0099 0.12841,-0.0099 0.0494,0 0.10865,-0.02963 0.0692,-0.02963 0.11854,-0.03951 0.0494,-0.0099 0.0494,-0.0099 0.01,-0.0099 0.0494,-0.0099 z M 2.75493,2.084208 Q 2.4092,1.728608 2.1425,1.768119 q -0.01,0 -0.16792,0.0099 -0.15804,0 -0.33584,0.108656 -0.16792,0.108655 -0.25682,0.2667 -0.0889,0.148166 0.0889,0.3556 0.18767,0.197555 0.34572,0.2667 0.15804,0.06914 0.15804,0.07902 0.01,0 0.0198,0 0.01,0 0.13829,0.04939 0.13829,0.04939 0.18767,0.06915 0.0494,0.01975 0.19756,0.07902 0.14817,0.05927 0.19756,0.07902 0.0593,0.01976 0.34572,0.128411 0.29633,0.108656 0.30621,0.07902 0.01,-0.03951 -0.0692,-0.128411 -0.0691,-0.0889 -0.10865,-0.158044 -0.0395,-0.07902 -0.0395,-0.09878 0.01,-0.02963 -0.01,-0.108656 -0.0198,-0.07902 -0.01,-0.0889 0.01,-0.01976 -0.01,-0.04939 -0.0197,-0.02963 -0.0197,-0.03951 0,-0.01976 -0.0198,-0.02963 -0.01,-0.01976 -0.0197,-0.01976 -0.01,0 -0.0198,-0.04939 -0.01,-0.04939 -0.079,-0.197556 Q 2.89294,2.222512 2.75461,2.084223 Z"
     style="font-size:9.87778px;line-height:1.25;font-family:'TT2020 Style B';-inkscape-font-specification:'TT2020 Style B';letter-spacing:-0.354542px;word-spacing:-4.00579px;stroke-width:0.1"
     id="path546" />
  <path
     d="m 5.92674,3.388075 -0.0889,0.108656 q -0.0296,0 -0.079,-0.06915 Q 5.70944,3.348561 5.68974,3.328801 5.66994,3.309041 5.53169,3.259651 5.40328,3.200381 5.25511,3.062096 5.01805,2.825029 5.13658,2.568207 5.26499,2.311384 5.5712,2.182973 5.68974,2.133583 5.72925,2.06444 5.76875,1.9953 5.8379,1.945906 5.9169,1.896516 5.9268,1.847126 5.9466,1.787856 5.9466,1.56067 5.9466,1.323603 5.996,1.165559 6.0553,0.997637 6.20343,0.898859 6.4405,0.740814 6.56891,0.780325 q 0.25682,0.05927 0.42474,0.325967 0.0889,0.138289 0.0889,0.385234 0,0.246944 0.01,0.306211 0.01,0.05927 -0.01,0.0889 -0.0198,0.02963 -0.0198,0.06914 0,0.02963 -0.0198,0.04939 -0.01,0.0099 -0.0197,0.118533 -0.0198,0.148167 0.0296,0.148167 l 0.079,0.02963 q 0.0692,0.03951 0.079,0.01976 0.01,-0.01976 0.0198,-0.01976 0.0198,0 0.0296,0 0.0198,-0.0099 0.0593,-0.01975 0.0494,-0.0099 0.0889,-0.01976 0.0494,-0.0099 0.079,-0.0099 0.0296,-0.0099 0.0692,-0.0099 0.0494,-0.0099 0.11853,-0.0099 0.0691,-0.0099 0.11853,-0.02963 h 0.21731 q 0.33585,0 0.4445,0.05927 0.1778,0.0889 0.25683,0.227189 0.0889,0.138289 0.0889,0.256823 0,0.118533 -0.0593,0.207433 -0.0593,0.07902 -0.079,0.118533 -0.0593,0.118534 -0.23707,0.1778 -0.16792,0.04939 -0.57291,0.04939 -0.40499,0 -0.46426,0.01976 -0.0494,0.01976 -0.0988,0.0889 -0.0494,0.05927 -0.11854,0.108655 -0.0691,0.04939 -0.079,0.1778 -0.01,0.118534 -0.01,0.829734 0,0.701322 0.01,0.8001 0.0198,0.197556 0.0691,0.256822 0.0494,0.04939 0.0494,0.04939 0,0 -0.0198,0.0099 -0.0691,0.01976 -0.0198,0.0889 v 0.0099 q -0.0197,0 -0.01,0.03951 0.0198,0.02963 0.0198,0.04939 0.01,0.01976 0.0395,0.07902 0.0395,0.04939 0.0593,0.06915 0.0296,0.0099 0.0889,0.0099 0.0593,-0.0099 0.11853,-0.0099 0.0692,-0.0099 0.11854,-0.02963 0.0593,-0.01976 0.0889,-0.02963 0.0395,-0.0099 0.0593,-0.01976 0.0198,-0.0099 0.0296,-0.01975 0.0198,-0.01976 0.0198,-0.01976 0,0 0.01,-0.0099 0.01,-0.01976 0.01,-0.02963 0,-0.0099 0.0198,-0.01976 0.0198,-0.01976 0.0198,-0.02963 0,-0.01975 -0.01,-0.01975 -0.01,0 0.01,-0.01976 0.0197,-0.02963 0.0197,-0.04939 0,-0.01976 -0.0197,-0.01976 -0.0198,-0.0099 -0.0198,-0.0099 0,0 0.0889,-0.09878 0.13829,-0.138289 0.2667,-0.464256 0.1778,-0.4445 0.49389,-0.523522 0.22719,-0.04939 0.38523,0.108656 0.25683,0.237066 0.25683,0.484011 0,0.108655 -0.0395,0.246944 -0.0296,0.138289 -0.0593,0.167923 -0.0198,0.01976 -0.0494,0.05927 -0.0198,0.03951 -0.0296,0.05927 -0.01,0.01976 -0.0395,0.06914 -0.0296,0.03951 -0.079,0.09878 -0.0494,0.04939 -0.0691,0.148167 -0.0198,0.0889 -0.0395,0.138289 -0.0198,0.04939 -0.0198,0.07902 0.01,0.01976 -0.0988,0.167922 Q 8.70264,6.539017 8.49521,6.687184 7.83339,7.161315 7.12219,6.993395 6.97403,6.963765 6.90488,6.924255 q -0.01,-0.0099 0,-0.01976 0.01,-0.01976 -0.0198,-0.03951 -0.0494,-0.0099 -0.0395,-0.01976 l -0.0889,-0.04939 q -0.01,0.0099 -0.0198,0 -0.0296,-0.02963 -0.0691,-0.01976 -0.0296,0.0099 -0.13829,-0.07902 Q 6.22328,6.440232 6.1245,6.173532 6.1145,6.143902 6.0356,5.966099 5.9566,5.778421 5.9566,5.511721 5.9171,4.286876 5.9466,4.276998 q 0.0296,-0.0099 0.0296,-0.04939 0.01,-0.04939 0.0198,-0.05927 0.01,-0.0099 0.01,-0.03951 0,-0.02963 0,-0.02963 0.01,0 0.01,-0.01976 0.01,-0.02963 0.01,-0.02963 0.01,-0.0099 0.01,-0.03951 0.01,-0.02963 0.0198,-0.04939 0.01,-0.02963 0.01,-0.03951 l 0.0198,-0.07902 q 0,-0.07902 -0.0296,-0.128411 -0.0198,-0.04939 -0.0198,-0.05927 0,-0.01975 -0.01,-0.03951 L 6.0064,3.546047 q -0.01,0 -0.01,-0.01976 0,-0.02963 -0.01,-0.05927 l -0.0198,-0.0099 -0.01,-0.01976 q 0,-0.04939 -0.0296,-0.04939 z m 1.22485,-0.05927 q 0.079,0.01976 0.079,-0.02963 0,-0.01976 -0.0593,0 -0.0494,0.01976 -0.0197,0.02963 z"
     style="font-size:9.87778px;line-height:1.25;font-family:'TT2020 Style B';-inkscape-font-specification:'TT2020 Style B';letter-spacing:-0.354542px;word-spacing:-4.00579px;stroke-width:0.1"
     id="path548" />
  <path
     d="m 11.22228,2.252131 q 0.34572,-0.158045 0.55316,-0.1778 0.21731,-0.01976 0.24694,-0.01976 0.15805,-0.01976 0.29633,-0.0099 0.14817,0.0099 0.27658,0.01976 0.42475,0.03951 0.82974,0.256822 0.68156,0.365478 0.96802,0.9779 0.18768,0.404989 0.16792,0.493889 -0.01,0.07902 -0.01,0.118534 0.01,0.03951 0.01,0.138289 0,0.0889 0.01,0.118533 0.0198,0.01976 0.0198,0.03951 0.01,0.0099 0.0198,0.03951 0.01,0.01976 0.0198,0.0099 0.01,-0.0099 0.01,0 0.0494,0.2667 -0.01,0.651933 -0.0494,0.385234 -0.0988,0.503767 -0.0494,0.118534 -0.10866,0.256822 -0.0494,0.138289 -0.16792,0.325967 -0.38523,0.602545 -0.99766,0.859367 -0.31609,0.138289 -0.33584,0.09878 0,-0.0099 -0.079,-0.0099 -0.0691,0 -0.16793,0.01976 -0.28645,0.05927 -0.47413,0.01975 -0.18768,-0.03951 -0.37535,-0.03951 -0.18768,0 -0.25683,-0.01976 -0.0691,-0.0099 -0.10865,-0.0099 -0.0395,0.0099 -0.19756,-0.04939 Q 10.68913,6.637815 10.32365,6.074781 10.08659,5.729059 10.00756,5.373459 9.98786,5.324069 9.93846,5.136392 9.88906,4.938837 9.88906,4.622748 v -0.06914 q 0.0395,-0.01976 0.0395,-0.108655 0,-0.09878 -0.01,-0.118534 -0.01,-0.01976 -0.0198,-0.02963 -0.0198,-0.02963 0.01,-0.1778 0.0296,-0.158044 0.0395,-0.217311 0.079,-0.424745 0.27658,-0.770467 0.30621,-0.543278 0.85936,-0.819856 0.0593,-0.02963 0.0691,-0.02963 0.0494,0.02963 0.0593,-0.01976 -0.0198,0 0.01,-0.0099 z m 0.76059,0.908755 q -0.079,-0.02963 -0.1778,0.03951 -0.0988,0.05927 -0.14817,0.0889 -0.0494,0.01976 -0.0988,0.05927 -0.0494,0.03951 -0.13829,0.09878 -0.1778,0.118533 -0.11854,0.197556 0.01,0.0099 -0.0691,0.128411 -0.16792,0.237066 -0.19756,0.642055 -0.01,0.118534 -0.01,0.128412 0,0 0.01,0.118533 0.0296,0.464256 0.29634,0.770467 0.0296,0.02963 0.0494,0.05927 0.0198,0.01976 0.079,0.07902 -0.0494,-0.0099 -0.0593,-0.0099 -0.0395,0.01976 0.0395,0.0889 0.079,0.06914 0.10866,0.06914 0.0296,0 -0.01,-0.03951 -0.0395,-0.04939 -0.0395,-0.05927 0,-0.0099 0.079,0.05927 0.29633,0.276578 0.74083,0.237067 0.2667,-0.01976 0.40499,-0.108656 0.14817,-0.09878 0.1778,-0.07902 0.0296,0.01976 0.0593,0 0.0395,-0.02963 0.0494,-0.01976 0.0198,0.0099 0.0494,-0.0099 0.0296,-0.02963 0.0395,-0.01976 0.01,0 0.0494,-0.03951 0.0395,-0.03951 0.0395,-0.04939 0,-0.01976 0.0889,-0.128411 0.0988,-0.108656 0.14817,-0.227189 0.0494,-0.128411 0.0593,-0.138289 0.0198,-0.0099 0.0296,-0.03951 0.01,-0.02963 0.01,-0.03951 0.01,-0.0099 0.0198,-0.02963 0.01,-0.01976 0.0198,-0.05927 0.0198,-0.03951 0.0395,-0.148167 0.0198,-0.118533 0.0296,-0.158044 0.01,-0.03951 0.01,-0.0889 0,-0.04939 -0.0198,-0.108656 -0.0198,-0.06914 -0.0395,-0.118533 -0.01,-0.05927 -0.0198,-0.06914 -0.01,-0.0099 -0.0198,-0.04939 0,-0.04939 -0.0198,-0.06914 Q 13.504,4.089362 13.4645,3.970825 13.425,3.852292 13.3657,3.763392 q -0.0593,-0.0889 -0.0691,-0.118533 -0.01,-0.02963 -0.0395,-0.06914 -0.0197,-0.03951 -0.0296,-0.01976 -0.01,0.0099 -0.0197,0 -0.0494,-0.05927 -0.0988,-0.0099 -0.01,0 -0.10866,-0.07902 -0.32597,-0.266701 -0.77047,-0.276578 -0.15804,0 -0.16792,0 0,-0.0099 -0.079,-0.02963 z"
     style="font-size:9.87778px;line-height:1.25;font-family:'TT2020 Style B';-inkscape-font-specification:'TT2020 Style B';letter-spacing:-0.354542px;word-spacing:-4.00579px;stroke-width:0.1"
     id="path550" />
  <path
     d="m 16.36965,2.153353 h 0.13829 0.0395 q -0.10865,0.0099 -0.1778,0 z m 0.52352,0.671689 0.0198,0.01975 q 0.01,0 0.01,0 0,0 0.0197,0.0099 0.0889,0.0099 0.0988,0 0.01,-0.01975 0.0296,-0.02963 0.0198,-0.0099 0.0395,-0.02963 0.0296,-0.02963 0.0593,-0.05927 0.0395,-0.02963 0.0593,-0.04939 0.0198,-0.02963 0.0198,-0.02963 0.01,0 0.079,-0.06915 0.079,-0.07902 0.0988,-0.0889 0.0296,-0.01976 0.0395,-0.02963 0.01,-0.01976 0.0395,-0.02963 0.0296,-0.01975 0.0395,-0.02963 0.0197,-0.01976 0.0988,-0.05927 0.079,-0.03951 0.11853,-0.06914 0.0395,-0.03951 0.20743,-0.0889 0.1778,-0.04939 0.22719,-0.07902 l -0.0593,-0.0099 q 0.20743,-0.04939 0.37535,-0.04939 l -0.01,0.0099 -0.0197,0.0099 q 0.0296,0.01976 0.079,0.01976 l 0.23707,0.06915 0.11853,0.05927 q 0.01,0 0.0691,0.03951 0.0692,0.02963 0.15805,0.03951 0.11853,0.01976 0.16792,0.03951 0.0494,0.01976 0.0494,0.01976 0,0 0.0395,0.0099 0.0494,0.0099 0.0494,0.0099 0.01,0 0.0691,0.05927 0.32597,0.296334 0.39512,0.740834 0.01,0.108655 -0.0198,0.108655 -0.0198,0 -0.0296,0.158045 l 0.01,0.0889 -0.01,0.09878 0.0197,-0.03951 0.0198,-0.02963 q 0.01,0.0099 -0.0296,0.128411 -0.0296,0.118534 -0.0395,0.118534 0,0 0,-0.01976 0,0 0,-0.02963 0,0 -0.0395,0.06914 -0.0296,0.06914 -0.10865,0.148167 -0.079,0.07902 -0.12841,0.128411 -0.0494,0.04939 -0.0593,0.04939 -0.01,0 -0.079,0.06914 -0.0692,0.05927 -0.0889,0.07902 -0.0198,0.0099 -0.0296,0.01976 -0.01,0.0099 -0.0593,0.02963 -0.0494,0.01976 -0.0889,0.03951 0.18767,0 0.0395,0.01976 -0.14817,0.0099 -0.18768,0.0099 l -0.0494,-0.0099 q 0.0198,0 0.0198,-0.0099 -0.11854,-0.03951 -0.12841,-0.03951 0,0 -0.079,-0.03951 l -0.01,-0.0099 -0.0988,-0.04939 q -0.0395,-0.0099 -0.079,-0.02963 -0.0395,-0.02963 -0.0593,-0.02963 -0.01,0 -0.079,-0.06914 -0.0593,-0.07902 -0.0889,-0.118534 -0.0198,-0.04939 -0.0395,-0.05927 -0.01,-0.01976 -0.0296,-0.02963 -0.01,-0.0099 -0.01,-0.0099 -0.0296,0.01976 -0.0691,-0.167922 -0.0296,-0.187678 -0.0593,-0.207433 -0.0198,-0.02963 -0.10865,-0.04939 -0.13829,-0.01976 -0.27658,0.0889 -0.13829,0.09878 -0.22719,0.167922 -0.0889,0.05927 -0.19755,0.187678 -0.15805,0.207433 -0.1778,0.325967 -0.01,0.108655 -0.01,0.642055 0,0.523523 0.01,0.592667 0.0197,0.06915 0.0691,0.09878 0.0494,0.02963 0.0494,0.03951 0,0 -0.0494,0.0099 -0.0988,0.02963 -0.0889,0.09878 0,0.0099 -0.01,0.0099 -0.01,0 -0.0197,0.04939 0,0.04939 0.0197,0.06915 0.0198,0.0099 0.079,0.01975 0.0593,0.0099 0.0691,0.01976 0.0198,0 0.0593,0.0099 0.0395,0 0.0691,0.0099 0.0296,0.0099 0.14817,0 0.11853,-0.0099 0.16792,0.0099 0.0593,0.01976 0.0593,0.01976 0.01,-0.0099 0.0691,0.02963 0.0691,0.02963 0.0988,0.05927 0.0395,0.02963 0.0691,0.03951 0.0296,0 0.0889,0.128411 0.15805,0.345722 -0.27658,0.632178 -0.20743,0.148167 -0.79022,0.108656 l -0.079,-0.01976 q 0.01,-0.0099 -0.01,-0.01976 -0.01,0 -0.0395,-0.0099 -0.0198,0 -0.0494,-0.0099 -0.0198,0 -0.0593,0 -0.0395,0.0099 -0.079,0.0099 -0.0395,0.0099 -0.079,0.01976 -0.0296,0.01976 -0.0593,0.01976 -0.0197,0.0099 -0.37535,0.0099 -0.34572,0 -0.38524,-0.0099 -0.0296,0 -0.0593,-0.01976 -0.0198,-0.0099 -0.0692,-0.01976 -0.0494,-0.0099 -0.0691,-0.01976 -0.0198,-0.0099 -0.079,-0.02963 -0.0494,-0.01976 -0.079,-0.04939 -0.0296,-0.01976 -0.12841,-0.0889 -0.0988,-0.05927 -0.12841,-0.09878 -0.0296,-0.03951 -0.0593,-0.03951 -0.0198,0 -0.0296,-0.07902 -0.0691,-0.286456 0.1778,-0.503767 0.12841,-0.108656 0.28646,-0.158045 0.15804,-0.05927 0.20743,-0.128411 0.0494,-0.06914 0.11853,-0.108655 0.0692,-0.04939 0.079,-0.108656 0.01,-0.06914 0.01,-0.553155 0.01,-0.523523 0.01,-0.651934 0.0395,-0.01976 0.0395,-0.05927 0,-0.04939 0.01,-0.05927 0.01,-0.01976 0.01,-0.03951 0,-0.02963 0,-0.02963 0.01,-0.0099 0.01,-0.03951 0.01,-0.02963 0.0198,-0.04939 0.01,-0.02963 0.01,-0.04939 0.01,-0.01976 0.01,-0.02963 0.01,-0.0099 0.0198,-0.03951 0.01,-0.03951 0,-0.07902 -0.01,-0.03951 -0.0198,-0.07902 -0.0296,-0.07902 -0.0494,-0.138289 -0.01,-0.06914 -0.0198,-0.0889 l -0.01,-0.0099 -0.01,-0.01976 q -0.01,-0.04939 -0.0296,-0.04939 -0.0197,0 -0.0691,0.06914 -0.0889,-0.04939 -0.13829,-0.118534 -0.0494,-0.07902 -0.18768,-0.108655 -0.36547,-0.06914 -0.52352,-0.316089 -0.20743,-0.306211 0.079,-0.602545 0.14817,-0.148167 0.2667,-0.1778 0.12841,-0.02963 0.37536,-0.02963 0.25682,-0.0099 0.32597,0 0.0691,0 0.079,0 0,0.03951 0.15804,0.03951 0.16792,-0.0099 0.22719,0.0099 0.0692,0.0099 0.0692,0.01976 0,0 0.0593,0.02963 0.10866,0.05927 0.14817,0.1778 0.0395,0.118533 0,0.217311 v 0.01976 q -0.0395,0.02963 -0.0296,0.03951 0.01,0.0099 -0.01,0.02963 -0.0198,0.0099 -0.0198,0.03951 0,0.01976 0.0198,0.01976 0.0296,-0.0099 0.0296,0.0099 0,0.01976 0.0296,0.01976 z"
     style="font-size:9.87778px;line-height:1.25;font-family:'TT2020 Style B';-inkscape-font-specification:'TT2020 Style B';letter-spacing:-0.354542px;word-spacing:-4.00579px;stroke-width:0.1"
     id="path552" />
  <path
     d="m 24.8162,2.429931 0.01,0.0099 q -0.01,0 -0.01,-0.0099 z m -3.93135,1.698978 q -0.0395,-0.118534 -0.0593,-0.138289 -0.01,-0.02963 0.01,-0.02963 0.0296,0 0.01,-0.04939 -0.01,-0.04939 -0.01,-0.04939 0.0198,0 -0.01,-0.05927 v -0.0099 q 0.01,-0.0099 -0.0296,-0.108655 -0.0296,-0.108656 -0.0494,-0.167923 -0.01,-0.05927 -0.0593,-0.128411 -0.0395,-0.06914 -0.0691,-0.108655 -0.0296,-0.04939 -0.18768,-0.0889 -0.14817,-0.04939 -0.21731,-0.09878 -0.0692,-0.04939 -0.13829,-0.07902 -0.0593,-0.03951 -0.0988,-0.07902 -0.0296,-0.03951 -0.0494,-0.05927 -0.0197,-0.01976 -0.0494,-0.06914 -0.0198,-0.05927 -0.0296,-0.05927 0,-0.0099 -0.01,-0.04939 -0.01,-0.03951 -0.01,-0.07902 0,-0.03951 -0.01,-0.03951 0,0 0.01,-0.03951 0.0198,-0.03951 0.0198,-0.04939 0,-0.0099 -0.01,0 -0.01,0 0,-0.02963 0.0198,-0.03951 0.12841,-0.148167 0.16793,-0.158044 0.48401,-0.167922 0.079,0 0.56304,0 h 0.49389 q 0.0296,0.02963 0.0988,0.03951 0.0691,0.0099 0.0889,0.02963 0.0395,0.03951 0.0988,0.03951 0.0691,0 0.10866,0.01976 0.0395,0.0099 0.0395,0.0099 0.01,-0.0099 0.0296,0 0.13829,0.0889 0.22719,0.256822 0.0889,0.158045 0.0593,0.207434 -0.0296,0.06914 -0.0395,0.05927 -0.0198,0 -0.0395,0.03951 -0.0198,0.02963 -0.0296,0.03951 0,0 -0.0296,0.04939 -0.0296,0.04939 -0.0593,0.09878 -0.0197,0.03951 -0.0197,0.04939 0,0 -0.0593,0.06914 -0.0593,0.05927 -0.0988,0.118533 0.01,0.237067 0.0593,0.385233 0.0593,0.138289 0.0691,0.1778 0.0198,0.02963 0.0296,0.04939 0.01,0.01976 0.079,0.197556 0.079,0.1778 0.13829,0.325967 0.0691,0.148166 0.12841,0.1778 0.12841,0.05927 0.1778,0 0.0593,-0.06914 0.0988,-0.187678 0.0395,-0.128411 0.0593,-0.1778 0.24695,-0.632178 0.20744,-0.8001 -0.01,-0.04939 -0.0198,-0.09878 0,-0.04939 -0.0593,-0.118534 0.0494,0.02963 0.0889,0.05927 0.0395,0.02963 0.0593,0.02963 0.01,-0.0099 -0.0296,-0.03951 -0.10866,-0.05927 -0.16792,-0.118533 -0.0593,-0.05927 -0.0593,-0.06914 0,-0.0099 -0.0296,-0.03951 -0.0296,-0.02963 -0.0395,-0.02963 -0.01,0 -0.0395,-0.02963 -0.0296,-0.03951 -0.0593,-0.04939 -0.0296,-0.01976 -0.0593,-0.118534 -0.0494,-0.148166 0.079,-0.325966 0.13829,-0.1778 0.23707,-0.227189 0.0988,-0.04939 0.16792,-0.06915 0.12841,-0.03951 0.14817,-0.01975 0,0.01975 0.0494,0.02963 0.0494,0 0.0494,0.0099 0,0.02963 0.12841,0.0099 0.12841,-0.01976 0.20743,-0.01976 0.0889,0 0.11853,0.0099 0.0296,0.0099 0.16793,0.01976 0.13829,0 0.16792,0.0099 0.0395,0.0099 0.14817,0.01976 l 0.29633,0.06914 q 0,0 0.0197,0 0.0198,0 0.0198,0 0,-0.0099 0.0494,0 0.0593,0 0.0691,0.0099 0.0198,0 0.0395,0.01976 0.0296,0.0099 0.0494,0.0099 0.0198,0 0.0988,0.118534 0.0889,0.108655 0.0494,0.217311 -0.0395,0.09878 -0.10866,0.148167 -0.0593,0.03951 -0.0889,0.108655 -0.079,0.167922 -0.32596,0.256822 -0.15805,0.05927 -0.15805,0.167923 0,0.01975 0,0.01975 0.01,0 0,0.01976 0,0.01976 0,0.03951 0,0.03951 0.0395,0.05927 -0.079,0.05927 -0.12841,0.227189 -0.0494,0.158044 -0.0889,0.2667 -0.0395,0.108655 -0.11853,0.335844 -0.0691,0.227189 -0.0889,0.2667 -0.01,0.03951 -0.0198,0.07902 -0.01,0.02963 -0.0691,0.187678 -0.0494,0.158045 -0.0691,0.227189 -0.0198,0.05927 -0.0494,0.128411 -0.0198,0.05927 -0.0692,0.187678 -0.0395,0.118534 -0.0494,0.138289 -0.01,0.01976 -0.0296,0.03951 -0.0494,0.04939 -0.0691,0.138289 -0.0198,0.0889 0,0.0889 0,0 0,0.01976 0,0.0099 -0.01,0.05927 -0.01,0.03951 -0.0692,0.197556 -0.0494,0.158044 -0.079,0.227189 -0.0197,0.06914 -0.0395,0.128411 -0.0198,0.04939 -0.079,0.207433 -0.0494,0.167923 -0.0692,0.187678 -0.01,0.02963 -0.0197,0.03951 0,0.01976 -0.01,0.0099 0,-0.0099 -0.0296,0.02963 -0.0296,0.03951 -0.0395,0.0889 -0.01,0.05927 -0.0198,0.07902 -0.01,0.02963 0,0.05926 0.0198,0.0296 -0.0395,0.14817 -0.0494,0.11853 -0.0889,0.20743 -0.0395,0.0889 -0.16792,0.27658 -0.11854,0.18768 -0.22719,0.27658 -0.0988,0.0889 -0.12841,0.11853 -0.3556,0.31609 -0.89888,0.33585 -0.36548,0.0198 -0.56304,-0.079 -0.19755,-0.0988 -0.27657,-0.14817 -0.0692,-0.0494 -0.11854,-0.0889 -0.0494,-0.0395 -0.079,-0.0691 -0.0296,-0.0296 -0.0296,-0.0395 0.01,0 0,-0.0197 0,-0.0198 -0.0198,-0.0395 -0.01,-0.01 -0.01,-0.0198 0,-0.01 -0.0296,-0.0395 -0.0296,-0.0296 -0.0395,-0.0296 -0.01,0 -0.0395,-0.0395 -0.0198,-0.0296 -0.0296,-0.0198 -0.0395,0.0296 -0.15805,-0.21731 -0.12841,-0.2667 -0.13829,-0.49389 0,-0.227192 0.01,-0.23707 0.01,0 0.01,0 0.01,0.0099 0.0198,-0.0099 0.0198,-0.01976 0.0198,-0.04939 0.01,-0.01976 0.01,-0.01976 0.01,0.0099 0.0197,-0.02963 0.01,-0.03951 0,-0.04939 0,0 0.01,-0.04939 0.0198,-0.04939 0,-0.05927 -0.01,0 0.0296,-0.07902 0.0395,-0.07902 0.20744,-0.246945 0.23706,-0.237066 0.57291,-0.237066 0.40499,0 0.68156,0.375355 0.079,0.108656 0.11854,0.227189 0.0494,0.118534 0.0988,0.0889 0.0494,-0.01976 0.0988,-0.02963 0.20744,-0.04939 0.0692,-0.395111 -0.0395,-0.07902 -0.0593,-0.118534 -0.01,-0.03951 -0.0395,-0.09878 -0.0198,-0.05927 -0.0395,-0.108656 -0.0198,-0.05927 -0.0691,-0.158044 -0.0395,-0.108656 -0.0889,-0.227189 -0.0395,-0.118534 -0.0494,-0.118534 0,-0.0099 0.0197,-0.0099 0.0296,0 0.01,-0.03951 -0.0198,-0.04939 -0.01,-0.04939 0.01,0 0,-0.01976 0,-0.01976 -0.01,-0.02963 0,-0.0099 0,-0.03951 0,-0.03951 -0.0198,-0.05927 -0.0198,-0.01976 -0.0198,-0.02963 0,-0.05927 -0.0494,-0.05927 0,0 -0.0198,-0.02963 -0.0296,-0.06914 -0.0692,-0.06914 -0.01,0 -0.0494,-0.0889 -0.0296,-0.09878 -0.0593,-0.148167 -0.0198,-0.05927 -0.079,-0.187678 -0.0494,-0.138288 -0.079,-0.197555 -0.0296,-0.06914 -0.0395,-0.0889 -0.01,-0.02963 -0.0395,-0.0889 -0.0197,-0.06914 -0.0691,-0.1778 z"
     style="font-size:9.87778px;line-height:1.25;font-family:'TT2020 Style B';-inkscape-font-specification:'TT2020 Style B';letter-spacing:-0.354542px;word-spacing:-4.00579px;stroke-width:0.1"
     id="path554" />
  <path
     d="m 30.70085,5.571065 q 0.0494,-0.03951 0.10866,0.0099 0.0395,0.03951 0.0197,0.128412 -0.0296,0.148166 -0.0889,0.148166 -0.0197,0 -0.0395,-0.02963 -0.0494,-0.07902 -0.0889,0.02963 l -0.0296,0.07902 q -0.01,0.06915 -0.0593,0.138289 -0.0395,0.05927 -0.0889,0.09878 -0.0494,0.02963 -0.079,0.0099 -0.0198,-0.02963 0,-0.128411 0.0197,-0.108656 0.0593,-0.167922 0.0395,-0.04939 0.0988,-0.118534 0.0691,-0.06914 0.0889,-0.06914 0.0198,0 0.0395,-0.04939 0.0198,-0.04939 0.0593,-0.07902 z M 27.56959,4.642553 q 0.0494,-0.05927 0.10866,0.02963 0.0889,0.118533 0.0494,0.207433 -0.0395,0.07902 0,0.187678 0.0395,0.0889 0.0296,0.118533 -0.0197,0.05927 0.079,0.286456 0.0395,0.09878 0.0395,0.158044 0,0.05927 0.0494,0.108656 0.0593,0.04939 0.0593,0.07902 0,0.02963 0.0494,0.0889 0.0494,0.04939 0.0988,0.05927 0.0494,0.01976 0.14816,0.09878 0.0988,0.07902 0.0988,0.108655 0,0.0099 0.0296,0.05927 0.0395,0.03951 0.079,0.02963 0.0494,-0.0099 0.0691,0.03951 0.0395,0.06915 0.0988,0.02963 0.0494,-0.02963 0.11853,0.04939 0.0395,0.05927 0.31609,0.06914 0.0692,0.0099 0.12841,0.03951 0.0593,0.01976 0.16793,-0.02963 0.10865,-0.04939 0.14816,-0.07902 0.0395,-0.02963 0.21731,-0.04939 l 0.1778,-0.01976 0.0593,-0.06914 0.0691,-0.05927 0.0296,0.04939 q 0.0395,0.04939 0.0395,0.07902 0,0.09878 -0.19756,0.197556 -0.0988,0.04939 -0.25682,0.05927 l -0.15804,0.0099 -0.0296,0.04939 q -0.0395,0.0889 -0.0988,0.05927 -0.0296,-0.01976 -0.0198,-0.06915 0.01,-0.03951 -0.0198,-0.04939 -0.0198,-0.01975 -0.0494,0 -0.0296,0.01976 -0.0593,0.01976 -0.0296,0 -0.079,0.03951 -0.0395,0.03951 -0.11854,0.03951 -0.0691,0 -0.1778,-0.07902 -0.0988,-0.06914 -0.1778,-0.05927 -0.079,0.0099 -0.0988,-0.0099 -0.0198,-0.02963 -0.0494,-0.02963 -0.0296,0 -0.0889,-0.02963 -0.0494,-0.02963 -0.10866,-0.05927 -0.0593,-0.02963 -0.079,-0.05927 -0.01,-0.02963 -0.0198,-0.118533 l -0.01,-0.0889 -0.0889,0.0099 q -0.14817,0.0099 -0.14817,-0.06915 0,-0.0889 -0.10866,-0.0889 -0.0691,0 -0.11853,-0.03951 -0.0395,-0.03951 -0.0593,-0.02963 -0.0197,0 -0.11853,0.03951 -0.0889,0.03951 -0.12841,0.09878 -0.0296,0.04939 -0.0889,0.108655 -0.0593,0.05927 -0.0889,0.108656 -0.0198,0.04939 -0.0691,0.05927 -0.0395,0 -0.0494,-0.0099 -0.01,-0.01976 -0.0296,-0.138289 -0.0296,-0.118533 0.0593,-0.1778 0.0494,-0.03951 0.0395,-0.09878 -0.01,-0.05927 0.0494,-0.138289 0.0593,-0.0889 0.0593,-0.217311 0.01,-0.128411 0.0296,-0.1778 0.0197,-0.05927 0.0296,-0.128411 0.0198,-0.06914 0.079,-0.197556 l 0.0692,-0.118533 -0.0296,-0.05927 q -0.0494,-0.108655 0.0494,-0.227189 z M 31.04657,4.34622 q 0.0395,-0.03951 0.0691,-0.0099 0.0395,0.02963 0.0395,0.118534 0,0.05927 0.0197,0.06914 0.0198,0.0099 0.0198,0.09878 0,0.07902 -0.0198,0.138289 -0.0197,0.06914 -0.0395,0.227189 -0.01,0.148166 -0.0198,0.217311 -0.0198,0.148166 -0.12841,0.148166 -0.0296,0 -0.0395,0.0099 -0.01,0.0099 -0.01,0.04939 0,0.04939 -0.0395,0.07902 -0.0296,0.02963 -0.0593,0 -0.0593,-0.03951 0.0198,-0.118533 0.0494,-0.04939 0.0296,-0.09878 -0.0198,-0.05927 0.0198,-0.118533 0.0494,-0.05927 0.0494,-0.09878 0,-0.09878 0.0593,-0.167922 0.0198,-0.01976 -0.01,-0.0889 -0.079,-0.158045 -0.0198,-0.237067 0.0296,-0.05927 0.0296,-0.118533 0,-0.06914 0.0296,-0.09878 z m -1.5113,-0.958145 q 0,-0.01975 0.01,-0.01975 0.0198,-0.0099 0.0395,0 0.0296,0.0099 0.0593,0.01975 0.0296,0.02963 0.0198,0.04939 0,0.01976 -0.0395,0.01976 -0.0296,0 -0.0593,-0.01976 -0.0296,-0.02963 -0.0296,-0.04939 z m 0.22719,-0.01975 q 0.01,-0.03951 0.19756,0.0099 0.10865,0.03951 0.15804,0.02963 0.0494,-0.0099 0.28646,0.03951 0.079,0.0099 0.14816,0.07902 0.079,0.05927 0.14817,0.09878 0.16792,0.108656 0.28646,0.276578 0.0593,0.0889 0.0593,0.108655 0,0.0099 0.0395,0.06914 0.079,0.09878 0.01,0.148167 -0.0296,0.0099 -0.079,-0.0099 -0.0395,-0.01976 -0.0593,-0.05927 -0.0197,-0.04939 -0.11853,-0.108655 -0.13829,-0.07902 -0.13829,-0.207434 0,-0.03951 -0.0198,-0.04939 -0.01,-0.0099 -0.0494,-0.06914 l -0.0395,-0.05927 -0.0889,0.0099 q -0.079,0.0099 -0.11853,-0.03951 -0.0198,-0.03951 -0.0395,-0.03951 -0.0198,-0.0099 -0.0988,0 -0.10865,0.0099 -0.13829,-0.03951 -0.0395,-0.05927 -0.0593,-0.06914 -0.0198,-0.0099 -0.0889,0.0099 -0.0692,0.0099 -0.12841,-0.02963 -0.0889,-0.05927 -0.0692,-0.09878 z M 28.28079,2.607736 q 0.0395,-0.01976 0.0494,-0.01976 0.0395,0 0.10866,0.138289 0.0296,0.07902 0.2667,0.306211 0.0691,0.06915 0.0889,0.0889 0.0296,0.01976 0.0494,0.02963 0.0296,0.0099 0.0889,0.0099 0.10865,0.01976 0.11853,0 0.01,-0.01976 0.0494,-0.0099 0.0395,0 0.0593,0.01976 0.0296,0.02963 0.0889,0.04939 0.0494,0.0099 0.11853,0.05927 0.079,0.04939 0.0889,0.06914 0,0.0099 -0.0593,0.05927 -0.0494,0.04939 -0.0691,0.04939 -0.01,0 -0.13829,-0.03951 -0.12841,-0.03951 -0.18768,-0.04939 -0.0593,-0.01976 -0.12841,-0.06915 -0.0691,-0.04939 -0.0691,-0.09878 0,-0.06914 -0.0988,-0.01976 -0.0395,0.02963 -0.0889,-0.0099 -0.0494,-0.04939 -0.0988,-0.05927 -0.0494,-0.0099 -0.10865,-0.118533 -0.0593,-0.108656 -0.10866,-0.158044 -0.0691,-0.06915 -0.079,-0.138289 0,-0.06915 0.0593,-0.0889 z m -0.0889,-0.5334 q 0.01,-0.02963 0.0198,-0.02963 0.0198,-0.0099 0.079,-0.0099 0.13829,0.0099 0.0395,0.128412 -0.0395,0.04939 -0.0494,0.06914 0,0.01976 0.0296,0.07902 0.0593,0.0889 -0.01,0.148167 -0.079,0.06914 -0.0988,-0.02963 -0.01,-0.05927 -0.0494,-0.118534 l -0.0296,-0.05927 0.0296,-0.06915 q 0.0296,-0.05927 0.0395,-0.108655 z M 29.89087,0.45438 q 0.21731,-0.07902 0.27658,-0.0099 0.0494,0.06914 0.13829,0.03951 0.0593,-0.0099 0.0988,0.0099 0.0494,0.0099 0.0988,-0.01976 0.0494,-0.02963 0.12842,0 0.079,0.02963 0.10865,0.01976 0.0296,-0.0099 0.079,0.05927 0.0593,0.05927 0.14817,0.09878 0.16792,0.07902 0.18768,0.1778 0.01,0.03951 0.0988,0.0889 0.0889,0.03951 0.14816,0.108656 l 0.0692,0.07902 0.0988,-0.01975 q 0.0593,-0.0099 0.11853,-0.02963 0.0593,-0.01976 0.0988,-0.04939 0.0395,-0.02963 0.0494,-0.05927 0.01,-0.02963 0.0395,-0.0889 0.0296,-0.06914 0.0296,-0.07902 0,-0.01976 0.0494,-0.05927 0.0593,-0.04939 0.0691,-0.04939 0.0395,0 0.0593,0.0889 0.01,0.03951 -0.0296,0.0889 -0.0395,0.03951 -0.0395,0.128411 0,0.138289 -0.0692,0.138289 -0.01,0 -0.01,0.07902 0,0.07902 -0.0296,0.118533 -0.0198,0.03951 -0.0198,0.09878 0.01,0.05927 -0.01,0.09878 -0.01,0.03951 -0.0296,0.1778 -0.0197,0.128411 -0.0691,0.227189 -0.0494,0.0889 -0.0494,0.138289 0,0.04939 -0.0296,0.09878 l -0.0296,0.04939 0.0395,0.01976 q 0.0593,0.01976 0.0494,0.06915 -0.01,0.03951 -0.079,0.03951 -0.0296,0 -0.0593,-0.01976 -0.0296,-0.02963 -0.0296,-0.05927 0,-0.03951 -0.0296,-0.06915 -0.0198,-0.02963 -0.0198,-0.128411 0,-0.09878 -0.0395,-0.167922 -0.0296,-0.06915 -0.0296,-0.09878 0,-0.02963 -0.0296,-0.06914 -0.0296,-0.04939 -0.0296,-0.138288 0,-0.09878 -0.0296,-0.148167 -0.0296,-0.04939 -0.0395,-0.108656 -0.0296,-0.138289 -0.15805,-0.197555 -0.0889,-0.03951 -0.0889,-0.128411 0,-0.04939 -0.0988,-0.108656 -0.0889,-0.06914 -0.15804,-0.07902 -0.0691,-0.0099 -0.12841,-0.04939 -0.0494,-0.03951 -0.079,-0.03951 -0.0198,0 -0.0692,-0.02963 -0.0494,-0.02963 -0.0889,-0.02963 -0.0395,0 -0.0889,-0.01976 -0.0395,-0.01976 -0.11853,0.0099 -0.0691,0.02963 -0.12841,0 -0.12841,-0.05927 -0.29634,0.01976 -0.0988,0.04939 -0.1778,0.03951 -0.0691,-0.0099 -0.0988,0.03951 -0.0296,0.05927 -0.0593,0.06914 -0.0198,0.0099 -0.0692,-0.0099 l -0.0593,-0.02963 -0.0692,0.06914 q -0.0691,0.07902 -0.15804,0.138289 -0.0889,0.04939 -0.11853,0.118533 -0.0296,0.05927 -0.0988,0.0889 -0.0593,0.02963 -0.0889,0.02963 -0.079,0 -0.16792,0.197556 -0.0593,0.118533 -0.079,0.138289 -0.01,0.01976 -0.0198,0.05927 -0.01,0.03951 -0.0593,0.07902 -0.0691,0.03951 -0.0889,0.118533 0,0.03951 -0.0395,0.07902 l -0.0296,0.03951 -0.0494,-0.04939 q -0.0494,-0.04939 -0.0296,-0.09878 0.0296,-0.04939 0.0494,-0.118533 0.0198,-0.06914 0.0593,-0.09878 0.14817,-0.128411 0.14817,-0.167923 0,-0.02963 0.0296,-0.05927 0.0296,-0.03951 0.0296,-0.07902 0,-0.09878 0.0691,-0.128412 0.0395,-0.0099 0.079,-0.04939 0.0494,-0.03951 0.079,-0.05927 0.0395,-0.01976 0.0889,-0.108656 0.10866,-0.187678 0.22719,-0.207433 0.21731,-0.03951 0.3556,-0.128411 0.10866,-0.06914 0.19756,-0.0099 0.0593,0.03951 0.0889,0.03951 0.0395,0 0.0296,-0.05927 l -0.01,-0.05927 z"
     style="font-style:italic;font-size:9.87778px;line-height:1.25;font-family:'TT2020 Style D';-inkscape-font-specification:'TT2020 Style D Italic';letter-spacing:-0.354542px;word-spacing:-4.00579px;stroke-width:0.1"
     id="path556" />
  <path
     d="m 33.95169,3.496731 q 0.10865,-0.04939 0.15804,0 0.01,0.01975 -0.01,0.09878 -0.0395,0.108655 0,0.1778 0.0395,0.07902 -0.0494,0.148166 -0.0395,0.02963 -0.079,0.09878 -0.0296,0.05927 -0.01,0.108656 0.0395,0.118533 -0.0494,0.276578 -0.0593,0.0889 -0.079,0.1778 -0.01,0.0889 -0.0593,0.158044 -0.0494,0.06915 -0.0494,0.158045 0,0.0889 -0.079,0.246944 -0.079,0.148167 -0.079,0.217311 0,0.128411 -0.0296,0.207434 -0.0197,0.06914 0,0.138289 0.0198,0.05927 0.0198,0.187677 0.01,0.128412 0.0691,0.197556 0.0593,0.05927 0.079,0.118533 0.0296,0.04939 0.0593,0.07902 0.0395,0.02963 0.0691,0.07902 0.0494,0.07902 0.30622,0.09878 0.12841,0.0099 0.15804,0.01976 0.079,0.04939 0.12841,-0.0099 0.0198,-0.01976 0.0889,-0.01976 0.0494,0 0.0593,0 0.01,-0.0099 0.01,-0.04939 0,-0.0889 0.14816,-0.167922 0.0494,-0.01976 0.11854,-0.0889 0.079,-0.06915 0.13829,-0.09878 0.0494,-0.01976 0.0988,-0.06914 0.0593,-0.05927 0.0593,-0.07902 0,-0.0099 0.0494,-0.03951 0.18768,-0.0889 0.23707,-0.187678 0.0494,-0.118533 0.14816,-0.158044 0.0395,-0.0099 0.15805,-0.128411 0.11853,-0.118534 0.11853,-0.138289 0,-0.0099 0.0296,-0.01976 0.0395,-0.0099 0.0988,-0.06914 0.0692,-0.06915 0.12841,-0.05927 0.0593,0.0099 0.079,0.02963 0.0198,0.0099 0.01,0.03951 0,0.02963 -0.0988,0.05927 -0.0889,0.02963 -0.11853,0.09878 -0.0395,0.07902 -0.10865,0.07902 -0.0494,0 -0.0692,0.128411 -0.0198,0.167923 -0.1778,0.207434 -0.0593,0.0099 -0.15804,0.108655 -0.0988,0.09878 -0.15805,0.09878 -0.0296,0 -0.0494,0.0099 -0.0197,0.0099 -0.0296,0.02963 -0.01,0.01976 -0.0198,0.06914 -0.01,0.06914 -0.0889,0.158044 -0.079,0.07902 -0.13828,0.108656 -0.0494,0.01976 -0.0494,0.02963 0,0.01976 -0.079,0.05927 -0.079,0.03951 -0.15804,0.05927 -0.079,0.01976 -0.12841,0.03951 -0.0494,0.01976 -0.0889,0.01976 -0.0395,0 -0.079,0.02963 -0.0296,0.02963 -0.079,0.03951 -0.0395,0.0099 -0.16792,0.02963 -0.24694,0.03951 -0.30621,-0.07902 -0.0296,-0.04939 -0.0988,-0.03951 -0.079,0.0099 -0.24694,-0.158045 -0.0988,-0.09878 -0.0988,-0.167922 0,-0.06914 -0.0691,-0.138289 -0.0593,-0.06914 -0.0494,-0.118534 0.0198,-0.04939 0.01,-0.09878 0,-0.05927 0.0198,-0.0889 0.0198,-0.02963 0.0198,-0.1778 l -0.01,-0.148167 0.079,-0.0889 q 0.079,-0.0889 0.079,-0.108656 0,-0.01975 0.0296,-0.05927 0.0395,-0.04939 0.01,-0.09878 -0.0198,-0.05927 -0.01,-0.197556 0.01,-0.148166 0.0593,-0.246944 0.0593,-0.108656 0.0593,-0.128411 0,-0.01976 0.0395,-0.0889 0.0395,-0.07902 0.0395,-0.128412 0,-0.04939 0.0296,-0.0889 0.0296,-0.03951 0.0296,-0.108655 0,-0.07902 0.0395,-0.138289 0.0395,-0.05927 0.0296,-0.138289 0,-0.07902 0.0198,-0.138289 0.0197,-0.05927 0.0296,-0.09878 0.01,-0.04939 0.0593,-0.06914 z m -0.57291,2.380545 q 0.0198,0 0.0198,-0.0099 0,-0.01976 -0.0198,-0.01976 -0.0198,0 -0.0198,0.01976 0,0.0099 0.0198,0.0099 z M 33.23061,2.518831 q 0.0296,-0.02963 0.16792,0.07902 0.0988,0.07902 0.01,0.158044 -0.0593,0.05927 -0.28646,0.01976 -0.12841,-0.01976 -0.20743,-0.0099 -0.15804,0.01976 -0.16792,-0.0889 0,-0.05927 0.01,-0.07902 0.0198,-0.01976 0.0988,-0.02963 0.079,-0.01976 0.10866,-0.0099 0.0296,0 0.13829,-0.0099 0.11853,-0.01976 0.12841,-0.02963 z M 34.73203,0.82973 q 0.10866,-0.09878 0.16793,0 0.079,0.128411 -0.01,0.237067 -0.0494,0.05927 -0.0395,0.108656 0.01,0.03951 -0.0494,0.148166 -0.0494,0.09878 -0.079,0.138289 -0.0296,0.02963 -0.0988,0.335845 -0.0296,0.138289 -0.01,0.434622 0,0.138289 0.0593,0.197556 0.13829,0.158044 0.30621,0.138289 0.19755,-0.01976 0.27658,0.05927 0.0296,0.01976 0.0691,-0.0099 0.0296,-0.01976 0.10866,-0.04939 0.0889,-0.02963 0.0988,-0.01976 0.01,0.0099 0.0889,0.0099 0.079,0 0.11854,-0.01976 0.0593,-0.01976 0.12841,0.01976 0.079,0.02963 0.10865,0.0099 0.0691,-0.04939 0.12841,0.01975 0.12842,0.158045 -0.13828,0.167922 -0.11854,0 -0.15805,0.0099 -0.0395,0 -0.19755,0 -0.14817,0 -0.24695,0 -0.0988,0 -0.31609,-0.0099 -0.21731,-0.0099 -0.22719,0.0099 -0.01,0.0099 -0.10865,0.0099 -0.0988,0 -0.24695,0.09878 -0.24694,0.158044 -0.22719,0.256822 0.01,0.05927 -0.01,0.108656 -0.01,0.02963 -0.0494,0.07902 -0.0296,0.04939 -0.0692,0.0889 -0.0296,0.02963 -0.0494,0.02963 -0.0296,0 -0.0593,-0.01976 -0.0198,-0.02963 -0.0198,-0.05927 0,-0.01976 0.01,-0.04939 0.0197,-0.03951 0.0395,-0.05927 0.0198,-0.02963 0.0395,-0.03951 0.0395,-0.01976 -0.0296,-0.07902 -0.0494,-0.04939 -0.0494,-0.108656 0,-0.05927 -0.0296,-0.118533 -0.0692,-0.118533 -0.23707,-0.118533 -0.0889,0.0099 -0.11853,-0.01976 -0.0395,-0.03951 0.0198,-0.0889 0.0395,-0.03951 0.0593,-0.06914 0.0197,-0.03951 0.079,-0.06914 0.0593,-0.02963 0.10866,-0.0099 0.0494,0.0099 0.079,0.0099 0.0198,0 0.0593,-0.0099 0.0395,-0.01976 0.079,-0.03951 0.0395,-0.02963 0.0494,-0.04939 0.0296,-0.03951 0.0593,-0.04939 0.0296,-0.0099 0.0593,-0.04939 0.0296,-0.03951 0.0494,-0.0889 0.0296,-0.04939 0.0296,-0.09878 0.0198,-0.1778 0.12841,-0.296334 0.0296,-0.03951 0.0296,-0.07902 0.01,-0.04939 0.0494,-0.06914 0.0889,-0.03951 0.0296,-0.0889 -0.0395,-0.03951 -0.0395,-0.04939 0,-0.01976 0.0296,-0.05927 0.0395,-0.04939 0.0296,-0.118533 -0.0198,-0.09878 0.0593,-0.286456 0.0198,-0.04939 0.0198,-0.128411 0,-0.0889 0.0593,-0.148167 z"
     style="font-style:italic;font-size:9.87778px;line-height:1.25;font-family:'TT2020 Style D';-inkscape-font-specification:'TT2020 Style D Italic';letter-spacing:-0.354542px;word-spacing:-4.00579px;stroke-width:0.1"
     id="path558" />
  <path
     d="m 39.31637,2.242253 q 0.0198,0 0.10866,-0.02963 0.0988,-0.02963 0.14816,-0.01976 0.0593,0 0.20744,0.0099 0.15804,0 0.28645,0.04939 0.13829,0.04939 0.18768,0.04939 0.0889,0 0.1778,0.128412 0.0395,0.06914 0.0889,0.09878 0.0494,0.01976 0.11854,0.0889 0.0691,0.05927 0.1778,0.108656 0.10865,0.03951 0.14816,0.01976 0.0494,-0.02963 0.11854,-0.05927 0.079,-0.03951 0.0889,-0.0889 0.0198,-0.0889 0.18767,-0.118533 0.0889,-0.01976 0.0988,0 0.0198,0.0099 -0.01,0.07902 -0.0494,0.108655 -0.13829,0.128411 -0.0691,0.01975 -0.0691,0.128411 0,0.03951 -0.0395,0.0889 -0.0395,0.03951 -0.0494,0.09878 -0.01,0.04939 -0.0494,0.07902 -0.0395,0.01976 -0.0395,0.05927 0.01,0.09878 -0.0395,0.158044 -0.0296,0.03951 -0.0494,0.108656 -0.0198,0.06914 -0.0494,0.0889 -0.0197,0.0099 -0.0197,0.09878 0,0.07902 -0.0395,0.118533 -0.0395,0.02963 -0.079,0.03951 -0.0691,0.0099 -0.0988,0.02963 -0.0198,0.0099 -0.01,0.02963 0.0494,0.108655 -0.01,0.217311 -0.0296,0.07902 -0.0198,0.197556 0.0198,0.167922 -0.0494,0.276577 -0.0197,0.03951 -0.0296,0.118534 -0.0197,0.187678 -0.079,0.256822 -0.0296,0.03951 -0.0296,0.128411 0,0.0889 -0.0494,0.227189 -0.0395,0.138289 -0.0296,0.197556 0.01,0.05927 -0.0296,0.128411 -0.0296,0.05927 -0.01,0.09878 0.0198,0.03951 -0.01,0.108655 -0.0296,0.05927 -0.0296,0.167922 0,0.09878 0.0494,0.148167 0.0494,0.03951 0.079,0.108656 0.0198,0.04939 0.0494,0.07902 0.0296,0.01976 0.0692,0.03951 0.0494,0.0099 0.13828,0.0099 l 0.13829,0.01976 0.0889,-0.07902 q 0.0889,-0.06914 0.14817,-0.0889 0.0593,-0.01975 0.0889,-0.0889 0.0296,-0.06914 0.079,-0.09878 0.0494,-0.02963 0.0889,-0.05927 0.0395,-0.02963 0.0889,-0.01976 0.12841,0.01976 0.0494,0.108656 -0.0395,0.03951 -0.0691,0.0889 -0.0395,0.06914 -0.14817,0.0889 -0.0593,0.0099 -0.0593,0.04939 -0.01,0.0889 -0.11853,0.138289 -0.0494,0.02963 -0.0889,0.07902 -0.0395,0.04939 -0.0988,0.04939 -0.0593,0 -0.0988,0.03951 -0.0593,0.06914 -0.15804,0.05927 -0.0889,0 -0.13829,-0.07902 -0.0395,-0.05927 -0.0889,-0.07902 -0.079,-0.01976 -0.20743,-0.227189 -0.0395,-0.06914 -0.0198,-0.118533 0.0296,-0.09878 -0.079,-0.197556 -0.10866,-0.09878 -0.0593,-0.197555 0.0198,-0.03951 0,-0.05927 -0.0988,-0.05927 -0.18768,-0.01976 -0.0296,0.01976 -0.12841,0.06915 -0.0988,0.03951 -0.11853,0.09878 -0.0198,0.04939 -0.0988,0.0889 -0.20743,0.09878 -0.23706,0.1778 -0.0198,0.06914 -0.22719,0.108655 -0.10866,0.01976 -0.16793,0.09878 -0.0593,0.06914 -0.12841,0.06914 -0.0691,0 -0.0988,0.02963 -0.0889,0.06914 -0.24695,0.108655 -0.0395,0.0099 -0.079,-0.02963 -0.0395,-0.04939 -0.0691,-0.02963 -0.0296,0.0099 -0.13828,0.0099 -0.10866,0 -0.21732,0 -0.0691,0 -0.12841,-0.01975 -0.0593,-0.01976 -0.0889,-0.04939 -0.0197,-0.02963 0,-0.05927 0.0296,-0.05927 -0.0494,-0.05927 -0.0494,0 -0.0691,-0.05927 -0.01,-0.05927 -0.0593,-0.05927 -0.0395,0 -0.0593,-0.02963 -0.01,-0.0099 -0.0494,-0.03951 -0.0296,-0.03951 -0.079,-0.06914 -0.0395,-0.03951 -0.0889,-0.06914 -0.0395,-0.02963 -0.0593,-0.03951 -0.0494,-0.0099 -0.0494,-0.07902 0.01,-0.06914 0.0198,-0.158045 0.01,-0.0889 -0.0296,-0.128411 -0.0395,-0.03951 -0.0296,-0.0889 0.01,-0.05927 -0.0296,-0.1778 -0.0395,-0.128411 -0.0296,-0.167922 0.0198,-0.03951 0,-0.0889 -0.0197,-0.05927 0,-0.0889 0.0198,-0.03951 0,-0.09878 -0.0395,-0.108656 0.0593,-0.207434 0.0395,-0.03951 0.0395,-0.0889 0,-0.05927 0.10866,-0.217311 0.0593,-0.07902 0.0593,-0.09878 0,-0.02963 0.0593,-0.108655 0.0691,-0.0889 0.0889,-0.1778 0.0296,-0.0889 0.0691,-0.148167 0.0494,-0.05927 0.079,-0.1778 0.0395,-0.128411 0.0593,-0.148167 0.0198,-0.01976 0.0988,-0.02963 0.0395,0 0.0494,0.0099 0.0198,0 0.0198,0.0099 0.01,0.0099 0.01,0.03951 0.01,0.04939 -0.0198,0.09878 -0.0198,0.03951 -0.0198,0.0889 0,0.04939 -0.079,0.128411 -0.0691,0.07902 -0.0691,0.09878 0,0.04939 -0.1778,0.306212 -0.0296,0.03951 -0.0296,0.118533 0,0.06914 -0.0494,0.158045 -0.0395,0.07902 -0.0691,0.0889 -0.0198,0.0099 -0.0198,0.05927 0,0.04939 -0.0296,0.118534 -0.0296,0.06914 -0.0691,0.187677 -0.0296,0.108656 -0.01,0.148167 0.0197,0.02963 0.0197,0.158045 0.01,0.118533 -0.01,0.158044 -0.0296,0.07902 0.0593,0.158045 0.0296,0.01976 0.0593,0.108655 0.0395,0.07902 0.079,0.108656 0.0494,0.01975 0.0593,0.07902 0.0395,0.158044 0.0494,0.1778 0.01,0.0099 0.0691,0.01976 0.0593,0 0.10866,0.06914 0.0296,0.04939 0.0494,0.05927 0.0198,0.0099 0.079,0.0099 0.11853,-0.0099 0.16792,0.04939 0.0494,0.04939 0.11853,0.02963 0.079,-0.01976 0.12841,0.0099 0.0494,0.01976 0.0988,0 0.0494,-0.01976 0.10866,-0.0099 0.15804,0.01976 0.20743,-0.06915 0.0494,-0.07902 0.20743,-0.07902 0.0988,0 0.15805,-0.118533 0.0296,-0.04939 0.0691,-0.05927 0.0395,-0.01976 0.0593,-0.04939 0.0197,-0.03951 0.0691,-0.05927 0.0593,-0.02963 0.10866,-0.06914 0.0494,-0.04939 0.12841,-0.07902 0.0889,-0.03951 0.12841,-0.118534 0.0593,-0.128411 0.12841,-0.1778 0.0395,-0.01975 0.11854,-0.118533 0.079,-0.108656 0.11853,-0.128411 0.0395,-0.01976 0.0593,-0.07902 0.0197,-0.05927 0.10865,-0.158045 0.0889,-0.108656 0.0988,-0.167922 0.01,-0.06914 0.0691,-0.128411 0.0593,-0.05927 0.079,-0.118534 0.0198,-0.06914 0.0691,-0.158044 0.0494,-0.09878 0.0593,-0.167922 0.01,-0.07902 0.0988,-0.237067 0.0889,-0.167922 0.0889,-0.2667 0,-0.108656 0,-0.158045 0.01,-0.276578 -0.0198,-0.335844 -0.0593,-0.0889 -0.0593,-0.237067 0,-0.07902 -0.0889,-0.09878 -0.0395,-0.0099 -0.0988,-0.0889 -0.0494,-0.07902 -0.12841,-0.09878 -0.11853,-0.03951 -0.14816,-0.108655 -0.0296,-0.04939 -0.0395,-0.04939 -0.1778,-0.01976 -0.25683,-0.0099 -0.0395,0 -0.0988,-0.05927 -0.079,-0.07902 -0.16793,-0.04939 -0.0494,0.0099 -0.0593,0.04939 -0.01,0.03951 -0.079,0.05927 -0.0593,0.01976 -0.079,0.03951 -0.0593,0.04939 -0.19755,0.01976 -0.0988,-0.01976 -0.12841,0.01976 -0.0296,0.03951 -0.0889,0.04939 -0.0494,0.0099 -0.0889,0.06915 -0.0296,0.05927 -0.0593,0.0889 -0.0296,0.01976 -0.079,0.0889 -0.0395,0.05927 -0.10866,0.07902 -0.0691,0.01976 -0.13829,0.06915 -0.0691,0.04939 -0.13829,0.07902 -0.0988,0.04939 -0.11853,0.128411 -0.0296,0.118533 -0.19756,0.158044 -0.0889,0.01976 -0.11853,0.02963 -0.0296,0.0099 -0.0296,-0.02963 0.01,-0.04939 0.0395,-0.0889 0.0395,-0.03951 0.079,-0.108655 0.0395,-0.07902 0.14817,-0.138289 0.10865,-0.05927 0.20743,-0.158045 0.20743,-0.207433 0.33585,-0.207433 0.0593,0 0.12841,-0.0889 0.0395,-0.04939 0.10865,-0.09878 0.079,-0.05927 0.14817,-0.0889 0.079,-0.03951 0.11853,-0.03951 0.0593,0 0.10866,-0.03951 0.0494,-0.03951 0.0691,-0.03951 z"
     style="font-style:italic;font-size:9.87778px;line-height:1.25;font-family:'TT2020 Style D';-inkscape-font-specification:'TT2020 Style D Italic';letter-spacing:-0.354542px;word-spacing:-4.00579px;stroke-width:0.1"
     id="path560" />
  <path
     d="m 45.70834,5.758742 q 0.0494,-0.01975 0.0692,-0.01975 0.0197,0.0099 0.01,0.108655 0,0.0889 -0.0197,0.108656 -0.079,0.0889 -0.16792,0.0889 -0.0296,0 -0.10866,0.03951 -0.13829,0.07902 -0.15804,0.01976 -0.01,-0.02963 0.0197,-0.05927 0.0296,-0.02963 0.0889,-0.04939 0.10866,-0.02963 0.12841,-0.108655 0.0198,-0.07902 0.13829,-0.128412 z m 0.76059,-0.464255 q 0.0988,-0.03951 0.10866,0.0099 0.01,0.01976 -0.0296,0.05927 -0.0395,0.03951 -0.10865,0.02963 -0.0691,-0.0099 -0.10866,0.02963 -0.0296,0.02963 -0.0197,0.06914 0.01,0.03951 -0.01,0.0889 -0.01,0.03951 -0.0395,0.04939 -0.0198,0.0099 -0.0494,-0.0099 -0.079,-0.03951 -0.079,0.03951 0,0.03951 -0.0593,0.09878 -0.0494,0.05927 -0.0889,0.04939 -0.0988,-0.02963 -0.0198,-0.1778 0.079,-0.148166 0.13829,-0.07902 0.0296,0.03951 0.0692,0.0099 0.0395,-0.02963 0.0296,-0.0889 -0.01,-0.04939 0.0395,-0.0889 0.0494,-0.03951 0.10866,-0.04939 0.0691,-0.01976 0.11853,-0.03951 z M 44.4835,2.262008 q 0.079,-0.03951 0.1778,-0.03951 0.0988,0 0.16792,0.05927 0.14817,0.128411 0.16792,0.158044 0.0198,0.02963 0.0395,0.148167 0.0198,0.138289 0.01,0.2667 -0.01,0.118534 -0.0593,0.1778 -0.0395,0.04939 -0.0395,0.09878 0,0.03951 -0.0691,0.0889 -0.0988,0.06914 -0.0198,0.09878 0.0494,0.01976 0.0494,0.01976 0.01,0 -0.0296,0.05927 -0.0296,0.04939 -0.0296,0.108656 0,0.05927 -0.0395,0.108655 -0.1778,0.207434 -0.1778,0.404989 0,0.05927 -0.0197,0.07902 -0.0198,0.01976 -0.0692,0.0099 -0.0988,-0.01976 -0.0395,0.07902 0.0889,0.148167 -0.0395,0.286456 -0.0593,0.05927 -0.0593,0.128411 0,0.05927 -0.0395,0.138289 -0.0395,0.06915 -0.0198,0.108656 0.0296,0.0889 -0.0691,0.207433 -0.13828,0.148167 -0.10865,0.187678 0.01,0.01976 -0.0296,0.05927 -0.0296,0.02963 -0.0593,0.0889 -0.0198,0.04939 -0.0395,0.07902 -0.0198,0.01975 0,0.04939 0.0593,0.0889 0.0593,0.227189 0,0.128411 0.0198,0.128411 0.0494,0.01975 0,0.167922 -0.0198,0.05927 -0.01,0.0889 0.01,0.01976 0.0889,0.03951 0.0692,0.01976 0.12841,0.06915 0.0692,0.03951 0.13829,0.02963 0.0691,-0.01976 0.20744,-0.0099 0.13828,0 0.15804,-0.03951 0.0296,-0.03951 0.0494,-0.04939 0.0494,-0.03951 0.12841,0.0099 0.0395,0.01976 0.0889,0 0.0593,-0.0099 0.13829,-0.0099 0.0889,-0.0099 0.0988,0.0099 0.01,0.0099 -0.0198,0.03951 -0.0197,0.01976 -0.0593,0.01976 -0.0395,0 -0.0988,0.02963 -0.0494,0.02963 -0.10866,0.0099 -0.11853,-0.02963 -0.21731,0.09878 -0.0593,0.09878 -0.0988,0.108655 -0.0296,0.0099 -0.22719,0.0099 h -0.19755 l -0.0988,-0.05927 q -0.27658,-0.167922 -0.27658,-0.256822 0,-0.02963 0.0296,-0.02963 0.0395,-0.0099 0.0395,-0.01976 0,-0.01976 -0.0296,-0.01976 -0.0691,0 -0.0691,-0.108656 0,-0.03951 -0.0296,-0.09878 -0.079,-0.167922 0.0395,-0.296333 0.0296,-0.02963 0.01,-0.04939 -0.01,-0.01976 0.0296,-0.05927 0.0395,-0.03951 0.01,-0.0889 -0.0494,-0.07902 -0.01,-0.128411 0.0296,-0.05927 0.10865,-0.05927 0.0395,0 0.0494,-0.01975 0.01,-0.01976 -0.0198,-0.0889 -0.0296,-0.07902 0,-0.138289 0.0296,-0.06914 0.0593,-0.0889 0.0296,-0.01976 0.0296,-0.128411 0.01,-0.118534 0.0494,-0.167923 0.0691,-0.0889 0.0691,-0.217311 0,-0.05927 0.0296,-0.09878 0.0296,-0.03951 0.0593,-0.118533 0.0296,-0.07902 0.0691,-0.128411 0.0395,-0.02963 0.0494,-0.07902 0.01,-0.04939 -0.0197,-0.05927 -0.0198,-0.0099 -0.01,-0.06914 0.0198,-0.05927 0.0198,-0.148167 0,-0.06914 0.01,-0.0889 0.01,-0.02963 0.0198,-0.04939 0.0197,-0.02963 0.0691,-0.06914 0.0593,-0.03951 0.079,-0.06915 0.0296,-0.02963 0.0494,-0.05927 0.0198,-0.03951 0.0198,-0.06914 0.01,-0.02963 0.01,-0.07902 0.01,-0.375356 0.0593,-0.424745 0.0296,-0.03951 0.0198,-0.118533 0,-0.07902 -0.01,-0.09878 -0.0395,-0.03951 -0.27658,-0.03951 -0.0395,0 -0.11853,0.04939 -0.079,0.04939 -0.10865,0.04939 -0.10866,0 -0.14817,0.07902 -0.0296,0.05927 -0.079,0.0889 -0.0494,0.01976 -0.0889,0.04939 -0.0296,0.02963 -0.11854,0.06914 -0.079,0.02963 -0.1778,0.118534 -0.0988,0.0889 -0.15804,0.108655 -0.0494,0.0099 -0.10866,0.05927 -0.0494,0.03951 -0.0889,0.04939 -0.0296,0.0099 -0.0889,0.07902 -0.0494,0.05927 -0.11853,0.09878 -0.0692,0.03951 -0.0988,0.02963 -0.0198,-0.0099 -0.0198,-0.09878 l 0.01,-0.09878 0.10866,-0.09878 q 0.10866,-0.108656 0.13829,-0.118534 0.0395,-0.0099 0.079,-0.03951 0.0494,-0.03951 0.0889,-0.05927 0.0494,-0.02963 0.0593,-0.05927 0.01,-0.06914 0.0988,-0.06914 0.0494,0 0.10865,-0.04939 0.0593,-0.05927 0.13829,-0.108656 0.0593,-0.03951 0.14817,-0.128411 0.0889,-0.0889 0.0889,-0.118534 0,-0.0099 0.0494,-0.02963 0.0593,-0.02963 0.10865,-0.02963 0.0988,0 0.23707,-0.06914 z m 0.89888,-2.192867 q 0.0395,-0.05927 0.11853,-0.05927 0.0889,-0.0099 0.23707,-0.0099 h 0.14816 l 0.0395,0.05927 q 0.0494,0.05927 0.0692,0.05927 0.0691,0 0.10865,0.276578 0.0198,0.118533 -0.0395,0.2667 -0.0988,0.286456 -0.1778,0.316089 -0.0296,0.0099 -0.0889,0.0099 -0.0593,0 -0.13829,0.03951 -0.0691,0.02963 -0.15804,0.0099 -0.0889,-0.01976 -0.14817,-0.06915 -0.0593,-0.05927 -0.079,-0.05927 -0.01,0 -0.0593,-0.09878 -0.0494,-0.09878 -0.0889,-0.138289 -0.0691,-0.05927 0,-0.207434 0.0395,-0.07902 0.0593,-0.148166 0.0296,-0.07902 0.0988,-0.138289 0.0691,-0.05927 0.0988,-0.108656 z"
     style="font-style:italic;font-size:9.87778px;line-height:1.25;font-family:'TT2020 Style D';-inkscape-font-specification:'TT2020 Style D Italic';letter-spacing:-0.354542px;word-spacing:-4.00579px;stroke-width:0.1"
     id="path562" />
  <path
     d="m 47.438,2.647242 q 0.0988,-0.01976 0.14817,0.0099 0.0198,0.01976 0.01,0.06914 -0.0494,0.118533 -0.12841,0.128411 -0.0296,0 -0.0296,-0.02963 0,-0.03951 -0.0395,-0.0889 -0.0395,-0.06914 0.0395,-0.0889 z m 3.23004,-0.513645 q 0.0494,-0.05927 0.10865,0.0099 0.0593,0.06914 0.0988,0.0099 0.01,-0.01976 0.0988,-0.02963 0.14817,-0.0099 0.19755,0.09878 0.0296,0.05927 0.11854,0.128411 0.0691,0.04939 0.079,0.06915 0.01,0.0099 0.01,0.05927 -0.01,0.05927 0.0198,0.128411 0.0395,0.06914 0.0198,0.187677 -0.0198,0.118534 0,0.167923 0.0296,0.04939 -0.01,0.138289 -0.0395,0.0889 -0.079,0.138289 -0.0296,0.03951 -0.0494,0.217311 -0.0198,0.167922 -0.079,0.227189 -0.0494,0.05927 -0.0494,0.07902 0,0.0099 -0.0395,0.0889 -0.0395,0.07902 -0.0395,0.128411 0,0.04939 -0.0198,0.108656 -0.0198,0.05927 -0.0296,0.167922 0,0.108655 -0.0296,0.128411 -0.0296,0.0099 -0.079,0.05927 l -0.0593,0.04939 0.0395,0.07902 q 0.0593,0.128411 -0.0198,0.187678 -0.0494,0.03951 -0.0988,0.207433 -0.0395,0.158045 -0.079,0.237067 -0.0889,0.1778 -0.0889,0.325967 0,0.118533 -0.0691,0.207433 -0.0296,0.01975 -0.0198,0.158044 0.0198,0.138289 0.0296,0.167923 0.0198,0.01976 0.10866,0.04939 0.0988,0.01976 0.12841,-0.0099 0.0395,-0.03951 0.0889,-0.03951 0.0593,0 0.10866,-0.03951 0.0593,-0.03951 0.10865,-0.05927 0.0494,-0.02963 0.0988,-0.0889 0.0494,-0.05927 0.0889,-0.05927 0.0494,0 0.10866,-0.03951 0.10865,-0.07902 0.14816,-0.04939 0.0296,0.0099 0.0198,0.04939 -0.01,0.03951 -0.0395,0.06914 -0.0395,0.03951 -0.0692,0.09878 l -0.0395,0.05927 -0.01,-0.04939 q -0.0198,-0.09878 -0.0691,-0.09878 -0.0296,0 -0.0395,0.03951 -0.0198,0.03951 0.0198,0.07902 l 0.0296,0.03951 -0.0593,0.03951 q -0.0691,0.03951 -0.0889,0.09878 -0.0198,0.04939 -0.0988,0.118533 -0.0691,0.06914 -0.24694,0.128411 -0.25682,0.0889 -0.3556,0.04939 -0.0198,-0.0099 -0.0395,-0.06914 -0.0296,-0.09878 -0.079,-0.09878 -0.0494,0 -0.0691,-0.04939 -0.01,-0.04939 0,-0.256822 0.01,-0.256823 0.0494,-0.306212 0.0494,-0.05927 0.0395,-0.217311 0,-0.04939 0.0691,-0.118533 0.0691,-0.06915 0.0691,-0.118533 0,-0.05927 0.01,-0.09878 0.0197,-0.04939 0.0197,-0.118534 0,-0.06914 0.0395,-0.09878 0.0395,-0.03951 0.0395,-0.148167 0,-0.118533 0.0395,-0.148167 0.0395,-0.03951 0.0395,-0.0889 0,-0.04939 0.0395,-0.118533 0.0395,-0.07902 0.0395,-0.108656 0,-0.02963 0.0197,-0.06914 0.0296,-0.04939 0.0395,-0.128411 0.01,-0.07902 0.0494,-0.108656 0.0494,-0.04939 0.01,-0.09878 -0.0494,-0.05927 0.0692,-0.1778 0.14816,-0.148166 0.15804,-0.385233 0,-0.118534 0.0296,-0.197556 0.0296,-0.07902 0.01,-0.167922 -0.0395,-0.207433 0,-0.227189 0.0593,-0.03951 -0.0593,-0.148167 -0.079,-0.07902 -0.0988,-0.118533 -0.01,-0.04939 -0.0889,-0.07902 -0.079,-0.02963 -0.24695,0 -0.19755,0.03951 -0.2667,0.158044 -0.0296,0.05927 -0.10865,0.07902 -0.0691,0.01976 -0.11854,0.0889 -0.0494,0.06915 -0.0988,0.07902 -0.11854,0.02963 -0.15805,0.148166 -0.0395,0.128412 -0.14816,0.138289 -0.0395,0.0099 -0.0494,0.02963 -0.01,0.0099 -0.01,0.05927 -0.0198,0.108656 -0.079,0.108656 -0.0198,0 -0.15805,0.138289 -0.13829,0.138289 -0.21731,0.1778 -0.13829,0.04939 -0.13829,0.09878 0,0.02963 -0.0296,0.108655 -0.0296,0.07902 -0.0494,0.07902 -0.0296,0 -0.16792,0.148167 -0.12841,0.138289 -0.14817,0.187678 -0.01,0.02963 -0.1778,0.197556 -0.16792,0.167922 -0.24694,0.237066 -0.12842,0.0889 -0.12842,0.187678 0,0.118534 -0.13828,0.217311 -0.0593,0.03951 -0.0988,0.148167 -0.0296,0.09878 -0.0198,0.138289 0.0198,0.06914 -0.0691,0.276578 -0.0296,0.06914 -0.11854,0.158044 l -0.079,0.09878 0.0198,0.05927 q 0.0198,0.06914 -0.0198,0.138289 -0.0296,0.06914 -0.0593,0.108655 -0.0296,0.02963 -0.0494,0.09878 -0.0395,0.118533 -0.0692,0.05927 -0.01,-0.0099 -0.01,-0.03951 -0.01,-0.06915 0.0198,-0.167923 0.0296,-0.09878 0.0494,-0.207433 0.0197,-0.108656 0.0494,-0.158045 0.0494,-0.0889 0.01,-0.187677 -0.01,-0.04939 0.0296,-0.128412 0.0395,-0.07902 0.079,-0.108655 0.0395,-0.03951 0.0494,-0.118533 0.01,-0.0889 0.0494,-0.1778 0.0494,-0.09878 0.0395,-0.138289 -0.01,-0.04939 0.01,-0.07902 0.0296,-0.03951 0.0296,-0.09878 0,-0.06914 0.0494,-0.118534 0.0593,-0.05927 0.0593,-0.07902 0.01,-0.01976 0.01,-0.158045 0.01,-0.138288 0.0296,-0.1778 0.0296,-0.04939 0.0296,-0.06914 0,-0.02963 0.0296,-0.09878 0.0395,-0.06914 0.0494,-0.158044 0.01,-0.0889 0.0395,-0.128411 0.0593,-0.06915 0.0198,-0.158045 -0.0198,-0.05927 0.0691,-0.0889 0.0988,-0.03951 0.079,-0.217311 -0.01,-0.158045 0.079,-0.286456 0.0494,-0.05927 0.0296,-0.108655 -0.0197,-0.04939 -0.0296,-0.1778 V 2.568259 l -0.0889,-0.03951 q -0.0988,-0.03951 -0.11853,-0.06914 -0.0395,-0.04939 -0.13829,0.01976 -0.0692,0.03951 -0.16793,0.04939 -0.0889,0.0099 -0.12841,0.01976 -0.0296,0.0099 -0.0395,0.0099 0,-0.0099 0,-0.04939 0,-0.0889 0.11854,-0.148167 0.079,-0.03951 0.11853,-0.06914 0.0494,-0.03951 0.11853,-0.03951 0.079,0 0.13829,-0.02963 0.14817,-0.06914 0.16792,0.02963 0.0198,0.05927 0.079,0.09878 0.0593,0.02963 0.0889,0.07902 0.0395,0.04939 0.0691,0.05927 0.0296,0.0099 0.0296,0.02963 0.01,0.0099 -0.01,0.256822 -0.0198,0.246944 -0.0395,0.316089 -0.01,0.05927 -0.0494,0.118533 -0.0296,0.04939 -0.01,0.09878 0.0197,0.04939 -0.01,0.118533 -0.0296,0.05927 -0.0198,0.167923 0.0198,0.108655 0.0296,0.128411 0.0197,0.01976 0.15804,0.0099 0.13829,-0.01976 0.1778,-0.0099 0.0889,0.04939 0.0889,-0.03951 0,-0.03951 0.0296,-0.05927 0.0395,-0.01976 0.0691,-0.09878 0.0395,-0.0889 0.0988,-0.108655 0.0593,-0.01976 0.0691,-0.05927 0.0198,-0.04939 0.11854,-0.138289 0.0988,-0.09878 0.14816,-0.187678 0.0494,-0.0889 0.10866,-0.108655 0.0593,-0.01976 0.12841,-0.09878 0.079,-0.07902 0.13829,-0.09878 0.0593,-0.01976 0.079,-0.09878 0.0296,-0.07902 0.0889,-0.09878 0.0988,-0.04939 0.18768,-0.217311 0.0395,-0.05927 0.079,-0.07902 0.0494,-0.02963 0.16792,-0.05927 0.13829,-0.02963 0.15805,-0.03951 z"
     style="font-style:italic;font-size:9.87778px;line-height:1.25;font-family:'TT2020 Style D';-inkscape-font-specification:'TT2020 Style D Italic';letter-spacing:-0.354542px;word-spacing:-4.00579px;stroke-width:0.1"
     id="path564" />
  <path
     d="m 54.06704,6.469943 q 0.0395,-0.02963 0.0988,-0.01976 0.0691,0 0.0691,0.03951 0,0.06915 -0.0691,0.0889 -0.0593,0.01976 -0.0988,-0.03951 -0.0296,-0.04939 0,-0.06914 z m 1.30387,-0.296334 q 0.0593,-0.02963 0.079,0.01976 0.0494,0.0889 -0.0198,0.128411 -0.0988,0.06914 -0.1778,0.03951 -0.0593,-0.03951 -0.079,0.03951 -0.01,0.07902 -0.10866,0.07902 -0.0395,0 -0.0889,0.02963 -0.0494,0.01976 -0.10866,0 -0.0494,-0.01976 -0.0691,-0.0099 -0.14817,0.108656 -0.28646,0.118533 h -0.10865 l -0.0296,-0.04939 q -0.0296,-0.04939 -0.0593,-0.07902 -0.0198,-0.02963 0.0494,-0.0889 0.0691,-0.06914 0.11853,-0.05927 0.0494,0.0099 0.13829,0.01976 0.0988,0 0.14817,0.01976 0.0593,0.01976 0.0988,-0.01976 0.0395,-0.04939 0.12842,-0.01976 0.0296,0.0099 0.0593,-0.03951 0.0296,-0.04939 0.079,-0.0889 0.0593,-0.03951 0.12842,-0.02963 0.079,0.0099 0.10865,-0.0099 z m -2.42993,-1.2446 q 0.079,-0.01976 0.12841,-0.04939 0.0494,-0.02963 0.15804,-0.01976 0.10866,0 0.18768,0.04939 0.13829,0.108656 0.13829,0.1778 0,0.05927 0.0198,0.108656 0.0198,0.04939 -0.0395,0.158044 -0.13829,0.266701 -0.21731,0.325967 -0.0198,0.01976 -0.0593,0.0889 -0.0296,0.05927 -0.0296,0.09878 0.01,0.02963 0.0494,0.138289 0.0198,0.04939 0.0198,0.128411 0.01,0.03951 0.01,0.05927 0.01,0.0099 0.0198,0 0.0198,0 0.079,0.05927 0.0692,0.04939 0.0988,0.02963 0.0296,-0.02963 0.0691,-0.0099 0.0494,0.01976 0.11854,0.02963 0.079,0 0.12841,0.03951 0.0494,0.02963 0.0988,0.05927 0.0988,0.04939 0.0395,0.108656 -0.0395,0.03951 -0.079,0.01976 -0.0395,-0.01976 -0.10866,-0.0099 -0.0691,0.0099 -0.15804,-0.06915 -0.11854,-0.0889 -0.14817,-0.04939 -0.0494,0.05927 -0.12841,-0.0099 -0.0494,-0.02963 -0.0889,-0.05927 -0.0395,-0.02963 -0.0296,-0.05927 0,-0.0099 -0.0296,-0.02963 -0.0198,-0.01976 -0.0593,-0.02963 -0.0395,-0.01976 -0.0691,-0.01976 -0.0198,0 -0.10866,-0.0889 -0.22718,-0.217311 -0.28645,-0.503767 -0.0494,-0.286456 0.0988,-0.503767 0.0494,-0.06914 0.0691,-0.108655 0.0296,-0.03951 0.10866,-0.05927 z M 53.61267,4.07952 q 0.0395,-0.06914 0.13828,-0.01976 0.0692,0.02963 0.13829,0.01976 0.13829,-0.0099 0.41487,0.07902 0.0691,0.02963 0.46426,0.02963 h 0.39511 l 0.0593,0.04939 q 0.0692,0.03951 0.14817,0.03951 0.0889,0 0.12841,0.02963 0.0395,0.01976 0.079,0.01976 0.0494,0 0.12842,0.03951 0.079,0.03951 0.0988,0.07902 0.0395,0.07902 0.20744,0.246944 0.0593,0.05927 0.10865,0.158045 0.0494,0.0889 0.0494,0.167922 0.01,0.07902 -0.01,0.128411 -0.0494,0.04939 0,0.138289 0.0296,0.06914 0.01,0.158044 -0.0198,0.0889 -0.0691,0.118534 -0.0988,0.04939 -0.0988,0.167922 0,0.04939 -0.0494,0.138289 -0.0494,0.0889 -0.079,0.09878 -0.0296,0 -0.0889,0.0099 -0.0593,0 -0.0593,0.06914 0,0.06915 -0.0494,0.108656 -0.0395,0.03951 -0.0889,0.0099 -0.0494,-0.02963 -0.0593,-0.0889 0,-0.06914 0.0395,-0.118533 0.0494,-0.04939 0.0691,-0.04939 0.0296,0 0.0889,-0.06914 0.0692,-0.06915 0.0988,-0.07902 0.0296,-0.01975 0.0395,-0.09878 0.0296,-0.197556 0.12841,-0.316089 0.0889,-0.108656 0.0889,-0.118534 0,-0.0099 -0.0296,-0.04939 -0.0296,-0.04939 -0.0198,-0.06914 0.01,-0.01976 -0.01,-0.03951 -0.01,-0.01976 -0.0296,-0.03951 -0.0197,-0.02963 -0.0395,-0.03951 -0.0395,-0.01976 -0.0593,-0.06914 -0.0198,-0.04939 -0.079,-0.108655 -0.0494,-0.05927 -0.0494,-0.09878 0,-0.04939 -0.12841,-0.148167 -0.0494,-0.03951 -0.23707,-0.05927 -0.1778,-0.02963 -0.23706,-0.02963 -0.0593,-0.0099 -0.0988,-0.02963 -0.0395,-0.02963 -0.0988,-0.0099 -0.0494,0.01976 -0.0691,0.0099 -0.079,-0.05927 -0.12841,-0.05927 -0.0395,-0.0099 -0.22719,0 -0.13829,0 -0.25683,-0.02963 -0.11853,-0.02963 -0.21731,-0.01976 -0.1778,0.01976 -0.33584,-0.09878 -0.0692,-0.04939 -0.10866,-0.05927 -0.0494,-0.01976 -0.01,-0.09878 z m 2.11384,-1.560689 q -0.0197,-0.05927 -0.0197,-0.118534 0,-0.06914 0.0296,-0.06914 0.12841,0 0.27658,0.138289 0.079,0.06914 0.12841,0.0889 0.0593,0.02963 0.0889,0.148166 0.01,0.01976 0.0395,0.01976 0.0395,0 0.0691,0.01976 0.0395,0.01976 0.0198,0.07902 -0.01,0.05927 0.0197,0.118533 0.0395,0.05927 0.0296,0.108656 -0.01,0.04939 -0.0198,0.108655 0,0.02963 -0.0296,0.0889 -0.0198,0.04939 -0.0494,0.09878 -0.0296,0.03951 -0.0494,0.05927 -0.14817,0.108655 -0.28645,0.108655 -0.0692,0 -0.14817,-0.06914 -0.0692,-0.06915 -0.0692,-0.09878 0,-0.02963 -0.0395,-0.07902 -0.0691,-0.0889 -0.0197,-0.128411 0.0197,-0.0099 0.079,-0.128411 l 0.0593,-0.118534 -0.0395,-0.108655 q -0.0395,-0.09878 -0.0395,-0.158045 0,-0.05927 -0.0296,-0.108655 z M 55.29189,2.232375 q 0.0889,0 0.10865,0 0.0198,0 0.0889,0.01976 0.11854,0.0099 0.13829,0.07902 0.0296,0.05927 -0.0593,0.118533 -0.11854,0.06915 -0.11854,-0.04939 0,-0.07902 -0.0494,-0.07902 -0.0197,0 -0.0691,0.03951 -0.0691,0.05927 -0.12841,0.04939 -0.0494,-0.0099 -0.0494,-0.06914 0,-0.09878 0.13829,-0.108656 z m -0.72108,-0.0099 q 0.13829,-0.01976 0.24695,0.01976 0.0395,0.0099 0.11853,0.01976 0.079,0.0099 0.079,0.01976 0,0.0099 -0.0296,0.04939 -0.0296,0.03951 -0.0395,0.03951 -0.0198,0 -0.0889,0.02963 -0.0593,0.02963 -0.12841,0.01976 -0.16793,-0.01976 -0.19756,-0.0099 -0.0198,0 -0.0691,0.04939 -0.0988,0.09878 -0.22719,0.09878 -0.11854,0 -0.28646,0.158044 -0.11853,0.108656 -0.18768,0.158045 -0.0593,0.03951 -0.079,0.0889 -0.01,0.04939 -0.0494,0.0889 -0.0395,0.03951 -0.0395,0.0889 0,0.03951 -0.0395,0.0889 -0.0296,0.03951 -0.0494,0.108655 -0.0296,0.187678 -0.0593,0.217312 -0.0198,0.02963 0,0.09878 0.0296,0.05927 0.0593,0.0889 0.0494,0.03951 0.0494,0.138289 0.01,0.09878 -0.0296,0.118534 -0.0494,0.01976 -0.079,-0.0099 -0.0198,-0.03951 0,-0.09878 0.0395,-0.09878 -0.0494,-0.09878 -0.0593,0 -0.079,-0.05927 -0.01,-0.05927 -0.01,-0.306212 -0.01,-0.06914 0.0494,-0.1778 0.0198,-0.03951 0.0395,-0.167922 0.0296,-0.148167 0.0395,-0.167922 0.01,-0.02963 0.0494,-0.02963 0.0494,0 0.11854,-0.05927 0.079,-0.06915 0.1778,-0.1778 0.0494,-0.05927 0.0988,-0.05927 0.0395,0 0.079,-0.01975 0.0395,-0.02963 0.0395,-0.04939 0,-0.04939 0.0988,-0.07902 0.0395,-0.0099 0.10865,-0.07902 0.0692,-0.06914 0.15805,-0.06914 0.0889,-0.0099 0.11853,-0.02963 0.0296,-0.02963 0.0889,-0.03951 z"
     style="font-style:italic;font-size:9.87778px;line-height:1.25;font-family:'TT2020 Style D';-inkscape-font-specification:'TT2020 Style D Italic';letter-spacing:-0.354542px;word-spacing:-4.00579px;stroke-width:0.1"
     id="path566" />
</svg>
