<?xml version="1.0" encoding="UTF-8" standalone="no"?>
<!-- Created with Inkscape (http://www.inkscape.org/) -->

<svg
   width="217.09596em"
   height="203.15329em"
   viewBox="0 0 217.09596 203.15329"
   version="1.1"
   id="svg5"
   xml:space="preserve"
   xmlns="http://www.w3.org/2000/svg"
   xmlns:svg="http://www.w3.org/2000/svg"><defs
     id="defs2" /><g
     id="layer1"
     transform="translate(222.18256,142.05041)"><g
       id="g3584"
       style="display:inline;stroke-width:3.25993;stroke-dasharray:none"
       transform="matrix(1.6232473,0,0,1.6232473,-870.85864,-240.13721)"><path
         style="font-variation-settings:normal;opacity:1;fill:none;fill-opacity:1;stroke:#000000;stroke-width:3.25993;stroke-linecap:butt;stroke-linejoin:miter;stroke-miterlimit:4;stroke-dasharray:none;stroke-dashoffset:0;stroke-opacity:1;stop-color:#000000;stop-opacity:1"
         d="m 400.48669,90.621074 c 0,0 11.10837,-7.015827 16.9549,-2.923262 5.84652,4.092564 16.95492,-7.015824 16.95492,-7.015824 0,0 18.70885,-14.031651 22.80142,-12.862346"
         id="path3451" /><path
         style="font-variation-settings:normal;opacity:1;fill:none;fill-opacity:1;stroke:#000000;stroke-width:3.25993;stroke-linecap:butt;stroke-linejoin:miter;stroke-miterlimit:4;stroke-dasharray:none;stroke-dashoffset:0;stroke-opacity:1;stop-color:#000000;stop-opacity:1"
         d="m 479.4147,60.803816 c 0,0 -2.92325,12.277695 28.0633,6.431174 0,0 2.33862,-4.677216 24.5554,26.309345"
         id="path3453" /><path
         style="font-variation-settings:normal;opacity:1;fill:none;fill-opacity:1;stroke:#000000;stroke-width:3.25993;stroke-linecap:butt;stroke-linejoin:miter;stroke-miterlimit:4;stroke-dasharray:none;stroke-dashoffset:0;stroke-opacity:1;stop-color:#000000;stop-opacity:1"
         d="m 508.64732,109.32994 c 5.26185,-30.40191 -26.89399,-14.031649 -26.89399,-14.031649 0,0 25.14003,4.092562 26.89399,14.031649 z"
         id="path3455" /><path
         style="font-variation-settings:normal;opacity:1;fill:none;fill-opacity:1;stroke:#000000;stroke-width:3.25993;stroke-linecap:butt;stroke-linejoin:miter;stroke-miterlimit:4;stroke-dasharray:none;stroke-dashoffset:0;stroke-opacity:1;stop-color:#000000;stop-opacity:1"
         d="m 443.16628,110.49924 c 0,0 -9.9391,-12.27769 -24.55539,4.09257 0,0 10.52373,-44.43357 24.55539,-4.09257 z"
         id="path3457" /><path
         style="font-variation-settings:normal;opacity:1;fill:none;fill-opacity:1;stroke:#000000;stroke-width:3.25993;stroke-linecap:butt;stroke-linejoin:miter;stroke-miterlimit:4;stroke-dasharray:none;stroke-dashoffset:0;stroke-opacity:1;stop-color:#000000;stop-opacity:1"
         d="m 487.01518,154.34815 c -29.81725,-14.6163 -71.91219,8.76978 -71.91219,8.76978 0,0 23.97073,47.35682 76.00477,-0.58465"
         id="path3459" /></g></g></svg>
