<?xml version="1.0" encoding="UTF-8" standalone="no"?>
<!-- Created with Inkscape (http://www.inkscape.org/) -->

<svg
   width="268.67789em"
   height="268.67789em"
   viewBox="0 0 268.67789 268.67789"
   version="1.1"
   id="svg5"
   xml:space="preserve"
   xmlns="http://www.w3.org/2000/svg"
   xmlns:svg="http://www.w3.org/2000/svg"><defs
     id="defs2" /><g
     id="layer1"
     transform="translate(373.10958,-887.71123)"><g
       id="g7182"
       transform="translate(837.05263,-33.68421)"><path
         style="font-variation-settings:normal;fill:none;fill-opacity:1;stroke:#000000;stroke-width:5.29167;stroke-linecap:butt;stroke-linejoin:miter;stroke-miterlimit:4;stroke-dasharray:none;stroke-dashoffset:0;stroke-opacity:1;stop-color:#000000"
         d="m -1187.2505,1014.5955 c 0,0 17.5048,-36.82041 56.7396,-30.18067 39.2349,6.63972 30.1807,-15.09034 31.3879,-12.67588"
         id="path3441" /><path
         style="font-variation-settings:normal;fill:none;fill-opacity:1;stroke:#000000;stroke-width:5.29167;stroke-linecap:butt;stroke-linejoin:miter;stroke-miterlimit:4;stroke-dasharray:none;stroke-dashoffset:0;stroke-opacity:1;stop-color:#000000"
         d="m -1049.6267,961.47751 c 0,0 10.2614,28.97343 56.13603,18.71203 0,0 26.55898,-0.60362 27.16259,22.93726"
         id="path3443" /><path
         style="font-variation-settings:normal;fill:none;fill-opacity:1;stroke:#000000;stroke-width:5.29167;stroke-linecap:butt;stroke-linejoin:miter;stroke-miterlimit:4;stroke-dasharray:none;stroke-dashoffset:0;stroke-opacity:1;stop-color:#000000"
         d="m -1023.0677,1029.0822 c 0,0 15.0903,2.4144 16.9011,4.8289 0,0 10e-5,26.559 -15.6939,31.3879 -15.6939,4.8289 -27.1626,-28.3698 -27.1626,-28.3698"
         id="path3445" /><path
         style="font-variation-settings:normal;fill:none;fill-opacity:1;stroke:#000000;stroke-width:5.29167;stroke-linecap:butt;stroke-linejoin:miter;stroke-miterlimit:4;stroke-dasharray:none;stroke-dashoffset:0;stroke-opacity:1;stop-color:#000000"
         d="m -1114.8169,1021.8388 c 0,0 11.4686,-1.2072 7.847,16.9012 -3.6217,18.1084 -4.2253,27.1626 -11.4687,30.1807 -7.2434,3.018 -21.1265,4.2253 -24.7481,-0.6036 -3.6217,-4.829 -10.8651,-7.847 -10.2615,-16.9012 0.6037,-9.0542 0,-10.865 3.6217,-13.8831 3.6217,-3.0181 21.1265,-7.847 21.1265,-7.847"
         id="path3447" /><path
         style="font-variation-settings:normal;fill:none;fill-opacity:1;stroke:#000000;stroke-width:5.29167;stroke-linecap:butt;stroke-linejoin:miter;stroke-miterlimit:4;stroke-dasharray:none;stroke-dashoffset:0;stroke-opacity:1;stop-color:#000000"
         d="m -1126.2856,1133.5073 c 0,0 31.9915,-67.6047 91.1456,-15.694 0,0 -2.4144,36.2168 -38.0276,18.712 0,0 -19.9192,-4.2252 -22.9373,7.2434 0,0 -23.5409,2.4144 -30.1807,-10.2614 z"
         id="path3449" /><rect
         style="display:inline;fill:none;fill-opacity:1;stroke:none;stroke-width:5.29167;stroke-dasharray:none;stroke-opacity:1"
         id="rect5040"
         width="268.67789"
         height="268.67789"
         x="-928.89905"
         y="338.6586"
         transform="translate(-281.26316,582.73684)" /></g></g></svg>
