<?xml version="1.0" encoding="UTF-8" standalone="no"?>
<!-- Created with Inkscape (http://www.inkscape.org/) -->

<svg
   width="268.67789em"
   height="268.67789em"
   viewBox="0 0 268.67789 268.67789"
   version="1.1"
   id="svg5"
   xml:space="preserve"
   xmlns="http://www.w3.org/2000/svg"
   xmlns:svg="http://www.w3.org/2000/svg"><defs
     id="defs2" /><g
     id="layer1"
     transform="translate(-482.77495,-49.036054)"><g
       id="g3542"
       style="display:inline;stroke-width:5.29167;stroke-dasharray:none"
       transform="translate(798.95219,-27.478178)"><circle
         id="path447"
         style="fill:#000000;stroke:#000000;stroke-width:5.29167;stroke-dasharray:none"
         cx="-222.48457"
         cy="120.23982"
         r="0.1089512" /><path
         style="fill:none;stroke:#000000;stroke-width:5.29167;stroke-linecap:butt;stroke-linejoin:miter;stroke-dasharray:none;stroke-opacity:1"
         d="m -288.56119,167.84505 c 0,0 35.55338,15.70964 66.14583,-47.12891"
         id="path451" /><path
         style="fill:none;stroke:#000000;stroke-width:5.29167;stroke-linecap:butt;stroke-linejoin:miter;stroke-dasharray:none;stroke-opacity:1"
         d="m -135.59896,103.35286 c 0,0 29.76563,46.30209 52.916669,47.12891"
         id="path453" /><path
         style="fill:none;stroke:#000000;stroke-width:5.29167;stroke-linecap:butt;stroke-linejoin:miter;stroke-dasharray:none;stroke-opacity:1"
         d="m -207.53255,195.95703 c -19.84375,-28.9388 -42.16797,0 -42.16797,0 0,0 23.15104,27.28516 42.16797,0 z"
         id="path455" /><path
         style="fill:none;stroke:#000000;stroke-width:5.29167;stroke-linecap:butt;stroke-linejoin:miter;stroke-dasharray:none;stroke-opacity:1"
         d="m -228.20312,313.36588 c 0,0 -28.9388,-50.4362 9.92187,-73.58724"
         id="path457" /><path
         style="fill:none;stroke:#000000;stroke-width:5.29167;stroke-linecap:butt;stroke-linejoin:miter;stroke-dasharray:none;stroke-opacity:1"
         d="m -205.8789,238.125 c 0,0 26.45833,-17.36328 74.41406,9.09505 0,0 27.28515,47.12891 12.40234,65.31901 0,0 -57.05078,-26.45833 -110.79427,11.57552"
         id="path459" /><path
         style="fill:none;stroke:#000000;stroke-width:5.29167;stroke-linecap:butt;stroke-linejoin:miter;stroke-dasharray:none;stroke-opacity:1"
         d="m -143.04036,178.59375 c 0,0 10.57121,-16.6127 19.03247,-16.80587 10.25054,-0.23401 23.96232,19.28634 23.96232,19.28634"
         id="path461" /><path
         style="font-variation-settings:normal;opacity:1;fill:none;fill-opacity:1;stroke:#000000;stroke-width:5.29167;stroke-linecap:butt;stroke-linejoin:miter;stroke-miterlimit:4;stroke-dasharray:none;stroke-dashoffset:0;stroke-opacity:1;stop-color:#000000;stop-opacity:1"
         d="m -100.56016,181.24214 -24.55539,15.20096 -4.67721,-12.27769 -13.447,-7.01583"
         id="path3415" /><rect
         style="display:inline;fill:none;stroke:none;stroke-width:5.29167;stroke-dasharray:none;stroke-opacity:1"
         id="rect4653"
         width="268.67789"
         height="268.67789"
         x="912.82196"
         y="113.01787"
         transform="translate(-1228.9992,-36.503636)" /></g></g></svg>
