<?xml version="1.0" encoding="UTF-8" standalone="no"?>
<!-- Created with Inkscape (http://www.inkscape.org/) -->

<svg
   width="211.49629mm"
   height="193.91296mm"
   viewBox="0 0 211.49629 193.91296"
   version="1.1"
   id="svg5"
   xml:space="preserve"
   xmlns="http://www.w3.org/2000/svg"
   xmlns:svg="http://www.w3.org/2000/svg"><defs
     id="defs2" /><g
     id="layer1"
     transform="translate(-71.495674,-443.42318)"><g
       id="g4163"
       transform="matrix(1.1266293,0.43834897,-0.43834897,1.1266293,-791.10921,-283.69466)"
       style="stroke:#000000;stroke-width:4.37725;stroke-dasharray:none;stroke-opacity:1"><path
         style="font-variation-settings:normal;opacity:1;fill:none;fill-opacity:1;stroke:#000000;stroke-width:4.37725;stroke-linecap:butt;stroke-linejoin:miter;stroke-miterlimit:4;stroke-dasharray:none;stroke-dashoffset:0;stroke-opacity:1;stop-color:#000000;stop-opacity:1"
         d="m 894.62238,326.18164 c 0,0 5.37435,-41.34115 68.62631,-38.03386"
         id="path4142" /><path
         style="font-variation-settings:normal;opacity:1;fill:none;fill-opacity:1;stroke:#000000;stroke-width:4.37725;stroke-linecap:butt;stroke-linejoin:miter;stroke-miterlimit:4;stroke-dasharray:none;stroke-dashoffset:0;stroke-opacity:1;stop-color:#000000;stop-opacity:1"
         d="m 1000.0423,263.3431 c 0,0 20.6706,-21.91081 49.196,-13.22917"
         id="path4144" /><path
         style="font-variation-settings:normal;opacity:1;fill:none;fill-opacity:1;stroke:#000000;stroke-width:4.37725;stroke-linecap:butt;stroke-linejoin:miter;stroke-miterlimit:4;stroke-dasharray:none;stroke-dashoffset:0;stroke-opacity:1;stop-color:#000000;stop-opacity:1"
         d="m 967.79621,312.53906 -45.88867,19.84375"
         id="path4146" /><path
         style="font-variation-settings:normal;opacity:1;fill:none;fill-opacity:1;stroke:#000000;stroke-width:4.37725;stroke-linecap:butt;stroke-linejoin:miter;stroke-miterlimit:4;stroke-dasharray:none;stroke-dashoffset:0;stroke-opacity:1;stop-color:#000000;stop-opacity:1"
         d="m 1019.0592,290.62825 19.4304,-12.81575"
         id="path4148" /><path
         style="font-variation-settings:normal;opacity:1;fill:none;fill-opacity:1;stroke:#000000;stroke-width:4.37725;stroke-linecap:butt;stroke-linejoin:miter;stroke-miterlimit:4;stroke-dasharray:none;stroke-dashoffset:0;stroke-opacity:1;stop-color:#000000;stop-opacity:1"
         d="m 1057.0931,281.5332 -43.8216,21.4974"
         id="path4150" /><path
         style="font-variation-settings:normal;opacity:1;fill:none;fill-opacity:1;stroke:#000000;stroke-width:4.37725;stroke-linecap:butt;stroke-linejoin:miter;stroke-miterlimit:4;stroke-dasharray:none;stroke-dashoffset:0;stroke-opacity:1;stop-color:#000000;stop-opacity:1"
         d="m 957.46093,327.83528 c 0,0 -28.52539,4.96094 -28.52539,20.67057"
         id="path4152" /><path
         style="font-variation-settings:normal;opacity:1;fill:none;fill-opacity:1;stroke:#000000;stroke-width:4.37725;stroke-linecap:butt;stroke-linejoin:miter;stroke-miterlimit:4;stroke-dasharray:none;stroke-dashoffset:0;stroke-opacity:1;stop-color:#000000;stop-opacity:1"
         d="m 969.86327,421.26627 c 0,0 -4.54753,-54.1569 14.05599,-57.8776 0,0 16.53644,-6.61458 26.04494,2.06706 0,0 14.4694,-3.30729 21.084,-10.7487 0,0 8.2682,-8.68164 15.2962,-2.89388 0,0 13.6426,12.81576 24.8047,13.64258 0,0 -11.1621,-7.85482 -18.6035,38.44727 0,0 -39.2741,-21.91081 -67.79951,17.77669"
         id="path4154" /></g></g></svg>
