<?xml version="1.0" encoding="UTF-8" standalone="no"?>
<!-- Created with Inkscape (http://www.inkscape.org/) -->

<svg
   width="227.61333em"
   height="192.81459em"
   viewBox="0 0 227.61333 192.81459"
   version="1.1"
   id="svg5"
   xml:space="preserve"
   xmlns="http://www.w3.org/2000/svg"
   xmlns:svg="http://www.w3.org/2000/svg"><defs
     id="defs2" /><g
     id="layer1"
     transform="translate(-352.66644,137.14195)"><g
       id="g4520"
       transform="matrix(0.68381961,0,0,0.68381961,-583.61358,-128.49366)"
       style="stroke:#000000;stroke-width:7.7384;stroke-dasharray:none;stroke-opacity:1"><path
         style="font-variation-settings:normal;opacity:1;fill:none;fill-opacity:1;stroke:#000000;stroke-width:7.7384;stroke-linecap:butt;stroke-linejoin:miter;stroke-miterlimit:4;stroke-dasharray:none;stroke-dashoffset:0;stroke-opacity:1;stop-color:#000000;stop-opacity:1"
         d="m 1372.7631,57.295904 c 0,0 29.2326,-70.15825 109.9146,-31.571212"
         id="path4495" /><path
         style="font-variation-settings:normal;opacity:1;fill:none;fill-opacity:1;stroke:#000000;stroke-width:7.7384;stroke-linecap:butt;stroke-linejoin:miter;stroke-miterlimit:4;stroke-dasharray:none;stroke-dashoffset:0;stroke-opacity:1;stop-color:#000000;stop-opacity:1"
         d="m 1600.7774,16.370258 c 0,0 4.6772,-54.957295 99.3909,-2.338608"
         id="path4497" /><path
         style="font-variation-settings:normal;opacity:1;fill:none;fill-opacity:1;stroke:#000000;stroke-width:7.7384;stroke-linecap:butt;stroke-linejoin:miter;stroke-miterlimit:4;stroke-dasharray:none;stroke-dashoffset:0;stroke-opacity:1;stop-color:#000000;stop-opacity:1"
         d="m 1449.9372,100.56016 c 0,0 38.587,0 24.5554,32.74051 -14.0317,32.74052 -56.1266,-2.3386 -52.6187,-14.03165 3.5079,-11.69304 9.3544,-31.571208 36.2484,-35.07912"
         id="path4499" /><path
         style="font-variation-settings:normal;opacity:1;fill:none;fill-opacity:1;stroke:#000000;stroke-width:7.7384;stroke-linecap:butt;stroke-linejoin:miter;stroke-miterlimit:4;stroke-dasharray:none;stroke-dashoffset:0;stroke-opacity:1;stop-color:#000000;stop-opacity:1"
         d="m 1653.3961,76.004771 c 0,0 30.4019,10.523738 18.7089,33.909819 -11.6931,23.38608 -53.788,15.20096 -53.788,5.84652 0,-9.35443 1.1693,-46.772163 17.5395,-46.772163"
         id="path4501" /><path
         style="font-variation-settings:normal;opacity:1;fill:none;fill-opacity:1;stroke:#000000;stroke-width:7.7384;stroke-linecap:butt;stroke-linejoin:miter;stroke-miterlimit:4;stroke-dasharray:none;stroke-dashoffset:0;stroke-opacity:1;stop-color:#000000;stop-opacity:1"
         d="m 1515.4182,206.96684 c 0,0 73.6662,-21.04748 87.6978,-3.50792 l -17.5395,57.29591 c 0,0 -59.6345,25.72469 -79.5127,-43.26425"
         id="path4503" /></g></g></svg>
